<?xml version="1.0" encoding="UTF-8" standalone="no"?>
<!DOCTYPE svg PUBLIC "-//W3C//DTD SVG 1.1//EN" "http://www.w3.org/Graphics/SVG/1.1/DTD/svg11.dtd">
<svg xmlns="http://www.w3.org/2000/svg" version="1.1" viewBox="0.00 0.00 354.00 49.00">
<path stroke="#f384a4" stroke-width="2.00" fill="none" stroke-linecap="butt" vector-effect="non-scaling-stroke" d="
  M 341.85 29.00
  L 342.25 30.24
  Q 342.46 30.89 342.83 30.32
  Q 343.13 29.86 342.98 29.29"
/>
<path fill="#fdfdfd" d="
  M 20.28 23.79
  L 28.60 2.97
  Q 29.36 1.06 31.42 1.09
  L 34.96 1.14
  Q 37.24 1.17 36.39 3.29
  Q 30.08 19.11 23.92 34.59
  Q 22.05 39.28 16.88 39.26
  A 2.34 2.33 -10.6 0 1 14.72 37.79
  Q 8.24 21.66 1.63 4.89
  Q 1.09 3.52 0.79 2.13
  A 0.79 0.79 0.0 0 1 1.55 1.17
  L 7.84 1.09
  A 2.74 2.74 0.0 0 1 10.43 2.82
  L 18.83 23.79
  Q 19.55 25.61 20.28 23.79
  Z"
/>
<path fill="#fdfdfd" d="
  M 157.98 18.30
  Q 157.47 18.79 158.05 19.18
  Q 165.38 24.19 162.16 32.44
  C 158.48 41.91 143.20 39.22 135.58 39.22
  Q 134.09 39.22 134.09 37.72
  L 134.08 2.73
  A 1.39 1.38 -2.2 0 1 135.36 1.35
  C 139.48 1.03 143.57 1.25 147.73 1.12
  C 152.71 0.96 159.17 2.83 160.67 8.05
  Q 162.40 14.11 157.98 18.30
  Z
  M 143.00 8.64
  L 143.00 15.60
  A 0.62 0.62 0.0 0 0 143.62 16.22
  L 148.45 16.22
  A 4.59 3.97 0.0 0 0 153.04 12.25
  L 153.04 11.99
  A 4.59 3.97 -0.0 0 0 148.45 8.02
  L 143.62 8.02
  A 0.62 0.62 0.0 0 0 143.00 8.64
  Z
  M 143.03 23.76
  L 143.05 31.80
  A 0.66 0.66 0.0 0 0 143.72 32.46
  L 149.89 32.44
  A 5.13 4.59 -0.2 0 0 155.00 27.83
  L 155.00 27.65
  A 5.13 4.59 -0.2 0 0 149.85 23.08
  L 143.68 23.10
  A 0.66 0.66 0.0 0 0 143.03 23.76
  Z"
/>
<path fill="#fdfdfd" d="
  M 236.33 28.69
  A 0.49 0.49 0.0 0 0 235.52 28.70
  Q 235.19 29.19 235.19 29.80
  Q 235.18 34.29 235.18 38.33
  Q 235.18 39.20 234.30 39.20
  L 228.21 39.19
  A 0.95 0.95 0.0 0 1 227.26 38.24
  Q 227.26 20.53 227.22 3.51
  Q 227.21 -0.38 230.61 1.54
  Q 230.67 1.57 231.82 2.22
  Q 235.19 4.12 235.19 8.00
  L 235.19 20.08
  Q 235.19 22.47 236.85 20.75
  L 243.09 14.27
  A 4.32 4.31 -67.1 0 1 246.30 12.96
  L 251.55 13.10
  Q 253.79 13.16 252.24 14.79
  L 243.89 23.57
  A 1.95 1.95 0.0 0 0 243.75 26.11
  L 252.20 37.22
  Q 253.62 39.08 251.27 39.12
  L 245.60 39.22
  A 3.78 3.77 -17.7 0 1 242.41 37.58
  L 236.33 28.69
  Z"
/>
<rect fill="#fdfdfd" x="267.65" y="1.02" width="6.28" height="6.80" rx="0.72"/>
<path fill="#fdfdfd" d="
  M 284.83 26.42
  L 284.87 39.49
  A 0.34 0.34 0.0 0 1 284.52 39.83
  L 278.95 39.74
  A 0.58 0.57 86.6 0 1 278.38 39.23
  C 278.30 38.64 278.05 37.90 278.04 37.33
  Q 277.95 19.24 278.03 1.64
  Q 278.03 0.99 278.68 1.00
  Q 283.78 1.08 288.98 0.94
  Q 293.08 0.83 296.12 2.31
  C 303.90 6.09 305.59 16.61 299.02 22.50
  C 295.08 26.02 290.62 25.83 285.56 25.71
  A 0.71 0.71 0.0 0 0 284.83 26.42
  Z
  M 284.84 7.32
  L 284.84 19.50
  A 0.46 0.46 0.0 0 0 285.30 19.96
  L 289.68 19.96
  A 6.58 6.30 -0.0 0 0 296.26 13.66
  L 296.26 13.16
  A 6.58 6.30 0.0 0 0 289.68 6.86
  L 285.30 6.86
  A 0.46 0.46 0.0 0 0 284.84 7.32
  Z"
/>
<rect fill="#e80b4a" x="-2.24" y="-2.38" transform="translate(261.49,4.39) rotate(1.7)" width="4.48" height="4.76" rx="0.76"/>
<path fill="#fdfdfd" d="
  M 77.97 12.47
  L 77.99 7.21
  Q 77.99 6.40 78.79 6.40
  L 84.75 6.39
  Q 85.61 6.39 85.63 7.25
  L 85.75 12.22
  Q 85.76 12.68 86.22 12.74
  L 89.39 13.17
  Q 90.00 13.25 90.00 13.87
  L 90.00 18.00
  Q 90.00 18.75 89.25 18.84
  L 86.24 19.19
  A 0.59 0.58 -3.3 0 0 85.72 19.77
  Q 85.70 24.68 85.78 28.59
  Q 85.84 31.50 89.20 32.75
  Q 89.97 33.04 89.98 33.87
  L 90.01 37.95
  Q 90.03 39.60 88.38 39.51
  C 75.71 38.81 78.09 28.70 77.95 20.08
  A 0.88 0.86 6.5 0 0 77.28 19.25
  L 74.57 18.57
  Q 73.99 18.43 73.99 17.84
  L 73.99 14.22
  Q 73.99 13.58 74.59 13.36
  Q 76.02 12.83 77.33 13.03
  Q 77.97 13.13 77.97 12.47
  Z"
/>
<path fill="#fdfdfd" d="
  M 321.97 17.75
  Q 321.89 17.50 321.84 17.24
  Q 321.28 14.60 318.69 13.83
  Q 315.15 12.79 311.97 14.04
  Q 309.02 15.19 305.74 15.06
  A 0.59 0.58 0.0 0 1 305.17 14.50
  C 304.98 10.78 308.93 8.56 312.17 8.17
  C 319.88 7.23 328.96 9.36 328.79 18.97
  Q 328.64 27.28 328.66 35.45
  C 328.67 40.38 319.40 39.81 316.31 39.87
  Q 313.03 39.94 310.48 38.95
  C 306.29 37.31 302.02 32.66 303.70 27.82
  C 306.02 21.15 312.78 19.49 319.76 20.34
  Q 322.81 20.71 321.97 17.75
  Z
  M 322.23 33.48
  L 322.21 26.10
  A 0.53 0.53 0.0 0 0 321.68 25.57
  L 315.00 25.59
  A 4.89 4.04 -0.2 0 0 310.12 29.65
  L 310.12 30.01
  A 4.89 4.04 -0.2 0 0 315.02 34.03
  L 321.70 34.01
  A 0.53 0.53 0.0 0 0 322.23 33.48
  Z"
/>
<path fill="#fdfdfd" d="
  M 341.85 29.00
  L 342.25 30.24
  Q 342.46 30.89 342.83 30.32
  Q 343.13 29.86 342.98 29.29
  Q 343.11 29.26 343.24 29.24
  Q 343.24 29.24 343.24 29.23
  L 346.92 10.18
  Q 347.34 8.00 349.56 8.00
  L 351.21 8.00
  Q 353.64 7.99 353.03 10.34
  Q 348.58 27.59 344.25 44.02
  Q 343.23 47.92 338.31 49.00
  L 331.72 49.00
  Q 329.19 47.35 330.43 43.80
  Q 330.62 43.27 331.18 43.21
  Q 334.21 42.88 337.48 43.00
  C 340.00 43.10 340.09 40.96 339.50 39.04
  Q 335.07 24.43 330.43 9.18
  Q 330.10 8.09 331.24 8.07
  L 334.93 7.99
  A 1.80 1.79 82.0 0 1 336.70 9.33
  L 341.85 29.00
  Z"
/>
<rect fill="#fdfdfd" x="267.23" y="10.20" width="6.76" height="29.58" rx="0.61"/>
<rect fill="#92d8ee" fill-opacity="0.996" x="-3.01" y="-2.77" transform="translate(261.47,13.86) rotate(-1.4)" width="6.02" height="5.54" rx="0.26"/>
<path fill="#fdfdfd" d="
  M 53.69 28.71
  Q 51.49 28.73 52.62 30.62
  C 55.09 34.75 59.50 35.71 63.04 32.54
  Q 65.30 30.52 70.43 31.37
  Q 71.07 31.47 70.88 32.09
  Q 70.30 34.00 69.00 35.45
  C 61.33 43.97 46.32 40.27 44.86 28.25
  C 43.95 20.70 47.92 14.83 55.16 12.69
  Q 58.90 11.58 62.87 12.96
  Q 72.15 16.18 72.57 27.11
  Q 72.62 28.58 71.15 28.59
  L 53.69 28.71
  Z
  M 52.89 23.32
  L 64.35 23.26
  A 0.11 0.11 0.0 0 0 64.46 23.15
  L 64.46 23.13
  A 5.66 5.05 -0.3 0 0 58.78 18.11
  L 58.42 18.11
  A 5.66 5.05 -0.3 0 0 52.78 23.19
  L 52.78 23.21
  A 0.11 0.11 0.0 0 0 52.89 23.32
  Z"
/>
<path fill="#fdfdfd" d="
  M 185.70 38.03
  C 178.20 42.33 169.40 40.01 166.32 31.62
  C 163.13 22.93 167.99 13.01 177.73 12.17
  Q 181.02 11.88 184.41 13.93
  A 5.88 5.85 71.7 0 0 185.20 14.33
  Q 186.16 14.73 186.24 14.27
  Q 186.32 13.83 186.73 13.68
  Q 189.79 12.59 193.41 13.18
  A 0.86 0.85 4.8 0 1 194.13 14.02
  L 194.13 38.63
  A 0.50 0.50 0.0 0 1 193.66 39.13
  Q 190.48 39.40 187.33 38.98
  Q 186.88 38.92 186.54 38.63
  Q 186.40 38.52 186.37 38.34
  Q 186.25 37.72 185.70 38.03
  Z
  M 180.7432 32.9335
  A 6.78 6.44 82.6 0 0 186.2564 25.3806
  A 6.78 6.44 82.6 0 0 178.9968 19.4865
  A 6.78 6.44 82.6 0 0 173.4836 27.0394
  A 6.78 6.44 82.6 0 0 180.7432 32.9335
  Z"
/>
<path fill="#fdfdfd" d="
  M 112.77 14.46
  Q 113.07 15.21 113.72 14.73
  Q 118.29 11.33 122.91 12.61
  C 128.50 14.17 130.12 18.94 130.07 24.33
  Q 130.00 31.23 129.94 37.73
  Q 129.93 39.57 128.10 39.45
  L 123.64 39.17
  Q 122.12 39.07 122.08 37.55
  Q 121.92 30.35 122.03 23.81
  Q 122.10 19.75 117.65 19.05
  Q 117.53 19.04 117.42 19.06
  Q 113.06 19.91 113.04 24.43
  Q 113.01 31.55 113.05 38.41
  Q 113.06 39.20 112.27 39.21
  L 106.48 39.33
  A 1.22 1.21 89.3 0 1 105.24 38.11
  L 105.22 14.06
  Q 105.22 13.53 105.73 13.40
  Q 108.17 12.78 110.93 13.11
  Q 112.31 13.28 112.77 14.46
  Z"
/>
<path fill="#fdfdfd" d="
  M 206.83 14.72
  C 214.49 9.31 223.18 13.30 223.09 22.90
  Q 223.01 31.56 223.03 38.26
  Q 223.04 39.46 221.84 39.46
  L 216.51 39.49
  Q 215.29 39.50 215.28 38.27
  Q 215.22 31.29 215.20 24.15
  Q 215.19 20.60 212.30 19.41
  C 209.05 18.08 206.27 21.22 206.22 24.21
  Q 206.11 30.70 206.13 37.82
  Q 206.14 39.58 204.37 39.51
  L 199.70 39.33
  Q 198.37 39.28 198.37 37.95
  L 198.35 14.28
  Q 198.34 13.68 198.92 13.50
  Q 202.00 12.52 205.10 13.33
  Q 205.91 13.54 205.99 14.38
  Q 206.01 14.59 206.19 14.72
  Q 206.51 14.95 206.83 14.72
  Z"
/>
<path fill="#fdfdfd" d="
  M 41.56 15.59
  L 41.53 37.18
  A 2.50 2.50 0.0 0 1 38.70 39.65
  L 35.92 39.28
  A 2.50 2.50 0.0 0 1 33.75 36.77
  L 33.98 18.28
  A 2.50 2.50 0.0 0 1 34.66 16.59
  L 37.25 13.87
  A 2.50 2.50 0.0 0 1 41.56 15.59
  Z"
/>
<path fill="#fdfdfd" d="
  M 101.03 15.23
  L 101.06 37.49
  A 2.14 2.14 0.0 0 1 98.91 39.63
  L 95.33 39.61
  A 2.14 2.14 0.0 0 1 93.20 37.45
  L 93.38 18.22
  A 2.14 2.14 0.0 0 1 94.10 16.64
  L 97.47 13.63
  A 2.14 2.14 0.0 0 1 101.03 15.23
  Z"
/>
<path fill="#e80b4a" d="
  M 342.98 29.29
  Q 343.13 29.86 342.83 30.32
  Q 342.46 30.89 342.25 30.24
  L 341.85 29.00
  Q 342.18 28.45 342.60 28.68
  Q 342.93 28.87 342.98 29.29
  Z"
/>
</svg>
