<?xml version="1.0" encoding="UTF-8" standalone="no"?>
<!DOCTYPE svg PUBLIC "-//W3C//DTD SVG 1.1//EN" "http://www.w3.org/Graphics/SVG/1.1/DTD/svg11.dtd">
<svg xmlns="http://www.w3.org/2000/svg" version="1.1" viewBox="0.00 0.00 32.00 20.00">
<path fill="#025498" d="
  M 16.40 13.82
  Q 17.21 13.51 17.81 12.85
  Q 22.54 7.65 27.40 2.15
  Q 28.63 0.75 30.28 1.14
  Q 31.14 1.34 30.75 3.20
  A 1.71 1.64 -20.9 0 1 30.40 3.94
  Q 24.32 11.21 17.71 17.90
  Q 16.04 19.59 14.33 17.89
  Q 6.77 10.39 1.37 3.57
  Q 0.78 2.82 1.05 1.87
  A 1.29 1.29 0.0 0 1 2.94 1.10
  Q 5.23 2.40 6.87 4.51
  Q 10.73 9.44 14.93 13.52
  A 1.39 1.39 0.0 0 0 16.40 13.82
  Z"
/>
</svg>
