<?xml version="1.0" encoding="UTF-8" standalone="no"?>
<!DOCTYPE svg PUBLIC "-//W3C//DTD SVG 1.1//EN" "http://www.w3.org/Graphics/SVG/1.1/DTD/svg11.dtd">
<svg xmlns="http://www.w3.org/2000/svg" version="1.1" viewBox="0.00 0.00 20.00 32.00">
<path fill="#025497" d="
  M 13.64 15.16
  Q 12.46 13.61 10.88 12.26
  Q 6.60 8.61 2.48 4.83
  A 4.50 4.46 12.1 0 1 1.24 2.93
  Q 0.45 0.61 2.58 1.14
  Q 3.69 1.42 4.56 2.16
  Q 13.26 9.50 18.08 14.46
  C 19.78 16.20 18.10 17.39 16.87 18.65
  Q 10.43 25.19 3.47 30.57
  Q 2.59 31.25 1.58 30.79
  Q -0.15 29.99 4.24 25.74
  Q 5.26 24.75 6.33 23.80
  Q 10.06 20.49 13.49 17.14
  A 1.50 1.49 -40.9 0 0 13.64 15.16
  Z"
/>
</svg>
