<?xml version="1.0" encoding="UTF-8" standalone="no"?>
<!DOCTYPE svg PUBLIC "-//W3C//DTD SVG 1.1//EN" "http://www.w3.org/Graphics/SVG/1.1/DTD/svg11.dtd">
<svg xmlns="http://www.w3.org/2000/svg" version="1.1" viewBox="0.00 0.00 64.00 57.00">
<path fill="#ffffff" d="
  M 0.00 46.05
  L 0.00 10.53
  Q 0.81 6.33 5.25 5.70
  Q 7.30 5.41 9.12 5.57
  C 10.31 5.67 10.93 6.77 10.71 7.86
  Q 10.61 8.35 10.13 8.52
  Q 7.97 9.32 5.50 8.93
  A 1.38 1.36 -67.4 0 0 4.16 9.49
  Q 3.72 10.10 3.77 10.70
  Q 3.92 12.58 5.80 12.72
  C 8.89 12.95 14.18 13.45 16.99 11.66
  Q 25.82 6.04 34.63 0.66
  A 2.17 2.17 0.0 0 1 37.50 1.22
  L 39.32 3.70
  A 1.32 1.31 -33.3 0 0 41.05 4.05
  L 46.73 0.67
  A 2.23 2.22 -31.3 0 1 49.75 1.40
  Q 52.97 6.55 55.96 11.65
  Q 56.93 13.29 58.53 14.39
  C 62.53 17.15 63.67 21.02 63.57 25.71
  Q 63.37 34.53 63.62 43.05
  Q 63.76 47.83 62.09 50.78
  C 59.73 54.97 56.17 56.09 51.65 56.06
  Q 32.93 55.93 12.69 56.07
  C 5.82 56.11 1.34 53.17 0.00 46.05
  Z
  M 39.19 12.78
  A 0.73 0.73 0.0 0 0 39.81 11.68
  L 35.84 4.96
  A 0.73 0.73 0.0 0 0 34.84 4.71
  L 23.63 11.48
  A 0.73 0.73 0.0 0 0 24.01 12.83
  L 39.19 12.78
  Z
  M 44.23 12.02
  A 1.41 1.41 0.0 0 0 45.39 12.72
  L 50.26 12.93
  A 1.41 1.41 0.0 0 0 51.51 10.76
  L 48.20 5.59
  A 1.41 1.41 0.0 0 0 46.32 5.12
  L 42.97 7.01
  A 1.41 1.41 0.0 0 0 42.44 8.95
  L 44.23 12.02
  Z
  M 4.11 16.52
  Q 3.56 16.67 3.56 17.24
  Q 3.49 30.31 3.54 44.21
  C 3.57 50.93 7.88 52.88 13.90 52.84
  Q 32.82 52.72 52.66 52.79
  C 56.68 52.81 60.06 49.71 60.02 45.62
  Q 59.92 34.99 60.06 24.36
  C 60.12 19.51 57.09 16.04 52.09 16.03
  Q 30.67 16.01 7.60 16.03
  Q 5.88 16.04 4.11 16.52
  Z"
/>
</svg>
