<?xml version="1.0" encoding="UTF-8" standalone="no"?>
<!DOCTYPE svg PUBLIC "-//W3C//DTD SVG 1.1//EN" "http://www.w3.org/Graphics/SVG/1.1/DTD/svg11.dtd">
<svg xmlns="http://www.w3.org/2000/svg" version="1.1" viewBox="0.00 0.00 68.00 60.00">
<g stroke-width="2.00" fill="none" stroke-linecap="butt">
<path stroke="#7c4b92" vector-effect="non-scaling-stroke" d="
  M 59.51 14.31
  L 54.63 13.71"
/>
<path stroke="#eb88a3" vector-effect="non-scaling-stroke" d="
  M 54.63 13.71
  L 50.39 6.59
  Q 49.69 5.41 48.54 6.15
  L 44.91 8.47
  Q 43.83 9.15 44.53 10.22
  L 46.82 13.77"
/>
<path stroke="#7c4b92" vector-effect="non-scaling-stroke" d="
  M 46.82 13.77
  L 42.60 13.75"
/>
<path stroke="#eb88a3" vector-effect="non-scaling-stroke" d="
  M 42.60 13.75
  L 37.87 6.02
  A 0.66 0.65 57.8 0 0 36.97 5.81
  L 24.32 13.72"
/>
<path stroke="#7c4b92" vector-effect="non-scaling-stroke" d="
  M 24.32 13.72
  Q 21.23 14.13 18.15 13.52"
/>
<path stroke="#eb88a3" vector-effect="non-scaling-stroke" d="
  M 18.15 13.52
  Q 19.59 12.61 19.29 12.30"
/>
<path stroke="#8fc1ed" vector-effect="non-scaling-stroke" d="
  M 54.63 13.71
  L 46.82 13.77"
/>
<path stroke="#8fc1ed" vector-effect="non-scaling-stroke" d="
  M 13.64 10.61
  Q 11.68 9.50 8.12 10.54"
/>
<path stroke="#8fc1ed" vector-effect="non-scaling-stroke" d="
  M 7.13 13.28
  Q 7.23 13.37 7.33 13.47
  A 0.20 0.18 -22.5 0 0 7.45 13.51
  L 18.15 13.52"
/>
<path stroke="#8fc1ed" vector-effect="non-scaling-stroke" d="
  M 42.60 13.75
  L 24.32 13.72"
/>
<path stroke="#8fc1ed" vector-effect="non-scaling-stroke" d="
  M 52.13 42.11
  C 43.02 41.59 43.50 28.33 52.92 28.43
  Q 57.61 28.48 61.68 28.44
  A 0.42 0.42 0.0 0 0 62.10 28.08
  C 62.66 24.18 61.95 19.94 58.10 18.12
  Q 56.59 17.41 52.80 17.41
  Q 29.43 17.43 6.32 17.36
  Q 5.73 17.36 5.73 17.95
  Q 5.87 31.16 5.71 44.61
  C 5.64 50.55 8.29 53.82 14.43 53.80
  Q 36.55 53.71 55.34 53.75
  Q 58.90 53.76 61.00 50.84
  C 62.52 48.72 62.29 45.26 62.20 42.69
  A 0.59 0.59 0.0 0 0 61.59 42.13
  Q 56.27 42.34 52.13 42.11"
/>
<path stroke="#8fc1ed" vector-effect="non-scaling-stroke" d="
  M 62.22 38.02
  L 62.22 32.66
  A 0.66 0.66 0.0 0 0 61.57 32.00
  L 52.70 31.98
  A 3.59 3.22 0.1 0 0 49.10 35.20
  L 49.10 35.44
  A 3.59 3.22 0.1 0 0 52.68 38.66
  L 61.55 38.68
  A 0.66 0.66 0.0 0 0 62.22 38.02"
/>
</g>
<path fill="#d71248" d="
  M 59.51 14.31
  L 54.63 13.71
  L 50.39 6.59
  Q 49.69 5.41 48.54 6.15
  L 44.91 8.47
  Q 43.83 9.15 44.53 10.22
  L 46.82 13.77
  L 42.60 13.75
  L 37.87 6.02
  A 0.66 0.65 57.8 0 0 36.97 5.81
  L 24.32 13.72
  Q 21.23 14.13 18.15 13.52
  Q 19.59 12.61 19.29 12.30
  Q 27.87 7.27 36.28 2.04
  Q 38.87 0.43 40.42 3.17
  Q 41.17 4.47 42.53 4.96
  Q 43.10 5.16 43.63 4.86
  L 48.94 1.83
  Q 50.84 0.75 52.02 2.59
  L 59.51 14.31
  Z"
/>
<path fill="#fefefe" d="
  M 42.60 13.75
  L 24.32 13.72
  L 36.97 5.81
  A 0.66 0.65 57.8 0 1 37.87 6.02
  L 42.60 13.75
  Z"
/>
<path fill="#fefefe" d="
  M 54.63 13.71
  L 46.82 13.77
  L 44.53 10.22
  Q 43.83 9.15 44.91 8.47
  L 48.54 6.15
  Q 49.69 5.41 50.39 6.59
  L 54.63 13.71
  Z"
/>
<path fill="#2083dc" d="
  M 13.64 10.61
  Q 11.68 9.50 8.12 10.54
  Q 7.48 10.18 6.83 10.50
  Q 6.33 10.75 6.12 11.40
  Q 5.61 12.94 7.13 13.28
  Q 7.23 13.37 7.33 13.47
  A 0.20 0.18 -22.5 0 0 7.45 13.51
  L 18.15 13.52
  Q 21.23 14.13 24.32 13.72
  L 42.60 13.75
  L 46.82 13.77
  L 54.63 13.71
  L 59.51 14.31
  Q 62.68 16.97 63.38 17.88
  Q 65.93 21.21 65.91 24.84
  Q 65.85 34.08 65.97 47.75
  C 66.02 53.75 59.70 57.55 54.31 57.52
  Q 36.60 57.44 17.68 57.54
  Q 11.09 57.58 8.49 56.37
  C 3.44 54.00 1.94 49.09 1.99 43.72
  Q 2.14 28.42 1.99 12.49
  Q 1.98 11.05 2.76 9.77
  C 4.67 6.65 8.02 6.41 11.60 6.76
  Q 12.08 6.81 12.36 7.19
  Q 13.48 8.65 13.64 10.61
  Z
  M 52.13 42.11
  C 43.02 41.59 43.50 28.33 52.92 28.43
  Q 57.61 28.48 61.68 28.44
  A 0.42 0.42 0.0 0 0 62.10 28.08
  C 62.66 24.18 61.95 19.94 58.10 18.12
  Q 56.59 17.41 52.80 17.41
  Q 29.43 17.43 6.32 17.36
  Q 5.73 17.36 5.73 17.95
  Q 5.87 31.16 5.71 44.61
  C 5.64 50.55 8.29 53.82 14.43 53.80
  Q 36.55 53.71 55.34 53.75
  Q 58.90 53.76 61.00 50.84
  C 62.52 48.72 62.29 45.26 62.20 42.69
  A 0.59 0.59 0.0 0 0 61.59 42.13
  Q 56.27 42.34 52.13 42.11
  Z
  M 62.22 38.02
  L 62.22 32.66
  A 0.66 0.66 0.0 0 0 61.57 32.00
  L 52.70 31.98
  A 3.59 3.22 0.1 0 0 49.10 35.20
  L 49.10 35.44
  A 3.59 3.22 0.1 0 0 52.68 38.66
  L 61.55 38.68
  A 0.66 0.66 0.0 0 0 62.22 38.02
  Z"
/>
<path fill="#fefefe" d="
  M 13.64 10.61
  Q 16.33 12.42 19.29 12.30
  Q 19.59 12.61 18.15 13.52
  L 7.45 13.51
  A 0.20 0.18 -22.5 0 1 7.33 13.47
  Q 7.23 13.37 7.13 13.28
  L 8.90 12.07
  Q 9.37 11.75 9.04 11.29
  Q 8.73 10.86 8.12 10.54
  Q 11.68 9.50 13.64 10.61
  Z"
/>
<path fill="#fefefe" d="
  M 52.92 28.43
  C 43.50 28.33 43.02 41.59 52.13 42.11
  Q 56.27 42.34 61.59 42.13
  A 0.59 0.59 0.0 0 1 62.20 42.69
  C 62.29 45.26 62.52 48.72 61.00 50.84
  Q 58.90 53.76 55.34 53.75
  Q 36.55 53.71 14.43 53.80
  C 8.29 53.82 5.64 50.55 5.71 44.61
  Q 5.87 31.16 5.73 17.95
  Q 5.73 17.36 6.32 17.36
  Q 29.43 17.43 52.80 17.41
  Q 56.59 17.41 58.10 18.12
  C 61.95 19.94 62.66 24.18 62.10 28.08
  A 0.42 0.42 0.0 0 1 61.68 28.44
  Q 57.61 28.48 52.92 28.43
  Z"
/>
<path fill="#fefefe" d="
  M 62.22 38.02
  A 0.66 0.66 0.0 0 1 61.55 38.68
  L 52.68 38.66
  A 3.59 3.22 0.1 0 1 49.10 35.44
  L 49.10 35.20
  A 3.59 3.22 0.1 0 1 52.70 31.98
  L 61.57 32.00
  A 0.66 0.66 0.0 0 1 62.22 32.66
  L 62.22 38.02
  Z"
/>
</svg>
