<?xml version="1.0" encoding="UTF-8" standalone="no"?>
<!DOCTYPE svg PUBLIC "-//W3C//DTD SVG 1.1//EN" "http://www.w3.org/Graphics/SVG/1.1/DTD/svg11.dtd">
<svg xmlns="http://www.w3.org/2000/svg" version="1.1" viewBox="0.00 0.00 52.00 64.00">
<path fill="#025d9d" d="
  M 20.40 0.00
  L 33.75 0.00
  Q 37.67 0.62 40.51 3.25
  Q 42.77 5.35 48.16 10.60
  Q 51.40 13.76 52.00 18.39
  L 52.00 44.01
  Q 50.24 52.67 41.23 51.90
  A 1.28 1.28 0.0 0 0 39.85 53.29
  Q 40.67 62.39 31.90 64.00
  L 8.25 64.00
  Q 1.22 62.99 0.00 55.86
  L 0.00 26.79
  Q -0.63 19.69 3.99 16.51
  C 6.12 15.04 8.46 15.10 10.90 14.87
  A 1.34 1.34 0.0 0 0 12.11 13.63
  Q 12.23 11.73 12.10 9.78
  C 11.74 4.48 15.07 0.78 20.40 0.00
  Z
  M 16.60 46.37
  C 17.77 47.53 19.06 48.09 20.75 48.08
  Q 32.90 48.05 43.28 48.07
  Q 48.16 48.08 48.14 43.33
  Q 48.08 30.07 48.07 18.86
  C 48.07 16.82 47.47 15.23 46.04 13.75
  Q 41.34 8.91 36.93 5.17
  A 5.02 4.97 -24.0 0 0 33.77 3.98
  Q 27.60 3.90 21.00 3.86
  Q 15.90 3.83 15.90 9.05
  Q 15.94 27.49 15.96 44.85
  Q 15.96 45.74 16.60 46.37
  Z
  M 34.89 58.75
  Q 35.01 58.68 35.13 58.59
  Q 35.38 58.41 35.50 58.11
  Q 36.39 55.81 36.02 53.16
  Q 35.83 51.86 34.52 51.88
  Q 28.58 51.95 22.18 51.91
  Q 19.62 51.89 17.49 51.22
  C 14.20 50.19 12.15 46.69 12.14 43.24
  Q 12.10 32.06 12.05 20.71
  Q 12.05 18.70 10.04 18.82
  Q 8.34 18.91 6.71 19.28
  Q 3.94 19.91 3.94 22.75
  L 3.90 55.96
  A 4.08 4.07 -89.6 0 0 7.92 60.04
  Q 19.46 60.19 32.32 60.04
  Q 33.63 60.02 34.45 59.11
  Q 34.64 58.89 34.89 58.75
  Z"
/>
</svg>
