<?xml version="1.0" encoding="UTF-8" standalone="no"?>
<!DOCTYPE svg PUBLIC "-//W3C//DTD SVG 1.1//EN" "http://www.w3.org/Graphics/SVG/1.1/DTD/svg11.dtd">
<svg xmlns="http://www.w3.org/2000/svg" version="1.1" viewBox="0.00 0.00 64.00 24.00">
<path fill="#2082df" d="
  M 40.33 16.49
  A 1.79 1.78 -14.2 0 0 38.41 15.35
  Q 32.02 16.25 25.37 15.31
  A 1.60 1.59 -75.7 0 0 23.65 16.34
  L 21.53 22.02
  A 1.47 1.46 23.3 0 1 19.51 22.82
  L 18.97 22.56
  A 1.18 1.18 0.0 0 1 18.36 21.20
  L 19.81 15.95
  A 1.56 1.56 0.0 0 0 18.90 14.09
  L 8.76 9.91
  A 1.06 1.04 29.2 0 0 7.52 10.25
  Q 5.36 13.17 2.92 15.30
  Q 2.00 16.09 1.04 15.35
  Q 0.68 15.08 0.50 14.44
  A 1.57 1.56 -34.7 0 1 0.75 13.08
  L 4.13 8.58
  A 1.75 1.75 0.0 0 0 3.95 6.26
  L 2.40 4.74
  Q 1.69 4.05 1.25 3.17
  Q 0.22 1.11 0.92 0.73
  Q 2.21 0.05 3.12 0.85
  Q 17.87 13.87 36.75 11.90
  C 46.70 10.86 53.67 6.79 61.32 0.65
  A 1.32 1.32 0.0 0 1 63.45 1.50
  C 63.71 3.40 61.37 4.98 60.18 6.20
  A 1.92 1.92 0.0 0 0 59.98 8.64
  L 62.03 11.62
  Q 62.62 12.47 63.00 13.44
  Q 63.61 14.99 63.03 15.27
  Q 61.65 15.91 60.58 14.87
  Q 58.52 12.86 56.58 10.45
  A 1.43 1.43 0.0 0 0 54.92 10.03
  L 45.41 13.98
  Q 43.74 14.67 44.25 16.41
  L 45.54 20.81
  Q 45.99 22.32 44.50 22.86
  Q 43.62 23.18 42.61 22.17
  A 1.33 1.28 -78.8 0 1 42.31 21.70
  L 40.33 16.49
  Z"
/>
</svg>
