<?xml version="1.0" encoding="UTF-8" standalone="no"?>
<!DOCTYPE svg PUBLIC "-//W3C//DTD SVG 1.1//EN" "http://www.w3.org/Graphics/SVG/1.1/DTD/svg11.dtd">
<svg xmlns="http://www.w3.org/2000/svg" version="1.1" viewBox="0.00 0.00 54.00 63.00">
<g stroke-width="2.00" fill="none" stroke-linecap="butt">
<path stroke="#ee8ba5" vector-effect="non-scaling-stroke" d="
  M 20.41 6.20
  Q 20.33 6.36 20.35 6.50
  A 0.42 0.42 0.0 0 0 20.79 6.87
  Q 26.14 6.59 31.50 6.66
  Q 31.81 6.66 31.82 6.23"
/>
<path stroke="#ee8ba5" vector-effect="non-scaling-stroke" d="
  M 32.24 4.72
  L 21.77 4.65"
/>
<path stroke="#ee8ba5" vector-effect="non-scaling-stroke" d="
  M 5.24 14.36
  Q 4.64 15.60 5.62 15.60
  Q 27.14 15.65 48.05 15.64
  Q 49.39 15.64 49.26 14.30
  L 48.99 11.58
  A 1.45 1.44 -3.0 0 0 47.54 10.28
  Q 28.39 10.46 9.12 10.38
  Q 7.88 10.38 7.49 10.90"
/>
<path stroke="#ee8ba5" vector-effect="non-scaling-stroke" d="
  M 43.21 20.22
  A 0.86 0.86 0.0 0 0 42.35 19.36
  L 11.67 19.36
  A 0.86 0.86 0.0 0 0 10.81 20.22
  L 10.81 56.78
  A 0.86 0.86 0.0 0 0 11.67 57.64
  L 42.35 57.64
  A 0.86 0.86 0.0 0 0 43.21 56.78
  L 43.21 20.22"
/>
<path stroke="#ee8ba5" vector-effect="non-scaling-stroke" d="
  M 19.75 26.35
  A 1.73 1.73 0.0 0 0 18.02 24.62
  L 17.96 24.62
  A 1.73 1.73 0.0 0 0 16.23 26.35
  L 16.23 50.69
  A 1.73 1.73 0.0 0 0 17.96 52.42
  L 18.02 52.42
  A 1.73 1.73 0.0 0 0 19.75 50.69
  L 19.75 26.35"
/>
<path stroke="#ee8ba5" vector-effect="non-scaling-stroke" d="
  M 28.80 26.42
  A 1.77 1.77 0.0 0 0 27.03 24.65
  L 26.95 24.65
  A 1.77 1.77 0.0 0 0 25.18 26.42
  L 25.18 50.66
  A 1.77 1.77 0.0 0 0 26.95 52.43
  L 27.03 52.43
  A 1.77 1.77 0.0 0 0 28.80 50.66
  L 28.80 26.42"
/>
<path stroke="#ee8ba5" vector-effect="non-scaling-stroke" d="
  M 37.7612 26.3531
  A 1.72 1.72 0.0 0 0 36.0442 24.6301
  L 35.9842 24.6300
  A 1.72 1.72 0.0 0 0 34.2612 26.3470
  L 34.2188 50.6869
  A 1.72 1.72 0.0 0 0 35.9358 52.4099
  L 35.9958 52.4100
  A 1.72 1.72 0.0 0 0 37.7188 50.6930
  L 37.7612 26.3531"
/>
</g>
<path fill="#dc174b" d="
  M 2.97 19.16
  C 0.55 18.53 0.83 14.43 1.12 12.15
  Q 1.78 6.82 6.68 6.70
  Q 11.03 6.60 14.99 6.41
  Q 15.43 6.39 15.56 5.97
  C 16.10 4.09 15.96 0.91 18.71 0.87
  Q 27.72 0.76 35.59 0.87
  A 2.10 2.09 -5.1 0 1 37.61 2.55
  L 38.11 5.02
  A 1.82 1.82 0.0 0 0 39.87 6.48
  Q 43.26 6.53 46.49 6.49
  C 53.00 6.43 53.53 12.98 52.72 17.81
  A 1.64 1.63 89.8 0 1 51.39 19.16
  L 47.95 19.79
  Q 47.56 19.86 47.42 20.22
  Q 46.88 21.53 46.89 23.03
  Q 46.99 39.25 46.90 55.94
  C 46.87 59.73 44.29 61.54 40.86 61.54
  Q 25.27 61.52 13.01 61.49
  C 9.37 61.48 7.08 59.06 7.08 55.58
  Q 7.09 35.95 7.13 20.89
  A 1.23 1.23 0.0 0 0 5.99 19.66
  Q 4.48 19.55 2.97 19.16
  Z
  M 21.77 4.65
  Q 19.27 4.94 20.41 6.20
  Q 20.33 6.36 20.35 6.50
  A 0.42 0.42 0.0 0 0 20.79 6.87
  Q 26.14 6.59 31.50 6.66
  Q 31.81 6.66 31.82 6.23
  Q 33.37 6.75 33.76 5.74
  Q 33.95 5.23 33.48 4.96
  Q 32.94 4.65 32.24 4.72
  L 21.77 4.65
  Z
  M 7.49 10.90
  Q 6.67 10.49 6.04 10.67
  Q 5.46 10.84 5.27 11.64
  Q 4.97 12.92 5.24 14.36
  Q 4.64 15.60 5.62 15.60
  Q 27.14 15.65 48.05 15.64
  Q 49.39 15.64 49.26 14.30
  L 48.99 11.58
  A 1.45 1.44 -3.0 0 0 47.54 10.28
  Q 28.39 10.46 9.12 10.38
  Q 7.88 10.38 7.49 10.90
  Z
  M 43.21 20.22
  A 0.86 0.86 0.0 0 0 42.35 19.36
  L 11.67 19.36
  A 0.86 0.86 0.0 0 0 10.81 20.22
  L 10.81 56.78
  A 0.86 0.86 0.0 0 0 11.67 57.64
  L 42.35 57.64
  A 0.86 0.86 0.0 0 0 43.21 56.78
  L 43.21 20.22
  Z"
/>
<path fill="#ffffff" d="
  M 32.24 4.72
  L 31.21 5.06
  Q 30.60 5.25 31.00 5.74
  Q 31.26 6.06 31.82 6.23
  Q 31.81 6.66 31.50 6.66
  Q 26.14 6.59 20.79 6.87
  A 0.42 0.42 0.0 0 1 20.35 6.50
  Q 20.33 6.36 20.41 6.20
  Q 22.04 6.74 22.95 5.88
  Q 23.38 5.49 22.87 5.23
  L 21.77 4.65
  L 32.24 4.72
  Z"
/>
<path fill="#ffffff" d="
  M 5.24 14.36
  Q 6.88 13.31 8.01 11.76
  Q 8.34 11.31 7.84 11.07
  L 7.49 10.90
  Q 7.88 10.38 9.12 10.38
  Q 28.39 10.46 47.54 10.28
  A 1.45 1.44 -3.0 0 1 48.99 11.58
  L 49.26 14.30
  Q 49.39 15.64 48.05 15.64
  Q 27.14 15.65 5.62 15.60
  Q 4.64 15.60 5.24 14.36
  Z"
/>
<path fill="#ffffff" d="
  M 43.21 56.78
  A 0.86 0.86 0.0 0 1 42.35 57.64
  L 11.67 57.64
  A 0.86 0.86 0.0 0 1 10.81 56.78
  L 10.81 20.22
  A 0.86 0.86 0.0 0 1 11.67 19.36
  L 42.35 19.36
  A 0.86 0.86 0.0 0 1 43.21 20.22
  L 43.21 56.78
  Z
  M 19.75 26.35
  A 1.73 1.73 0.0 0 0 18.02 24.62
  L 17.96 24.62
  A 1.73 1.73 0.0 0 0 16.23 26.35
  L 16.23 50.69
  A 1.73 1.73 0.0 0 0 17.96 52.42
  L 18.02 52.42
  A 1.73 1.73 0.0 0 0 19.75 50.69
  L 19.75 26.35
  Z
  M 28.80 26.42
  A 1.77 1.77 0.0 0 0 27.03 24.65
  L 26.95 24.65
  A 1.77 1.77 0.0 0 0 25.18 26.42
  L 25.18 50.66
  A 1.77 1.77 0.0 0 0 26.95 52.43
  L 27.03 52.43
  A 1.77 1.77 0.0 0 0 28.80 50.66
  L 28.80 26.42
  Z
  M 37.7612 26.3531
  A 1.72 1.72 0.0 0 0 36.0442 24.6301
  L 35.9842 24.6300
  A 1.72 1.72 0.0 0 0 34.2612 26.3470
  L 34.2188 50.6869
  A 1.72 1.72 0.0 0 0 35.9358 52.4099
  L 35.9958 52.4100
  A 1.72 1.72 0.0 0 0 37.7188 50.6930
  L 37.7612 26.3531
  Z"
/>
<rect fill="#dc174b" x="16.23" y="24.62" width="3.52" height="27.80" rx="1.73"/>
<rect fill="#dc174b" x="25.18" y="24.65" width="3.62" height="27.78" rx="1.77"/>
<rect fill="#dc174b" x="-1.75" y="-13.89" transform="translate(35.99,38.52) rotate(0.1)" width="3.50" height="27.78" rx="1.72"/>
</svg>
