<?xml version="1.0" encoding="UTF-8" standalone="no"?>
<!DOCTYPE svg PUBLIC "-//W3C//DTD SVG 1.1//EN" "http://www.w3.org/Graphics/SVG/1.1/DTD/svg11.dtd">
<svg xmlns="http://www.w3.org/2000/svg" version="1.1" viewBox="0.00 0.00 65.00 66.00">
<path fill="#015b9a" d="
  M 29.8433 25.5859
  A 5.32 5.32 0.0 0 1 24.5140 30.8966
  L 5.4741 30.8634
  A 5.32 5.32 0.0 0 1 0.1634 25.5341
  L 0.1967 6.4341
  A 5.32 5.32 0.0 0 1 5.5260 1.1234
  L 24.5659 1.1566
  A 5.32 5.32 0.0 0 1 29.8766 6.4859
  L 29.8433 25.5859
  Z
  M 26.1764 6.6295
  A 1.75 1.75 0.0 0 0 24.4294 4.8764
  L 5.6294 4.8436
  A 1.75 1.75 0.0 0 0 3.8764 6.5906
  L 3.8436 25.3505
  A 1.75 1.75 0.0 0 0 5.5906 27.1036
  L 24.3906 27.1364
  A 1.75 1.75 0.0 0 0 26.1436 25.3894
  L 26.1764 6.6295
  Z"
/>
<path fill="#015b9a" d="
  M 63.8369 25.5218
  A 5.41 5.41 0.0 0 1 58.4080 30.9129
  L 39.4882 30.8469
  A 5.41 5.41 0.0 0 1 34.0971 25.4180
  L 34.1631 6.4982
  A 5.41 5.41 0.0 0 1 39.5920 1.1071
  L 58.5118 1.1731
  A 5.41 5.41 0.0 0 1 63.9029 6.6020
  L 63.8369 25.5218
  Z
  M 60.1167 6.4094
  A 1.52 1.52 0.0 0 0 58.5994 4.8868
  L 39.4194 4.8533
  A 1.52 1.52 0.0 0 0 37.8968 6.3706
  L 37.8633 25.5706
  A 1.52 1.52 0.0 0 0 39.3806 27.0932
  L 58.5606 27.1267
  A 1.52 1.52 0.0 0 0 60.0832 25.6094
  L 60.1167 6.4094
  Z"
/>
<path fill="#015b9a" d="
  M 21.88 17.72
  A 5.11 5.11 0.0 0 1 16.77 22.83
  L 13.25 22.83
  A 5.11 5.11 0.0 0 1 8.14 17.72
  L 8.14 14.30
  A 5.11 5.11 0.0 0 1 13.25 9.19
  L 16.77 9.19
  A 5.11 5.11 0.0 0 1 21.88 14.30
  L 21.88 17.72
  Z
  M 18.1243 14.6598
  A 1.84 1.84 0.0 0 0 16.2493 12.8554
  L 13.6298 12.9057
  A 1.84 1.84 0.0 0 0 11.8254 14.7807
  L 11.8757 17.4002
  A 1.84 1.84 0.0 0 0 13.7507 19.2046
  L 16.3702 19.1543
  A 1.84 1.84 0.0 0 0 18.1746 17.2793
  L 18.1243 14.6598
  Z"
/>
<path fill="#015b9a" d="
  M 55.7923 17.7113
  A 5.14 5.14 0.0 0 1 50.5988 22.7972
  L 47.2390 22.7620
  A 5.14 5.14 0.0 0 1 42.1531 17.5685
  L 42.1877 14.2687
  A 5.14 5.14 0.0 0 1 47.3812 9.1828
  L 50.7410 9.2180
  A 5.14 5.14 0.0 0 1 55.8269 14.4115
  L 55.7923 17.7113
  Z
  M 52.1080 14.6327
  A 1.80 1.80 0.0 0 0 50.2924 12.8484
  L 47.6125 12.8718
  A 1.80 1.80 0.0 0 0 45.8283 14.6875
  L 45.8520 17.4073
  A 1.80 1.80 0.0 0 0 47.6676 19.1916
  L 50.3475 19.1682
  A 1.80 1.80 0.0 0 0 52.1317 17.3525
  L 52.1080 14.6327
  Z"
/>
<path fill="#d8144c" d="
  M 48.74 45.06
  Q 53.17 45.19 58.06 45.15
  C 62.04 45.12 63.92 47.75 63.87 51.46
  Q 63.81 55.82 63.78 59.52
  C 63.76 63.82 60.35 64.97 56.63 64.96
  Q 52.93 64.96 49.71 64.83
  Q 44.10 64.62 44.19 58.77
  Q 44.26 54.46 44.08 49.98
  Q 44.05 49.39 43.49 49.24
  Q 41.77 48.77 40.01 48.79
  Q 34.54 48.86 34.10 43.23
  C 33.78 39.22 34.66 35.59 39.35 35.18
  Q 43.64 34.80 45.25 35.84
  C 48.59 38.02 47.53 40.95 47.89 44.27
  Q 47.97 45.03 48.74 45.06
  Z
  M 44.1284 40.6019
  A 1.67 1.67 0.0 0 0 42.5298 38.8635
  L 39.6323 38.7420
  A 1.67 1.67 0.0 0 0 37.8939 40.3406
  L 37.7716 43.2581
  A 1.67 1.67 0.0 0 0 39.3702 44.9965
  L 42.2677 45.1180
  A 1.67 1.67 0.0 0 0 44.0061 43.5194
  L 44.1284 40.6019
  Z
  M 60.1623 50.6092
  A 1.71 1.71 0.0 0 0 58.4493 48.9022
  L 49.5093 48.9178
  A 1.71 1.71 0.0 0 0 47.8023 50.6308
  L 47.8177 59.4508
  A 1.71 1.71 0.0 0 0 49.5307 61.1578
  L 58.4707 61.1422
  A 1.71 1.71 0.0 0 0 60.1777 59.4292
  L 60.1623 50.6092
  Z"
/>
<rect fill="#d8144c" x="-5.51" y="-1.83" transform="translate(58.00,37.02) rotate(-0.1)" width="11.02" height="3.66" rx="1.66"/>
<path fill="#015b9a" d="
  M 29.8330 59.7259
  A 5.12 5.12 0.0 0 1 24.7041 64.8369
  L 5.2841 64.8030
  A 5.12 5.12 0.0 0 1 0.1731 59.6741
  L 0.2070 40.2741
  A 5.12 5.12 0.0 0 1 5.3359 35.1631
  L 24.7559 35.1970
  A 5.12 5.12 0.0 0 1 29.8669 40.3259
  L 29.8330 59.7259
  Z
  M 26.1862 40.7295
  A 1.89 1.89 0.0 0 0 24.2995 38.8362
  L 5.7795 38.8039
  A 1.89 1.89 0.0 0 0 3.8862 40.6906
  L 3.8538 59.2505
  A 1.89 1.89 0.0 0 0 5.7405 61.1438
  L 24.2605 61.1761
  A 1.89 1.89 0.0 0 0 26.1538 59.2894
  L 26.1862 40.7295
  Z"
/>
<path fill="#015b9a" d="
  M 21.8873 51.6180
  A 5.18 5.18 0.0 0 1 16.7618 56.8519
  L 13.3820 56.8873
  A 5.18 5.18 0.0 0 1 8.1481 51.7618
  L 8.1127 48.3820
  A 5.18 5.18 0.0 0 1 13.2382 43.1481
  L 16.6180 43.1127
  A 5.18 5.18 0.0 0 1 21.8519 48.2382
  L 21.8873 51.6180
  Z
  M 18.1581 48.5285
  A 1.62 1.62 0.0 0 0 16.5580 46.8888
  L 13.5182 46.8517
  A 1.62 1.62 0.0 0 0 11.8786 48.4518
  L 11.8419 51.4515
  A 1.62 1.62 0.0 0 0 13.4420 53.0912
  L 16.4818 53.1283
  A 1.62 1.62 0.0 0 0 18.1214 51.5282
  L 18.1581 48.5285
  Z"
/>
<circle fill="#d8144c" cx="54.00" cy="55.03" r="3.74"/>
<path fill="#d8144c" d="
  M 43.30 61.67
  Q 43.24 61.44 43.36 61.23
  Q 43.54 60.92 43.55 61.28
  Q 43.57 62.54 43.34 63.76
  Q 43.25 64.26 42.76 64.41
  Q 38.67 65.58 35.22 64.48
  A 1.47 1.47 0.0 0 1 34.20 63.08
  L 34.18 52.93
  A 1.42 1.42 0.0 0 1 35.57 51.51
  L 36.10 51.49
  Q 37.74 51.45 37.76 53.09
  L 37.86 59.90
  A 1.23 1.23 0.0 0 0 39.14 61.11
  Q 41.35 61.04 43.24 61.72
  A 0.05 0.04 4.0 0 0 43.30 61.67
  Z"
/>
</svg>
