<?xml version="1.0" encoding="UTF-8" standalone="no"?>
<!DOCTYPE svg PUBLIC "-//W3C//DTD SVG 1.1//EN" "http://www.w3.org/Graphics/SVG/1.1/DTD/svg11.dtd">
<svg xmlns="http://www.w3.org/2000/svg" version="1.1" viewBox="0.00 0.00 39.00 39.00">
<g stroke-width="2.00" fill="none" stroke-linecap="butt">
<path stroke="#752e6a" stroke-opacity="0.996" vector-effect="non-scaling-stroke" d="
  M 32.09 24.74
  Q 31.27 24.57 30.69 25.65
  Q 30.08 26.80 29.55 27.52"
/>
<path stroke="#752e6a" stroke-opacity="0.996" vector-effect="non-scaling-stroke" d="
  M 27.54 29.46
  L 24.47 31.53"
/>
</g>
<path fill="#03549c" d="
  M 32.09 24.74
  Q 31.27 24.57 30.69 25.65
  Q 30.08 26.80 29.55 27.52
  Q 28.31 27.62 27.54 29.46
  L 24.47 31.53
  Q 11.02 36.07 3.18 25.53
  Q 1.56 23.35 1.06 20.52
  C -0.85 9.80 5.64 0.84 16.69 0.75
  C 28.51 0.65 35.43 11.84 31.91 22.59
  Q 31.48 23.90 32.09 24.74
  Z
  M 29.94 16.72
  A 13.21 13.21 0.0 0 0 16.73 3.51
  A 13.21 13.21 0.0 0 0 3.52 16.72
  A 13.21 13.21 0.0 0 0 16.73 29.93
  A 13.21 13.21 0.0 0 0 29.94 16.72
  Z"
/>
<path fill="#e80837" fill-opacity="0.992" d="
  M 32.09 24.74
  L 37.84 30.61
  A 2.21 2.21 0.0 0 1 37.82 33.71
  L 33.51 38.01
  A 1.65 1.65 0.0 0 1 31.21 38.03
  L 24.47 31.53
  L 27.54 29.46
  C 28.37 31.18 31.41 35.77 33.90 33.57
  A 1.19 1.17 56.9 0 0 34.18 32.18
  Q 32.79 29.26 29.55 27.52
  Q 30.08 26.80 30.69 25.65
  Q 31.27 24.57 32.09 24.74
  Z"
/>
</svg>
