<?xml version="1.0" encoding="UTF-8" standalone="no"?>
<!DOCTYPE svg PUBLIC "-//W3C//DTD SVG 1.1//EN" "http://www.w3.org/Graphics/SVG/1.1/DTD/svg11.dtd">
<svg xmlns="http://www.w3.org/2000/svg" version="1.1" viewBox="0.00 0.00 65.00 62.00">
<g stroke-width="2.00" fill="none" stroke-linecap="butt">
<path stroke="#ed89a4" vector-effect="non-scaling-stroke" d="
  M 34.26 21.95
  Q 32.71 24.34 29.80 22.95"
/>
<path stroke="#80abca" vector-effect="non-scaling-stroke" d="
  M 42.68 23.32
  L 43.03 25.51
  A 1.27 1.27 0.0 0 0 44.28 26.58
  L 53.91 26.65
  Q 58.63 26.69 58.64 31.41
  L 58.65 51.30
  Q 58.65 56.01 53.95 56.01
  L 9.46 56.03
  A 4.17 4.17 0.0 0 1 5.29 51.91
  Q 5.19 43.14 5.26 34.63
  C 5.29 30.49 5.12 26.59 9.71 26.66
  Q 18.19 26.81 22.64 25.27"
/>
<path stroke="#80abca" vector-effect="non-scaling-stroke" d="
  M 38.73 32.29
  C 50.18 44.18 30.55 57.99 23.09 44.62
  C 20.49 39.96 22.02 35.37 25.68 31.75
  A 1.46 1.46 0.0 0 0 25.71 29.70
  Q 24.52 28.46 23.43 29.32
  C 16.22 34.94 16.67 46.02 24.22 51.19
  C 32.39 56.78 44.02 52.24 45.55 42.19
  Q 46.73 34.41 40.63 29.32
  A 1.32 1.32 0.0 0 0 39.69 29.02
  Q 38.73 29.10 38.40 29.70
  Q 37.60 31.12 38.73 32.29"
/>
<path stroke="#80abca" vector-effect="non-scaling-stroke" d="
  M 15.85 42.86
  A 3.36 1.94 0.0 0 0 12.49 40.92
  A 3.36 1.94 0.0 0 0 9.13 42.86
  A 3.36 1.94 0.0 0 0 12.49 44.80
  A 3.36 1.94 0.0 0 0 15.85 42.86"
/>
<path stroke="#80abca" vector-effect="non-scaling-stroke" d="
  M 54.7002 42.7456
  A 1.69 1.69 0.0 0 0 53.0132 41.0526
  L 50.0132 41.0474
  A 1.69 1.69 0.0 0 0 48.3202 42.7344
  L 48.3198 42.9744
  A 1.69 1.69 0.0 0 0 50.0068 44.6674
  L 53.0068 44.6726
  A 1.69 1.69 0.0 0 0 54.6998 42.9856
  L 54.7002 42.7456"
/>
</g>
<path fill="#da1248" d="
  M 34.26 21.95
  Q 32.71 24.34 29.80 22.95
  L 30.14 9.52
  A 0.75 0.75 0.0 0 0 28.91 8.92
  L 26.16 11.20
  A 1.29 1.28 -47.2 0 1 24.60 11.27
  C 23.48 10.49 23.62 9.06 24.46 8.16
  Q 27.42 5.00 30.71 1.93
  A 2.00 1.99 -45.1 0 1 33.41 1.92
  C 35.11 3.49 40.34 7.91 40.51 10.23
  A 1.38 1.37 17.2 0 1 38.28 11.40
  L 35.35 9.05
  A 0.80 0.79 -71.2 0 0 34.06 9.69
  L 34.26 21.95
  Z"
/>
<path fill="#ffffff" d="
  M 34.26 21.95
  L 42.68 23.32
  L 43.03 25.51
  A 1.27 1.27 0.0 0 0 44.28 26.58
  L 53.91 26.65
  Q 58.63 26.69 58.64 31.41
  L 58.65 51.30
  Q 58.65 56.01 53.95 56.01
  L 9.46 56.03
  A 4.17 4.17 0.0 0 1 5.29 51.91
  Q 5.19 43.14 5.26 34.63
  C 5.29 30.49 5.12 26.59 9.71 26.66
  Q 18.19 26.81 22.64 25.27
  Q 26.30 25.82 29.80 22.95
  Q 32.71 24.34 34.26 21.95
  Z
  M 38.73 32.29
  C 50.18 44.18 30.55 57.99 23.09 44.62
  C 20.49 39.96 22.02 35.37 25.68 31.75
  A 1.46 1.46 0.0 0 0 25.71 29.70
  Q 24.52 28.46 23.43 29.32
  C 16.22 34.94 16.67 46.02 24.22 51.19
  C 32.39 56.78 44.02 52.24 45.55 42.19
  Q 46.73 34.41 40.63 29.32
  A 1.32 1.32 0.0 0 0 39.69 29.02
  Q 38.73 29.10 38.40 29.70
  Q 37.60 31.12 38.73 32.29
  Z
  M 15.85 42.86
  A 3.36 1.94 0.0 0 0 12.49 40.92
  A 3.36 1.94 0.0 0 0 9.13 42.86
  A 3.36 1.94 0.0 0 0 12.49 44.80
  A 3.36 1.94 0.0 0 0 15.85 42.86
  Z
  M 54.7002 42.7456
  A 1.69 1.69 0.0 0 0 53.0132 41.0526
  L 50.0132 41.0474
  A 1.69 1.69 0.0 0 0 48.3202 42.7344
  L 48.3198 42.9744
  A 1.69 1.69 0.0 0 0 50.0068 44.6674
  L 53.0068 44.6726
  A 1.69 1.69 0.0 0 0 54.6998 42.9856
  L 54.7002 42.7456
  Z"
/>
<path fill="#005794" d="
  M 22.64 25.27
  Q 18.19 26.81 9.71 26.66
  C 5.12 26.59 5.29 30.49 5.26 34.63
  Q 5.19 43.14 5.29 51.91
  A 4.17 4.17 0.0 0 0 9.46 56.03
  L 53.95 56.01
  Q 58.65 56.01 58.65 51.30
  L 58.64 31.41
  Q 58.63 26.69 53.91 26.65
  L 44.28 26.58
  A 1.27 1.27 0.0 0 1 43.03 25.51
  L 42.68 23.32
  Q 46.79 22.91 54.27 23.19
  C 60.72 23.43 62.51 27.35 62.51 32.98
  Q 62.52 44.11 62.35 51.71
  C 62.24 56.79 58.63 59.76 53.89 59.76
  Q 31.88 59.73 10.20 59.77
  C 5.36 59.77 1.89 56.76 1.83 51.74
  Q 1.67 37.28 1.95 29.89
  Q 2.14 24.71 7.44 23.55
  Q 16.51 21.56 22.64 25.27
  Z"
/>
<path fill="#005794" d="
  M 23.09 44.62
  C 30.55 57.99 50.18 44.18 38.73 32.29
  Q 37.60 31.12 38.40 29.70
  Q 38.73 29.10 39.69 29.02
  A 1.32 1.32 0.0 0 1 40.63 29.32
  Q 46.73 34.41 45.55 42.19
  C 44.02 52.24 32.39 56.78 24.22 51.19
  C 16.67 46.02 16.22 34.94 23.43 29.32
  Q 24.52 28.46 25.71 29.70
  A 1.46 1.46 0.0 0 1 25.68 31.75
  C 22.02 35.37 20.49 39.96 23.09 44.62
  Z"
/>
<ellipse fill="#005794" cx="12.49" cy="42.86" rx="3.36" ry="1.94"/>
<rect fill="#005794" x="-3.19" y="-1.81" transform="translate(51.51,42.86) rotate(0.1)" width="6.38" height="3.62" rx="1.69"/>
</svg>
