<?xml version="1.0" encoding="UTF-8" standalone="no"?>
<!DOCTYPE svg PUBLIC "-//W3C//DTD SVG 1.1//EN" "http://www.w3.org/Graphics/SVG/1.1/DTD/svg11.dtd">
<svg xmlns="http://www.w3.org/2000/svg" version="1.1" viewBox="0.00 0.00 84.00 44.00">
<g stroke-width="2.00" fill="none" stroke-linecap="butt">
<path stroke="#7e75b8" stroke-opacity="0.996" vector-effect="non-scaling-stroke" d="
  M 54.20 1.01
  L 54.20 3.97"
/>
<path stroke="#a6c4e9" vector-effect="non-scaling-stroke" d="
  M 54.20 3.97
  Q 38.24 4.01 22.25 4.01
  C 2.59 4.01 -2.89 29.88 14.84 38.56"
/>
<path stroke="#5587d4" vector-effect="non-scaling-stroke" d="
  M 14.84 38.56
  Q 14.07 39.32 12.45 38.97
  Q 12.08 38.88 12.33 39.17
  L 14.97 42.21"
/>
<path stroke="#e9a8be" vector-effect="non-scaling-stroke" d="
  M 76.14 12.13
  Q 83.46 26.02 72.18 36.22"
/>
<path stroke="#c9b4d9" vector-effect="non-scaling-stroke" d="
  M 72.18 36.22
  Q 66.73 40.16 60.00 40.07
  Q 53.89 39.99 47.77 40.01"
/>
<path stroke="#adc1ea" vector-effect="non-scaling-stroke" d="
  M 47.77 40.01
  Q 34.64 40.00 21.50 39.99
  Q 18.48 39.99 14.84 38.56"
/>
<path stroke="#c2588d" stroke-opacity="0.996" vector-effect="non-scaling-stroke" d="
  M 81.14 15.68
  Q 79.79 14.53 79.14 12.56
  Q 78.96 12.00 78.64 12.49
  Q 78.49 12.72 78.59 13.06
  A 0.03 0.03 0.0 0 0 78.65 13.04
  Q 78.21 10.93 76.14 12.13"
/>
<path stroke="#d7afce" stroke-opacity="0.996" vector-effect="non-scaling-stroke" d="
  M 76.14 12.13
  Q 70.94 4.84 61.99 4.24
  Q 58.12 3.98 54.20 3.97"
/>
<path stroke="#b45e99" stroke-opacity="0.996" vector-effect="non-scaling-stroke" d="
  M 71.61 40.37
  Q 71.99 39.29 73.14 38.39
  Q 73.98 37.73 73.06 38.27
  Q 72.79 38.42 72.51 38.51
  Q 71.96 38.66 72.01 38.09
  L 72.18 36.22"
/>
<path stroke="#7777c5" vector-effect="non-scaling-stroke" d="
  M 47.14 42.85
  L 47.77 40.01"
/>
<path stroke="#c9b4d9" vector-effect="non-scaling-stroke" d="
  M 55.29 10.23
  A 0.31 0.31 0.0 0 0 55.04 9.72
  L 51.15 9.78
  A 0.31 0.31 0.0 0 0 50.89 9.93
  L 48.85 13.43
  A 0.31 0.31 0.0 0 0 49.12 13.90
  L 52.21 13.83
  A 0.31 0.31 0.0 0 0 52.44 13.72
  L 55.29 10.23"
/>
<path stroke="#adc1ea" vector-effect="non-scaling-stroke" d="
  M 25.92 22.56
  L 28.61 26.95
  A 0.38 0.38 0.0 0 0 29.26 26.94
  L 34.53 18.19
  Q 35.04 17.35 35.04 18.34
  L 35.02 30.51
  Q 35.02 31.00 35.51 31.00
  L 38.72 31.00
  Q 39.17 30.99 39.17 30.54
  L 39.16 10.71
  Q 39.16 10.00 38.46 10.00
  L 35.51 10.00
  Q 34.88 10.00 34.56 10.53
  L 29.28 19.31
  Q 28.97 19.82 28.54 19.40
  Q 28.27 19.14 28.12 18.75"
/>
<path stroke="#a6c4e9" vector-effect="non-scaling-stroke" d="
  M 28.12 18.75
  L 23.12 10.48
  A 1.01 0.99 -15.3 0 0 22.26 10.00
  L 19.17 10.00
  Q 18.58 10.00 18.58 10.58
  L 18.58 30.54
  A 0.46 0.46 0.0 0 0 19.04 31.00
  L 22.25 31.00
  Q 22.75 31.00 22.75 30.50
  L 22.75 18.28
  Q 22.75 17.63 23.10 18.18
  L 25.92 22.56"
/>
<path stroke="#5587d4" vector-effect="non-scaling-stroke" d="
  M 28.12 18.75
  Q 26.92 19.34 26.79 20.38
  Q 26.74 20.75 26.41 20.92
  Q 26.26 21.00 26.10 21.05
  Q 25.61 21.22 26.12 21.20
  Q 26.24 21.20 26.30 21.30
  Q 26.40 21.50 26.34 21.71
  Q 26.24 22.10 25.92 22.56"
/>
<path stroke="#e9a8be" vector-effect="non-scaling-stroke" d="
  M 64.97 12.36
  A 2.32 2.32 0.0 0 0 62.65 10.04
  A 2.32 2.32 0.0 0 0 60.33 12.36
  A 2.32 2.32 0.0 0 0 62.65 14.68
  A 2.32 2.32 0.0 0 0 64.97 12.36"
/>
<path stroke="#beb9e0" vector-effect="non-scaling-stroke" d="
  M 50.57 15.63
  Q 45.78 15.60 43.56 18.93
  C 39.55 24.96 44.49 32.69 51.73 31.20"
/>
<path stroke="#d1b1d2" vector-effect="non-scaling-stroke" d="
  M 51.73 31.20
  C 57.47 30.07 59.51 23.76 56.55 18.97
  Q 56.28 18.54 56.69 18.24
  Q 58.60 16.88 58.36 14.41
  Q 58.31 13.87 57.77 13.87
  L 56.03 13.86
  A 0.80 0.79 -83.0 0 0 55.26 14.47
  L 55.02 15.49
  Q 54.88 16.06 54.29 16.00
  L 50.57 15.63"
/>
<path stroke="#916cb4" vector-effect="non-scaling-stroke" d="
  M 51.73 31.20
  Q 50.55 29.99 51.26 27.56"
/>
<path stroke="#d1b1d2" vector-effect="non-scaling-stroke" d="
  M 51.26 27.56
  C 55.21 25.81 55.13 20.31 50.74 19.41"
/>
<path stroke="#916cb4" vector-effect="non-scaling-stroke" d="
  M 50.74 19.41
  L 50.57 15.63"
/>
<path stroke="#beb9e0" vector-effect="non-scaling-stroke" d="
  M 50.74 19.41
  C 44.52 18.81 43.96 28.21 51.26 27.56"
/>
<path stroke="#e9a8be" vector-effect="non-scaling-stroke" d="
  M 64.5625 16.3333
  A 0.32 0.32 0.0 0 0 64.2431 16.0128
  L 61.0631 16.0072
  A 0.32 0.32 0.0 0 0 60.7425 16.3267
  L 60.7175 30.6667
  A 0.32 0.32 0.0 0 0 61.0369 30.9872
  L 64.2169 30.9928
  A 0.32 0.32 0.0 0 0 64.5375 30.6733
  L 64.5625 16.3333"
/>
</g>
<path fill="#4e8ad3" d="
  M 54.20 1.01
  L 54.20 3.97
  Q 38.24 4.01 22.25 4.01
  C 2.59 4.01 -2.89 29.88 14.84 38.56
  Q 14.07 39.32 12.45 38.97
  Q 12.08 38.88 12.33 39.17
  L 14.97 42.21
  Q 7.72 38.57 4.93 34.34
  Q -2.82 22.60 4.33 10.80
  Q 7.80 5.08 14.28 2.43
  Q 17.69 1.03 25.55 1.01
  Q 39.90 0.96 54.20 1.01
  Z"
/>
<path fill="#af609d" fill-opacity="0.992" d="
  M 54.20 1.01
  Q 57.99 0.97 61.74 1.19
  Q 76.24 2.02 81.14 15.68
  Q 79.79 14.53 79.14 12.56
  Q 78.96 12.00 78.64 12.49
  Q 78.49 12.72 78.59 13.06
  A 0.03 0.03 0.0 0 0 78.65 13.04
  Q 78.21 10.93 76.14 12.13
  Q 70.94 4.84 61.99 4.24
  Q 58.12 3.98 54.20 3.97
  L 54.20 1.01
  Z"
/>
<path fill="#fefefe" d="
  M 54.20 3.97
  Q 58.12 3.98 61.99 4.24
  Q 70.94 4.84 76.14 12.13
  Q 83.46 26.02 72.18 36.22
  Q 66.73 40.16 60.00 40.07
  Q 53.89 39.99 47.77 40.01
  Q 34.64 40.00 21.50 39.99
  Q 18.48 39.99 14.84 38.56
  C -2.89 29.88 2.59 4.01 22.25 4.01
  Q 38.24 4.01 54.20 3.97
  Z
  M 55.29 10.23
  A 0.31 0.31 0.0 0 0 55.04 9.72
  L 51.15 9.78
  A 0.31 0.31 0.0 0 0 50.89 9.93
  L 48.85 13.43
  A 0.31 0.31 0.0 0 0 49.12 13.90
  L 52.21 13.83
  A 0.31 0.31 0.0 0 0 52.44 13.72
  L 55.29 10.23
  Z
  M 25.92 22.56
  L 28.61 26.95
  A 0.38 0.38 0.0 0 0 29.26 26.94
  L 34.53 18.19
  Q 35.04 17.35 35.04 18.34
  L 35.02 30.51
  Q 35.02 31.00 35.51 31.00
  L 38.72 31.00
  Q 39.17 30.99 39.17 30.54
  L 39.16 10.71
  Q 39.16 10.00 38.46 10.00
  L 35.51 10.00
  Q 34.88 10.00 34.56 10.53
  L 29.28 19.31
  Q 28.97 19.82 28.54 19.40
  Q 28.27 19.14 28.12 18.75
  L 23.12 10.48
  A 1.01 0.99 -15.3 0 0 22.26 10.00
  L 19.17 10.00
  Q 18.58 10.00 18.58 10.58
  L 18.58 30.54
  A 0.46 0.46 0.0 0 0 19.04 31.00
  L 22.25 31.00
  Q 22.75 31.00 22.75 30.50
  L 22.75 18.28
  Q 22.75 17.63 23.10 18.18
  L 25.92 22.56
  Z
  M 64.97 12.36
  A 2.32 2.32 0.0 0 0 62.65 10.04
  A 2.32 2.32 0.0 0 0 60.33 12.36
  A 2.32 2.32 0.0 0 0 62.65 14.68
  A 2.32 2.32 0.0 0 0 64.97 12.36
  Z
  M 50.57 15.63
  Q 45.78 15.60 43.56 18.93
  C 39.55 24.96 44.49 32.69 51.73 31.20
  C 57.47 30.07 59.51 23.76 56.55 18.97
  Q 56.28 18.54 56.69 18.24
  Q 58.60 16.88 58.36 14.41
  Q 58.31 13.87 57.77 13.87
  L 56.03 13.86
  A 0.80 0.79 -83.0 0 0 55.26 14.47
  L 55.02 15.49
  Q 54.88 16.06 54.29 16.00
  L 50.57 15.63
  Z
  M 64.5625 16.3333
  A 0.32 0.32 0.0 0 0 64.2431 16.0128
  L 61.0631 16.0072
  A 0.32 0.32 0.0 0 0 60.7425 16.3267
  L 60.7175 30.6667
  A 0.32 0.32 0.0 0 0 61.0369 30.9872
  L 64.2169 30.9928
  A 0.32 0.32 0.0 0 0 64.5375 30.6733
  L 64.5625 16.3333
  Z"
/>
<path fill="#946ab4" fill-opacity="0.996" d="
  M 55.29 10.23
  L 52.44 13.72
  A 0.31 0.31 0.0 0 1 52.21 13.83
  L 49.12 13.90
  A 0.31 0.31 0.0 0 1 48.85 13.43
  L 50.89 9.93
  A 0.31 0.31 0.0 0 1 51.15 9.78
  L 55.04 9.72
  A 0.31 0.31 0.0 0 1 55.29 10.23
  Z"
/>
<path fill="#4e8ad3" d="
  M 28.12 18.75
  Q 26.92 19.34 26.79 20.38
  Q 26.74 20.75 26.41 20.92
  Q 26.26 21.00 26.10 21.05
  Q 25.61 21.22 26.12 21.20
  Q 26.24 21.20 26.30 21.30
  Q 26.40 21.50 26.34 21.71
  Q 26.24 22.10 25.92 22.56
  L 23.10 18.18
  Q 22.75 17.63 22.75 18.28
  L 22.75 30.50
  Q 22.75 31.00 22.25 31.00
  L 19.04 31.00
  A 0.46 0.46 0.0 0 1 18.58 30.54
  L 18.58 10.58
  Q 18.58 10.00 19.17 10.00
  L 22.26 10.00
  A 1.01 0.99 -15.3 0 1 23.12 10.48
  L 28.12 18.75
  Z"
/>
<path fill="#5b83d5" d="
  M 25.92 22.56
  Q 26.24 22.10 26.34 21.71
  Q 26.40 21.50 26.30 21.30
  Q 26.24 21.20 26.12 21.20
  Q 25.61 21.22 26.10 21.05
  Q 26.26 21.00 26.41 20.92
  Q 26.74 20.75 26.79 20.38
  Q 26.92 19.34 28.12 18.75
  Q 28.27 19.14 28.54 19.40
  Q 28.97 19.82 29.28 19.31
  L 34.56 10.53
  Q 34.88 10.00 35.51 10.00
  L 38.46 10.00
  Q 39.16 10.00 39.16 10.71
  L 39.17 30.54
  Q 39.17 30.99 38.72 31.00
  L 35.51 31.00
  Q 35.02 31.00 35.02 30.51
  L 35.04 18.34
  Q 35.04 17.35 34.53 18.19
  L 29.26 26.94
  A 0.38 0.38 0.0 0 1 28.61 26.95
  L 25.92 22.56
  Z"
/>
<circle fill="#d4517d" fill-opacity="0.996" cx="62.65" cy="12.36" r="2.32"/>
<path fill="#d4517d" fill-opacity="0.996" d="
  M 81.14 15.68
  Q 85.20 31.90 71.61 40.37
  Q 71.99 39.29 73.14 38.39
  Q 73.98 37.73 73.06 38.27
  Q 72.79 38.42 72.51 38.51
  Q 71.96 38.66 72.01 38.09
  L 72.18 36.22
  Q 83.46 26.02 76.14 12.13
  Q 78.21 10.93 78.65 13.04
  A 0.03 0.03 0.0 0 1 78.59 13.06
  Q 78.49 12.72 78.64 12.49
  Q 78.96 12.00 79.14 12.56
  Q 79.79 14.53 81.14 15.68
  Z"
/>
<path fill="#a464a6" d="
  M 51.73 31.20
  Q 50.55 29.99 51.26 27.56
  C 55.21 25.81 55.13 20.31 50.74 19.41
  L 50.57 15.63
  L 54.29 16.00
  Q 54.88 16.06 55.02 15.49
  L 55.26 14.47
  A 0.80 0.79 -83.0 0 1 56.03 13.86
  L 57.77 13.87
  Q 58.31 13.87 58.36 14.41
  Q 58.60 16.88 56.69 18.24
  Q 56.28 18.54 56.55 18.97
  C 59.51 23.76 57.47 30.07 51.73 31.20
  Z"
/>
<path fill="#7e73c2" d="
  M 50.57 15.63
  L 50.74 19.41
  C 44.52 18.81 43.96 28.21 51.26 27.56
  Q 50.55 29.99 51.73 31.20
  C 44.49 32.69 39.55 24.96 43.56 18.93
  Q 45.78 15.60 50.57 15.63
  Z"
/>
<rect fill="#d4517d" fill-opacity="0.996" x="-1.91" y="-7.49" transform="translate(62.64,23.50) rotate(0.1)" width="3.82" height="14.98" rx="0.32"/>
<path fill="#fefefe" d="
  M 50.74 19.41
  C 55.13 20.31 55.21 25.81 51.26 27.56
  C 43.96 28.21 44.52 18.81 50.74 19.41
  Z"
/>
<path fill="#946ab4" fill-opacity="0.996" d="
  M 72.18 36.22
  L 72.01 38.09
  Q 71.96 38.66 72.51 38.51
  Q 72.79 38.42 73.06 38.27
  Q 73.98 37.73 73.14 38.39
  Q 71.99 39.29 71.61 40.37
  Q 67.08 42.64 63.50 42.90
  Q 57.48 43.32 47.14 42.85
  L 47.77 40.01
  Q 53.89 39.99 60.00 40.07
  Q 66.73 40.16 72.18 36.22
  Z"
/>
<path fill="#5b83d5" d="
  M 14.84 38.56
  Q 18.48 39.99 21.50 39.99
  Q 34.64 40.00 47.77 40.01
  L 47.14 42.85
  Q 30.08 43.67 14.97 42.21
  L 12.33 39.17
  Q 12.08 38.88 12.45 38.97
  Q 14.07 39.32 14.84 38.56
  Z"
/>
</svg>
