<?xml version="1.0" encoding="UTF-8" standalone="no"?>
<!DOCTYPE svg PUBLIC "-//W3C//DTD SVG 1.1//EN" "http://www.w3.org/Graphics/SVG/1.1/DTD/svg11.dtd">
<svg xmlns="http://www.w3.org/2000/svg" version="1.1" viewBox="0.00 0.00 69.00 69.00">
<g stroke-width="2.00" fill="none" stroke-linecap="butt">
<path stroke="#80acc9" vector-effect="non-scaling-stroke" d="
  M 65.82 44.02
  L 62.64 50.20
  A 1.04 0.90 85.7 0 1 62.47 50.43
  Q 60.98 51.82 60.19 51.18
  Q 58.77 50.03 59.59 48.40
  Q 67.24 33.15 58.50 18.91
  A 0.85 0.84 -26.5 0 0 57.46 18.57
  Q 52.76 20.48 46.61 22.11
  C 43.38 22.97 40.20 23.14 38.35 19.96
  C 37.04 17.70 35.69 15.47 33.88 13.55
  Q 31.23 10.73 30.32 7.32
  Q 30.13 6.61 29.42 6.79
  Q 25.09 7.88 21.60 9.74
  A 0.60 0.60 0.0 0 0 21.42 10.66
  C 25.64 15.70 30.68 25.36 22.65 29.86
  Q 19.42 31.68 16.13 33.32
  A 1.77 1.77 0.0 0 0 15.58 36.06
  Q 17.84 38.69 19.80 41.29
  C 23.34 46.02 22.54 51.74 18.87 56.29
  Q 18.04 57.31 19.18 57.97
  Q 36.53 68.10 52.71 56.57
  A 1.33 1.33 0.0 0 1 54.12 56.49
  Q 54.77 56.85 54.98 57.41
  Q 55.67 59.25 53.92 60.14
  L 42.90 65.68"
/>
<path stroke="#80acc9" vector-effect="non-scaling-stroke" d="
  M 46.43 8.44
  A 1.34 1.34 0.0 0 0 45.97 8.25
  L 35.74 5.99
  A 1.34 1.34 0.0 0 0 34.37 8.09
  L 42.06 18.62
  A 1.34 1.34 0.0 0 0 43.50 19.12
  L 54.06 16.18
  A 1.34 1.34 0.0 0 0 54.44 13.77
  L 46.43 8.44"
/>
<path stroke="#80acc9" vector-effect="non-scaling-stroke" d="
  M 16.90 43.42
  C 13.70 39.46 7.38 33.72 15.28 29.72
  Q 17.99 28.35 20.86 26.77
  C 26.26 23.80 21.16 15.70 18.36 12.74
  Q 17.74 12.08 17.06 12.68
  C 4.98 23.55 3.24 40.31 13.73 53.03
  Q 16.13 55.93 17.29 52.35
  Q 17.83 50.66 18.09 49.86
  Q 19.24 46.32 16.90 43.42"
/>
<path stroke="#ea88a3" vector-effect="non-scaling-stroke" d="
  M 43.32 54.74
  C 49.55 51.81 55.75 44.52 55.85 37.11
  C 56.03 23.70 32.32 23.50 33.27 38.01
  C 33.53 41.87 33.41 45.51 33.30 49.32
  C 33.13 55.14 38.76 56.89 43.32 54.74"
/>
<path stroke="#ea88a3" vector-effect="non-scaling-stroke" d="
  M 51.99 39.50
  C 53.58 34.21 49.34 30.43 44.20 30.60
  C 40.82 30.71 36.55 32.89 36.86 36.83
  Q 37.33 42.73 36.79 48.72
  C 36.33 53.76 41.20 52.16 43.48 50.68
  Q 49.87 46.54 51.99 39.50"
/>
</g>
<path fill="#015994" d="
  M 65.82 44.02
  L 62.64 50.20
  A 1.04 0.90 85.7 0 1 62.47 50.43
  Q 60.98 51.82 60.19 51.18
  Q 58.77 50.03 59.59 48.40
  Q 67.24 33.15 58.50 18.91
  A 0.85 0.84 -26.5 0 0 57.46 18.57
  Q 52.76 20.48 46.61 22.11
  C 43.38 22.97 40.20 23.14 38.35 19.96
  C 37.04 17.70 35.69 15.47 33.88 13.55
  Q 31.23 10.73 30.32 7.32
  Q 30.13 6.61 29.42 6.79
  Q 25.09 7.88 21.60 9.74
  A 0.60 0.60 0.0 0 0 21.42 10.66
  C 25.64 15.70 30.68 25.36 22.65 29.86
  Q 19.42 31.68 16.13 33.32
  A 1.77 1.77 0.0 0 0 15.58 36.06
  Q 17.84 38.69 19.80 41.29
  C 23.34 46.02 22.54 51.74 18.87 56.29
  Q 18.04 57.31 19.18 57.97
  Q 36.53 68.10 52.71 56.57
  A 1.33 1.33 0.0 0 1 54.12 56.49
  Q 54.77 56.85 54.98 57.41
  Q 55.67 59.25 53.92 60.14
  L 42.90 65.68
  Q 29.33 69.12 17.18 61.32
  Q 9.15 56.18 5.55 47.33
  Q 1.86 38.27 3.44 29.38
  Q 6.58 11.65 22.74 4.88
  C 32.78 0.68 43.70 1.94 52.72 7.68
  Q 59.50 11.99 63.41 19.74
  Q 69.01 30.80 65.82 44.02
  Z
  M 46.43 8.44
  A 1.34 1.34 0.0 0 0 45.97 8.25
  L 35.74 5.99
  A 1.34 1.34 0.0 0 0 34.37 8.09
  L 42.06 18.62
  A 1.34 1.34 0.0 0 0 43.50 19.12
  L 54.06 16.18
  A 1.34 1.34 0.0 0 0 54.44 13.77
  L 46.43 8.44
  Z
  M 16.90 43.42
  C 13.70 39.46 7.38 33.72 15.28 29.72
  Q 17.99 28.35 20.86 26.77
  C 26.26 23.80 21.16 15.70 18.36 12.74
  Q 17.74 12.08 17.06 12.68
  C 4.98 23.55 3.24 40.31 13.73 53.03
  Q 16.13 55.93 17.29 52.35
  Q 17.83 50.66 18.09 49.86
  Q 19.24 46.32 16.90 43.42
  Z"
/>
<path fill="#fefefe" d="
  M 46.43 8.44
  L 54.44 13.77
  A 1.34 1.34 0.0 0 1 54.06 16.18
  L 43.50 19.12
  A 1.34 1.34 0.0 0 1 42.06 18.62
  L 34.37 8.09
  A 1.34 1.34 0.0 0 1 35.74 5.99
  L 45.97 8.25
  A 1.34 1.34 0.0 0 1 46.43 8.44
  Z"
/>
<path fill="#fefefe" d="
  M 65.82 44.02
  Q 65.27 46.34 64.86 52.75
  Q 64.65 56.20 61.70 58.89
  Q 59.83 60.59 56.86 61.05
  C 52.04 61.81 47.59 64.29 42.90 65.68
  L 53.92 60.14
  Q 55.67 59.25 54.98 57.41
  Q 54.77 56.85 54.12 56.49
  A 1.33 1.33 0.0 0 0 52.71 56.57
  Q 36.53 68.10 19.18 57.97
  Q 18.04 57.31 18.87 56.29
  C 22.54 51.74 23.34 46.02 19.80 41.29
  Q 17.84 38.69 15.58 36.06
  A 1.77 1.77 0.0 0 1 16.13 33.32
  Q 19.42 31.68 22.65 29.86
  C 30.68 25.36 25.64 15.70 21.42 10.66
  A 0.60 0.60 0.0 0 1 21.60 9.74
  Q 25.09 7.88 29.42 6.79
  Q 30.13 6.61 30.32 7.32
  Q 31.23 10.73 33.88 13.55
  C 35.69 15.47 37.04 17.70 38.35 19.96
  C 40.20 23.14 43.38 22.97 46.61 22.11
  Q 52.76 20.48 57.46 18.57
  A 0.85 0.84 -26.5 0 1 58.50 18.91
  Q 67.24 33.15 59.59 48.40
  Q 58.77 50.03 60.19 51.18
  Q 60.98 51.82 62.47 50.43
  A 1.04 0.90 85.7 0 0 62.64 50.20
  L 65.82 44.02
  Z
  M 43.32 54.74
  C 49.55 51.81 55.75 44.52 55.85 37.11
  C 56.03 23.70 32.32 23.50 33.27 38.01
  C 33.53 41.87 33.41 45.51 33.30 49.32
  C 33.13 55.14 38.76 56.89 43.32 54.74
  Z"
/>
<path fill="#fefefe" d="
  M 15.28 29.72
  C 7.38 33.72 13.70 39.46 16.90 43.42
  Q 19.24 46.32 18.09 49.86
  Q 17.83 50.66 17.29 52.35
  Q 16.13 55.93 13.73 53.03
  C 3.24 40.31 4.98 23.55 17.06 12.68
  Q 17.74 12.08 18.36 12.74
  C 21.16 15.70 26.26 23.80 20.86 26.77
  Q 17.99 28.35 15.28 29.72
  Z"
/>
<path fill="#d61148" d="
  M 43.32 54.74
  C 38.76 56.89 33.13 55.14 33.30 49.32
  C 33.41 45.51 33.53 41.87 33.27 38.01
  C 32.32 23.50 56.03 23.70 55.85 37.11
  C 55.75 44.52 49.55 51.81 43.32 54.74
  Z
  M 51.99 39.50
  C 53.58 34.21 49.34 30.43 44.20 30.60
  C 40.82 30.71 36.55 32.89 36.86 36.83
  Q 37.33 42.73 36.79 48.72
  C 36.33 53.76 41.20 52.16 43.48 50.68
  Q 49.87 46.54 51.99 39.50
  Z"
/>
<path fill="#fefefe" d="
  M 44.20 30.60
  C 49.34 30.43 53.58 34.21 51.99 39.50
  Q 49.87 46.54 43.48 50.68
  C 41.20 52.16 36.33 53.76 36.79 48.72
  Q 37.33 42.73 36.86 36.83
  C 36.55 32.89 40.82 30.71 44.20 30.60
  Z"
/>
</svg>
