<?xml version="1.0" encoding="UTF-8" standalone="no"?>
<!DOCTYPE svg PUBLIC "-//W3C//DTD SVG 1.1//EN" "http://www.w3.org/Graphics/SVG/1.1/DTD/svg11.dtd">
<svg xmlns="http://www.w3.org/2000/svg" version="1.1" viewBox="0.00 0.00 73.00 61.00">
<g stroke-width="2.00" fill="none" stroke-linecap="butt">
<path stroke="#296daf" stroke-opacity="0.671" vector-effect="non-scaling-stroke" d="
  M 55.78 9.45
  Q 56.02 10.77 55.69 11.92"
/>
<path stroke="#90c1ed" vector-effect="non-scaling-stroke" d="
  M 55.69 11.92
  Q 54.36 11.01 52.54 10.77
  Q 52.01 10.71 51.73 10.25
  L 49.90 7.24
  A 0.88 0.87 58.6 0 0 48.69 6.94
  L 45.17 9.11
  Q 44.59 9.47 44.26 10.07
  Q 43.33 11.77 41.05 11.72
  Q 40.52 11.71 40.25 11.25
  L 37.75 7.03
  A 0.64 0.64 0.0 0 0 36.86 6.81
  L 24.93 14.25
  Q 24.07 14.78 25.09 14.78
  L 33.93 14.77
  Q 34.68 14.77 34.10 15.24
  L 30.73 18.01
  Q 30.21 18.43 29.54 18.43
  L 6.03 18.39
  Q 5.57 18.39 5.57 18.84
  Q 5.60 33.07 5.60 47.01
  C 5.60 53.10 9.93 54.93 15.26 54.82
  Q 22.44 54.66 29.70 54.82
  Q 30.08 54.83 30.40 55.05
  L 34.69 58.07"
/>
<path stroke="#90c1ed" vector-effect="non-scaling-stroke" d="
  M 12.97 11.21
  L 8.03 11.43"
/>
<path stroke="#90c1ed" vector-effect="non-scaling-stroke" d="
  M 7.21 14.11
  Q 7.09 14.15 6.99 14.26
  Q 6.80 14.48 7.09 14.51
  Q 12.00 15.06 16.93 14.68
  Q 17.41 14.65 17.80 14.42
  Q 19.88 13.25 18.06 13.42"
/>
<path stroke="#b11842" stroke-opacity="0.671" vector-effect="non-scaling-stroke" d="
  M 60.12 17.45
  Q 59.88 17.56 59.49 17.29"
/>
<path stroke="#cec9c9" stroke-opacity="0.671" vector-effect="non-scaling-stroke" d="
  M 55.69 11.92
  Q 57.07 14.99 59.49 17.29"
/>
<path stroke="#eb88a3" vector-effect="non-scaling-stroke" d="
  M 59.49 17.29
  Q 55.17 15.62 53.72 15.32
  C 29.66 10.46 16.95 42.03 37.47 54.93
  Q 39.52 56.21 41.68 57.45"
/>
<path stroke="#eb88a3" vector-effect="non-scaling-stroke" d="
  M 67.10 36.56
  A 18.14 18.14 0.0 0 0 48.96 18.42
  A 18.14 18.14 0.0 0 0 30.82 36.56
  A 18.14 18.14 0.0 0 0 48.96 54.70
  A 18.14 18.14 0.0 0 0 67.10 36.56"
/>
<path stroke="#eb88a3" vector-effect="non-scaling-stroke" d="
  M 42.80 30.57
  A 1.83 1.83 0.0 0 0 40.97 28.74
  A 1.83 1.83 0.0 0 0 39.14 30.57
  A 1.83 1.83 0.0 0 0 40.97 32.40
  A 1.83 1.83 0.0 0 0 42.80 30.57"
/>
<path stroke="#eb88a3" vector-effect="non-scaling-stroke" d="
  M 58.75 30.58
  A 1.82 1.82 0.0 0 0 56.93 28.76
  A 1.82 1.82 0.0 0 0 55.11 30.58
  A 1.82 1.82 0.0 0 0 56.93 32.40
  A 1.82 1.82 0.0 0 0 58.75 30.58"
/>
<path stroke="#eb88a3" vector-effect="non-scaling-stroke" d="
  M 55.40 39.82
  C 53.43 44.01 50.19 46.06 45.76 43.85
  Q 43.60 42.77 42.72 40.04
  A 1.57 1.53 9.1 0 0 42.13 39.25
  Q 41.05 38.50 40.27 38.92
  Q 38.87 39.65 39.33 41.16
  C 40.67 45.51 44.76 48.56 49.36 48.29
  Q 55.93 47.92 58.60 41.30
  A 1.82 1.81 -63.8 0 0 57.85 39.07
  Q 56.22 38.09 55.40 39.82"
/>
</g>
<path fill="#2183db" d="
  M 55.78 9.45
  Q 56.02 10.77 55.69 11.92
  Q 54.36 11.01 52.54 10.77
  Q 52.01 10.71 51.73 10.25
  L 49.90 7.24
  A 0.88 0.87 58.6 0 0 48.69 6.94
  L 45.17 9.11
  Q 44.59 9.47 44.26 10.07
  Q 43.33 11.77 41.05 11.72
  Q 40.52 11.71 40.25 11.25
  L 37.75 7.03
  A 0.64 0.64 0.0 0 0 36.86 6.81
  L 24.93 14.25
  Q 24.07 14.78 25.09 14.78
  L 33.93 14.77
  Q 34.68 14.77 34.10 15.24
  L 30.73 18.01
  Q 30.21 18.43 29.54 18.43
  L 6.03 18.39
  Q 5.57 18.39 5.57 18.84
  Q 5.60 33.07 5.60 47.01
  C 5.60 53.10 9.93 54.93 15.26 54.82
  Q 22.44 54.66 29.70 54.82
  Q 30.08 54.83 30.40 55.05
  L 34.69 58.07
  Q 32.60 58.54 30.38 58.57
  Q 22.42 58.65 13.51 58.58
  C 6.43 58.52 1.84 53.29 1.90 46.39
  Q 2.05 30.42 1.92 14.15
  C 1.88 8.65 5.96 7.02 10.81 7.47
  C 12.70 7.65 13.31 9.55 12.97 11.21
  L 8.03 11.43
  Q 6.50 10.96 6.08 13.06
  Q 5.97 13.62 6.23 13.89
  Q 6.56 14.22 7.21 14.11
  Q 7.09 14.15 6.99 14.26
  Q 6.80 14.48 7.09 14.51
  Q 12.00 15.06 16.93 14.68
  Q 17.41 14.65 17.80 14.42
  Q 19.88 13.25 18.06 13.42
  C 19.09 13.11 20.18 12.81 21.11 12.23
  Q 28.79 7.41 37.04 2.49
  A 1.63 1.62 -38.8 0 1 38.96 2.69
  Q 39.69 3.35 40.41 4.21
  Q 40.64 4.48 40.73 4.82
  Q 40.82 5.14 41.15 5.12
  Q 41.59 5.10 41.63 5.54
  Q 41.70 6.32 42.51 6.27
  Q 43.01 6.24 43.31 5.84
  Q 43.69 5.34 44.39 5.25
  A 1.36 1.29 -62.5 0 0 44.97 5.05
  L 49.05 2.51
  A 1.64 1.64 0.0 0 1 51.25 2.96
  L 55.78 9.45
  Z"
/>
<path fill="#fefefe" d="
  M 55.69 11.92
  Q 57.07 14.99 59.49 17.29
  Q 55.17 15.62 53.72 15.32
  C 29.66 10.46 16.95 42.03 37.47 54.93
  Q 39.52 56.21 41.68 57.45
  L 34.69 58.07
  L 30.40 55.05
  Q 30.08 54.83 29.70 54.82
  Q 22.44 54.66 15.26 54.82
  C 9.93 54.93 5.60 53.10 5.60 47.01
  Q 5.60 33.07 5.57 18.84
  Q 5.57 18.39 6.03 18.39
  L 29.54 18.43
  Q 30.21 18.43 30.73 18.01
  L 34.10 15.24
  Q 34.68 14.77 33.93 14.77
  L 25.09 14.78
  Q 24.07 14.78 24.93 14.25
  L 36.86 6.81
  A 0.64 0.64 0.0 0 1 37.75 7.03
  L 40.25 11.25
  Q 40.52 11.71 41.05 11.72
  Q 43.33 11.77 44.26 10.07
  Q 44.59 9.47 45.17 9.11
  L 48.69 6.94
  A 0.88 0.87 58.6 0 1 49.90 7.24
  L 51.73 10.25
  Q 52.01 10.71 52.54 10.77
  Q 54.36 11.01 55.69 11.92
  Z"
/>
<path fill="#402e2f" fill-opacity="0.341" d="
  M 55.78 9.45
  Q 56.96 10.26 57.09 11.01
  Q 57.47 13.30 58.67 14.59
  Q 59.99 16.03 60.12 17.45
  Q 59.88 17.56 59.49 17.29
  Q 57.07 14.99 55.69 11.92
  Q 56.02 10.77 55.78 9.45
  Z"
/>
<path fill="#fefefe" d="
  M 12.97 11.21
  Q 14.65 13.91 18.06 13.42
  Q 19.88 13.25 17.80 14.42
  Q 17.41 14.65 16.93 14.68
  Q 12.00 15.06 7.09 14.51
  Q 6.80 14.48 6.99 14.26
  Q 7.09 14.15 7.21 14.11
  Q 8.14 13.72 8.81 13.08
  Q 9.22 12.69 8.83 12.28
  L 8.03 11.43
  L 12.97 11.21
  Z"
/>
<path fill="#d81148" d="
  M 59.49 17.29
  Q 59.88 17.56 60.12 17.45
  Q 64.23 20.79 65.39 22.13
  Q 72.24 30.06 70.73 39.51
  Q 68.05 56.19 50.50 58.48
  Q 46.90 58.95 41.68 57.45
  Q 39.52 56.21 37.47 54.93
  C 16.95 42.03 29.66 10.46 53.72 15.32
  Q 55.17 15.62 59.49 17.29
  Z
  M 67.10 36.56
  A 18.14 18.14 0.0 0 0 48.96 18.42
  A 18.14 18.14 0.0 0 0 30.82 36.56
  A 18.14 18.14 0.0 0 0 48.96 54.70
  A 18.14 18.14 0.0 0 0 67.10 36.56
  Z"
/>
<path fill="#fefefe" d="
  M 67.10 36.56
  A 18.14 18.14 0.0 0 1 48.96 54.70
  A 18.14 18.14 0.0 0 1 30.82 36.56
  A 18.14 18.14 0.0 0 1 48.96 18.42
  A 18.14 18.14 0.0 0 1 67.10 36.56
  Z
  M 42.80 30.57
  A 1.83 1.83 0.0 0 0 40.97 28.74
  A 1.83 1.83 0.0 0 0 39.14 30.57
  A 1.83 1.83 0.0 0 0 40.97 32.40
  A 1.83 1.83 0.0 0 0 42.80 30.57
  Z
  M 58.75 30.58
  A 1.82 1.82 0.0 0 0 56.93 28.76
  A 1.82 1.82 0.0 0 0 55.11 30.58
  A 1.82 1.82 0.0 0 0 56.93 32.40
  A 1.82 1.82 0.0 0 0 58.75 30.58
  Z
  M 55.40 39.82
  C 53.43 44.01 50.19 46.06 45.76 43.85
  Q 43.60 42.77 42.72 40.04
  A 1.57 1.53 9.1 0 0 42.13 39.25
  Q 41.05 38.50 40.27 38.92
  Q 38.87 39.65 39.33 41.16
  C 40.67 45.51 44.76 48.56 49.36 48.29
  Q 55.93 47.92 58.60 41.30
  A 1.82 1.81 -63.8 0 0 57.85 39.07
  Q 56.22 38.09 55.40 39.82
  Z"
/>
<circle fill="#d81148" cx="40.97" cy="30.57" r="1.83"/>
<circle fill="#d81148" cx="56.93" cy="30.58" r="1.82"/>
<path fill="#d81148" d="
  M 45.76 43.85
  C 50.19 46.06 53.43 44.01 55.40 39.82
  Q 56.22 38.09 57.85 39.07
  A 1.82 1.81 -63.8 0 1 58.60 41.30
  Q 55.93 47.92 49.36 48.29
  C 44.76 48.56 40.67 45.51 39.33 41.16
  Q 38.87 39.65 40.27 38.92
  Q 41.05 38.50 42.13 39.25
  A 1.57 1.53 9.1 0 1 42.72 40.04
  Q 43.60 42.77 45.76 43.85
  Z"
/>
</svg>
