<?xml version="1.0" encoding="UTF-8" standalone="no"?>
<!DOCTYPE svg PUBLIC "-//W3C//DTD SVG 1.1//EN" "http://www.w3.org/Graphics/SVG/1.1/DTD/svg11.dtd">
<svg xmlns="http://www.w3.org/2000/svg" version="1.1" viewBox="0.00 0.00 70.00 48.00">
<g stroke-width="2.00" fill="none" stroke-linecap="butt">
<path stroke="#90c1ed" vector-effect="non-scaling-stroke" d="
  M 55.76 10.98
  Q 59.27 14.77 62.88 18.12
  C 65.80 20.83 67.32 24.36 64.86 27.34
  Q 58.16 35.44 48.06 41.88"
/>
<path stroke="#90c1ed" vector-effect="non-scaling-stroke" d="
  M 6.36 25.49
  C 13.74 34.45 25.38 43.23 37.25 41.40
  C 46.69 39.93 55.78 32.78 61.76 25.36
  A 2.17 2.17 0.0 0 0 61.75 22.63
  C 51.84 10.53 36.84 1.04 21.19 9.97
  Q 12.10 15.15 6.33 22.60
  Q 5.19 24.07 6.36 25.49"
/>
<path stroke="#90c1ed" vector-effect="non-scaling-stroke" d="
  M 49.28 24.00
  A 15.28 15.28 0.0 0 0 34.00 8.72
  A 15.28 15.28 0.0 0 0 18.72 24.00
  A 15.28 15.28 0.0 0 0 34.00 39.28
  A 15.28 15.28 0.0 0 0 49.28 24.00"
/>
<path stroke="#90c1ed" vector-effect="non-scaling-stroke" d="
  M 45.67 24.00
  A 11.67 11.67 0.0 0 0 34.00 12.33
  A 11.67 11.67 0.0 0 0 22.33 24.00
  A 11.67 11.67 0.0 0 0 34.00 35.67
  A 11.67 11.67 0.0 0 0 45.67 24.00"
/>
<path stroke="#90c1ed" vector-effect="non-scaling-stroke" d="
  M 43.35 21.29
  C 40.25 24.85 34.76 20.93 36.91 16.59
  Q 37.22 15.97 37.77 15.55
  L 38.30 15.15
  Q 38.94 14.66 38.20 14.36
  C 26.04 9.54 17.53 26.13 28.70 32.95
  Q 33.57 35.92 38.57 33.38
  Q 45.31 29.97 44.31 21.59
  A 0.55 0.55 0.0 0 0 43.35 21.29"
/>
</g>
<path fill="#2183db" d="
  M 55.76 10.98
  Q 59.27 14.77 62.88 18.12
  C 65.80 20.83 67.32 24.36 64.86 27.34
  Q 58.16 35.44 48.06 41.88
  Q 43.66 44.13 38.66 45.06
  C 24.84 47.63 11.18 38.37 3.58 27.86
  Q 0.61 23.75 4.08 19.57
  Q 11.63 10.45 21.40 5.77
  C 28.89 2.18 35.92 1.49 43.52 4.40
  Q 50.30 6.98 55.76 10.98
  Z
  M 6.36 25.49
  C 13.74 34.45 25.38 43.23 37.25 41.40
  C 46.69 39.93 55.78 32.78 61.76 25.36
  A 2.17 2.17 0.0 0 0 61.75 22.63
  C 51.84 10.53 36.84 1.04 21.19 9.97
  Q 12.10 15.15 6.33 22.60
  Q 5.19 24.07 6.36 25.49
  Z"
/>
<path fill="#fefefe" d="
  M 37.25 41.40
  C 25.38 43.23 13.74 34.45 6.36 25.49
  Q 5.19 24.07 6.33 22.60
  Q 12.10 15.15 21.19 9.97
  C 36.84 1.04 51.84 10.53 61.75 22.63
  A 2.17 2.17 0.0 0 1 61.76 25.36
  C 55.78 32.78 46.69 39.93 37.25 41.40
  Z
  M 49.28 24.00
  A 15.28 15.28 0.0 0 0 34.00 8.72
  A 15.28 15.28 0.0 0 0 18.72 24.00
  A 15.28 15.28 0.0 0 0 34.00 39.28
  A 15.28 15.28 0.0 0 0 49.28 24.00
  Z"
/>
<path fill="#2183db" d="
  M 49.28 24.00
  A 15.28 15.28 0.0 0 1 34.00 39.28
  A 15.28 15.28 0.0 0 1 18.72 24.00
  A 15.28 15.28 0.0 0 1 34.00 8.72
  A 15.28 15.28 0.0 0 1 49.28 24.00
  Z
  M 45.67 24.00
  A 11.67 11.67 0.0 0 0 34.00 12.33
  A 11.67 11.67 0.0 0 0 22.33 24.00
  A 11.67 11.67 0.0 0 0 34.00 35.67
  A 11.67 11.67 0.0 0 0 45.67 24.00
  Z"
/>
<path fill="#fefefe" d="
  M 55.76 10.98
  Q 59.81 13.20 62.45 15.80
  Q 66.53 19.83 67.04 25.19
  Q 67.21 26.97 65.98 30.11
  C 64.05 35.05 58.93 38.49 54.26 40.35
  Q 52.88 40.90 48.06 41.88
  Q 58.16 35.44 64.86 27.34
  C 67.32 24.36 65.80 20.83 62.88 18.12
  Q 59.27 14.77 55.76 10.98
  Z"
/>
<path fill="#fefefe" d="
  M 45.67 24.00
  A 11.67 11.67 0.0 0 1 34.00 35.67
  A 11.67 11.67 0.0 0 1 22.33 24.00
  A 11.67 11.67 0.0 0 1 34.00 12.33
  A 11.67 11.67 0.0 0 1 45.67 24.00
  Z
  M 43.35 21.29
  C 40.25 24.85 34.76 20.93 36.91 16.59
  Q 37.22 15.97 37.77 15.55
  L 38.30 15.15
  Q 38.94 14.66 38.20 14.36
  C 26.04 9.54 17.53 26.13 28.70 32.95
  Q 33.57 35.92 38.57 33.38
  Q 45.31 29.97 44.31 21.59
  A 0.55 0.55 0.0 0 0 43.35 21.29
  Z"
/>
<path fill="#2183db" d="
  M 36.91 16.59
  C 34.76 20.93 40.25 24.85 43.35 21.29
  A 0.55 0.55 0.0 0 1 44.31 21.59
  Q 45.31 29.97 38.57 33.38
  Q 33.57 35.92 28.70 32.95
  C 17.53 26.13 26.04 9.54 38.20 14.36
  Q 38.94 14.66 38.30 15.15
  L 37.77 15.55
  Q 37.22 15.97 36.91 16.59
  Z"
/>
</svg>
