<?xml version="1.0" encoding="UTF-8" standalone="no"?>
<!DOCTYPE svg PUBLIC "-//W3C//DTD SVG 1.1//EN" "http://www.w3.org/Graphics/SVG/1.1/DTD/svg11.dtd">
<svg xmlns="http://www.w3.org/2000/svg" version="1.1" viewBox="0.00 0.00 60.00 65.00">
<g stroke-width="2.00" fill="none" stroke-linecap="butt">
<path stroke="#80acc9" vector-effect="non-scaling-stroke" d="
  M 38.96 10.47
  A 0.59 0.59 0.0 0 0 38.95 9.43
  L 30.14 4.84
  A 0.59 0.59 0.0 0 0 29.58 4.84
  L 7.59 16.99
  A 0.59 0.59 0.0 0 0 7.59 18.03
  L 16.21 22.77
  A 0.59 0.59 0.0 0 0 16.79 22.77
  L 38.96 10.47"
/>
<path stroke="#80acc9" vector-effect="non-scaling-stroke" d="
  M 20.84 24.63
  A 0.43 0.43 0.0 0 0 20.84 25.39
  L 29.80 30.32
  A 0.43 0.43 0.0 0 0 30.22 30.31
  L 52.58 17.89
  A 0.43 0.43 0.0 0 0 52.58 17.14
  L 43.74 12.17
  A 0.43 0.43 0.0 0 0 43.32 12.17
  L 20.84 24.63"
/>
<path stroke="#80acc9" vector-effect="non-scaling-stroke" d="
  M 5.30 20.82
  A 0.37 0.37 0.0 0 0 4.75 21.14
  L 4.87 46.16
  A 0.37 0.37 0.0 0 0 5.06 46.49
  L 27.67 59.20
  A 0.37 0.37 0.0 0 0 28.22 58.88
  L 28.21 33.82
  A 0.37 0.37 0.0 0 0 28.02 33.49
  L 5.30 20.82"
/>
<path stroke="#80acc9" vector-effect="non-scaling-stroke" d="
  M 54.84 46.54
  A 0.45 0.45 0.0 0 0 55.07 46.15
  L 55.27 21.27
  A 0.45 0.45 0.0 0 0 54.60 20.88
  L 32.03 33.45
  A 0.45 0.45 0.0 0 0 31.80 33.84
  L 31.78 58.73
  A 0.45 0.45 0.0 0 0 32.45 59.12
  L 54.84 46.54"
/>
<path stroke="#80acc9" vector-effect="non-scaling-stroke" d="
  M 22.5775 39.1468
  A 1.58 1.58 0.0 0 0 21.9729 36.9957
  L 12.7987 31.8474
  A 1.58 1.58 0.0 0 0 10.6476 32.4520
  L 10.4225 32.8532
  A 1.58 1.58 0.0 0 0 11.0271 35.0043
  L 20.2013 40.1526
  A 1.58 1.58 0.0 0 0 22.3524 39.5480
  L 22.5775 39.1468"
/>
</g>
<path fill="#015a94" d="
  M 26.36 62.57
  C 19.28 58.90 12.20 54.98 5.34 50.94
  Q 1.00 48.38 1.07 42.84
  Q 1.19 33.06 0.98 21.42
  C 0.94 18.79 0.85 16.61 3.48 15.09
  Q 15.03 8.40 26.07 2.66
  Q 30.05 0.59 34.00 2.64
  Q 46.30 9.03 57.75 15.80
  Q 58.83 16.44 58.85 17.70
  Q 59.01 29.72 58.88 43.35
  Q 58.82 48.60 54.48 51.11
  Q 43.69 57.35 33.82 62.53
  Q 30.08 64.49 26.36 62.57
  Z
  M 38.96 10.47
  A 0.59 0.59 0.0 0 0 38.95 9.43
  L 30.14 4.84
  A 0.59 0.59 0.0 0 0 29.58 4.84
  L 7.59 16.99
  A 0.59 0.59 0.0 0 0 7.59 18.03
  L 16.21 22.77
  A 0.59 0.59 0.0 0 0 16.79 22.77
  L 38.96 10.47
  Z
  M 20.84 24.63
  A 0.43 0.43 0.0 0 0 20.84 25.39
  L 29.80 30.32
  A 0.43 0.43 0.0 0 0 30.22 30.31
  L 52.58 17.89
  A 0.43 0.43 0.0 0 0 52.58 17.14
  L 43.74 12.17
  A 0.43 0.43 0.0 0 0 43.32 12.17
  L 20.84 24.63
  Z
  M 5.30 20.82
  A 0.37 0.37 0.0 0 0 4.75 21.14
  L 4.87 46.16
  A 0.37 0.37 0.0 0 0 5.06 46.49
  L 27.67 59.20
  A 0.37 0.37 0.0 0 0 28.22 58.88
  L 28.21 33.82
  A 0.37 0.37 0.0 0 0 28.02 33.49
  L 5.30 20.82
  Z
  M 54.84 46.54
  A 0.45 0.45 0.0 0 0 55.07 46.15
  L 55.27 21.27
  A 0.45 0.45 0.0 0 0 54.60 20.88
  L 32.03 33.45
  A 0.45 0.45 0.0 0 0 31.80 33.84
  L 31.78 58.73
  A 0.45 0.45 0.0 0 0 32.45 59.12
  L 54.84 46.54
  Z"
/>
<path fill="#fefefe" d="
  M 38.96 10.47
  L 16.79 22.77
  A 0.59 0.59 0.0 0 1 16.21 22.77
  L 7.59 18.03
  A 0.59 0.59 0.0 0 1 7.59 16.99
  L 29.58 4.84
  A 0.59 0.59 0.0 0 1 30.14 4.84
  L 38.95 9.43
  A 0.59 0.59 0.0 0 1 38.96 10.47
  Z"
/>
<path fill="#fefefe" d="
  M 20.84 24.63
  L 43.32 12.17
  A 0.43 0.43 0.0 0 1 43.74 12.17
  L 52.58 17.14
  A 0.43 0.43 0.0 0 1 52.58 17.89
  L 30.22 30.31
  A 0.43 0.43 0.0 0 1 29.80 30.32
  L 20.84 25.39
  A 0.43 0.43 0.0 0 1 20.84 24.63
  Z"
/>
<path fill="#fefefe" d="
  M 5.30 20.82
  L 28.02 33.49
  A 0.37 0.37 0.0 0 1 28.21 33.82
  L 28.22 58.88
  A 0.37 0.37 0.0 0 1 27.67 59.20
  L 5.06 46.49
  A 0.37 0.37 0.0 0 1 4.87 46.16
  L 4.75 21.14
  A 0.37 0.37 0.0 0 1 5.30 20.82
  Z
  M 22.5775 39.1468
  A 1.58 1.58 0.0 0 0 21.9729 36.9957
  L 12.7987 31.8474
  A 1.58 1.58 0.0 0 0 10.6476 32.4520
  L 10.4225 32.8532
  A 1.58 1.58 0.0 0 0 11.0271 35.0043
  L 20.2013 40.1526
  A 1.58 1.58 0.0 0 0 22.3524 39.5480
  L 22.5775 39.1468
  Z"
/>
<path fill="#fefefe" d="
  M 54.84 46.54
  L 32.45 59.12
  A 0.45 0.45 0.0 0 1 31.78 58.73
  L 31.80 33.84
  A 0.45 0.45 0.0 0 1 32.03 33.45
  L 54.60 20.88
  A 0.45 0.45 0.0 0 1 55.27 21.27
  L 55.07 46.15
  A 0.45 0.45 0.0 0 1 54.84 46.54
  Z"
/>
<rect fill="#015a94" x="-6.84" y="-1.81" transform="translate(16.50,36.00) rotate(29.3)" width="13.68" height="3.62" rx="1.58"/>
</svg>
