<?xml version="1.0" encoding="UTF-8" standalone="no"?>
<!DOCTYPE svg PUBLIC "-//W3C//DTD SVG 1.1//EN" "http://www.w3.org/Graphics/SVG/1.1/DTD/svg11.dtd">
<svg xmlns="http://www.w3.org/2000/svg" version="1.1" viewBox="0.00 0.00 72.00 51.00">
<path fill="#015999" d="
  M 72.00 16.74
  L 72.00 24.61
  Q 66.73 32.92 57.81 38.31
  C 55.34 39.80 52.82 40.52 50.18 41.51
  A 0.90 0.88 80.4 0 0 49.61 42.33
  L 49.50 48.35
  A 1.46 1.45 -2.4 0 1 48.19 49.77
  C 45.96 49.98 43.12 50.52 41.65 48.34
  C 40.43 46.54 39.08 43.24 36.54 43.20
  Q 29.56 43.07 23.36 43.15
  A 0.70 0.69 0.4 0 0 22.67 43.82
  L 22.47 48.76
  A 1.05 1.04 -1.6 0 1 21.53 49.75
  Q 19.25 49.97 16.98 49.93
  C 15.99 49.92 15.33 49.16 14.83 48.40
  C 9.99 41.00 5.81 35.09 4.62 26.39
  Q 4.55 25.84 4.07 25.55
  Q 2.89 24.85 1.70 24.04
  Q 0.61 23.28 0.35 22.05
  C -0.81 16.43 4.95 17.41 6.92 13.54
  Q 10.71 6.07 18.08 2.65
  C 25.86 -0.96 38.34 1.05 46.86 3.08
  Q 47.55 3.24 48.19 2.93
  C 51.54 1.26 54.58 0.40 58.45 0.91
  Q 59.09 0.99 59.38 1.56
  C 61.35 5.35 57.66 6.57 57.68 10.04
  A 1.31 1.29 -71.2 0 0 58.16 11.03
  Q 64.00 15.77 72.00 16.74
  Z
  M 10.80 34.84
  C 12.59 38.31 14.70 41.84 16.94 44.99
  Q 19.20 48.16 18.98 44.28
  Q 18.85 41.98 19.47 40.04
  Q 19.64 39.49 20.22 39.49
  L 38.77 39.50
  A 2.33 2.32 74.4 0 1 40.76 40.63
  Q 42.42 43.43 44.47 45.78
  Q 45.98 47.52 45.99 45.21
  L 46.02 40.46
  A 2.11 2.10 -8.9 0 1 47.48 38.46
  C 50.22 37.58 52.99 37.04 55.50 35.51
  Q 62.22 31.41 67.20 25.24
  Q 68.86 23.18 68.25 20.38
  Q 68.12 19.78 67.54 19.60
  Q 64.71 18.74 62.18 17.78
  C 60.15 17.00 54.37 13.94 53.27 11.04
  Q 53.07 10.54 53.27 10.03
  L 54.81 6.06
  A 1.09 1.08 -88.0 0 0 53.48 4.63
  C 50.90 5.43 49.34 7.32 46.36 6.62
  Q 39.07 4.91 30.91 4.13
  C 22.26 3.32 14.51 6.85 10.44 14.44
  Q 8.02 18.95 7.93 20.63
  Q 7.49 28.42 10.80 34.84
  Z
  M 5.42 20.37
  Q 4.93 19.96 4.30 20.12
  A 0.52 0.52 0.0 0 0 4.18 21.07
  Q 5.70 21.96 6.80 21.08
  Q 7.19 20.78 6.71 20.66
  Q 6.47 20.59 6.22 20.62
  A 1.06 1.04 61.6 0 1 5.42 20.37
  Z"
/>
<circle fill="#015999" cx="50.08" cy="18.39" r="2.01"/>
</svg>
