<?xml version="1.0" encoding="UTF-8" standalone="no"?>
<!DOCTYPE svg PUBLIC "-//W3C//DTD SVG 1.1//EN" "http://www.w3.org/Graphics/SVG/1.1/DTD/svg11.dtd">
<svg xmlns="http://www.w3.org/2000/svg" version="1.1" viewBox="0.00 0.00 58.00 59.00">
<path fill="#015999" d="
  M 27.36 38.35
  Q 24.28 37.16 23.17 34.82
  Q 22.82 34.09 23.14 33.33
  Q 23.43 32.65 24.10 32.56
  Q 24.64 32.49 25.11 32.79
  C 27.35 34.24 29.74 35.84 32.43 36.12
  Q 37.53 36.64 41.93 32.57
  Q 46.28 28.53 50.42 24.10
  C 56.27 17.86 55.00 8.53 46.95 5.23
  C 40.27 2.50 35.34 6.56 31.14 11.23
  Q 29.91 12.60 28.16 12.50
  Q 27.42 12.46 27.61 10.82
  A 2.07 2.03 -22.6 0 1 28.05 9.78
  C 32.01 4.90 36.30 0.86 43.04 0.85
  C 53.61 0.85 60.81 11.67 56.56 21.46
  Q 55.30 24.35 51.77 27.73
  C 44.47 34.71 39.28 43.00 27.36 38.35
  Z"
/>
<path fill="#015999" d="
  M 8.46 56.56
  C -1.40 51.82 -2.30 39.20 5.62 31.84
  Q 9.09 28.62 12.49 25.02
  C 18.36 18.76 25.99 17.26 33.40 22.38
  A 2.64 2.51 -1.5 0 1 33.80 22.74
  Q 35.49 24.73 34.77 25.78
  Q 34.12 26.74 33.08 26.23
  C 30.76 25.11 28.81 23.46 26.21 22.99
  Q 20.89 22.02 16.31 26.22
  Q 11.99 30.18 7.63 34.85
  C 1.98 40.91 2.83 49.01 9.86 53.19
  C 14.01 55.66 19.43 54.82 22.95 51.50
  Q 25.40 49.19 28.24 46.67
  A 1.34 1.34 0.0 0 1 30.46 47.51
  Q 30.58 48.47 29.94 49.26
  C 24.39 56.12 17.44 60.87 8.46 56.56
  Z"
/>
</svg>
