<?xml version="1.0" encoding="UTF-8" standalone="no"?>
<!DOCTYPE svg PUBLIC "-//W3C//DTD SVG 1.1//EN" "http://www.w3.org/Graphics/SVG/1.1/DTD/svg11.dtd">
<svg xmlns="http://www.w3.org/2000/svg" version="1.1" viewBox="0.00 0.00 13.00 55.00">
<path fill="#ef0d4a" d="
  M 12.63 6.49
  A 6.14 6.14 0.0 0 1 6.49 12.63
  A 6.14 6.14 0.0 0 1 0.35 6.49
  A 6.14 6.14 0.0 0 1 6.49 0.35
  A 6.14 6.14 0.0 0 1 12.63 6.49
  Z
  M 9.07 6.51
  A 2.58 2.58 0.0 0 0 6.49 3.93
  A 2.58 2.58 0.0 0 0 3.91 6.51
  A 2.58 2.58 0.0 0 0 6.49 9.09
  A 2.58 2.58 0.0 0 0 9.07 6.51
  Z"
/>
<path fill="#015895" d="
  M 12.72 27.54
  A 6.19 6.19 0.0 0 1 6.53 33.73
  A 6.19 6.19 0.0 0 1 0.34 27.54
  A 6.19 6.19 0.0 0 1 6.53 21.35
  A 6.19 6.19 0.0 0 1 12.72 27.54
  Z
  M 9.07 27.50
  A 2.57 2.57 0.0 0 0 6.50 24.93
  A 2.57 2.57 0.0 0 0 3.93 27.50
  A 2.57 2.57 0.0 0 0 6.50 30.07
  A 2.57 2.57 0.0 0 0 9.07 27.50
  Z"
/>
<path fill="#015895" d="
  M 12.73 48.52
  A 6.21 6.21 0.0 0 1 6.52 54.73
  A 6.21 6.21 0.0 0 1 0.31 48.52
  A 6.21 6.21 0.0 0 1 6.52 42.31
  A 6.21 6.21 0.0 0 1 12.73 48.52
  Z
  M 9.07 48.51
  A 2.57 2.57 0.0 0 0 6.50 45.94
  A 2.57 2.57 0.0 0 0 3.93 48.51
  A 2.57 2.57 0.0 0 0 6.50 51.08
  A 2.57 2.57 0.0 0 0 9.07 48.51
  Z"
/>
</svg>
