<?xml version="1.0" encoding="UTF-8" standalone="no"?>
<!DOCTYPE svg PUBLIC "-//W3C//DTD SVG 1.1//EN" "http://www.w3.org/Graphics/SVG/1.1/DTD/svg11.dtd">
<svg xmlns="http://www.w3.org/2000/svg" version="1.1" viewBox="0.00 0.00 114.00 114.00">
<g stroke-width="2.00" fill="none" stroke-linecap="butt">
<path stroke="#ecf0f3" vector-effect="non-scaling-stroke" d="
  M 111.05 57.00
  A 54.03 54.03 0.0 0 0 57.02 2.97
  A 54.03 54.03 0.0 0 0 2.99 57.00
  A 54.03 54.03 0.0 0 0 57.02 111.03
  A 54.03 54.03 0.0 0 0 111.05 57.00"
/>
<path stroke="#80acc9" vector-effect="non-scaling-stroke" d="
  M 74.07 62.60
  Q 78.37 52.81 74.84 43.58
  C 68.13 26.00 44.89 21.97 32.95 37.12
  C 23.15 49.56 27.81 67.79 42.09 74.24
  Q 52.03 78.73 62.63 74.05
  Q 63.22 73.79 63.68 74.24
  L 73.74 84.30
  A 2.35 2.35 0.0 0 0 77.06 84.30
  L 84.36 77.00
  A 2.26 2.26 0.0 0 0 84.36 73.80
  L 74.28 63.71
  Q 73.79 63.23 74.07 62.60"
/>
<path stroke="#80acc9" vector-effect="non-scaling-stroke" d="
  M 71.91 52.09
  A 19.82 19.82 0.0 0 0 52.09 32.27
  A 19.82 19.82 0.0 0 0 32.27 52.09
  A 19.82 19.82 0.0 0 0 52.09 71.91
  A 19.82 19.82 0.0 0 0 71.91 52.09"
/>
<path stroke="#80acc9" vector-effect="non-scaling-stroke" d="
  M 71.5374 67.3555
  A 0.26 0.26 0.0 0 0 71.1697 67.3555
  L 67.3655 71.1597
  A 0.26 0.26 0.0 0 0 67.3655 71.5274
  L 75.2426 79.4045
  A 0.26 0.26 0.0 0 0 75.6103 79.4045
  L 79.4145 75.6003
  A 0.26 0.26 0.0 0 0 79.4145 75.2326
  L 71.5374 67.3555"
/>
</g>
<path fill="#d9e0e7" d="
  M 53.84 0.00
  L 60.29 0.00
  Q 86.02 1.92 101.92 21.82
  Q 112.95 35.61 114.00 53.91
  L 114.00 60.22
  Q 113.07 76.31 104.43 88.95
  Q 88.94 111.60 60.86 114.00
  L 53.00 114.00
  Q 35.69 112.51 22.87 102.88
  Q 2.66 87.69 0.00 61.33
  L 0.00 52.79
  Q 1.36 38.38 8.18 27.45
  Q 23.73 2.54 53.84 0.00
  Z
  M 111.05 57.00
  A 54.03 54.03 0.0 0 0 57.02 2.97
  A 54.03 54.03 0.0 0 0 2.99 57.00
  A 54.03 54.03 0.0 0 0 57.02 111.03
  A 54.03 54.03 0.0 0 0 111.05 57.00
  Z"
/>
<path fill="#ffffff" d="
  M 111.05 57.00
  A 54.03 54.03 0.0 0 1 57.02 111.03
  A 54.03 54.03 0.0 0 1 2.99 57.00
  A 54.03 54.03 0.0 0 1 57.02 2.97
  A 54.03 54.03 0.0 0 1 111.05 57.00
  Z
  M 74.07 62.60
  Q 78.37 52.81 74.84 43.58
  C 68.13 26.00 44.89 21.97 32.95 37.12
  C 23.15 49.56 27.81 67.79 42.09 74.24
  Q 52.03 78.73 62.63 74.05
  Q 63.22 73.79 63.68 74.24
  L 73.74 84.30
  A 2.35 2.35 0.0 0 0 77.06 84.30
  L 84.36 77.00
  A 2.26 2.26 0.0 0 0 84.36 73.80
  L 74.28 63.71
  Q 73.79 63.23 74.07 62.60
  Z"
/>
<path fill="#005993" d="
  M 74.28 63.71
  L 84.36 73.80
  A 2.26 2.26 0.0 0 1 84.36 77.00
  L 77.06 84.30
  A 2.35 2.35 0.0 0 1 73.74 84.30
  L 63.68 74.24
  Q 63.22 73.79 62.63 74.05
  Q 52.03 78.73 42.09 74.24
  C 27.81 67.79 23.15 49.56 32.95 37.12
  C 44.89 21.97 68.13 26.00 74.84 43.58
  Q 78.37 52.81 74.07 62.60
  Q 73.79 63.23 74.28 63.71
  Z
  M 71.91 52.09
  A 19.82 19.82 0.0 0 0 52.09 32.27
  A 19.82 19.82 0.0 0 0 32.27 52.09
  A 19.82 19.82 0.0 0 0 52.09 71.91
  A 19.82 19.82 0.0 0 0 71.91 52.09
  Z
  M 71.5374 67.3555
  A 0.26 0.26 0.0 0 0 71.1697 67.3555
  L 67.3655 71.1597
  A 0.26 0.26 0.0 0 0 67.3655 71.5274
  L 75.2426 79.4045
  A 0.26 0.26 0.0 0 0 75.6103 79.4045
  L 79.4145 75.6003
  A 0.26 0.26 0.0 0 0 79.4145 75.2326
  L 71.5374 67.3555
  Z"
/>
<circle fill="#ffffff" cx="52.09" cy="52.09" r="19.82"/>
<rect fill="#ffffff" x="-2.95" y="-5.83" transform="translate(73.39,73.38) rotate(-45.0)" width="5.90" height="11.66" rx="0.26"/>
</svg>
