<?xml version="1.0" encoding="UTF-8" standalone="no"?>
<!DOCTYPE svg PUBLIC "-//W3C//DTD SVG 1.1//EN" "http://www.w3.org/Graphics/SVG/1.1/DTD/svg11.dtd">
<svg xmlns="http://www.w3.org/2000/svg" version="1.1" viewBox="0.00 0.00 114.00 114.00">
<g stroke-width="2.00" fill="none" stroke-linecap="butt">
<path stroke="#ecf0f3" vector-effect="non-scaling-stroke" d="
  M 111.07 56.99
  A 54.05 54.05 0.0 0 0 57.02 2.94
  A 54.05 54.05 0.0 0 0 2.97 56.99
  A 54.05 54.05 0.0 0 0 57.02 111.04
  A 54.05 54.05 0.0 0 0 111.07 56.99"
/>
<path stroke="#80acc9" vector-effect="non-scaling-stroke" d="
  M 35.70 35.53
  L 30.17 35.57
  Q 28.49 35.58 28.28 37.24
  Q 28.23 37.61 28.36 37.97
  Q 28.76 39.08 29.94 39.07
  L 35.71 39.05"
/>
<path stroke="#eb89a4" vector-effect="non-scaling-stroke" d="
  M 35.71 39.05
  C 37.23 45.62 44.56 48.74 49.99 44.80
  C 56.94 39.76 54.01 28.63 45.00 28.31
  Q 38.16 28.06 35.70 35.53"
/>
<path stroke="#6c366e" vector-effect="non-scaling-stroke" d="
  M 35.71 39.05
  L 35.70 35.53"
/>
<path stroke="#80acc9" vector-effect="non-scaling-stroke" d="
  M 85.7399 37.2977
  A 1.78 1.78 0.0 0 0 83.9568 35.5208
  L 61.9568 35.5592
  A 1.78 1.78 0.0 0 0 60.1799 37.3423
  L 60.1801 37.4223
  A 1.78 1.78 0.0 0 0 61.9632 39.1992
  L 83.9632 39.1608
  A 1.78 1.78 0.0 0 0 85.7401 37.3777
  L 85.7399 37.2977"
/>
<path stroke="#80acc9" vector-effect="non-scaling-stroke" d="
  M 55.37 55.24
  L 30.09 55.23
  Q 28.89 55.23 28.38 56.32
  Q 28.20 56.69 28.25 57.08
  Q 28.45 58.76 30.15 58.76
  L 55.35 58.76"
/>
<path stroke="#eb89a4" vector-effect="non-scaling-stroke" d="
  M 55.35 58.76
  C 57.17 65.86 65.35 68.65 70.61 63.62
  C 75.24 59.20 74.13 51.69 68.44 48.86
  C 63.00 46.15 56.77 49.22 55.37 55.24"
/>
<path stroke="#6c366e" vector-effect="non-scaling-stroke" d="
  M 55.35 58.76
  L 55.37 55.24"
/>
<path stroke="#80acc9" vector-effect="non-scaling-stroke" d="
  M 85.7502 56.9052
  A 1.66 1.66 0.0 0 0 84.0931 55.2423
  L 81.4531 55.2377
  A 1.66 1.66 0.0 0 0 79.7902 56.8948
  L 79.7898 57.0948
  A 1.66 1.66 0.0 0 0 81.4469 58.7577
  L 84.0869 58.7623
  A 1.66 1.66 0.0 0 0 85.7498 57.1052
  L 85.7502 56.9052"
/>
<path stroke="#80acc9" vector-effect="non-scaling-stroke" d="
  M 35.77 74.81
  L 29.77 74.86
  A 1.46 1.46 0.0 0 0 28.43 75.74
  Q 28.12 76.46 28.30 77.12
  Q 28.63 78.38 29.92 78.36
  L 35.67 78.31"
/>
<path stroke="#eb89a4" vector-effect="non-scaling-stroke" d="
  M 35.67 78.31
  C 37.27 84.91 44.56 88.04 50.02 84.05
  C 58.90 77.56 51.12 63.96 40.84 68.35
  Q 36.89 70.03 35.77 74.81"
/>
<path stroke="#6c366e" vector-effect="non-scaling-stroke" d="
  M 35.67 78.31
  L 35.77 74.81"
/>
<path stroke="#80acc9" vector-effect="non-scaling-stroke" d="
  M 85.73 76.60
  A 1.78 1.78 0.0 0 0 83.95 74.82
  L 61.97 74.82
  A 1.78 1.78 0.0 0 0 60.19 76.60
  L 60.19 76.68
  A 1.78 1.78 0.0 0 0 61.97 78.46
  L 83.95 78.46
  A 1.78 1.78 0.0 0 0 85.73 76.68
  L 85.73 76.60"
/>
<path stroke="#eb89a4" vector-effect="non-scaling-stroke" d="
  M 50.27 37.36
  A 5.54 5.54 0.0 0 0 44.73 31.82
  A 5.54 5.54 0.0 0 0 39.19 37.36
  A 5.54 5.54 0.0 0 0 44.73 42.90
  A 5.54 5.54 0.0 0 0 50.27 37.36"
/>
<path stroke="#eb89a4" vector-effect="non-scaling-stroke" d="
  M 69.91 57.00
  A 5.54 5.54 0.0 0 0 64.37 51.46
  A 5.54 5.54 0.0 0 0 58.83 57.00
  A 5.54 5.54 0.0 0 0 64.37 62.54
  A 5.54 5.54 0.0 0 0 69.91 57.00"
/>
<path stroke="#eb89a4" vector-effect="non-scaling-stroke" d="
  M 50.28 76.64
  A 5.55 5.55 0.0 0 0 44.73 71.09
  A 5.55 5.55 0.0 0 0 39.18 76.64
  A 5.55 5.55 0.0 0 0 44.73 82.19
  A 5.55 5.55 0.0 0 0 50.28 76.64"
/>
</g>
<path fill="#d8e0e6" d="
  M 53.15 0.00
  L 60.74 0.00
  Q 77.63 1.27 90.50 10.72
  Q 111.80 26.36 114.00 53.33
  L 114.00 61.00
  Q 112.01 85.62 93.75 101.00
  Q 80.26 112.37 61.58 114.00
  L 52.80 114.00
  Q 30.09 112.00 15.20 96.04
  Q 1.55 81.42 0.00 60.61
  L 0.00 52.72
  Q 3.18 22.62 28.50 7.51
  Q 39.15 1.16 53.15 0.00
  Z
  M 111.07 56.99
  A 54.05 54.05 0.0 0 0 57.02 2.94
  A 54.05 54.05 0.0 0 0 2.97 56.99
  A 54.05 54.05 0.0 0 0 57.02 111.04
  A 54.05 54.05 0.0 0 0 111.07 56.99
  Z"
/>
<path fill="#ffffff" d="
  M 111.07 56.99
  A 54.05 54.05 0.0 0 1 57.02 111.04
  A 54.05 54.05 0.0 0 1 2.97 56.99
  A 54.05 54.05 0.0 0 1 57.02 2.94
  A 54.05 54.05 0.0 0 1 111.07 56.99
  Z
  M 35.70 35.53
  L 30.17 35.57
  Q 28.49 35.58 28.28 37.24
  Q 28.23 37.61 28.36 37.97
  Q 28.76 39.08 29.94 39.07
  L 35.71 39.05
  C 37.23 45.62 44.56 48.74 49.99 44.80
  C 56.94 39.76 54.01 28.63 45.00 28.31
  Q 38.16 28.06 35.70 35.53
  Z
  M 85.7399 37.2977
  A 1.78 1.78 0.0 0 0 83.9568 35.5208
  L 61.9568 35.5592
  A 1.78 1.78 0.0 0 0 60.1799 37.3423
  L 60.1801 37.4223
  A 1.78 1.78 0.0 0 0 61.9632 39.1992
  L 83.9632 39.1608
  A 1.78 1.78 0.0 0 0 85.7401 37.3777
  L 85.7399 37.2977
  Z
  M 55.37 55.24
  L 30.09 55.23
  Q 28.89 55.23 28.38 56.32
  Q 28.20 56.69 28.25 57.08
  Q 28.45 58.76 30.15 58.76
  L 55.35 58.76
  C 57.17 65.86 65.35 68.65 70.61 63.62
  C 75.24 59.20 74.13 51.69 68.44 48.86
  C 63.00 46.15 56.77 49.22 55.37 55.24
  Z
  M 85.7502 56.9052
  A 1.66 1.66 0.0 0 0 84.0931 55.2423
  L 81.4531 55.2377
  A 1.66 1.66 0.0 0 0 79.7902 56.8948
  L 79.7898 57.0948
  A 1.66 1.66 0.0 0 0 81.4469 58.7577
  L 84.0869 58.7623
  A 1.66 1.66 0.0 0 0 85.7498 57.1052
  L 85.7502 56.9052
  Z
  M 35.77 74.81
  L 29.77 74.86
  A 1.46 1.46 0.0 0 0 28.43 75.74
  Q 28.12 76.46 28.30 77.12
  Q 28.63 78.38 29.92 78.36
  L 35.67 78.31
  C 37.27 84.91 44.56 88.04 50.02 84.05
  C 58.90 77.56 51.12 63.96 40.84 68.35
  Q 36.89 70.03 35.77 74.81
  Z
  M 85.73 76.60
  A 1.78 1.78 0.0 0 0 83.95 74.82
  L 61.97 74.82
  A 1.78 1.78 0.0 0 0 60.19 76.60
  L 60.19 76.68
  A 1.78 1.78 0.0 0 0 61.97 78.46
  L 83.95 78.46
  A 1.78 1.78 0.0 0 0 85.73 76.68
  L 85.73 76.60
  Z"
/>
<path fill="#d71249" d="
  M 35.71 39.05
  L 35.70 35.53
  Q 38.16 28.06 45.00 28.31
  C 54.01 28.63 56.94 39.76 49.99 44.80
  C 44.56 48.74 37.23 45.62 35.71 39.05
  Z
  M 50.27 37.36
  A 5.54 5.54 0.0 0 0 44.73 31.82
  A 5.54 5.54 0.0 0 0 39.19 37.36
  A 5.54 5.54 0.0 0 0 44.73 42.90
  A 5.54 5.54 0.0 0 0 50.27 37.36
  Z"
/>
<circle fill="#ffffff" cx="44.73" cy="37.36" r="5.54"/>
<path fill="#005993" d="
  M 35.70 35.53
  L 35.71 39.05
  L 29.94 39.07
  Q 28.76 39.08 28.36 37.97
  Q 28.23 37.61 28.28 37.24
  Q 28.49 35.58 30.17 35.57
  L 35.70 35.53
  Z"
/>
<rect fill="#005993" x="-12.78" y="-1.82" transform="translate(72.96,37.36) rotate(-0.1)" width="25.56" height="3.64" rx="1.78"/>
<path fill="#d71249" d="
  M 55.35 58.76
  L 55.37 55.24
  C 56.77 49.22 63.00 46.15 68.44 48.86
  C 74.13 51.69 75.24 59.20 70.61 63.62
  C 65.35 68.65 57.17 65.86 55.35 58.76
  Z
  M 69.91 57.00
  A 5.54 5.54 0.0 0 0 64.37 51.46
  A 5.54 5.54 0.0 0 0 58.83 57.00
  A 5.54 5.54 0.0 0 0 64.37 62.54
  A 5.54 5.54 0.0 0 0 69.91 57.00
  Z"
/>
<circle fill="#ffffff" cx="64.37" cy="57.00" r="5.54"/>
<path fill="#005993" d="
  M 55.37 55.24
  L 55.35 58.76
  L 30.15 58.76
  Q 28.45 58.76 28.25 57.08
  Q 28.20 56.69 28.38 56.32
  Q 28.89 55.23 30.09 55.23
  L 55.37 55.24
  Z"
/>
<rect fill="#005993" x="-2.98" y="-1.76" transform="translate(82.77,57.00) rotate(0.1)" width="5.96" height="3.52" rx="1.66"/>
<path fill="#d71249" d="
  M 35.67 78.31
  L 35.77 74.81
  Q 36.89 70.03 40.84 68.35
  C 51.12 63.96 58.90 77.56 50.02 84.05
  C 44.56 88.04 37.27 84.91 35.67 78.31
  Z
  M 50.28 76.64
  A 5.55 5.55 0.0 0 0 44.73 71.09
  A 5.55 5.55 0.0 0 0 39.18 76.64
  A 5.55 5.55 0.0 0 0 44.73 82.19
  A 5.55 5.55 0.0 0 0 50.28 76.64
  Z"
/>
<circle fill="#ffffff" cx="44.73" cy="76.64" r="5.55"/>
<path fill="#005993" d="
  M 35.77 74.81
  L 35.67 78.31
  L 29.92 78.36
  Q 28.63 78.38 28.30 77.12
  Q 28.12 76.46 28.43 75.74
  A 1.46 1.46 0.0 0 1 29.77 74.86
  L 35.77 74.81
  Z"
/>
<rect fill="#005993" x="60.19" y="74.82" width="25.54" height="3.64" rx="1.78"/>
</svg>
