<?xml version="1.0" encoding="UTF-8" standalone="no"?>
<!DOCTYPE svg PUBLIC "-//W3C//DTD SVG 1.1//EN" "http://www.w3.org/Graphics/SVG/1.1/DTD/svg11.dtd">
<svg xmlns="http://www.w3.org/2000/svg" version="1.1" viewBox="0.00 0.00 63.00 67.00">
<path fill="#8293a3" d="
  M 54.46 5.23
  A 0.74 0.74 0.0 0 0 53.91 4.01
  L 47.46 3.98
  Q 45.99 3.98 45.78 2.53
  Q 45.74 2.26 45.83 1.99
  Q 46.35 0.34 48.09 0.37
  C 51.93 0.44 56.93 -0.11 60.64 0.91
  A 1.97 1.97 0.0 0 1 62.09 2.82
  L 62.06 15.31
  Q 62.06 16.94 60.44 16.99
  L 59.97 17.00
  Q 58.90 17.04 58.90 15.97
  L 58.86 8.73
  Q 58.85 7.01 57.52 8.10
  C 57.11 8.44 56.66 8.54 56.31 8.90
  Q 47.65 17.57 39.31 25.94
  A 2.21 2.21 0.0 0 1 36.38 26.11
  L 24.63 16.81
  A 2.36 2.35 -45.5 0 0 21.67 16.84
  Q 12.77 24.18 4.36 31.56
  Q 2.82 32.91 1.20 32.36
  Q -0.64 31.74 1.81 29.08
  A 1.13 0.12 -51.0 0 1 2.20 28.69
  L 21.64 12.29
  A 2.34 2.34 0.0 0 1 24.60 12.24
  L 36.08 21.33
  A 1.90 1.90 0.0 0 0 38.52 21.26
  Q 46.83 13.87 54.46 5.23
  Z"
/>
<path fill="#8293a3" d="
  M 58.83 67.00
  L 48.75 67.00
  Q 44.88 66.37 44.83 62.25
  Q 44.66 46.93 44.93 30.98
  A 3.98 3.98 0.0 0 1 48.65 27.07
  Q 53.56 26.74 58.04 27.14
  Q 62.19 27.52 62.17 31.75
  Q 62.08 47.01 62.03 63.26
  Q 62.02 65.81 58.83 67.00
  Z
  M 58.5162 31.8790
  A 1.44 1.44 0.0 0 0 57.0788 30.4365
  L 49.6388 30.4235
  A 1.44 1.44 0.0 0 0 48.1963 31.8610
  L 48.1438 61.9410
  A 1.44 1.44 0.0 0 0 49.5812 63.3835
  L 57.0212 63.3965
  A 1.44 1.44 0.0 0 0 58.4637 61.9590
  L 58.5162 31.8790
  Z"
/>
<path fill="#8293a3" d="
  M 35.82 67.00
  L 26.72 67.00
  Q 24.42 66.58 23.27 64.58
  Q 22.53 63.31 22.50 60.74
  Q 22.38 50.67 22.43 40.92
  C 22.47 32.99 27.97 34.35 33.56 34.17
  C 36.67 34.07 39.75 35.67 39.83 39.04
  Q 40.21 56.24 39.84 62.76
  Q 39.66 65.94 35.82 67.00
  Z
  M 36.28 39.23
  A 1.42 1.42 0.0 0 0 34.86 37.81
  L 27.42 37.81
  A 1.42 1.42 0.0 0 0 26.00 39.23
  L 26.00 61.99
  A 1.42 1.42 0.0 0 0 27.42 63.41
  L 34.86 63.41
  A 1.42 1.42 0.0 0 0 36.28 61.99
  L 36.28 39.23
  Z"
/>
<path fill="#8293a3" d="
  M 13.37 67.00
  L 4.79 67.00
  L 2.70 66.30
  A 1.14 1.12 87.5 0 1 2.02 65.67
  Q 1.76 65.05 1.18 64.73
  A 1.11 1.09 6.1 0 1 0.63 64.06
  L 0.00 61.86
  L 0.00 61.50
  Q 0.22 57.62 0.14 49.76
  C 0.09 45.27 3.32 43.74 7.44 43.91
  C 12.41 44.12 17.82 43.21 17.82 50.35
  Q 17.82 56.02 17.71 61.49
  Q 17.61 66.03 13.37 67.00
  Z
  M 14.0715 49.3679
  A 1.67 1.67 0.0 0 0 12.4074 47.6921
  L 5.5274 47.6680
  A 1.67 1.67 0.0 0 0 3.8516 49.3322
  L 3.8085 61.6921
  A 1.67 1.67 0.0 0 0 5.4726 63.3679
  L 12.3526 63.3920
  A 1.67 1.67 0.0 0 0 14.0284 61.7278
  L 14.0715 49.3679
  Z"
/>
</svg>
