<?xml version="1.0" encoding="UTF-8" standalone="no"?>
<!DOCTYPE svg PUBLIC "-//W3C//DTD SVG 1.1//EN" "http://www.w3.org/Graphics/SVG/1.1/DTD/svg11.dtd">
<svg xmlns="http://www.w3.org/2000/svg" version="1.1" viewBox="0.00 0.00 70.00 65.00">
<path fill="#8193a4" d="
  M 41.00 38.23
  Q 41.00 37.20 39.98 37.20
  L 30.29 37.18
  A 1.28 1.28 0.0 0 0 29.01 38.46
  L 28.99 62.34
  A 1.70 1.69 -90.0 0 1 27.30 64.04
  L 10.23 64.05
  A 2.17 2.17 0.0 0 1 8.06 61.90
  Q 7.96 51.99 8.04 40.94
  C 8.05 39.34 7.69 37.85 6.46 36.75
  Q 3.81 34.38 1.36 31.74
  Q -0.33 29.92 1.58 28.32
  L 32.77 2.20
  Q 35.07 0.27 37.37 2.20
  L 68.39 28.13
  Q 70.64 30.01 68.53 32.05
  L 63.22 37.17
  A 3.86 3.84 -22.0 0 0 62.03 39.95
  L 62.02 62.26
  A 1.78 1.78 0.0 0 1 60.24 64.04
  L 43.52 64.05
  Q 41.00 64.05 41.00 61.52
  L 41.00 38.23
  Z
  M 33.61 14.68
  C 34.65 13.79 36.26 14.39 37.15 15.17
  Q 48.25 24.75 58.62 33.81
  Q 60.30 35.27 61.89 33.71
  L 63.90 31.74
  Q 65.47 30.20 63.78 28.79
  L 36.16 5.66
  A 1.67 1.66 44.8 0 0 34.03 5.66
  L 6.75 28.43
  Q 4.65 30.18 6.55 32.15
  L 7.76 33.41
  Q 9.65 35.38 11.71 33.59
  Q 23.18 23.62 33.61 14.68
  Z
  M 43.88 34.60
  Q 44.55 35.03 44.55 35.83
  L 44.58 60.01
  A 0.93 0.93 0.0 0 0 45.51 60.94
  L 56.83 60.96
  Q 58.75 60.96 58.75 59.04
  L 58.76 40.15
  A 3.65 3.63 20.5 0 0 57.50 37.40
  L 36.59 19.23
  Q 35.06 17.90 33.54 19.22
  L 13.19 36.88
  A 4.77 4.75 69.6 0 0 11.56 40.47
  L 11.58 60.52
  A 0.41 0.41 0.0 0 0 11.99 60.92
  L 24.43 60.97
  A 1.40 1.40 0.0 0 0 25.84 59.57
  L 25.84 35.90
  A 1.89 1.89 0.0 0 1 27.72 34.01
  Q 34.48 33.94 41.25 33.94
  Q 42.89 33.94 43.88 34.60
  Z"
/>
</svg>
