<?xml version="1.0" encoding="UTF-8" standalone="no"?>
<!DOCTYPE svg PUBLIC "-//W3C//DTD SVG 1.1//EN" "http://www.w3.org/Graphics/SVG/1.1/DTD/svg11.dtd">
<svg xmlns="http://www.w3.org/2000/svg" version="1.1" viewBox="0.00 0.00 66.00 66.00">
<g stroke-width="2.00" fill="none" stroke-linecap="butt">
<path stroke="#6e7e89" stroke-opacity="0.875" vector-effect="non-scaling-stroke" d="
  M 62.02 48.81
  Q 56.63 56.20 54.49 57.66
  Q 52.04 59.34 49.66 61.60"
/>
<path stroke="#c1cad1" vector-effect="non-scaling-stroke" d="
  M 3.75 30.74
  Q 2.80 43.50 11.65 53.20
  A 0.25 0.25 0.0 0 0 12.08 53.10
  C 16.26 36.57 50.09 36.34 53.83 52.88
  A 0.37 0.37 0.0 0 0 54.47 53.05
  C 63.93 42.53 65.14 27.42 56.81 15.83
  C 41.02 -6.13 5.79 3.39 3.75 30.74"
/>
<path stroke="#c1cad1" vector-effect="non-scaling-stroke" d="
  M 22.95 46.18
  C 19.02 47.77 14.56 51.84 15.66 56.29
  A 1.54 1.52 10.5 0 0 16.28 57.18
  C 26.34 64.04 38.84 64.03 49.26 57.52
  C 50.47 56.77 50.77 55.39 50.45 54.08
  Q 49.23 48.94 43.75 46.49
  Q 33.52 41.93 22.95 46.18"
/>
<path stroke="#c1cad1" vector-effect="non-scaling-stroke" d="
  M 49.92 23.38
  A 16.91 16.91 0.0 0 0 33.01 6.47
  A 16.91 16.91 0.0 0 0 16.10 23.38
  A 16.91 16.91 0.0 0 0 33.01 40.29
  A 16.91 16.91 0.0 0 0 49.92 23.38"
/>
<path stroke="#c1cad1" vector-effect="non-scaling-stroke" d="
  M 46.31 23.38
  A 13.30 13.30 0.0 0 0 33.01 10.08
  A 13.30 13.30 0.0 0 0 19.71 23.38
  A 13.30 13.30 0.0 0 0 33.01 36.68
  A 13.30 13.30 0.0 0 0 46.31 23.38"
/>
</g>
<path fill="#8294a2" d="
  M 30.42 0.00
  L 35.72 0.00
  Q 44.96 1.10 51.50 5.62
  Q 64.15 14.36 66.00 30.37
  L 66.00 35.71
  Q 65.14 42.99 62.02 48.81
  Q 56.63 56.20 54.49 57.66
  Q 52.04 59.34 49.66 61.60
  Q 43.19 65.22 35.35 66.00
  L 30.51 66.00
  Q 20.54 65.05 13.13 59.37
  Q 1.76 50.66 0.00 35.84
  L 0.00 30.05
  Q 1.75 16.12 11.87 7.62
  Q 19.50 1.20 30.42 0.00
  Z
  M 3.75 30.74
  Q 2.80 43.50 11.65 53.20
  A 0.25 0.25 0.0 0 0 12.08 53.10
  C 16.26 36.57 50.09 36.34 53.83 52.88
  A 0.37 0.37 0.0 0 0 54.47 53.05
  C 63.93 42.53 65.14 27.42 56.81 15.83
  C 41.02 -6.13 5.79 3.39 3.75 30.74
  Z
  M 22.95 46.18
  C 19.02 47.77 14.56 51.84 15.66 56.29
  A 1.54 1.52 10.5 0 0 16.28 57.18
  C 26.34 64.04 38.84 64.03 49.26 57.52
  C 50.47 56.77 50.77 55.39 50.45 54.08
  Q 49.23 48.94 43.75 46.49
  Q 33.52 41.93 22.95 46.18
  Z"
/>
<path fill="#ffffff" d="
  M 3.75 30.74
  C 5.79 3.39 41.02 -6.13 56.81 15.83
  C 65.14 27.42 63.93 42.53 54.47 53.05
  A 0.37 0.37 0.0 0 1 53.83 52.88
  C 50.09 36.34 16.26 36.57 12.08 53.10
  A 0.25 0.25 0.0 0 1 11.65 53.20
  Q 2.80 43.50 3.75 30.74
  Z
  M 49.92 23.38
  A 16.91 16.91 0.0 0 0 33.01 6.47
  A 16.91 16.91 0.0 0 0 16.10 23.38
  A 16.91 16.91 0.0 0 0 33.01 40.29
  A 16.91 16.91 0.0 0 0 49.92 23.38
  Z"
/>
<path fill="#8294a2" d="
  M 49.92 23.38
  A 16.91 16.91 0.0 0 1 33.01 40.29
  A 16.91 16.91 0.0 0 1 16.10 23.38
  A 16.91 16.91 0.0 0 1 33.01 6.47
  A 16.91 16.91 0.0 0 1 49.92 23.38
  Z
  M 46.31 23.38
  A 13.30 13.30 0.0 0 0 33.01 10.08
  A 13.30 13.30 0.0 0 0 19.71 23.38
  A 13.30 13.30 0.0 0 0 33.01 36.68
  A 13.30 13.30 0.0 0 0 46.31 23.38
  Z"
/>
<circle fill="#ffffff" cx="33.01" cy="23.38" r="13.30"/>
<path fill="#ffffff" d="
  M 22.95 46.18
  Q 33.52 41.93 43.75 46.49
  Q 49.23 48.94 50.45 54.08
  C 50.77 55.39 50.47 56.77 49.26 57.52
  C 38.84 64.03 26.34 64.04 16.28 57.18
  A 1.54 1.52 10.5 0 1 15.66 56.29
  C 14.56 51.84 19.02 47.77 22.95 46.18
  Z"
/>
<path fill="#536067" fill-opacity="0.745" d="
  M 62.02 48.81
  Q 58.12 57.19 49.66 61.60
  Q 52.04 59.34 54.49 57.66
  Q 56.63 56.20 62.02 48.81
  Z"
/>
</svg>
