<?xml version="1.0" encoding="UTF-8" standalone="no"?>
<!DOCTYPE svg PUBLIC "-//W3C//DTD SVG 1.1//EN" "http://www.w3.org/Graphics/SVG/1.1/DTD/svg11.dtd">
<svg xmlns="http://www.w3.org/2000/svg" version="1.1" viewBox="0.00 0.00 70.00 65.00">
<path fill="#8093a4" d="
  M 44.46 55.66
  C 43.13 60.66 40.63 64.29 34.94 64.03
  Q 28.25 63.72 26.16 56.36
  Q 25.77 54.98 24.33 54.95
  C 20.35 54.87 14.77 55.65 11.24 54.01
  C 3.11 50.25 5.91 40.79 9.22 34.75
  C 10.87 31.72 12.89 28.53 12.86 24.93
  C 12.84 22.21 12.70 19.01 13.48 16.46
  Q 17.08 4.87 27.47 1.79
  Q 36.19 -0.79 44.06 3.15
  C 49.40 5.83 53.96 11.81 54.82 17.60
  C 55.49 22.09 54.72 26.39 56.86 30.93
  Q 59.39 36.32 61.38 41.28
  C 62.47 43.98 62.56 47.64 61.02 50.17
  C 57.29 56.28 51.17 54.74 45.24 55.03
  A 0.85 0.85 0.0 0 0 44.46 55.66
  Z
  M 13.11 34.86
  Q 10.84 38.54 9.53 43.20
  C 8.29 47.59 11.02 51.25 15.60 51.25
  Q 33.38 51.24 52.14 51.28
  C 55.41 51.29 58.26 49.68 58.81 46.25
  Q 59.12 44.34 57.44 40.62
  Q 55.35 36.01 53.35 31.73
  C 51.65 28.10 52.01 24.74 51.90 20.95
  C 51.64 12.71 44.89 5.51 36.42 4.28
  C 25.52 2.71 16.23 11.33 16.07 22.28
  C 16.03 25.10 16.25 27.78 15.25 30.48
  Q 14.40 32.76 13.11 34.86
  Z
  M 40.53 54.92
  L 30.25 54.98
  A 0.22 0.22 0.0 0 0 30.04 55.20
  L 30.04 55.33
  A 5.43 5.31 89.7 0 0 35.38 60.73
  L 35.48 60.73
  A 5.43 5.31 89.7 0 0 40.76 55.27
  L 40.76 55.14
  A 0.22 0.22 0.0 0 0 40.53 54.92
  Z"
/>
<path fill="#8093a4" d="
  M 0.31 24.08
  C 0.15 16.51 3.27 6.91 9.15 1.41
  A 1.52 1.52 0.0 0 1 10.40 1.01
  Q 11.46 1.16 11.72 1.68
  Q 12.18 2.59 11.54 3.38
  Q 4.14 12.48 3.66 23.92
  Q 3.59 25.55 1.97 25.44
  L 1.59 25.42
  A 1.38 1.37 -88.9 0 1 0.31 24.08
  Z"
/>
<path fill="#8093a4" d="
  M 66.05 24.17
  C 65.09 15.68 62.98 10.27 58.14 3.54
  A 1.61 1.61 0.0 0 1 58.36 1.40
  Q 59.24 0.61 60.41 1.53
  A 9.90 9.82 1.1 0 1 62.11 3.28
  Q 69.35 12.95 68.97 23.95
  A 1.74 1.73 80.1 0 1 67.89 25.50
  Q 67.29 25.74 66.44 24.94
  A 1.22 1.21 -72.1 0 1 66.05 24.17
  Z"
/>
</svg>
