<?xml version="1.0" encoding="UTF-8" standalone="no"?>
<!DOCTYPE svg PUBLIC "-//W3C//DTD SVG 1.1//EN" "http://www.w3.org/Graphics/SVG/1.1/DTD/svg11.dtd">
<svg xmlns="http://www.w3.org/2000/svg" version="1.1" viewBox="0.00 0.00 66.00 66.00">
<g stroke-width="2.00" fill="none" stroke-linecap="butt">
<path stroke="#eb88a4" vector-effect="non-scaling-stroke" d="
  M 48.12 23.38
  A 15.11 15.11 0.0 0 0 33.01 8.27
  A 15.11 15.11 0.0 0 0 17.90 23.38
  A 15.11 15.11 0.0 0 0 33.01 38.49
  A 15.11 15.11 0.0 0 0 48.12 23.38"
/>
<path stroke="#6c366e" vector-effect="non-scaling-stroke" d="
  M 12.55 51.34
  C 11.88 52.74 11.62 54.41 12.96 55.52
  C 24.93 65.34 40.43 65.55 52.53 55.87
  C 56.96 52.32 49.50 45.41 46.57 43.91
  Q 34.15 37.53 21.01 43.09
  Q 15.32 45.50 12.55 51.34"
/>
<path stroke="#7facc9" vector-effect="non-scaling-stroke" d="
  M 28.45 18.83
  A 1.51 1.51 0.0 0 0 26.94 17.32
  A 1.51 1.51 0.0 0 0 25.43 18.83
  A 1.51 1.51 0.0 0 0 26.94 20.34
  A 1.51 1.51 0.0 0 0 28.45 18.83"
/>
<path stroke="#7facc9" vector-effect="non-scaling-stroke" d="
  M 40.56 18.84
  A 1.52 1.52 0.0 0 0 39.04 17.32
  A 1.52 1.52 0.0 0 0 37.52 18.84
  A 1.52 1.52 0.0 0 0 39.04 20.36
  A 1.52 1.52 0.0 0 0 40.56 18.84"
/>
<path stroke="#7facc9" vector-effect="non-scaling-stroke" d="
  M 31.47 29.16
  Q 29.39 28.55 28.51 26.17
  Q 27.98 24.75 26.49 25.00
  Q 26.25 25.04 26.07 25.19
  Q 25.29 25.83 25.58 26.81
  C 27.47 33.27 35.22 34.27 39.34 29.15
  Q 40.24 28.03 40.48 26.61
  C 40.69 25.38 39.47 24.62 38.38 25.08
  Q 37.93 25.26 37.75 25.71
  Q 35.80 30.43 31.47 29.16"
/>
</g>
<path fill="#d71249" d="
  M 27.62 0.00
  L 38.43 0.00
  Q 61.12 5.57 66.00 28.08
  L 66.00 38.00
  Q 60.92 60.78 38.11 66.00
  L 27.73 66.00
  Q 5.36 60.94 0.00 38.33
  L 0.00 27.52
  Q 5.36 5.29 27.62 0.00
  Z
  M 48.12 23.38
  A 15.11 15.11 0.0 0 0 33.01 8.27
  A 15.11 15.11 0.0 0 0 17.90 23.38
  A 15.11 15.11 0.0 0 0 33.01 38.49
  A 15.11 15.11 0.0 0 0 48.12 23.38
  Z
  M 12.55 51.34
  C 11.88 52.74 11.62 54.41 12.96 55.52
  C 24.93 65.34 40.43 65.55 52.53 55.87
  C 56.96 52.32 49.50 45.41 46.57 43.91
  Q 34.15 37.53 21.01 43.09
  Q 15.32 45.50 12.55 51.34
  Z"
/>
<path fill="#fefefe" d="
  M 48.12 23.38
  A 15.11 15.11 0.0 0 1 33.01 38.49
  A 15.11 15.11 0.0 0 1 17.90 23.38
  A 15.11 15.11 0.0 0 1 33.01 8.27
  A 15.11 15.11 0.0 0 1 48.12 23.38
  Z
  M 28.45 18.83
  A 1.51 1.51 0.0 0 0 26.94 17.32
  A 1.51 1.51 0.0 0 0 25.43 18.83
  A 1.51 1.51 0.0 0 0 26.94 20.34
  A 1.51 1.51 0.0 0 0 28.45 18.83
  Z
  M 40.56 18.84
  A 1.52 1.52 0.0 0 0 39.04 17.32
  A 1.52 1.52 0.0 0 0 37.52 18.84
  A 1.52 1.52 0.0 0 0 39.04 20.36
  A 1.52 1.52 0.0 0 0 40.56 18.84
  Z
  M 31.47 29.16
  Q 29.39 28.55 28.51 26.17
  Q 27.98 24.75 26.49 25.00
  Q 26.25 25.04 26.07 25.19
  Q 25.29 25.83 25.58 26.81
  C 27.47 33.27 35.22 34.27 39.34 29.15
  Q 40.24 28.03 40.48 26.61
  C 40.69 25.38 39.47 24.62 38.38 25.08
  Q 37.93 25.26 37.75 25.71
  Q 35.80 30.43 31.47 29.16
  Z"
/>
<circle fill="#005993" cx="26.94" cy="18.83" r="1.51"/>
<circle fill="#005993" cx="39.04" cy="18.84" r="1.52"/>
<path fill="#005993" d="
  M 31.47 29.16
  Q 35.80 30.43 37.75 25.71
  Q 37.93 25.26 38.38 25.08
  C 39.47 24.62 40.69 25.38 40.48 26.61
  Q 40.24 28.03 39.34 29.15
  C 35.22 34.27 27.47 33.27 25.58 26.81
  Q 25.29 25.83 26.07 25.19
  Q 26.25 25.04 26.49 25.00
  Q 27.98 24.75 28.51 26.17
  Q 29.39 28.55 31.47 29.16
  Z"
/>
<path fill="#005993" d="
  M 12.55 51.34
  Q 15.32 45.50 21.01 43.09
  Q 34.15 37.53 46.57 43.91
  C 49.50 45.41 56.96 52.32 52.53 55.87
  C 40.43 65.55 24.93 65.34 12.96 55.52
  C 11.62 54.41 11.88 52.74 12.55 51.34
  Z"
/>
</svg>
