<?xml version="1.0" encoding="UTF-8" standalone="no"?>
<!DOCTYPE svg PUBLIC "-//W3C//DTD SVG 1.1//EN" "http://www.w3.org/Graphics/SVG/1.1/DTD/svg11.dtd">
<svg xmlns="http://www.w3.org/2000/svg" version="1.1" viewBox="0.00 0.00 70.00 64.00">
<g stroke-width="2.00" fill="none" stroke-linecap="butt">
<path stroke="#c1cad1" vector-effect="non-scaling-stroke" d="
  M 9.33 4.51
  L 3.95 23.50
  A 0.42 0.41 13.1 0 0 4.28 24.02
  Q 12.26 25.40 18.35 22.04
  C 19.48 21.41 19.88 20.34 19.91 19.10
  Q 20.10 11.96 21.06 4.97
  Q 21.19 4.00 20.21 4.00
  L 10.01 4.00
  A 0.71 0.69 7.5 0 0 9.33 4.51"
/>
<path stroke="#c1cad1" vector-effect="non-scaling-stroke" d="
  M 44.29 22.38
  Q 45.11 21.98 45.73 21.31
  Q 46.09 20.93 46.05 20.40
  L 44.76 4.72
  A 0.80 0.79 87.6 0 0 43.97 3.99
  L 25.26 4.01
  A 0.30 0.30 0.0 0 0 24.96 4.28
  L 23.57 20.83
  Q 23.54 21.29 23.92 21.53
  Q 33.82 27.66 44.29 22.38"
/>
<path stroke="#c1cad1" vector-effect="non-scaling-stroke" d="
  M 65.70 23.51
  L 60.32 4.77
  A 1.07 1.07 0.0 0 0 59.29 3.99
  L 49.18 4.00
  Q 48.59 4.00 48.64 4.58
  L 50.03 20.84
  A 0.98 0.98 0.0 0 0 50.50 21.60
  Q 57.17 25.60 65.42 23.97
  Q 65.80 23.89 65.70 23.51"
/>
<path stroke="#c1cad1" vector-effect="non-scaling-stroke" d="
  M 50.97 25.83
  Q 49.75 25.15 48.51 24.58
  Q 48.01 24.36 47.54 24.64
  Q 34.77 32.29 21.96 24.58
  A 1.00 0.98 -45.6 0 0 20.92 24.60
  Q 14.58 28.65 7.20 27.93
  A 0.53 0.52 3.0 0 0 6.62 28.45
  Q 6.73 41.63 6.63 55.34
  C 6.61 58.50 8.83 60.43 11.98 60.44
  Q 17.45 60.45 21.81 60.43
  Q 22.42 60.43 22.43 59.82
  Q 22.57 52.22 22.42 43.44
  Q 22.37 40.12 23.67 37.91
  C 26.48 33.14 31.19 33.72 35.98 33.67
  C 42.04 33.60 46.13 36.78 46.05 43.10
  Q 45.95 51.50 46.08 59.92
  A 0.50 0.50 0.0 0 0 46.58 60.41
  L 57.93 60.40
  A 5.08 5.08 0.0 0 0 63.00 55.32
  L 63.01 28.77
  Q 63.01 27.86 62.10 27.93
  Q 55.62 28.41 50.97 25.83"
/>
<path stroke="#c1cad1" vector-effect="non-scaling-stroke" d="
  M 26.60 60.42
  L 41.86 60.44
  A 0.63 0.63 0.0 0 0 42.49 59.81
  L 42.52 42.77
  A 5.49 5.33 -89.9 0 0 37.20 37.28
  L 31.34 37.26
  A 5.49 5.33 -89.9 0 0 26.00 42.75
  L 25.97 59.79
  A 0.63 0.63 0.0 0 0 26.60 60.42"
/>
</g>
<path fill="#8294a2" d="
  M 59.40 64.00
  L 10.01 64.00
  Q 5.86 62.73 4.09 59.36
  Q 2.93 57.14 2.95 54.20
  Q 3.05 40.70 2.98 28.39
  Q 2.98 27.84 2.49 27.56
  L 1.77 27.16
  Q 1.33 26.92 1.42 26.42
  Q 1.48 26.10 1.13 26.15
  Q 0.88 26.19 0.78 25.96
  Q -0.02 24.25 0.52 22.28
  Q 3.70 10.86 5.96 3.63
  Q 6.97 0.36 10.60 0.36
  Q 36.70 0.31 58.75 0.35
  Q 62.84 0.36 64.04 4.49
  Q 67.02 14.70 69.26 23.17
  C 69.52 24.13 69.04 25.32 68.38 26.06
  Q 66.79 27.87 66.76 30.27
  Q 66.63 40.40 66.80 52.07
  C 66.88 57.90 65.45 62.51 59.40 64.00
  Z
  M 9.33 4.51
  L 3.95 23.50
  A 0.42 0.41 13.1 0 0 4.28 24.02
  Q 12.26 25.40 18.35 22.04
  C 19.48 21.41 19.88 20.34 19.91 19.10
  Q 20.10 11.96 21.06 4.97
  Q 21.19 4.00 20.21 4.00
  L 10.01 4.00
  A 0.71 0.69 7.5 0 0 9.33 4.51
  Z
  M 44.29 22.38
  Q 45.11 21.98 45.73 21.31
  Q 46.09 20.93 46.05 20.40
  L 44.76 4.72
  A 0.80 0.79 87.6 0 0 43.97 3.99
  L 25.26 4.01
  A 0.30 0.30 0.0 0 0 24.96 4.28
  L 23.57 20.83
  Q 23.54 21.29 23.92 21.53
  Q 33.82 27.66 44.29 22.38
  Z
  M 65.70 23.51
  L 60.32 4.77
  A 1.07 1.07 0.0 0 0 59.29 3.99
  L 49.18 4.00
  Q 48.59 4.00 48.64 4.58
  L 50.03 20.84
  A 0.98 0.98 0.0 0 0 50.50 21.60
  Q 57.17 25.60 65.42 23.97
  Q 65.80 23.89 65.70 23.51
  Z
  M 50.97 25.83
  Q 49.75 25.15 48.51 24.58
  Q 48.01 24.36 47.54 24.64
  Q 34.77 32.29 21.96 24.58
  A 1.00 0.98 -45.6 0 0 20.92 24.60
  Q 14.58 28.65 7.20 27.93
  A 0.53 0.52 3.0 0 0 6.62 28.45
  Q 6.73 41.63 6.63 55.34
  C 6.61 58.50 8.83 60.43 11.98 60.44
  Q 17.45 60.45 21.81 60.43
  Q 22.42 60.43 22.43 59.82
  Q 22.57 52.22 22.42 43.44
  Q 22.37 40.12 23.67 37.91
  C 26.48 33.14 31.19 33.72 35.98 33.67
  C 42.04 33.60 46.13 36.78 46.05 43.10
  Q 45.95 51.50 46.08 59.92
  A 0.50 0.50 0.0 0 0 46.58 60.41
  L 57.93 60.40
  A 5.08 5.08 0.0 0 0 63.00 55.32
  L 63.01 28.77
  Q 63.01 27.86 62.10 27.93
  Q 55.62 28.41 50.97 25.83
  Z
  M 26.60 60.42
  L 41.86 60.44
  A 0.63 0.63 0.0 0 0 42.49 59.81
  L 42.52 42.77
  A 5.49 5.33 -89.9 0 0 37.20 37.28
  L 31.34 37.26
  A 5.49 5.33 -89.9 0 0 26.00 42.75
  L 25.97 59.79
  A 0.63 0.63 0.0 0 0 26.60 60.42
  Z"
/>
<path fill="#ffffff" d="
  M 9.33 4.51
  A 0.71 0.69 7.5 0 1 10.01 4.00
  L 20.21 4.00
  Q 21.19 4.00 21.06 4.97
  Q 20.10 11.96 19.91 19.10
  C 19.88 20.34 19.48 21.41 18.35 22.04
  Q 12.26 25.40 4.28 24.02
  A 0.42 0.41 13.1 0 1 3.95 23.50
  L 9.33 4.51
  Z"
/>
<path fill="#ffffff" d="
  M 44.29 22.38
  Q 33.82 27.66 23.92 21.53
  Q 23.54 21.29 23.57 20.83
  L 24.96 4.28
  A 0.30 0.30 0.0 0 1 25.26 4.01
  L 43.97 3.99
  A 0.80 0.79 87.6 0 1 44.76 4.72
  L 46.05 20.40
  Q 46.09 20.93 45.73 21.31
  Q 45.11 21.98 44.29 22.38
  Z"
/>
<path fill="#ffffff" d="
  M 65.70 23.51
  Q 65.80 23.89 65.42 23.97
  Q 57.17 25.60 50.50 21.60
  A 0.98 0.98 0.0 0 1 50.03 20.84
  L 48.64 4.58
  Q 48.59 4.00 49.18 4.00
  L 59.29 3.99
  A 1.07 1.07 0.0 0 1 60.32 4.77
  L 65.70 23.51
  Z"
/>
<path fill="#ffffff" d="
  M 50.97 25.83
  Q 55.62 28.41 62.10 27.93
  Q 63.01 27.86 63.01 28.77
  L 63.00 55.32
  A 5.08 5.08 0.0 0 1 57.93 60.40
  L 46.58 60.41
  A 0.50 0.50 0.0 0 1 46.08 59.92
  Q 45.95 51.50 46.05 43.10
  C 46.13 36.78 42.04 33.60 35.98 33.67
  C 31.19 33.72 26.48 33.14 23.67 37.91
  Q 22.37 40.12 22.42 43.44
  Q 22.57 52.22 22.43 59.82
  Q 22.42 60.43 21.81 60.43
  Q 17.45 60.45 11.98 60.44
  C 8.83 60.43 6.61 58.50 6.63 55.34
  Q 6.73 41.63 6.62 28.45
  A 0.53 0.52 3.0 0 1 7.20 27.93
  Q 14.58 28.65 20.92 24.60
  A 1.00 0.98 -45.6 0 1 21.96 24.58
  Q 34.77 32.29 47.54 24.64
  Q 48.01 24.36 48.51 24.58
  Q 49.75 25.15 50.97 25.83
  Z"
/>
<path fill="#ffffff" d="
  M 26.60 60.42
  A 0.63 0.63 0.0 0 1 25.97 59.79
  L 26.00 42.75
  A 5.49 5.33 -89.9 0 1 31.34 37.26
  L 37.20 37.28
  A 5.49 5.33 -89.9 0 1 42.52 42.77
  L 42.49 59.81
  A 0.63 0.63 0.0 0 1 41.86 60.44
  L 26.60 60.42
  Z"
/>
</svg>
