<?xml version="1.0" encoding="UTF-8" standalone="no"?>
<!DOCTYPE svg PUBLIC "-//W3C//DTD SVG 1.1//EN" "http://www.w3.org/Graphics/SVG/1.1/DTD/svg11.dtd">
<svg xmlns="http://www.w3.org/2000/svg" version="1.1" viewBox="0.00 0.00 69.00 65.00">
<path stroke="#6c356d" stroke-width="2.00" fill="none" stroke-linecap="butt" vector-effect="non-scaling-stroke" d="
  M 44.71 54.79
  L 25.45 54.82"
/>
<path fill="#005993" d="
  M 44.71 54.79
  L 25.45 54.82
  Q 20.42 54.61 15.25 54.50
  Q 8.06 54.35 6.20 47.92
  C 4.78 43.01 7.92 36.58 10.46 32.21
  Q 12.87 28.04 12.74 22.99
  C 12.43 11.23 20.61 1.44 32.62 0.84
  Q 41.85 0.37 48.08 6.01
  C 52.64 10.13 55.43 16.18 55.03 22.35
  Q 54.78 26.17 55.91 28.91
  Q 57.51 32.78 59.70 37.37
  Q 62.15 42.48 61.96 45.84
  Q 61.61 52.42 55.29 54.19
  C 52.11 55.08 48.23 54.58 44.71 54.79
  Z"
/>
<path fill="#d81046" d="
  M 0.29 23.90
  C 0.29 16.24 3.20 7.11 8.86 1.68
  Q 9.91 0.67 11.18 1.40
  Q 11.90 1.82 11.43 3.37
  A 1.88 1.88 0.0 0 1 11.08 4.02
  Q 4.21 12.51 3.67 23.90
  Q 3.59 25.56 1.94 25.38
  L 1.57 25.34
  Q 0.29 25.19 0.29 23.90
  Z"
/>
<path fill="#d81046" d="
  M 69.00 21.92
  L 69.00 23.77
  L 68.37 24.85
  Q 68.12 25.29 67.61 25.33
  C 66.30 25.44 65.37 24.44 65.35 23.17
  Q 65.17 13.03 57.75 3.45
  A 1.42 1.42 0.0 0 1 58.35 1.26
  Q 59.34 0.87 60.42 1.83
  C 65.57 6.42 68.35 15.22 69.00 21.92
  Z"
/>
<path fill="#d81046" d="
  M 44.71 54.79
  Q 43.78 57.12 42.67 59.23
  Q 39.88 64.54 34.75 64.11
  C 28.95 63.61 27.37 59.71 25.45 54.82
  L 44.71 54.79
  Z"
/>
</svg>
