<?xml version="1.0" encoding="UTF-8" standalone="no"?>
<!DOCTYPE svg PUBLIC "-//W3C//DTD SVG 1.1//EN" "http://www.w3.org/Graphics/SVG/1.1/DTD/svg11.dtd">
<svg xmlns="http://www.w3.org/2000/svg" version="1.1" viewBox="0.00 0.00 74.00 67.00">
<g stroke-width="2.00" fill="none" stroke-linecap="butt">
<path stroke="#6c366e" vector-effect="non-scaling-stroke" d="
  M 64.05 42.69
  Q 61.44 43.71 58.83 41.42
  Q 48.52 32.36 38.35 23.52
  A 1.98 1.98 0.0 0 0 35.76 23.52
  Q 24.90 33.01 14.04 42.31
  Q 12.72 43.44 10.00 42.97"
/>
<path stroke="#eb89a4" vector-effect="non-scaling-stroke" d="
  M 42.53 64.18
  Q 42.55 63.95 42.69 63.69
  Q 43.00 63.12 43.00 62.48
  L 43.00 40.08
  A 0.65 0.65 0.0 0 0 42.35 39.43
  L 31.71 39.45
  Q 31.10 39.45 31.11 40.06
  Q 31.14 51.50 31.14 62.75
  Q 31.14 62.99 31.27 63.21
  Q 31.46 63.57 31.68 63.48"
/>
</g>
<path fill="#005993" d="
  M 64.05 42.69
  Q 61.44 43.71 58.83 41.42
  Q 48.52 32.36 38.35 23.52
  A 1.98 1.98 0.0 0 0 35.76 23.52
  Q 24.90 33.01 14.04 42.31
  Q 12.72 43.44 10.00 42.97
  Q 6.48 39.32 2.37 35.60
  Q -1.38 32.21 2.59 28.84
  Q 18.31 15.55 34.12 2.36
  Q 37.12 -0.15 40.04 2.30
  Q 53.66 13.77 67.54 25.31
  Q 70.01 27.37 72.41 29.85
  Q 74.72 32.24 72.41 34.72
  Q 68.54 38.89 64.05 42.69
  Z"
/>
<path fill="#d71249" d="
  M 64.05 42.69
  L 64.05 63.66
  Q 64.05 66.08 61.63 66.09
  Q 53.82 66.11 45.66 66.21
  C 44.24 66.22 43.30 65.30 42.53 64.18
  Q 42.55 63.95 42.69 63.69
  Q 43.00 63.12 43.00 62.48
  L 43.00 40.08
  A 0.65 0.65 0.0 0 0 42.35 39.43
  L 31.71 39.45
  Q 31.10 39.45 31.11 40.06
  Q 31.14 51.50 31.14 62.75
  Q 31.14 62.99 31.27 63.21
  Q 31.46 63.57 31.68 63.48
  C 31.15 65.14 30.27 65.99 28.40 66.04
  Q 20.19 66.27 11.98 66.02
  Q 9.98 65.96 9.98 63.96
  L 10.00 42.97
  Q 12.72 43.44 14.04 42.31
  Q 24.90 33.01 35.76 23.52
  A 1.98 1.98 0.0 0 1 38.35 23.52
  Q 48.52 32.36 58.83 41.42
  Q 61.44 43.71 64.05 42.69
  Z"
/>
<path fill="#ffffff" d="
  M 42.53 64.18
  L 42.11 63.90
  Q 41.68 63.62 41.18 63.69
  Q 36.74 64.24 32.81 62.84
  Q 32.29 62.66 31.97 63.10
  L 31.68 63.48
  Q 31.46 63.57 31.27 63.21
  Q 31.14 62.99 31.14 62.75
  Q 31.14 51.50 31.11 40.06
  Q 31.10 39.45 31.71 39.45
  L 42.35 39.43
  A 0.65 0.65 0.0 0 1 43.00 40.08
  L 43.00 62.48
  Q 43.00 63.12 42.69 63.69
  Q 42.55 63.95 42.53 64.18
  Z"
/>
</svg>
