<?xml version="1.0" encoding="UTF-8" standalone="no"?>
<!DOCTYPE svg PUBLIC "-//W3C//DTD SVG 1.1//EN" "http://www.w3.org/Graphics/SVG/1.1/DTD/svg11.dtd">
<svg xmlns="http://www.w3.org/2000/svg" version="1.1" viewBox="0.00 0.00 579.00 225.00">
<g stroke-width="2.00" fill="none" stroke-linecap="butt">
<path stroke="#46abdc" vector-effect="non-scaling-stroke" d="
  M 204.09 47.31
  Q 203.96 48.09 205.08 48.85"
/>
<path stroke="#46abdc" vector-effect="non-scaling-stroke" d="
  M 205.06 177.02
  L 203.87 178.94"
/>
<path stroke="#6399b5" vector-effect="non-scaling-stroke" d="
  M 217.80 113.00
  A 104.80 104.80 0.0 0 0 113.00 8.20
  A 104.80 104.80 0.0 0 0 8.20 113.00
  A 104.80 104.80 0.0 0 0 113.00 217.80
  A 104.80 104.80 0.0 0 0 217.80 113.00"
/>
<path stroke="#81919f" vector-effect="non-scaling-stroke" d="
  M 156.70 146.11
  C 170.96 126.81 170.31 99.57 155.26 80.93
  C 140.40 62.53 116.37 55.81 94.21 63.88
  C 75.78 70.59 62.40 87.37 59.63 106.57
  Q 56.52 128.13 69.39 146.32
  C 70.43 147.79 70.58 148.93 71.11 150.57
  Q 72.25 154.03 75.60 155.51
  Q 90.25 161.94 104.16 164.60
  C 118.04 167.25 132.07 162.79 145.84 157.46
  C 150.25 155.75 154.12 154.55 155.30 149.20
  Q 155.67 147.50 156.70 146.11"
/>
<path stroke="#81919f" vector-effect="non-scaling-stroke" d="
  M 70.53 117.97
  Q 70.62 118.07 70.72 118.17
  Q 71.11 118.57 71.52 118.18
  Q 73.26 116.52 75.50 116.07
  Q 90.25 113.16 105.42 111.84
  Q 112.94 111.19 120.33 111.81
  Q 133.97 112.96 149.66 115.87
  Q 152.43 116.38 154.46 118.07
  Q 154.83 118.38 155.24 118.13
  Q 159.18 115.80 163.34 113.98
  A 1.07 1.07 0.0 0 0 163.98 112.97
  C 163.40 92.92 151.02 75.32 132.97 67.60
  C 111.68 58.50 87.46 64.91 73.09 82.82
  Q 62.91 95.50 61.96 112.94
  A 0.98 0.98 0.0 0 0 62.52 113.87
  Q 66.19 115.64 70.18 117.70
  Q 70.38 117.80 70.53 117.97"
/>
<path stroke="#81919f" vector-effect="non-scaling-stroke" d="
  M 80.97 154.52
  Q 93.86 159.68 105.65 161.85
  C 111.21 162.87 116.75 162.63 122.26 161.49
  Q 135.19 158.83 148.73 152.97
  Q 152.04 151.53 152.30 148.75
  Q 153.25 138.58 154.00 129.29
  C 154.35 124.89 154.91 120.47 150.57 119.22
  Q 145.13 117.66 125.77 115.34
  C 109.35 113.36 94.52 115.56 76.76 118.84
  C 73.47 119.45 71.41 121.92 71.68 125.35
  Q 72.60 136.70 73.49 147.13
  C 73.93 152.31 76.90 152.89 80.97 154.52"
/>
<path stroke="#81919f" vector-effect="non-scaling-stroke" d="
  M 69.49 120.78
  Q 69.54 120.66 69.42 120.60
  L 62.50 117.17
  A 0.27 0.26 -79.0 0 0 62.12 117.43
  Q 62.88 130.23 69.68 141.42
  Q 69.95 141.87 69.91 141.35
  Q 69.41 133.73 68.68 126.26
  Q 68.43 123.65 69.49 120.78"
/>
<path stroke="#81919f" vector-effect="non-scaling-stroke" d="
  M 156.65 140.90
  C 160.86 133.76 163.32 125.94 163.91 117.66
  Q 163.97 116.95 163.32 117.27
  L 156.85 120.48
  Q 156.41 120.71 156.60 121.17
  Q 157.60 123.55 157.30 126.46
  Q 156.58 133.34 156.16 140.75
  Q 156.09 141.85 156.65 140.90"
/>
<path stroke="#81919f" vector-effect="non-scaling-stroke" d="
  M 100.06 100.51
  L 100.44 100.34
  Q 101.81 99.72 101.23 98.33
  C 98.34 91.39 90.07 92.03 87.54 99.20
  A 1.40 1.40 0.0 0 0 87.63 100.34
  Q 88.14 101.31 89.06 101.28
  Q 89.96 101.25 90.27 100.40
  Q 92.32 94.70 96.80 97.30
  Q 98.02 98.00 98.67 99.91
  Q 99.03 100.98 100.06 100.51"
/>
<path stroke="#81919f" vector-effect="non-scaling-stroke" d="
  M 127.21 97.02
  C 130.36 95.53 132.44 97.50 133.42 100.31
  Q 133.78 101.36 134.89 101.28
  Q 135.59 101.22 136.07 100.56
  A 1.25 1.25 0.0 0 0 136.25 99.45
  C 133.96 92.40 126.31 91.19 122.61 97.88
  A 1.57 1.55 55.1 0 0 122.43 98.93
  Q 122.70 100.33 123.61 100.49
  Q 124.39 100.63 124.86 100.00
  C 125.64 98.94 125.91 97.63 127.21 97.02"
/>
<path stroke="#81919f" vector-effect="non-scaling-stroke" d="
  M 113.63 128.84
  Q 126.49 128.88 144.60 131.73
  A 0.46 0.45 6.3 0 0 145.13 131.31
  L 145.15 130.93
  Q 145.18 130.50 144.76 130.43
  Q 125.32 127.05 109.65 127.42
  Q 99.41 127.67 81.17 130.35
  A 0.39 0.38 86.4 0 0 80.85 130.72
  L 80.85 131.12
  Q 80.84 131.84 81.55 131.73
  Q 99.19 128.78 113.63 128.84"
/>
<path stroke="#81919f" vector-effect="non-scaling-stroke" d="
  M 106.51 147.79
  Q 111.41 148.37 115.51 148.09
  Q 128.10 147.24 141.71 143.62
  Q 142.17 143.50 142.15 143.02
  L 142.13 142.70
  A 0.42 0.42 0.0 0 0 141.61 142.31
  C 131.87 144.64 120.39 147.24 110.87 146.73
  Q 99.58 146.11 84.71 142.37
  A 0.66 0.66 0.0 0 0 83.92 142.81
  L 83.85 143.06
  Q 83.73 143.44 84.12 143.55
  Q 94.70 146.40 106.51 147.79"
/>
</g>
<path fill="#7cd0f4" d="
  M 204.09 47.31
  Q 203.96 48.09 205.08 48.85
  Q 204.96 51.79 206.73 52.86
  Q 207.24 53.17 207.27 53.77
  Q 207.32 54.73 208.17 55.36
  Q 208.71 55.75 209.02 56.35
  Q 210.89 60.02 212.76 63.83
  Q 220.71 79.93 222.63 98.31
  Q 222.68 98.80 222.92 99.22
  Q 223.12 99.58 223.14 100.02
  Q 223.44 108.85 223.42 117.07
  Q 223.40 124.84 221.91 133.58
  Q 218.68 152.49 209.10 169.37
  Q 208.53 170.37 207.75 171.03
  Q 207.23 171.47 207.27 172.13
  Q 207.32 172.81 206.72 173.14
  Q 204.99 174.12 205.06 177.02
  L 203.87 178.94
  Q 195.49 190.07 186.67 197.67
  Q 161.14 219.66 127.01 223.47
  Q 118.84 224.39 106.11 223.90
  Q 67.28 222.40 38.53 196.85
  Q 7.50 169.27 2.62 127.90
  Q 1.47 118.12 2.16 103.90
  C 4.06 64.79 27.82 30.29 62.42 12.98
  Q 82.14 3.11 107.36 1.99
  Q 163.02 -0.48 199.00 41.00
  Q 201.26 43.61 204.09 47.31
  Z
  M 217.80 113.00
  A 104.80 104.80 0.0 0 0 113.00 8.20
  A 104.80 104.80 0.0 0 0 8.20 113.00
  A 104.80 104.80 0.0 0 0 113.00 217.80
  A 104.80 104.80 0.0 0 0 217.80 113.00
  Z"
/>
<path fill="#4a6275" d="
  M 217.80 113.00
  A 104.80 104.80 0.0 0 1 113.00 217.80
  A 104.80 104.80 0.0 0 1 8.20 113.00
  A 104.80 104.80 0.0 0 1 113.00 8.20
  A 104.80 104.80 0.0 0 1 217.80 113.00
  Z
  M 156.70 146.11
  C 170.96 126.81 170.31 99.57 155.26 80.93
  C 140.40 62.53 116.37 55.81 94.21 63.88
  C 75.78 70.59 62.40 87.37 59.63 106.57
  Q 56.52 128.13 69.39 146.32
  C 70.43 147.79 70.58 148.93 71.11 150.57
  Q 72.25 154.03 75.60 155.51
  Q 90.25 161.94 104.16 164.60
  C 118.04 167.25 132.07 162.79 145.84 157.46
  C 150.25 155.75 154.12 154.55 155.30 149.20
  Q 155.67 147.50 156.70 146.11
  Z"
/>
<path fill="#1085c3" d="
  M 204.09 47.31
  Q 217.53 47.24 231.20 47.25
  Q 234.41 47.25 238.27 47.56
  C 241.61 47.82 244.87 47.22 248.24 47.22
  Q 268.38 47.22 289.00 47.14
  C 358.96 46.86 429.04 47.00 499.25 46.99
  Q 513.86 46.98 519.05 47.83
  Q 545.10 52.07 561.02 72.33
  Q 563.83 75.91 566.74 80.39
  C 572.93 89.93 574.43 100.63 575.91 111.59
  Q 576.18 113.58 575.94 115.49
  Q 573.78 132.61 566.85 145.98
  Q 565.46 148.66 560.42 155.06
  C 550.75 167.32 535.18 175.45 520.24 178.08
  Q 514.89 179.02 500.25 179.02
  Q 351.87 179.04 203.87 178.94
  L 205.06 177.02
  L 516.10 176.79
  Q 516.51 176.79 516.82 176.51
  Q 516.96 176.40 517.09 176.28
  Q 517.43 176.00 517.87 175.96
  Q 519.74 175.82 521.74 175.81
  Q 522.25 175.80 522.67 175.54
  Q 524.10 174.64 525.99 174.77
  A 1.29 1.29 0.0 0 0 526.76 174.56
  Q 527.45 174.08 528.41 173.80
  Q 540.79 170.18 550.27 161.91
  C 558.55 154.69 565.50 145.70 568.94 135.30
  Q 571.58 127.34 572.64 119.99
  Q 573.09 116.89 572.71 106.28
  C 572.65 104.57 571.98 103.00 571.71 101.29
  Q 569.30 85.91 559.62 73.59
  C 557.79 71.26 555.93 68.68 553.72 66.72
  Q 545.72 59.58 538.24 55.83
  Q 535.59 54.51 532.62 53.42
  Q 529.93 52.43 527.46 51.39
  Q 526.92 51.16 526.34 51.23
  Q 524.77 51.41 523.84 50.49
  A 0.79 0.78 68.3 0 0 523.31 50.26
  L 518.74 50.05
  Q 518.42 50.04 518.20 49.81
  L 517.96 49.56
  Q 517.64 49.22 517.17 49.22
  L 205.08 48.85
  Q 203.96 48.09 204.09 47.31
  Z"
/>
<path fill="#b7bfc8" d="
  M 155.30 149.20
  C 154.12 154.55 150.25 155.75 145.84 157.46
  C 132.07 162.79 118.04 167.25 104.16 164.60
  Q 90.25 161.94 75.60 155.51
  Q 72.25 154.03 71.11 150.57
  C 70.58 148.93 70.43 147.79 69.39 146.32
  Q 56.52 128.13 59.63 106.57
  C 62.40 87.37 75.78 70.59 94.21 63.88
  C 116.37 55.81 140.40 62.53 155.26 80.93
  C 170.31 99.57 170.96 126.81 156.70 146.11
  Q 155.67 147.50 155.30 149.20
  Z
  M 70.53 117.97
  Q 70.62 118.07 70.72 118.17
  Q 71.11 118.57 71.52 118.18
  Q 73.26 116.52 75.50 116.07
  Q 90.25 113.16 105.42 111.84
  Q 112.94 111.19 120.33 111.81
  Q 133.97 112.96 149.66 115.87
  Q 152.43 116.38 154.46 118.07
  Q 154.83 118.38 155.24 118.13
  Q 159.18 115.80 163.34 113.98
  A 1.07 1.07 0.0 0 0 163.98 112.97
  C 163.40 92.92 151.02 75.32 132.97 67.60
  C 111.68 58.50 87.46 64.91 73.09 82.82
  Q 62.91 95.50 61.96 112.94
  A 0.98 0.98 0.0 0 0 62.52 113.87
  Q 66.19 115.64 70.18 117.70
  Q 70.38 117.80 70.53 117.97
  Z
  M 80.97 154.52
  Q 93.86 159.68 105.65 161.85
  C 111.21 162.87 116.75 162.63 122.26 161.49
  Q 135.19 158.83 148.73 152.97
  Q 152.04 151.53 152.30 148.75
  Q 153.25 138.58 154.00 129.29
  C 154.35 124.89 154.91 120.47 150.57 119.22
  Q 145.13 117.66 125.77 115.34
  C 109.35 113.36 94.52 115.56 76.76 118.84
  C 73.47 119.45 71.41 121.92 71.68 125.35
  Q 72.60 136.70 73.49 147.13
  C 73.93 152.31 76.90 152.89 80.97 154.52
  Z
  M 69.49 120.78
  Q 69.54 120.66 69.42 120.60
  L 62.50 117.17
  A 0.27 0.26 -79.0 0 0 62.12 117.43
  Q 62.88 130.23 69.68 141.42
  Q 69.95 141.87 69.91 141.35
  Q 69.41 133.73 68.68 126.26
  Q 68.43 123.65 69.49 120.78
  Z
  M 156.65 140.90
  C 160.86 133.76 163.32 125.94 163.91 117.66
  Q 163.97 116.95 163.32 117.27
  L 156.85 120.48
  Q 156.41 120.71 156.60 121.17
  Q 157.60 123.55 157.30 126.46
  Q 156.58 133.34 156.16 140.75
  Q 156.09 141.85 156.65 140.90
  Z"
/>
<path fill="#4a6275" d="
  M 70.18 117.70
  Q 66.19 115.64 62.52 113.87
  A 0.98 0.98 0.0 0 1 61.96 112.94
  Q 62.91 95.50 73.09 82.82
  C 87.46 64.91 111.68 58.50 132.97 67.60
  C 151.02 75.32 163.40 92.92 163.98 112.97
  A 1.07 1.07 0.0 0 1 163.34 113.98
  Q 159.18 115.80 155.24 118.13
  Q 154.83 118.38 154.46 118.07
  Q 152.43 116.38 149.66 115.87
  Q 133.97 112.96 120.33 111.81
  Q 112.94 111.19 105.42 111.84
  Q 90.25 113.16 75.50 116.07
  Q 73.26 116.52 71.52 118.18
  Q 71.11 118.57 70.72 118.17
  Q 70.62 118.07 70.53 117.97
  Q 70.38 117.80 70.18 117.70
  Z
  M 100.06 100.51
  L 100.44 100.34
  Q 101.81 99.72 101.23 98.33
  C 98.34 91.39 90.07 92.03 87.54 99.20
  A 1.40 1.40 0.0 0 0 87.63 100.34
  Q 88.14 101.31 89.06 101.28
  Q 89.96 101.25 90.27 100.40
  Q 92.32 94.70 96.80 97.30
  Q 98.02 98.00 98.67 99.91
  Q 99.03 100.98 100.06 100.51
  Z
  M 127.21 97.02
  C 130.36 95.53 132.44 97.50 133.42 100.31
  Q 133.78 101.36 134.89 101.28
  Q 135.59 101.22 136.07 100.56
  A 1.25 1.25 0.0 0 0 136.25 99.45
  C 133.96 92.40 126.31 91.19 122.61 97.88
  A 1.57 1.55 55.1 0 0 122.43 98.93
  Q 122.70 100.33 123.61 100.49
  Q 124.39 100.63 124.86 100.00
  C 125.64 98.94 125.91 97.63 127.21 97.02
  Z"
/>
<path fill="#fefefd" d="
  M 311.19 133.35
  Q 307.15 142.70 298.31 146.15
  C 288.17 150.11 276.65 146.40 270.93 137.32
  C 265.39 128.51 266.18 118.16 272.70 110.21
  Q 273.03 109.80 273.04 109.28
  Q 273.19 102.62 273.14 95.27
  Q 273.11 91.85 274.61 88.29
  C 279.11 77.67 292.87 75.06 301.13 82.43
  Q 306.73 87.43 306.83 95.45
  Q 306.92 101.98 306.86 108.67
  Q 306.85 109.62 307.41 110.32
  Q 315.20 120.16 311.64 132.10
  Q 311.46 132.74 311.19 133.35
  Z
  M 277.28 106.55
  C 285.24 101.24 294.91 101.14 302.77 106.56
  A 0.48 0.48 0.0 0 0 303.52 106.16
  Q 303.47 100.50 303.49 94.85
  Q 303.50 91.15 301.75 88.32
  Q 297.60 81.62 290.11 81.50
  Q 286.32 81.44 283.32 83.23
  Q 280.18 85.11 278.22 88.32
  Q 276.37 91.34 276.47 95.89
  Q 276.59 101.39 276.48 106.11
  A 0.52 0.52 0.0 0 0 277.28 106.55
  Z
  M 309.51 125.00
  A 19.52 19.52 0.0 0 0 289.99 105.48
  A 19.52 19.52 0.0 0 0 270.47 125.00
  A 19.52 19.52 0.0 0 0 289.99 144.52
  A 19.52 19.52 0.0 0 0 309.51 125.00
  Z"
/>
<path fill="#b7bfc8" d="
  M 98.67 99.91
  Q 98.02 98.00 96.80 97.30
  Q 92.32 94.70 90.27 100.40
  Q 89.96 101.25 89.06 101.28
  Q 88.14 101.31 87.63 100.34
  A 1.40 1.40 0.0 0 1 87.54 99.20
  C 90.07 92.03 98.34 91.39 101.23 98.33
  Q 101.81 99.72 100.44 100.34
  L 100.06 100.51
  Q 99.03 100.98 98.67 99.91
  Z"
/>
<path fill="#b7bfc8" d="
  M 127.21 97.02
  C 125.91 97.63 125.64 98.94 124.86 100.00
  Q 124.39 100.63 123.61 100.49
  Q 122.70 100.33 122.43 98.93
  A 1.57 1.55 55.1 0 1 122.61 97.88
  C 126.31 91.19 133.96 92.40 136.25 99.45
  A 1.25 1.25 0.0 0 1 136.07 100.56
  Q 135.59 101.22 134.89 101.28
  Q 133.78 101.36 133.42 100.31
  C 132.44 97.50 130.36 95.53 127.21 97.02
  Z"
/>
<path fill="#4a6275" d="
  M 80.97 154.52
  C 76.90 152.89 73.93 152.31 73.49 147.13
  Q 72.60 136.70 71.68 125.35
  C 71.41 121.92 73.47 119.45 76.76 118.84
  C 94.52 115.56 109.35 113.36 125.77 115.34
  Q 145.13 117.66 150.57 119.22
  C 154.91 120.47 154.35 124.89 154.00 129.29
  Q 153.25 138.58 152.30 148.75
  Q 152.04 151.53 148.73 152.97
  Q 135.19 158.83 122.26 161.49
  C 116.75 162.63 111.21 162.87 105.65 161.85
  Q 93.86 159.68 80.97 154.52
  Z
  M 113.63 128.84
  Q 126.49 128.88 144.60 131.73
  A 0.46 0.45 6.3 0 0 145.13 131.31
  L 145.15 130.93
  Q 145.18 130.50 144.76 130.43
  Q 125.32 127.05 109.65 127.42
  Q 99.41 127.67 81.17 130.35
  A 0.39 0.38 86.4 0 0 80.85 130.72
  L 80.85 131.12
  Q 80.84 131.84 81.55 131.73
  Q 99.19 128.78 113.63 128.84
  Z
  M 106.51 147.79
  Q 111.41 148.37 115.51 148.09
  Q 128.10 147.24 141.71 143.62
  Q 142.17 143.50 142.15 143.02
  L 142.13 142.70
  A 0.42 0.42 0.0 0 0 141.61 142.31
  C 131.87 144.64 120.39 147.24 110.87 146.73
  Q 99.58 146.11 84.71 142.37
  A 0.66 0.66 0.0 0 0 83.92 142.81
  L 83.85 143.06
  Q 83.73 143.44 84.12 143.55
  Q 94.70 146.40 106.51 147.79
  Z"
/>
<path fill="#fefefd" d="
  M 287.79 129.09
  C 283.81 127.69 281.31 123.29 283.11 119.20
  C 285.99 112.64 295.32 113.12 297.23 120.26
  Q 298.27 124.14 295.10 127.38
  C 294.19 128.32 293.06 128.63 291.95 129.22
  Q 291.47 129.48 291.49 130.02
  Q 291.56 132.53 291.34 134.63
  A 1.06 1.05 -81.0 0 1 290.07 135.56
  C 287.86 135.10 288.57 131.48 288.42 129.89
  Q 288.36 129.29 287.79 129.09
  Z
  M 294.56 121.98
  A 4.56 4.56 0.0 0 0 290.00 117.42
  A 4.56 4.56 0.0 0 0 285.44 121.98
  A 4.56 4.56 0.0 0 0 290.00 126.54
  A 4.56 4.56 0.0 0 0 294.56 121.98
  Z"
/>
<path fill="#4a6275" d="
  M 69.49 120.78
  Q 68.43 123.65 68.68 126.26
  Q 69.41 133.73 69.91 141.35
  Q 69.95 141.87 69.68 141.42
  Q 62.88 130.23 62.12 117.43
  A 0.27 0.26 -79.0 0 1 62.50 117.17
  L 69.42 120.60
  Q 69.54 120.66 69.49 120.78
  Z"
/>
<path fill="#4a6275" d="
  M 163.91 117.66
  C 163.32 125.94 160.86 133.76 156.65 140.90
  Q 156.09 141.85 156.16 140.75
  Q 156.58 133.34 157.30 126.46
  Q 157.60 123.55 156.60 121.17
  Q 156.41 120.71 156.85 120.48
  L 163.32 117.27
  Q 163.97 116.95 163.91 117.66
  Z"
/>
<path fill="#b7bfc8" d="
  M 113.63 128.84
  Q 99.19 128.78 81.55 131.73
  Q 80.84 131.84 80.85 131.12
  L 80.85 130.72
  A 0.39 0.38 86.4 0 1 81.17 130.35
  Q 99.41 127.67 109.65 127.42
  Q 125.32 127.05 144.76 130.43
  Q 145.18 130.50 145.15 130.93
  L 145.13 131.31
  A 0.46 0.45 6.3 0 1 144.60 131.73
  Q 126.49 128.88 113.63 128.84
  Z"
/>
<path fill="#b7bfc8" d="
  M 106.51 147.79
  Q 94.70 146.40 84.12 143.55
  Q 83.73 143.44 83.85 143.06
  L 83.92 142.81
  A 0.66 0.66 0.0 0 1 84.71 142.37
  Q 99.58 146.11 110.87 146.73
  C 120.39 147.24 131.87 144.64 141.61 142.31
  A 0.42 0.42 0.0 0 1 142.13 142.70
  L 142.15 143.02
  Q 142.17 143.50 141.71 143.62
  Q 128.10 147.24 115.51 148.09
  Q 111.41 148.37 106.51 147.79
  Z"
/>
</svg>
