<?xml version="1.0" encoding="UTF-8" ?>
<!DOCTYPE svg PUBLIC "-//W3C//DTD SVG 1.1//EN" "http://www.w3.org/Graphics/SVG/1.1/DTD/svg11.dtd">
<svg width="146pt" height="146pt" viewBox="0 0 146 146" version="1.1" xmlns="http://www.w3.org/2000/svg">
<g id="#fefefeff">
<path fill="#fefefe" opacity="1.00" d=" M 18.74 3.61 C 23.31 1.99 28.13 0.92 33.00 0.99 C 59.68 1.00 86.35 1.01 113.03 0.98 C 117.89 0.90 122.71 1.93 127.24 3.63 C 128.54 4.33 129.84 5.04 131.16 5.73 C 132.70 6.86 134.20 8.07 135.64 9.35 C 135.89 9.61 136.40 10.11 136.66 10.37 C 137.93 11.81 139.13 13.31 140.26 14.87 C 140.96 16.17 141.67 17.47 142.39 18.76 C 144.16 22.97 145.03 27.49 145.00 32.05 C 145.01 59.36 145.00 86.67 145.00 113.98 C 145.01 118.07 144.31 122.14 142.94 125.99 C 142.06 127.73 141.17 129.47 140.31 131.22 C 139.19 132.73 137.98 134.17 136.71 135.56 C 136.38 135.84 135.72 136.40 135.39 136.68 L 135.31 137.14 C 133.94 138.19 132.58 139.27 131.19 140.29 C 129.85 140.97 128.52 141.67 127.20 142.38 C 123.36 144.01 119.27 145.02 115.07 144.98 C 87.37 145.03 59.67 144.99 31.97 145.01 C 27.43 145.10 22.98 144.07 18.79 142.38 C 17.46 141.67 16.11 140.98 14.76 140.32 C 13.23 139.17 11.78 137.94 10.37 136.67 C 10.11 136.41 9.60 135.90 9.35 135.65 C 8.06 134.19 6.85 132.67 5.70 131.10 C 5.01 129.81 4.31 128.53 3.60 127.25 C 2.11 123.03 0.96 118.63 1.00 114.12 C 0.99 86.74 1.01 59.35 1.00 31.96 C 0.91 27.42 2.06 22.98 3.63 18.75 C 4.36 17.41 5.08 16.06 5.79 14.71 L 6.17 14.48 C 7.19 13.06 8.25 11.68 9.36 10.34 C 9.61 10.08 10.10 9.58 10.34 9.33 C 11.81 8.06 13.34 6.85 14.92 5.73 C 16.20 5.03 17.47 4.32 18.74 3.61 M 27.11 37.21 C 25.62 37.79 24.87 39.38 25.02 40.91 C 24.98 52.96 24.99 65.01 25.02 77.06 C 24.65 79.29 26.60 81.39 28.88 81.03 C 58.26 81.08 87.65 81.07 117.03 81.03 C 118.84 81.28 120.88 80.05 120.91 78.10 C 121.11 65.71 120.97 53.30 120.98 40.91 C 121.31 38.69 119.34 36.67 117.12 37.02 C 89.07 36.96 61.02 37.04 32.97 36.98 C 31.02 37.01 29.04 36.88 27.11 37.21 M 34.24 87.41 C 33.92 89.61 33.60 91.81 33.27 94.01 C 32.93 91.82 32.60 89.61 32.27 87.42 C 31.33 87.42 29.46 87.41 28.52 87.41 C 29.27 91.00 30.02 94.59 30.77 98.18 C 32.33 98.18 33.90 98.18 35.46 98.18 C 35.78 95.87 36.10 93.56 36.43 91.25 C 36.74 93.56 37.05 95.87 37.36 98.18 C 38.91 98.18 40.46 98.18 42.01 98.18 C 42.76 94.59 43.50 91.00 44.24 87.41 C 43.04 87.41 41.84 87.41 40.64 87.41 C 40.30 89.68 39.96 91.94 39.62 94.20 C 39.30 91.94 38.98 89.68 38.66 87.41 C 37.19 87.41 35.72 87.41 34.24 87.41 M 69.94 87.41 C 69.94 88.13 69.93 89.55 69.93 90.27 C 70.59 90.28 71.91 90.29 72.57 90.29 C 72.56 92.91 72.56 95.53 72.56 98.16 C 73.96 98.16 75.36 98.16 76.76 98.16 C 76.76 95.53 76.76 92.91 76.76 90.29 C 77.42 90.28 78.73 90.28 79.39 90.27 C 79.39 89.32 79.39 88.37 79.39 87.42 C 76.24 87.41 73.09 87.41 69.94 87.41 M 82.16 87.41 C 82.16 91.01 82.16 94.61 82.16 98.20 C 84.91 98.20 87.65 98.20 90.40 98.20 C 90.40 97.50 90.40 96.11 90.40 95.41 C 89.02 95.41 87.64 95.41 86.25 95.41 C 86.24 95.10 86.23 94.46 86.22 94.14 C 87.47 94.13 88.73 94.13 89.98 94.12 C 89.98 93.43 89.98 92.04 89.98 91.35 C 88.75 91.35 87.51 91.36 86.28 91.36 C 86.26 91.07 86.22 90.49 86.21 90.20 C 87.55 90.19 88.90 90.18 90.25 90.18 C 90.26 89.25 90.26 88.33 90.27 87.42 C 87.56 87.41 84.86 87.41 82.16 87.41 M 93.42 87.38 C 93.41 90.95 93.41 94.52 93.41 98.08 C 94.72 98.08 96.03 98.08 97.35 98.09 C 97.44 96.53 97.58 94.98 97.77 93.43 C 98.81 94.80 99.24 96.46 99.69 98.09 C 100.70 98.09 102.74 98.08 103.75 98.07 C 103.36 96.21 102.94 94.34 102.20 92.58 C 102.92 91.26 103.93 89.66 102.77 88.25 C 99.91 86.77 96.51 87.59 93.42 87.38 M 46.75 87.41 C 46.75 91.01 46.75 94.61 46.75 98.20 C 49.50 98.20 52.24 98.20 54.99 98.21 C 54.99 97.51 54.99 96.11 54.99 95.42 C 53.60 95.41 52.21 95.41 50.82 95.40 L 50.85 94.13 C 51.77 94.13 53.63 94.12 54.55 94.12 C 54.57 93.48 54.59 92.21 54.60 91.57 C 53.07 91.40 51.50 91.25 50.13 90.48 C 51.31 90.38 53.67 90.18 54.85 90.08 C 54.85 89.42 54.85 88.08 54.85 87.42 C 52.15 87.41 49.45 87.41 46.75 87.41 M 57.62 91.04 C 57.61 94.84 64.27 92.85 63.43 96.65 C 62.81 96.24 61.57 95.41 60.95 95.00 C 59.99 95.05 58.07 95.15 57.11 95.21 C 58.28 100.41 68.37 99.82 67.57 94.03 C 66.65 91.70 63.67 91.71 61.67 90.82 C 61.73 90.53 61.86 89.95 61.92 89.66 C 63.70 90.50 65.66 90.73 67.61 90.71 C 66.68 86.00 57.87 86.16 57.62 91.04 M 106.59 87.39 C 106.58 90.95 106.59 94.52 106.59 98.08 C 107.43 98.08 109.12 98.09 109.97 98.09 C 110.00 95.92 110.03 93.75 110.09 91.58 C 110.82 93.75 111.55 95.92 112.29 98.08 C 113.97 98.08 115.65 98.08 117.33 98.09 C 117.33 94.52 117.34 90.96 117.33 87.39 C 116.49 87.39 114.80 87.39 113.95 87.39 C 113.94 89.51 113.92 91.64 113.89 93.76 C 113.13 91.64 112.38 89.52 111.62 87.40 C 109.94 87.39 108.27 87.39 106.59 87.39 M 85.17 100.61 C 85.16 104.19 85.16 107.78 85.17 111.36 C 86.56 111.35 87.96 111.35 89.36 111.35 C 89.36 107.77 89.36 104.19 89.36 100.62 C 87.96 100.61 86.56 100.61 85.17 100.61 M 57.44 100.61 C 57.59 103.67 56.98 106.88 57.95 109.84 C 60.08 112.36 64.93 112.38 66.97 109.76 C 68.04 106.84 67.39 103.63 67.55 100.59 C 66.53 100.59 64.49 100.59 63.46 100.59 C 63.46 103.54 63.57 106.52 63.03 109.44 C 60.40 107.24 61.84 103.55 61.49 100.62 C 60.48 100.62 58.45 100.61 57.44 100.61 M 70.94 100.59 C 70.94 104.18 70.94 107.76 70.94 111.35 C 71.79 111.35 73.49 111.35 74.34 111.35 C 74.34 109.15 74.34 106.95 74.34 104.76 C 75.12 106.95 75.89 109.15 76.67 111.35 C 78.34 111.35 80.01 111.35 81.69 111.35 C 81.69 107.77 81.69 104.18 81.69 100.59 C 80.84 100.59 79.15 100.58 78.30 100.58 C 78.29 101.92 78.27 104.60 78.26 105.94 L 79.45 106.16 C 79.15 106.27 78.56 106.51 78.26 106.62 C 77.39 104.65 76.68 102.61 75.94 100.59 C 74.27 100.59 72.61 100.59 70.94 100.59 M 94.42 101.35 C 91.88 103.41 91.83 107.73 93.85 110.16 C 97.13 113.48 104.18 111.15 103.46 106.00 C 104.11 101.15 97.95 98.70 94.42 101.35 M 106.59 100.59 C 106.58 104.17 106.58 107.76 106.59 111.35 C 107.43 111.35 109.12 111.36 109.97 111.36 C 109.99 109.17 110.03 106.98 110.09 104.79 C 110.82 106.98 111.55 109.16 112.29 111.35 C 113.97 111.35 115.65 111.35 117.33 111.36 C 117.33 107.77 117.33 104.18 117.33 100.59 C 116.49 100.59 114.80 100.59 113.95 100.59 C 113.94 102.74 113.92 104.89 113.89 107.04 C 113.14 104.89 112.38 102.74 111.62 100.59 C 109.95 100.59 108.27 100.58 106.59 100.59 Z" />
<path fill="#fefefe" opacity="1.00" d=" M 79.09 42.88 C 81.43 41.37 84.29 42.64 86.85 42.54 C 87.12 45.02 86.29 47.40 85.84 49.80 C 84.29 56.95 82.97 64.14 81.27 71.25 C 77.55 65.87 78.75 59.15 78.59 53.02 C 78.90 49.66 77.92 46.11 79.09 42.88 Z" />
<path fill="#fefefe" opacity="1.00" d=" M 97.29 90.01 C 98.15 88.54 100.30 90.30 99.32 91.56 C 98.41 93.17 96.36 91.30 97.29 90.01 Z" />
<path fill="#fefefe" opacity="1.00" d=" M 97.10 108.98 C 97.17 107.09 95.59 102.74 98.79 103.27 C 99.10 105.26 100.09 108.74 97.10 108.98 Z" />
</g>
<g id="#000000ff">
<path fill="#000000" opacity="1.00" d=" M 27.11 37.21 C 29.04 36.88 31.02 37.01 32.97 36.98 C 61.02 37.04 89.07 36.96 117.12 37.02 C 119.34 36.67 121.31 38.69 120.98 40.91 C 120.97 53.30 121.11 65.71 120.91 78.10 C 120.88 80.05 118.84 81.28 117.03 81.03 C 87.65 81.07 58.26 81.08 28.88 81.03 C 26.60 81.39 24.65 79.29 25.02 77.06 C 24.99 65.01 24.98 52.96 25.02 40.91 C 24.87 39.38 25.62 37.79 27.11 37.21 M 30.94 41.66 C 32.35 50.87 34.67 59.92 36.38 69.08 C 36.96 71.06 36.65 73.97 39.29 74.40 C 37.63 65.16 35.48 56.02 33.70 46.80 C 33.15 44.91 33.36 42.20 30.94 41.66 M 35.94 41.75 C 37.55 51.08 39.77 60.29 41.55 69.59 C 42.03 71.45 41.91 74.00 44.33 74.40 C 42.70 65.06 40.50 55.83 38.70 46.53 C 38.18 44.70 38.39 42.06 35.94 41.75 M 40.87 42.21 C 43.10 52.83 45.35 63.45 47.58 74.08 C 52.20 74.08 56.82 74.08 61.44 74.07 C 62.36 67.23 63.26 60.38 64.20 53.54 C 65.17 60.38 66.09 67.23 67.05 74.08 C 71.59 74.08 76.14 74.08 80.69 74.08 C 80.88 73.14 81.08 72.19 81.27 71.25 C 82.97 64.14 84.29 56.95 85.84 49.80 C 86.29 47.40 87.12 45.02 86.85 42.54 C 83.53 41.37 79.83 42.22 76.37 42.23 C 75.41 48.93 74.41 55.61 73.44 62.30 C 72.44 55.61 71.50 48.91 70.53 42.21 C 66.28 42.21 62.03 42.21 57.78 42.20 C 56.79 48.72 55.87 55.24 54.88 61.75 C 53.90 55.24 52.96 48.72 52.00 42.21 C 48.29 42.21 44.58 42.21 40.87 42.21 M 88.31 42.21 C 86.26 52.05 84.28 61.91 82.13 71.72 C 87.32 75.45 94.22 75.40 100.20 74.02 C 104.83 72.99 108.14 68.64 108.31 63.96 C 108.68 56.72 108.35 49.46 108.46 42.21 C 104.42 42.21 100.38 42.21 96.34 42.21 C 96.18 49.46 96.69 56.74 96.10 63.96 C 95.86 67.01 91.02 67.03 90.88 63.93 C 90.35 56.71 90.82 49.44 90.66 42.20 C 90.07 42.21 88.90 42.21 88.31 42.21 Z" />
<path fill="#000000" opacity="1.00" d=" M 34.24 87.41 C 35.72 87.41 37.19 87.41 38.66 87.41 C 38.98 89.68 39.30 91.94 39.62 94.20 C 39.96 91.94 40.30 89.68 40.64 87.41 C 41.84 87.41 43.04 87.41 44.24 87.41 C 43.50 91.00 42.76 94.59 42.01 98.18 C 40.46 98.18 38.91 98.18 37.36 98.18 C 37.05 95.87 36.74 93.56 36.43 91.25 C 36.10 93.56 35.78 95.87 35.46 98.18 C 33.90 98.18 32.33 98.18 30.77 98.18 C 30.02 94.59 29.27 91.00 28.52 87.41 C 29.46 87.41 31.33 87.42 32.27 87.42 C 32.60 89.61 32.93 91.82 33.27 94.01 C 33.60 91.81 33.92 89.61 34.24 87.41 Z" />
<path fill="#000000" opacity="1.00" d=" M 69.94 87.41 C 73.09 87.41 76.24 87.41 79.39 87.42 C 79.39 88.37 79.39 89.32 79.39 90.27 C 78.73 90.28 77.42 90.28 76.76 90.29 C 76.76 92.91 76.76 95.53 76.76 98.16 C 75.36 98.16 73.96 98.16 72.56 98.16 C 72.56 95.53 72.56 92.91 72.57 90.29 C 71.91 90.29 70.59 90.28 69.93 90.27 C 69.93 89.55 69.94 88.13 69.94 87.41 Z" />
<path fill="#000000" opacity="1.00" d=" M 82.16 87.41 C 84.86 87.41 87.56 87.41 90.27 87.42 C 90.26 88.33 90.26 89.25 90.25 90.18 C 88.90 90.18 87.55 90.19 86.21 90.20 C 86.22 90.49 86.26 91.07 86.28 91.36 C 87.51 91.36 88.75 91.35 89.98 91.35 C 89.98 92.04 89.98 93.43 89.98 94.12 C 88.73 94.13 87.47 94.13 86.22 94.14 C 86.23 94.46 86.24 95.10 86.25 95.41 C 87.64 95.41 89.02 95.41 90.40 95.41 C 90.40 96.11 90.40 97.50 90.40 98.20 C 87.65 98.20 84.91 98.20 82.16 98.20 C 82.16 94.61 82.16 91.01 82.16 87.41 Z" />
<path fill="#000000" opacity="1.00" d=" M 93.42 87.38 C 96.51 87.59 99.91 86.77 102.77 88.25 C 103.93 89.66 102.92 91.26 102.20 92.58 C 102.94 94.34 103.36 96.21 103.75 98.07 C 102.74 98.08 100.70 98.09 99.69 98.09 C 99.24 96.46 98.81 94.80 97.77 93.43 C 97.58 94.98 97.44 96.53 97.35 98.09 C 96.03 98.08 94.72 98.08 93.41 98.08 C 93.41 94.52 93.41 90.95 93.42 87.38 M 97.29 90.01 C 96.36 91.30 98.41 93.17 99.32 91.56 C 100.30 90.30 98.15 88.54 97.29 90.01 Z" />
<path fill="#000000" opacity="1.00" d=" M 46.75 87.41 C 49.45 87.41 52.15 87.41 54.85 87.42 C 54.85 88.08 54.85 89.42 54.85 90.08 C 53.67 90.18 51.31 90.38 50.13 90.48 C 51.50 91.25 53.07 91.40 54.60 91.57 C 54.59 92.21 54.57 93.48 54.55 94.12 C 53.63 94.12 51.77 94.13 50.85 94.13 L 50.82 95.40 C 52.21 95.41 53.60 95.41 54.99 95.42 C 54.99 96.11 54.99 97.51 54.99 98.21 C 52.24 98.20 49.50 98.20 46.75 98.20 C 46.75 94.61 46.75 91.01 46.75 87.41 Z" />
<path fill="#000000" opacity="1.00" d=" M 57.62 91.04 C 57.87 86.16 66.68 86.00 67.61 90.71 C 65.66 90.73 63.70 90.50 61.92 89.66 C 61.86 89.95 61.73 90.53 61.67 90.82 C 63.67 91.71 66.65 91.70 67.57 94.03 C 68.37 99.82 58.28 100.41 57.11 95.21 C 58.07 95.15 59.99 95.05 60.95 95.00 C 61.57 95.41 62.81 96.24 63.43 96.65 C 64.27 92.85 57.61 94.84 57.62 91.04 Z" />
<path fill="#000000" opacity="1.00" d=" M 106.59 87.39 C 108.27 87.39 109.94 87.39 111.62 87.40 C 112.38 89.52 113.13 91.64 113.89 93.76 C 113.92 91.64 113.94 89.51 113.95 87.39 C 114.80 87.39 116.49 87.39 117.33 87.39 C 117.34 90.96 117.33 94.52 117.33 98.09 C 115.65 98.08 113.97 98.08 112.29 98.08 C 111.55 95.92 110.82 93.75 110.09 91.58 C 110.03 93.75 110.00 95.92 109.97 98.09 C 109.12 98.09 107.43 98.08 106.59 98.08 C 106.59 94.52 106.58 90.95 106.59 87.39 Z" />
<path fill="#000000" opacity="1.00" d=" M 85.17 100.61 C 86.56 100.61 87.96 100.61 89.36 100.62 C 89.36 104.19 89.36 107.77 89.36 111.35 C 87.96 111.35 86.56 111.35 85.17 111.36 C 85.16 107.78 85.16 104.19 85.17 100.61 Z" />
<path fill="#000000" opacity="1.00" d=" M 57.44 100.61 C 58.45 100.61 60.48 100.62 61.49 100.62 C 61.84 103.55 60.40 107.24 63.03 109.44 C 63.57 106.52 63.46 103.54 63.46 100.59 C 64.49 100.59 66.53 100.59 67.55 100.59 C 67.39 103.63 68.04 106.84 66.97 109.76 C 64.93 112.38 60.08 112.36 57.95 109.84 C 56.98 106.88 57.59 103.67 57.44 100.61 Z" />
<path fill="#000000" opacity="1.00" d=" M 70.94 100.59 C 72.61 100.59 74.27 100.59 75.94 100.59 C 76.68 102.61 77.39 104.65 78.26 106.62 C 78.56 106.51 79.15 106.27 79.45 106.16 L 78.26 105.94 C 78.27 104.60 78.29 101.92 78.30 100.58 C 79.15 100.58 80.84 100.59 81.69 100.59 C 81.69 104.18 81.69 107.77 81.69 111.35 C 80.01 111.35 78.34 111.35 76.67 111.35 C 75.89 109.15 75.12 106.95 74.34 104.76 C 74.34 106.95 74.34 109.15 74.34 111.35 C 73.49 111.35 71.79 111.35 70.94 111.35 C 70.94 107.76 70.94 104.18 70.94 100.59 Z" />
<path fill="#000000" opacity="1.00" d=" M 94.42 101.35 C 97.95 98.70 104.11 101.15 103.46 106.00 C 104.18 111.15 97.13 113.48 93.85 110.16 C 91.83 107.73 91.88 103.41 94.42 101.35 M 97.10 108.98 C 100.09 108.74 99.10 105.26 98.79 103.27 C 95.59 102.74 97.17 107.09 97.10 108.98 Z" />
<path fill="#000000" opacity="1.00" d=" M 106.59 100.59 C 108.27 100.58 109.95 100.59 111.62 100.59 C 112.38 102.74 113.14 104.89 113.89 107.04 C 113.92 104.89 113.94 102.74 113.95 100.59 C 114.80 100.59 116.49 100.59 117.33 100.59 C 117.33 104.18 117.33 107.77 117.33 111.36 C 115.65 111.35 113.97 111.35 112.29 111.35 C 111.55 109.16 110.82 106.98 110.09 104.79 C 110.03 106.98 109.99 109.17 109.97 111.36 C 109.12 111.36 107.43 111.35 106.59 111.35 C 106.58 107.76 106.58 104.17 106.59 100.59 Z" />
</g>
<g id="#ffde1cff">
<path fill="#ffde1c" opacity="1.00" d=" M 30.94 41.66 C 33.36 42.20 33.15 44.91 33.70 46.80 C 35.48 56.02 37.63 65.16 39.29 74.40 C 36.65 73.97 36.96 71.06 36.38 69.08 C 34.67 59.92 32.35 50.87 30.94 41.66 Z" />
<path fill="#ffde1c" opacity="1.00" d=" M 35.94 41.75 C 38.39 42.06 38.18 44.70 38.70 46.53 C 40.50 55.83 42.70 65.06 44.33 74.40 C 41.91 74.00 42.03 71.45 41.55 69.59 C 39.77 60.29 37.55 51.08 35.94 41.75 Z" />
<path fill="#ffde1c" opacity="1.00" d=" M 40.87 42.21 C 44.58 42.21 48.29 42.21 52.00 42.21 C 52.96 48.72 53.90 55.24 54.88 61.75 C 55.87 55.24 56.79 48.72 57.78 42.20 C 62.03 42.21 66.28 42.21 70.53 42.21 C 71.50 48.91 72.44 55.61 73.44 62.30 C 74.41 55.61 75.41 48.93 76.37 42.23 C 79.83 42.22 83.53 41.37 86.85 42.54 C 84.29 42.64 81.43 41.37 79.09 42.88 C 77.92 46.11 78.90 49.66 78.59 53.02 C 78.75 59.15 77.55 65.87 81.27 71.25 C 81.08 72.19 80.88 73.14 80.69 74.08 C 76.14 74.08 71.59 74.08 67.05 74.08 C 66.09 67.23 65.17 60.38 64.20 53.54 C 63.26 60.38 62.36 67.23 61.44 74.07 C 56.82 74.08 52.20 74.08 47.58 74.08 C 45.35 63.45 43.10 52.83 40.87 42.21 Z" />
<path fill="#ffde1c" opacity="1.00" d=" M 88.31 42.21 C 88.90 42.21 90.07 42.21 90.66 42.20 C 90.82 49.44 90.35 56.71 90.88 63.93 C 91.02 67.03 95.86 67.01 96.10 63.96 C 96.69 56.74 96.18 49.46 96.34 42.21 C 100.38 42.21 104.42 42.21 108.46 42.21 C 108.35 49.46 108.68 56.72 108.31 63.96 C 108.14 68.64 104.83 72.99 100.20 74.02 C 94.22 75.40 87.32 75.45 82.13 71.72 C 84.28 61.91 86.26 52.05 88.31 42.21 Z" />
</g>
</svg>
