<?xml version="1.0" encoding="UTF-8" ?>
<!DOCTYPE svg PUBLIC "-//W3C//DTD SVG 1.1//EN" "http://www.w3.org/Graphics/SVG/1.1/DTD/svg11.dtd">
<svg width="146pt" height="146pt" viewBox="0 0 146 146" version="1.1" xmlns="http://www.w3.org/2000/svg">
<g id="#fefefeff">
<path fill="#fefefe" opacity="1.00" d=" M 18.76 3.64 C 23.32 1.94 28.15 0.94 33.03 0.99 C 60.35 1.02 87.66 0.96 114.98 1.01 C 119.21 0.96 123.26 2.20 127.20 3.60 C 128.73 4.39 130.21 5.27 131.66 6.19 C 133.12 7.21 134.51 8.34 135.76 9.61 L 136.16 9.65 C 137.19 11.09 138.31 12.45 139.49 13.77 L 139.57 14.21 C 140.70 15.62 141.59 17.20 142.41 18.80 C 144.15 22.97 145.06 27.44 144.99 31.97 C 145.02 59.01 144.98 86.06 145.01 113.10 C 145.13 117.90 144.14 122.66 142.41 127.13 C 141.69 128.46 140.97 129.79 140.30 131.15 C 139.22 132.74 137.98 134.21 136.68 135.62 C 136.41 135.88 135.88 136.42 135.62 136.69 C 134.21 138.01 132.73 139.24 131.14 140.33 C 130.65 140.58 129.66 141.07 129.16 141.32 C 128.68 141.58 127.70 142.09 127.21 142.35 C 122.47 144.61 117.20 145.08 112.01 145.01 C 84.98 144.98 57.96 145.04 30.94 144.99 C 26.74 145.02 22.66 143.89 18.76 142.44 C 17.48 141.70 16.19 140.97 14.90 140.26 C 13.32 139.17 11.82 137.97 10.41 136.68 C 10.14 136.41 9.60 135.86 9.33 135.58 C 8.03 134.17 6.83 132.67 5.73 131.10 C 5.46 130.62 4.92 129.66 4.65 129.18 C 4.40 128.70 3.89 127.73 3.63 127.24 C 2.12 123.02 0.86 118.61 1.00 114.08 C 1.01 86.72 0.98 59.36 1.01 31.99 C 1.01 26.02 2.62 20.05 5.70 14.94 C 6.75 13.51 7.81 12.10 8.86 10.68 L 9.30 10.65 C 9.57 10.31 10.12 9.65 10.40 9.31 C 11.82 8.02 13.33 6.82 14.92 5.73 C 15.40 5.46 16.35 4.94 16.82 4.67 C 17.31 4.41 18.28 3.90 18.76 3.64 M 69.25 27.21 C 65.78 30.43 61.85 33.17 58.57 36.60 C 56.77 38.63 59.34 42.09 61.85 41.07 C 64.89 39.34 67.24 36.64 70.00 34.50 C 70.15 41.98 69.72 49.48 70.18 56.95 C 70.95 60.07 76.13 59.35 75.93 56.10 C 76.14 48.91 75.92 41.70 76.00 34.50 C 78.76 36.64 81.11 39.35 84.16 41.08 C 87.04 42.20 89.47 37.88 86.97 36.06 C 83.11 32.54 79.08 29.20 75.05 25.88 C 73.15 23.98 70.76 25.78 69.25 27.21 M 27.15 61.27 C 25.24 61.95 24.89 64.11 24.99 65.88 C 25.03 80.96 24.95 96.04 25.03 111.12 C 24.75 113.32 26.72 115.23 28.90 114.97 C 58.30 115.02 87.70 115.03 117.10 114.96 C 119.28 115.23 121.25 113.32 120.97 111.13 C 121.03 95.72 121.02 80.31 120.97 64.91 C 121.26 62.68 119.27 60.75 117.07 61.03 C 89.37 60.94 61.67 61.05 33.98 60.98 C 31.70 61.01 29.39 60.83 27.15 61.27 Z" />
<path fill="#fefefe" opacity="1.00" d=" M 68.42 66.67 C 75.55 65.19 83.33 67.33 88.60 72.36 C 93.90 77.26 96.49 84.90 95.14 92.00 C 93.98 98.88 89.21 104.93 82.94 107.91 C 75.67 111.47 66.52 110.77 59.92 106.07 C 53.23 101.51 49.44 93.04 50.75 85.02 C 51.96 75.95 59.50 68.36 68.42 66.67 M 69.48 75.23 C 65.65 76.86 63.03 81.29 64.75 85.36 C 66.29 89.72 71.55 90.15 74.58 93.00 C 74.43 94.45 73.63 95.02 72.18 94.72 C 70.42 93.97 69.62 91.92 67.86 91.20 C 65.74 90.64 63.47 92.76 64.08 94.92 C 64.89 97.55 67.26 99.14 69.49 100.48 C 70.19 101.97 70.92 104.21 73.00 104.00 C 75.16 104.28 75.93 101.99 76.51 100.39 C 79.65 98.32 81.82 94.40 80.26 90.67 C 78.75 86.23 73.33 85.92 70.40 82.92 C 71.01 79.59 74.45 81.92 75.54 83.63 C 77.00 85.97 80.92 84.64 80.95 81.99 C 80.87 79.25 78.38 77.49 76.47 75.89 C 75.98 74.40 75.82 72.21 73.88 71.90 C 71.56 71.08 70.16 73.42 69.48 75.23 Z" />
<path fill="#fefefe" opacity="1.00" d=" M 35.46 84.57 C 38.13 83.23 41.58 85.93 40.76 88.85 C 40.20 91.66 36.26 92.74 34.31 90.67 C 32.37 88.95 33.06 85.47 35.46 84.57 Z" />
<path fill="#fefefe" opacity="1.00" d=" M 107.44 84.51 C 110.15 83.30 113.49 86.09 112.56 88.99 C 111.85 91.93 107.57 92.74 105.81 90.30 C 104.18 88.45 105.14 85.28 107.44 84.51 Z" />
</g>
<g id="#d71249ff">
<path fill="#d71249" opacity="1.00" d=" M 69.25 27.21 C 70.76 25.78 73.15 23.98 75.05 25.88 C 79.08 29.20 83.11 32.54 86.97 36.06 C 89.47 37.88 87.04 42.20 84.16 41.08 C 81.11 39.35 78.76 36.64 76.00 34.50 C 75.92 41.70 76.14 48.91 75.93 56.10 C 76.13 59.35 70.95 60.07 70.18 56.95 C 69.72 49.48 70.15 41.98 70.00 34.50 C 67.24 36.64 64.89 39.34 61.85 41.07 C 59.34 42.09 56.77 38.63 58.57 36.60 C 61.85 33.17 65.78 30.43 69.25 27.21 Z" />
</g>
<g id="#005993ff">
<path fill="#005993" opacity="1.00" d=" M 27.15 61.27 C 29.39 60.83 31.70 61.01 33.98 60.98 C 61.67 61.05 89.37 60.94 117.07 61.03 C 119.27 60.75 121.26 62.68 120.97 64.91 C 121.02 80.31 121.03 95.72 120.97 111.13 C 121.25 113.32 119.28 115.23 117.10 114.96 C 87.70 115.03 58.30 115.02 28.90 114.97 C 26.72 115.23 24.75 113.32 25.03 111.12 C 24.95 96.04 25.03 80.96 24.99 65.88 C 24.89 64.11 25.24 61.95 27.15 61.27 M 68.42 66.67 C 59.50 68.36 51.96 75.95 50.75 85.02 C 49.44 93.04 53.23 101.51 59.92 106.07 C 66.52 110.77 75.67 111.47 82.94 107.91 C 89.21 104.93 93.98 98.88 95.14 92.00 C 96.49 84.90 93.90 77.26 88.60 72.36 C 83.33 67.33 75.55 65.19 68.42 66.67 M 35.46 84.57 C 33.06 85.47 32.37 88.95 34.31 90.67 C 36.26 92.74 40.20 91.66 40.76 88.85 C 41.58 85.93 38.13 83.23 35.46 84.57 M 107.44 84.51 C 105.14 85.28 104.18 88.45 105.81 90.30 C 107.57 92.74 111.85 91.93 112.56 88.99 C 113.49 86.09 110.15 83.30 107.44 84.51 Z" />
<path fill="#005993" opacity="1.00" d=" M 69.48 75.23 C 70.16 73.42 71.56 71.08 73.88 71.90 C 75.82 72.21 75.98 74.40 76.47 75.89 C 78.38 77.49 80.87 79.25 80.95 81.99 C 80.92 84.64 77.00 85.97 75.54 83.63 C 74.45 81.92 71.01 79.59 70.40 82.92 C 73.33 85.92 78.75 86.23 80.26 90.67 C 81.82 94.40 79.65 98.32 76.51 100.39 C 75.93 101.99 75.16 104.28 73.00 104.00 C 70.92 104.21 70.19 101.97 69.49 100.48 C 67.26 99.14 64.89 97.55 64.08 94.92 C 63.47 92.76 65.74 90.64 67.86 91.20 C 69.62 91.92 70.42 93.97 72.18 94.72 C 73.63 95.02 74.43 94.45 74.58 93.00 C 71.55 90.15 66.29 89.72 64.75 85.36 C 63.03 81.29 65.65 76.86 69.48 75.23 Z" />
</g>
</svg>
