<?xml version="1.0" encoding="UTF-8" ?>
<!DOCTYPE svg PUBLIC "-//W3C//DTD SVG 1.1//EN" "http://www.w3.org/Graphics/SVG/1.1/DTD/svg11.dtd">
<svg width="146pt" height="146pt" viewBox="0 0 146 146" version="1.1" xmlns="http://www.w3.org/2000/svg">
<g id="#fefefeff">
<path fill="#fefefe" opacity="1.00" d=" M 18.79 3.63 C 23.01 2.05 27.43 0.92 31.97 1.00 C 59.36 0.99 86.74 0.99 114.13 1.01 C 118.60 1.05 122.98 2.14 127.19 3.60 C 128.52 4.25 129.77 5.06 131.10 5.71 C 132.68 6.84 134.20 8.03 135.62 9.35 C 135.88 9.61 136.39 10.12 136.65 10.38 C 137.97 11.80 139.19 13.31 140.26 14.93 C 140.54 15.40 141.09 16.33 141.36 16.80 C 141.83 17.86 142.32 18.92 142.80 19.99 C 145.09 24.98 144.99 30.62 145.01 36.00 C 144.99 62.02 145.02 88.04 144.99 114.06 C 145.01 118.58 144.16 123.07 142.36 127.21 C 142.10 127.70 141.57 128.67 141.31 129.15 C 141.05 129.64 140.54 130.61 140.28 131.10 C 139.17 132.68 137.97 134.20 136.67 135.63 C 136.41 135.89 135.90 136.41 135.65 136.67 C 134.20 137.98 132.67 139.21 131.07 140.32 C 125.96 143.43 120.04 145.10 114.05 145.00 C 86.69 144.99 59.32 145.01 31.96 145.00 C 27.43 145.04 22.92 144.19 18.77 142.37 C 18.29 142.11 17.33 141.59 16.85 141.32 C 16.37 141.06 15.40 140.53 14.92 140.27 C 13.32 139.18 11.79 137.98 10.36 136.67 C 10.10 136.41 9.59 135.89 9.33 135.63 C 8.01 134.21 6.81 132.68 5.73 131.07 C 5.46 130.59 4.94 129.63 4.68 129.15 C 4.42 128.67 3.90 127.72 3.64 127.24 C 2.03 122.68 0.87 117.90 1.00 113.04 C 1.01 85.69 0.97 58.34 1.02 30.99 C 0.96 26.76 2.26 22.73 3.62 18.78 C 4.40 17.24 5.28 15.74 6.27 14.33 C 6.79 13.49 7.35 12.67 7.79 11.79 C 8.50 11.24 9.20 10.68 9.83 10.04 C 11.32 8.37 13.10 6.99 14.91 5.69 C 16.22 5.03 17.51 4.33 18.79 3.63 M 44.38 33.41 C 41.36 37.55 38.86 42.59 39.31 47.84 C 39.53 50.75 42.29 52.76 45.10 52.69 C 63.07 52.89 81.05 52.87 99.03 52.70 C 102.20 52.88 105.19 50.32 105.05 47.04 C 105.04 41.54 102.41 36.25 98.83 32.18 C 97.18 30.05 94.29 31.32 92.42 32.41 C 87.16 35.66 82.83 40.17 78.73 44.73 C 74.38 43.64 69.78 44.02 65.36 44.50 C 60.66 39.50 55.90 34.04 49.46 31.31 C 47.42 30.32 45.46 31.73 44.38 33.41 M 31.08 57.95 C 30.91 61.35 30.84 64.77 31.14 68.17 C 31.74 69.74 33.63 69.23 34.92 69.38 C 44.35 69.34 53.79 69.38 63.22 69.35 L 63.23 69.86 C 69.18 69.82 75.13 69.75 81.08 69.91 L 81.08 69.30 C 90.07 69.46 99.05 69.29 108.04 69.39 C 109.63 69.31 111.34 69.58 112.83 68.87 C 113.74 65.00 113.31 60.90 113.09 56.96 C 111.04 55.54 108.32 56.37 105.99 56.15 C 81.97 56.09 57.96 56.10 33.94 56.17 C 32.83 56.12 30.84 56.36 31.08 57.95 M 64.65 72.35 L 64.65 73.24 C 57.09 73.23 49.53 73.28 41.97 73.21 C 40.30 73.39 38.27 72.83 36.88 74.01 C 36.33 86.32 36.81 98.67 36.64 111.00 C 36.81 112.24 36.26 114.61 38.22 114.58 C 47.00 114.98 55.80 114.43 64.58 114.84 C 69.80 115.10 75.04 115.09 80.26 114.84 C 88.80 114.45 97.37 114.93 105.91 114.62 C 107.80 114.67 107.63 112.34 107.65 111.05 C 107.60 99.35 107.66 87.65 107.62 75.96 C 107.67 74.92 107.36 73.18 105.95 73.34 C 97.36 73.08 88.75 73.33 80.15 73.24 L 80.15 72.35 C 74.98 72.35 69.82 72.35 64.65 72.35 Z" />
</g>
<g id="#d71249ff">
<path fill="#d71249" opacity="1.00" d=" M 44.38 33.41 C 45.46 31.73 47.42 30.32 49.46 31.31 C 55.90 34.04 60.66 39.50 65.36 44.50 C 69.78 44.02 74.38 43.64 78.73 44.73 C 82.83 40.17 87.16 35.66 92.42 32.41 C 94.29 31.32 97.18 30.05 98.83 32.18 C 102.41 36.25 105.04 41.54 105.05 47.04 C 105.19 50.32 102.20 52.88 99.03 52.70 C 81.05 52.87 63.07 52.89 45.10 52.69 C 42.29 52.76 39.53 50.75 39.31 47.84 C 38.86 42.59 41.36 37.55 44.38 33.41 Z" />
<path fill="#d71249" opacity="1.00" d=" M 63.21 56.20 C 69.17 56.18 75.13 56.17 81.10 56.21 C 81.07 60.57 81.11 64.94 81.08 69.30 L 81.08 69.91 C 75.13 69.75 69.18 69.82 63.23 69.86 L 63.22 69.35 C 63.17 64.97 63.20 60.59 63.21 56.20 Z" />
<path fill="#d71249" opacity="1.00" d=" M 64.65 72.35 C 69.82 72.35 74.98 72.35 80.15 72.35 L 80.15 73.24 C 80.22 87.11 80.03 100.98 80.26 114.84 C 75.04 115.09 69.80 115.10 64.58 114.84 C 64.73 100.97 64.60 87.11 64.65 73.24 L 64.65 72.35 Z" />
</g>
<g id="#005993ff">
<path fill="#005993" opacity="1.00" d=" M 31.08 57.95 C 30.84 56.36 32.83 56.12 33.94 56.17 C 57.96 56.10 81.97 56.09 105.99 56.15 C 108.32 56.37 111.04 55.54 113.09 56.96 C 113.31 60.90 113.74 65.00 112.83 68.87 C 111.34 69.58 109.63 69.31 108.04 69.39 C 99.05 69.29 90.07 69.46 81.08 69.30 C 81.11 64.94 81.07 60.57 81.10 56.21 C 75.13 56.17 69.17 56.18 63.21 56.20 C 63.20 60.59 63.17 64.97 63.22 69.35 C 53.79 69.38 44.35 69.34 34.92 69.38 C 33.63 69.23 31.74 69.74 31.14 68.17 C 30.84 64.77 30.91 61.35 31.08 57.95 Z" />
<path fill="#005993" opacity="1.00" d=" M 36.88 74.01 C 38.27 72.83 40.30 73.39 41.97 73.21 C 49.53 73.28 57.09 73.23 64.65 73.24 C 64.60 87.11 64.73 100.97 64.58 114.84 C 55.80 114.43 47.00 114.98 38.22 114.58 C 36.26 114.61 36.81 112.24 36.64 111.00 C 36.81 98.67 36.33 86.32 36.88 74.01 Z" />
<path fill="#005993" opacity="1.00" d=" M 80.15 73.24 C 88.75 73.33 97.36 73.08 105.95 73.34 C 107.36 73.18 107.67 74.92 107.62 75.96 C 107.66 87.65 107.60 99.35 107.65 111.05 C 107.63 112.34 107.80 114.67 105.91 114.62 C 97.37 114.93 88.80 114.45 80.26 114.84 C 80.03 100.98 80.22 87.11 80.15 73.24 Z" />
</g>
</svg>
