<?xml version="1.0" encoding="UTF-8" ?>
<!DOCTYPE svg PUBLIC "-//W3C//DTD SVG 1.1//EN" "http://www.w3.org/Graphics/SVG/1.1/DTD/svg11.dtd">
<svg width="146pt" height="146pt" viewBox="0 0 146 146" version="1.1" xmlns="http://www.w3.org/2000/svg">
<g id="#fefefeff">
<path fill="#fefefe" opacity="1.00" d=" M 18.73 3.64 C 22.68 2.27 26.74 0.97 30.97 1.01 C 59.00 0.99 87.03 0.97 115.06 1.02 C 119.22 1.00 123.24 2.24 127.14 3.60 C 128.47 4.30 129.80 5.01 131.15 5.70 C 132.70 6.85 134.19 8.07 135.63 9.35 C 135.89 9.61 136.41 10.12 136.67 10.38 C 137.94 11.81 139.15 13.30 140.29 14.85 C 140.98 16.16 141.67 17.47 142.38 18.77 C 142.87 20.29 143.38 21.81 143.82 23.35 L 144.24 23.83 C 144.67 26.88 145.06 29.95 145.01 33.04 C 145.00 60.03 145.00 87.02 145.00 114.01 C 145.09 118.11 144.29 122.18 142.89 126.03 C 142.37 127.09 141.85 128.14 141.34 129.20 C 141.07 129.67 140.52 130.62 140.24 131.09 C 139.23 132.51 138.19 133.91 137.16 135.32 L 136.72 135.37 C 136.44 135.69 135.88 136.33 135.60 136.65 C 134.20 137.95 132.75 139.19 131.22 140.33 C 129.83 140.99 128.46 141.69 127.10 142.40 C 123.25 143.91 119.21 145.08 115.03 144.98 C 87.35 145.02 59.68 145.00 32.00 145.00 C 27.47 145.03 22.95 144.29 18.82 142.40 C 17.49 141.68 16.15 140.97 14.79 140.30 C 13.24 139.17 11.76 137.94 10.33 136.66 C 10.09 136.40 9.59 135.90 9.35 135.65 C 8.05 134.21 6.80 132.73 5.61 131.21 C 4.76 129.49 3.92 127.77 3.10 126.04 C 1.19 121.61 0.99 116.74 0.99 112.00 C 1.02 85.31 0.96 58.63 1.02 31.95 C 0.92 27.44 1.98 23.04 3.60 18.86 C 4.31 17.54 5.03 16.21 5.72 14.87 C 6.86 13.29 8.08 11.78 9.35 10.31 C 9.60 10.07 10.08 9.58 10.33 9.34 C 11.79 8.07 13.30 6.86 14.87 5.72 C 16.16 5.04 17.45 4.34 18.73 3.64 M 72.38 28.55 C 57.62 35.04 42.95 41.73 28.24 48.35 C 25.50 49.21 24.13 52.75 25.89 55.13 C 27.19 57.26 29.92 57.04 32.08 57.08 C 60.75 57.01 89.42 57.12 118.09 57.03 C 120.87 57.38 123.49 54.84 123.04 52.03 C 122.82 49.88 120.86 48.71 119.08 47.94 C 105.27 41.74 91.45 35.56 77.67 29.30 C 76.02 28.61 74.15 27.64 72.38 28.55 M 36.24 65.92 C 36.24 75.56 36.24 85.21 36.24 94.86 C 39.20 94.86 42.17 94.86 45.13 94.86 C 45.13 85.08 45.14 75.30 45.13 65.52 C 49.58 65.51 54.04 65.51 58.49 65.51 C 58.49 75.29 58.49 85.07 58.49 94.86 C 59.02 94.86 60.09 94.86 60.62 94.87 C 60.68 91.61 60.33 88.32 60.92 85.10 C 61.89 82.42 64.94 82.00 67.39 81.87 C 67.39 76.41 67.38 70.96 67.39 65.51 C 71.87 65.51 76.34 65.49 80.81 65.55 C 80.67 73.70 80.79 81.85 80.72 90.01 C 80.88 91.42 80.40 93.24 81.65 94.29 C 84.21 96.84 87.09 99.06 89.68 101.59 C 89.60 89.56 89.66 77.54 89.65 65.51 C 94.10 65.51 98.55 65.51 103.00 65.51 C 102.99 78.87 103.01 92.22 102.99 105.58 C 99.62 105.57 96.24 105.56 92.87 105.58 C 91.78 109.66 87.98 111.88 85.03 114.53 C 94.32 114.35 103.62 114.59 112.91 114.43 C 116.08 114.66 118.53 110.95 117.03 108.12 C 116.24 106.02 113.82 105.79 111.94 105.35 C 111.88 92.18 111.86 79.02 111.95 65.86 C 113.32 65.27 115.49 65.01 115.26 62.99 C 114.91 60.93 112.60 61.05 111.03 61.05 C 85.69 61.15 60.34 60.93 35.01 61.15 C 31.35 61.64 33.24 66.00 36.24 65.92 M 63.78 86.01 C 63.41 89.95 63.68 93.91 63.63 97.86 C 52.48 98.13 41.23 97.32 30.13 98.26 C 28.78 103.34 29.68 108.81 29.72 114.04 C 41.02 114.27 52.33 114.08 63.64 114.14 C 63.69 118.06 63.38 122.00 63.79 125.91 C 65.19 128.25 67.68 126.24 69.02 124.93 C 75.92 118.55 83.20 112.59 89.91 106.01 C 83.20 99.41 75.90 93.45 69.00 87.06 C 67.65 85.74 65.33 83.84 63.78 86.01 Z" />
</g>
<g id="#005993ff">
<path fill="#005993" opacity="1.00" d=" M 72.38 28.55 C 74.15 27.64 76.02 28.61 77.67 29.30 C 91.45 35.56 105.27 41.74 119.08 47.94 C 120.86 48.71 122.82 49.88 123.04 52.03 C 123.49 54.84 120.87 57.38 118.09 57.03 C 89.42 57.12 60.75 57.01 32.08 57.08 C 29.92 57.04 27.19 57.26 25.89 55.13 C 24.13 52.75 25.50 49.21 28.24 48.35 C 42.95 41.73 57.62 35.04 72.38 28.55 Z" />
<path fill="#005993" opacity="1.00" d=" M 36.24 65.92 C 33.24 66.00 31.35 61.64 35.01 61.15 C 60.34 60.93 85.69 61.15 111.03 61.05 C 112.60 61.05 114.91 60.93 115.26 62.99 C 115.49 65.01 113.32 65.27 111.95 65.86 C 111.86 79.02 111.88 92.18 111.94 105.35 C 113.82 105.79 116.24 106.02 117.03 108.12 C 118.53 110.95 116.08 114.66 112.91 114.43 C 103.62 114.59 94.32 114.35 85.03 114.53 C 87.98 111.88 91.78 109.66 92.87 105.58 C 96.24 105.56 99.62 105.57 102.99 105.58 C 103.01 92.22 102.99 78.87 103.00 65.51 C 98.55 65.51 94.10 65.51 89.65 65.51 C 89.66 77.54 89.60 89.56 89.68 101.59 C 87.09 99.06 84.21 96.84 81.65 94.29 C 80.40 93.24 80.88 91.42 80.72 90.01 C 80.79 81.85 80.67 73.70 80.81 65.55 C 76.34 65.49 71.87 65.51 67.39 65.51 C 67.38 70.96 67.39 76.41 67.39 81.87 C 64.94 82.00 61.89 82.42 60.92 85.10 C 60.33 88.32 60.68 91.61 60.62 94.87 C 60.09 94.86 59.02 94.86 58.49 94.86 C 58.49 85.07 58.49 75.29 58.49 65.51 C 54.04 65.51 49.58 65.51 45.13 65.52 C 45.14 75.30 45.13 85.08 45.13 94.86 C 42.17 94.86 39.20 94.86 36.24 94.86 C 36.24 85.21 36.24 75.56 36.24 65.92 Z" />
</g>
<g id="#d71149ff">
<path fill="#d71149" opacity="1.00" d=" M 63.78 86.01 C 65.33 83.84 67.65 85.74 69.00 87.06 C 75.90 93.45 83.20 99.41 89.91 106.01 C 83.20 112.59 75.92 118.55 69.02 124.93 C 67.68 126.24 65.19 128.25 63.79 125.91 C 63.38 122.00 63.69 118.06 63.64 114.14 C 52.33 114.08 41.02 114.27 29.72 114.04 C 29.68 108.81 28.78 103.34 30.13 98.26 C 41.23 97.32 52.48 98.13 63.63 97.86 C 63.68 93.91 63.41 89.95 63.78 86.01 Z" />
</g>
</svg>
