<?xml version="1.0" encoding="UTF-8" ?>
<!DOCTYPE svg PUBLIC "-//W3C//DTD SVG 1.1//EN" "http://www.w3.org/Graphics/SVG/1.1/DTD/svg11.dtd">
<svg width="146pt" height="146pt" viewBox="0 0 146 146" version="1.1" xmlns="http://www.w3.org/2000/svg">
<g id="#fefefeff">
<path fill="#fefefe" opacity="1.00" d=" M 18.79 3.62 C 23.01 2.04 27.45 0.96 31.98 1.00 C 59.33 0.98 86.68 1.00 114.02 1.00 C 118.57 0.89 123.00 1.97 127.20 3.64 C 128.52 4.34 129.86 5.00 131.21 5.67 C 132.75 6.78 134.21 8.02 135.59 9.33 C 135.86 9.60 136.41 10.14 136.68 10.40 C 137.96 11.83 139.15 13.33 140.29 14.88 C 140.55 15.36 141.07 16.33 141.33 16.81 C 141.59 17.30 142.09 18.27 142.34 18.75 C 143.86 22.66 145.03 26.74 144.96 30.98 C 145.06 58.65 144.98 86.32 145.00 113.98 C 145.03 118.52 144.14 123.01 142.38 127.19 C 141.66 128.50 140.96 129.82 140.29 131.16 C 139.20 132.73 137.98 134.21 136.68 135.62 C 136.41 135.87 135.87 136.39 135.60 136.65 C 134.21 137.97 132.75 139.21 131.18 140.31 C 129.82 140.98 128.46 141.68 127.13 142.42 C 122.99 144.16 118.54 145.10 114.04 144.98 C 86.35 145.02 58.66 145.02 30.97 144.98 C 26.73 145.10 22.67 143.83 18.76 142.33 C 18.27 142.08 17.30 141.58 16.81 141.34 C 16.33 141.07 15.35 140.55 14.86 140.29 C 13.33 139.14 11.83 137.95 10.37 136.70 C 10.10 136.38 9.55 135.72 9.28 135.39 L 8.85 135.32 C 7.82 133.91 6.76 132.52 5.71 131.13 C 5.44 130.65 4.91 129.68 4.65 129.20 C 4.39 128.69 3.88 127.66 3.62 127.15 C 1.97 122.98 0.92 118.57 1.01 114.07 C 0.98 86.69 0.99 59.32 1.01 31.95 C 0.88 27.40 2.06 22.97 3.66 18.76 C 3.91 18.27 4.42 17.30 4.67 16.81 C 4.93 16.32 5.44 15.35 5.70 14.86 C 6.83 13.31 8.03 11.82 9.30 10.38 C 9.56 10.14 10.10 9.65 10.36 9.41 C 11.67 8.20 13.09 7.10 14.61 6.17 L 14.66 5.79 C 16.04 5.06 17.43 4.36 18.79 3.62 M 92.24 33.21 C 89.45 35.23 92.92 37.84 94.39 39.40 C 91.33 42.45 88.28 45.51 85.23 48.56 C 80.05 44.75 75.08 40.66 69.82 36.99 C 68.23 35.72 66.13 36.45 64.79 37.69 C 57.43 43.67 50.16 49.76 42.79 55.72 C 41.26 56.99 39.31 58.60 39.99 60.86 C 40.60 63.74 44.50 64.68 46.47 62.56 C 53.65 56.75 60.75 50.82 67.90 44.96 C 72.88 48.71 77.79 52.55 82.81 56.26 C 84.30 57.57 86.69 57.90 88.13 56.31 C 92.13 52.66 95.78 48.64 99.68 44.87 C 101.09 46.03 103.57 48.53 105.05 46.07 C 106.13 41.80 106.60 37.34 106.98 32.95 C 106.71 32.57 106.18 31.81 105.92 31.44 C 101.32 31.36 96.72 32.29 92.24 33.21 M 65.26 63.29 C 63.62 64.26 64.12 66.41 63.97 67.99 C 64.03 79.00 63.99 90.02 64.00 101.03 C 69.07 101.04 74.15 101.04 79.22 101.03 C 79.21 89.69 79.22 78.34 79.23 67.00 C 79.32 65.45 79.02 63.03 76.97 63.08 C 73.08 62.93 69.12 62.66 65.26 63.29 M 85.62 70.93 C 85.49 80.96 85.62 91.00 85.58 101.03 C 90.65 101.04 95.73 101.04 100.80 101.03 C 100.79 91.34 100.82 81.64 100.81 71.94 C 100.83 70.52 100.72 68.52 98.96 68.20 C 95.32 67.86 91.64 67.94 87.99 68.12 C 86.50 68.02 85.46 69.55 85.62 70.93 M 42.43 78.99 C 42.38 86.33 42.46 93.68 42.42 101.03 C 47.50 101.04 52.57 101.04 57.65 101.03 C 57.64 93.99 57.65 86.95 57.67 79.91 C 57.65 78.44 57.74 76.35 55.96 75.84 C 52.33 75.48 48.66 75.59 45.03 75.73 C 43.21 75.51 42.25 77.43 42.43 78.99 M 34.29 107.50 C 31.55 107.62 30.01 111.23 31.68 113.36 C 32.79 115.16 35.10 114.97 36.93 115.02 C 61.65 114.92 86.38 115.11 111.10 114.93 C 114.07 115.06 115.87 111.16 114.00 108.91 C 112.65 107.00 110.06 107.47 108.05 107.36 C 83.46 107.50 58.86 107.22 34.29 107.50 Z" />
</g>
<g id="#00a7e1ff">
<path fill="#00a7e1" opacity="1.00" d=" M 92.24 33.21 C 96.72 32.29 101.32 31.36 105.92 31.44 C 106.18 31.81 106.71 32.57 106.98 32.95 C 106.60 37.34 106.13 41.80 105.05 46.07 C 103.57 48.53 101.09 46.03 99.68 44.87 C 95.78 48.64 92.13 52.66 88.13 56.31 C 86.69 57.90 84.30 57.57 82.81 56.26 C 77.79 52.55 72.88 48.71 67.90 44.96 C 60.75 50.82 53.65 56.75 46.47 62.56 C 44.50 64.68 40.60 63.74 39.99 60.86 C 39.31 58.60 41.26 56.99 42.79 55.72 C 50.16 49.76 57.43 43.67 64.79 37.69 C 66.13 36.45 68.23 35.72 69.82 36.99 C 75.08 40.66 80.05 44.75 85.23 48.56 C 88.28 45.51 91.33 42.45 94.39 39.40 C 92.92 37.84 89.45 35.23 92.24 33.21 Z" />
</g>
<g id="#005993ff">
<path fill="#005993" opacity="1.00" d=" M 65.26 63.29 C 69.12 62.66 73.08 62.93 76.97 63.08 C 79.02 63.03 79.32 65.45 79.23 67.00 C 79.22 78.34 79.21 89.69 79.22 101.03 C 74.15 101.04 69.07 101.04 64.00 101.03 C 63.99 90.02 64.03 79.00 63.97 67.99 C 64.12 66.41 63.62 64.26 65.26 63.29 Z" />
<path fill="#005993" opacity="1.00" d=" M 85.62 70.93 C 85.46 69.55 86.50 68.02 87.99 68.12 C 91.64 67.94 95.32 67.86 98.96 68.20 C 100.72 68.52 100.83 70.52 100.81 71.94 C 100.82 81.64 100.79 91.34 100.80 101.03 C 95.73 101.04 90.65 101.04 85.58 101.03 C 85.62 91.00 85.49 80.96 85.62 70.93 Z" />
<path fill="#005993" opacity="1.00" d=" M 42.43 78.99 C 42.25 77.43 43.21 75.51 45.03 75.73 C 48.66 75.59 52.33 75.48 55.96 75.84 C 57.74 76.35 57.65 78.44 57.67 79.91 C 57.65 86.95 57.64 93.99 57.65 101.03 C 52.57 101.04 47.50 101.04 42.42 101.03 C 42.46 93.68 42.38 86.33 42.43 78.99 Z" />
<path fill="#005993" opacity="1.00" d=" M 34.29 107.50 C 58.86 107.22 83.46 107.50 108.05 107.36 C 110.06 107.47 112.65 107.00 114.00 108.91 C 115.87 111.16 114.07 115.06 111.10 114.93 C 86.38 115.11 61.65 114.92 36.93 115.02 C 35.10 114.97 32.79 115.16 31.68 113.36 C 30.01 111.23 31.55 107.62 34.29 107.50 Z" />
</g>
</svg>
