<?xml version="1.0" encoding="UTF-8" ?>
<!DOCTYPE svg PUBLIC "-//W3C//DTD SVG 1.1//EN" "http://www.w3.org/Graphics/SVG/1.1/DTD/svg11.dtd">
<svg width="146pt" height="146pt" viewBox="0 0 146 146" version="1.1" xmlns="http://www.w3.org/2000/svg">
<g id="#fefefeff">
<path fill="#fefefe" opacity="1.00" d=" M 18.79 3.59 C 22.75 2.24 26.80 0.96 31.04 1.03 C 58.69 0.96 86.35 1.01 114.01 1.01 C 118.57 0.89 123.00 2.04 127.23 3.64 C 127.71 3.89 128.68 4.41 129.17 4.67 C 129.66 4.95 130.63 5.49 131.12 5.77 C 132.67 6.88 134.21 8.01 135.63 9.29 C 135.91 9.63 136.47 10.31 136.75 10.65 L 137.15 10.64 C 138.17 12.07 139.21 13.48 140.26 14.89 C 140.53 15.38 141.07 16.35 141.34 16.83 C 141.60 17.31 142.12 18.27 142.38 18.75 C 143.81 22.69 145.02 26.74 144.96 30.98 C 145.05 58.68 144.98 86.39 145.00 114.10 C 145.10 118.60 144.10 123.04 142.41 127.20 C 141.65 128.48 140.94 129.79 140.32 131.14 C 139.22 132.84 137.90 134.38 136.40 135.74 L 136.44 136.48 L 135.73 136.36 C 135.39 136.70 134.71 137.38 134.37 137.72 L 134.43 138.40 L 133.68 138.42 C 131.37 140.30 128.78 141.83 126.02 142.94 C 121.84 144.50 117.39 145.06 112.95 145.00 C 85.62 144.98 58.30 145.04 30.98 144.97 C 26.74 145.04 22.63 144.11 18.78 142.37 C 18.29 142.11 17.32 141.59 16.84 141.33 C 16.35 141.06 15.38 140.52 14.90 140.26 C 13.48 139.22 12.08 138.17 10.65 137.15 L 10.66 136.75 C 10.32 136.47 9.63 135.90 9.29 135.62 C 8.00 134.21 6.86 132.67 5.72 131.14 C 5.46 130.65 4.93 129.67 4.67 129.18 C 4.42 128.69 3.90 127.72 3.65 127.23 C 2.03 122.98 0.87 118.53 1.01 113.95 C 0.97 86.64 1.02 59.34 0.99 32.03 C 0.95 27.49 2.11 23.06 3.60 18.80 C 4.40 17.45 5.10 16.06 5.74 14.63 L 6.21 14.63 C 7.00 12.92 8.27 11.51 9.64 10.24 L 9.62 9.83 C 11.09 8.82 12.49 7.71 13.77 6.46 L 14.20 6.44 C 15.59 5.28 17.20 4.44 18.79 3.59 M 54.08 33.92 C 43.42 38.65 34.92 47.94 31.10 58.95 C 27.31 69.45 28.08 81.34 32.67 91.47 C 40.93 87.18 49.85 84.19 59.05 82.74 C 59.05 75.35 59.05 67.96 59.05 60.57 C 67.45 60.57 75.85 60.56 84.26 60.57 C 84.25 67.96 84.26 75.36 84.25 82.75 C 93.46 84.20 102.39 87.20 110.66 91.50 C 114.77 82.31 115.90 71.72 113.18 61.98 C 110.01 50.08 101.47 39.75 90.36 34.45 C 79.14 28.90 65.45 28.69 54.08 33.92 M 35.64 96.69 C 43.55 108.68 57.59 116.42 72.02 116.11 C 86.20 116.16 99.87 108.47 107.67 96.71 C 85.57 84.90 57.74 84.87 35.64 96.69 Z" />
</g>
<g id="#005992ff">
<path fill="#005992" opacity="1.00" d=" M 54.08 33.92 C 65.45 28.69 79.14 28.90 90.36 34.45 C 101.47 39.75 110.01 50.08 113.18 61.98 C 115.90 71.72 114.77 82.31 110.66 91.50 C 102.39 87.20 93.46 84.20 84.25 82.75 C 84.26 75.36 84.25 67.96 84.26 60.57 C 75.85 60.56 67.45 60.57 59.05 60.57 C 59.05 67.96 59.05 75.35 59.05 82.74 C 49.85 84.19 40.93 87.18 32.67 91.47 C 28.08 81.34 27.31 69.45 31.10 58.95 C 34.92 47.94 43.42 38.65 54.08 33.92 Z" />
</g>
<g id="#d71149ff">
<path fill="#d71149" opacity="1.00" d=" M 35.64 96.69 C 57.74 84.87 85.57 84.90 107.67 96.71 C 99.87 108.47 86.20 116.16 72.02 116.11 C 57.59 116.42 43.55 108.68 35.64 96.69 Z" />
</g>
</svg>
