<?xml version="1.0" encoding="UTF-8" ?>
<!DOCTYPE svg PUBLIC "-//W3C//DTD SVG 1.1//EN" "http://www.w3.org/Graphics/SVG/1.1/DTD/svg11.dtd">
<svg width="146pt" height="146pt" viewBox="0 0 146 146" version="1.1" xmlns="http://www.w3.org/2000/svg">
<g id="#fefefeff">
<path fill="#fefefe" opacity="1.00" d=" M 18.79 3.61 C 23.02 2.06 27.41 0.95 31.95 1.01 C 59.30 0.98 86.65 1.00 114.00 1.00 C 118.52 0.96 122.93 2.00 127.12 3.61 C 127.63 3.88 128.64 4.40 129.15 4.66 C 129.64 4.92 130.62 5.45 131.11 5.71 C 132.69 6.83 134.20 8.04 135.62 9.35 C 135.89 9.61 136.41 10.13 136.68 10.39 C 137.95 11.83 139.16 13.33 140.30 14.89 C 140.97 16.20 141.67 17.51 142.39 18.80 C 144.17 23.31 145.18 28.07 145.01 32.95 C 144.97 60.36 145.05 87.76 144.97 115.17 C 144.98 119.33 143.81 123.32 142.40 127.20 C 141.65 128.46 140.95 129.75 140.32 131.07 C 139.21 132.67 137.96 134.17 136.65 135.62 C 136.39 135.88 135.88 136.40 135.62 136.67 C 134.22 137.99 132.74 139.23 131.16 140.34 C 130.66 140.59 129.65 141.08 129.15 141.33 C 128.66 141.59 127.70 142.11 127.22 142.37 C 123.30 143.84 119.25 145.06 115.02 144.97 C 86.99 145.03 58.97 145.01 30.95 144.98 C 26.75 145.10 22.76 143.82 18.88 142.39 C 18.38 142.13 17.37 141.61 16.86 141.35 C 16.37 141.08 15.38 140.55 14.89 140.28 C 13.29 139.17 11.77 137.96 10.34 136.65 C 10.09 136.40 9.60 135.90 9.35 135.65 C 8.04 134.21 6.82 132.69 5.72 131.10 C 5.46 130.61 4.94 129.63 4.68 129.15 C 4.41 128.64 3.88 127.64 3.61 127.14 C 2.04 122.95 0.96 118.55 1.00 114.06 C 0.99 87.04 1.01 60.02 0.99 33.00 C 0.92 28.17 1.98 23.42 3.57 18.89 C 4.35 17.23 5.27 15.63 6.42 14.21 L 6.50 13.76 C 7.77 12.28 9.05 10.80 10.37 9.36 C 11.80 8.05 13.29 6.80 14.89 5.70 C 16.21 5.04 17.51 4.33 18.79 3.61 M 37.05 25.91 C 36.97 32.63 36.91 39.36 37.08 46.08 C 37.14 49.12 39.91 51.67 42.92 51.67 C 48.32 51.87 53.74 51.66 59.15 51.73 C 59.15 49.86 59.15 47.98 59.15 46.11 C 54.16 45.92 49.12 46.47 44.16 45.87 C 42.18 45.07 42.91 42.67 42.70 41.01 C 42.86 36.02 42.44 31.01 42.93 26.03 C 43.21 25.74 43.76 25.15 44.04 24.86 C 49.36 24.31 54.73 24.78 60.08 24.60 C 61.58 24.72 64.28 24.24 64.46 26.39 C 64.82 30.99 64.48 35.60 64.60 40.20 C 66.50 40.20 68.40 40.20 70.31 40.20 C 70.22 34.81 70.47 29.41 70.23 24.01 C 70.20 20.87 67.04 18.69 64.08 19.01 C 57.35 19.01 50.63 18.91 43.91 19.06 C 40.27 19.02 36.96 22.24 37.05 25.91 M 75.20 25.92 C 75.10 34.52 75.21 43.12 75.17 51.73 C 77.08 51.73 78.98 51.73 80.89 51.73 C 80.97 43.47 80.77 35.21 80.96 26.95 C 80.79 25.25 82.55 24.44 84.00 24.65 C 89.33 24.60 94.68 24.56 100.01 24.68 C 101.85 24.46 102.95 26.34 102.73 27.97 C 102.65 33.52 103.03 39.12 102.52 44.65 C 101.22 46.92 98.15 45.84 96.03 46.15 C 96.03 48.01 96.04 49.87 96.04 51.74 C 99.63 51.47 104.05 52.73 106.86 49.83 C 108.90 47.79 108.41 44.68 108.50 42.06 C 108.34 36.38 108.70 30.69 108.33 25.02 C 108.01 21.48 104.54 18.86 101.08 19.03 C 94.68 18.98 88.28 18.93 81.88 19.06 C 78.23 18.97 75.02 22.27 75.20 25.92 M 48.43 30.23 C 48.38 33.57 48.44 36.92 48.45 40.26 C 52.02 40.18 55.58 40.19 59.15 40.20 C 59.15 36.88 59.15 33.55 59.15 30.22 C 55.58 30.22 52.00 30.23 48.43 30.23 M 86.85 30.22 C 86.85 33.55 86.85 36.87 86.85 40.20 C 90.58 40.20 94.30 40.20 98.02 40.20 C 98.02 36.87 98.02 33.55 98.02 30.22 C 94.30 30.23 90.58 30.23 86.85 30.22 M 64.58 46.16 C 64.58 48.05 64.58 49.95 64.57 51.84 C 66.49 51.84 68.40 51.84 70.31 51.84 C 70.30 49.95 70.30 48.05 70.31 46.16 C 68.40 46.16 66.49 46.16 64.58 46.16 M 85.63 46.10 C 85.63 47.97 85.63 49.85 85.63 51.73 C 87.56 51.73 89.49 51.73 91.42 51.73 C 91.41 49.85 91.41 47.97 91.41 46.10 C 89.49 46.10 87.56 46.10 85.63 46.10 M 38.54 61.50 C 36.65 63.92 37.08 67.17 36.99 70.04 C 37.14 75.04 36.84 80.05 37.11 85.04 C 37.19 88.54 40.59 91.22 43.99 90.97 C 51.03 91.01 58.07 91.05 65.11 90.95 C 67.84 91.12 70.42 88.78 70.27 85.99 C 70.46 80.55 70.26 75.10 70.33 69.65 C 68.42 69.65 66.51 69.65 64.61 69.65 C 64.47 74.31 64.87 79.00 64.45 83.65 C 64.27 83.96 63.93 84.59 63.76 84.90 C 59.63 85.96 55.24 85.11 51.01 85.38 C 48.45 85.19 45.61 85.93 43.24 84.77 C 42.10 80.00 43.07 74.91 42.72 70.02 C 42.82 67.96 42.19 64.55 44.96 64.04 C 53.40 63.66 61.87 64.01 70.31 63.89 C 70.32 62.02 70.33 60.15 70.34 58.28 C 62.20 58.26 54.06 58.25 45.91 58.26 C 43.13 58.14 40.17 59.13 38.54 61.50 M 75.05 58.06 C 75.01 63.40 75.03 68.74 75.03 74.07 C 77.01 74.07 78.99 74.08 80.97 74.08 C 80.97 70.71 80.98 67.33 80.98 63.96 C 84.47 63.96 87.96 63.96 91.46 63.95 C 91.46 61.98 91.46 60.01 91.46 58.05 C 85.99 58.04 80.52 58.03 75.05 58.06 M 102.18 58.20 C 102.18 60.06 102.18 61.92 102.19 63.78 C 104.19 63.78 106.20 63.78 108.20 63.78 C 108.20 61.92 108.20 60.07 108.21 58.22 C 106.20 58.21 104.19 58.21 102.18 58.20 M 96.17 63.90 C 96.17 65.76 96.17 67.61 96.17 69.47 C 98.17 69.47 100.18 69.46 102.18 69.46 C 102.18 67.61 102.18 65.76 102.18 63.91 C 100.18 63.90 98.17 63.90 96.17 63.90 M 85.23 68.95 C 85.42 72.43 85.40 75.91 85.37 79.38 C 81.93 79.38 78.49 79.39 75.06 79.41 C 75.02 83.27 75.02 87.14 75.03 91.00 C 77.01 91.00 78.99 91.00 80.97 91.00 C 80.98 89.11 80.98 87.21 80.99 85.32 C 83.86 85.32 86.74 85.53 89.61 85.33 C 90.91 84.97 91.92 83.58 91.52 82.18 C 91.54 77.72 91.44 73.27 91.49 68.81 C 89.40 68.88 87.32 68.93 85.23 68.95 M 48.42 79.61 C 52.05 79.71 55.69 79.56 59.32 79.57 C 59.11 76.27 59.12 72.96 59.15 69.65 C 55.58 69.65 52.00 69.65 48.43 69.64 C 48.42 72.96 48.42 76.29 48.42 79.61 M 96.07 75.37 C 96.06 77.23 96.06 79.10 96.06 80.96 C 98.48 80.96 100.90 80.97 103.33 80.96 C 103.32 82.37 103.32 83.77 103.33 85.18 C 99.57 85.16 95.77 85.51 92.07 84.69 C 91.39 86.68 91.22 88.79 91.20 90.88 C 97.13 90.89 103.06 90.88 109.00 90.89 C 109.00 85.72 109.01 80.55 108.99 75.37 C 104.68 75.38 100.38 75.38 96.07 75.37 M 31.18 106.06 C 33.29 111.31 36.42 116.09 38.76 121.25 C 39.88 123.47 40.85 126.75 43.99 126.42 C 47.14 126.83 48.23 123.55 49.32 121.29 C 51.67 116.08 54.90 111.28 57.00 105.97 C 58.37 102.18 53.20 97.92 50.10 101.07 C 47.56 104.33 46.22 108.33 44.23 111.92 C 42.42 108.61 40.89 105.14 38.91 101.91 C 38.13 100.29 36.19 100.17 34.69 99.67 C 32.48 100.92 30.20 103.28 31.18 106.06 M 58.07 110.20 C 57.08 115.39 57.49 120.85 57.86 126.11 C 58.42 126.12 59.54 126.15 60.10 126.16 C 61.20 122.58 60.37 118.69 60.64 114.99 C 60.48 113.13 61.23 108.92 58.07 110.20 M 62.81 110.18 C 62.48 115.47 62.53 120.77 62.78 126.07 C 66.22 126.06 69.69 126.38 73.12 125.91 C 74.52 121.51 68.07 123.59 65.66 123.12 C 65.66 122.28 65.66 120.59 65.66 119.75 C 68.29 119.40 73.48 121.21 73.22 116.83 C 70.70 116.63 68.17 116.60 65.65 116.59 C 65.65 115.49 65.65 114.40 65.65 113.31 C 68.07 113.32 70.52 113.47 72.91 113.01 C 72.93 112.31 72.97 110.92 72.98 110.23 C 69.59 110.18 66.20 110.19 62.81 110.18 M 74.28 110.42 C 72.20 112.61 75.64 113.63 77.38 113.54 C 77.45 117.57 77.17 121.62 77.51 125.65 C 78.20 125.84 79.58 126.21 80.27 126.40 C 80.47 122.11 80.45 117.82 80.40 113.54 C 82.17 113.47 85.23 112.77 83.50 110.45 C 80.46 109.95 77.32 110.00 74.28 110.42 M 86.34 121.74 C 87.58 125.31 91.51 126.53 94.97 126.31 C 94.64 125.65 93.99 124.33 93.67 123.67 C 92.06 122.99 89.96 122.58 89.31 120.71 C 87.72 117.58 89.92 112.70 93.83 113.34 C 97.31 113.65 97.83 117.63 97.80 120.40 C 96.45 119.27 94.81 118.53 93.03 118.41 C 94.18 121.08 95.58 123.64 97.00 126.18 C 97.71 126.13 99.12 126.04 99.83 125.99 C 99.61 125.51 99.17 124.56 98.95 124.08 C 102.81 119.33 100.78 110.51 94.07 109.96 C 87.85 109.03 83.79 116.50 86.34 121.74 M 102.49 110.37 C 102.49 115.53 102.50 120.70 102.48 125.88 C 103.57 125.88 104.66 125.89 105.76 125.90 C 105.72 123.27 105.43 120.50 106.73 118.10 C 108.08 120.81 109.71 123.36 111.27 125.96 C 112.50 126.01 113.73 126.07 114.96 126.12 C 113.98 124.54 113.01 122.96 112.05 121.38 C 114.84 119.13 115.88 114.57 113.08 111.92 C 110.12 109.52 105.99 110.59 102.49 110.37 Z" />
<path fill="#fefefe" opacity="1.00" d=" M 105.87 113.06 C 107.34 113.24 108.91 113.11 110.32 113.67 C 112.09 114.47 111.04 116.78 111.23 118.24 C 109.35 117.67 107.44 117.27 105.52 116.88 C 105.61 115.92 105.78 114.01 105.87 113.06 Z" />
</g>
<g id="#015892ff">
<path fill="#015892" opacity="1.00" d=" M 37.05 25.91 C 36.96 22.24 40.27 19.02 43.91 19.06 C 50.63 18.91 57.35 19.01 64.08 19.01 C 67.04 18.69 70.20 20.87 70.23 24.01 C 70.47 29.41 70.22 34.81 70.31 40.20 C 68.40 40.20 66.50 40.20 64.60 40.20 C 64.48 35.60 64.82 30.99 64.46 26.39 C 64.28 24.24 61.58 24.72 60.08 24.60 C 54.73 24.78 49.36 24.31 44.04 24.86 C 43.76 25.15 43.21 25.74 42.93 26.03 C 42.44 31.01 42.86 36.02 42.70 41.01 C 42.91 42.67 42.18 45.07 44.16 45.87 C 49.12 46.47 54.16 45.92 59.15 46.11 C 59.15 47.98 59.15 49.86 59.15 51.73 C 53.74 51.66 48.32 51.87 42.92 51.67 C 39.91 51.67 37.14 49.12 37.08 46.08 C 36.91 39.36 36.97 32.63 37.05 25.91 Z" />
<path fill="#015892" opacity="1.00" d=" M 75.20 25.92 C 75.02 22.27 78.23 18.97 81.88 19.06 C 88.28 18.93 94.68 18.98 101.08 19.03 C 104.54 18.86 108.01 21.48 108.33 25.02 C 108.70 30.69 108.34 36.38 108.50 42.06 C 108.41 44.68 108.90 47.79 106.86 49.83 C 104.05 52.73 99.63 51.47 96.04 51.74 C 96.04 49.87 96.03 48.01 96.03 46.15 C 98.15 45.84 101.22 46.92 102.52 44.65 C 103.03 39.12 102.65 33.52 102.73 27.97 C 102.95 26.34 101.85 24.46 100.01 24.68 C 94.68 24.56 89.33 24.60 84.00 24.65 C 82.55 24.44 80.79 25.25 80.96 26.95 C 80.77 35.21 80.97 43.47 80.89 51.73 C 78.98 51.73 77.08 51.73 75.17 51.73 C 75.21 43.12 75.10 34.52 75.20 25.92 Z" />
<path fill="#015892" opacity="1.00" d=" M 48.43 30.23 C 52.00 30.23 55.58 30.22 59.15 30.22 C 59.15 33.55 59.15 36.88 59.15 40.20 C 55.58 40.19 52.02 40.18 48.45 40.26 C 48.44 36.92 48.38 33.57 48.43 30.23 Z" />
<path fill="#015892" opacity="1.00" d=" M 86.85 30.22 C 90.58 30.23 94.30 30.23 98.02 30.22 C 98.02 33.55 98.02 36.87 98.02 40.20 C 94.30 40.20 90.58 40.20 86.85 40.20 C 86.85 36.87 86.85 33.55 86.85 30.22 Z" />
<path fill="#015892" opacity="1.00" d=" M 64.58 46.16 C 66.49 46.16 68.40 46.16 70.31 46.16 C 70.30 48.05 70.30 49.95 70.31 51.84 C 68.40 51.84 66.49 51.84 64.57 51.84 C 64.58 49.95 64.58 48.05 64.58 46.16 Z" />
<path fill="#015892" opacity="1.00" d=" M 85.63 46.10 C 87.56 46.10 89.49 46.10 91.41 46.10 C 91.41 47.97 91.41 49.85 91.42 51.73 C 89.49 51.73 87.56 51.73 85.63 51.73 C 85.63 49.85 85.63 47.97 85.63 46.10 Z" />
<path fill="#015892" opacity="1.00" d=" M 38.54 61.50 C 40.17 59.13 43.13 58.14 45.91 58.26 C 54.06 58.25 62.20 58.26 70.34 58.28 C 70.33 60.15 70.32 62.02 70.31 63.89 C 61.87 64.01 53.40 63.66 44.96 64.04 C 42.19 64.55 42.82 67.96 42.72 70.02 C 43.07 74.91 42.10 80.00 43.24 84.77 C 45.61 85.93 48.45 85.19 51.01 85.38 C 55.24 85.11 59.63 85.96 63.76 84.90 C 63.93 84.59 64.27 83.96 64.45 83.65 C 64.87 79.00 64.47 74.31 64.61 69.65 C 66.51 69.65 68.42 69.65 70.33 69.65 C 70.26 75.10 70.46 80.55 70.27 85.99 C 70.42 88.78 67.84 91.12 65.11 90.95 C 58.07 91.05 51.03 91.01 43.99 90.97 C 40.59 91.22 37.19 88.54 37.11 85.04 C 36.84 80.05 37.14 75.04 36.99 70.04 C 37.08 67.17 36.65 63.92 38.54 61.50 Z" />
<path fill="#015892" opacity="1.00" d=" M 48.42 79.61 C 48.42 76.29 48.42 72.96 48.43 69.64 C 52.00 69.65 55.58 69.65 59.15 69.65 C 59.12 72.96 59.11 76.27 59.32 79.57 C 55.69 79.56 52.05 79.71 48.42 79.61 Z" />
<path fill="#015892" opacity="1.00" d=" M 86.34 121.74 C 83.79 116.50 87.85 109.03 94.07 109.96 C 100.78 110.51 102.81 119.33 98.95 124.08 C 99.17 124.56 99.61 125.51 99.83 125.99 C 99.12 126.04 97.71 126.13 97.00 126.18 C 95.58 123.64 94.18 121.08 93.03 118.41 C 94.81 118.53 96.45 119.27 97.80 120.40 C 97.83 117.63 97.31 113.65 93.83 113.34 C 89.92 112.70 87.72 117.58 89.31 120.71 C 89.96 122.58 92.06 122.99 93.67 123.67 C 93.99 124.33 94.64 125.65 94.97 126.31 C 91.51 126.53 87.58 125.31 86.34 121.74 Z" />
<path fill="#015892" opacity="1.00" d=" M 102.49 110.37 C 105.99 110.59 110.12 109.52 113.08 111.92 C 115.88 114.57 114.84 119.13 112.05 121.38 C 113.01 122.96 113.98 124.54 114.96 126.12 C 113.73 126.07 112.50 126.01 111.27 125.96 C 109.71 123.36 108.08 120.81 106.73 118.10 C 105.43 120.50 105.72 123.27 105.76 125.90 C 104.66 125.89 103.57 125.88 102.48 125.88 C 102.50 120.70 102.49 115.53 102.49 110.37 M 105.87 113.06 C 105.78 114.01 105.61 115.92 105.52 116.88 C 107.44 117.27 109.35 117.67 111.23 118.24 C 111.04 116.78 112.09 114.47 110.32 113.67 C 108.91 113.11 107.34 113.24 105.87 113.06 Z" />
</g>
<g id="#00a7e1ff">
<path fill="#00a7e1" opacity="1.00" d=" M 75.05 58.06 C 80.52 58.03 85.99 58.04 91.46 58.05 C 91.46 60.01 91.46 61.98 91.46 63.95 C 87.96 63.96 84.47 63.96 80.98 63.96 C 80.98 67.33 80.97 70.71 80.97 74.08 C 78.99 74.08 77.01 74.07 75.03 74.07 C 75.03 68.74 75.01 63.40 75.05 58.06 Z" />
<path fill="#00a7e1" opacity="1.00" d=" M 102.18 58.20 C 104.19 58.21 106.20 58.21 108.21 58.22 C 108.20 60.07 108.20 61.92 108.20 63.78 C 106.20 63.78 104.19 63.78 102.19 63.78 C 102.18 61.92 102.18 60.06 102.18 58.20 Z" />
<path fill="#00a7e1" opacity="1.00" d=" M 96.17 63.90 C 98.17 63.90 100.18 63.90 102.18 63.91 C 102.18 65.76 102.18 67.61 102.18 69.46 C 100.18 69.46 98.17 69.47 96.17 69.47 C 96.17 67.61 96.17 65.76 96.17 63.90 Z" />
<path fill="#00a7e1" opacity="1.00" d=" M 85.23 68.95 C 87.32 68.93 89.40 68.88 91.49 68.81 C 91.44 73.27 91.54 77.72 91.52 82.18 C 91.92 83.58 90.91 84.97 89.61 85.33 C 86.74 85.53 83.86 85.32 80.99 85.32 C 80.98 87.21 80.98 89.11 80.97 91.00 C 78.99 91.00 77.01 91.00 75.03 91.00 C 75.02 87.14 75.02 83.27 75.06 79.41 C 78.49 79.39 81.93 79.38 85.37 79.38 C 85.40 75.91 85.42 72.43 85.23 68.95 Z" />
<path fill="#00a7e1" opacity="1.00" d=" M 96.07 75.37 C 100.38 75.38 104.68 75.38 108.99 75.37 C 109.01 80.55 109.00 85.72 109.00 90.89 C 103.06 90.88 97.13 90.89 91.20 90.88 C 91.22 88.79 91.39 86.68 92.07 84.69 C 95.77 85.51 99.57 85.16 103.33 85.18 C 103.32 83.77 103.32 82.37 103.33 80.96 C 100.90 80.97 98.48 80.96 96.06 80.96 C 96.06 79.10 96.06 77.23 96.07 75.37 Z" />
</g>
<g id="#ed1b2fff">
<path fill="#ed1b2f" opacity="1.00" d=" M 31.18 106.06 C 30.20 103.28 32.48 100.92 34.69 99.67 C 34.18 101.08 33.67 102.50 33.16 103.91 C 34.86 107.16 36.01 110.91 38.79 113.43 C 40.70 114.88 42.93 113.46 44.23 111.92 C 46.22 108.33 47.56 104.33 50.10 101.07 C 53.20 97.92 58.37 102.18 57.00 105.97 C 54.90 111.28 51.67 116.08 49.32 121.29 C 48.23 123.55 47.14 126.83 43.99 126.42 C 40.85 126.75 39.88 123.47 38.76 121.25 C 36.42 116.09 33.29 111.31 31.18 106.06 Z" />
<path fill="#ed1b2f" opacity="1.00" d=" M 58.07 110.20 C 61.23 108.92 60.48 113.13 60.64 114.99 C 60.37 118.69 61.20 122.58 60.10 126.16 C 59.54 126.15 58.42 126.12 57.86 126.11 C 57.49 120.85 57.08 115.39 58.07 110.20 Z" />
<path fill="#ed1b2f" opacity="1.00" d=" M 62.81 110.18 C 66.20 110.19 69.59 110.18 72.98 110.23 C 72.97 110.92 72.93 112.31 72.91 113.01 C 70.52 113.47 68.07 113.32 65.65 113.31 C 65.65 114.40 65.65 115.49 65.65 116.59 C 68.17 116.60 70.70 116.63 73.22 116.83 C 73.48 121.21 68.29 119.40 65.66 119.75 C 65.66 120.59 65.66 122.28 65.66 123.12 C 68.07 123.59 74.52 121.51 73.12 125.91 C 69.69 126.38 66.22 126.06 62.78 126.07 C 62.53 120.77 62.48 115.47 62.81 110.18 Z" />
<path fill="#ed1b2f" opacity="1.00" d=" M 74.28 110.42 C 77.32 110.00 80.46 109.95 83.50 110.45 C 85.23 112.77 82.17 113.47 80.40 113.54 C 80.45 117.82 80.47 122.11 80.27 126.40 C 79.58 126.21 78.20 125.84 77.51 125.65 C 77.17 121.62 77.45 117.57 77.38 113.54 C 75.64 113.63 72.20 112.61 74.28 110.42 Z" />
</g>
<g id="#a02c23fe">
<path fill="#a02c23" opacity="1.00" d=" M 34.69 99.67 C 36.19 100.17 38.13 100.29 38.91 101.91 C 40.89 105.14 42.42 108.61 44.23 111.92 C 42.93 113.46 40.70 114.88 38.79 113.43 C 36.01 110.91 34.86 107.16 33.16 103.91 C 33.67 102.50 34.18 101.08 34.69 99.67 Z" />
</g>
</svg>
