<?xml version="1.0" encoding="UTF-8" ?>
<!DOCTYPE svg PUBLIC "-//W3C//DTD SVG 1.1//EN" "http://www.w3.org/Graphics/SVG/1.1/DTD/svg11.dtd">
<svg width="57pt" height="54pt" viewBox="0 0 57 54" version="1.1" xmlns="http://www.w3.org/2000/svg">
<g id="#005993fe">
<path fill="#005993" opacity="1.00" d=" M 40.60 0.00 L 43.45 0.00 C 44.78 12.87 43.49 25.89 44.14 38.81 C 48.64 35.75 50.48 29.52 55.99 27.97 C 56.14 32.58 52.39 35.52 49.88 38.86 C 47.64 41.47 45.85 44.60 42.96 46.55 C 39.49 45.93 37.89 41.72 35.53 39.36 C 33.27 35.81 28.54 33.03 29.26 28.27 C 33.57 28.73 35.36 33.48 37.97 36.33 C 38.54 36.49 39.68 36.82 40.25 36.98 C 40.48 24.66 39.76 12.30 40.60 0.00 Z" />
<path fill="#005993" opacity="1.00" d=" M 0.00 25.06 C 2.84 18.23 8.57 13.24 12.89 7.36 C 13.46 7.39 14.62 7.45 15.19 7.48 C 19.40 13.44 25.51 18.31 27.99 25.33 C 27.21 25.40 25.67 25.53 24.90 25.60 C 22.16 22.17 19.45 18.71 16.26 15.69 C 15.57 28.45 16.64 41.25 15.64 54.00 L 12.78 54.00 C 11.84 41.24 12.73 28.42 12.29 15.63 C 8.53 18.29 5.96 22.15 3.06 25.64 C 2.29 25.53 0.76 25.33 0.00 25.23 L 0.00 25.06 Z" />
</g>
</svg>
