<?xml version="1.0" encoding="UTF-8" ?>
<!DOCTYPE svg PUBLIC "-//W3C//DTD SVG 1.1//EN" "http://www.w3.org/Graphics/SVG/1.1/DTD/svg11.dtd">
<svg width="66pt" height="65pt" viewBox="0 0 66 65" version="1.1" xmlns="http://www.w3.org/2000/svg">
<g id="#045891fe">
<path fill="#045891" opacity="1.00" d=" M 15.43 0.00 L 18.46 0.00 C 18.44 1.79 18.50 3.90 20.23 4.93 C 22.76 5.33 25.36 5.32 27.89 4.97 C 29.40 3.78 29.32 1.73 29.35 0.00 L 32.45 0.00 C 32.76 1.79 33.14 3.56 33.58 5.31 C 36.75 5.27 39.92 5.28 43.09 5.25 C 43.67 3.49 44.25 1.72 44.93 0.00 L 46.00 0.00 C 46.71 1.59 47.27 3.27 48.22 4.74 C 50.52 5.59 52.99 5.88 55.26 6.80 C 58.90 8.81 61.58 12.72 61.66 16.94 C 61.86 21.85 61.73 26.77 61.53 31.68 C 60.46 31.78 59.39 31.86 58.31 31.91 C 58.01 26.98 58.48 22.02 57.96 17.10 C 57.48 12.28 52.87 8.96 48.24 8.78 C 47.46 10.38 46.65 11.97 45.82 13.54 C 44.67 12.12 43.63 10.62 42.71 9.03 C 39.79 8.99 36.87 9.00 33.95 9.00 C 33.31 10.24 32.69 11.50 32.07 12.76 C 31.41 12.57 30.75 12.52 30.07 12.61 C 29.35 11.49 29.23 9.81 27.96 9.15 C 25.10 8.80 22.16 8.79 19.32 9.32 C 18.84 10.39 18.41 11.49 18.03 12.60 C 17.29 12.59 16.55 12.64 15.82 12.75 C 15.33 11.44 14.83 10.13 14.32 8.82 C 9.28 8.63 4.28 12.66 4.32 17.89 C 4.09 27.96 4.23 38.04 4.25 48.12 C 4.02 52.90 8.17 57.19 12.85 57.60 C 19.28 58.21 25.78 57.30 32.20 58.03 C 32.45 58.64 32.93 59.87 33.18 60.48 C 27.85 61.51 22.41 60.98 17.02 61.11 C 13.25 61.06 9.05 61.38 5.89 58.94 C 2.36 56.54 0.63 52.20 0.77 48.02 C 0.76 38.35 0.82 28.67 0.75 18.99 C 0.65 15.22 1.71 11.21 4.62 8.64 C 7.15 6.15 10.83 5.67 14.18 5.13 C 14.75 3.46 15.24 1.76 15.43 0.00 Z" />
<path fill="#045891" opacity="1.00" d=" M 13.34 26.79 C 14.65 25.24 16.36 26.05 17.92 26.63 C 17.73 28.65 17.79 31.30 14.95 30.62 C 13.34 29.80 12.80 28.52 13.34 26.79 Z" />
<path fill="#045891" opacity="1.00" d=" M 29.51 26.35 C 30.88 25.97 32.31 26.16 33.62 26.66 C 34.01 28.35 33.50 29.65 32.08 30.58 C 29.80 31.04 27.41 28.11 29.51 26.35 Z" />
<path fill="#045891" opacity="1.00" d=" M 44.49 28.95 C 43.12 25.43 47.54 26.08 49.61 26.57 C 50.50 29.84 45.89 32.31 44.49 28.95 Z" />
<path fill="#045891" opacity="1.00" d=" M 47.43 36.74 C 55.15 34.41 63.99 40.02 65.26 47.95 C 66.99 55.92 60.83 64.29 52.69 65.00 L 48.75 65.00 C 43.34 63.67 38.32 59.63 37.24 53.96 C 35.31 46.72 40.11 38.46 47.43 36.74 M 49.19 40.23 C 44.64 41.12 40.67 45.28 40.57 50.00 C 40.02 55.41 44.64 60.65 49.97 61.18 C 55.84 61.93 61.76 56.83 61.83 50.90 C 61.98 44.56 55.55 38.71 49.19 40.23 Z" />
<path fill="#045891" opacity="1.00" d=" M 14.14 39.33 C 16.39 37.20 19.58 41.31 17.01 42.88 C 14.89 45.69 11.33 40.39 14.14 39.33 Z" />
<path fill="#045891" opacity="1.00" d=" M 28.32 41.04 C 29.20 40.24 30.06 39.41 30.90 38.56 C 31.62 38.87 33.05 39.48 33.76 39.78 C 33.89 41.39 33.33 42.67 32.08 43.62 C 30.21 43.84 29.21 42.40 28.32 41.04 Z" />
<path fill="#045891" opacity="1.00" d=" M 48.51 45.50 C 49.23 45.44 50.66 45.33 51.37 45.27 C 51.44 46.16 51.59 47.93 51.66 48.81 C 53.18 49.63 54.41 50.83 55.78 51.84 C 55.38 52.34 54.58 53.34 54.18 53.83 C 52.28 53.77 50.38 53.67 48.48 53.52 C 48.24 50.85 47.99 48.15 48.51 45.50 Z" />
</g>
</svg>
