<?xml version="1.0" encoding="UTF-8" ?>
<!DOCTYPE svg PUBLIC "-//W3C//DTD SVG 1.1//EN" "http://www.w3.org/Graphics/SVG/1.1/DTD/svg11.dtd">
<svg width="146pt" height="146pt" viewBox="0 0 146 146" version="1.1" xmlns="http://www.w3.org/2000/svg">
<g id="#ffffffff">
<path fill="#ffffff" opacity="1.00" d=" M 29.44 0.00 L 32.03 0.00 C 31.78 1.71 35.24 1.78 34.80 0.00 L 37.62 0.00 C 39.17 1.40 42.97 2.10 44.07 0.00 L 50.68 0.00 C 51.83 1.43 55.35 2.05 56.02 0.00 L 61.95 0.00 C 62.81 1.57 63.41 1.57 63.77 0.00 L 87.03 0.00 C 86.78 1.71 90.24 1.78 89.79 0.00 L 93.02 0.00 L 92.98 0.63 L 93.55 0.66 L 93.65 0.00 L 112.14 0.00 C 112.57 1.56 113.19 1.56 114.01 0.00 L 118.66 0.00 C 120.57 0.64 122.54 1.08 124.48 1.61 C 126.19 2.19 127.84 2.90 129.45 3.71 C 130.02 3.96 131.17 4.46 131.74 4.71 C 134.25 6.52 136.19 9.03 138.89 10.58 C 139.10 11.13 139.51 12.24 139.71 12.79 C 140.73 14.11 141.84 15.35 142.98 16.58 C 143.01 17.00 143.08 17.85 143.11 18.27 C 143.58 19.38 144.03 20.49 144.45 21.61 C 144.97 23.89 145.21 26.22 146.00 28.43 L 146.00 32.03 C 144.29 31.78 144.22 35.24 146.00 34.80 L 146.00 44.95 C 144.43 45.81 144.43 46.41 146.00 46.77 L 146.00 52.58 C 144.57 54.54 143.91 58.52 146.00 60.15 L 146.00 65.03 C 144.29 64.78 144.22 68.24 146.00 67.80 L 146.00 101.03 C 144.29 100.78 144.22 104.24 146.00 103.79 L 146.00 113.03 C 144.29 112.77 144.22 116.24 146.00 115.79 L 146.00 118.61 C 145.12 121.17 144.96 123.93 143.90 126.44 C 143.10 127.82 142.39 129.24 141.74 130.70 C 139.84 134.72 135.65 136.93 133.48 140.77 C 132.12 141.15 130.79 141.64 129.46 142.13 C 128.94 142.45 127.91 143.09 127.39 143.42 C 124.94 144.63 122.26 145.19 119.68 146.00 L 107.38 146.00 C 105.83 144.60 102.03 143.90 100.93 146.00 L 92.01 146.00 C 91.32 144.44 90.69 144.44 90.12 146.00 L 87.95 146.00 C 87.30 144.40 86.71 144.40 86.20 146.00 L 84.42 146.00 C 82.45 144.57 78.48 143.92 76.85 146.00 L 74.01 146.00 C 73.32 144.44 72.69 144.44 72.12 146.00 L 53.98 146.00 L 53.99 145.29 C 53.84 145.47 53.53 145.82 53.37 146.00 L 45.95 146.00 C 45.30 144.40 44.71 144.40 44.20 146.00 L 41.31 146.00 C 39.98 144.27 37.02 144.28 35.69 146.00 L 33.41 146.00 C 29.72 144.25 25.57 145.51 21.72 144.57 C 19.98 143.88 18.25 143.15 16.55 142.36 C 10.85 139.18 6.26 134.32 3.15 128.60 C 2.63 127.22 2.10 125.85 1.63 124.45 C 1.08 122.52 0.64 120.56 0.00 118.66 L 0.00 110.04 C 1.78 109.42 1.78 105.58 0.00 104.96 L 0.00 99.04 C 1.78 98.42 1.78 94.58 0.00 93.96 L 0.00 89.97 C 1.71 90.22 1.78 86.76 0.00 87.21 L 0.00 76.97 C 1.71 77.22 1.78 73.76 0.00 74.20 L 0.00 71.05 C 1.57 70.19 1.57 69.58 0.00 69.23 L 0.00 67.42 C 1.43 65.45 2.08 61.49 0.00 59.85 L 0.00 53.02 C 1.72 52.86 1.84 49.11 0.00 49.14 L 0.00 39.42 C 1.74 37.30 1.73 33.69 0.00 31.57 L 0.00 28.40 C 0.78 26.20 1.04 23.87 1.58 21.61 C 1.91 20.61 2.25 19.62 2.59 18.63 C 4.22 15.41 6.37 12.51 8.33 9.49 C 10.76 7.89 12.69 5.63 15.27 4.24 C 16.37 3.76 17.46 3.24 18.54 2.73 C 21.74 0.23 25.93 1.60 29.44 0.00 M 64.01 21.96 C 51.26 24.16 39.45 31.50 31.96 42.06 C 30.02 44.14 32.19 48.01 35.03 46.91 C 36.71 45.62 37.89 43.84 39.29 42.29 C 48.25 31.81 62.34 26.09 76.06 27.13 C 88.96 27.90 101.30 34.66 109.00 45.03 C 116.25 54.46 119.01 66.74 117.69 78.46 C 115.50 77.94 111.91 77.80 112.04 80.99 C 113.19 84.59 114.15 88.76 117.00 91.39 C 121.00 90.56 125.85 89.45 128.41 86.02 C 128.64 82.80 125.12 82.67 122.82 82.72 C 125.76 68.93 122.66 54.06 114.50 42.57 C 103.50 26.80 82.93 18.24 64.01 21.96 M 45.40 51.48 C 46.84 51.97 48.24 52.72 49.78 52.82 C 54.87 49.11 59.14 42.89 66.06 42.85 C 68.84 42.67 70.58 45.47 70.27 48.00 C 70.53 53.02 66.15 56.41 62.13 58.45 C 62.20 55.95 62.63 53.44 62.22 50.95 C 60.60 49.94 59.70 51.95 59.02 53.00 C 57.18 56.94 59.02 61.33 59.16 65.44 C 55.05 67.77 50.29 68.83 46.53 71.79 C 51.94 76.36 56.64 81.82 60.00 88.06 C 58.53 92.20 56.81 96.35 54.14 99.89 C 52.52 94.39 52.82 88.55 51.21 83.05 C 50.38 80.63 51.04 77.00 48.00 76.02 C 43.94 74.27 39.62 71.05 40.13 66.05 C 39.82 66.06 39.20 66.06 38.89 66.06 C 38.87 70.79 38.54 75.60 39.78 80.23 C 42.87 93.52 54.53 104.30 68.09 106.11 C 78.30 107.77 88.83 104.13 96.48 97.35 C 94.79 95.13 92.11 93.14 92.06 90.11 C 92.96 86.86 96.45 85.65 99.06 84.09 C 100.71 85.10 102.34 86.16 103.95 87.24 C 106.60 81.23 107.76 74.67 107.28 68.12 C 105.98 70.08 104.34 71.85 103.35 74.01 C 102.89 76.26 103.32 78.59 102.87 80.84 C 101.84 82.81 99.11 82.75 97.77 81.15 C 96.22 79.77 97.35 77.61 97.27 75.86 C 96.85 75.31 96.00 74.22 95.57 73.68 C 94.44 75.48 93.42 77.34 92.24 79.11 C 90.46 77.40 89.90 74.85 88.80 72.72 C 87.48 73.44 86.17 74.18 84.87 74.93 C 83.58 72.97 82.28 71.01 80.68 69.29 C 81.30 72.46 83.20 75.10 84.49 78.00 C 82.36 82.34 79.85 86.88 75.87 89.80 C 73.75 86.32 74.39 82.15 73.65 78.33 C 71.67 75.69 66.36 74.48 67.44 70.39 C 67.82 67.78 70.27 66.56 72.47 65.72 C 72.73 62.81 72.68 59.75 74.33 57.20 C 75.68 53.74 80.55 56.22 82.57 53.64 C 84.11 52.12 85.13 50.05 87.01 48.91 C 92.03 48.71 96.18 52.47 101.26 52.27 C 94.52 42.65 82.79 36.75 71.02 37.59 C 60.92 38.08 51.52 43.55 45.40 51.48 M 17.92 56.95 C 16.34 60.56 20.43 61.70 23.17 61.27 C 19.20 79.69 26.29 100.08 41.12 111.77 C 53.07 121.13 69.31 125.19 84.15 121.62 C 96.22 118.94 107.52 111.85 114.37 101.46 C 116.06 99.26 113.52 96.14 111.00 97.09 C 109.29 98.35 108.11 100.16 106.69 101.73 C 97.30 112.73 82.24 118.44 67.90 116.69 C 53.80 115.21 40.75 106.51 33.84 94.15 C 28.33 84.64 26.91 73.18 28.90 62.46 C 30.53 63.60 32.77 65.65 34.62 63.63 C 36.84 61.45 34.24 58.87 32.93 57.00 C 31.47 55.40 30.35 52.95 28.06 52.52 C 24.53 53.56 20.95 54.83 17.92 56.95 M 39.62 63.60 C 40.03 64.28 40.44 64.96 40.87 65.64 C 41.81 62.62 43.35 59.71 42.94 56.44 C 41.49 58.65 40.52 61.13 39.62 63.60 Z" />
</g>
<g id="#d71249ff">
<path fill="#d71249" opacity="1.00" d=" M 64.01 21.96 C 82.93 18.24 103.50 26.80 114.50 42.57 C 122.66 54.06 125.76 68.93 122.82 82.72 C 125.12 82.67 128.64 82.80 128.41 86.02 C 125.85 89.45 121.00 90.56 117.00 91.39 C 114.15 88.76 113.19 84.59 112.04 80.99 C 111.91 77.80 115.50 77.94 117.69 78.46 C 119.01 66.74 116.25 54.46 109.00 45.03 C 101.30 34.66 88.96 27.90 76.06 27.13 C 62.34 26.09 48.25 31.81 39.29 42.29 C 37.89 43.84 36.71 45.62 35.03 46.91 C 32.19 48.01 30.02 44.14 31.96 42.06 C 39.45 31.50 51.26 24.16 64.01 21.96 Z" />
<path fill="#d71249" opacity="1.00" d=" M 17.92 56.95 C 20.95 54.83 24.53 53.56 28.06 52.52 C 30.35 52.95 31.47 55.40 32.93 57.00 C 34.24 58.87 36.84 61.45 34.62 63.63 C 32.77 65.65 30.53 63.60 28.90 62.46 C 26.91 73.18 28.33 84.64 33.84 94.15 C 40.75 106.51 53.80 115.21 67.90 116.69 C 82.24 118.44 97.30 112.73 106.69 101.73 C 108.11 100.16 109.29 98.35 111.00 97.09 C 113.52 96.14 116.06 99.26 114.37 101.46 C 107.52 111.85 96.22 118.94 84.15 121.62 C 69.31 125.19 53.07 121.13 41.12 111.77 C 26.29 100.08 19.20 79.69 23.17 61.27 C 20.43 61.70 16.34 60.56 17.92 56.95 Z" />
</g>
<g id="#005993ff">
<path fill="#005993" opacity="1.00" d=" M 45.40 51.48 C 51.52 43.55 60.92 38.08 71.02 37.59 C 82.79 36.75 94.52 42.65 101.26 52.27 C 96.18 52.47 92.03 48.71 87.01 48.91 C 85.13 50.05 84.11 52.12 82.57 53.64 C 80.55 56.22 75.68 53.74 74.33 57.20 C 72.68 59.75 72.73 62.81 72.47 65.72 C 70.27 66.56 67.82 67.78 67.44 70.39 C 66.36 74.48 71.67 75.69 73.65 78.33 C 74.39 82.15 73.75 86.32 75.87 89.80 C 79.85 86.88 82.36 82.34 84.49 78.00 C 83.20 75.10 81.30 72.46 80.68 69.29 C 82.28 71.01 83.58 72.97 84.87 74.93 C 86.17 74.18 87.48 73.44 88.80 72.72 C 89.90 74.85 90.46 77.40 92.24 79.11 C 93.42 77.34 94.44 75.48 95.57 73.68 C 96.00 74.22 96.85 75.31 97.27 75.86 C 97.35 77.61 96.22 79.77 97.77 81.15 C 99.11 82.75 101.84 82.81 102.87 80.84 C 103.32 78.59 102.89 76.26 103.35 74.01 C 104.34 71.85 105.98 70.08 107.28 68.12 C 107.76 74.67 106.60 81.23 103.95 87.24 C 102.34 86.16 100.71 85.10 99.06 84.09 C 96.45 85.65 92.96 86.86 92.06 90.11 C 92.11 93.14 94.79 95.13 96.48 97.35 C 88.83 104.13 78.30 107.77 68.09 106.11 C 54.53 104.30 42.87 93.52 39.78 80.23 C 38.54 75.60 38.87 70.79 38.89 66.06 C 39.20 66.06 39.82 66.06 40.13 66.05 C 39.62 71.05 43.94 74.27 48.00 76.02 C 51.04 77.00 50.38 80.63 51.21 83.05 C 52.82 88.55 52.52 94.39 54.14 99.89 C 56.81 96.35 58.53 92.20 60.00 88.06 C 56.64 81.82 51.94 76.36 46.53 71.79 C 50.29 68.83 55.05 67.77 59.16 65.44 C 59.02 61.33 57.18 56.94 59.02 53.00 C 59.70 51.95 60.60 49.94 62.22 50.95 C 62.63 53.44 62.20 55.95 62.13 58.45 C 66.15 56.41 70.53 53.02 70.27 48.00 C 70.58 45.47 68.84 42.67 66.06 42.85 C 59.14 42.89 54.87 49.11 49.78 52.82 C 48.24 52.72 46.84 51.97 45.40 51.48 Z" />
<path fill="#005993" opacity="1.00" d=" M 39.62 63.60 C 40.52 61.13 41.49 58.65 42.94 56.44 C 43.35 59.71 41.81 62.62 40.87 65.64 C 40.44 64.96 40.03 64.28 39.62 63.60 Z" />
</g>
</svg>
