<?xml version="1.0" encoding="UTF-8" ?>
<!DOCTYPE svg PUBLIC "-//W3C//DTD SVG 1.1//EN" "http://www.w3.org/Graphics/SVG/1.1/DTD/svg11.dtd">
<svg width="147pt" height="160pt" viewBox="0 0 147 160" version="1.1" xmlns="http://www.w3.org/2000/svg">
<g id="#566f86ff">
<path fill="#566f86" opacity="1.00" d=" M 120.37 0.00 L 124.42 0.00 C 136.29 1.15 146.83 11.76 146.24 23.98 C 146.78 35.49 137.38 46.03 126.14 47.66 C 114.85 49.64 102.85 42.05 99.72 31.05 C 97.55 23.38 98.94 14.45 104.40 8.45 C 108.41 3.69 114.29 0.93 120.37 0.00 M 118.42 13.32 C 112.72 17.03 112.69 25.36 114.70 31.16 C 116.49 37.01 125.13 38.43 128.83 33.70 C 132.18 28.97 132.22 22.31 129.99 17.11 C 128.24 12.70 122.46 11.10 118.42 13.32 Z" />
<path fill="#566f86" opacity="1.00" d=" M 119.43 16.57 C 121.68 14.89 125.46 15.41 126.78 18.02 C 128.50 20.69 128.19 24.04 128.04 27.06 C 127.83 29.80 126.10 33.23 122.95 33.19 C 119.40 33.80 117.13 30.10 116.98 27.01 C 116.79 23.45 116.49 19.17 119.43 16.57 Z" />
<path fill="#566f86" opacity="1.00" d=" M 37.51 31.71 C 47.27 25.38 59.60 23.78 70.86 26.16 C 88.85 29.81 103.25 45.97 105.38 64.12 C 106.65 71.88 104.33 80.17 107.73 87.55 C 112.00 96.31 116.06 105.18 119.63 114.25 C 121.87 119.52 121.66 125.90 118.67 130.84 C 115.77 135.72 110.58 139.33 104.88 139.85 C 96.44 140.39 87.94 139.54 79.51 140.32 C 81.22 150.16 72.27 160.71 62.10 159.62 C 52.95 158.53 46.39 148.96 47.73 140.05 C 38.14 139.94 28.54 140.09 18.94 139.98 C 11.84 139.97 5.09 135.33 2.31 128.84 C 0.63 125.12 0.58 120.86 1.39 116.92 C 2.76 110.48 5.14 104.27 8.39 98.55 C 11.43 93.01 15.27 87.56 15.89 81.10 C 16.50 74.75 15.51 68.28 16.90 62.00 C 19.07 49.57 26.77 38.32 37.51 31.71 M 40.35 72.32 C 37.47 74.29 38.03 79.37 41.34 80.57 C 44.29 81.88 47.84 79.20 47.50 76.02 C 47.73 72.47 43.12 70.02 40.35 72.32 M 78.46 72.51 C 75.68 74.73 76.67 79.95 80.23 80.74 C 83.12 81.62 86.23 78.95 85.86 75.97 C 86.05 72.30 81.17 69.93 78.46 72.51 M 42.22 97.26 C 40.65 97.62 39.49 99.60 40.23 101.12 C 42.11 107.07 46.32 112.36 51.93 115.19 C 57.56 117.99 64.34 118.22 70.24 116.13 C 76.99 113.71 82.09 107.73 84.19 100.97 C 85.10 98.84 82.50 96.41 80.38 97.31 C 78.64 98.03 78.36 100.11 77.51 101.57 C 74.83 107.93 67.96 112.19 61.05 111.51 C 54.51 111.33 48.74 106.65 46.44 100.65 C 45.83 98.82 44.53 96.55 42.22 97.26 Z" />
</g>
<g id="#b1bfcdff">
<path fill="#b1bfcd" opacity="1.00" d=" M 118.42 13.32 C 122.46 11.10 128.24 12.70 129.99 17.11 C 132.22 22.31 132.18 28.97 128.83 33.70 C 125.13 38.43 116.49 37.01 114.70 31.16 C 112.69 25.36 112.72 17.03 118.42 13.32 M 119.43 16.57 C 116.49 19.17 116.79 23.45 116.98 27.01 C 117.13 30.10 119.40 33.80 122.95 33.19 C 126.10 33.23 127.83 29.80 128.04 27.06 C 128.19 24.04 128.50 20.69 126.78 18.02 C 125.46 15.41 121.68 14.89 119.43 16.57 Z" />
<path fill="#b1bfcd" opacity="1.00" d=" M 40.35 72.32 C 43.12 70.02 47.73 72.47 47.50 76.02 C 47.84 79.20 44.29 81.88 41.34 80.57 C 38.03 79.37 37.47 74.29 40.35 72.32 Z" />
<path fill="#b1bfcd" opacity="1.00" d=" M 78.46 72.51 C 81.17 69.93 86.05 72.30 85.86 75.97 C 86.23 78.95 83.12 81.62 80.23 80.74 C 76.67 79.95 75.68 74.73 78.46 72.51 Z" />
<path fill="#b1bfcd" opacity="1.00" d=" M 42.22 97.26 C 44.53 96.55 45.83 98.82 46.44 100.65 C 48.74 106.65 54.51 111.33 61.05 111.51 C 67.96 112.19 74.83 107.93 77.51 101.57 C 78.36 100.11 78.64 98.03 80.38 97.31 C 82.50 96.41 85.10 98.84 84.19 100.97 C 82.09 107.73 76.99 113.71 70.24 116.13 C 64.34 118.22 57.56 117.99 51.93 115.19 C 46.32 112.36 42.11 107.07 40.23 101.12 C 39.49 99.60 40.65 97.62 42.22 97.26 Z" />
</g>
</svg>
