<?xml version="1.0" encoding="UTF-8" standalone="no"?>
<!DOCTYPE svg PUBLIC "-//W3C//DTD SVG 1.1//EN" "http://www.w3.org/Graphics/SVG/1.1/DTD/svg11.dtd">
<svg xmlns="http://www.w3.org/2000/svg" version="1.1" viewBox="0.00 0.00 144.00 144.00">
<g stroke-width="2.00" fill="none" stroke-linecap="butt">
<path stroke="#e887a2" vector-effect="non-scaling-stroke" d="
  M 73.17 119.71
  C 99.88 106.34 115.45 79.95 114.76 50.22
  A 0.60 0.59 -84.5 0 0 114.30 49.65
  Q 96.88 45.70 96.64 28.26
  Q 96.63 27.72 96.11 27.56
  Q 72.49 20.51 48.92 27.58
  Q 48.42 27.73 48.42 28.25
  Q 48.33 45.79 30.84 49.60
  A 0.60 0.60 0.0 0 0 30.37 50.16
  C 29.29 79.75 45.48 106.21 71.97 119.71
  Q 72.57 120.01 73.17 119.71"
/>
<path stroke="#e887a2" vector-effect="non-scaling-stroke" d="
  M 77.42 67.57
  A 0.43 0.43 0.0 0 1 76.99 67.14
  L 76.99 54.22
  A 0.43 0.43 0.0 0 0 76.56 53.79
  L 68.58 53.78
  A 0.43 0.43 0.0 0 0 68.15 54.21
  L 68.18 67.15
  A 0.43 0.43 0.0 0 1 67.75 67.58
  L 54.80 67.58
  A 0.43 0.43 0.0 0 0 54.37 68.01
  L 54.42 75.99
  A 0.43 0.43 0.0 0 0 54.85 76.42
  L 67.74 76.42
  A 0.43 0.43 0.0 0 1 68.17 76.85
  L 68.18 89.78
  A 0.43 0.43 0.0 0 0 68.61 90.21
  L 76.56 90.21
  A 0.43 0.43 0.0 0 0 76.99 89.78
  L 76.99 76.84
  A 0.43 0.43 0.0 0 1 77.42 76.41
  L 90.32 76.43
  A 0.43 0.43 0.0 0 0 90.75 76.00
  L 90.74 68.02
  A 0.43 0.43 0.0 0 0 90.31 67.59
  L 77.42 67.57"
/>
</g>
<path fill="#fcfcfc" d="
  M 27.88 0.00
  L 116.24 0.00
  Q 118.14 0.51 120.08 0.88
  Q 122.54 1.34 123.88 1.83
  Q 138.92 7.31 142.96 23.28
  Q 143.51 25.45 144.00 27.63
  L 144.00 116.49
  Q 140.11 140.32 116.39 144.00
  L 27.49 144.00
  Q 3.47 140.06 0.00 115.86
  L 0.00 27.77
  Q 0.54 25.52 1.02 23.26
  C 3.41 11.87 12.38 3.14 23.79 0.91
  Q 25.85 0.50 27.88 0.00
  Z
  M 73.17 119.71
  C 99.88 106.34 115.45 79.95 114.76 50.22
  A 0.60 0.59 -84.5 0 0 114.30 49.65
  Q 96.88 45.70 96.64 28.26
  Q 96.63 27.72 96.11 27.56
  Q 72.49 20.51 48.92 27.58
  Q 48.42 27.73 48.42 28.25
  Q 48.33 45.79 30.84 49.60
  A 0.60 0.60 0.0 0 0 30.37 50.16
  C 29.29 79.75 45.48 106.21 71.97 119.71
  Q 72.57 120.01 73.17 119.71
  Z"
/>
<path fill="#d41248" d="
  M 114.76 50.22
  C 115.45 79.95 99.88 106.34 73.17 119.71
  Q 72.57 120.01 71.97 119.71
  C 45.48 106.21 29.29 79.75 30.37 50.16
  A 0.60 0.60 0.0 0 1 30.84 49.60
  Q 48.33 45.79 48.42 28.25
  Q 48.42 27.73 48.92 27.58
  Q 72.49 20.51 96.11 27.56
  Q 96.63 27.72 96.64 28.26
  Q 96.88 45.70 114.30 49.65
  A 0.60 0.59 -84.5 0 1 114.76 50.22
  Z
  M 77.42 67.57
  A 0.43 0.43 0.0 0 1 76.99 67.14
  L 76.99 54.22
  A 0.43 0.43 0.0 0 0 76.56 53.79
  L 68.58 53.78
  A 0.43 0.43 0.0 0 0 68.15 54.21
  L 68.18 67.15
  A 0.43 0.43 0.0 0 1 67.75 67.58
  L 54.80 67.58
  A 0.43 0.43 0.0 0 0 54.37 68.01
  L 54.42 75.99
  A 0.43 0.43 0.0 0 0 54.85 76.42
  L 67.74 76.42
  A 0.43 0.43 0.0 0 1 68.17 76.85
  L 68.18 89.78
  A 0.43 0.43 0.0 0 0 68.61 90.21
  L 76.56 90.21
  A 0.43 0.43 0.0 0 0 76.99 89.78
  L 76.99 76.84
  A 0.43 0.43 0.0 0 1 77.42 76.41
  L 90.32 76.43
  A 0.43 0.43 0.0 0 0 90.75 76.00
  L 90.74 68.02
  A 0.43 0.43 0.0 0 0 90.31 67.59
  L 77.42 67.57
  Z"
/>
<path fill="#fcfcfc" d="
  M 77.42 67.57
  L 90.31 67.59
  A 0.43 0.43 0.0 0 1 90.74 68.02
  L 90.75 76.00
  A 0.43 0.43 0.0 0 1 90.32 76.43
  L 77.42 76.41
  A 0.43 0.43 0.0 0 0 76.99 76.84
  L 76.99 89.78
  A 0.43 0.43 0.0 0 1 76.56 90.21
  L 68.61 90.21
  A 0.43 0.43 0.0 0 1 68.18 89.78
  L 68.17 76.85
  A 0.43 0.43 0.0 0 0 67.74 76.42
  L 54.85 76.42
  A 0.43 0.43 0.0 0 1 54.42 75.99
  L 54.37 68.01
  A 0.43 0.43 0.0 0 1 54.80 67.58
  L 67.75 67.58
  A 0.43 0.43 0.0 0 0 68.18 67.15
  L 68.15 54.21
  A 0.43 0.43 0.0 0 1 68.58 53.78
  L 76.56 53.79
  A 0.43 0.43 0.0 0 1 76.99 54.22
  L 76.99 67.14
  A 0.43 0.43 0.0 0 0 77.42 67.57
  Z"
/>
</svg>
