<?xml version="1.0" encoding="UTF-8" standalone="no"?>
<!DOCTYPE svg PUBLIC "-//W3C//DTD SVG 1.1//EN" "http://www.w3.org/Graphics/SVG/1.1/DTD/svg11.dtd">
<svg xmlns="http://www.w3.org/2000/svg" version="1.1" viewBox="0.00 0.00 144.00 144.00">
<g stroke-width="2.00" fill="none" stroke-linecap="butt">
<path stroke="#7eaac7" vector-effect="non-scaling-stroke" d="
  M 80.14 25.90
  C 85.62 25.96 90.96 24.78 94.98 29.70
  Q 95.34 30.14 95.91 30.12
  L 100.50 29.98
  Q 101.20 29.96 100.96 29.30
  C 98.81 23.47 94.20 20.93 88.09 20.96
  Q 70.47 21.05 54.83 20.99
  C 47.70 20.97 42.18 26.58 42.47 33.74
  Q 42.59 36.75 42.27 39.77
  Q 42.22 40.24 41.91 40.61
  C 40.35 42.44 40.87 46.72 40.95 48.96
  Q 40.97 49.48 41.28 49.90
  Q 42.62 51.75 41.72 53.67
  C 40.50 56.28 41.03 60.67 41.67 63.16
  Q 42.24 65.41 42.28 66.91
  C 42.68 81.99 42.61 97.04 42.40 111.84
  Q 42.34 116.12 43.50 118.78
  C 45.42 123.21 49.89 126.08 54.73 126.03
  Q 70.30 125.88 89.10 126.02
  C 93.86 126.06 98.09 123.62 100.27 119.29
  Q 101.66 116.52 101.59 111.75
  Q 101.39 97.64 101.57 84.32
  Q 101.58 84.00 101.26 84.00
  L 96.83 84.01
  Q 96.60 84.01 96.60 84.24
  Q 96.59 98.29 96.65 111.00
  C 96.67 118.13 92.25 121.17 85.60 121.12
  Q 71.95 121.01 57.45 121.06
  C 51.18 121.08 47.40 117.36 47.40 111.42
  Q 47.43 70.94 47.37 35.73
  C 47.36 31.41 49.50 27.65 53.73 26.38
  C 56.39 25.59 59.33 26.09 62.10 25.87
  Q 62.75 25.81 62.74 26.47
  Q 62.68 29.31 65.63 29.19
  C 69.60 29.03 73.56 29.23 77.42 29.12
  Q 79.75 29.05 79.55 26.54
  Q 79.49 25.89 80.14 25.90"
/>
<path stroke="#bce6f8" vector-effect="non-scaling-stroke" d="
  M 91.68 30.91
  L 94.19 30.69
  Q 95.07 30.62 94.21 30.39
  Q 92.96 30.05 91.61 30.60
  Q 90.62 30.99 91.68 30.91"
/>
<path stroke="#bce6f8" vector-effect="non-scaling-stroke" d="
  M 116.96 50.32
  C 117.73 35.42 106.19 31.55 93.76 33.26
  Q 85.05 34.45 81.98 41.95
  C 80.88 44.62 81.04 47.58 81.01 50.41
  Q 81.00 50.95 80.46 50.97
  Q 71.61 51.26 67.64 58.27
  Q 66.12 60.97 65.98 64.56
  Q 65.81 68.82 66.72 71.66
  Q 68.40 76.88 74.05 79.69
  Q 76.91 81.11 82.63 81.05
  Q 97.70 80.89 113.92 81.07
  C 123.32 81.18 131.20 77.76 131.94 67.16
  C 132.58 57.95 126.73 51.67 117.60 51.05
  Q 116.93 51.00 116.96 50.32"
/>
<path stroke="#bce6f8" vector-effect="non-scaling-stroke" d="
  M 79.9437 39.4061
  A 1.95 0.21 123.5 0 0 81.1951 37.8959
  A 1.95 0.21 123.5 0 0 82.0963 36.1539
  A 1.95 0.21 123.5 0 0 80.8449 37.6641
  A 1.95 0.21 123.5 0 0 79.9437 39.4061"
/>
<path stroke="#bce6f8" vector-effect="non-scaling-stroke" d="
  M 78.79 42.38
  Q 77.97 43.94 78.36 45.83
  Q 78.63 47.17 78.71 45.80
  L 78.90 42.14
  A 0.02 0.01 -42.7 0 0 78.87 42.14
  Q 78.85 42.27 78.79 42.38"
/>
<path stroke="#bce6f8" vector-effect="non-scaling-stroke" d="
  M 77.77 48.49
  Q 78.38 48.21 77.71 48.22
  Q 76.61 48.22 75.49 48.67
  Q 74.80 48.95 75.55 48.96
  Q 76.70 48.97 77.77 48.49"
/>
<path stroke="#bce6f8" vector-effect="non-scaling-stroke" d="
  M 66.51 54.72
  Q 64.64 56.81 64.09 58.86
  Q 63.85 59.79 64.35 58.97
  Q 65.29 57.42 66.51 54.72"
/>
<path stroke="#bce6f8" vector-effect="non-scaling-stroke" d="
  M 66.51 54.72
  Q 67.98 53.51 68.89 52.47
  Q 69.73 51.51 68.69 52.24
  Q 67.22 53.28 66.51 54.72"
/>
<path stroke="#bce6f8" vector-effect="non-scaling-stroke" d="
  M 63.62 63.53
  Q 63.62 63.58 63.62 63.61
  Q 63.62 63.70 63.63 63.61
  Q 63.78 62.00 63.87 60.33
  Q 63.91 59.53 63.59 60.26
  Q 62.91 61.85 63.59 63.41
  Q 63.62 63.47 63.62 63.53"
/>
<path stroke="#bce6f8" vector-effect="non-scaling-stroke" d="
  M 63.70 71.89
  Q 63.77 72.02 63.79 72.15
  Q 63.81 72.32 63.90 72.18
  Q 63.99 72.04 63.96 71.88
  Q 63.74 70.50 63.72 69.02
  Q 63.71 68.05 63.43 68.98
  Q 62.96 70.56 63.70 71.89"
/>
<path stroke="#bce6f8" vector-effect="non-scaling-stroke" d="
  M 66.50 77.25
  Q 67.35 79.18 69.25 79.99"
/>
<path stroke="#bce6f8" vector-effect="non-scaling-stroke" d="
  M 69.25 79.99
  Q 71.74 82.35 75.00 82.99"
/>
<path stroke="#bce6f8" vector-effect="non-scaling-stroke" d="
  M 75.00 82.99
  Q 76.61 84.18 78.17 83.59
  Q 78.64 83.41 78.14 83.35
  L 75.00 82.99"
/>
<path stroke="#bce6f8" vector-effect="non-scaling-stroke" d="
  M 75.00 82.99
  L 69.25 79.99"
/>
<path stroke="#bce6f8" vector-effect="non-scaling-stroke" d="
  M 69.25 79.99
  L 66.50 77.25"
/>
<path stroke="#bce6f8" vector-effect="non-scaling-stroke" d="
  M 66.50 77.25
  L 64.33 73.02
  Q 64.03 72.43 64.18 73.07
  Q 64.74 75.41 66.50 77.25"
/>
<path stroke="#7eaac7" vector-effect="non-scaling-stroke" d="
  M 75.27 114.19
  A 3.27 3.27 0.0 0 0 72.00 110.92
  A 3.27 3.27 0.0 0 0 68.73 114.19
  A 3.27 3.27 0.0 0 0 72.00 117.46
  A 3.27 3.27 0.0 0 0 75.27 114.19"
/>
<path stroke="#bce6f8" vector-effect="non-scaling-stroke" d="
  M 111.35 62.87
  Q 112.49 62.85 111.83 63.78
  C 108.15 68.98 99.33 64.83 101.93 58.58
  Q 103.84 53.96 109.14 55.52
  Q 110.31 55.86 111.02 56.81
  Q 111.51 57.47 112.21 57.04
  L 113.84 56.05
  Q 114.44 55.68 113.98 55.14
  Q 110.52 51.13 105.37 52.09
  C 98.19 53.44 95.80 62.08 101.09 67.04
  C 104.29 70.03 110.25 70.22 113.39 66.83
  Q 115.69 64.35 115.50 60.51
  A 0.53 0.53 0.0 0 0 114.97 60.00
  L 107.51 59.99
  Q 107.01 59.99 107.02 60.49
  L 107.05 62.50
  Q 107.05 62.95 107.50 62.94
  L 111.35 62.87"
/>
<path stroke="#bce6f8" vector-effect="non-scaling-stroke" d="
  M 95.22 62.55
  L 95.31 59.72
  A 0.61 0.61 0.0 0 0 94.71 59.09
  L 92.48 59.05
  A 0.47 0.47 0.0 0 0 92.00 59.52
  L 91.99 62.44
  A 0.69 0.69 0.0 0 1 91.30 63.12
  L 88.22 63.08
  A 0.40 0.40 0.0 0 1 87.87 62.50
  L 93.02 52.51
  A 0.17 0.17 0.0 0 0 92.87 52.27
  L 89.81 52.24
  Q 89.60 52.24 89.50 52.42
  Q 86.90 57.39 84.43 62.35
  Q 83.71 63.80 84.00 65.60
  Q 84.10 66.20 84.70 66.19
  L 91.33 66.15
  Q 92.03 66.14 92.00 66.83
  L 91.93 68.33
  A 0.64 0.64 0.0 0 0 92.58 69.01
  L 94.91 68.98
  A 0.45 0.44 -87.8 0 0 95.34 68.58
  Q 95.42 67.77 95.16 66.99
  Q 95.01 66.54 95.43 66.32
  Q 95.73 66.16 96.05 66.24
  A 0.89 0.88 4.4 0 0 97.13 65.32
  L 97.00 63.66
  Q 96.97 63.14 96.47 62.98
  Q 96.20 62.89 95.92 63.02
  Q 95.19 63.36 95.22 62.55"
/>
</g>
<path fill="#fcfcfc" d="
  M 28.14 0.00
  L 115.98 0.00
  Q 140.37 3.64 144.00 27.85
  L 144.00 116.74
  Q 140.06 140.17 116.63 144.00
  L 27.02 144.00
  Q 3.49 139.69 0.00 116.12
  L 0.00 28.01
  Q 0.51 25.94 0.89 23.83
  C 2.92 12.65 12.12 3.36 23.20 1.03
  Q 25.67 0.51 28.14 0.00
  Z
  M 80.14 25.90
  C 85.62 25.96 90.96 24.78 94.98 29.70
  Q 95.34 30.14 95.91 30.12
  L 100.50 29.98
  Q 101.20 29.96 100.96 29.30
  C 98.81 23.47 94.20 20.93 88.09 20.96
  Q 70.47 21.05 54.83 20.99
  C 47.70 20.97 42.18 26.58 42.47 33.74
  Q 42.59 36.75 42.27 39.77
  Q 42.22 40.24 41.91 40.61
  C 40.35 42.44 40.87 46.72 40.95 48.96
  Q 40.97 49.48 41.28 49.90
  Q 42.62 51.75 41.72 53.67
  C 40.50 56.28 41.03 60.67 41.67 63.16
  Q 42.24 65.41 42.28 66.91
  C 42.68 81.99 42.61 97.04 42.40 111.84
  Q 42.34 116.12 43.50 118.78
  C 45.42 123.21 49.89 126.08 54.73 126.03
  Q 70.30 125.88 89.10 126.02
  C 93.86 126.06 98.09 123.62 100.27 119.29
  Q 101.66 116.52 101.59 111.75
  Q 101.39 97.64 101.57 84.32
  Q 101.58 84.00 101.26 84.00
  L 96.83 84.01
  Q 96.60 84.01 96.60 84.24
  Q 96.59 98.29 96.65 111.00
  C 96.67 118.13 92.25 121.17 85.60 121.12
  Q 71.95 121.01 57.45 121.06
  C 51.18 121.08 47.40 117.36 47.40 111.42
  Q 47.43 70.94 47.37 35.73
  C 47.36 31.41 49.50 27.65 53.73 26.38
  C 56.39 25.59 59.33 26.09 62.10 25.87
  Q 62.75 25.81 62.74 26.47
  Q 62.68 29.31 65.63 29.19
  C 69.60 29.03 73.56 29.23 77.42 29.12
  Q 79.75 29.05 79.55 26.54
  Q 79.49 25.89 80.14 25.90
  Z
  M 91.68 30.91
  L 94.19 30.69
  Q 95.07 30.62 94.21 30.39
  Q 92.96 30.05 91.61 30.60
  Q 90.62 30.99 91.68 30.91
  Z
  M 116.96 50.32
  C 117.73 35.42 106.19 31.55 93.76 33.26
  Q 85.05 34.45 81.98 41.95
  C 80.88 44.62 81.04 47.58 81.01 50.41
  Q 81.00 50.95 80.46 50.97
  Q 71.61 51.26 67.64 58.27
  Q 66.12 60.97 65.98 64.56
  Q 65.81 68.82 66.72 71.66
  Q 68.40 76.88 74.05 79.69
  Q 76.91 81.11 82.63 81.05
  Q 97.70 80.89 113.92 81.07
  C 123.32 81.18 131.20 77.76 131.94 67.16
  C 132.58 57.95 126.73 51.67 117.60 51.05
  Q 116.93 51.00 116.96 50.32
  Z
  M 79.9437 39.4061
  A 1.95 0.21 123.5 0 0 81.1951 37.8959
  A 1.95 0.21 123.5 0 0 82.0963 36.1539
  A 1.95 0.21 123.5 0 0 80.8449 37.6641
  A 1.95 0.21 123.5 0 0 79.9437 39.4061
  Z
  M 78.79 42.38
  Q 77.97 43.94 78.36 45.83
  Q 78.63 47.17 78.71 45.80
  L 78.90 42.14
  A 0.02 0.01 -42.7 0 0 78.87 42.14
  Q 78.85 42.27 78.79 42.38
  Z
  M 77.77 48.49
  Q 78.38 48.21 77.71 48.22
  Q 76.61 48.22 75.49 48.67
  Q 74.80 48.95 75.55 48.96
  Q 76.70 48.97 77.77 48.49
  Z
  M 66.51 54.72
  Q 64.64 56.81 64.09 58.86
  Q 63.85 59.79 64.35 58.97
  Q 65.29 57.42 66.51 54.72
  Q 67.98 53.51 68.89 52.47
  Q 69.73 51.51 68.69 52.24
  Q 67.22 53.28 66.51 54.72
  Z
  M 63.62 63.53
  Q 63.62 63.58 63.62 63.61
  Q 63.62 63.70 63.63 63.61
  Q 63.78 62.00 63.87 60.33
  Q 63.91 59.53 63.59 60.26
  Q 62.91 61.85 63.59 63.41
  Q 63.62 63.47 63.62 63.53
  Z
  M 63.70 71.89
  Q 63.77 72.02 63.79 72.15
  Q 63.81 72.32 63.90 72.18
  Q 63.99 72.04 63.96 71.88
  Q 63.74 70.50 63.72 69.02
  Q 63.71 68.05 63.43 68.98
  Q 62.96 70.56 63.70 71.89
  Z
  M 66.50 77.25
  Q 67.35 79.18 69.25 79.99
  Q 71.74 82.35 75.00 82.99
  Q 76.61 84.18 78.17 83.59
  Q 78.64 83.41 78.14 83.35
  L 75.00 82.99
  L 69.25 79.99
  L 66.50 77.25
  L 64.33 73.02
  Q 64.03 72.43 64.18 73.07
  Q 64.74 75.41 66.50 77.25
  Z
  M 75.27 114.19
  A 3.27 3.27 0.0 0 0 72.00 110.92
  A 3.27 3.27 0.0 0 0 68.73 114.19
  A 3.27 3.27 0.0 0 0 72.00 117.46
  A 3.27 3.27 0.0 0 0 75.27 114.19
  Z"
/>
<path fill="#005891" d="
  M 80.14 25.90
  Q 79.49 25.89 79.55 26.54
  Q 79.75 29.05 77.42 29.12
  C 73.56 29.23 69.60 29.03 65.63 29.19
  Q 62.68 29.31 62.74 26.47
  Q 62.75 25.81 62.10 25.87
  C 59.33 26.09 56.39 25.59 53.73 26.38
  C 49.50 27.65 47.36 31.41 47.37 35.73
  Q 47.43 70.94 47.40 111.42
  C 47.40 117.36 51.18 121.08 57.45 121.06
  Q 71.95 121.01 85.60 121.12
  C 92.25 121.17 96.67 118.13 96.65 111.00
  Q 96.59 98.29 96.60 84.24
  Q 96.60 84.01 96.83 84.01
  L 101.26 84.00
  Q 101.58 84.00 101.57 84.32
  Q 101.39 97.64 101.59 111.75
  Q 101.66 116.52 100.27 119.29
  C 98.09 123.62 93.86 126.06 89.10 126.02
  Q 70.30 125.88 54.73 126.03
  C 49.89 126.08 45.42 123.21 43.50 118.78
  Q 42.34 116.12 42.40 111.84
  C 42.61 97.04 42.68 81.99 42.28 66.91
  Q 42.24 65.41 41.67 63.16
  C 41.03 60.67 40.50 56.28 41.72 53.67
  Q 42.62 51.75 41.28 49.90
  Q 40.97 49.48 40.95 48.96
  C 40.87 46.72 40.35 42.44 41.91 40.61
  Q 42.22 40.24 42.27 39.77
  Q 42.59 36.75 42.47 33.74
  C 42.18 26.58 47.70 20.97 54.83 20.99
  Q 70.47 21.05 88.09 20.96
  C 94.20 20.93 98.81 23.47 100.96 29.30
  Q 101.20 29.96 100.50 29.98
  L 95.91 30.12
  Q 95.34 30.14 94.98 29.70
  C 90.96 24.78 85.62 25.96 80.14 25.90
  Z"
/>
<path fill="#7cd0f4" d="
  M 91.61 30.60
  Q 92.96 30.05 94.21 30.39
  Q 95.07 30.62 94.19 30.69
  L 91.68 30.91
  Q 90.62 30.99 91.61 30.60
  Z"
/>
<path fill="#7cd0f4" d="
  M 117.60 51.05
  C 126.73 51.67 132.58 57.95 131.94 67.16
  C 131.20 77.76 123.32 81.18 113.92 81.07
  Q 97.70 80.89 82.63 81.05
  Q 76.91 81.11 74.05 79.69
  Q 68.40 76.88 66.72 71.66
  Q 65.81 68.82 65.98 64.56
  Q 66.12 60.97 67.64 58.27
  Q 71.61 51.26 80.46 50.97
  Q 81.00 50.95 81.01 50.41
  C 81.04 47.58 80.88 44.62 81.98 41.95
  Q 85.05 34.45 93.76 33.26
  C 106.19 31.55 117.73 35.42 116.96 50.32
  Q 116.93 51.00 117.60 51.05
  Z
  M 111.35 62.87
  Q 112.49 62.85 111.83 63.78
  C 108.15 68.98 99.33 64.83 101.93 58.58
  Q 103.84 53.96 109.14 55.52
  Q 110.31 55.86 111.02 56.81
  Q 111.51 57.47 112.21 57.04
  L 113.84 56.05
  Q 114.44 55.68 113.98 55.14
  Q 110.52 51.13 105.37 52.09
  C 98.19 53.44 95.80 62.08 101.09 67.04
  C 104.29 70.03 110.25 70.22 113.39 66.83
  Q 115.69 64.35 115.50 60.51
  A 0.53 0.53 0.0 0 0 114.97 60.00
  L 107.51 59.99
  Q 107.01 59.99 107.02 60.49
  L 107.05 62.50
  Q 107.05 62.95 107.50 62.94
  L 111.35 62.87
  Z
  M 95.22 62.55
  L 95.31 59.72
  A 0.61 0.61 0.0 0 0 94.71 59.09
  L 92.48 59.05
  A 0.47 0.47 0.0 0 0 92.00 59.52
  L 91.99 62.44
  A 0.69 0.69 0.0 0 1 91.30 63.12
  L 88.22 63.08
  A 0.40 0.40 0.0 0 1 87.87 62.50
  L 93.02 52.51
  A 0.17 0.17 0.0 0 0 92.87 52.27
  L 89.81 52.24
  Q 89.60 52.24 89.50 52.42
  Q 86.90 57.39 84.43 62.35
  Q 83.71 63.80 84.00 65.60
  Q 84.10 66.20 84.70 66.19
  L 91.33 66.15
  Q 92.03 66.14 92.00 66.83
  L 91.93 68.33
  A 0.64 0.64 0.0 0 0 92.58 69.01
  L 94.91 68.98
  A 0.45 0.44 -87.8 0 0 95.34 68.58
  Q 95.42 67.77 95.16 66.99
  Q 95.01 66.54 95.43 66.32
  Q 95.73 66.16 96.05 66.24
  A 0.89 0.88 4.4 0 0 97.13 65.32
  L 97.00 63.66
  Q 96.97 63.14 96.47 62.98
  Q 96.20 62.89 95.92 63.02
  Q 95.19 63.36 95.22 62.55
  Z"
/>
<ellipse fill="#7cd0f4" cx="0.00" cy="0.00" transform="translate(81.02,37.78) rotate(123.5)" rx="1.95" ry="0.21"/>
<path fill="#7cd0f4" d="
  M 78.79 42.38
  Q 78.85 42.27 78.87 42.14
  A 0.02 0.01 -42.7 0 1 78.90 42.14
  L 78.71 45.80
  Q 78.63 47.17 78.36 45.83
  Q 77.97 43.94 78.79 42.38
  Z"
/>
<path fill="#7cd0f4" d="
  M 77.77 48.49
  Q 76.70 48.97 75.55 48.96
  Q 74.80 48.95 75.49 48.67
  Q 76.61 48.22 77.71 48.22
  Q 78.38 48.21 77.77 48.49
  Z"
/>
<path fill="#7cd0f4" d="
  M 66.51 54.72
  Q 67.22 53.28 68.69 52.24
  Q 69.73 51.51 68.89 52.47
  Q 67.98 53.51 66.51 54.72
  Z"
/>
<path fill="#fcfcfc" d="
  M 111.35 62.87
  L 107.50 62.94
  Q 107.05 62.95 107.05 62.50
  L 107.02 60.49
  Q 107.01 59.99 107.51 59.99
  L 114.97 60.00
  A 0.53 0.53 0.0 0 1 115.50 60.51
  Q 115.69 64.35 113.39 66.83
  C 110.25 70.22 104.29 70.03 101.09 67.04
  C 95.80 62.08 98.19 53.44 105.37 52.09
  Q 110.52 51.13 113.98 55.14
  Q 114.44 55.68 113.84 56.05
  L 112.21 57.04
  Q 111.51 57.47 111.02 56.81
  Q 110.31 55.86 109.14 55.52
  Q 103.84 53.96 101.93 58.58
  C 99.33 64.83 108.15 68.98 111.83 63.78
  Q 112.49 62.85 111.35 62.87
  Z"
/>
<path fill="#fcfcfc" d="
  M 95.92 63.02
  Q 96.20 62.89 96.47 62.98
  Q 96.97 63.14 97.00 63.66
  L 97.13 65.32
  A 0.89 0.88 4.4 0 1 96.05 66.24
  Q 95.73 66.16 95.43 66.32
  Q 95.01 66.54 95.16 66.99
  Q 95.42 67.77 95.34 68.58
  A 0.45 0.44 -87.8 0 1 94.91 68.98
  L 92.58 69.01
  A 0.64 0.64 0.0 0 1 91.93 68.33
  L 92.00 66.83
  Q 92.03 66.14 91.33 66.15
  L 84.70 66.19
  Q 84.10 66.20 84.00 65.60
  Q 83.71 63.80 84.43 62.35
  Q 86.90 57.39 89.50 52.42
  Q 89.60 52.24 89.81 52.24
  L 92.87 52.27
  A 0.17 0.17 0.0 0 1 93.02 52.51
  L 87.87 62.50
  A 0.40 0.40 0.0 0 0 88.22 63.08
  L 91.30 63.12
  A 0.69 0.69 0.0 0 0 91.99 62.44
  L 92.00 59.52
  A 0.47 0.47 0.0 0 1 92.48 59.05
  L 94.71 59.09
  A 0.61 0.61 0.0 0 1 95.31 59.72
  L 95.22 62.55
  Q 95.19 63.36 95.92 63.02
  Z"
/>
<path fill="#7cd0f4" d="
  M 66.51 54.72
  Q 65.29 57.42 64.35 58.97
  Q 63.85 59.79 64.09 58.86
  Q 64.64 56.81 66.51 54.72
  Z"
/>
<path fill="#7cd0f4" d="
  M 63.59 63.41
  Q 62.91 61.85 63.59 60.26
  Q 63.91 59.53 63.87 60.33
  Q 63.78 62.00 63.63 63.61
  Q 63.62 63.70 63.62 63.61
  Q 63.62 63.58 63.62 63.53
  Q 63.62 63.47 63.59 63.41
  Z"
/>
<path fill="#7cd0f4" d="
  M 63.70 71.89
  Q 62.96 70.56 63.43 68.98
  Q 63.71 68.05 63.72 69.02
  Q 63.74 70.50 63.96 71.88
  Q 63.99 72.04 63.90 72.18
  Q 63.81 72.32 63.79 72.15
  Q 63.77 72.02 63.70 71.89
  Z"
/>
<path fill="#7cd0f4" d="
  M 66.50 77.25
  Q 64.74 75.41 64.18 73.07
  Q 64.03 72.43 64.33 73.02
  L 66.50 77.25
  Z"
/>
<path fill="#7cd0f4" d="
  M 66.50 77.25
  L 69.25 79.99
  Q 67.35 79.18 66.50 77.25
  Z"
/>
<path fill="#7cd0f4" d="
  M 69.25 79.99
  L 75.00 82.99
  Q 71.74 82.35 69.25 79.99
  Z"
/>
<path fill="#7cd0f4" d="
  M 75.00 82.99
  L 78.14 83.35
  Q 78.64 83.41 78.17 83.59
  Q 76.61 84.18 75.00 82.99
  Z"
/>
<circle fill="#005891" cx="72.00" cy="114.19" r="3.27"/>
</svg>
