<?xml version="1.0" encoding="UTF-8" standalone="no"?>
<!DOCTYPE svg PUBLIC "-//W3C//DTD SVG 1.1//EN" "http://www.w3.org/Graphics/SVG/1.1/DTD/svg11.dtd">
<svg xmlns="http://www.w3.org/2000/svg" version="1.1" viewBox="0.00 0.00 144.00 144.00">
<g stroke-width="2.00" fill="none" stroke-linecap="butt">
<path stroke="#c4dfb0" vector-effect="non-scaling-stroke" d="
  M 41.03 53.50
  L 40.79 54.23"
/>
<path stroke="#bce6f8" vector-effect="non-scaling-stroke" d="
  M 40.79 54.23
  Q 39.85 54.98 39.74 55.75
  Q 37.40 72.25 35.04 88.76
  Q 34.97 89.25 34.46 89.38"
/>
<path stroke="#f4a3b9" vector-effect="non-scaling-stroke" d="
  M 34.46 89.38
  L 21.74 85.05
  A 2.08 2.06 -60.2 0 0 19.49 85.67
  Q 18.64 86.66 19.31 87.93
  Q 20.85 90.89 22.36 93.71
  A 0.89 0.89 0.0 0 1 21.97 94.94
  L 16.00 97.87
  A 1.88 1.87 63.4 0 0 15.16 100.41
  Q 15.64 101.37 16.98 101.83
  Q 24.38 104.42 31.99 107.46"
/>
<path stroke="#bce6f8" vector-effect="non-scaling-stroke" d="
  M 31.99 107.46
  L 21.68 113.91
  A 2.08 2.08 0.0 0 0 21.59 117.37
  Q 30.25 123.47 39.74 130.14
  Q 40.77 130.87 42.00 130.21
  A 1.66 1.64 82.3 0 0 42.85 129.08
  L 45.41 116.77"
/>
<path stroke="#e887a2" vector-effect="non-scaling-stroke" d="
  M 45.41 116.77
  L 60.00 107.09"
/>
<path stroke="#bce6f8" vector-effect="non-scaling-stroke" d="
  M 60.00 107.09
  L 82.73 92.65"
/>
<path stroke="#b0daec" vector-effect="non-scaling-stroke" d="
  M 82.73 92.65
  L 100.63 80.92"
/>
<path stroke="#b2ca9a" vector-effect="non-scaling-stroke" d="
  M 100.63 80.92
  Q 103.94 79.07 106.14 76.36"
/>
<path stroke="#e887a2" vector-effect="non-scaling-stroke" d="
  M 106.14 76.36
  C 109.15 77.72 114.49 80.24 115.78 75.42
  C 117.14 70.36 114.30 64.19 119.43 60.57
  C 123.53 57.66 131.16 52.87 123.00 48.08
  C 119.13 45.81 114.86 44.52 114.36 39.25
  C 113.97 35.17 113.49 25.51 106.25 29.83
  Q 103.11 31.70 99.95 33.32
  A 6.64 6.63 41.6 0 1 94.61 33.63
  L 85.69 30.33"
/>
<path stroke="#b2ca9a" vector-effect="non-scaling-stroke" d="
  M 85.69 30.33
  L 85.41 22.95"
/>
<path stroke="#c4dfb0" vector-effect="non-scaling-stroke" d="
  M 85.41 22.95
  Q 85.47 22.07 85.27 21.49
  A 0.53 0.53 0.0 0 0 84.49 21.21
  L 76.09 26.38"
/>
<path stroke="#f7bbb2" vector-effect="non-scaling-stroke" d="
  M 76.09 26.38
  C 75.84 21.02 77.10 12.57 68.18 16.45
  C 65.34 17.69 61.21 19.81 58.24 18.33
  Q 55.43 16.93 52.64 15.07
  C 44.57 9.69 44.12 19.03 43.47 23.81
  C 42.78 28.90 37.89 30.59 34.03 32.78
  C 26.76 36.90 35.29 42.20 38.36 44.67
  C 41.28 47.00 41.19 49.74 41.03 53.50"
/>
<path stroke="#bf9e66" vector-effect="non-scaling-stroke" d="
  M 76.09 26.38
  Q 75.33 30.59 78.97 33.20"
/>
<path stroke="#ad8950" vector-effect="non-scaling-stroke" d="
  M 78.97 33.20
  Q 79.76 34.12 81.26 34.80"
/>
<path stroke="#e34658" vector-effect="non-scaling-stroke" d="
  M 81.26 34.80
  L 81.00 38.61"
/>
<path stroke="#f79794" vector-effect="non-scaling-stroke" d="
  M 81.00 38.61
  C 79.05 36.18 76.76 32.13 73.18 35.68
  Q 71.68 37.18 68.09 41.58
  Q 66.63 43.37 64.36 43.87"
/>
<path stroke="#f7b096" vector-effect="non-scaling-stroke" d="
  M 64.36 43.87
  Q 67.15 39.90 65.74 36.25
  C 63.04 29.20 53.15 29.46 51.08 36.76
  Q 49.90 40.89 53.15 44.35"
/>
<path stroke="#f79794" vector-effect="non-scaling-stroke" d="
  M 53.15 44.35
  Q 51.67 46.21 51.44 48.85"
/>
<path stroke="#ad8950" vector-effect="non-scaling-stroke" d="
  M 51.44 48.85
  Q 48.67 46.37 45.98 44.05
  Q 44.71 42.95 44.30 43.47"
/>
<path stroke="#bf9e66" vector-effect="non-scaling-stroke" d="
  M 44.30 43.47
  Q 42.35 48.33 41.66 52.89
  Q 41.62 53.18 41.46 53.29
  Q 41.29 53.42 41.03 53.50"
/>
<path stroke="#7aad4d" vector-effect="non-scaling-stroke" d="
  M 85.41 22.95
  Q 85.10 22.47 84.65 22.66
  Q 84.39 22.77 84.21 23.16
  Q 81.82 28.11 78.97 33.20"
/>
<path stroke="#72b496" vector-effect="non-scaling-stroke" d="
  M 57.47 68.80
  L 48.65 59.97"
/>
<path stroke="#7aad4d" vector-effect="non-scaling-stroke" d="
  M 48.65 59.97
  L 44.30 43.47"
/>
<path stroke="#fccdc2" vector-effect="non-scaling-stroke" d="
  M 95.57 47.12
  Q 99.56 49.94 98.15 52.89
  Q 96.77 55.78 93.80 60.59"
/>
<path stroke="#c4bb91" vector-effect="non-scaling-stroke" d="
  M 94.06 66.24
  L 96.60 73.90"
/>
<path stroke="#b2a67b" vector-effect="non-scaling-stroke" d="
  M 96.60 73.90
  Q 96.32 76.54 94.96 76.97"
/>
<path stroke="#b0b6cd" vector-effect="non-scaling-stroke" d="
  M 94.96 76.97
  Q 82.11 76.52 69.11 80.19"
/>
<path stroke="#bcc2da" vector-effect="non-scaling-stroke" d="
  M 69.11 80.19
  L 57.47 68.80"
/>
<path stroke="#b2a67b" vector-effect="non-scaling-stroke" d="
  M 57.47 68.80
  Q 60.77 61.40 55.91 54.57
  Q 53.75 51.54 51.44 48.85"
/>
<path stroke="#fccdc2" vector-effect="non-scaling-stroke" d="
  M 64.36 43.87
  L 53.15 44.35"
/>
<path stroke="#84c9ac" vector-effect="non-scaling-stroke" d="
  M 48.65 59.97
  L 42.58 54.33
  Q 42.19 53.97 41.68 54.07
  L 40.79 54.23"
/>
<path stroke="#9e5540" vector-effect="non-scaling-stroke" d="
  M 106.14 76.36
  Q 110.06 71.31 111.92 64.49"
/>
<path stroke="#b06a56" vector-effect="non-scaling-stroke" d="
  M 111.92 64.49
  Q 111.72 64.16 111.25 64.12
  Q 102.86 63.38 94.06 66.24"
/>
<path stroke="#e86384" vector-effect="non-scaling-stroke" d="
  M 94.06 66.24
  Q 92.64 63.59 93.80 60.59"
/>
<path stroke="#e87c86" vector-effect="non-scaling-stroke" d="
  M 93.80 60.59
  C 101.05 65.49 109.70 58.08 105.37 50.36
  Q 102.53 45.28 95.57 47.12"
/>
<path stroke="#e86384" vector-effect="non-scaling-stroke" d="
  M 95.57 47.12
  Q 91.77 47.33 87.00 45.93
  Q 84.47 45.19 82.86 42.40
  Q 81.35 39.77 81.00 38.61"
/>
<path stroke="#9e5540" vector-effect="non-scaling-stroke" d="
  M 85.69 30.33
  Q 81.83 30.50 81.26 34.80"
/>
<path stroke="#70c4e8" vector-effect="non-scaling-stroke" d="
  M 69.11 80.19
  C 71.81 83.17 74.16 85.71 77.55 88.32
  Q 80.19 90.36 82.73 92.65"
/>
<path stroke="#a8719e" vector-effect="non-scaling-stroke" d="
  M 60.00 107.09
  L 35.11 89.65"
/>
<path stroke="#b48db5" vector-effect="non-scaling-stroke" d="
  M 35.11 89.65
  Q 34.75 89.57 34.46 89.38"
/>
<path stroke="#66a889" vector-effect="non-scaling-stroke" d="
  M 100.63 80.92
  Q 98.75 78.02 94.96 76.97"
/>
<path stroke="#7aad4d" vector-effect="non-scaling-stroke" d="
  M 111.92 64.49
  L 96.60 73.90"
/>
<path stroke="#e02e5f" vector-effect="non-scaling-stroke" d="
  M 35.11 89.65
  L 32.45 107.65"
/>
<path stroke="#b48db5" vector-effect="non-scaling-stroke" d="
  M 32.45 107.65
  Q 32.06 107.57 31.99 107.46"
/>
<path stroke="#a8719e" vector-effect="non-scaling-stroke" d="
  M 45.41 116.77
  L 32.45 107.65"
/>
<path stroke="#fccdc2" vector-effect="non-scaling-stroke" d="
  M 81.48 61.02
  A 7.44 7.44 0.0 0 0 74.04 53.58
  A 7.44 7.44 0.0 0 0 66.60 61.02
  A 7.44 7.44 0.0 0 0 74.04 68.46
  A 7.44 7.44 0.0 0 0 81.48 61.02"
/>
</g>
<path fill="#fcfcfc" d="
  M 28.14 0.00
  L 115.99 0.00
  Q 118.20 0.50 120.41 0.94
  Q 123.01 1.46 124.75 2.18
  Q 141.96 9.23 144.00 28.64
  L 144.00 115.77
  Q 140.73 139.93 116.62 144.00
  L 27.24 144.00
  Q 3.78 139.96 0.00 116.35
  L 0.00 28.01
  Q 0.51 25.67 1.00 23.32
  C 3.33 12.14 12.19 3.30 23.37 0.99
  Q 25.75 0.50 28.14 0.00
  Z
  M 41.03 53.50
  L 40.79 54.23
  Q 39.85 54.98 39.74 55.75
  Q 37.40 72.25 35.04 88.76
  Q 34.97 89.25 34.46 89.38
  L 21.74 85.05
  A 2.08 2.06 -60.2 0 0 19.49 85.67
  Q 18.64 86.66 19.31 87.93
  Q 20.85 90.89 22.36 93.71
  A 0.89 0.89 0.0 0 1 21.97 94.94
  L 16.00 97.87
  A 1.88 1.87 63.4 0 0 15.16 100.41
  Q 15.64 101.37 16.98 101.83
  Q 24.38 104.42 31.99 107.46
  L 21.68 113.91
  A 2.08 2.08 0.0 0 0 21.59 117.37
  Q 30.25 123.47 39.74 130.14
  Q 40.77 130.87 42.00 130.21
  A 1.66 1.64 82.3 0 0 42.85 129.08
  L 45.41 116.77
  L 60.00 107.09
  L 82.73 92.65
  L 100.63 80.92
  Q 103.94 79.07 106.14 76.36
  C 109.15 77.72 114.49 80.24 115.78 75.42
  C 117.14 70.36 114.30 64.19 119.43 60.57
  C 123.53 57.66 131.16 52.87 123.00 48.08
  C 119.13 45.81 114.86 44.52 114.36 39.25
  C 113.97 35.17 113.49 25.51 106.25 29.83
  Q 103.11 31.70 99.95 33.32
  A 6.64 6.63 41.6 0 1 94.61 33.63
  L 85.69 30.33
  L 85.41 22.95
  Q 85.47 22.07 85.27 21.49
  A 0.53 0.53 0.0 0 0 84.49 21.21
  L 76.09 26.38
  C 75.84 21.02 77.10 12.57 68.18 16.45
  C 65.34 17.69 61.21 19.81 58.24 18.33
  Q 55.43 16.93 52.64 15.07
  C 44.57 9.69 44.12 19.03 43.47 23.81
  C 42.78 28.90 37.89 30.59 34.03 32.78
  C 26.76 36.90 35.29 42.20 38.36 44.67
  C 41.28 47.00 41.19 49.74 41.03 53.50
  Z"
/>
<path fill="#f17a68" d="
  M 76.09 26.38
  Q 75.33 30.59 78.97 33.20
  Q 79.76 34.12 81.26 34.80
  L 81.00 38.61
  C 79.05 36.18 76.76 32.13 73.18 35.68
  Q 71.68 37.18 68.09 41.58
  Q 66.63 43.37 64.36 43.87
  Q 67.15 39.90 65.74 36.25
  C 63.04 29.20 53.15 29.46 51.08 36.76
  Q 49.90 40.89 53.15 44.35
  Q 51.67 46.21 51.44 48.85
  Q 48.67 46.37 45.98 44.05
  Q 44.71 42.95 44.30 43.47
  Q 42.35 48.33 41.66 52.89
  Q 41.62 53.18 41.46 53.29
  Q 41.29 53.42 41.03 53.50
  C 41.19 49.74 41.28 47.00 38.36 44.67
  C 35.29 42.20 26.76 36.90 34.03 32.78
  C 37.89 30.59 42.78 28.90 43.47 23.81
  C 44.12 19.03 44.57 9.69 52.64 15.07
  Q 55.43 16.93 58.24 18.33
  C 61.21 19.81 65.34 17.69 68.18 16.45
  C 77.10 12.57 75.84 21.02 76.09 26.38
  Z"
/>
<path fill="#8cc263" d="
  M 85.41 22.95
  Q 85.10 22.47 84.65 22.66
  Q 84.39 22.77 84.21 23.16
  Q 81.82 28.11 78.97 33.20
  Q 75.33 30.59 76.09 26.38
  L 84.49 21.21
  A 0.53 0.53 0.0 0 1 85.27 21.49
  Q 85.47 22.07 85.41 22.95
  Z"
/>
<path fill="#689837" d="
  M 85.41 22.95
  L 85.69 30.33
  Q 81.83 30.50 81.26 34.80
  Q 79.76 34.12 78.97 33.20
  Q 81.82 28.11 84.21 23.16
  Q 84.39 22.77 84.65 22.66
  Q 85.10 22.47 85.41 22.95
  Z"
/>
<path fill="#d41248" d="
  M 106.14 76.36
  Q 110.06 71.31 111.92 64.49
  Q 111.72 64.16 111.25 64.12
  Q 102.86 63.38 94.06 66.24
  Q 92.64 63.59 93.80 60.59
  C 101.05 65.49 109.70 58.08 105.37 50.36
  Q 102.53 45.28 95.57 47.12
  Q 91.77 47.33 87.00 45.93
  Q 84.47 45.19 82.86 42.40
  Q 81.35 39.77 81.00 38.61
  L 81.26 34.80
  Q 81.83 30.50 85.69 30.33
  L 94.61 33.63
  A 6.64 6.63 41.6 0 0 99.95 33.32
  Q 103.11 31.70 106.25 29.83
  C 113.49 25.51 113.97 35.17 114.36 39.25
  C 114.86 44.52 119.13 45.81 123.00 48.08
  C 131.16 52.87 123.53 57.66 119.43 60.57
  C 114.30 64.19 117.14 70.36 115.78 75.42
  C 114.49 80.24 109.15 77.72 106.14 76.36
  Z"
/>
<path fill="#fce5c4" d="
  M 64.36 43.87
  L 53.15 44.35
  Q 49.90 40.89 51.08 36.76
  C 53.15 29.46 63.04 29.20 65.74 36.25
  Q 67.15 39.90 64.36 43.87
  Z"
/>
<path fill="#fcb4bf" d="
  M 81.00 38.61
  Q 81.35 39.77 82.86 42.40
  Q 84.47 45.19 87.00 45.93
  Q 91.77 47.33 95.57 47.12
  Q 99.56 49.94 98.15 52.89
  Q 96.77 55.78 93.80 60.59
  Q 92.64 63.59 94.06 66.24
  L 96.60 73.90
  Q 96.32 76.54 94.96 76.97
  Q 82.11 76.52 69.11 80.19
  L 57.47 68.80
  Q 60.77 61.40 55.91 54.57
  Q 53.75 51.54 51.44 48.85
  Q 51.67 46.21 53.15 44.35
  L 64.36 43.87
  Q 66.63 43.37 68.09 41.58
  Q 71.68 37.18 73.18 35.68
  C 76.76 32.13 79.05 36.18 81.00 38.61
  Z
  M 81.48 61.02
  A 7.44 7.44 0.0 0 0 74.04 53.58
  A 7.44 7.44 0.0 0 0 66.60 61.02
  A 7.44 7.44 0.0 0 0 74.04 68.46
  A 7.44 7.44 0.0 0 0 81.48 61.02
  Z"
/>
<path fill="#689837" d="
  M 51.44 48.85
  Q 53.75 51.54 55.91 54.57
  Q 60.77 61.40 57.47 68.80
  L 48.65 59.97
  L 44.30 43.47
  Q 44.71 42.95 45.98 44.05
  Q 48.67 46.37 51.44 48.85
  Z"
/>
<path fill="#8cc263" d="
  M 44.30 43.47
  L 48.65 59.97
  L 42.58 54.33
  Q 42.19 53.97 41.68 54.07
  L 40.79 54.23
  L 41.03 53.50
  Q 41.29 53.42 41.46 53.29
  Q 41.62 53.18 41.66 52.89
  Q 42.35 48.33 44.30 43.47
  Z"
/>
<path fill="#fce5c4" d="
  M 93.80 60.59
  Q 96.77 55.78 98.15 52.89
  Q 99.56 49.94 95.57 47.12
  Q 102.53 45.28 105.37 50.36
  C 109.70 58.08 101.05 65.49 93.80 60.59
  Z"
/>
<circle fill="#fce5c4" cx="74.04" cy="61.02" r="7.44"/>
<path fill="#7cd0f4" d="
  M 48.65 59.97
  L 57.47 68.80
  L 69.11 80.19
  C 71.81 83.17 74.16 85.71 77.55 88.32
  Q 80.19 90.36 82.73 92.65
  L 60.00 107.09
  L 35.11 89.65
  Q 34.75 89.57 34.46 89.38
  Q 34.97 89.25 35.04 88.76
  Q 37.40 72.25 39.74 55.75
  Q 39.85 54.98 40.79 54.23
  L 41.68 54.07
  Q 42.19 53.97 42.58 54.33
  L 48.65 59.97
  Z"
/>
<path fill="#8cc263" d="
  M 111.92 64.49
  L 96.60 73.90
  L 94.06 66.24
  Q 102.86 63.38 111.25 64.12
  Q 111.72 64.16 111.92 64.49
  Z"
/>
<path fill="#689837" d="
  M 111.92 64.49
  Q 110.06 71.31 106.14 76.36
  Q 103.94 79.07 100.63 80.92
  Q 98.75 78.02 94.96 76.97
  Q 96.32 76.54 96.60 73.90
  L 111.92 64.49
  Z"
/>
<path fill="#64b8db" d="
  M 94.96 76.97
  Q 98.75 78.02 100.63 80.92
  L 82.73 92.65
  Q 80.19 90.36 77.55 88.32
  C 74.16 85.71 71.81 83.17 69.11 80.19
  Q 82.11 76.52 94.96 76.97
  Z"
/>
<path fill="#ec4976" d="
  M 34.46 89.38
  Q 34.75 89.57 35.11 89.65
  L 32.45 107.65
  Q 32.06 107.57 31.99 107.46
  Q 24.38 104.42 16.98 101.83
  Q 15.64 101.37 15.16 100.41
  A 1.88 1.87 63.4 0 1 16.00 97.87
  L 21.97 94.94
  A 0.89 0.89 0.0 0 0 22.36 93.71
  Q 20.85 90.89 19.31 87.93
  Q 18.64 86.66 19.49 85.67
  A 2.08 2.06 -60.2 0 1 21.74 85.05
  L 34.46 89.38
  Z"
/>
<path fill="#d41248" d="
  M 35.11 89.65
  L 60.00 107.09
  L 45.41 116.77
  L 32.45 107.65
  L 35.11 89.65
  Z"
/>
<path fill="#7cd0f4" d="
  M 31.99 107.46
  Q 32.06 107.57 32.45 107.65
  L 45.41 116.77
  L 42.85 129.08
  A 1.66 1.64 82.3 0 1 42.00 130.21
  Q 40.77 130.87 39.74 130.14
  Q 30.25 123.47 21.59 117.37
  A 2.08 2.08 0.0 0 1 21.68 113.91
  L 31.99 107.46
  Z"
/>
</svg>
