<?xml version="1.0" encoding="UTF-8" standalone="no"?>
<!DOCTYPE svg PUBLIC "-//W3C//DTD SVG 1.1//EN" "http://www.w3.org/Graphics/SVG/1.1/DTD/svg11.dtd">
<svg xmlns="http://www.w3.org/2000/svg" version="1.1" viewBox="0.00 0.00 144.00 144.00">
<g stroke-width="2.00" fill="none" stroke-linecap="butt">
<path stroke="#7eaac7" vector-effect="non-scaling-stroke" d="
  M 34.46 64.36
  Q 34.59 65.89 34.60 67.40
  Q 34.77 88.19 34.55 110.34
  Q 34.50 115.61 35.49 118.33
  C 37.43 123.63 42.31 126.06 48.03 126.04
  Q 65.01 125.97 81.94 125.98
  C 89.25 125.98 93.80 119.85 93.76 112.63
  Q 93.72 105.32 93.72 99.24
  A 0.40 0.39 88.6 0 0 93.31 98.84
  L 89.16 99.04
  Q 88.77 99.06 88.77 99.45
  Q 88.72 105.39 88.81 111.03
  C 88.90 116.80 85.27 121.08 79.34 121.07
  Q 63.97 121.04 48.87 121.07
  C 42.93 121.08 39.48 116.60 39.49 110.96
  Q 39.58 71.51 39.52 36.11
  Q 39.51 28.99 45.24 26.61
  C 47.90 25.50 51.49 26.03 54.41 25.90
  Q 55.14 25.87 55.00 26.59
  C 54.66 28.41 56.29 29.28 57.83 29.23
  Q 61.77 29.12 65.55 29.24
  Q 66.06 29.25 66.47 28.94
  Q 74.04 23.10 83.61 21.64
  Q 83.67 21.63 83.66 21.57
  L 83.64 21.30
  A 0.28 0.28 0.0 0 0 83.36 21.04
  Q 65.87 21.04 48.95 20.92
  C 42.97 20.88 38.51 22.49 35.84 27.85
  C 34.07 31.40 34.72 35.85 34.61 39.79
  Q 34.60 40.31 34.19 40.64
  Q 32.85 41.74 32.99 43.56
  C 33.13 45.49 32.91 47.42 33.13 49.32
  Q 33.18 49.78 33.54 50.08
  Q 35.69 51.92 33.68 54.13
  A 1.91 1.83 -21.4 0 0 33.20 55.17
  Q 32.80 58.70 33.29 62.58
  Q 33.32 62.87 33.50 63.09
  Q 33.70 63.33 33.96 63.50
  Q 34.42 63.81 34.46 64.36"
/>
<path stroke="#ecf5f9" vector-effect="non-scaling-stroke" d="
  M 125.98 60.01
  A 35.98 35.98 0.0 0 0 90.00 24.03
  A 35.98 35.98 0.0 0 0 54.02 60.01
  A 35.98 35.98 0.0 0 0 90.00 95.99
  A 35.98 35.98 0.0 0 0 125.98 60.01"
/>
<path stroke="#ecf5f9" vector-effect="non-scaling-stroke" d="
  M 54.47 44.54
  Q 54.53 44.57 54.55 44.51
  Q 55.91 41.05 58.28 37.83
  A 0.22 0.22 0.0 0 0 58.11 37.48
  Q 57.93 37.47 57.83 37.61
  Q 55.64 40.71 54.14 44.15
  Q 54.06 44.33 54.24 44.42
  L 54.47 44.54"
/>
<path stroke="#ecf5f9" vector-effect="non-scaling-stroke" d="
  M 52.1725 50.9997
  A 1.92 0.28 104.4 0 0 52.9212 49.2096
  A 1.92 0.28 104.4 0 0 53.1275 47.2803
  A 1.92 0.28 104.4 0 0 52.3788 49.0704
  A 1.92 0.28 104.4 0 0 52.1725 50.9997"
/>
<path stroke="#ecf5f9" vector-effect="non-scaling-stroke" d="
  M 51.51 52.16
  Q 50.95 53.98 51.49 55.87
  Q 51.77 56.84 51.82 55.84
  Q 51.91 54.01 51.93 52.23
  Q 51.95 50.76 51.51 52.16"
/>
<path stroke="#ecf5f9" vector-effect="non-scaling-stroke" d="
  M 51.52 63.21
  C 51.16 64.14 51.18 66.52 51.49 67.49
  Q 51.90 68.72 51.89 67.42
  L 51.87 63.27
  Q 51.86 62.32 51.52 63.21"
/>
<path stroke="#ecf5f9" vector-effect="non-scaling-stroke" d="
  M 52.9360 72.2554
  A 1.46 0.30 77.5 0 0 52.9129 70.7651
  A 1.46 0.30 77.5 0 0 52.3040 69.4046
  A 1.46 0.30 77.5 0 0 52.3271 70.8949
  A 1.46 0.30 77.5 0 0 52.9360 72.2554"
/>
<path stroke="#ecf5f9" vector-effect="non-scaling-stroke" d="
  M 55.9407 79.0513
  A 2.26 0.26 64.0 0 0 55.1837 76.9060
  A 2.26 0.26 64.0 0 0 53.9593 74.9887
  A 2.26 0.26 64.0 0 0 54.7163 77.1340
  A 2.26 0.26 64.0 0 0 55.9407 79.0513"
/>
<path stroke="#ecf5f9" vector-effect="non-scaling-stroke" d="
  M 75.0295 96.1033
  A 3.32 0.27 27.7 0 0 72.2155 94.3209
  A 3.32 0.27 27.7 0 0 69.1505 93.0167
  A 3.32 0.27 27.7 0 0 71.9645 94.7991
  A 3.32 0.27 27.7 0 0 75.0295 96.1033"
/>
<path stroke="#ecf5f9" vector-effect="non-scaling-stroke" d="
  M 81.3040 97.9199
  A 1.85 0.31 12.8 0 0 79.5687 97.2077
  A 1.85 0.31 12.8 0 0 77.6960 97.1001
  A 1.85 0.31 12.8 0 0 79.4313 97.8123
  A 1.85 0.31 12.8 0 0 81.3040 97.9199"
/>
<path stroke="#ecf5f9" vector-effect="non-scaling-stroke" d="
  M 86.0096 98.4567
  A 1.91 0.33 1.1 0 0 84.1063 98.0901
  A 1.91 0.33 1.1 0 0 82.1904 98.3833
  A 1.91 0.33 1.1 0 0 84.0937 98.7499
  A 1.91 0.33 1.1 0 0 86.0096 98.4567"
/>
<path stroke="#7eaac7" vector-effect="non-scaling-stroke" d="
  M 67.44 114.19
  A 3.27 3.27 0.0 0 0 64.17 110.92
  A 3.27 3.27 0.0 0 0 60.90 114.19
  A 3.27 3.27 0.0 0 0 64.17 117.46
  A 3.27 3.27 0.0 0 0 67.44 114.19"
/>
<path stroke="#6ec7ec" vector-effect="non-scaling-stroke" d="
  M 98.78 65.78
  C 100.16 58.91 102.80 54.95 110.49 54.99
  C 114.74 55.01 117.42 50.94 116.89 47.02
  C 115.75 38.55 103.84 39.23 103.54 48.10
  C 103.38 53.00 100.56 57.57 95.95 59.09
  C 86.18 62.34 80.47 52.71 78.08 44.74
  C 76.95 40.98 73.53 38.46 69.65 39.18
  C 62.73 40.46 60.67 49.05 66.06 53.54
  C 68.30 55.41 71.59 55.05 74.36 55.30
  C 80.83 55.89 87.53 59.93 87.32 67.10
  Q 87.18 72.02 82.54 72.51
  C 77.47 73.05 76.82 79.99 81.49 81.71
  C 84.37 82.76 87.45 80.12 87.29 77.16
  C 87.13 74.07 87.02 71.07 91.07 70.81
  C 94.76 70.56 97.92 70.10 98.78 65.78"
/>
</g>
<path fill="#fcfcfc" d="
  M 28.12 0.00
  L 116.00 0.00
  Q 140.47 3.66 144.00 28.11
  L 144.00 115.99
  Q 141.45 136.16 122.50 142.73
  Q 121.03 143.24 115.87 144.00
  L 27.97 144.00
  Q 3.59 140.42 0.00 115.87
  L 0.00 27.99
  Q 3.62 3.56 28.12 0.00
  Z
  M 34.46 64.36
  Q 34.59 65.89 34.60 67.40
  Q 34.77 88.19 34.55 110.34
  Q 34.50 115.61 35.49 118.33
  C 37.43 123.63 42.31 126.06 48.03 126.04
  Q 65.01 125.97 81.94 125.98
  C 89.25 125.98 93.80 119.85 93.76 112.63
  Q 93.72 105.32 93.72 99.24
  A 0.40 0.39 88.6 0 0 93.31 98.84
  L 89.16 99.04
  Q 88.77 99.06 88.77 99.45
  Q 88.72 105.39 88.81 111.03
  C 88.90 116.80 85.27 121.08 79.34 121.07
  Q 63.97 121.04 48.87 121.07
  C 42.93 121.08 39.48 116.60 39.49 110.96
  Q 39.58 71.51 39.52 36.11
  Q 39.51 28.99 45.24 26.61
  C 47.90 25.50 51.49 26.03 54.41 25.90
  Q 55.14 25.87 55.00 26.59
  C 54.66 28.41 56.29 29.28 57.83 29.23
  Q 61.77 29.12 65.55 29.24
  Q 66.06 29.25 66.47 28.94
  Q 74.04 23.10 83.61 21.64
  Q 83.67 21.63 83.66 21.57
  L 83.64 21.30
  A 0.28 0.28 0.0 0 0 83.36 21.04
  Q 65.87 21.04 48.95 20.92
  C 42.97 20.88 38.51 22.49 35.84 27.85
  C 34.07 31.40 34.72 35.85 34.61 39.79
  Q 34.60 40.31 34.19 40.64
  Q 32.85 41.74 32.99 43.56
  C 33.13 45.49 32.91 47.42 33.13 49.32
  Q 33.18 49.78 33.54 50.08
  Q 35.69 51.92 33.68 54.13
  A 1.91 1.83 -21.4 0 0 33.20 55.17
  Q 32.80 58.70 33.29 62.58
  Q 33.32 62.87 33.50 63.09
  Q 33.70 63.33 33.96 63.50
  Q 34.42 63.81 34.46 64.36
  Z
  M 125.98 60.01
  A 35.98 35.98 0.0 0 0 90.00 24.03
  A 35.98 35.98 0.0 0 0 54.02 60.01
  A 35.98 35.98 0.0 0 0 90.00 95.99
  A 35.98 35.98 0.0 0 0 125.98 60.01
  Z
  M 54.47 44.54
  Q 54.53 44.57 54.55 44.51
  Q 55.91 41.05 58.28 37.83
  A 0.22 0.22 0.0 0 0 58.11 37.48
  Q 57.93 37.47 57.83 37.61
  Q 55.64 40.71 54.14 44.15
  Q 54.06 44.33 54.24 44.42
  L 54.47 44.54
  Z
  M 52.1725 50.9997
  A 1.92 0.28 104.4 0 0 52.9212 49.2096
  A 1.92 0.28 104.4 0 0 53.1275 47.2803
  A 1.92 0.28 104.4 0 0 52.3788 49.0704
  A 1.92 0.28 104.4 0 0 52.1725 50.9997
  Z
  M 51.51 52.16
  Q 50.95 53.98 51.49 55.87
  Q 51.77 56.84 51.82 55.84
  Q 51.91 54.01 51.93 52.23
  Q 51.95 50.76 51.51 52.16
  Z
  M 51.52 63.21
  C 51.16 64.14 51.18 66.52 51.49 67.49
  Q 51.90 68.72 51.89 67.42
  L 51.87 63.27
  Q 51.86 62.32 51.52 63.21
  Z
  M 52.9360 72.2554
  A 1.46 0.30 77.5 0 0 52.9129 70.7651
  A 1.46 0.30 77.5 0 0 52.3040 69.4046
  A 1.46 0.30 77.5 0 0 52.3271 70.8949
  A 1.46 0.30 77.5 0 0 52.9360 72.2554
  Z
  M 55.9407 79.0513
  A 2.26 0.26 64.0 0 0 55.1837 76.9060
  A 2.26 0.26 64.0 0 0 53.9593 74.9887
  A 2.26 0.26 64.0 0 0 54.7163 77.1340
  A 2.26 0.26 64.0 0 0 55.9407 79.0513
  Z
  M 75.0295 96.1033
  A 3.32 0.27 27.7 0 0 72.2155 94.3209
  A 3.32 0.27 27.7 0 0 69.1505 93.0167
  A 3.32 0.27 27.7 0 0 71.9645 94.7991
  A 3.32 0.27 27.7 0 0 75.0295 96.1033
  Z
  M 81.3040 97.9199
  A 1.85 0.31 12.8 0 0 79.5687 97.2077
  A 1.85 0.31 12.8 0 0 77.6960 97.1001
  A 1.85 0.31 12.8 0 0 79.4313 97.8123
  A 1.85 0.31 12.8 0 0 81.3040 97.9199
  Z
  M 86.0096 98.4567
  A 1.91 0.33 1.1 0 0 84.1063 98.0901
  A 1.91 0.33 1.1 0 0 82.1904 98.3833
  A 1.91 0.33 1.1 0 0 84.0937 98.7499
  A 1.91 0.33 1.1 0 0 86.0096 98.4567
  Z
  M 67.44 114.19
  A 3.27 3.27 0.0 0 0 64.17 110.92
  A 3.27 3.27 0.0 0 0 60.90 114.19
  A 3.27 3.27 0.0 0 0 64.17 117.46
  A 3.27 3.27 0.0 0 0 67.44 114.19
  Z"
/>
<path fill="#005891" d="
  M 33.96 63.50
  Q 33.70 63.33 33.50 63.09
  Q 33.32 62.87 33.29 62.58
  Q 32.80 58.70 33.20 55.17
  A 1.91 1.83 -21.4 0 1 33.68 54.13
  Q 35.69 51.92 33.54 50.08
  Q 33.18 49.78 33.13 49.32
  C 32.91 47.42 33.13 45.49 32.99 43.56
  Q 32.85 41.74 34.19 40.64
  Q 34.60 40.31 34.61 39.79
  C 34.72 35.85 34.07 31.40 35.84 27.85
  C 38.51 22.49 42.97 20.88 48.95 20.92
  Q 65.87 21.04 83.36 21.04
  A 0.28 0.28 0.0 0 1 83.64 21.30
  L 83.66 21.57
  Q 83.67 21.63 83.61 21.64
  Q 74.04 23.10 66.47 28.94
  Q 66.06 29.25 65.55 29.24
  Q 61.77 29.12 57.83 29.23
  C 56.29 29.28 54.66 28.41 55.00 26.59
  Q 55.14 25.87 54.41 25.90
  C 51.49 26.03 47.90 25.50 45.24 26.61
  Q 39.51 28.99 39.52 36.11
  Q 39.58 71.51 39.49 110.96
  C 39.48 116.60 42.93 121.08 48.87 121.07
  Q 63.97 121.04 79.34 121.07
  C 85.27 121.08 88.90 116.80 88.81 111.03
  Q 88.72 105.39 88.77 99.45
  Q 88.77 99.06 89.16 99.04
  L 93.31 98.84
  A 0.40 0.39 88.6 0 1 93.72 99.24
  Q 93.72 105.32 93.76 112.63
  C 93.80 119.85 89.25 125.98 81.94 125.98
  Q 65.01 125.97 48.03 126.04
  C 42.31 126.06 37.43 123.63 35.49 118.33
  Q 34.50 115.61 34.55 110.34
  Q 34.77 88.19 34.60 67.40
  Q 34.59 65.89 34.46 64.36
  Q 34.42 63.81 33.96 63.50
  Z"
/>
<path fill="#dceef6" d="
  M 125.98 60.01
  A 35.98 35.98 0.0 0 1 90.00 95.99
  A 35.98 35.98 0.0 0 1 54.02 60.01
  A 35.98 35.98 0.0 0 1 90.00 24.03
  A 35.98 35.98 0.0 0 1 125.98 60.01
  Z
  M 98.78 65.78
  C 100.16 58.91 102.80 54.95 110.49 54.99
  C 114.74 55.01 117.42 50.94 116.89 47.02
  C 115.75 38.55 103.84 39.23 103.54 48.10
  C 103.38 53.00 100.56 57.57 95.95 59.09
  C 86.18 62.34 80.47 52.71 78.08 44.74
  C 76.95 40.98 73.53 38.46 69.65 39.18
  C 62.73 40.46 60.67 49.05 66.06 53.54
  C 68.30 55.41 71.59 55.05 74.36 55.30
  C 80.83 55.89 87.53 59.93 87.32 67.10
  Q 87.18 72.02 82.54 72.51
  C 77.47 73.05 76.82 79.99 81.49 81.71
  C 84.37 82.76 87.45 80.12 87.29 77.16
  C 87.13 74.07 87.02 71.07 91.07 70.81
  C 94.76 70.56 97.92 70.10 98.78 65.78
  Z"
/>
<path fill="#dceef6" d="
  M 54.14 44.15
  Q 55.64 40.71 57.83 37.61
  Q 57.93 37.47 58.11 37.48
  A 0.22 0.22 0.0 0 1 58.28 37.83
  Q 55.91 41.05 54.55 44.51
  Q 54.53 44.57 54.47 44.54
  L 54.24 44.42
  Q 54.06 44.33 54.14 44.15
  Z"
/>
<path fill="#009fe1" d="
  M 110.49 54.99
  C 102.80 54.95 100.16 58.91 98.78 65.78
  C 97.92 70.10 94.76 70.56 91.07 70.81
  C 87.02 71.07 87.13 74.07 87.29 77.16
  C 87.45 80.12 84.37 82.76 81.49 81.71
  C 76.82 79.99 77.47 73.05 82.54 72.51
  Q 87.18 72.02 87.32 67.10
  C 87.53 59.93 80.83 55.89 74.36 55.30
  C 71.59 55.05 68.30 55.41 66.06 53.54
  C 60.67 49.05 62.73 40.46 69.65 39.18
  C 73.53 38.46 76.95 40.98 78.08 44.74
  C 80.47 52.71 86.18 62.34 95.95 59.09
  C 100.56 57.57 103.38 53.00 103.54 48.10
  C 103.84 39.23 115.75 38.55 116.89 47.02
  C 117.42 50.94 114.74 55.01 110.49 54.99
  Z"
/>
<ellipse fill="#dceef6" cx="0.00" cy="0.00" transform="translate(52.65,49.14) rotate(104.4)" rx="1.92" ry="0.28"/>
<path fill="#dceef6" d="
  M 51.51 52.16
  Q 51.95 50.76 51.93 52.23
  Q 51.91 54.01 51.82 55.84
  Q 51.77 56.84 51.49 55.87
  Q 50.95 53.98 51.51 52.16
  Z"
/>
<path fill="#dceef6" d="
  M 51.49 67.49
  C 51.18 66.52 51.16 64.14 51.52 63.21
  Q 51.86 62.32 51.87 63.27
  L 51.89 67.42
  Q 51.90 68.72 51.49 67.49
  Z"
/>
<ellipse fill="#dceef6" cx="0.00" cy="0.00" transform="translate(52.62,70.83) rotate(77.5)" rx="1.46" ry="0.30"/>
<ellipse fill="#dceef6" cx="0.00" cy="0.00" transform="translate(54.95,77.02) rotate(64.0)" rx="2.26" ry="0.26"/>
<ellipse fill="#dceef6" cx="0.00" cy="0.00" transform="translate(72.09,94.56) rotate(27.7)" rx="3.32" ry="0.27"/>
<ellipse fill="#dceef6" cx="0.00" cy="0.00" transform="translate(79.50,97.51) rotate(12.8)" rx="1.85" ry="0.31"/>
<ellipse fill="#dceef6" cx="0.00" cy="0.00" transform="translate(84.10,98.42) rotate(1.1)" rx="1.91" ry="0.33"/>
<circle fill="#005891" cx="64.17" cy="114.19" r="3.27"/>
</svg>
