<?xml version="1.0" encoding="UTF-8" standalone="no"?>
<!DOCTYPE svg PUBLIC "-//W3C//DTD SVG 1.1//EN" "http://www.w3.org/Graphics/SVG/1.1/DTD/svg11.dtd">
<svg xmlns="http://www.w3.org/2000/svg" version="1.1" viewBox="0.00 0.00 144.00 144.00">
<g stroke-width="2.00" fill="none" stroke-linecap="butt">
<path stroke="#fadc94" vector-effect="non-scaling-stroke" d="
  M 101.52 97.90
  Q 106.85 97.70 112.25 97.75
  Q 114.09 97.77 115.04 95.32"
/>
<path stroke="#edd088" vector-effect="non-scaling-stroke" d="
  M 115.04 95.32
  Q 116.98 94.30 116.99 92.50
  Q 117.00 73.26 117.00 54.58
  Q 117.00 50.99 113.40 50.98
  L 103.23 50.98"
/>
<path stroke="#7eaac7" vector-effect="non-scaling-stroke" d="
  M 103.23 50.98
  C 103.20 49.11 103.82 46.71 101.96 45.68
  Q 101.55 45.46 101.54 44.99
  Q 101.41 40.31 101.57 35.10
  C 101.83 26.80 97.07 20.89 88.61 20.95
  Q 72.37 21.08 55.48 20.94
  C 49.85 20.89 45.07 23.73 43.17 29.05
  C 41.99 32.36 42.63 36.28 42.40 39.81
  A 1.28 1.26 71.9 0 1 41.97 40.67
  C 41.40 41.17 40.96 41.66 40.92 42.47
  Q 40.73 45.79 40.87 48.89
  Q 40.90 49.58 41.41 50.05
  Q 42.41 50.96 42.33 52.39
  Q 42.30 52.97 41.95 53.44
  C 40.32 55.63 41.00 59.84 41.18 62.38
  Q 41.22 62.94 41.66 63.28
  Q 42.41 63.88 42.42 64.92
  Q 42.63 88.52 42.39 111.06
  C 42.33 117.09 43.60 121.92 49.12 124.72
  Q 51.87 126.11 56.22 126.07
  Q 72.10 125.90 88.03 126.06
  C 93.50 126.11 97.88 124.10 100.38 119.14
  Q 101.54 116.85 101.52 110.20
  Q 101.50 104.14 101.52 97.90"
/>
<path stroke="#6f7e52" vector-effect="non-scaling-stroke" d="
  M 103.23 50.98
  L 96.57 50.98"
/>
<path stroke="#7eaac7" vector-effect="non-scaling-stroke" d="
  M 96.57 50.98
  Q 96.66 43.57 96.57 36.48
  Q 96.52 32.69 95.56 30.79
  C 92.40 24.51 85.77 26.23 80.19 25.87
  Q 79.56 25.83 79.59 26.46
  Q 79.73 29.19 77.01 29.19
  Q 71.66 29.18 65.45 29.22
  C 63.87 29.23 62.40 28.25 62.80 26.47
  A 0.48 0.47 -85.4 0 0 62.31 25.89
  C 59.03 26.06 55.48 25.45 52.53 26.84
  C 49.01 28.50 47.37 31.84 47.38 35.61
  Q 47.42 76.04 47.38 111.23
  C 47.37 118.22 51.91 121.19 58.43 121.13
  Q 73.37 120.99 86.62 121.06
  Q 92.87 121.10 95.25 116.87
  Q 96.58 114.50 96.59 108.88
  Q 96.60 103.45 96.64 97.94"
/>
<path stroke="#7c8a5e" vector-effect="non-scaling-stroke" d="
  M 96.64 97.94
  L 101.52 97.90"
/>
<path stroke="#eab01f" vector-effect="non-scaling-stroke" d="
  M 115.04 95.32
  L 115.10 69.58"
/>
<path stroke="#6f7e52" vector-effect="non-scaling-stroke" d="
  M 115.10 69.58
  Q 114.40 66.97 114.95 63.88"
/>
<path stroke="#eab01f" vector-effect="non-scaling-stroke" d="
  M 114.95 63.88
  L 115.00 55.65
  A 2.59 2.59 0.0 0 0 112.39 53.05
  L 93.74 53.12"
/>
<path stroke="#edbf2c" vector-effect="non-scaling-stroke" d="
  M 93.74 53.12
  L 56.37 53.10"
/>
<path stroke="#edd088" vector-effect="non-scaling-stroke" d="
  M 96.57 50.98
  Q 77.66 51.00 58.75 51.03
  Q 57.08 51.03 56.37 53.10"
/>
<path stroke="#fceca1" vector-effect="non-scaling-stroke" d="
  M 56.37 53.10
  Q 54.62 53.54 54.17 55.49
  Q 53.63 57.82 54.17 63.72"
/>
<path stroke="#7eaac7" vector-effect="non-scaling-stroke" d="
  M 54.17 63.72
  L 54.08 69.54"
/>
<path stroke="#fceca1" vector-effect="non-scaling-stroke" d="
  M 54.08 69.54
  L 54.08 94.86
  A 2.77 2.77 0.0 0 0 56.84 97.63
  L 93.56 97.63"
/>
<path stroke="#fadc94" vector-effect="non-scaling-stroke" d="
  M 93.56 97.63
  L 96.64 97.94"
/>
<path stroke="#facc38" vector-effect="non-scaling-stroke" d="
  M 93.73 69.53
  L 93.56 97.63"
/>
<path stroke="#7c8a5e" vector-effect="non-scaling-stroke" d="
  M 115.10 69.58
  L 93.73 69.53"
/>
<path stroke="#7e9a6b" vector-effect="non-scaling-stroke" d="
  M 93.73 69.53
  L 54.08 69.54"
/>
<path stroke="#facc38" vector-effect="non-scaling-stroke" d="
  M 93.74 53.12
  L 94.01 63.75"
/>
<path stroke="#7e9a6b" vector-effect="non-scaling-stroke" d="
  M 94.01 63.75
  L 54.17 63.72"
/>
<path stroke="#7c8a5e" vector-effect="non-scaling-stroke" d="
  M 114.95 63.88
  L 94.01 63.75"
/>
<path stroke="#7eaac7" vector-effect="non-scaling-stroke" d="
  M 75.27 114.19
  A 3.27 3.27 0.0 0 0 72.00 110.92
  A 3.27 3.27 0.0 0 0 68.73 114.19
  A 3.27 3.27 0.0 0 0 72.00 117.46
  A 3.27 3.27 0.0 0 0 75.27 114.19"
/>
<path stroke="#7e9a6b" vector-effect="non-scaling-stroke" d="
  M 59.69 81.94
  L 59.65 88.80
  Q 59.65 89.45 60.30 89.46
  L 61.12 89.49
  Q 61.75 89.50 61.75 88.88
  L 61.74 79.52
  Q 61.74 78.86 61.08 78.88
  Q 59.31 78.93 57.76 79.72
  Q 57.22 80.00 57.21 80.60
  Q 57.20 81.08 57.58 81.34
  Q 57.97 81.61 58.43 81.48
  Q 58.65 81.41 58.86 81.34
  Q 59.70 81.06 59.69 81.94"
/>
<path stroke="#7e9a6b" vector-effect="non-scaling-stroke" d="
  M 67.5300 89.7300
  A 5.55 4.28 90.0 0 0 71.8100 84.1800
  A 5.55 4.28 90.0 0 0 67.5300 78.6300
  A 5.55 4.28 90.0 0 0 63.2500 84.1800
  A 5.55 4.28 90.0 0 0 67.5300 89.7300"
/>
<path stroke="#7e9a6b" vector-effect="non-scaling-stroke" d="
  M 76.9409 89.7399
  A 5.55 4.26 90.3 0 0 81.2299 84.2123
  A 5.55 4.26 90.3 0 0 76.9991 78.6401
  A 5.55 4.26 90.3 0 0 72.7101 84.1677
  A 5.55 4.26 90.3 0 0 76.9409 89.7399"
/>
<path stroke="#7e9a6b" vector-effect="non-scaling-stroke" d="
  M 84.70 85.39
  A 0.32 0.32 0.0 0 1 85.28 85.20
  L 88.37 89.28
  A 0.32 0.32 0.0 0 0 88.61 89.41
  L 90.24 89.47
  A 0.32 0.32 0.0 0 0 90.51 88.96
  L 86.98 84.21
  A 0.32 0.32 0.0 0 1 86.98 83.82
  L 90.37 79.45
  A 0.32 0.32 0.0 0 0 90.12 78.94
  L 88.48 78.95
  A 0.32 0.32 0.0 0 0 88.22 79.07
  L 85.28 82.94
  A 0.32 0.32 0.0 0 1 84.70 82.74
  L 84.76 79.22
  A 0.32 0.32 0.0 0 0 84.42 78.89
  L 82.98 78.95
  A 0.32 0.32 0.0 0 0 82.67 79.27
  L 82.68 89.10
  A 0.32 0.32 0.0 0 0 83.00 89.42
  L 84.42 89.45
  A 0.32 0.32 0.0 0 0 84.75 89.12
  L 84.70 85.39"
/>
<path stroke="#7c8a5e" vector-effect="non-scaling-stroke" d="
  M 109.0782 76.1838
  A 2.52 2.52 0.0 0 0 106.5320 73.6903
  L 100.8323 73.7500
  A 2.52 2.52 0.0 0 0 98.3388 76.2962
  L 98.3418 76.5762
  A 2.52 2.52 0.0 0 0 100.8880 79.0697
  L 106.5877 79.0100
  A 2.52 2.52 0.0 0 0 109.0812 76.4638
  L 109.0782 76.1838"
/>
<path stroke="#7e9a6b" vector-effect="non-scaling-stroke" d="
  M 67.5544 87.6599
  A 3.50 2.19 89.6 0 0 69.7199 84.1447
  A 3.50 2.19 89.6 0 0 67.5056 80.6601
  A 3.50 2.19 89.6 0 0 65.3401 84.1753
  A 3.50 2.19 89.6 0 0 67.5544 87.6599"
/>
<path stroke="#7e9a6b" vector-effect="non-scaling-stroke" d="
  M 77.0006 87.6799
  A 3.51 2.19 89.5 0 0 79.1599 84.1509
  A 3.51 2.19 89.5 0 0 76.9394 80.6601
  A 3.51 2.19 89.5 0 0 74.7801 84.1891
  A 3.51 2.19 89.5 0 0 77.0006 87.6799"
/>
</g>
<path fill="#fcfcfc" d="
  M 28.41 0.00
  L 115.71 0.00
  Q 136.14 2.46 142.71 21.50
  Q 143.36 23.37 144.00 28.38
  L 144.00 115.74
  Q 143.31 120.96 142.67 122.75
  Q 135.87 141.72 115.62 144.00
  L 28.28 144.00
  Q 7.34 141.48 1.08 121.75
  Q 0.64 120.35 0.00 115.62
  L 0.00 28.26
  Q 0.68 23.06 1.33 21.25
  Q 8.08 2.36 28.41 0.00
  Z
  M 101.52 97.90
  Q 106.85 97.70 112.25 97.75
  Q 114.09 97.77 115.04 95.32
  Q 116.98 94.30 116.99 92.50
  Q 117.00 73.26 117.00 54.58
  Q 117.00 50.99 113.40 50.98
  L 103.23 50.98
  C 103.20 49.11 103.82 46.71 101.96 45.68
  Q 101.55 45.46 101.54 44.99
  Q 101.41 40.31 101.57 35.10
  C 101.83 26.80 97.07 20.89 88.61 20.95
  Q 72.37 21.08 55.48 20.94
  C 49.85 20.89 45.07 23.73 43.17 29.05
  C 41.99 32.36 42.63 36.28 42.40 39.81
  A 1.28 1.26 71.9 0 1 41.97 40.67
  C 41.40 41.17 40.96 41.66 40.92 42.47
  Q 40.73 45.79 40.87 48.89
  Q 40.90 49.58 41.41 50.05
  Q 42.41 50.96 42.33 52.39
  Q 42.30 52.97 41.95 53.44
  C 40.32 55.63 41.00 59.84 41.18 62.38
  Q 41.22 62.94 41.66 63.28
  Q 42.41 63.88 42.42 64.92
  Q 42.63 88.52 42.39 111.06
  C 42.33 117.09 43.60 121.92 49.12 124.72
  Q 51.87 126.11 56.22 126.07
  Q 72.10 125.90 88.03 126.06
  C 93.50 126.11 97.88 124.10 100.38 119.14
  Q 101.54 116.85 101.52 110.20
  Q 101.50 104.14 101.52 97.90
  Z"
/>
<path fill="#005891" d="
  M 103.23 50.98
  L 96.57 50.98
  Q 96.66 43.57 96.57 36.48
  Q 96.52 32.69 95.56 30.79
  C 92.40 24.51 85.77 26.23 80.19 25.87
  Q 79.56 25.83 79.59 26.46
  Q 79.73 29.19 77.01 29.19
  Q 71.66 29.18 65.45 29.22
  C 63.87 29.23 62.40 28.25 62.80 26.47
  A 0.48 0.47 -85.4 0 0 62.31 25.89
  C 59.03 26.06 55.48 25.45 52.53 26.84
  C 49.01 28.50 47.37 31.84 47.38 35.61
  Q 47.42 76.04 47.38 111.23
  C 47.37 118.22 51.91 121.19 58.43 121.13
  Q 73.37 120.99 86.62 121.06
  Q 92.87 121.10 95.25 116.87
  Q 96.58 114.50 96.59 108.88
  Q 96.60 103.45 96.64 97.94
  L 101.52 97.90
  Q 101.50 104.14 101.52 110.20
  Q 101.54 116.85 100.38 119.14
  C 97.88 124.10 93.50 126.11 88.03 126.06
  Q 72.10 125.90 56.22 126.07
  Q 51.87 126.11 49.12 124.72
  C 43.60 121.92 42.33 117.09 42.39 111.06
  Q 42.63 88.52 42.42 64.92
  Q 42.41 63.88 41.66 63.28
  Q 41.22 62.94 41.18 62.38
  C 41.00 59.84 40.32 55.63 41.95 53.44
  Q 42.30 52.97 42.33 52.39
  Q 42.41 50.96 41.41 50.05
  Q 40.90 49.58 40.87 48.89
  Q 40.73 45.79 40.92 42.47
  C 40.96 41.66 41.40 41.17 41.97 40.67
  A 1.28 1.26 71.9 0 0 42.40 39.81
  C 42.63 36.28 41.99 32.36 43.17 29.05
  C 45.07 23.73 49.85 20.89 55.48 20.94
  Q 72.37 21.08 88.61 20.95
  C 97.07 20.89 101.83 26.80 101.57 35.10
  Q 101.41 40.31 101.54 44.99
  Q 101.55 45.46 101.96 45.68
  C 103.82 46.71 103.20 49.11 103.23 50.98
  Z"
/>
<path fill="#fcfcfc" d="
  M 96.57 50.98
  Q 77.66 51.00 58.75 51.03
  Q 57.08 51.03 56.37 53.10
  Q 54.62 53.54 54.17 55.49
  Q 53.63 57.82 54.17 63.72
  L 54.08 69.54
  L 54.08 94.86
  A 2.77 2.77 0.0 0 0 56.84 97.63
  L 93.56 97.63
  L 96.64 97.94
  Q 96.60 103.45 96.59 108.88
  Q 96.58 114.50 95.25 116.87
  Q 92.87 121.10 86.62 121.06
  Q 73.37 120.99 58.43 121.13
  C 51.91 121.19 47.37 118.22 47.38 111.23
  Q 47.42 76.04 47.38 35.61
  C 47.37 31.84 49.01 28.50 52.53 26.84
  C 55.48 25.45 59.03 26.06 62.31 25.89
  A 0.48 0.47 -85.4 0 1 62.80 26.47
  C 62.40 28.25 63.87 29.23 65.45 29.22
  Q 71.66 29.18 77.01 29.19
  Q 79.73 29.19 79.59 26.46
  Q 79.56 25.83 80.19 25.87
  C 85.77 26.23 92.40 24.51 95.56 30.79
  Q 96.52 32.69 96.57 36.48
  Q 96.66 43.57 96.57 50.98
  Z
  M 75.27 114.19
  A 3.27 3.27 0.0 0 0 72.00 110.92
  A 3.27 3.27 0.0 0 0 68.73 114.19
  A 3.27 3.27 0.0 0 0 72.00 117.46
  A 3.27 3.27 0.0 0 0 75.27 114.19
  Z"
/>
<path fill="#dda313" d="
  M 96.57 50.98
  L 103.23 50.98
  L 113.40 50.98
  Q 117.00 50.99 117.00 54.58
  Q 117.00 73.26 116.99 92.50
  Q 116.98 94.30 115.04 95.32
  L 115.10 69.58
  Q 114.40 66.97 114.95 63.88
  L 115.00 55.65
  A 2.59 2.59 0.0 0 0 112.39 53.05
  L 93.74 53.12
  L 56.37 53.10
  Q 57.08 51.03 58.75 51.03
  Q 77.66 51.00 96.57 50.98
  Z"
/>
<path fill="#fcdb45" d="
  M 56.37 53.10
  L 93.74 53.12
  L 94.01 63.75
  L 54.17 63.72
  Q 53.63 57.82 54.17 55.49
  Q 54.62 53.54 56.37 53.10
  Z"
/>
<path fill="#f7bc2b" d="
  M 114.95 63.88
  L 94.01 63.75
  L 93.74 53.12
  L 112.39 53.05
  A 2.59 2.59 0.0 0 1 115.00 55.65
  L 114.95 63.88
  Z"
/>
<path fill="#005891" d="
  M 54.17 63.72
  L 94.01 63.75
  L 114.95 63.88
  Q 114.40 66.97 115.10 69.58
  L 93.73 69.53
  L 54.08 69.54
  L 54.17 63.72
  Z"
/>
<path fill="#fcdb45" d="
  M 54.08 69.54
  L 93.73 69.53
  L 93.56 97.63
  L 56.84 97.63
  A 2.77 2.77 0.0 0 1 54.08 94.86
  L 54.08 69.54
  Z
  M 59.69 81.94
  L 59.65 88.80
  Q 59.65 89.45 60.30 89.46
  L 61.12 89.49
  Q 61.75 89.50 61.75 88.88
  L 61.74 79.52
  Q 61.74 78.86 61.08 78.88
  Q 59.31 78.93 57.76 79.72
  Q 57.22 80.00 57.21 80.60
  Q 57.20 81.08 57.58 81.34
  Q 57.97 81.61 58.43 81.48
  Q 58.65 81.41 58.86 81.34
  Q 59.70 81.06 59.69 81.94
  Z
  M 67.5300 89.7300
  A 5.55 4.28 90.0 0 0 71.8100 84.1800
  A 5.55 4.28 90.0 0 0 67.5300 78.6300
  A 5.55 4.28 90.0 0 0 63.2500 84.1800
  A 5.55 4.28 90.0 0 0 67.5300 89.7300
  Z
  M 76.9409 89.7399
  A 5.55 4.26 90.3 0 0 81.2299 84.2123
  A 5.55 4.26 90.3 0 0 76.9991 78.6401
  A 5.55 4.26 90.3 0 0 72.7101 84.1677
  A 5.55 4.26 90.3 0 0 76.9409 89.7399
  Z
  M 84.70 85.39
  A 0.32 0.32 0.0 0 1 85.28 85.20
  L 88.37 89.28
  A 0.32 0.32 0.0 0 0 88.61 89.41
  L 90.24 89.47
  A 0.32 0.32 0.0 0 0 90.51 88.96
  L 86.98 84.21
  A 0.32 0.32 0.0 0 1 86.98 83.82
  L 90.37 79.45
  A 0.32 0.32 0.0 0 0 90.12 78.94
  L 88.48 78.95
  A 0.32 0.32 0.0 0 0 88.22 79.07
  L 85.28 82.94
  A 0.32 0.32 0.0 0 1 84.70 82.74
  L 84.76 79.22
  A 0.32 0.32 0.0 0 0 84.42 78.89
  L 82.98 78.95
  A 0.32 0.32 0.0 0 0 82.67 79.27
  L 82.68 89.10
  A 0.32 0.32 0.0 0 0 83.00 89.42
  L 84.42 89.45
  A 0.32 0.32 0.0 0 0 84.75 89.12
  L 84.70 85.39
  Z"
/>
<path fill="#f7bc2b" d="
  M 93.73 69.53
  L 115.10 69.58
  L 115.04 95.32
  Q 114.09 97.77 112.25 97.75
  Q 106.85 97.70 101.52 97.90
  L 96.64 97.94
  L 93.56 97.63
  L 93.73 69.53
  Z
  M 109.0782 76.1838
  A 2.52 2.52 0.0 0 0 106.5320 73.6903
  L 100.8323 73.7500
  A 2.52 2.52 0.0 0 0 98.3388 76.2962
  L 98.3418 76.5762
  A 2.52 2.52 0.0 0 0 100.8880 79.0697
  L 106.5877 79.0100
  A 2.52 2.52 0.0 0 0 109.0812 76.4638
  L 109.0782 76.1838
  Z"
/>
<rect fill="#005891" x="-5.37" y="-2.66" transform="translate(103.71,76.38) rotate(-0.6)" width="10.74" height="5.32" rx="2.52"/>
<path fill="#005891" d="
  M 58.86 81.34
  Q 58.65 81.41 58.43 81.48
  Q 57.97 81.61 57.58 81.34
  Q 57.20 81.08 57.21 80.60
  Q 57.22 80.00 57.76 79.72
  Q 59.31 78.93 61.08 78.88
  Q 61.74 78.86 61.74 79.52
  L 61.75 88.88
  Q 61.75 89.50 61.12 89.49
  L 60.30 89.46
  Q 59.65 89.45 59.65 88.80
  L 59.69 81.94
  Q 59.70 81.06 58.86 81.34
  Z"
/>
<path fill="#005891" d="
  M 67.5300 89.7300
  A 5.55 4.28 90.0 0 1 63.2500 84.1800
  A 5.55 4.28 90.0 0 1 67.5300 78.6300
  A 5.55 4.28 90.0 0 1 71.8100 84.1800
  A 5.55 4.28 90.0 0 1 67.5300 89.7300
  Z
  M 67.5544 87.6599
  A 3.50 2.19 89.6 0 0 69.7199 84.1447
  A 3.50 2.19 89.6 0 0 67.5056 80.6601
  A 3.50 2.19 89.6 0 0 65.3401 84.1753
  A 3.50 2.19 89.6 0 0 67.5544 87.6599
  Z"
/>
<path fill="#005891" d="
  M 76.9409 89.7399
  A 5.55 4.26 90.3 0 1 72.7101 84.1677
  A 5.55 4.26 90.3 0 1 76.9991 78.6401
  A 5.55 4.26 90.3 0 1 81.2299 84.2123
  A 5.55 4.26 90.3 0 1 76.9409 89.7399
  Z
  M 77.0006 87.6799
  A 3.51 2.19 89.5 0 0 79.1599 84.1509
  A 3.51 2.19 89.5 0 0 76.9394 80.6601
  A 3.51 2.19 89.5 0 0 74.7801 84.1891
  A 3.51 2.19 89.5 0 0 77.0006 87.6799
  Z"
/>
<path fill="#005891" d="
  M 84.70 85.39
  L 84.75 89.12
  A 0.32 0.32 0.0 0 1 84.42 89.45
  L 83.00 89.42
  A 0.32 0.32 0.0 0 1 82.68 89.10
  L 82.67 79.27
  A 0.32 0.32 0.0 0 1 82.98 78.95
  L 84.42 78.89
  A 0.32 0.32 0.0 0 1 84.76 79.22
  L 84.70 82.74
  A 0.32 0.32 0.0 0 0 85.28 82.94
  L 88.22 79.07
  A 0.32 0.32 0.0 0 1 88.48 78.95
  L 90.12 78.94
  A 0.32 0.32 0.0 0 1 90.37 79.45
  L 86.98 83.82
  A 0.32 0.32 0.0 0 0 86.98 84.21
  L 90.51 88.96
  A 0.32 0.32 0.0 0 1 90.24 89.47
  L 88.61 89.41
  A 0.32 0.32 0.0 0 1 88.37 89.28
  L 85.28 85.20
  A 0.32 0.32 0.0 0 0 84.70 85.39
  Z"
/>
<ellipse fill="#fcdb45" cx="0.00" cy="0.00" transform="translate(67.53,84.16) rotate(89.6)" rx="3.50" ry="2.19"/>
<ellipse fill="#fcdb45" cx="0.00" cy="0.00" transform="translate(76.97,84.17) rotate(89.5)" rx="3.51" ry="2.19"/>
<circle fill="#005891" cx="72.00" cy="114.19" r="3.27"/>
</svg>
