<?xml version="1.0" encoding="UTF-8" standalone="no"?>
<!DOCTYPE svg PUBLIC "-//W3C//DTD SVG 1.1//EN" "http://www.w3.org/Graphics/SVG/1.1/DTD/svg11.dtd">
<svg xmlns="http://www.w3.org/2000/svg" version="1.1" viewBox="0.00 0.00 144.00 144.00">
<g stroke-width="2.00" fill="none" stroke-linecap="butt">
<path stroke="#7eaac7" vector-effect="non-scaling-stroke" d="
  M 93.32 81.52
  Q 103.69 80.08 110.25 71.61
  C 110.74 70.98 110.72 70.51 110.75 69.76
  Q 110.77 69.24 111.10 68.82
  C 118.17 59.76 123.91 45.31 120.58 33.77
  C 118.57 26.80 111.63 25.40 105.25 24.21
  C 104.58 24.08 104.09 23.67 103.64 23.19
  C 99.17 18.36 93.06 27.73 99.98 29.63
  C 101.52 30.06 102.51 28.88 104.11 29.21
  C 109.46 30.31 115.67 30.88 116.47 37.66
  C 117.64 47.52 113.69 57.55 107.77 65.75
  Q 106.83 67.05 105.14 67.39
  A 1.68 1.67 -75.9 0 0 104.21 67.95
  Q 102.36 70.16 99.97 71.89
  C 91.30 78.23 83.41 75.06 76.69 67.72
  Q 76.24 67.23 75.59 67.16
  Q 74.38 67.03 73.64 66.02
  C 67.70 57.89 63.40 47.37 64.77 37.33
  C 65.65 30.84 72.33 30.37 77.48 29.10
  Q 78.05 28.96 78.61 29.14
  C 81.15 29.97 83.83 28.46 83.96 25.75
  C 84.10 22.97 81.08 21.58 78.66 22.03
  C 77.11 22.31 76.54 23.99 74.69 24.35
  C 67.92 25.66 60.91 27.48 59.37 35.28
  C 57.11 46.73 62.02 58.94 69.08 68.32
  Q 69.80 69.28 69.89 70.47
  Q 69.92 70.93 70.22 71.28
  Q 76.99 79.17 86.62 81.23
  A 0.91 0.90 -82.8 0 1 87.33 82.15
  Q 87.09 88.51 87.10 95.99
  Q 87.12 102.27 85.42 106.27
  C 81.38 115.76 71.01 120.86 61.05 119.50
  C 51.00 118.13 42.12 110.12 41.83 99.59
  Q 41.64 92.53 41.79 83.86
  Q 41.80 83.39 42.26 83.29
  C 51.80 81.32 58.33 71.39 52.38 62.36
  C 44.78 50.82 25.52 54.52 24.11 68.69
  C 23.36 76.22 28.92 82.47 36.27 83.61
  Q 36.84 83.69 36.85 84.27
  Q 36.95 90.74 36.85 97.20
  Q 36.69 108.47 44.21 116.02
  C 58.67 130.54 85.63 125.98 91.78 105.43
  Q 92.98 101.42 92.79 93.91
  Q 92.64 88.05 92.78 82.13
  Q 92.79 81.60 93.32 81.52"
/>
<path stroke="#7ed1ed" vector-effect="non-scaling-stroke" d="
  M 98.17 38.31
  L 92.24 33.12
  A 2.26 2.25 -44.9 0 0 89.27 33.12
  L 73.27 47.03
  A 1.54 1.53 -35.8 0 0 72.95 48.97
  Q 73.99 50.77 76.78 50.11
  Q 77.73 49.88 77.73 50.86
  Q 77.75 56.80 77.77 63.08
  Q 77.77 63.72 78.45 63.79
  Q 78.49 63.79 85.07 63.97
  Q 85.76 63.99 85.76 63.30
  L 85.75 55.25
  Q 85.75 52.50 88.50 52.50
  L 92.72 52.50
  Q 95.43 52.51 95.42 55.22
  L 95.37 63.24
  Q 95.36 63.87 95.99 63.87
  L 102.41 63.91
  A 1.08 1.08 0.0 0 0 103.50 62.84
  L 103.51 51.02
  Q 103.51 49.92 104.60 50.13
  Q 108.27 50.83 108.67 48.12
  A 1.26 1.26 0.0 0 0 108.24 46.98
  L 104.18 43.54
  Q 103.80 43.22 103.79 42.72
  L 103.68 37.25
  A 0.90 0.90 0.0 0 0 102.75 36.37
  L 99.70 36.44
  Q 99.10 36.46 99.04 37.05
  L 98.94 38.01
  Q 98.84 38.91 98.17 38.31"
/>
<path stroke="#7eaac7" vector-effect="non-scaling-stroke" d="
  M 49.4931 70.4360
  A 10.18 9.56 3.3 0 0 39.8803 60.3059
  A 10.18 9.56 3.3 0 0 29.1669 69.2640
  A 10.18 9.56 3.3 0 0 38.7797 79.3941
  A 10.18 9.56 3.3 0 0 49.4931 70.4360"
/>
<path stroke="#eca4b8" vector-effect="non-scaling-stroke" d="
  M 46.7411 70.3254
  A 7.48 7.21 2.8 0 0 39.6222 62.7586
  A 7.48 7.21 2.8 0 0 31.7989 69.5946
  A 7.48 7.21 2.8 0 0 38.9178 77.1614
  A 7.48 7.21 2.8 0 0 46.7411 70.3254"
/>
</g>
<path fill="#fcfcfc" d="
  M 28.14 0.00
  L 115.98 0.00
  Q 140.38 3.66 144.00 27.84
  L 144.00 115.98
  Q 142.97 127.02 135.66 134.66
  Q 127.76 142.93 115.85 144.00
  L 27.97 144.00
  Q 3.60 140.44 0.00 115.86
  L 0.00 28.01
  Q 0.50 26.03 0.86 24.00
  C 2.88 12.54 12.04 3.34 23.37 0.99
  Q 25.75 0.50 28.14 0.00
  Z
  M 93.32 81.52
  Q 103.69 80.08 110.25 71.61
  C 110.74 70.98 110.72 70.51 110.75 69.76
  Q 110.77 69.24 111.10 68.82
  C 118.17 59.76 123.91 45.31 120.58 33.77
  C 118.57 26.80 111.63 25.40 105.25 24.21
  C 104.58 24.08 104.09 23.67 103.64 23.19
  C 99.17 18.36 93.06 27.73 99.98 29.63
  C 101.52 30.06 102.51 28.88 104.11 29.21
  C 109.46 30.31 115.67 30.88 116.47 37.66
  C 117.64 47.52 113.69 57.55 107.77 65.75
  Q 106.83 67.05 105.14 67.39
  A 1.68 1.67 -75.9 0 0 104.21 67.95
  Q 102.36 70.16 99.97 71.89
  C 91.30 78.23 83.41 75.06 76.69 67.72
  Q 76.24 67.23 75.59 67.16
  Q 74.38 67.03 73.64 66.02
  C 67.70 57.89 63.40 47.37 64.77 37.33
  C 65.65 30.84 72.33 30.37 77.48 29.10
  Q 78.05 28.96 78.61 29.14
  C 81.15 29.97 83.83 28.46 83.96 25.75
  C 84.10 22.97 81.08 21.58 78.66 22.03
  C 77.11 22.31 76.54 23.99 74.69 24.35
  C 67.92 25.66 60.91 27.48 59.37 35.28
  C 57.11 46.73 62.02 58.94 69.08 68.32
  Q 69.80 69.28 69.89 70.47
  Q 69.92 70.93 70.22 71.28
  Q 76.99 79.17 86.62 81.23
  A 0.91 0.90 -82.8 0 1 87.33 82.15
  Q 87.09 88.51 87.10 95.99
  Q 87.12 102.27 85.42 106.27
  C 81.38 115.76 71.01 120.86 61.05 119.50
  C 51.00 118.13 42.12 110.12 41.83 99.59
  Q 41.64 92.53 41.79 83.86
  Q 41.80 83.39 42.26 83.29
  C 51.80 81.32 58.33 71.39 52.38 62.36
  C 44.78 50.82 25.52 54.52 24.11 68.69
  C 23.36 76.22 28.92 82.47 36.27 83.61
  Q 36.84 83.69 36.85 84.27
  Q 36.95 90.74 36.85 97.20
  Q 36.69 108.47 44.21 116.02
  C 58.67 130.54 85.63 125.98 91.78 105.43
  Q 92.98 101.42 92.79 93.91
  Q 92.64 88.05 92.78 82.13
  Q 92.79 81.60 93.32 81.52
  Z
  M 98.17 38.31
  L 92.24 33.12
  A 2.26 2.25 -44.9 0 0 89.27 33.12
  L 73.27 47.03
  A 1.54 1.53 -35.8 0 0 72.95 48.97
  Q 73.99 50.77 76.78 50.11
  Q 77.73 49.88 77.73 50.86
  Q 77.75 56.80 77.77 63.08
  Q 77.77 63.72 78.45 63.79
  Q 78.49 63.79 85.07 63.97
  Q 85.76 63.99 85.76 63.30
  L 85.75 55.25
  Q 85.75 52.50 88.50 52.50
  L 92.72 52.50
  Q 95.43 52.51 95.42 55.22
  L 95.37 63.24
  Q 95.36 63.87 95.99 63.87
  L 102.41 63.91
  A 1.08 1.08 0.0 0 0 103.50 62.84
  L 103.51 51.02
  Q 103.51 49.92 104.60 50.13
  Q 108.27 50.83 108.67 48.12
  A 1.26 1.26 0.0 0 0 108.24 46.98
  L 104.18 43.54
  Q 103.80 43.22 103.79 42.72
  L 103.68 37.25
  A 0.90 0.90 0.0 0 0 102.75 36.37
  L 99.70 36.44
  Q 99.10 36.46 99.04 37.05
  L 98.94 38.01
  Q 98.84 38.91 98.17 38.31
  Z"
/>
<path fill="#005891" d="
  M 92.78 82.13
  Q 92.64 88.05 92.79 93.91
  Q 92.98 101.42 91.78 105.43
  C 85.63 125.98 58.67 130.54 44.21 116.02
  Q 36.69 108.47 36.85 97.20
  Q 36.95 90.74 36.85 84.27
  Q 36.84 83.69 36.27 83.61
  C 28.92 82.47 23.36 76.22 24.11 68.69
  C 25.52 54.52 44.78 50.82 52.38 62.36
  C 58.33 71.39 51.80 81.32 42.26 83.29
  Q 41.80 83.39 41.79 83.86
  Q 41.64 92.53 41.83 99.59
  C 42.12 110.12 51.00 118.13 61.05 119.50
  C 71.01 120.86 81.38 115.76 85.42 106.27
  Q 87.12 102.27 87.10 95.99
  Q 87.09 88.51 87.33 82.15
  A 0.91 0.90 -82.8 0 0 86.62 81.23
  Q 76.99 79.17 70.22 71.28
  Q 69.92 70.93 69.89 70.47
  Q 69.80 69.28 69.08 68.32
  C 62.02 58.94 57.11 46.73 59.37 35.28
  C 60.91 27.48 67.92 25.66 74.69 24.35
  C 76.54 23.99 77.11 22.31 78.66 22.03
  C 81.08 21.58 84.10 22.97 83.96 25.75
  C 83.83 28.46 81.15 29.97 78.61 29.14
  Q 78.05 28.96 77.48 29.10
  C 72.33 30.37 65.65 30.84 64.77 37.33
  C 63.40 47.37 67.70 57.89 73.64 66.02
  Q 74.38 67.03 75.59 67.16
  Q 76.24 67.23 76.69 67.72
  C 83.41 75.06 91.30 78.23 99.97 71.89
  Q 102.36 70.16 104.21 67.95
  A 1.68 1.67 -75.9 0 1 105.14 67.39
  Q 106.83 67.05 107.77 65.75
  C 113.69 57.55 117.64 47.52 116.47 37.66
  C 115.67 30.88 109.46 30.31 104.11 29.21
  C 102.51 28.88 101.52 30.06 99.98 29.63
  C 93.06 27.73 99.17 18.36 103.64 23.19
  C 104.09 23.67 104.58 24.08 105.25 24.21
  C 111.63 25.40 118.57 26.80 120.58 33.77
  C 123.91 45.31 118.17 59.76 111.10 68.82
  Q 110.77 69.24 110.75 69.76
  C 110.72 70.51 110.74 70.98 110.25 71.61
  Q 103.69 80.08 93.32 81.52
  Q 92.79 81.60 92.78 82.13
  Z
  M 49.4931 70.4360
  A 10.18 9.56 3.3 0 0 39.8803 60.3059
  A 10.18 9.56 3.3 0 0 29.1669 69.2640
  A 10.18 9.56 3.3 0 0 38.7797 79.3941
  A 10.18 9.56 3.3 0 0 49.4931 70.4360
  Z"
/>
<path fill="#00a5de" d="
  M 98.94 38.01
  L 99.04 37.05
  Q 99.10 36.46 99.70 36.44
  L 102.75 36.37
  A 0.90 0.90 0.0 0 1 103.68 37.25
  L 103.79 42.72
  Q 103.80 43.22 104.18 43.54
  L 108.24 46.98
  A 1.26 1.26 0.0 0 1 108.67 48.12
  Q 108.27 50.83 104.60 50.13
  Q 103.51 49.92 103.51 51.02
  L 103.50 62.84
  A 1.08 1.08 0.0 0 1 102.41 63.91
  L 95.99 63.87
  Q 95.36 63.87 95.37 63.24
  L 95.42 55.22
  Q 95.43 52.51 92.72 52.50
  L 88.50 52.50
  Q 85.75 52.50 85.75 55.25
  L 85.76 63.30
  Q 85.76 63.99 85.07 63.97
  Q 78.49 63.79 78.45 63.79
  Q 77.77 63.72 77.77 63.08
  Q 77.75 56.80 77.73 50.86
  Q 77.73 49.88 76.78 50.11
  Q 73.99 50.77 72.95 48.97
  A 1.54 1.53 -35.8 0 1 73.27 47.03
  L 89.27 33.12
  A 2.26 2.25 -44.9 0 1 92.24 33.12
  L 98.17 38.31
  Q 98.84 38.91 98.94 38.01
  Z"
/>
<path fill="#fcfcfc" d="
  M 49.4931 70.4360
  A 10.18 9.56 3.3 0 1 38.7797 79.3941
  A 10.18 9.56 3.3 0 1 29.1669 69.2640
  A 10.18 9.56 3.3 0 1 39.8803 60.3059
  A 10.18 9.56 3.3 0 1 49.4931 70.4360
  Z
  M 46.7411 70.3254
  A 7.48 7.21 2.8 0 0 39.6222 62.7586
  A 7.48 7.21 2.8 0 0 31.7989 69.5946
  A 7.48 7.21 2.8 0 0 38.9178 77.1614
  A 7.48 7.21 2.8 0 0 46.7411 70.3254
  Z"
/>
<ellipse fill="#db4c74" cx="0.00" cy="0.00" transform="translate(39.27,69.96) rotate(2.8)" rx="7.48" ry="7.21"/>
</svg>
