<?xml version="1.0" encoding="UTF-8" standalone="no"?>
<!DOCTYPE svg PUBLIC "-//W3C//DTD SVG 1.1//EN" "http://www.w3.org/Graphics/SVG/1.1/DTD/svg11.dtd">
<svg xmlns="http://www.w3.org/2000/svg" version="1.1" viewBox="0.00 0.00 144.00 144.00">
<g stroke-width="2.00" fill="none" stroke-linecap="butt">
<path stroke="#bce6f8" vector-effect="non-scaling-stroke" d="
  M 37.89 42.76
  L 37.94 96.89"
/>
<path stroke="#939ac5" vector-effect="non-scaling-stroke" d="
  M 37.94 96.89
  Q 36.98 96.78 34.94 97.06
  Q 33.14 97.31 33.01 99.33
  Q 33.00 99.46 33.03 99.59
  Q 33.41 101.56 35.24 101.63
  Q 39.89 101.78 43.34 101.75"
/>
<path stroke="#bce6f8" vector-effect="non-scaling-stroke" d="
  M 43.34 101.75
  L 43.26 113.42"
/>
<path stroke="#939ac5" vector-effect="non-scaling-stroke" d="
  M 43.26 113.42
  C 40.66 113.40 36.92 112.97 34.91 114.33
  C 32.24 116.14 32.47 120.69 35.38 122.25
  Q 36.75 122.97 39.35 122.99
  Q 49.22 123.06 58.03 122.94
  Q 62.15 122.88 63.04 118.86
  Q 63.10 118.60 63.09 118.32
  Q 62.96 114.10 59.11 113.67
  Q 54.77 113.19 52.67 113.43"
/>
<path stroke="#bce6f8" vector-effect="non-scaling-stroke" d="
  M 52.67 113.43
  L 52.72 101.75"
/>
<path stroke="#939ac5" vector-effect="non-scaling-stroke" d="
  M 52.72 101.75
  Q 56.57 101.82 61.36 101.62
  Q 62.55 101.57 63.12 99.86
  Q 63.25 99.46 63.11 99.03
  Q 62.44 97.09 60.40 96.99
  L 57.93 96.87"
/>
<path stroke="#bce6f8" vector-effect="non-scaling-stroke" d="
  M 57.93 96.87
  L 58.20 93.91"
/>
<path stroke="#939ac5" vector-effect="non-scaling-stroke" d="
  M 58.20 93.91
  L 58.26 90.94"
/>
<path stroke="#bce6f8" vector-effect="non-scaling-stroke" d="
  M 58.26 90.94
  L 58.19 84.92"
/>
<path stroke="#939ac5" vector-effect="non-scaling-stroke" d="
  M 58.19 84.92
  L 58.17 81.95"
/>
<path stroke="#bce6f8" vector-effect="non-scaling-stroke" d="
  M 58.17 81.95
  L 58.20 75.95"
/>
<path stroke="#939ac5" vector-effect="non-scaling-stroke" d="
  M 58.20 75.95
  L 58.18 72.96"
/>
<path stroke="#bce6f8" vector-effect="non-scaling-stroke" d="
  M 58.18 72.96
  L 58.21 66.93"
/>
<path stroke="#939ac5" vector-effect="non-scaling-stroke" d="
  M 58.21 66.93
  L 58.18 63.96"
/>
<path stroke="#bce6f8" vector-effect="non-scaling-stroke" d="
  M 58.18 63.96
  L 58.18 57.94"
/>
<path stroke="#939ac5" vector-effect="non-scaling-stroke" d="
  M 58.18 57.94
  L 58.25 54.85"
/>
<path stroke="#bce6f8" vector-effect="non-scaling-stroke" d="
  M 58.25 54.85
  L 58.18 48.90"
/>
<path stroke="#939ac5" vector-effect="non-scaling-stroke" d="
  M 58.18 48.90
  L 58.17 45.85"
/>
<path stroke="#bce6f8" vector-effect="non-scaling-stroke" d="
  M 58.17 45.85
  L 58.16 42.77"
/>
<path stroke="#939ac5" vector-effect="non-scaling-stroke" d="
  M 58.16 42.77
  Q 59.73 42.95 60.40 42.57
  A 2.47 2.40 62.6 0 0 61.35 39.41
  Q 60.69 38.00 59.10 38.00
  Q 54.40 38.01 50.46 38.00
  Q 49.77 38.00 49.77 37.31
  L 49.76 23.21
  Q 49.76 21.61 48.24 21.08
  Q 47.35 20.78 46.52 22.89
  A 1.63 1.47 -36.9 0 0 46.41 23.46
  L 46.44 37.47
  Q 46.44 37.97 45.94 37.98
  C 42.90 38.03 39.97 37.90 37.11 37.97
  Q 34.65 38.03 34.45 40.02
  Q 34.12 43.23 37.89 42.76"
/>
<path stroke="#5384c1" vector-effect="non-scaling-stroke" d="
  M 58.16 42.77
  L 37.89 42.76"
/>
<path stroke="#5384c1" vector-effect="non-scaling-stroke" d="
  M 58.17 45.85
  Q 53.97 45.90 47.91 46.03
  Q 46.83 46.05 46.29 47.20
  Q 45.99 47.86 47.07 48.49
  A 1.34 1.31 -28.4 0 0 47.70 48.67
  L 58.18 48.90"
/>
<path stroke="#5384c1" vector-effect="non-scaling-stroke" d="
  M 58.25 54.85
  C 54.61 54.97 50.06 54.34 46.69 55.75
  A 0.69 0.69 0.0 0 0 46.53 56.93
  Q 47.17 57.43 48.33 57.51
  Q 53.22 57.88 58.18 57.94"
/>
<path stroke="#5384c1" vector-effect="non-scaling-stroke" d="
  M 58.18 63.96
  Q 53.04 63.76 48.01 64.11
  Q 46.59 64.21 46.31 65.19
  A 1.09 1.08 -81.1 0 0 47.32 66.58
  L 58.21 66.93"
/>
<path stroke="#5384c1" vector-effect="non-scaling-stroke" d="
  M 58.18 72.96
  Q 53.15 72.70 48.26 73.04
  Q 46.81 73.14 46.32 74.30
  Q 46.11 74.81 46.59 75.07
  C 49.39 76.61 54.94 75.95 58.20 75.95"
/>
<path stroke="#5384c1" vector-effect="non-scaling-stroke" d="
  M 58.17 81.95
  L 47.69 82.09
  A 1.39 1.37 25.7 0 0 46.90 82.36
  Q 45.56 83.39 46.99 84.44
  A 1.47 1.44 62.8 0 0 47.86 84.73
  L 58.19 84.92"
/>
<path stroke="#5384c1" vector-effect="non-scaling-stroke" d="
  M 58.26 90.94
  Q 53.10 90.73 47.63 91.11
  Q 46.65 91.17 46.28 92.33
  Q 46.14 92.79 46.84 93.25
  Q 47.53 93.69 48.35 93.71
  L 58.20 93.91"
/>
<path stroke="#5384c1" vector-effect="non-scaling-stroke" d="
  M 57.93 96.87
  L 37.94 96.89"
/>
<path stroke="#5384c1" vector-effect="non-scaling-stroke" d="
  M 52.72 101.75
  L 43.34 101.75"
/>
<path stroke="#5384c1" vector-effect="non-scaling-stroke" d="
  M 52.67 113.43
  L 43.26 113.42"
/>
<path stroke="#bce6f8" vector-effect="non-scaling-stroke" d="
  M 81.81 49.00
  L 81.62 52.76
  Q 81.59 53.26 81.17 53.55
  Q 71.74 59.93 71.77 71.70
  Q 71.84 94.13 71.79 119.23
  Q 71.78 122.99 75.54 122.99
  L 107.95 122.99
  A 3.27 3.27 0.0 0 0 111.22 119.72
  L 111.20 105.07"
/>
<path stroke="#939ac5" vector-effect="non-scaling-stroke" d="
  M 111.20 105.07
  L 111.21 95.56
  Q 111.21 95.10 110.76 95.10
  L 94.79 95.08
  Q 93.47 95.08 93.23 93.77
  Q 93.12 93.16 93.63 92.53
  A 1.18 1.16 19.3 0 1 94.54 92.10
  L 110.95 92.08
  Q 111.23 92.08 111.23 91.80
  L 111.24 86.29
  A 0.20 0.20 0.0 0 0 111.04 86.09
  L 94.48 86.09
  A 1.22 1.22 0.0 0 1 93.31 85.22
  Q 93.15 84.71 93.27 84.23
  A 1.51 1.50 -82.8 0 1 94.73 83.09
  L 110.69 83.08
  Q 111.20 83.08 111.19 82.57
  L 111.11 74.94"
/>
<path stroke="#bce6f8" vector-effect="non-scaling-stroke" d="
  M 111.11 74.94
  Q 112.60 60.88 101.83 53.43
  Q 101.43 53.15 101.38 52.66
  L 101.08 49.00"
/>
<path stroke="#939ac5" vector-effect="non-scaling-stroke" d="
  M 101.08 49.00
  L 103.56 48.84
  A 1.27 1.26 88.3 0 0 104.75 47.57
  L 104.75 39.50
  A 1.51 1.51 0.0 0 0 103.25 37.99
  L 80.00 37.98
  A 1.53 1.52 0.4 0 0 78.47 39.48
  Q 78.42 43.50 78.42 47.57
  Q 78.42 49.47 81.81 49.00"
/>
<path stroke="#5384c1" vector-effect="non-scaling-stroke" d="
  M 101.08 49.00
  L 81.81 49.00"
/>
<path stroke="#5384c1" vector-effect="non-scaling-stroke" d="
  M 111.11 74.94
  L 83.95 75.01
  A 2.79 2.78 89.9 0 0 81.18 77.80
  L 81.17 102.16
  A 2.88 2.88 0.0 0 0 84.05 105.04
  L 111.20 105.07"
/>
</g>
<path fill="#fcfcfc" d="
  M 28.13 0.00
  L 116.00 0.00
  Q 140.45 3.65 144.00 28.12
  L 144.00 115.99
  Q 141.45 136.16 122.50 142.74
  Q 120.84 143.31 115.87 144.00
  L 27.99 144.00
  Q 3.48 140.43 0.00 115.89
  L 0.00 27.97
  Q 3.57 3.60 28.13 0.00
  Z
  M 37.89 42.76
  L 37.94 96.89
  Q 36.98 96.78 34.94 97.06
  Q 33.14 97.31 33.01 99.33
  Q 33.00 99.46 33.03 99.59
  Q 33.41 101.56 35.24 101.63
  Q 39.89 101.78 43.34 101.75
  L 43.26 113.42
  C 40.66 113.40 36.92 112.97 34.91 114.33
  C 32.24 116.14 32.47 120.69 35.38 122.25
  Q 36.75 122.97 39.35 122.99
  Q 49.22 123.06 58.03 122.94
  Q 62.15 122.88 63.04 118.86
  Q 63.10 118.60 63.09 118.32
  Q 62.96 114.10 59.11 113.67
  Q 54.77 113.19 52.67 113.43
  L 52.72 101.75
  Q 56.57 101.82 61.36 101.62
  Q 62.55 101.57 63.12 99.86
  Q 63.25 99.46 63.11 99.03
  Q 62.44 97.09 60.40 96.99
  L 57.93 96.87
  L 58.20 93.91
  L 58.26 90.94
  L 58.19 84.92
  L 58.17 81.95
  L 58.20 75.95
  L 58.18 72.96
  L 58.21 66.93
  L 58.18 63.96
  L 58.18 57.94
  L 58.25 54.85
  L 58.18 48.90
  L 58.17 45.85
  L 58.16 42.77
  Q 59.73 42.95 60.40 42.57
  A 2.47 2.40 62.6 0 0 61.35 39.41
  Q 60.69 38.00 59.10 38.00
  Q 54.40 38.01 50.46 38.00
  Q 49.77 38.00 49.77 37.31
  L 49.76 23.21
  Q 49.76 21.61 48.24 21.08
  Q 47.35 20.78 46.52 22.89
  A 1.63 1.47 -36.9 0 0 46.41 23.46
  L 46.44 37.47
  Q 46.44 37.97 45.94 37.98
  C 42.90 38.03 39.97 37.90 37.11 37.97
  Q 34.65 38.03 34.45 40.02
  Q 34.12 43.23 37.89 42.76
  Z
  M 81.81 49.00
  L 81.62 52.76
  Q 81.59 53.26 81.17 53.55
  Q 71.74 59.93 71.77 71.70
  Q 71.84 94.13 71.79 119.23
  Q 71.78 122.99 75.54 122.99
  L 107.95 122.99
  A 3.27 3.27 0.0 0 0 111.22 119.72
  L 111.20 105.07
  L 111.21 95.56
  Q 111.21 95.10 110.76 95.10
  L 94.79 95.08
  Q 93.47 95.08 93.23 93.77
  Q 93.12 93.16 93.63 92.53
  A 1.18 1.16 19.3 0 1 94.54 92.10
  L 110.95 92.08
  Q 111.23 92.08 111.23 91.80
  L 111.24 86.29
  A 0.20 0.20 0.0 0 0 111.04 86.09
  L 94.48 86.09
  A 1.22 1.22 0.0 0 1 93.31 85.22
  Q 93.15 84.71 93.27 84.23
  A 1.51 1.50 -82.8 0 1 94.73 83.09
  L 110.69 83.08
  Q 111.20 83.08 111.19 82.57
  L 111.11 74.94
  Q 112.60 60.88 101.83 53.43
  Q 101.43 53.15 101.38 52.66
  L 101.08 49.00
  L 103.56 48.84
  A 1.27 1.26 88.3 0 0 104.75 47.57
  L 104.75 39.50
  A 1.51 1.51 0.0 0 0 103.25 37.99
  L 80.00 37.98
  A 1.53 1.52 0.4 0 0 78.47 39.48
  Q 78.42 43.50 78.42 47.57
  Q 78.42 49.47 81.81 49.00
  Z"
/>
<path fill="#29378d" d="
  M 58.16 42.77
  L 37.89 42.76
  Q 34.12 43.23 34.45 40.02
  Q 34.65 38.03 37.11 37.97
  C 39.97 37.90 42.90 38.03 45.94 37.98
  Q 46.44 37.97 46.44 37.47
  L 46.41 23.46
  A 1.63 1.47 -36.9 0 1 46.52 22.89
  Q 47.35 20.78 48.24 21.08
  Q 49.76 21.61 49.76 23.21
  L 49.77 37.31
  Q 49.77 38.00 50.46 38.00
  Q 54.40 38.01 59.10 38.00
  Q 60.69 38.00 61.35 39.41
  A 2.47 2.40 62.6 0 1 60.40 42.57
  Q 59.73 42.95 58.16 42.77
  Z"
/>
<path fill="#29378d" d="
  M 101.08 49.00
  L 81.81 49.00
  Q 78.42 49.47 78.42 47.57
  Q 78.42 43.50 78.47 39.48
  A 1.53 1.52 0.4 0 1 80.00 37.98
  L 103.25 37.99
  A 1.51 1.51 0.0 0 1 104.75 39.50
  L 104.75 47.57
  A 1.27 1.26 88.3 0 1 103.56 48.84
  L 101.08 49.00
  Z"
/>
<path fill="#7cd0f4" d="
  M 37.89 42.76
  L 58.16 42.77
  L 58.17 45.85
  Q 53.97 45.90 47.91 46.03
  Q 46.83 46.05 46.29 47.20
  Q 45.99 47.86 47.07 48.49
  A 1.34 1.31 -28.4 0 0 47.70 48.67
  L 58.18 48.90
  L 58.25 54.85
  C 54.61 54.97 50.06 54.34 46.69 55.75
  A 0.69 0.69 0.0 0 0 46.53 56.93
  Q 47.17 57.43 48.33 57.51
  Q 53.22 57.88 58.18 57.94
  L 58.18 63.96
  Q 53.04 63.76 48.01 64.11
  Q 46.59 64.21 46.31 65.19
  A 1.09 1.08 -81.1 0 0 47.32 66.58
  L 58.21 66.93
  L 58.18 72.96
  Q 53.15 72.70 48.26 73.04
  Q 46.81 73.14 46.32 74.30
  Q 46.11 74.81 46.59 75.07
  C 49.39 76.61 54.94 75.95 58.20 75.95
  L 58.17 81.95
  L 47.69 82.09
  A 1.39 1.37 25.7 0 0 46.90 82.36
  Q 45.56 83.39 46.99 84.44
  A 1.47 1.44 62.8 0 0 47.86 84.73
  L 58.19 84.92
  L 58.26 90.94
  Q 53.10 90.73 47.63 91.11
  Q 46.65 91.17 46.28 92.33
  Q 46.14 92.79 46.84 93.25
  Q 47.53 93.69 48.35 93.71
  L 58.20 93.91
  L 57.93 96.87
  L 37.94 96.89
  L 37.89 42.76
  Z"
/>
<path fill="#29378d" d="
  M 58.17 45.85
  L 58.18 48.90
  L 47.70 48.67
  A 1.34 1.31 -28.4 0 1 47.07 48.49
  Q 45.99 47.86 46.29 47.20
  Q 46.83 46.05 47.91 46.03
  Q 53.97 45.90 58.17 45.85
  Z"
/>
<path fill="#7cd0f4" d="
  M 81.81 49.00
  L 101.08 49.00
  L 101.38 52.66
  Q 101.43 53.15 101.83 53.43
  Q 112.60 60.88 111.11 74.94
  L 83.95 75.01
  A 2.79 2.78 89.9 0 0 81.18 77.80
  L 81.17 102.16
  A 2.88 2.88 0.0 0 0 84.05 105.04
  L 111.20 105.07
  L 111.22 119.72
  A 3.27 3.27 0.0 0 1 107.95 122.99
  L 75.54 122.99
  Q 71.78 122.99 71.79 119.23
  Q 71.84 94.13 71.77 71.70
  Q 71.74 59.93 81.17 53.55
  Q 81.59 53.26 81.62 52.76
  L 81.81 49.00
  Z"
/>
<path fill="#29378d" d="
  M 58.25 54.85
  L 58.18 57.94
  Q 53.22 57.88 48.33 57.51
  Q 47.17 57.43 46.53 56.93
  A 0.69 0.69 0.0 0 1 46.69 55.75
  C 50.06 54.34 54.61 54.97 58.25 54.85
  Z"
/>
<path fill="#29378d" d="
  M 58.18 63.96
  L 58.21 66.93
  L 47.32 66.58
  A 1.09 1.08 -81.1 0 1 46.31 65.19
  Q 46.59 64.21 48.01 64.11
  Q 53.04 63.76 58.18 63.96
  Z"
/>
<path fill="#29378d" d="
  M 58.18 72.96
  L 58.20 75.95
  C 54.94 75.95 49.39 76.61 46.59 75.07
  Q 46.11 74.81 46.32 74.30
  Q 46.81 73.14 48.26 73.04
  Q 53.15 72.70 58.18 72.96
  Z"
/>
<path fill="#29378d" d="
  M 111.11 74.94
  L 111.19 82.57
  Q 111.20 83.08 110.69 83.08
  L 94.73 83.09
  A 1.51 1.50 -82.8 0 0 93.27 84.23
  Q 93.15 84.71 93.31 85.22
  A 1.22 1.22 0.0 0 0 94.48 86.09
  L 111.04 86.09
  A 0.20 0.20 0.0 0 1 111.24 86.29
  L 111.23 91.80
  Q 111.23 92.08 110.95 92.08
  L 94.54 92.10
  A 1.18 1.16 19.3 0 0 93.63 92.53
  Q 93.12 93.16 93.23 93.77
  Q 93.47 95.08 94.79 95.08
  L 110.76 95.10
  Q 111.21 95.10 111.21 95.56
  L 111.20 105.07
  L 84.05 105.04
  A 2.88 2.88 0.0 0 1 81.17 102.16
  L 81.18 77.80
  A 2.79 2.78 89.9 0 1 83.95 75.01
  L 111.11 74.94
  Z"
/>
<path fill="#29378d" d="
  M 58.17 81.95
  L 58.19 84.92
  L 47.86 84.73
  A 1.47 1.44 62.8 0 1 46.99 84.44
  Q 45.56 83.39 46.90 82.36
  A 1.39 1.37 25.7 0 1 47.69 82.09
  L 58.17 81.95
  Z"
/>
<path fill="#29378d" d="
  M 58.26 90.94
  L 58.20 93.91
  L 48.35 93.71
  Q 47.53 93.69 46.84 93.25
  Q 46.14 92.79 46.28 92.33
  Q 46.65 91.17 47.63 91.11
  Q 53.10 90.73 58.26 90.94
  Z"
/>
<path fill="#29378d" d="
  M 57.93 96.87
  L 60.40 96.99
  Q 62.44 97.09 63.11 99.03
  Q 63.25 99.46 63.12 99.86
  Q 62.55 101.57 61.36 101.62
  Q 56.57 101.82 52.72 101.75
  L 43.34 101.75
  Q 39.89 101.78 35.24 101.63
  Q 33.41 101.56 33.03 99.59
  Q 33.00 99.46 33.01 99.33
  Q 33.14 97.31 34.94 97.06
  Q 36.98 96.78 37.94 96.89
  L 57.93 96.87
  Z"
/>
<path fill="#7cd0f4" d="
  M 43.34 101.75
  L 52.72 101.75
  L 52.67 113.43
  L 43.26 113.42
  L 43.34 101.75
  Z"
/>
<path fill="#29378d" d="
  M 43.26 113.42
  L 52.67 113.43
  Q 54.77 113.19 59.11 113.67
  Q 62.96 114.10 63.09 118.32
  Q 63.10 118.60 63.04 118.86
  Q 62.15 122.88 58.03 122.94
  Q 49.22 123.06 39.35 122.99
  Q 36.75 122.97 35.38 122.25
  C 32.47 120.69 32.24 116.14 34.91 114.33
  C 36.92 112.97 40.66 113.40 43.26 113.42
  Z"
/>
</svg>
