<?xml version="1.0" encoding="UTF-8" standalone="no"?>
<!DOCTYPE svg PUBLIC "-//W3C//DTD SVG 1.1//EN" "http://www.w3.org/Graphics/SVG/1.1/DTD/svg11.dtd">
<svg xmlns="http://www.w3.org/2000/svg" version="1.1" viewBox="0.00 0.00 144.00 144.00">
<g stroke-width="2.00" fill="none" stroke-linecap="butt">
<path stroke="#7eaac7" vector-effect="non-scaling-stroke" d="
  M 79.22 63.54
  Q 79.58 60.96 82.18 60.96
  L 111.71 60.96
  Q 112.42 60.96 112.12 60.31
  C 109.53 54.70 104.56 48.21 98.25 48.22
  Q 61.21 48.28 24.29 48.24
  A 0.29 0.29 0.0 0 0 24.00 48.53
  L 24.00 86.52
  A 0.57 0.57 0.0 0 0 24.57 87.09
  Q 69.08 87.09 113.29 87.09
  C 117.83 87.10 119.81 82.65 119.71 78.72
  C 119.62 75.18 117.50 71.60 116.39 68.23
  A 0.72 0.71 81.0 0 0 115.71 67.73
  L 82.46 67.73
  Q 79.24 67.73 79.17 64.52
  Q 79.16 64.02 79.22 63.54"
/>
<path stroke="#e887a2" vector-effect="non-scaling-stroke" d="
  M 119.66 96.80
  L 119.67 94.33
  Q 119.67 91.00 116.34 91.00
  L 24.26 91.00
  Q 24.12 91.00 24.11 91.14
  Q 23.82 95.52 24.16 99.85
  Q 24.18 99.99 24.31 99.99
  L 116.46 100.00
  Q 119.66 100.00 119.66 96.80"
/>
<path stroke="#7eaac7" vector-effect="non-scaling-stroke" d="
  M 44.7306 64.1933
  A 3.19 3.19 0.0 0 0 41.5517 60.9922
  L 34.5717 60.9678
  A 3.19 3.19 0.0 0 0 31.3706 64.1467
  L 31.3694 64.4867
  A 3.19 3.19 0.0 0 0 34.5483 67.6878
  L 41.5283 67.7122
  A 3.19 3.19 0.0 0 0 44.7294 64.5333
  L 44.7306 64.1933"
/>
<path stroke="#7eaac7" vector-effect="non-scaling-stroke" d="
  M 65.2306 64.1833
  A 3.18 3.18 0.0 0 0 62.0617 60.9922
  L 55.0617 60.9678
  A 3.18 3.18 0.0 0 0 51.8707 64.1367
  L 51.8694 64.4967
  A 3.18 3.18 0.0 0 0 55.0383 67.6878
  L 62.0383 67.7122
  A 3.18 3.18 0.0 0 0 65.2293 64.5433
  L 65.2306 64.1833"
/>
</g>
<path fill="#fcfcfc" d="
  M 27.63 0.00
  L 116.47 0.00
  Q 140.65 4.09 144.00 28.08
  L 144.00 116.01
  Q 140.54 140.17 116.38 144.00
  L 27.48 144.00
  Q 4.05 140.20 0.00 116.60
  L 0.00 27.50
  Q 3.89 3.83 27.63 0.00
  Z
  M 79.22 63.54
  Q 79.58 60.96 82.18 60.96
  L 111.71 60.96
  Q 112.42 60.96 112.12 60.31
  C 109.53 54.70 104.56 48.21 98.25 48.22
  Q 61.21 48.28 24.29 48.24
  A 0.29 0.29 0.0 0 0 24.00 48.53
  L 24.00 86.52
  A 0.57 0.57 0.0 0 0 24.57 87.09
  Q 69.08 87.09 113.29 87.09
  C 117.83 87.10 119.81 82.65 119.71 78.72
  C 119.62 75.18 117.50 71.60 116.39 68.23
  A 0.72 0.71 81.0 0 0 115.71 67.73
  L 82.46 67.73
  Q 79.24 67.73 79.17 64.52
  Q 79.16 64.02 79.22 63.54
  Z
  M 119.66 96.80
  L 119.67 94.33
  Q 119.67 91.00 116.34 91.00
  L 24.26 91.00
  Q 24.12 91.00 24.11 91.14
  Q 23.82 95.52 24.16 99.85
  Q 24.18 99.99 24.31 99.99
  L 116.46 100.00
  Q 119.66 100.00 119.66 96.80
  Z"
/>
<path fill="#005891" d="
  M 79.22 63.54
  Q 79.16 64.02 79.17 64.52
  Q 79.24 67.73 82.46 67.73
  L 115.71 67.73
  A 0.72 0.71 81.0 0 1 116.39 68.23
  C 117.50 71.60 119.62 75.18 119.71 78.72
  C 119.81 82.65 117.83 87.10 113.29 87.09
  Q 69.08 87.09 24.57 87.09
  A 0.57 0.57 0.0 0 1 24.00 86.52
  L 24.00 48.53
  A 0.29 0.29 0.0 0 1 24.29 48.24
  Q 61.21 48.28 98.25 48.22
  C 104.56 48.21 109.53 54.70 112.12 60.31
  Q 112.42 60.96 111.71 60.96
  L 82.18 60.96
  Q 79.58 60.96 79.22 63.54
  Z
  M 44.7306 64.1933
  A 3.19 3.19 0.0 0 0 41.5517 60.9922
  L 34.5717 60.9678
  A 3.19 3.19 0.0 0 0 31.3706 64.1467
  L 31.3694 64.4867
  A 3.19 3.19 0.0 0 0 34.5483 67.6878
  L 41.5283 67.7122
  A 3.19 3.19 0.0 0 0 44.7294 64.5333
  L 44.7306 64.1933
  Z
  M 65.2306 64.1833
  A 3.18 3.18 0.0 0 0 62.0617 60.9922
  L 55.0617 60.9678
  A 3.18 3.18 0.0 0 0 51.8707 64.1367
  L 51.8694 64.4967
  A 3.18 3.18 0.0 0 0 55.0383 67.6878
  L 62.0383 67.7122
  A 3.18 3.18 0.0 0 0 65.2293 64.5433
  L 65.2306 64.1833
  Z"
/>
<rect fill="#fcfcfc" x="-6.68" y="-3.36" transform="translate(38.05,64.34) rotate(0.2)" width="13.36" height="6.72" rx="3.19"/>
<rect fill="#fcfcfc" x="-6.68" y="-3.36" transform="translate(58.55,64.34) rotate(0.2)" width="13.36" height="6.72" rx="3.18"/>
<path fill="#d41248" d="
  M 119.66 96.80
  Q 119.66 100.00 116.46 100.00
  L 24.31 99.99
  Q 24.18 99.99 24.16 99.85
  Q 23.82 95.52 24.11 91.14
  Q 24.12 91.00 24.26 91.00
  L 116.34 91.00
  Q 119.67 91.00 119.67 94.33
  L 119.66 96.80
  Z"
/>
</svg>
