<?xml version="1.0" encoding="UTF-8" standalone="no"?>
<!DOCTYPE svg PUBLIC "-//W3C//DTD SVG 1.1//EN" "http://www.w3.org/Graphics/SVG/1.1/DTD/svg11.dtd">
<svg xmlns="http://www.w3.org/2000/svg" version="1.1" viewBox="0.00 0.00 196.00 156.00">
<g stroke-width="2.00" fill="none" stroke-linecap="butt">
<path stroke="#ed94ab" vector-effect="non-scaling-stroke" d="
  M 144.75 42.45
  L 144.55 42.23
  Q 144.36 42.03 144.08 42.03
  Q 130.30 41.98 115.74 42.04
  C 109.37 42.07 103.90 41.06 99.42 37.09
  Q 88.71 27.58 93.41 12.83"
/>
<path stroke="#ed94ab" vector-effect="non-scaling-stroke" d="
  M 148.9500 29.4700
  A 10.97 8.45 90.0 0 0 157.4000 18.5000
  A 10.97 8.45 90.0 0 0 148.9500 7.5300
  A 10.97 8.45 90.0 0 0 140.5000 18.5000
  A 10.97 8.45 90.0 0 0 148.9500 29.4700"
/>
<path stroke="#ed94ab" vector-effect="non-scaling-stroke" d="
  M 168.87 12.53
  A 4.96 4.96 0.0 0 0 163.91 7.57
  A 4.96 4.96 0.0 0 0 158.95 12.53
  A 4.96 4.96 0.0 0 0 163.91 17.49
  A 4.96 4.96 0.0 0 0 168.87 12.53"
/>
<path stroke="#ed94ab" vector-effect="non-scaling-stroke" d="
  M 127.47 20.86
  L 133.68 8.73
  Q 134.05 8.01 133.24 8.01
  L 130.24 8.00
  Q 129.56 8.00 129.26 8.60
  Q 126.28 14.58 123.34 20.19
  Q 122.21 22.33 122.69 24.99
  Q 122.78 25.46 123.26 25.46
  L 132.01 25.45
  A 0.55 0.54 -89.5 0 1 132.55 26.01
  L 132.52 28.51
  Q 132.52 29.00 133.01 29.00
  L 136.13 29.00
  Q 136.76 29.00 136.76 28.37
  L 136.73 25.95
  A 0.54 0.53 -88.0 0 1 137.30 25.41
  L 138.37 25.48
  Q 139.01 25.52 139.00 24.88
  L 138.97 21.81
  A 0.29 0.29 0.0 0 0 138.67 21.52
  L 137.36 21.59
  Q 136.73 21.63 136.73 20.99
  L 136.75 16.96
  Q 136.75 16.63 136.42 16.63
  L 132.73 16.59
  Q 132.53 16.59 132.53 16.79
  L 132.54 21.02
  Q 132.54 21.58 131.98 21.58
  L 127.90 21.58
  Q 127.10 21.58 127.47 20.86"
/>
<path stroke="#ed94ab" vector-effect="non-scaling-stroke" d="
  M 176.0588 12.1171
  A 0.51 0.51 0.0 0 0 176.0210 11.3969
  L 175.2630 10.7144
  A 0.51 0.51 0.0 0 0 174.5428 10.7521
  L 161.4412 25.3029
  A 0.51 0.51 0.0 0 0 161.4790 26.0231
  L 162.2370 26.7056
  A 0.51 0.51 0.0 0 0 162.9572 26.6679
  L 176.0588 12.1171"
/>
<path stroke="#ed94ab" vector-effect="non-scaling-stroke" d="
  M 120.22 18.38
  A 0.33 0.33 0.0 0 0 119.89 18.05
  L 109.31 18.05
  A 0.33 0.33 0.0 0 0 108.98 18.38
  L 108.98 21.44
  A 0.33 0.33 0.0 0 0 109.31 21.77
  L 119.89 21.77
  A 0.33 0.33 0.0 0 0 120.22 21.44
  L 120.22 18.38"
/>
<path stroke="#ed94ab" vector-effect="non-scaling-stroke" d="
  M 179.01 24.41
  A 4.95 4.95 0.0 0 0 174.06 19.46
  A 4.95 4.95 0.0 0 0 169.11 24.41
  A 4.95 4.95 0.0 0 0 174.06 29.36
  A 4.95 4.95 0.0 0 0 179.01 24.41"
/>
<path stroke="#ed94ab" vector-effect="non-scaling-stroke" d="
  M 148.9479 25.4500
  A 6.96 4.36 90.1 0 0 153.3200 18.4976
  A 6.96 4.36 90.1 0 0 148.9721 11.5300
  A 6.96 4.36 90.1 0 0 144.6000 18.4824
  A 6.96 4.36 90.1 0 0 148.9479 25.4500"
/>
<path stroke="#ed94ab" vector-effect="non-scaling-stroke" d="
  M 165.68 12.54
  A 1.79 1.79 0.0 0 0 163.89 10.75
  A 1.79 1.79 0.0 0 0 162.10 12.54
  A 1.79 1.79 0.0 0 0 163.89 14.33
  A 1.79 1.79 0.0 0 0 165.68 12.54"
/>
<path stroke="#7eaac7" vector-effect="non-scaling-stroke" d="
  M 98.78 115.31
  C 98.83 117.80 98.26 120.71 99.62 122.90
  C 101.43 125.83 104.99 125.23 107.95 125.29
  C 111.87 125.38 114.66 123.92 114.69 119.72
  Q 114.78 107.65 114.59 97.22
  Q 114.48 91.05 111.82 84.80
  Q 111.66 84.41 112.07 84.37
  Q 116.24 83.97 116.92 80.00
  Q 117.37 77.32 116.62 75.34
  C 115.24 71.67 111.01 73.23 108.31 74.17
  Q 107.60 74.42 107.33 73.72
  Q 105.16 68.29 102.97 63.14
  Q 100.92 58.31 94.60 56.92
  Q 94.11 56.81 94.12 56.32
  Q 94.18 51.96 94.19 47.68
  Q 94.20 43.45 89.57 43.47
  Q 70.93 43.53 53.42 43.48
  A 3.58 3.58 0.0 0 0 49.82 47.07
  L 49.84 56.26
  Q 49.84 56.83 49.28 56.92
  Q 43.96 57.84 41.23 62.68
  Q 40.00 64.85 36.68 73.76
  Q 36.48 74.30 35.92 74.17
  C 32.60 73.43 27.55 71.10 27.01 76.90
  Q 26.38 83.74 31.64 84.30
  Q 32.26 84.36 32.04 84.95
  Q 29.34 92.00 29.30 97.48
  Q 29.24 108.65 29.21 119.10
  C 29.19 126.01 34.30 125.25 39.27 125.28
  C 46.03 125.33 44.96 119.93 45.15 115.32
  Q 45.18 114.75 45.75 114.75
  L 98.20 114.75
  Q 98.77 114.75 98.78 115.31"
/>
<path stroke="#ed94ab" vector-effect="non-scaling-stroke" d="
  M 175.85 24.42
  A 1.79 1.79 0.0 0 0 174.06 22.63
  A 1.79 1.79 0.0 0 0 172.27 24.42
  A 1.79 1.79 0.0 0 0 174.06 26.21
  A 1.79 1.79 0.0 0 0 175.85 24.42"
/>
<path stroke="#7d8e4b" vector-effect="non-scaling-stroke" d="
  M 60.26 48.47
  A 0.50 0.50 0.0 0 1 60.77 47.97
  L 62.80 48.00
  A 0.50 0.50 0.0 0 0 63.30 47.54
  L 63.45 45.53
  A 0.50 0.50 0.0 0 0 62.95 45.00
  L 54.49 44.97
  A 0.50 0.50 0.0 0 0 53.99 45.47
  L 54.00 47.51
  A 0.50 0.50 0.0 0 0 54.51 48.01
  L 56.63 47.98
  A 0.50 0.50 0.0 0 1 57.14 48.48
  L 57.08 56.53
  A 0.50 0.50 0.0 0 0 57.58 57.03
  L 59.77 57.02
  A 0.50 0.50 0.0 0 0 60.27 56.52
  L 60.26 48.47"
/>
<path stroke="#7d8e4b" vector-effect="non-scaling-stroke" d="
  M 66.94 55.26
  L 69.76 55.25
  Q 70.37 55.25 70.58 55.82
  Q 71.23 57.62 73.73 56.94
  Q 74.33 56.78 74.13 56.19
  L 70.59 45.74
  A 1.13 1.12 -9.4 0 0 69.52 44.98
  L 67.04 44.99
  Q 66.40 44.99 66.19 45.60
  L 62.56 56.33
  Q 62.38 56.87 62.93 57.00
  Q 65.60 57.60 66.21 55.79
  Q 66.38 55.26 66.94 55.26"
/>
<path stroke="#7d8e4b" vector-effect="non-scaling-stroke" d="
  M 80.73 54.50
  L 81.57 56.15
  Q 82.01 57.01 82.97 57.00
  L 85.00 57.00
  Q 85.70 56.99 85.33 56.40
  L 82.32 51.52
  A 1.18 1.16 -45.4 0 1 82.32 50.29
  L 85.18 45.66
  Q 85.50 45.15 84.91 45.01
  Q 81.43 44.23 80.76 47.29
  A 0.50 0.50 0.0 0 1 79.84 47.43
  L 78.92 45.82
  A 1.64 1.63 75.2 0 0 77.50 44.99
  L 75.49 44.99
  Q 74.75 44.99 75.14 45.62
  L 78.06 50.32
  Q 78.40 50.88 78.06 51.43
  L 75.07 56.27
  Q 74.62 57.01 75.49 57.01
  L 77.37 57.01
  Q 78.30 57.01 78.77 56.19
  L 79.73 54.48
  Q 80.25 53.56 80.73 54.50"
/>
<path stroke="#7d8e4b" vector-effect="non-scaling-stroke" d="
  M 89.9903 45.4572
  A 0.48 0.48 0.0 0 0 89.5095 44.9780
  L 87.2495 44.9820
  A 0.48 0.48 0.0 0 0 86.7704 45.4628
  L 86.7897 56.5228
  A 0.48 0.48 0.0 0 0 87.2705 57.0020
  L 89.5305 56.9980
  A 0.48 0.48 0.0 0 0 90.0096 56.5172
  L 89.9903 45.4572"
/>
<path stroke="#7eaac7" vector-effect="non-scaling-stroke" d="
  M 40.14 80.89
  Q 39.71 81.89 39.68 83.06
  A 2.13 2.13 0.0 0 0 41.81 85.25
  L 101.94 85.25
  A 2.43 2.43 0.0 0 0 104.19 81.89
  Q 100.85 73.80 97.39 65.25
  C 96.28 62.50 94.07 60.74 91.04 60.75
  Q 71.53 60.81 54.05 60.73
  C 50.90 60.72 48.04 61.61 46.75 64.82
  Q 43.45 73.10 40.14 80.89"
/>
<path stroke="#7d8e4b" vector-effect="non-scaling-stroke" d="
  M 55.7555 97.3052
  A 2.01 2.01 0.0 0 0 53.7490 95.2916
  L 40.4090 95.2684
  A 2.01 2.01 0.0 0 0 38.3955 97.2749
  L 38.3845 103.5748
  A 2.01 2.01 0.0 0 0 40.3910 105.5884
  L 53.7310 105.6116
  A 2.01 2.01 0.0 0 0 55.7445 103.6051
  L 55.7555 97.3052"
/>
<path stroke="#7d8e4b" vector-effect="non-scaling-stroke" d="
  M 105.46 97.33
  A 2.05 2.05 0.0 0 0 103.41 95.28
  L 90.13 95.28
  A 2.05 2.05 0.0 0 0 88.08 97.33
  L 88.08 103.55
  A 2.05 2.05 0.0 0 0 90.13 105.60
  L 103.41 105.60
  A 2.05 2.05 0.0 0 0 105.46 103.55
  L 105.46 97.33"
/>
<path stroke="#7d8e4b" vector-effect="non-scaling-stroke" d="
  M 68.12 52.62
  Q 68.56 52.74 69.01 52.62
  Q 69.52 52.48 69.40 51.97
  L 68.81 49.54
  Q 68.61 48.74 68.23 49.47
  Q 67.59 50.69 67.28 52.06
  Q 67.15 52.59 67.69 52.68
  Q 67.92 52.72 68.12 52.62"
/>
</g>
<path fill="#de2c5a" d="
  M 111.15 0.00
  L 176.98 0.00
  Q 193.35 3.01 196.00 19.35
  L 196.00 22.75
  Q 193.66 36.51 181.92 40.66
  Q 178.05 42.02 170.40 42.01
  Q 158.08 41.98 145.75 42.01
  Q 145.47 42.01 144.75 42.45
  L 144.55 42.23
  Q 144.36 42.03 144.08 42.03
  Q 130.30 41.98 115.74 42.04
  C 109.37 42.07 103.90 41.06 99.42 37.09
  Q 88.71 27.58 93.41 12.83
  Q 95.34 9.59 96.34 8.34
  Q 102.00 1.31 111.15 0.00
  Z
  M 148.9500 29.4700
  A 10.97 8.45 90.0 0 0 157.4000 18.5000
  A 10.97 8.45 90.0 0 0 148.9500 7.5300
  A 10.97 8.45 90.0 0 0 140.5000 18.5000
  A 10.97 8.45 90.0 0 0 148.9500 29.4700
  Z
  M 168.87 12.53
  A 4.96 4.96 0.0 0 0 163.91 7.57
  A 4.96 4.96 0.0 0 0 158.95 12.53
  A 4.96 4.96 0.0 0 0 163.91 17.49
  A 4.96 4.96 0.0 0 0 168.87 12.53
  Z
  M 127.47 20.86
  L 133.68 8.73
  Q 134.05 8.01 133.24 8.01
  L 130.24 8.00
  Q 129.56 8.00 129.26 8.60
  Q 126.28 14.58 123.34 20.19
  Q 122.21 22.33 122.69 24.99
  Q 122.78 25.46 123.26 25.46
  L 132.01 25.45
  A 0.55 0.54 -89.5 0 1 132.55 26.01
  L 132.52 28.51
  Q 132.52 29.00 133.01 29.00
  L 136.13 29.00
  Q 136.76 29.00 136.76 28.37
  L 136.73 25.95
  A 0.54 0.53 -88.0 0 1 137.30 25.41
  L 138.37 25.48
  Q 139.01 25.52 139.00 24.88
  L 138.97 21.81
  A 0.29 0.29 0.0 0 0 138.67 21.52
  L 137.36 21.59
  Q 136.73 21.63 136.73 20.99
  L 136.75 16.96
  Q 136.75 16.63 136.42 16.63
  L 132.73 16.59
  Q 132.53 16.59 132.53 16.79
  L 132.54 21.02
  Q 132.54 21.58 131.98 21.58
  L 127.90 21.58
  Q 127.10 21.58 127.47 20.86
  Z
  M 176.0588 12.1171
  A 0.51 0.51 0.0 0 0 176.0210 11.3969
  L 175.2630 10.7144
  A 0.51 0.51 0.0 0 0 174.5428 10.7521
  L 161.4412 25.3029
  A 0.51 0.51 0.0 0 0 161.4790 26.0231
  L 162.2370 26.7056
  A 0.51 0.51 0.0 0 0 162.9572 26.6679
  L 176.0588 12.1171
  Z
  M 120.22 18.38
  A 0.33 0.33 0.0 0 0 119.89 18.05
  L 109.31 18.05
  A 0.33 0.33 0.0 0 0 108.98 18.38
  L 108.98 21.44
  A 0.33 0.33 0.0 0 0 109.31 21.77
  L 119.89 21.77
  A 0.33 0.33 0.0 0 0 120.22 21.44
  L 120.22 18.38
  Z
  M 179.01 24.41
  A 4.95 4.95 0.0 0 0 174.06 19.46
  A 4.95 4.95 0.0 0 0 169.11 24.41
  A 4.95 4.95 0.0 0 0 174.06 29.36
  A 4.95 4.95 0.0 0 0 179.01 24.41
  Z"
/>
<path fill="#fcfcfc" d="
  M 148.9500 29.4700
  A 10.97 8.45 90.0 0 1 140.5000 18.5000
  A 10.97 8.45 90.0 0 1 148.9500 7.5300
  A 10.97 8.45 90.0 0 1 157.4000 18.5000
  A 10.97 8.45 90.0 0 1 148.9500 29.4700
  Z
  M 148.9479 25.4500
  A 6.96 4.36 90.1 0 0 153.3200 18.4976
  A 6.96 4.36 90.1 0 0 148.9721 11.5300
  A 6.96 4.36 90.1 0 0 144.6000 18.4824
  A 6.96 4.36 90.1 0 0 148.9479 25.4500
  Z"
/>
<path fill="#fcfcfc" d="
  M 168.87 12.53
  A 4.96 4.96 0.0 0 1 163.91 17.49
  A 4.96 4.96 0.0 0 1 158.95 12.53
  A 4.96 4.96 0.0 0 1 163.91 7.57
  A 4.96 4.96 0.0 0 1 168.87 12.53
  Z
  M 165.68 12.54
  A 1.79 1.79 0.0 0 0 163.89 10.75
  A 1.79 1.79 0.0 0 0 162.10 12.54
  A 1.79 1.79 0.0 0 0 163.89 14.33
  A 1.79 1.79 0.0 0 0 165.68 12.54
  Z"
/>
<path fill="#fcfcfc" d="
  M 127.90 21.58
  L 131.98 21.58
  Q 132.54 21.58 132.54 21.02
  L 132.53 16.79
  Q 132.53 16.59 132.73 16.59
  L 136.42 16.63
  Q 136.75 16.63 136.75 16.96
  L 136.73 20.99
  Q 136.73 21.63 137.36 21.59
  L 138.67 21.52
  A 0.29 0.29 0.0 0 1 138.97 21.81
  L 139.00 24.88
  Q 139.01 25.52 138.37 25.48
  L 137.30 25.41
  A 0.54 0.53 -88.0 0 0 136.73 25.95
  L 136.76 28.37
  Q 136.76 29.00 136.13 29.00
  L 133.01 29.00
  Q 132.52 29.00 132.52 28.51
  L 132.55 26.01
  A 0.55 0.54 -89.5 0 0 132.01 25.45
  L 123.26 25.46
  Q 122.78 25.46 122.69 24.99
  Q 122.21 22.33 123.34 20.19
  Q 126.28 14.58 129.26 8.60
  Q 129.56 8.00 130.24 8.00
  L 133.24 8.01
  Q 134.05 8.01 133.68 8.73
  L 127.47 20.86
  Q 127.10 21.58 127.90 21.58
  Z"
/>
<circle fill="#de2c5a" cx="163.89" cy="12.54" r="1.79"/>
<rect fill="#fcfcfc" x="-1.02" y="-10.30" transform="translate(168.75,18.71) rotate(42.0)" width="2.04" height="20.60" rx="0.51"/>
<ellipse fill="#de2c5a" cx="0.00" cy="0.00" transform="translate(148.96,18.49) rotate(90.1)" rx="6.96" ry="4.36"/>
<path fill="#fcfcfc" d="
  M 93.41 12.83
  Q 88.71 27.58 99.42 37.09
  C 103.90 41.06 109.37 42.07 115.74 42.04
  Q 130.30 41.98 144.08 42.03
  Q 144.36 42.03 144.55 42.23
  L 144.75 42.45
  Q 144.06 43.81 144.05 45.50
  Q 144.01 81.62 144.00 117.74
  Q 144.00 130.06 142.76 134.15
  C 139.54 144.88 130.87 153.54 119.44 155.15
  Q 117.37 155.44 115.37 156.00
  L 28.52 156.00
  Q 26.28 155.46 24.01 155.05
  Q 21.30 154.56 19.60 153.86
  Q 2.46 146.85 0.00 127.59
  L 0.00 40.26
  Q 0.44 38.53 0.73 36.75
  C 2.78 23.92 12.96 14.32 25.85 12.49
  Q 29.20 12.01 33.15 12.01
  Q 59.82 12.00 86.50 12.00
  Q 87.91 12.00 89.94 12.42
  Q 91.68 12.77 93.41 12.83
  Z
  M 98.78 115.31
  C 98.83 117.80 98.26 120.71 99.62 122.90
  C 101.43 125.83 104.99 125.23 107.95 125.29
  C 111.87 125.38 114.66 123.92 114.69 119.72
  Q 114.78 107.65 114.59 97.22
  Q 114.48 91.05 111.82 84.80
  Q 111.66 84.41 112.07 84.37
  Q 116.24 83.97 116.92 80.00
  Q 117.37 77.32 116.62 75.34
  C 115.24 71.67 111.01 73.23 108.31 74.17
  Q 107.60 74.42 107.33 73.72
  Q 105.16 68.29 102.97 63.14
  Q 100.92 58.31 94.60 56.92
  Q 94.11 56.81 94.12 56.32
  Q 94.18 51.96 94.19 47.68
  Q 94.20 43.45 89.57 43.47
  Q 70.93 43.53 53.42 43.48
  A 3.58 3.58 0.0 0 0 49.82 47.07
  L 49.84 56.26
  Q 49.84 56.83 49.28 56.92
  Q 43.96 57.84 41.23 62.68
  Q 40.00 64.85 36.68 73.76
  Q 36.48 74.30 35.92 74.17
  C 32.60 73.43 27.55 71.10 27.01 76.90
  Q 26.38 83.74 31.64 84.30
  Q 32.26 84.36 32.04 84.95
  Q 29.34 92.00 29.30 97.48
  Q 29.24 108.65 29.21 119.10
  C 29.19 126.01 34.30 125.25 39.27 125.28
  C 46.03 125.33 44.96 119.93 45.15 115.32
  Q 45.18 114.75 45.75 114.75
  L 98.20 114.75
  Q 98.77 114.75 98.78 115.31
  Z"
/>
<rect fill="#fcfcfc" x="108.98" y="18.05" width="11.24" height="3.72" rx="0.33"/>
<path fill="#fcfcfc" d="
  M 179.01 24.41
  A 4.95 4.95 0.0 0 1 174.06 29.36
  A 4.95 4.95 0.0 0 1 169.11 24.41
  A 4.95 4.95 0.0 0 1 174.06 19.46
  A 4.95 4.95 0.0 0 1 179.01 24.41
  Z
  M 175.85 24.42
  A 1.79 1.79 0.0 0 0 174.06 22.63
  A 1.79 1.79 0.0 0 0 172.27 24.42
  A 1.79 1.79 0.0 0 0 174.06 26.21
  A 1.79 1.79 0.0 0 0 175.85 24.42
  Z"
/>
<circle fill="#de2c5a" cx="174.06" cy="24.42" r="1.79"/>
<path fill="#005891" d="
  M 98.20 114.75
  L 45.75 114.75
  Q 45.18 114.75 45.15 115.32
  C 44.96 119.93 46.03 125.33 39.27 125.28
  C 34.30 125.25 29.19 126.01 29.21 119.10
  Q 29.24 108.65 29.30 97.48
  Q 29.34 92.00 32.04 84.95
  Q 32.26 84.36 31.64 84.30
  Q 26.38 83.74 27.01 76.90
  C 27.55 71.10 32.60 73.43 35.92 74.17
  Q 36.48 74.30 36.68 73.76
  Q 40.00 64.85 41.23 62.68
  Q 43.96 57.84 49.28 56.92
  Q 49.84 56.83 49.84 56.26
  L 49.82 47.07
  A 3.58 3.58 0.0 0 1 53.42 43.48
  Q 70.93 43.53 89.57 43.47
  Q 94.20 43.45 94.19 47.68
  Q 94.18 51.96 94.12 56.32
  Q 94.11 56.81 94.60 56.92
  Q 100.92 58.31 102.97 63.14
  Q 105.16 68.29 107.33 73.72
  Q 107.60 74.42 108.31 74.17
  C 111.01 73.23 115.24 71.67 116.62 75.34
  Q 117.37 77.32 116.92 80.00
  Q 116.24 83.97 112.07 84.37
  Q 111.66 84.41 111.82 84.80
  Q 114.48 91.05 114.59 97.22
  Q 114.78 107.65 114.69 119.72
  C 114.66 123.92 111.87 125.38 107.95 125.29
  C 104.99 125.23 101.43 125.83 99.62 122.90
  C 98.26 120.71 98.83 117.80 98.78 115.31
  Q 98.77 114.75 98.20 114.75
  Z
  M 60.26 48.47
  A 0.50 0.50 0.0 0 1 60.77 47.97
  L 62.80 48.00
  A 0.50 0.50 0.0 0 0 63.30 47.54
  L 63.45 45.53
  A 0.50 0.50 0.0 0 0 62.95 45.00
  L 54.49 44.97
  A 0.50 0.50 0.0 0 0 53.99 45.47
  L 54.00 47.51
  A 0.50 0.50 0.0 0 0 54.51 48.01
  L 56.63 47.98
  A 0.50 0.50 0.0 0 1 57.14 48.48
  L 57.08 56.53
  A 0.50 0.50 0.0 0 0 57.58 57.03
  L 59.77 57.02
  A 0.50 0.50 0.0 0 0 60.27 56.52
  L 60.26 48.47
  Z
  M 66.94 55.26
  L 69.76 55.25
  Q 70.37 55.25 70.58 55.82
  Q 71.23 57.62 73.73 56.94
  Q 74.33 56.78 74.13 56.19
  L 70.59 45.74
  A 1.13 1.12 -9.4 0 0 69.52 44.98
  L 67.04 44.99
  Q 66.40 44.99 66.19 45.60
  L 62.56 56.33
  Q 62.38 56.87 62.93 57.00
  Q 65.60 57.60 66.21 55.79
  Q 66.38 55.26 66.94 55.26
  Z
  M 80.73 54.50
  L 81.57 56.15
  Q 82.01 57.01 82.97 57.00
  L 85.00 57.00
  Q 85.70 56.99 85.33 56.40
  L 82.32 51.52
  A 1.18 1.16 -45.4 0 1 82.32 50.29
  L 85.18 45.66
  Q 85.50 45.15 84.91 45.01
  Q 81.43 44.23 80.76 47.29
  A 0.50 0.50 0.0 0 1 79.84 47.43
  L 78.92 45.82
  A 1.64 1.63 75.2 0 0 77.50 44.99
  L 75.49 44.99
  Q 74.75 44.99 75.14 45.62
  L 78.06 50.32
  Q 78.40 50.88 78.06 51.43
  L 75.07 56.27
  Q 74.62 57.01 75.49 57.01
  L 77.37 57.01
  Q 78.30 57.01 78.77 56.19
  L 79.73 54.48
  Q 80.25 53.56 80.73 54.50
  Z
  M 89.9903 45.4572
  A 0.48 0.48 0.0 0 0 89.5095 44.9780
  L 87.2495 44.9820
  A 0.48 0.48 0.0 0 0 86.7704 45.4628
  L 86.7897 56.5228
  A 0.48 0.48 0.0 0 0 87.2705 57.0020
  L 89.5305 56.9980
  A 0.48 0.48 0.0 0 0 90.0096 56.5172
  L 89.9903 45.4572
  Z
  M 40.14 80.89
  Q 39.71 81.89 39.68 83.06
  A 2.13 2.13 0.0 0 0 41.81 85.25
  L 101.94 85.25
  A 2.43 2.43 0.0 0 0 104.19 81.89
  Q 100.85 73.80 97.39 65.25
  C 96.28 62.50 94.07 60.74 91.04 60.75
  Q 71.53 60.81 54.05 60.73
  C 50.90 60.72 48.04 61.61 46.75 64.82
  Q 43.45 73.10 40.14 80.89
  Z
  M 55.7555 97.3052
  A 2.01 2.01 0.0 0 0 53.7490 95.2916
  L 40.4090 95.2684
  A 2.01 2.01 0.0 0 0 38.3955 97.2749
  L 38.3845 103.5748
  A 2.01 2.01 0.0 0 0 40.3910 105.5884
  L 53.7310 105.6116
  A 2.01 2.01 0.0 0 0 55.7445 103.6051
  L 55.7555 97.3052
  Z
  M 105.46 97.33
  A 2.05 2.05 0.0 0 0 103.41 95.28
  L 90.13 95.28
  A 2.05 2.05 0.0 0 0 88.08 97.33
  L 88.08 103.55
  A 2.05 2.05 0.0 0 0 90.13 105.60
  L 103.41 105.60
  A 2.05 2.05 0.0 0 0 105.46 103.55
  L 105.46 97.33
  Z"
/>
<path fill="#f9c405" d="
  M 60.26 48.47
  L 60.27 56.52
  A 0.50 0.50 0.0 0 1 59.77 57.02
  L 57.58 57.03
  A 0.50 0.50 0.0 0 1 57.08 56.53
  L 57.14 48.48
  A 0.50 0.50 0.0 0 0 56.63 47.98
  L 54.51 48.01
  A 0.50 0.50 0.0 0 1 54.00 47.51
  L 53.99 45.47
  A 0.50 0.50 0.0 0 1 54.49 44.97
  L 62.95 45.00
  A 0.50 0.50 0.0 0 1 63.45 45.53
  L 63.30 47.54
  A 0.50 0.50 0.0 0 1 62.80 48.00
  L 60.77 47.97
  A 0.50 0.50 0.0 0 0 60.26 48.47
  Z"
/>
<path fill="#f9c405" d="
  M 66.21 55.79
  Q 65.60 57.60 62.93 57.00
  Q 62.38 56.87 62.56 56.33
  L 66.19 45.60
  Q 66.40 44.99 67.04 44.99
  L 69.52 44.98
  A 1.13 1.12 -9.4 0 1 70.59 45.74
  L 74.13 56.19
  Q 74.33 56.78 73.73 56.94
  Q 71.23 57.62 70.58 55.82
  Q 70.37 55.25 69.76 55.25
  L 66.94 55.26
  Q 66.38 55.26 66.21 55.79
  Z
  M 68.12 52.62
  Q 68.56 52.74 69.01 52.62
  Q 69.52 52.48 69.40 51.97
  L 68.81 49.54
  Q 68.61 48.74 68.23 49.47
  Q 67.59 50.69 67.28 52.06
  Q 67.15 52.59 67.69 52.68
  Q 67.92 52.72 68.12 52.62
  Z"
/>
<path fill="#f9c405" d="
  M 79.73 54.48
  L 78.77 56.19
  Q 78.30 57.01 77.37 57.01
  L 75.49 57.01
  Q 74.62 57.01 75.07 56.27
  L 78.06 51.43
  Q 78.40 50.88 78.06 50.32
  L 75.14 45.62
  Q 74.75 44.99 75.49 44.99
  L 77.50 44.99
  A 1.64 1.63 75.2 0 1 78.92 45.82
  L 79.84 47.43
  A 0.50 0.50 0.0 0 0 80.76 47.29
  Q 81.43 44.23 84.91 45.01
  Q 85.50 45.15 85.18 45.66
  L 82.32 50.29
  A 1.18 1.16 -45.4 0 0 82.32 51.52
  L 85.33 56.40
  Q 85.70 56.99 85.00 57.00
  L 82.97 57.00
  Q 82.01 57.01 81.57 56.15
  L 80.73 54.50
  Q 80.25 53.56 79.73 54.48
  Z"
/>
<rect fill="#f9c405" x="-1.61" y="-6.01" transform="translate(88.39,50.99) rotate(-0.1)" width="3.22" height="12.02" rx="0.48"/>
<path fill="#005891" d="
  M 68.12 52.62
  Q 67.92 52.72 67.69 52.68
  Q 67.15 52.59 67.28 52.06
  Q 67.59 50.69 68.23 49.47
  Q 68.61 48.74 68.81 49.54
  L 69.40 51.97
  Q 69.52 52.48 69.01 52.62
  Q 68.56 52.74 68.12 52.62
  Z"
/>
<path fill="#fcfcfc" d="
  M 40.14 80.89
  Q 43.45 73.10 46.75 64.82
  C 48.04 61.61 50.90 60.72 54.05 60.73
  Q 71.53 60.81 91.04 60.75
  C 94.07 60.74 96.28 62.50 97.39 65.25
  Q 100.85 73.80 104.19 81.89
  A 2.43 2.43 0.0 0 1 101.94 85.25
  L 41.81 85.25
  A 2.13 2.13 0.0 0 1 39.68 83.06
  Q 39.71 81.89 40.14 80.89
  Z"
/>
<rect fill="#f9c405" x="-8.68" y="-5.16" transform="translate(47.07,100.44) rotate(0.1)" width="17.36" height="10.32" rx="2.01"/>
<rect fill="#f9c405" x="88.08" y="95.28" width="17.38" height="10.32" rx="2.05"/>
</svg>
