<?xml version="1.0" encoding="UTF-8" standalone="no"?>
<!DOCTYPE svg PUBLIC "-//W3C//DTD SVG 1.1//EN" "http://www.w3.org/Graphics/SVG/1.1/DTD/svg11.dtd">
<svg xmlns="http://www.w3.org/2000/svg" version="1.1" viewBox="0.00 0.00 146.00 146.00">
<g stroke-width="2.00" fill="none" stroke-linecap="butt">
<path stroke="#f3c0cf" vector-effect="non-scaling-stroke" d="
  M 49.49 66.97
  A 0.35 0.35 0.0 0 0 49.87 67.11
  L 72.48 60.94
  A 0.35 0.35 0.0 0 0 72.60 60.32
  L 38.84 35.90
  A 0.35 0.35 0.0 0 0 38.55 35.84
  L 30.78 37.87
  A 0.35 0.35 0.0 0 0 30.58 38.40
  L 49.49 66.97"
/>
<path stroke="#7eaac7" vector-effect="non-scaling-stroke" d="
  M 25.53 78.42
  L 14.02 70.73
  Q 13.46 70.36 12.84 70.61
  L 9.83 71.85
  Q 8.98 72.20 9.55 72.92
  L 25.89 93.20
  A 0.86 0.85 62.9 0 0 26.77 93.49
  Q 66.78 82.80 107.63 71.79
  Q 110.43 71.04 111.61 70.17
  C 114.55 68.00 115.36 63.96 113.42 60.82
  C 111.37 57.52 107.86 56.93 104.34 57.88
  Q 62.00 69.31 27.01 78.67
  Q 26.22 78.88 25.53 78.42"
/>
</g>
<path fill="#fcfcfc" d="
  M 144.98 114.47
  A 30.51 30.51 0.0 0 1 114.47 144.98
  L 31.55 144.98
  A 30.51 30.51 0.0 0 1 1.04 114.47
  L 1.04 31.55
  A 30.51 30.51 0.0 0 1 31.55 1.04
  L 114.47 1.04
  A 30.51 30.51 0.0 0 1 144.98 31.55
  L 144.98 114.47
  Z
  M 49.49 66.97
  A 0.35 0.35 0.0 0 0 49.87 67.11
  L 72.48 60.94
  A 0.35 0.35 0.0 0 0 72.60 60.32
  L 38.84 35.90
  A 0.35 0.35 0.0 0 0 38.55 35.84
  L 30.78 37.87
  A 0.35 0.35 0.0 0 0 30.58 38.40
  L 49.49 66.97
  Z
  M 25.53 78.42
  L 14.02 70.73
  Q 13.46 70.36 12.84 70.61
  L 9.83 71.85
  Q 8.98 72.20 9.55 72.92
  L 25.89 93.20
  A 0.86 0.85 62.9 0 0 26.77 93.49
  Q 66.78 82.80 107.63 71.79
  Q 110.43 71.04 111.61 70.17
  C 114.55 68.00 115.36 63.96 113.42 60.82
  C 111.37 57.52 107.86 56.93 104.34 57.88
  Q 62.00 69.31 27.01 78.67
  Q 26.22 78.88 25.53 78.42
  Z"
/>
<path fill="#ea84a1" d="
  M 49.49 66.97
  L 30.58 38.40
  A 0.35 0.35 0.0 0 1 30.78 37.87
  L 38.55 35.84
  A 0.35 0.35 0.0 0 1 38.84 35.90
  L 72.60 60.32
  A 0.35 0.35 0.0 0 1 72.48 60.94
  L 49.87 67.11
  A 0.35 0.35 0.0 0 1 49.49 66.97
  Z"
/>
<path fill="#005891" d="
  M 27.01 78.67
  Q 62.00 69.31 104.34 57.88
  C 107.86 56.93 111.37 57.52 113.42 60.82
  C 115.36 63.96 114.55 68.00 111.61 70.17
  Q 110.43 71.04 107.63 71.79
  Q 66.78 82.80 26.77 93.49
  A 0.86 0.85 62.9 0 1 25.89 93.20
  L 9.55 72.92
  Q 8.98 72.20 9.83 71.85
  L 12.84 70.61
  Q 13.46 70.36 14.02 70.73
  L 25.53 78.42
  Q 26.22 78.88 27.01 78.67
  Z"
/>
</svg>
