<?xml version="1.0" encoding="UTF-8" standalone="no"?>
<!DOCTYPE svg PUBLIC "-//W3C//DTD SVG 1.1//EN" "http://www.w3.org/Graphics/SVG/1.1/DTD/svg11.dtd">
<svg xmlns="http://www.w3.org/2000/svg" version="1.1" viewBox="0.00 0.00 144.00 144.00">
<g stroke-width="2.00" fill="none" stroke-linecap="butt">
<path stroke="#e792aa" vector-effect="non-scaling-stroke" d="
  M 72.42 39.04
  A 3.03 3.03 0.0 0 0 69.39 36.01
  L 56.09 36.01
  A 3.03 3.03 0.0 0 0 53.06 39.04
  L 53.06 49.72
  A 3.03 3.03 0.0 0 0 56.09 52.75
  L 69.39 52.75
  A 3.03 3.03 0.0 0 0 72.42 49.72
  L 72.42 39.04"
/>
<path stroke="#e792aa" vector-effect="non-scaling-stroke" d="
  M 51.18 43.80
  A 3.05 3.05 0.0 0 0 48.13 40.75
  L 24.05 40.75
  A 3.05 3.05 0.0 0 0 21.00 43.80
  L 21.00 49.70
  A 3.05 3.05 0.0 0 0 24.05 52.75
  L 48.13 52.75
  A 3.05 3.05 0.0 0 0 51.18 49.70
  L 51.18 43.80"
/>
<path stroke="#e792aa" vector-effect="non-scaling-stroke" d="
  M 72.51 57.65
  A 2.94 2.94 0.0 0 0 69.57 54.71
  L 23.95 54.71
  A 2.94 2.94 0.0 0 0 21.01 57.65
  L 21.01 75.21
  A 2.94 2.94 0.0 0 0 23.95 78.15
  L 69.57 78.15
  A 2.94 2.94 0.0 0 0 72.51 75.21
  L 72.51 57.65"
/>
<path stroke="#7eaac7" vector-effect="non-scaling-stroke" d="
  M 74.32 77.61
  A 2.68 2.67 0.0 0 1 71.64 80.28
  L 23.73 80.29
  A 2.73 2.73 0.0 0 0 21.00 83.02
  L 21.00 97.01
  Q 21.00 100.28 24.26 100.28
  L 29.73 100.27
  Q 30.68 100.27 30.72 99.32
  C 31.04 91.38 38.46 85.14 46.29 87.11
  Q 55.55 89.45 56.54 99.82
  Q 56.58 100.27 57.04 100.27
  L 82.21 100.27
  Q 82.78 100.27 82.81 99.70
  Q 83.19 91.77 90.04 88.14
  C 98.59 83.60 108.57 90.49 108.57 99.67
  Q 108.57 100.33 109.24 100.31
  Q 113.83 100.18 119.39 100.33
  C 123.15 100.42 126.08 98.10 126.00 94.24
  Q 125.92 89.96 126.06 85.49
  C 126.36 75.51 120.00 75.47 112.55 73.58
  Q 109.52 72.81 108.08 70.13
  Q 105.99 66.23 104.05 61.97
  C 102.21 57.92 98.74 55.28 94.25 55.29
  Q 84.67 55.30 76.52 55.30
  Q 74.30 55.30 74.30 57.52
  L 74.32 77.61"
/>
<path stroke="#7ed1ed" vector-effect="non-scaling-stroke" d="
  M 53.44 99.77
  A 9.89 9.89 0.0 0 0 43.55 89.88
  A 9.89 9.89 0.0 0 0 33.66 99.77
  A 9.89 9.89 0.0 0 0 43.55 109.66
  A 9.89 9.89 0.0 0 0 53.44 99.77"
/>
<path stroke="#7ed1ed" vector-effect="non-scaling-stroke" d="
  M 105.50 99.77
  A 9.90 9.90 0.0 0 0 95.60 89.87
  A 9.90 9.90 0.0 0 0 85.70 99.77
  A 9.90 9.90 0.0 0 0 95.60 109.67
  A 9.90 9.90 0.0 0 0 105.50 99.77"
/>
<path stroke="#7eaac7" vector-effect="non-scaling-stroke" d="
  M 105.13 73.04
  C 101.81 68.00 100.75 59.76 93.29 59.30
  Q 90.03 59.09 86.32 59.23
  Q 85.79 59.25 85.79 59.78
  L 85.78 73.14
  Q 85.78 73.75 86.39 73.75
  L 104.75 73.75
  Q 105.60 73.75 105.13 73.04"
/>
<path stroke="#7ed1ed" vector-effect="non-scaling-stroke" d="
  M 47.77 99.77
  A 4.23 4.23 0.0 0 0 43.54 95.54
  A 4.23 4.23 0.0 0 0 39.31 99.77
  A 4.23 4.23 0.0 0 0 43.54 104.00
  A 4.23 4.23 0.0 0 0 47.77 99.77"
/>
<path stroke="#7ed1ed" vector-effect="non-scaling-stroke" d="
  M 99.85 99.78
  A 4.24 4.24 0.0 0 0 95.61 95.54
  A 4.24 4.24 0.0 0 0 91.37 99.78
  A 4.24 4.24 0.0 0 0 95.61 104.02
  A 4.24 4.24 0.0 0 0 99.85 99.78"
/>
</g>
<path fill="#fcfcfc" d="
  M 28.14 0.00
  L 115.98 0.00
  Q 140.51 3.68 144.00 28.10
  L 144.00 115.98
  Q 141.29 137.00 121.75 142.97
  Q 120.53 143.34 115.87 144.00
  L 27.98 144.00
  Q 3.66 140.47 0.00 116.13
  L 0.00 27.72
  Q 3.72 3.57 28.14 0.00
  Z
  M 72.42 39.04
  A 3.03 3.03 0.0 0 0 69.39 36.01
  L 56.09 36.01
  A 3.03 3.03 0.0 0 0 53.06 39.04
  L 53.06 49.72
  A 3.03 3.03 0.0 0 0 56.09 52.75
  L 69.39 52.75
  A 3.03 3.03 0.0 0 0 72.42 49.72
  L 72.42 39.04
  Z
  M 51.18 43.80
  A 3.05 3.05 0.0 0 0 48.13 40.75
  L 24.05 40.75
  A 3.05 3.05 0.0 0 0 21.00 43.80
  L 21.00 49.70
  A 3.05 3.05 0.0 0 0 24.05 52.75
  L 48.13 52.75
  A 3.05 3.05 0.0 0 0 51.18 49.70
  L 51.18 43.80
  Z
  M 72.51 57.65
  A 2.94 2.94 0.0 0 0 69.57 54.71
  L 23.95 54.71
  A 2.94 2.94 0.0 0 0 21.01 57.65
  L 21.01 75.21
  A 2.94 2.94 0.0 0 0 23.95 78.15
  L 69.57 78.15
  A 2.94 2.94 0.0 0 0 72.51 75.21
  L 72.51 57.65
  Z
  M 74.32 77.61
  A 2.68 2.67 0.0 0 1 71.64 80.28
  L 23.73 80.29
  A 2.73 2.73 0.0 0 0 21.00 83.02
  L 21.00 97.01
  Q 21.00 100.28 24.26 100.28
  L 29.73 100.27
  Q 30.68 100.27 30.72 99.32
  C 31.04 91.38 38.46 85.14 46.29 87.11
  Q 55.55 89.45 56.54 99.82
  Q 56.58 100.27 57.04 100.27
  L 82.21 100.27
  Q 82.78 100.27 82.81 99.70
  Q 83.19 91.77 90.04 88.14
  C 98.59 83.60 108.57 90.49 108.57 99.67
  Q 108.57 100.33 109.24 100.31
  Q 113.83 100.18 119.39 100.33
  C 123.15 100.42 126.08 98.10 126.00 94.24
  Q 125.92 89.96 126.06 85.49
  C 126.36 75.51 120.00 75.47 112.55 73.58
  Q 109.52 72.81 108.08 70.13
  Q 105.99 66.23 104.05 61.97
  C 102.21 57.92 98.74 55.28 94.25 55.29
  Q 84.67 55.30 76.52 55.30
  Q 74.30 55.30 74.30 57.52
  L 74.32 77.61
  Z
  M 53.44 99.77
  A 9.89 9.89 0.0 0 0 43.55 89.88
  A 9.89 9.89 0.0 0 0 33.66 99.77
  A 9.89 9.89 0.0 0 0 43.55 109.66
  A 9.89 9.89 0.0 0 0 53.44 99.77
  Z
  M 105.50 99.77
  A 9.90 9.90 0.0 0 0 95.60 89.87
  A 9.90 9.90 0.0 0 0 85.70 99.77
  A 9.90 9.90 0.0 0 0 95.60 109.67
  A 9.90 9.90 0.0 0 0 105.50 99.77
  Z"
/>
<rect fill="#d12858" x="53.06" y="36.01" width="19.36" height="16.74" rx="3.03"/>
<rect fill="#d12858" x="21.00" y="40.75" width="30.18" height="12.00" rx="3.05"/>
<rect fill="#d12858" x="21.01" y="54.71" width="51.50" height="23.44" rx="2.94"/>
<path fill="#005891" d="
  M 74.32 77.61
  L 74.30 57.52
  Q 74.30 55.30 76.52 55.30
  Q 84.67 55.30 94.25 55.29
  C 98.74 55.28 102.21 57.92 104.05 61.97
  Q 105.99 66.23 108.08 70.13
  Q 109.52 72.81 112.55 73.58
  C 120.00 75.47 126.36 75.51 126.06 85.49
  Q 125.92 89.96 126.00 94.24
  C 126.08 98.10 123.15 100.42 119.39 100.33
  Q 113.83 100.18 109.24 100.31
  Q 108.57 100.33 108.57 99.67
  C 108.57 90.49 98.59 83.60 90.04 88.14
  Q 83.19 91.77 82.81 99.70
  Q 82.78 100.27 82.21 100.27
  L 57.04 100.27
  Q 56.58 100.27 56.54 99.82
  Q 55.55 89.45 46.29 87.11
  C 38.46 85.14 31.04 91.38 30.72 99.32
  Q 30.68 100.27 29.73 100.27
  L 24.26 100.28
  Q 21.00 100.28 21.00 97.01
  L 21.00 83.02
  A 2.73 2.73 0.0 0 1 23.73 80.29
  L 71.64 80.28
  A 2.68 2.67 0.0 0 0 74.32 77.61
  Z
  M 105.13 73.04
  C 101.81 68.00 100.75 59.76 93.29 59.30
  Q 90.03 59.09 86.32 59.23
  Q 85.79 59.25 85.79 59.78
  L 85.78 73.14
  Q 85.78 73.75 86.39 73.75
  L 104.75 73.75
  Q 105.60 73.75 105.13 73.04
  Z"
/>
<path fill="#fcfcfc" d="
  M 93.29 59.30
  C 100.75 59.76 101.81 68.00 105.13 73.04
  Q 105.60 73.75 104.75 73.75
  L 86.39 73.75
  Q 85.78 73.75 85.78 73.14
  L 85.79 59.78
  Q 85.79 59.25 86.32 59.23
  Q 90.03 59.09 93.29 59.30
  Z"
/>
<path fill="#00a5de" d="
  M 53.44 99.77
  A 9.89 9.89 0.0 0 1 43.55 109.66
  A 9.89 9.89 0.0 0 1 33.66 99.77
  A 9.89 9.89 0.0 0 1 43.55 89.88
  A 9.89 9.89 0.0 0 1 53.44 99.77
  Z
  M 47.77 99.77
  A 4.23 4.23 0.0 0 0 43.54 95.54
  A 4.23 4.23 0.0 0 0 39.31 99.77
  A 4.23 4.23 0.0 0 0 43.54 104.00
  A 4.23 4.23 0.0 0 0 47.77 99.77
  Z"
/>
<path fill="#00a5de" d="
  M 105.50 99.77
  A 9.90 9.90 0.0 0 1 95.60 109.67
  A 9.90 9.90 0.0 0 1 85.70 99.77
  A 9.90 9.90 0.0 0 1 95.60 89.87
  A 9.90 9.90 0.0 0 1 105.50 99.77
  Z
  M 99.85 99.78
  A 4.24 4.24 0.0 0 0 95.61 95.54
  A 4.24 4.24 0.0 0 0 91.37 99.78
  A 4.24 4.24 0.0 0 0 95.61 104.02
  A 4.24 4.24 0.0 0 0 99.85 99.78
  Z"
/>
<circle fill="#fcfcfc" cx="43.54" cy="99.77" r="4.23"/>
<circle fill="#fcfcfc" cx="95.61" cy="99.78" r="4.24"/>
</svg>
