<?xml version="1.0" encoding="UTF-8" standalone="no"?>
<!DOCTYPE svg PUBLIC "-//W3C//DTD SVG 1.1//EN" "http://www.w3.org/Graphics/SVG/1.1/DTD/svg11.dtd">
<svg xmlns="http://www.w3.org/2000/svg" version="1.1" viewBox="0.00 0.00 144.00 144.00">
<g stroke-width="2.00" fill="none" stroke-linecap="butt">
<path stroke="#e887a2" vector-effect="non-scaling-stroke" d="
  M 34.35 91.14
  Q 35.59 97.75 40.58 100.42
  C 48.44 104.63 56.50 100.18 58.42 91.47"
/>
<path stroke="#7eaac7" vector-effect="non-scaling-stroke" d="
  M 58.42 91.47
  L 89.75 91.43"
/>
<path stroke="#e887a2" vector-effect="non-scaling-stroke" d="
  M 89.75 91.43
  Q 90.77 96.88 94.95 99.79
  C 102.57 105.12 112.30 100.33 113.76 91.49"
/>
<path stroke="#7eaac7" vector-effect="non-scaling-stroke" d="
  M 113.76 91.49
  C 116.92 91.55 120.16 92.11 122.43 89.20
  Q 123.47 87.86 123.52 86.22
  Q 123.82 75.69 123.30 67.61
  C 122.90 61.40 120.69 54.95 118.96 48.83
  C 117.84 44.84 114.63 43.42 110.71 43.43
  Q 67.74 43.58 28.51 43.47
  Q 21.52 43.45 21.56 50.21
  Q 21.67 67.70 21.51 84.21
  C 21.48 88.02 22.87 91.09 27.00 91.51
  Q 30.33 91.85 34.35 91.14"
/>
<path stroke="#6a356d" vector-effect="non-scaling-stroke" d="
  M 113.76 91.49
  Q 114.30 83.47 108.17 79.84
  Q 103.13 76.86 98.22 78.51
  Q 89.60 81.41 89.75 91.43"
/>
<path stroke="#6a356d" vector-effect="non-scaling-stroke" d="
  M 58.42 91.47
  Q 58.89 83.74 53.19 80.08
  Q 48.00 76.76 42.80 78.55
  Q 34.28 81.50 34.35 91.14"
/>
<path stroke="#7eaac7" vector-effect="non-scaling-stroke" d="
  M 47.23 67.30
  L 47.23 48.76
  A 0.41 0.41 0.0 0 0 46.82 48.35
  L 31.76 48.35
  A 4.53 4.25 0.0 0 0 27.23 52.60
  L 27.23 63.46
  A 4.53 4.25 0.0 0 0 31.76 67.71
  L 46.82 67.71
  A 0.41 0.41 0.0 0 0 47.23 67.30"
/>
<path stroke="#7eaac7" vector-effect="non-scaling-stroke" d="
  M 70.97 48.72
  A 0.35 0.35 0.0 0 0 70.62 48.37
  L 50.78 48.37
  A 0.35 0.35 0.0 0 0 50.43 48.72
  L 50.43 67.34
  A 0.35 0.35 0.0 0 0 50.78 67.69
  L 70.62 67.69
  A 0.35 0.35 0.0 0 0 70.97 67.34
  L 70.97 48.72"
/>
<path stroke="#7eaac7" vector-effect="non-scaling-stroke" d="
  M 94.67 48.68
  A 0.31 0.31 0.0 0 0 94.36 48.37
  L 74.44 48.37
  A 0.31 0.31 0.0 0 0 74.13 48.68
  L 74.13 67.38
  A 0.31 0.31 0.0 0 0 74.44 67.69
  L 94.36 67.69
  A 0.31 0.31 0.0 0 0 94.67 67.38
  L 94.67 48.68"
/>
<path stroke="#7eaac7" vector-effect="non-scaling-stroke" d="
  M 109.62 60.83
  Q 111.27 60.41 113.27 66.71
  Q 113.64 67.86 114.60 67.13
  L 114.88 66.92
  A 3.07 3.07 0.0 0 0 116.01 63.74
  Q 114.43 57.38 113.13 52.38
  Q 112.11 48.42 108.03 48.39
  Q 103.31 48.35 98.09 48.37
  A 0.25 0.24 -0.0 0 0 97.84 48.61
  L 97.83 67.26
  A 0.43 0.43 0.0 0 0 98.26 67.69
  L 109.52 67.69
  Q 110.28 67.68 109.99 66.98
  L 108.41 63.27
  Q 107.60 61.34 109.62 60.83"
/>
<path stroke="#e887a2" vector-effect="non-scaling-stroke" d="
  M 51.63 90.00
  A 5.20 5.20 0.0 0 0 46.43 84.80
  A 5.20 5.20 0.0 0 0 41.23 90.00
  A 5.20 5.20 0.0 0 0 46.43 95.20
  A 5.20 5.20 0.0 0 0 51.63 90.00"
/>
<path stroke="#e887a2" vector-effect="non-scaling-stroke" d="
  M 107.00 90.00
  A 5.20 5.20 0.0 0 0 101.80 84.80
  A 5.20 5.20 0.0 0 0 96.60 90.00
  A 5.20 5.20 0.0 0 0 101.80 95.20
  A 5.20 5.20 0.0 0 0 107.00 90.00"
/>
</g>
<path fill="#fcfcfc" d="
  M 28.12 0.00
  L 115.95 0.00
  Q 136.21 2.63 142.73 21.50
  Q 143.24 22.97 144.00 28.13
  L 144.00 115.99
  Q 141.45 136.16 122.50 142.74
  Q 121.18 143.20 115.87 144.00
  L 28.02 144.00
  Q 3.48 140.27 0.00 115.88
  L 0.00 28.01
  Q 3.66 3.58 28.12 0.00
  Z
  M 34.35 91.14
  Q 35.59 97.75 40.58 100.42
  C 48.44 104.63 56.50 100.18 58.42 91.47
  L 89.75 91.43
  Q 90.77 96.88 94.95 99.79
  C 102.57 105.12 112.30 100.33 113.76 91.49
  C 116.92 91.55 120.16 92.11 122.43 89.20
  Q 123.47 87.86 123.52 86.22
  Q 123.82 75.69 123.30 67.61
  C 122.90 61.40 120.69 54.95 118.96 48.83
  C 117.84 44.84 114.63 43.42 110.71 43.43
  Q 67.74 43.58 28.51 43.47
  Q 21.52 43.45 21.56 50.21
  Q 21.67 67.70 21.51 84.21
  C 21.48 88.02 22.87 91.09 27.00 91.51
  Q 30.33 91.85 34.35 91.14
  Z"
/>
<path fill="#005891" d="
  M 113.76 91.49
  Q 114.30 83.47 108.17 79.84
  Q 103.13 76.86 98.22 78.51
  Q 89.60 81.41 89.75 91.43
  L 58.42 91.47
  Q 58.89 83.74 53.19 80.08
  Q 48.00 76.76 42.80 78.55
  Q 34.28 81.50 34.35 91.14
  Q 30.33 91.85 27.00 91.51
  C 22.87 91.09 21.48 88.02 21.51 84.21
  Q 21.67 67.70 21.56 50.21
  Q 21.52 43.45 28.51 43.47
  Q 67.74 43.58 110.71 43.43
  C 114.63 43.42 117.84 44.84 118.96 48.83
  C 120.69 54.95 122.90 61.40 123.30 67.61
  Q 123.82 75.69 123.52 86.22
  Q 123.47 87.86 122.43 89.20
  C 120.16 92.11 116.92 91.55 113.76 91.49
  Z
  M 47.23 67.30
  L 47.23 48.76
  A 0.41 0.41 0.0 0 0 46.82 48.35
  L 31.76 48.35
  A 4.53 4.25 0.0 0 0 27.23 52.60
  L 27.23 63.46
  A 4.53 4.25 0.0 0 0 31.76 67.71
  L 46.82 67.71
  A 0.41 0.41 0.0 0 0 47.23 67.30
  Z
  M 70.97 48.72
  A 0.35 0.35 0.0 0 0 70.62 48.37
  L 50.78 48.37
  A 0.35 0.35 0.0 0 0 50.43 48.72
  L 50.43 67.34
  A 0.35 0.35 0.0 0 0 50.78 67.69
  L 70.62 67.69
  A 0.35 0.35 0.0 0 0 70.97 67.34
  L 70.97 48.72
  Z
  M 94.67 48.68
  A 0.31 0.31 0.0 0 0 94.36 48.37
  L 74.44 48.37
  A 0.31 0.31 0.0 0 0 74.13 48.68
  L 74.13 67.38
  A 0.31 0.31 0.0 0 0 74.44 67.69
  L 94.36 67.69
  A 0.31 0.31 0.0 0 0 94.67 67.38
  L 94.67 48.68
  Z
  M 109.62 60.83
  Q 111.27 60.41 113.27 66.71
  Q 113.64 67.86 114.60 67.13
  L 114.88 66.92
  A 3.07 3.07 0.0 0 0 116.01 63.74
  Q 114.43 57.38 113.13 52.38
  Q 112.11 48.42 108.03 48.39
  Q 103.31 48.35 98.09 48.37
  A 0.25 0.24 -0.0 0 0 97.84 48.61
  L 97.83 67.26
  A 0.43 0.43 0.0 0 0 98.26 67.69
  L 109.52 67.69
  Q 110.28 67.68 109.99 66.98
  L 108.41 63.27
  Q 107.60 61.34 109.62 60.83
  Z"
/>
<path fill="#fcfcfc" d="
  M 47.23 67.30
  A 0.41 0.41 0.0 0 1 46.82 67.71
  L 31.76 67.71
  A 4.53 4.25 0.0 0 1 27.23 63.46
  L 27.23 52.60
  A 4.53 4.25 -0.0 0 1 31.76 48.35
  L 46.82 48.35
  A 0.41 0.41 0.0 0 1 47.23 48.76
  L 47.23 67.30
  Z"
/>
<rect fill="#fcfcfc" x="50.43" y="48.37" width="20.54" height="19.32" rx="0.35"/>
<rect fill="#fcfcfc" x="74.13" y="48.37" width="20.54" height="19.32" rx="0.31"/>
<path fill="#fcfcfc" d="
  M 109.62 60.83
  Q 107.60 61.34 108.41 63.27
  L 109.99 66.98
  Q 110.28 67.68 109.52 67.69
  L 98.26 67.69
  A 0.43 0.43 0.0 0 1 97.83 67.26
  L 97.84 48.61
  A 0.25 0.24 0.0 0 1 98.09 48.37
  Q 103.31 48.35 108.03 48.39
  Q 112.11 48.42 113.13 52.38
  Q 114.43 57.38 116.01 63.74
  A 3.07 3.07 0.0 0 1 114.88 66.92
  L 114.60 67.13
  Q 113.64 67.86 113.27 66.71
  Q 111.27 60.41 109.62 60.83
  Z"
/>
<path fill="#d41248" d="
  M 58.42 91.47
  C 56.50 100.18 48.44 104.63 40.58 100.42
  Q 35.59 97.75 34.35 91.14
  Q 34.28 81.50 42.80 78.55
  Q 48.00 76.76 53.19 80.08
  Q 58.89 83.74 58.42 91.47
  Z
  M 51.63 90.00
  A 5.20 5.20 0.0 0 0 46.43 84.80
  A 5.20 5.20 0.0 0 0 41.23 90.00
  A 5.20 5.20 0.0 0 0 46.43 95.20
  A 5.20 5.20 0.0 0 0 51.63 90.00
  Z"
/>
<path fill="#d41248" d="
  M 113.76 91.49
  C 112.30 100.33 102.57 105.12 94.95 99.79
  Q 90.77 96.88 89.75 91.43
  Q 89.60 81.41 98.22 78.51
  Q 103.13 76.86 108.17 79.84
  Q 114.30 83.47 113.76 91.49
  Z
  M 107.00 90.00
  A 5.20 5.20 0.0 0 0 101.80 84.80
  A 5.20 5.20 0.0 0 0 96.60 90.00
  A 5.20 5.20 0.0 0 0 101.80 95.20
  A 5.20 5.20 0.0 0 0 107.00 90.00
  Z"
/>
<circle fill="#fcfcfc" cx="46.43" cy="90.00" r="5.20"/>
<circle fill="#fcfcfc" cx="101.80" cy="90.00" r="5.20"/>
</svg>
