<?xml version="1.0" encoding="UTF-8" standalone="no"?>
<!DOCTYPE svg PUBLIC "-//W3C//DTD SVG 1.1//EN" "http://www.w3.org/Graphics/SVG/1.1/DTD/svg11.dtd">
<svg xmlns="http://www.w3.org/2000/svg" version="1.1" viewBox="0.00 0.00 144.00 144.00">
<g stroke-width="2.00" fill="none" stroke-linecap="butt">
<path stroke="#e887a2" vector-effect="non-scaling-stroke" d="
  M 46.17 27.69
  A 0.43 0.43 0.0 0 1 45.84 27.45
  L 44.43 24.56
  A 0.43 0.43 0.0 0 0 43.66 24.55
  L 42.19 27.45
  A 0.43 0.43 0.0 0 1 41.87 27.68
  L 38.68 28.13
  A 0.43 0.43 0.0 0 0 38.44 28.86
  L 40.76 31.15
  A 0.43 0.43 0.0 0 1 40.88 31.53
  L 40.34 34.70
  A 0.43 0.43 0.0 0 0 40.96 35.15
  L 43.84 33.65
  A 0.43 0.43 0.0 0 1 44.24 33.66
  L 47.10 35.17
  A 0.43 0.43 0.0 0 0 47.72 34.72
  L 47.18 31.51
  A 0.43 0.43 0.0 0 1 47.30 31.13
  L 49.60 28.83
  A 0.43 0.43 0.0 0 0 49.35 28.10
  L 46.17 27.69"
/>
<path stroke="#e887a2" vector-effect="non-scaling-stroke" d="
  M 59.99 27.67
  A 0.48 0.48 0.0 0 1 59.63 27.41
  L 58.24 24.61
  A 0.48 0.48 0.0 0 0 57.38 24.61
  L 56.00 27.43
  A 0.48 0.48 0.0 0 1 55.63 27.69
  L 52.56 28.08
  A 0.48 0.48 0.0 0 0 52.28 28.89
  L 54.56 31.20
  A 0.48 0.48 0.0 0 1 54.69 31.63
  L 54.11 34.62
  A 0.48 0.48 0.0 0 0 54.81 35.13
  L 57.59 33.66
  A 0.48 0.48 0.0 0 1 58.04 33.66
  L 60.82 35.14
  A 0.48 0.48 0.0 0 0 61.52 34.64
  L 60.97 31.53
  A 0.48 0.48 0.0 0 1 61.11 31.10
  L 63.39 28.91
  A 0.48 0.48 0.0 0 0 63.11 28.09
  L 59.99 27.67"
/>
<path stroke="#e887a2" vector-effect="non-scaling-stroke" d="
  M 75.14 30.92
  L 77.16 28.94
  A 0.48 0.48 0.0 0 0 76.90 28.12
  L 73.87 27.69
  Q 73.49 27.63 73.33 27.28
  L 72.41 25.31
  Q 71.42 23.18 70.79 25.45
  Q 70.01 28.23 67.22 27.98
  Q 64.88 27.76 66.56 29.40
  L 68.16 30.97
  Q 68.53 31.33 68.44 31.84
  L 67.93 34.68
  A 0.47 0.47 0.0 0 0 68.62 35.18
  L 71.10 33.79
  Q 71.59 33.52 72.07 33.78
  L 74.73 35.20
  A 0.43 0.42 8.8 0 0 75.35 34.75
  L 74.82 31.92
  Q 74.71 31.34 75.14 30.92"
/>
<path stroke="#e887a2" vector-effect="non-scaling-stroke" d="
  M 85.19 33.66
  A 0.47 0.47 0.0 0 1 85.63 33.66
  L 88.43 35.14
  A 0.47 0.47 0.0 0 0 89.12 34.64
  L 88.56 31.57
  A 0.47 0.47 0.0 0 1 88.69 31.15
  L 90.99 28.91
  A 0.47 0.47 0.0 0 0 90.73 28.11
  L 87.56 27.67
  A 0.47 0.47 0.0 0 1 87.20 27.41
  L 85.85 24.57
  A 0.47 0.47 0.0 0 0 85.00 24.57
  L 83.65 27.39
  A 0.47 0.47 0.0 0 1 83.29 27.65
  L 80.14 28.13
  A 0.47 0.47 0.0 0 0 79.88 28.93
  L 82.16 31.16
  A 0.47 0.47 0.0 0 1 82.29 31.59
  L 81.72 34.65
  A 0.47 0.47 0.0 0 0 82.40 35.15
  L 85.19 33.66"
/>
<path stroke="#e887a2" vector-effect="non-scaling-stroke" d="
  M 97.43 27.41
  A 0.43 0.43 0.0 0 1 97.11 27.64
  L 93.88 28.16
  A 0.43 0.43 0.0 0 0 93.65 28.89
  L 95.96 31.11
  A 0.43 0.43 0.0 0 1 96.08 31.49
  L 95.53 34.72
  A 0.43 0.43 0.0 0 0 96.15 35.17
  L 99.02 33.66
  A 0.43 0.43 0.0 0 1 99.42 33.65
  L 102.32 35.17
  A 0.43 0.43 0.0 0 0 102.95 34.72
  L 102.38 31.52
  A 0.43 0.43 0.0 0 1 102.50 31.14
  L 104.80 28.84
  A 0.43 0.43 0.0 0 0 104.56 28.11
  L 101.39 27.69
  A 0.43 0.43 0.0 0 1 101.06 27.45
  L 99.62 24.55
  A 0.43 0.43 0.0 0 0 98.85 24.55
  L 97.43 27.41"
/>
<path stroke="#7ed1ed" vector-effect="non-scaling-stroke" d="
  M 77.33 98.69
  C 80.46 98.66 82.54 101.63 82.53 104.49
  Q 82.51 112.48 82.49 119.46
  Q 82.49 120.00 83.03 120.00
  L 104.19 120.00
  A 3.07 3.06 -0.1 0 0 107.26 116.93
  Q 107.24 80.66 107.29 46.47
  C 107.30 43.41 106.90 37.81 102.53 37.81
  Q 72.04 37.83 41.42 37.80
  C 37.47 37.79 36.30 40.54 36.27 43.95
  Q 36.05 76.05 36.07 116.33
  Q 36.07 120.01 39.75 120.01
  L 60.46 120.01
  A 0.31 0.31 0.0 0 0 60.77 119.71
  Q 60.81 112.74 60.76 104.74
  C 60.73 100.78 63.29 98.56 67.17 98.63
  Q 72.64 98.74 77.33 98.69"
/>
<path stroke="#7ed1ed" vector-effect="non-scaling-stroke" d="
  M 52.00 50.81
  A 2.03 2.03 0.0 0 0 49.97 48.78
  L 46.21 48.78
  A 2.03 2.03 0.0 0 0 44.18 50.81
  L 44.18 54.63
  A 2.03 2.03 0.0 0 0 46.21 56.66
  L 49.97 56.66
  A 2.03 2.03 0.0 0 0 52.00 54.63
  L 52.00 50.81"
/>
<path stroke="#7ed1ed" vector-effect="non-scaling-stroke" d="
  M 67.74 50.84
  A 2.06 2.06 0.0 0 0 65.68 48.78
  L 61.94 48.78
  A 2.06 2.06 0.0 0 0 59.88 50.84
  L 59.88 54.60
  A 2.06 2.06 0.0 0 0 61.94 56.66
  L 65.68 56.66
  A 2.06 2.06 0.0 0 0 67.74 54.60
  L 67.74 50.84"
/>
<path stroke="#7ed1ed" vector-effect="non-scaling-stroke" d="
  M 83.4827 50.9176
  A 2.12 2.12 0.0 0 0 81.3775 48.7829
  L 77.7176 48.7573
  A 2.12 2.12 0.0 0 0 75.5829 50.8625
  L 75.5573 54.5224
  A 2.12 2.12 0.0 0 0 77.6625 56.6571
  L 81.3224 56.6827
  A 2.12 2.12 0.0 0 0 83.4571 54.5775
  L 83.4827 50.9176"
/>
<path stroke="#7ed1ed" vector-effect="non-scaling-stroke" d="
  M 99.1832 50.9069
  A 2.13 2.13 0.0 0 0 97.0569 48.7732
  L 93.4169 48.7668
  A 2.13 2.13 0.0 0 0 91.2832 50.8931
  L 91.2768 54.5331
  A 2.13 2.13 0.0 0 0 93.4031 56.6668
  L 97.0431 56.6732
  A 2.13 2.13 0.0 0 0 99.1768 54.5469
  L 99.1832 50.9069"
/>
<path stroke="#7ed1ed" vector-effect="non-scaling-stroke" d="
  M 52.00 66.46
  A 1.94 1.94 0.0 0 0 50.06 64.52
  L 46.12 64.52
  A 1.94 1.94 0.0 0 0 44.18 66.46
  L 44.18 70.40
  A 1.94 1.94 0.0 0 0 46.12 72.34
  L 50.06 72.34
  A 1.94 1.94 0.0 0 0 52.00 70.40
  L 52.00 66.46"
/>
<path stroke="#7ed1ed" vector-effect="non-scaling-stroke" d="
  M 67.7434 66.5174
  A 1.98 1.98 0.0 0 0 65.7773 64.5236
  L 61.8974 64.4966
  A 1.98 1.98 0.0 0 0 59.9036 66.4627
  L 59.8766 70.3426
  A 1.98 1.98 0.0 0 0 61.8427 72.3364
  L 65.7226 72.3634
  A 1.98 1.98 0.0 0 0 67.7164 70.3973
  L 67.7434 66.5174"
/>
<path stroke="#7ed1ed" vector-effect="non-scaling-stroke" d="
  M 83.4733 66.5469
  A 2.02 2.02 0.0 0 0 81.4568 64.5234
  L 77.6168 64.5167
  A 2.02 2.02 0.0 0 0 75.5933 66.5331
  L 75.5867 70.3131
  A 2.02 2.02 0.0 0 0 77.6032 72.3366
  L 81.4432 72.3433
  A 2.02 2.02 0.0 0 0 83.4667 70.3269
  L 83.4733 66.5469"
/>
<path stroke="#7ed1ed" vector-effect="non-scaling-stroke" d="
  M 99.1733 66.5669
  A 2.04 2.04 0.0 0 0 97.1368 64.5233
  L 93.3368 64.5167
  A 2.04 2.04 0.0 0 0 91.2933 66.5531
  L 91.2867 70.2931
  A 2.04 2.04 0.0 0 0 93.3232 72.3367
  L 97.1232 72.3433
  A 2.04 2.04 0.0 0 0 99.1667 70.3069
  L 99.1733 66.5669"
/>
<path stroke="#7ed1ed" vector-effect="non-scaling-stroke" d="
  M 52.00 82.19
  A 1.95 1.95 0.0 0 0 50.05 80.24
  L 46.13 80.24
  A 1.95 1.95 0.0 0 0 44.18 82.19
  L 44.18 86.11
  A 1.95 1.95 0.0 0 0 46.13 88.06
  L 50.05 88.06
  A 1.95 1.95 0.0 0 0 52.00 86.11
  L 52.00 82.19"
/>
<path stroke="#7ed1ed" vector-effect="non-scaling-stroke" d="
  M 67.73 82.23
  A 1.99 1.99 0.0 0 0 65.74 80.24
  L 61.88 80.24
  A 1.99 1.99 0.0 0 0 59.89 82.23
  L 59.89 86.07
  A 1.99 1.99 0.0 0 0 61.88 88.06
  L 65.74 88.06
  A 1.99 1.99 0.0 0 0 67.73 86.07
  L 67.73 82.23"
/>
<path stroke="#7ed1ed" vector-effect="non-scaling-stroke" d="
  M 83.4566 82.2031
  A 1.97 1.97 0.0 0 0 81.4832 80.2366
  L 77.5432 80.2434
  A 1.97 1.97 0.0 0 0 75.5766 82.2169
  L 75.5834 86.0969
  A 1.97 1.97 0.0 0 0 77.5568 88.0634
  L 81.4968 88.0566
  A 1.97 1.97 0.0 0 0 83.4634 86.0831
  L 83.4566 82.2031"
/>
<path stroke="#7ed1ed" vector-effect="non-scaling-stroke" d="
  M 99.17 82.25
  A 2.01 2.01 0.0 0 0 97.16 80.24
  L 93.30 80.24
  A 2.01 2.01 0.0 0 0 91.29 82.25
  L 91.29 86.05
  A 2.01 2.01 0.0 0 0 93.30 88.06
  L 97.16 88.06
  A 2.01 2.01 0.0 0 0 99.17 86.05
  L 99.17 82.25"
/>
<path stroke="#7ed1ed" vector-effect="non-scaling-stroke" d="
  M 51.9796 97.1596
  A 1.94 1.94 0.0 0 0 50.0295 95.2298
  L 46.1096 95.2503
  A 1.94 1.94 0.0 0 0 44.1797 97.2004
  L 44.2004 101.1404
  A 1.94 1.94 0.0 0 0 46.1505 103.0702
  L 50.0704 103.0497
  A 1.94 1.94 0.0 0 0 52.0003 101.0996
  L 51.9796 97.1596"
/>
<path stroke="#7ed1ed" vector-effect="non-scaling-stroke" d="
  M 99.18 97.26
  A 2.02 2.02 0.0 0 0 97.16 95.24
  L 93.30 95.24
  A 2.02 2.02 0.0 0 0 91.28 97.26
  L 91.28 101.04
  A 2.02 2.02 0.0 0 0 93.30 103.06
  L 97.16 103.06
  A 2.02 2.02 0.0 0 0 99.18 101.04
  L 99.18 97.26"
/>
</g>
<path fill="#fcfcfc" d="
  M 28.13 0.00
  L 115.99 0.00
  Q 118.19 0.51 120.40 0.95
  Q 123.03 1.47 124.73 2.17
  Q 141.52 9.01 144.00 27.91
  L 144.00 115.94
  Q 141.56 135.03 124.76 141.82
  C 121.86 142.99 118.58 143.27 115.36 144.00
  L 28.52 144.00
  Q 26.20 143.46 23.84 143.04
  Q 21.02 142.54 19.26 141.83
  Q 2.67 135.11 0.00 116.02
  L 0.00 27.75
  Q 3.79 3.53 28.13 0.00
  Z
  M 46.17 27.69
  A 0.43 0.43 0.0 0 1 45.84 27.45
  L 44.43 24.56
  A 0.43 0.43 0.0 0 0 43.66 24.55
  L 42.19 27.45
  A 0.43 0.43 0.0 0 1 41.87 27.68
  L 38.68 28.13
  A 0.43 0.43 0.0 0 0 38.44 28.86
  L 40.76 31.15
  A 0.43 0.43 0.0 0 1 40.88 31.53
  L 40.34 34.70
  A 0.43 0.43 0.0 0 0 40.96 35.15
  L 43.84 33.65
  A 0.43 0.43 0.0 0 1 44.24 33.66
  L 47.10 35.17
  A 0.43 0.43 0.0 0 0 47.72 34.72
  L 47.18 31.51
  A 0.43 0.43 0.0 0 1 47.30 31.13
  L 49.60 28.83
  A 0.43 0.43 0.0 0 0 49.35 28.10
  L 46.17 27.69
  Z
  M 59.99 27.67
  A 0.48 0.48 0.0 0 1 59.63 27.41
  L 58.24 24.61
  A 0.48 0.48 0.0 0 0 57.38 24.61
  L 56.00 27.43
  A 0.48 0.48 0.0 0 1 55.63 27.69
  L 52.56 28.08
  A 0.48 0.48 0.0 0 0 52.28 28.89
  L 54.56 31.20
  A 0.48 0.48 0.0 0 1 54.69 31.63
  L 54.11 34.62
  A 0.48 0.48 0.0 0 0 54.81 35.13
  L 57.59 33.66
  A 0.48 0.48 0.0 0 1 58.04 33.66
  L 60.82 35.14
  A 0.48 0.48 0.0 0 0 61.52 34.64
  L 60.97 31.53
  A 0.48 0.48 0.0 0 1 61.11 31.10
  L 63.39 28.91
  A 0.48 0.48 0.0 0 0 63.11 28.09
  L 59.99 27.67
  Z
  M 75.14 30.92
  L 77.16 28.94
  A 0.48 0.48 0.0 0 0 76.90 28.12
  L 73.87 27.69
  Q 73.49 27.63 73.33 27.28
  L 72.41 25.31
  Q 71.42 23.18 70.79 25.45
  Q 70.01 28.23 67.22 27.98
  Q 64.88 27.76 66.56 29.40
  L 68.16 30.97
  Q 68.53 31.33 68.44 31.84
  L 67.93 34.68
  A 0.47 0.47 0.0 0 0 68.62 35.18
  L 71.10 33.79
  Q 71.59 33.52 72.07 33.78
  L 74.73 35.20
  A 0.43 0.42 8.8 0 0 75.35 34.75
  L 74.82 31.92
  Q 74.71 31.34 75.14 30.92
  Z
  M 85.19 33.66
  A 0.47 0.47 0.0 0 1 85.63 33.66
  L 88.43 35.14
  A 0.47 0.47 0.0 0 0 89.12 34.64
  L 88.56 31.57
  A 0.47 0.47 0.0 0 1 88.69 31.15
  L 90.99 28.91
  A 0.47 0.47 0.0 0 0 90.73 28.11
  L 87.56 27.67
  A 0.47 0.47 0.0 0 1 87.20 27.41
  L 85.85 24.57
  A 0.47 0.47 0.0 0 0 85.00 24.57
  L 83.65 27.39
  A 0.47 0.47 0.0 0 1 83.29 27.65
  L 80.14 28.13
  A 0.47 0.47 0.0 0 0 79.88 28.93
  L 82.16 31.16
  A 0.47 0.47 0.0 0 1 82.29 31.59
  L 81.72 34.65
  A 0.47 0.47 0.0 0 0 82.40 35.15
  L 85.19 33.66
  Z
  M 97.43 27.41
  A 0.43 0.43 0.0 0 1 97.11 27.64
  L 93.88 28.16
  A 0.43 0.43 0.0 0 0 93.65 28.89
  L 95.96 31.11
  A 0.43 0.43 0.0 0 1 96.08 31.49
  L 95.53 34.72
  A 0.43 0.43 0.0 0 0 96.15 35.17
  L 99.02 33.66
  A 0.43 0.43 0.0 0 1 99.42 33.65
  L 102.32 35.17
  A 0.43 0.43 0.0 0 0 102.95 34.72
  L 102.38 31.52
  A 0.43 0.43 0.0 0 1 102.50 31.14
  L 104.80 28.84
  A 0.43 0.43 0.0 0 0 104.56 28.11
  L 101.39 27.69
  A 0.43 0.43 0.0 0 1 101.06 27.45
  L 99.62 24.55
  A 0.43 0.43 0.0 0 0 98.85 24.55
  L 97.43 27.41
  Z
  M 77.33 98.69
  C 80.46 98.66 82.54 101.63 82.53 104.49
  Q 82.51 112.48 82.49 119.46
  Q 82.49 120.00 83.03 120.00
  L 104.19 120.00
  A 3.07 3.06 -0.1 0 0 107.26 116.93
  Q 107.24 80.66 107.29 46.47
  C 107.30 43.41 106.90 37.81 102.53 37.81
  Q 72.04 37.83 41.42 37.80
  C 37.47 37.79 36.30 40.54 36.27 43.95
  Q 36.05 76.05 36.07 116.33
  Q 36.07 120.01 39.75 120.01
  L 60.46 120.01
  A 0.31 0.31 0.0 0 0 60.77 119.71
  Q 60.81 112.74 60.76 104.74
  C 60.73 100.78 63.29 98.56 67.17 98.63
  Q 72.64 98.74 77.33 98.69
  Z"
/>
<path fill="#d41248" d="
  M 46.17 27.69
  L 49.35 28.10
  A 0.43 0.43 0.0 0 1 49.60 28.83
  L 47.30 31.13
  A 0.43 0.43 0.0 0 0 47.18 31.51
  L 47.72 34.72
  A 0.43 0.43 0.0 0 1 47.10 35.17
  L 44.24 33.66
  A 0.43 0.43 0.0 0 0 43.84 33.65
  L 40.96 35.15
  A 0.43 0.43 0.0 0 1 40.34 34.70
  L 40.88 31.53
  A 0.43 0.43 0.0 0 0 40.76 31.15
  L 38.44 28.86
  A 0.43 0.43 0.0 0 1 38.68 28.13
  L 41.87 27.68
  A 0.43 0.43 0.0 0 0 42.19 27.45
  L 43.66 24.55
  A 0.43 0.43 0.0 0 1 44.43 24.56
  L 45.84 27.45
  A 0.43 0.43 0.0 0 0 46.17 27.69
  Z"
/>
<path fill="#d41248" d="
  M 59.99 27.67
  L 63.11 28.09
  A 0.48 0.48 0.0 0 1 63.39 28.91
  L 61.11 31.10
  A 0.48 0.48 0.0 0 0 60.97 31.53
  L 61.52 34.64
  A 0.48 0.48 0.0 0 1 60.82 35.14
  L 58.04 33.66
  A 0.48 0.48 0.0 0 0 57.59 33.66
  L 54.81 35.13
  A 0.48 0.48 0.0 0 1 54.11 34.62
  L 54.69 31.63
  A 0.48 0.48 0.0 0 0 54.56 31.20
  L 52.28 28.89
  A 0.48 0.48 0.0 0 1 52.56 28.08
  L 55.63 27.69
  A 0.48 0.48 0.0 0 0 56.00 27.43
  L 57.38 24.61
  A 0.48 0.48 0.0 0 1 58.24 24.61
  L 59.63 27.41
  A 0.48 0.48 0.0 0 0 59.99 27.67
  Z"
/>
<path fill="#d41248" d="
  M 74.82 31.92
  L 75.35 34.75
  A 0.43 0.42 8.8 0 1 74.73 35.20
  L 72.07 33.78
  Q 71.59 33.52 71.10 33.79
  L 68.62 35.18
  A 0.47 0.47 0.0 0 1 67.93 34.68
  L 68.44 31.84
  Q 68.53 31.33 68.16 30.97
  L 66.56 29.40
  Q 64.88 27.76 67.22 27.98
  Q 70.01 28.23 70.79 25.45
  Q 71.42 23.18 72.41 25.31
  L 73.33 27.28
  Q 73.49 27.63 73.87 27.69
  L 76.90 28.12
  A 0.48 0.48 0.0 0 1 77.16 28.94
  L 75.14 30.92
  Q 74.71 31.34 74.82 31.92
  Z"
/>
<path fill="#d41248" d="
  M 85.19 33.66
  L 82.40 35.15
  A 0.47 0.47 0.0 0 1 81.72 34.65
  L 82.29 31.59
  A 0.47 0.47 0.0 0 0 82.16 31.16
  L 79.88 28.93
  A 0.47 0.47 0.0 0 1 80.14 28.13
  L 83.29 27.65
  A 0.47 0.47 0.0 0 0 83.65 27.39
  L 85.00 24.57
  A 0.47 0.47 0.0 0 1 85.85 24.57
  L 87.20 27.41
  A 0.47 0.47 0.0 0 0 87.56 27.67
  L 90.73 28.11
  A 0.47 0.47 0.0 0 1 90.99 28.91
  L 88.69 31.15
  A 0.47 0.47 0.0 0 0 88.56 31.57
  L 89.12 34.64
  A 0.47 0.47 0.0 0 1 88.43 35.14
  L 85.63 33.66
  A 0.47 0.47 0.0 0 0 85.19 33.66
  Z"
/>
<path fill="#d41248" d="
  M 97.43 27.41
  L 98.85 24.55
  A 0.43 0.43 0.0 0 1 99.62 24.55
  L 101.06 27.45
  A 0.43 0.43 0.0 0 0 101.39 27.69
  L 104.56 28.11
  A 0.43 0.43 0.0 0 1 104.80 28.84
  L 102.50 31.14
  A 0.43 0.43 0.0 0 0 102.38 31.52
  L 102.95 34.72
  A 0.43 0.43 0.0 0 1 102.32 35.17
  L 99.42 33.65
  A 0.43 0.43 0.0 0 0 99.02 33.66
  L 96.15 35.17
  A 0.43 0.43 0.0 0 1 95.53 34.72
  L 96.08 31.49
  A 0.43 0.43 0.0 0 0 95.96 31.11
  L 93.65 28.89
  A 0.43 0.43 0.0 0 1 93.88 28.16
  L 97.11 27.64
  A 0.43 0.43 0.0 0 0 97.43 27.41
  Z"
/>
<path fill="#00a5de" d="
  M 82.53 104.49
  C 82.54 101.63 80.46 98.66 77.33 98.69
  Q 72.64 98.74 67.17 98.63
  C 63.29 98.56 60.73 100.78 60.76 104.74
  Q 60.81 112.74 60.77 119.71
  A 0.31 0.31 0.0 0 1 60.46 120.01
  L 39.75 120.01
  Q 36.07 120.01 36.07 116.33
  Q 36.05 76.05 36.27 43.95
  C 36.30 40.54 37.47 37.79 41.42 37.80
  Q 72.04 37.83 102.53 37.81
  C 106.90 37.81 107.30 43.41 107.29 46.47
  Q 107.24 80.66 107.26 116.93
  A 3.07 3.06 -0.1 0 1 104.19 120.00
  L 83.03 120.00
  Q 82.49 120.00 82.49 119.46
  Q 82.51 112.48 82.53 104.49
  Z
  M 52.00 50.81
  A 2.03 2.03 0.0 0 0 49.97 48.78
  L 46.21 48.78
  A 2.03 2.03 0.0 0 0 44.18 50.81
  L 44.18 54.63
  A 2.03 2.03 0.0 0 0 46.21 56.66
  L 49.97 56.66
  A 2.03 2.03 0.0 0 0 52.00 54.63
  L 52.00 50.81
  Z
  M 67.74 50.84
  A 2.06 2.06 0.0 0 0 65.68 48.78
  L 61.94 48.78
  A 2.06 2.06 0.0 0 0 59.88 50.84
  L 59.88 54.60
  A 2.06 2.06 0.0 0 0 61.94 56.66
  L 65.68 56.66
  A 2.06 2.06 0.0 0 0 67.74 54.60
  L 67.74 50.84
  Z
  M 83.4827 50.9176
  A 2.12 2.12 0.0 0 0 81.3775 48.7829
  L 77.7176 48.7573
  A 2.12 2.12 0.0 0 0 75.5829 50.8625
  L 75.5573 54.5224
  A 2.12 2.12 0.0 0 0 77.6625 56.6571
  L 81.3224 56.6827
  A 2.12 2.12 0.0 0 0 83.4571 54.5775
  L 83.4827 50.9176
  Z
  M 99.1832 50.9069
  A 2.13 2.13 0.0 0 0 97.0569 48.7732
  L 93.4169 48.7668
  A 2.13 2.13 0.0 0 0 91.2832 50.8931
  L 91.2768 54.5331
  A 2.13 2.13 0.0 0 0 93.4031 56.6668
  L 97.0431 56.6732
  A 2.13 2.13 0.0 0 0 99.1768 54.5469
  L 99.1832 50.9069
  Z
  M 52.00 66.46
  A 1.94 1.94 0.0 0 0 50.06 64.52
  L 46.12 64.52
  A 1.94 1.94 0.0 0 0 44.18 66.46
  L 44.18 70.40
  A 1.94 1.94 0.0 0 0 46.12 72.34
  L 50.06 72.34
  A 1.94 1.94 0.0 0 0 52.00 70.40
  L 52.00 66.46
  Z
  M 67.7434 66.5174
  A 1.98 1.98 0.0 0 0 65.7773 64.5236
  L 61.8974 64.4966
  A 1.98 1.98 0.0 0 0 59.9036 66.4627
  L 59.8766 70.3426
  A 1.98 1.98 0.0 0 0 61.8427 72.3364
  L 65.7226 72.3634
  A 1.98 1.98 0.0 0 0 67.7164 70.3973
  L 67.7434 66.5174
  Z
  M 83.4733 66.5469
  A 2.02 2.02 0.0 0 0 81.4568 64.5234
  L 77.6168 64.5167
  A 2.02 2.02 0.0 0 0 75.5933 66.5331
  L 75.5867 70.3131
  A 2.02 2.02 0.0 0 0 77.6032 72.3366
  L 81.4432 72.3433
  A 2.02 2.02 0.0 0 0 83.4667 70.3269
  L 83.4733 66.5469
  Z
  M 99.1733 66.5669
  A 2.04 2.04 0.0 0 0 97.1368 64.5233
  L 93.3368 64.5167
  A 2.04 2.04 0.0 0 0 91.2933 66.5531
  L 91.2867 70.2931
  A 2.04 2.04 0.0 0 0 93.3232 72.3367
  L 97.1232 72.3433
  A 2.04 2.04 0.0 0 0 99.1667 70.3069
  L 99.1733 66.5669
  Z
  M 52.00 82.19
  A 1.95 1.95 0.0 0 0 50.05 80.24
  L 46.13 80.24
  A 1.95 1.95 0.0 0 0 44.18 82.19
  L 44.18 86.11
  A 1.95 1.95 0.0 0 0 46.13 88.06
  L 50.05 88.06
  A 1.95 1.95 0.0 0 0 52.00 86.11
  L 52.00 82.19
  Z
  M 67.73 82.23
  A 1.99 1.99 0.0 0 0 65.74 80.24
  L 61.88 80.24
  A 1.99 1.99 0.0 0 0 59.89 82.23
  L 59.89 86.07
  A 1.99 1.99 0.0 0 0 61.88 88.06
  L 65.74 88.06
  A 1.99 1.99 0.0 0 0 67.73 86.07
  L 67.73 82.23
  Z
  M 83.4566 82.2031
  A 1.97 1.97 0.0 0 0 81.4832 80.2366
  L 77.5432 80.2434
  A 1.97 1.97 0.0 0 0 75.5766 82.2169
  L 75.5834 86.0969
  A 1.97 1.97 0.0 0 0 77.5568 88.0634
  L 81.4968 88.0566
  A 1.97 1.97 0.0 0 0 83.4634 86.0831
  L 83.4566 82.2031
  Z
  M 99.17 82.25
  A 2.01 2.01 0.0 0 0 97.16 80.24
  L 93.30 80.24
  A 2.01 2.01 0.0 0 0 91.29 82.25
  L 91.29 86.05
  A 2.01 2.01 0.0 0 0 93.30 88.06
  L 97.16 88.06
  A 2.01 2.01 0.0 0 0 99.17 86.05
  L 99.17 82.25
  Z
  M 51.9796 97.1596
  A 1.94 1.94 0.0 0 0 50.0295 95.2298
  L 46.1096 95.2503
  A 1.94 1.94 0.0 0 0 44.1797 97.2004
  L 44.2004 101.1404
  A 1.94 1.94 0.0 0 0 46.1505 103.0702
  L 50.0704 103.0497
  A 1.94 1.94 0.0 0 0 52.0003 101.0996
  L 51.9796 97.1596
  Z
  M 99.18 97.26
  A 2.02 2.02 0.0 0 0 97.16 95.24
  L 93.30 95.24
  A 2.02 2.02 0.0 0 0 91.28 97.26
  L 91.28 101.04
  A 2.02 2.02 0.0 0 0 93.30 103.06
  L 97.16 103.06
  A 2.02 2.02 0.0 0 0 99.18 101.04
  L 99.18 97.26
  Z"
/>
<rect fill="#fcfcfc" x="44.18" y="48.78" width="7.82" height="7.88" rx="2.03"/>
<rect fill="#fcfcfc" x="59.88" y="48.78" width="7.86" height="7.88" rx="2.06"/>
<rect fill="#fcfcfc" x="-3.95" y="-3.95" transform="translate(79.52,52.72) rotate(0.4)" width="7.90" height="7.90" rx="2.12"/>
<rect fill="#fcfcfc" x="-3.95" y="-3.95" transform="translate(95.23,52.72) rotate(0.1)" width="7.90" height="7.90" rx="2.13"/>
<rect fill="#fcfcfc" x="44.18" y="64.52" width="7.82" height="7.82" rx="1.94"/>
<rect fill="#fcfcfc" x="-3.92" y="-3.92" transform="translate(63.81,68.43) rotate(0.4)" width="7.84" height="7.84" rx="1.98"/>
<rect fill="#fcfcfc" x="-3.94" y="-3.91" transform="translate(79.53,68.43) rotate(0.1)" width="7.88" height="7.82" rx="2.02"/>
<rect fill="#fcfcfc" x="-3.94" y="-3.91" transform="translate(95.23,68.43) rotate(0.1)" width="7.88" height="7.82" rx="2.04"/>
<rect fill="#fcfcfc" x="44.18" y="80.24" width="7.82" height="7.82" rx="1.95"/>
<rect fill="#fcfcfc" x="59.89" y="80.24" width="7.84" height="7.82" rx="1.99"/>
<rect fill="#fcfcfc" x="-3.94" y="-3.91" transform="translate(79.52,84.15) rotate(-0.1)" width="7.88" height="7.82" rx="1.97"/>
<rect fill="#fcfcfc" x="91.29" y="80.24" width="7.88" height="7.82" rx="2.01"/>
<rect fill="#fcfcfc" x="-3.90" y="-3.91" transform="translate(48.09,99.15) rotate(-0.3)" width="7.80" height="7.82" rx="1.94"/>
<rect fill="#fcfcfc" x="91.28" y="95.24" width="7.90" height="7.82" rx="2.02"/>
</svg>
