<?xml version="1.0" encoding="UTF-8" standalone="no"?>
<!DOCTYPE svg PUBLIC "-//W3C//DTD SVG 1.1//EN" "http://www.w3.org/Graphics/SVG/1.1/DTD/svg11.dtd">
<svg xmlns="http://www.w3.org/2000/svg" version="1.1" viewBox="0.00 0.00 80.00 78.00">
<path fill="#fefefe" d="
  M 7.41 6.36
  Q 6.26 6.82 6.26 8.06
  L 6.26 27.16
  A 2.40 2.40 0.0 0 0 8.66 29.56
  L 24.25 29.57
  Q 24.44 29.57 24.44 29.75
  L 24.43 34.98
  Q 24.43 35.21 24.20 35.21
  Q 16.48 35.34 8.82 35.26
  Q 5.09 35.22 3.25 34.05
  Q 0.39 32.23 0.40 28.74
  Q 0.41 20.56 0.32 8.98
  Q 0.29 6.16 1.23 4.27
  C 2.52 1.65 5.46 0.20 8.41 0.22
  Q 19.52 0.30 30.43 0.21
  Q 32.46 0.20 34.09 1.28
  Q 36.88 3.12 36.81 6.84
  Q 36.67 15.04 36.79 22.50
  Q 36.79 22.76 36.54 22.76
  L 31.05 22.73
  Q 30.87 22.73 30.87 22.55
  L 30.86 8.06
  A 2.31 2.30 90.0 0 0 28.56 5.75
  L 8.97 5.75
  Q 8.45 5.75 8.02 6.04
  Q 7.73 6.23 7.41 6.36
  Z"
/>
<path fill="#fefefe" d="
  M 70.99 5.75
  L 51.12 5.75
  Q 48.50 5.75 48.50 8.38
  L 48.50 35.00
  A 0.25 0.25 0.0 0 1 48.25 35.25
  L 42.95 35.25
  Q 42.58 35.25 42.59 34.89
  Q 42.65 23.27 42.54 9.24
  C 42.50 4.07 44.67 0.32 50.34 0.29
  Q 58.87 0.24 68.37 0.16
  Q 72.85 0.13 74.95 1.19
  Q 78.94 3.22 78.98 8.75
  Q 79.08 19.80 78.93 29.00
  C 78.83 35.65 71.29 35.68 66.02 35.13
  Q 65.72 35.10 65.72 34.80
  L 65.73 29.76
  A 0.25 0.25 0.0 0 1 66.01 29.51
  Q 68.81 29.74 70.70 29.49
  Q 73.25 29.15 73.25 26.59
  L 73.25 8.03
  Q 73.25 7.54 72.82 7.31
  Q 72.05 6.89 71.63 6.13
  Q 71.42 5.75 70.99 5.75
  Z"
/>
<rect fill="#fefefe" x="-5.73" y="-5.17" transform="translate(18.72,17.57) rotate(-0.1)" width="11.46" height="10.34" rx="0.26"/>
<rect fill="#fefefe" x="-5.99" y="-5.18" transform="translate(61.49,17.56) rotate(-0.1)" width="11.98" height="10.36" rx="0.27"/>
<rect fill="#fefefe" x="-2.95" y="-2.89" transform="translate(33.81,32.50) rotate(0.1)" width="5.90" height="5.78" rx="0.28"/>
<rect fill="#fefefe" x="-2.96" y="-2.85" transform="translate(57.20,32.40) rotate(0.1)" width="5.92" height="5.70" rx="0.33"/>
<path fill="#fefefe" d="
  M 6.46 70.64
  A 2.17 2.17 0.0 0 0 8.56 72.25
  L 28.30 72.25
  A 2.56 2.55 0.0 0 0 30.86 69.70
  L 30.88 55.74
  Q 30.88 55.11 31.50 55.09
  L 36.19 54.96
  Q 36.74 54.95 36.74 55.50
  Q 36.76 63.72 36.78 72.27
  Q 36.79 74.44 35.42 75.91
  C 33.43 78.04 31.33 77.71 28.59 77.70
  Q 19.39 77.67 9.50 77.80
  Q 5.53 77.84 3.47 76.49
  Q 0.34 74.43 0.37 70.26
  Q 0.43 62.56 0.27 53.86
  Q 0.20 49.81 1.34 47.37
  Q 3.41 42.94 9.49 42.84
  Q 22.91 42.63 36.49 42.72
  Q 36.75 42.72 36.75 42.98
  L 36.75 48.19
  Q 36.75 48.39 36.56 48.39
  L 9.51 48.38
  Q 6.35 48.38 6.31 51.55
  Q 6.20 60.54 6.29 69.36
  Q 6.30 70.00 6.46 70.64
  Z"
/>
<path fill="#fefefe" d="
  M 48.59 48.82
  L 48.66 59.29
  A 0.33 0.33 0.0 0 1 48.33 59.62
  L 42.71 59.59
  A 0.33 0.33 0.0 0 1 42.38 59.26
  L 42.37 42.81
  A 0.33 0.33 0.0 0 1 42.70 42.48
  L 59.85 42.49
  A 0.33 0.33 0.0 0 1 60.18 42.82
  L 60.17 48.18
  A 0.33 0.33 0.0 0 1 59.84 48.51
  L 48.92 48.49
  A 0.33 0.33 0.0 0 0 48.59 48.82
  Z"
/>
<rect fill="#fefefe" x="-3.10" y="-2.80" transform="translate(75.60,45.49) rotate(0.1)" width="6.20" height="5.60" rx="0.27"/>
<rect fill="#fefefe" x="-3.12" y="-2.82" transform="translate(68.93,51.65) rotate(-0.3)" width="6.24" height="5.64" rx="0.52"/>
<path fill="#fefefe" d="
  M 48.55 71.97
  L 48.70 77.41
  A 0.34 0.34 0.0 0 1 48.36 77.76
  L 42.70 77.76
  A 0.34 0.34 0.0 0 1 42.36 77.42
  L 42.38 65.98
  A 0.34 0.34 0.0 0 1 42.72 65.64
  L 53.97 65.61
  A 0.34 0.34 0.0 0 0 54.31 65.27
  L 54.19 54.54
  A 0.34 0.34 0.0 0 1 54.54 54.19
  L 59.86 54.27
  A 0.34 0.34 0.0 0 1 60.20 54.61
  L 60.21 71.33
  A 0.34 0.34 0.0 0 1 59.87 71.67
  L 48.89 71.62
  A 0.34 0.34 0.0 0 0 48.55 71.97
  Z"
/>
<rect fill="#fefefe" x="-5.74" y="-5.21" transform="translate(18.72,60.26) rotate(0.2)" width="11.48" height="10.42" rx="0.47"/>
<path fill="#fefefe" d="
  M 73.41 66.72
  L 66.03 66.78
  A 0.34 0.34 0.0 0 1 65.69 66.44
  L 65.70 61.65
  A 0.34 0.34 0.0 0 1 66.04 61.31
  L 79.22 61.29
  A 0.34 0.34 0.0 0 1 79.56 61.63
  L 79.56 77.30
  A 0.34 0.34 0.0 0 1 79.22 77.64
  L 60.76 77.63
  A 0.34 0.34 0.0 0 1 60.42 77.28
  L 60.50 72.21
  A 0.34 0.34 0.0 0 1 60.84 71.88
  L 73.37 71.86
  A 0.34 0.34 0.0 0 0 73.71 71.52
  L 73.76 67.07
  A 0.34 0.34 0.0 0 0 73.41 66.72
  Z"
/>
</svg>
