<?xml version="1.0" encoding="UTF-8" standalone="no"?>
<!DOCTYPE svg PUBLIC "-//W3C//DTD SVG 1.1//EN" "http://www.w3.org/Graphics/SVG/1.1/DTD/svg11.dtd">
<svg xmlns="http://www.w3.org/2000/svg" version="1.1" viewBox="0.00 0.00 102.00 102.00">
<g stroke-width="2.00" fill="none" stroke-linecap="butt">
<path stroke="#41779b" vector-effect="non-scaling-stroke" d="
  M 42.91 24.84
  Q 44.63 24.57 46.61 24.45
  Q 46.77 24.44 46.87 24.31
  Q 46.94 24.21 46.88 24.07
  Q 46.81 23.91 46.65 23.89
  L 42.45 23.28"
/>
<path stroke="#41779b" vector-effect="non-scaling-stroke" d="
  M 78.91 24.66
  L 82.92 24.40
  Q 83.17 24.38 83.18 24.14
  Q 83.18 23.96 83.00 23.94
  Q 80.74 23.75 78.43 23.32"
/>
<path stroke="#41779b" vector-effect="non-scaling-stroke" d="
  M 21.6864 24.0096
  A 2.03 0.53 -3.4 0 0 19.6286 23.6009
  A 2.03 0.53 -3.4 0 0 17.6336 24.2504
  A 2.03 0.53 -3.4 0 0 19.6914 24.6591
  A 2.03 0.53 -3.4 0 0 21.6864 24.0096"
/>
</g>
<path fill="#005993" d="
  M 6.00 6.62
  L 5.99 20.60
  Q 5.99 23.07 3.54 23.41
  Q 2.93 23.49 2.29 23.36
  A 1.92 1.92 0.0 0 1 0.76 21.48
  L 0.72 3.74
  A 3.27 3.27 0.0 0 1 3.95 0.47
  Q 13.04 0.35 20.83 0.54
  A 2.94 2.82 84.1 0 1 23.54 2.84
  Q 23.79 3.94 21.60 5.54
  A 2.34 2.33 -63.2 0 1 20.21 6.00
  L 6.63 6.00
  Q 6.00 6.00 6.00 6.62
  Z"
/>
<path fill="#005993" d="
  M 78.48 3.18
  A 3.69 3.68 -82.7 0 1 81.99 0.46
  Q 89.49 0.39 98.09 0.49
  A 3.51 3.51 0.0 0 1 101.55 4.00
  L 101.56 20.41
  Q 101.56 23.24 98.74 23.45
  Q 97.42 23.55 96.32 21.80
  A 1.99 1.96 -61.9 0 1 96.00 20.72
  L 96.00 6.51
  Q 96.00 5.95 95.44 5.96
  Q 87.68 6.09 81.50 5.92
  A 3.26 3.01 -5.7 0 1 78.48 3.64
  Q 78.42 3.41 78.48 3.18
  Z"
/>
<path fill="#005993" d="
  M 42.91 24.84
  Q 44.63 24.57 46.61 24.45
  Q 46.77 24.44 46.87 24.31
  Q 46.94 24.21 46.88 24.07
  Q 46.81 23.91 46.65 23.89
  L 42.45 23.28
  Q 33.03 22.28 24.63 22.86
  Q 22.12 23.03 22.09 25.49
  Q 22.01 32.19 22.07 39.39
  A 3.46 3.45 0.0 0 0 25.51 42.82
  L 37.05 42.86
  Q 37.40 42.87 37.48 43.21
  Q 37.88 44.93 37.77 47.28
  Q 37.75 47.86 37.16 47.86
  Q 31.23 47.77 24.05 47.87
  C 20.38 47.92 17.03 46.39 16.99 42.23
  Q 16.90 33.40 17.01 23.86
  C 17.05 20.26 19.91 17.85 23.44 17.83
  Q 32.08 17.78 41.51 17.75
  C 43.95 17.74 47.61 18.25 47.84 21.35
  Q 48.31 27.70 48.09 36.65
  Q 48.08 37.04 47.70 37.04
  L 43.45 37.04
  Q 42.96 37.04 42.96 36.56
  L 42.91 24.84
  Z
  M 21.6864 24.0096
  A 2.03 0.53 -3.4 0 0 19.6286 23.6009
  A 2.03 0.53 -3.4 0 0 17.6336 24.2504
  A 2.03 0.53 -3.4 0 0 19.6914 24.6591
  A 2.03 0.53 -3.4 0 0 21.6864 24.0096
  Z"
/>
<path fill="#005993" d="
  M 78.91 24.66
  L 82.92 24.40
  Q 83.17 24.38 83.18 24.14
  Q 83.18 23.96 83.00 23.94
  Q 80.74 23.75 78.43 23.32
  Q 69.20 22.27 60.63 22.86
  Q 58.15 23.04 58.14 25.64
  Q 58.12 37.26 58.15 46.96
  Q 58.16 47.73 57.38 47.75
  L 54.03 47.82
  Q 53.06 47.85 53.04 46.87
  Q 52.70 31.62 53.27 22.83
  C 53.54 18.67 57.68 17.72 61.27 17.74
  Q 71.06 17.79 78.02 17.85
  Q 81.57 17.89 83.37 20.99
  Q 84.58 23.08 84.40 27.91
  Q 84.14 34.85 84.24 41.30
  C 84.34 48.10 78.46 48.38 73.39 47.62
  Q 72.85 47.54 72.85 46.99
  L 72.86 44.03
  Q 72.86 43.49 73.36 43.25
  Q 74.45 42.72 76.01 42.77
  Q 78.52 42.85 78.69 40.24
  Q 79.20 32.51 78.91 24.66
  Z"
/>
<ellipse fill="#8294a2" cx="0.00" cy="0.00" transform="translate(19.66,24.13) rotate(-3.4)" rx="2.03" ry="0.53"/>
<path fill="#8294a2" d="
  M 42.45 23.28
  L 46.65 23.89
  Q 46.81 23.91 46.88 24.07
  Q 46.94 24.21 46.87 24.31
  Q 46.77 24.44 46.61 24.45
  Q 44.63 24.57 42.91 24.84
  L 42.45 23.28
  Z"
/>
<path fill="#8294a2" d="
  M 78.43 23.32
  Q 80.74 23.75 83.00 23.94
  Q 83.18 23.96 83.18 24.14
  Q 83.17 24.38 82.92 24.40
  L 78.91 24.66
  L 78.43 23.32
  Z"
/>
<rect fill="#005993" x="-4.97" y="-4.52" transform="translate(32.75,32.53) rotate(0.2)" width="9.94" height="9.04" rx="0.70"/>
<rect fill="#005993" x="-5.25" y="-4.51" transform="translate(69.24,32.53) rotate(0.3)" width="10.50" height="9.02" rx="0.52"/>
<rect fill="#005993" x="62.97" y="42.84" width="5.14" height="4.94" rx="0.73"/>
<rect fill="#005993" x="-2.57" y="-2.54" transform="translate(45.56,45.46) rotate(0.2)" width="5.14" height="5.08" rx="0.38"/>
<path fill="#005993" d="
  M 23.16 78.58
  Q 24.02 78.90 24.88 78.93
  Q 31.47 79.15 40.65 78.90
  A 2.41 2.41 0.0 0 0 43.00 76.49
  L 43.00 65.43
  Q 43.00 64.60 43.82 64.59
  L 46.93 64.54
  Q 48.11 64.53 48.13 65.71
  Q 48.22 72.78 48.06 79.56
  C 47.99 82.94 45.47 84.08 42.42 84.09
  Q 31.86 84.10 23.15 84.05
  C 18.68 84.02 16.81 80.93 16.90 76.95
  Q 17.07 69.32 16.90 62.27
  C 16.80 57.58 19.55 54.18 24.46 54.09
  Q 35.45 53.89 47.77 54.04
  Q 48.13 54.04 48.13 54.40
  L 48.11 58.70
  Q 48.11 59.02 47.80 59.02
  L 25.77 59.02
  A 3.71 3.71 0.0 0 0 22.06 62.74
  L 22.08 77.03
  A 1.65 1.65 0.0 0 0 23.16 78.58
  Z"
/>
<path fill="#8294a2" d="
  M 58.47 59.99
  L 58.47 67.64
  A 1.06 1.06 0.0 0 1 57.44 68.70
  L 54.10 68.79
  A 1.06 1.06 0.0 0 1 53.01 67.73
  L 53.05 55.06
  A 1.06 1.06 0.0 0 1 54.11 54.00
  L 66.97 54.01
  A 1.06 1.06 0.0 0 1 68.03 55.01
  L 68.19 57.95
  A 1.06 1.06 0.0 0 1 67.12 59.07
  L 59.55 58.93
  A 1.06 1.06 0.0 0 0 58.47 59.99
  Z"
/>
<path fill="#8294a2" d="
  M 83.99 58.72
  A 0.27 0.27 0.0 0 1 83.72 58.99
  L 80.74 58.95
  A 1.89 1.76 0.7 0 1 78.87 57.17
  L 78.89 55.71
  A 1.89 1.76 0.7 0 1 80.80 53.97
  L 83.78 54.01
  A 0.27 0.27 0.0 0 1 84.05 54.28
  L 83.99 58.72
  Z"
/>
<rect fill="#8294a2" x="-2.69" y="-2.43" transform="translate(75.61,61.69) rotate(-1.0)" width="5.38" height="4.86" rx="1.29"/>
<path fill="#8294a2" d="
  M 67.07 78.78
  Q 66.97 78.83 66.86 78.89
  Q 66.76 78.95 66.63 78.95
  Q 63.01 79.03 59.17 78.96
  Q 58.57 78.95 58.48 79.55
  L 58.02 82.70
  Q 57.80 84.15 56.34 84.14
  L 54.57 84.14
  Q 52.99 84.14 52.99 82.57
  L 52.99 75.46
  A 1.60 1.59 -1.3 0 1 54.53 73.86
  L 61.31 73.60
  A 1.67 1.66 -1.1 0 0 62.92 71.94
  L 62.95 64.46
  Q 62.95 63.87 63.54 63.87
  L 67.39 63.87
  Q 68.11 63.87 68.11 64.59
  Q 68.11 70.28 68.09 75.81
  Q 68.09 77.02 68.42 78.18
  Q 68.60 78.84 67.98 78.56
  Q 67.92 78.54 67.86 78.54
  Q 67.44 78.61 67.07 78.78
  Z"
/>
<rect fill="#005993" x="-4.97" y="-4.61" transform="translate(32.80,69.16) rotate(0.2)" width="9.94" height="9.22" rx="1.14"/>
<path fill="#8294a2" d="
  M 68.91 79.17
  Q 68.87 79.13 68.86 79.08
  Q 68.84 78.87 69.05 78.88
  Q 73.75 79.13 78.68 78.95
  Q 79.70 78.91 79.77 77.90
  L 79.91 76.22
  Q 79.98 75.21 78.97 75.16
  L 73.72 74.91
  Q 72.81 74.87 72.85 73.96
  L 72.95 71.73
  Q 73.02 69.98 74.77 69.98
  L 84.47 69.97
  Q 84.97 69.97 84.97 70.47
  L 84.98 83.53
  Q 84.98 84.05 84.47 84.05
  L 69.04 83.97
  A 0.72 0.72 0.0 0 1 68.33 83.30
  L 68.11 80.50
  Q 68.08 80.04 68.51 79.90
  Q 68.64 79.85 68.78 79.80
  Q 69.34 79.59 68.91 79.17
  Z"
/>
<path fill="#005993" d="
  M 6.75 96.00
  L 19.95 96.00
  A 3.11 3.07 62.2 0 1 21.72 96.56
  Q 23.94 98.11 23.55 99.29
  A 3.16 3.03 -81.4 0 1 20.74 101.45
  Q 13.42 101.66 3.77 101.52
  A 3.07 3.07 0.0 0 1 0.74 98.45
  L 0.74 81.02
  A 1.56 1.55 61.2 0 1 0.98 80.19
  Q 2.25 78.17 3.61 78.55
  Q 6.00 79.22 6.00 81.70
  L 6.00 95.25
  Q 6.00 96.00 6.75 96.00
  Z"
/>
<path fill="#005993" d="
  M 96.00 95.31
  L 96.00 81.66
  Q 96.00 79.42 98.09 78.61
  Q 98.46 78.47 98.87 78.56
  Q 101.55 79.17 101.55 81.92
  L 101.55 98.03
  A 3.48 3.47 89.8 0 1 98.11 101.51
  Q 90.73 101.58 82.25 101.56
  C 80.38 101.56 78.63 100.48 78.47 98.53
  Q 78.43 98.00 78.79 97.61
  Q 80.20 96.03 82.04 96.01
  Q 88.34 95.96 95.27 96.03
  Q 96.00 96.04 96.00 95.31
  Z"
/>
</svg>
