<?xml version="1.0" encoding="UTF-8" standalone="no"?>
<!DOCTYPE svg PUBLIC "-//W3C//DTD SVG 1.1//EN" "http://www.w3.org/Graphics/SVG/1.1/DTD/svg11.dtd">
<svg xmlns="http://www.w3.org/2000/svg" version="1.1" viewBox="0.00 0.00 452.00 453.00">
<g stroke-width="2.00" fill="none" stroke-linecap="butt">
<path stroke="#eff3f6" vector-effect="non-scaling-stroke" d="
  M 206.2162 86.4831
  A 36.30 36.30 0.0 0 0 169.8529 50.2465
  L 85.4731 50.3938
  A 36.30 36.30 0.0 0 0 49.2365 86.7571
  L 49.3838 171.1369
  A 36.30 36.30 0.0 0 0 85.7471 207.3735
  L 170.1269 207.2262
  A 36.30 36.30 0.0 0 0 206.3635 170.8629
  L 206.2162 86.4831"
/>
<path stroke="#eff3f6" vector-effect="non-scaling-stroke" d="
  M 402.6317 86.5883
  A 36.40 36.40 0.0 0 0 366.1682 50.2519
  L 287.9683 50.3884
  A 36.40 36.40 0.0 0 0 251.6319 86.8518
  L 251.7683 165.0317
  A 36.40 36.40 0.0 0 0 288.2318 201.3681
  L 366.4317 201.2316
  A 36.40 36.40 0.0 0 0 402.7681 164.7682
  L 402.6317 86.5883"
/>
<path stroke="#eff3f6" vector-effect="non-scaling-stroke" d="
  M 163.92 403.68
  A 36.36 36.36 0.0 0 0 200.27 367.34
  L 200.30 289.08
  A 36.36 36.36 0.0 0 0 163.93 252.70
  L 85.68 252.73
  A 36.36 36.36 0.0 0 0 49.33 289.10
  L 49.36 367.36
  A 36.36 36.36 0.0 0 0 85.73 403.71
  L 163.92 403.68"
/>
<path stroke="#7dcce8" vector-effect="non-scaling-stroke" d="
  M 306.03 325.13
  A 4.53 4.53 0.0 0 0 301.50 320.60
  A 4.53 4.53 0.0 0 0 296.97 325.13
  A 4.53 4.53 0.0 0 0 301.50 329.66
  A 4.53 4.53 0.0 0 0 306.03 325.13"
/>
<path stroke="#7dcce8" vector-effect="non-scaling-stroke" d="
  M 339.23 325.13
  A 4.52 4.52 0.0 0 0 334.71 320.61
  A 4.52 4.52 0.0 0 0 330.19 325.13
  A 4.52 4.52 0.0 0 0 334.71 329.65
  A 4.52 4.52 0.0 0 0 339.23 325.13"
/>
<path stroke="#7dcce8" vector-effect="non-scaling-stroke" d="
  M 322.63 325.15
  A 4.53 4.53 0.0 0 0 318.10 320.62
  A 4.53 4.53 0.0 0 0 313.57 325.15
  A 4.53 4.53 0.0 0 0 318.10 329.68
  A 4.53 4.53 0.0 0 0 322.63 325.15"
/>
<path stroke="#bce6f8" vector-effect="non-scaling-stroke" d="
  M 70.52 160.69
  Q 70.45 163.22 72.40 164.54"
/>
<path stroke="#8ad5ef" vector-effect="non-scaling-stroke" d="
  M 72.40 164.54
  Q 75.38 168.01 78.75 168.02
  Q 113.59 168.17 148.96 168.10"
/>
<path stroke="#8ab2cc" vector-effect="non-scaling-stroke" d="
  M 148.96 168.10
  Q 160.93 168.17 173.35 168.06
  Q 176.76 168.03 179.00 167.35
  C 183.68 165.91 185.25 161.41 185.27 156.58
  Q 185.33 144.02 185.00 133.02
  A 1.24 1.22 5.1 0 0 184.02 131.86
  Q 181.43 131.33 180.17 129.13
  C 177.88 125.13 179.92 121.28 184.19 119.76
  Q 184.81 119.54 184.84 118.89
  Q 185.60 103.76 185.10 96.30
  Q 184.45 86.57 174.49 86.54
  Q 161.44 86.50 148.96 86.54"
/>
<path stroke="#8ad5ef" vector-effect="non-scaling-stroke" d="
  M 148.96 86.54
  Q 114.06 86.54 79.75 86.61
  C 73.24 86.62 70.37 91.45 70.42 97.58
  Q 70.50 108.09 70.50 118.89
  Q 70.50 119.56 71.14 119.74
  Q 72.21 120.04 73.20 120.52
  C 78.56 123.13 77.06 130.97 71.21 131.73
  A 0.80 0.79 86.3 0 0 70.52 132.52
  L 70.52 160.69"
/>
<path stroke="#188bbf" vector-effect="non-scaling-stroke" d="
  M 148.96 86.54
  L 148.96 168.10"
/>
<path stroke="#4abfeb" vector-effect="non-scaling-stroke" d="
  M 72.40 164.54
  Q 71.82 161.95 70.52 160.69"
/>
<path stroke="#e887a2" vector-effect="non-scaling-stroke" d="
  M 314.06 84.43
  Q 309.52 82.16 305.91 85.70
  Q 300.16 91.34 294.31 97.32
  A 1.00 0.99 44.8 0 0 294.32 98.72
  L 315.25 119.74
  Q 316.06 120.56 316.13 119.40
  Q 316.91 106.77 317.96 92.53
  C 318.23 88.94 317.35 86.07 314.06 84.43"
/>
<path stroke="#e887a2" vector-effect="non-scaling-stroke" d="
  M 341.36 129.09
  A 2.12 1.83 58.3 0 1 341.71 126.94
  L 347.65 121.03
  Q 348.50 120.18 348.09 119.06
  L 345.26 111.25
  Q 344.84 110.09 343.97 110.96
  L 335.38 119.53
  A 1.49 1.48 32.3 0 1 333.84 119.87
  Q 333.05 119.59 332.82 119.12
  Q 332.31 118.12 333.10 117.32
  L 343.07 107.29
  A 1.40 1.40 0.0 0 0 343.43 105.92
  C 342.13 101.11 340.04 94.70 333.48 95.85
  C 329.81 96.49 328.89 98.53 326.94 101.19
  Q 325.36 103.35 321.82 102.74
  Q 320.62 102.53 320.54 103.74
  L 319.32 122.05
  A 3.28 3.28 0.0 0 0 320.25 124.57
  Q 331.27 135.82 340.63 144.92
  Q 343.53 147.73 347.39 147.77
  Q 355.36 147.83 364.22 147.79
  Q 364.88 147.78 364.44 147.28
  Q 355.69 137.23 350.13 124.42
  A 0.68 0.68 0.0 0 0 349.02 124.21
  L 343.82 129.33
  A 0.91 0.90 18.9 0 1 343.32 129.57
  Q 341.64 129.82 341.36 129.09"
/>
<path stroke="#a3b0b9" vector-effect="non-scaling-stroke" d="
  M 370.66 164.48
  A 7.86 7.85 -18.8 0 0 372.09 161.58
  C 373.08 157.61 373.13 151.95 367.31 151.86
  Q 357.83 151.73 349.14 151.90
  C 345.01 151.98 340.96 150.80 338.06 147.91
  Q 315.31 125.22 292.41 102.26
  Q 291.16 101.01 289.91 102.25
  Q 287.09 105.07 284.14 108.09
  C 279.55 112.79 282.89 115.68 286.70 119.50
  Q 307.82 140.72 330.31 162.95
  Q 335.14 167.73 341.03 167.92
  Q 351.01 168.26 362.99 168.04
  C 366.08 167.99 368.74 166.92 370.66 164.48"
/>
<path stroke="#bce6f8" vector-effect="non-scaling-stroke" d="
  M 309.2805 153.1339
  A 1.95 1.95 0.0 0 0 307.3339 151.1805
  L 283.8539 151.1395
  A 1.95 1.95 0.0 0 0 281.9005 153.0861
  L 281.8995 153.6461
  A 1.95 1.95 0.0 0 0 283.8461 155.5995
  L 307.3261 155.6405
  A 1.95 1.95 0.0 0 0 309.2795 153.6939
  L 309.2805 153.1339"
/>
<path stroke="#bce6f8" vector-effect="non-scaling-stroke" d="
  M 330.02 168.14
  Q 331.08 168.14 330.41 167.32
  L 328.03 164.39
  A 2.37 2.36 70.3 0 0 326.20 163.52
  L 284.36 163.57
  Q 282.15 163.57 281.91 165.77
  Q 281.87 166.10 281.96 166.42
  Q 282.40 168.09 284.12 168.09
  L 330.02 168.14"
/>
<path stroke="#8ad5ef" vector-effect="non-scaling-stroke" d="
  M 87.55 108.00
  Q 86.96 110.32 86.25 108.03
  L 84.49 102.36
  Q 84.22 101.49 83.32 101.64
  L 82.79 101.73
  Q 82.02 101.87 82.28 102.60
  Q 83.75 106.72 85.06 110.88
  C 85.36 111.85 86.30 112.69 87.36 112.36
  A 1.58 1.57 -88.4 0 0 88.37 111.40
  Q 89.84 107.47 90.85 103.84
  Q 91.08 103.04 91.83 102.78
  A 0.51 0.51 0.0 0 1 92.52 103.26
  L 92.48 111.68
  A 0.67 0.67 0.0 0 0 93.15 112.35
  L 93.58 112.35
  A 0.89 0.88 -0.0 0 0 94.47 111.47
  L 94.56 102.31
  Q 94.56 101.73 93.98 101.69
  Q 93.21 101.65 92.60 102.08
  Q 92.01 102.50 91.43 102.08
  Q 90.50 101.40 89.60 101.93
  Q 89.20 102.17 89.05 102.67
  Q 88.18 105.50 87.55 108.00"
/>
<path stroke="#8ad5ef" vector-effect="non-scaling-stroke" d="
  M 118.58 110.28
  Q 121.60 109.90 122.89 111.99
  Q 123.26 112.58 123.92 112.36
  Q 124.29 112.24 124.43 111.88
  Q 124.55 111.55 124.44 111.21
  Q 123.08 107.31 121.59 102.82
  C 121.15 101.51 119.81 101.24 118.74 101.93
  A 1.33 1.30 -7.1 0 0 118.19 102.62
  L 115.12 111.47
  A 0.76 0.76 0.0 0 0 116.09 112.44
  Q 117.09 112.09 117.55 111.05
  Q 117.85 110.37 118.58 110.28"
/>
<path stroke="#8ad5ef" vector-effect="non-scaling-stroke" d="
  M 127.60 103.90
  Q 128.50 103.16 129.48 103.76
  Q 130.11 104.14 130.74 104.56
  Q 131.23 104.88 131.67 104.50
  Q 132.24 104.00 131.93 103.29
  C 130.63 100.31 124.83 101.20 125.21 104.84
  C 125.44 107.09 127.88 107.60 129.62 108.33
  Q 131.81 109.25 129.71 110.35
  Q 128.26 111.12 126.90 109.34
  A 0.80 0.80 0.0 0 0 125.80 109.17
  Q 125.13 109.64 125.25 110.56
  A 1.42 1.42 0.0 0 0 126.08 111.66
  Q 131.00 113.87 132.63 110.19
  C 133.35 108.56 131.92 106.79 130.32 106.39
  Q 129.16 106.10 128.19 105.56
  Q 127.57 105.21 127.45 104.51
  Q 127.37 104.09 127.60 103.90"
/>
<path stroke="#8ad5ef" vector-effect="non-scaling-stroke" d="
  M 136.39 103.60
  Q 137.65 103.33 138.57 104.38
  A 1.00 1.00 0.0 0 0 140.31 103.84
  Q 140.41 103.05 139.66 102.47
  Q 137.88 101.10 135.73 101.60
  C 133.66 102.07 132.86 104.55 133.98 106.24
  C 134.82 107.52 136.40 107.68 137.74 108.14
  Q 138.62 108.45 138.72 109.36
  A 0.96 0.96 0.0 0 1 137.98 110.41
  Q 136.08 110.85 134.79 109.12
  A 0.60 0.60 0.0 0 0 133.82 109.14
  Q 132.55 111.02 134.74 111.93
  Q 139.21 113.79 140.69 110.25
  A 2.70 2.69 21.8 0 0 139.15 106.68
  L 136.24 105.59
  A 1.04 1.04 0.0 0 1 136.39 103.60"
/>
<path stroke="#8ad5ef" vector-effect="non-scaling-stroke" d="
  M 98.86 108.77
  C 99.55 108.65 100.26 108.87 100.96 108.63
  Q 104.46 107.42 103.44 103.80
  A 2.17 2.16 8.0 0 0 102.50 102.56
  Q 100.31 101.22 96.82 101.83
  Q 96.24 101.93 96.24 102.52
  L 96.25 111.49
  Q 96.25 112.24 97.01 112.26
  L 97.44 112.26
  A 0.77 0.77 0.0 0 0 98.22 111.50
  L 98.27 109.47
  Q 98.28 108.88 98.86 108.77"
/>
<path stroke="#8ad5ef" vector-effect="non-scaling-stroke" d="
  M 111.02 108.74
  Q 115.21 109.11 115.81 105.43
  C 116.45 101.50 111.11 101.44 108.81 101.83
  Q 108.21 101.93 108.21 102.54
  L 108.25 111.56
  A 0.90 0.89 84.7 0 0 109.31 112.44
  L 109.74 112.36
  A 0.57 0.57 0.0 0 0 110.20 111.85
  L 110.39 109.28
  A 0.58 0.58 0.0 0 1 111.02 108.74"
/>
<path stroke="#1b779d" vector-effect="non-scaling-stroke" d="
  M 131.26 136.41
  A 18.08 18.08 0.0 0 0 113.18 118.33
  A 18.08 18.08 0.0 0 0 95.10 136.41
  A 18.08 18.08 0.0 0 0 113.18 154.49
  A 18.08 18.08 0.0 0 0 131.26 136.41"
/>
<path stroke="#7da9c6" vector-effect="non-scaling-stroke" d="
  M 171.67 103.58
  A 0.76 0.76 0.0 0 0 170.91 102.82
  L 155.77 102.82
  A 0.76 0.76 0.0 0 0 155.01 103.58
  L 155.01 104.18
  A 0.76 0.76 0.0 0 0 155.77 104.94
  L 170.91 104.94
  A 0.76 0.76 0.0 0 0 171.67 104.18
  L 171.67 103.58"
/>
<path stroke="#7da9c6" vector-effect="non-scaling-stroke" d="
  M 171.64 109.53
  A 0.61 0.61 0.0 0 0 171.03 108.92
  L 155.65 108.92
  A 0.61 0.61 0.0 0 0 155.04 109.53
  L 155.04 110.29
  A 0.61 0.61 0.0 0 0 155.65 110.90
  L 171.03 110.90
  A 0.61 0.61 0.0 0 0 171.64 110.29
  L 171.64 109.53"
/>
<path stroke="#8ab2cc" vector-effect="non-scaling-stroke" d="
  M 171.52 113.68
  A 0.26 0.26 0.0 0 0 171.26 113.42
  L 155.30 113.42
  A 0.26 0.26 0.0 0 0 155.04 113.68
  L 155.04 116.34
  A 0.26 0.26 0.0 0 0 155.30 116.60
  L 171.26 116.60
  A 0.26 0.26 0.0 0 0 171.52 116.34
  L 171.52 113.68"
/>
<path stroke="#7da9c6" vector-effect="non-scaling-stroke" d="
  M 171.7996 121.9307
  A 0.82 0.82 0.0 0 0 170.9768 121.1136
  L 155.8569 121.1664
  A 0.82 0.82 0.0 0 0 155.0397 121.9893
  L 155.0404 122.1693
  A 0.82 0.82 0.0 0 0 155.8632 122.9864
  L 170.9831 122.9336
  A 0.82 0.82 0.0 0 0 171.8003 122.1107
  L 171.7996 121.9307"
/>
<path stroke="#8ab2cc" vector-effect="non-scaling-stroke" d="
  M 171.66 126.15
  A 0.56 0.56 0.0 0 0 171.10 125.59
  L 155.58 125.59
  A 0.56 0.56 0.0 0 0 155.02 126.15
  L 155.02 128.17
  A 0.56 0.56 0.0 0 0 155.58 128.73
  L 171.10 128.73
  A 0.56 0.56 0.0 0 0 171.66 128.17
  L 171.66 126.15"
/>
<path stroke="#8ab2cc" vector-effect="non-scaling-stroke" d="
  M 171.7521 132.7592
  A 0.81 0.81 0.0 0 0 170.9449 131.9464
  L 155.8450 131.8937
  A 0.81 0.81 0.0 0 0 155.0322 132.7008
  L 155.0279 133.9408
  A 0.81 0.81 0.0 0 0 155.8351 134.7536
  L 170.9350 134.8063
  A 0.81 0.81 0.0 0 0 171.7478 133.9992
  L 171.7521 132.7592"
/>
<path stroke="#8ab2cc" vector-effect="non-scaling-stroke" d="
  M 171.8498 140.0959
  A 0.73 0.73 0.0 0 0 171.1160 139.3697
  L 155.7362 139.4503
  A 0.73 0.73 0.0 0 0 155.0100 140.1841
  L 155.0102 140.2241
  A 0.73 0.73 0.0 0 0 155.7440 140.9503
  L 171.1238 140.8697
  A 0.73 0.73 0.0 0 0 171.8500 140.1359
  L 171.8498 140.0959"
/>
<path stroke="#8ab2cc" vector-effect="non-scaling-stroke" d="
  M 171.8385 145.2906
  A 0.68 0.68 0.0 0 0 171.1561 144.6130
  L 155.6562 144.6671
  A 0.68 0.68 0.0 0 0 154.9786 145.3494
  L 154.9815 146.1894
  A 0.68 0.68 0.0 0 0 155.6639 146.8670
  L 171.1638 146.8129
  A 0.68 0.68 0.0 0 0 171.8414 146.1306
  L 171.8385 145.2906"
/>
<path stroke="#8ab2cc" vector-effect="non-scaling-stroke" d="
  M 171.8900 152.2052
  A 0.71 0.71 0.0 0 0 171.1787 151.4965
  L 155.6587 151.5235
  A 0.71 0.71 0.0 0 0 154.9500 152.2348
  L 154.9500 152.2748
  A 0.71 0.71 0.0 0 0 155.6613 152.9835
  L 171.1813 152.9565
  A 0.71 0.71 0.0 0 0 171.8900 152.2452
  L 171.8900 152.2052"
/>
<path stroke="#8ad5ef" vector-effect="non-scaling-stroke" d="
  M 119.03 108.49
  L 120.59 108.54
  A 0.23 0.23 0.0 0 0 120.83 108.32
  L 120.83 108.14
  A 3.25 0.94 -88.1 0 0 120.00 104.86
  L 119.86 104.86
  A 3.25 0.94 -88.1 0 0 118.81 108.08
  L 118.81 108.26
  A 0.23 0.23 0.0 0 0 119.03 108.49"
/>
<path stroke="#8ad5ef" vector-effect="non-scaling-stroke" d="
  M 101.5175 104.6376
  A 1.10 1.10 0.0 0 0 100.3705 103.5866
  L 99.2316 103.6364
  A 1.10 1.10 0.0 0 0 98.1807 104.7833
  L 98.2225 105.7424
  A 1.10 1.10 0.0 0 0 99.3695 106.7934
  L 100.5084 106.7436
  A 1.10 1.10 0.0 0 0 101.5593 105.5967
  L 101.5175 104.6376"
/>
<path stroke="#8ad5ef" vector-effect="non-scaling-stroke" d="
  M 113.6439 104.7649
  A 1.10 1.10 0.0 0 0 112.5535 103.6554
  L 111.3335 103.6447
  A 1.10 1.10 0.0 0 0 110.2240 104.7351
  L 110.2161 105.6351
  A 1.10 1.10 0.0 0 0 111.3065 106.7446
  L 112.5265 106.7553
  A 1.10 1.10 0.0 0 0 113.6360 105.6649
  L 113.6439 104.7649"
/>
<path stroke="#8d9eaa" vector-effect="non-scaling-stroke" d="
  M 110.01 122.71
  C 108.46 122.33 107.04 121.22 105.42 121.96
  Q 103.30 122.94 101.68 124.78
  Q 101.25 125.28 101.24 125.94
  L 101.17 130.96
  Q 101.16 131.74 101.91 131.96
  L 105.49 133.00
  Q 106.14 133.19 106.68 132.79
  L 111.44 129.31
  Q 112.02 128.88 112.04 128.16
  L 112.12 124.30
  A 1.14 1.13 -76.2 0 0 111.50 123.27
  Q 110.80 122.91 110.01 122.71"
/>
<path stroke="#8d9eaa" vector-effect="non-scaling-stroke" d="
  M 116.43 130.72
  C 117.94 131.49 119.24 133.37 121.06 132.97
  Q 122.76 132.59 124.57 131.88
  Q 124.99 131.72 124.99 131.26
  L 125.03 125.51
  A 1.27 1.25 18.5 0 0 124.52 124.50
  L 121.05 121.95
  A 1.90 1.87 53.0 0 0 119.31 121.69
  L 115.11 123.17
  Q 114.44 123.41 114.27 124.10
  Q 113.02 128.98 116.43 130.72"
/>
<path stroke="#8d9eaa" vector-effect="non-scaling-stroke" d="
  M 107.78 141.60
  C 107.43 139.56 106.50 137.44 105.81 135.53
  A 1.14 1.14 0.0 0 0 105.06 134.83
  L 101.05 133.66
  Q 100.41 133.47 99.99 133.99
  L 97.07 137.66
  A 1.29 1.27 -32.0 0 0 96.82 138.71
  Q 97.28 140.86 98.05 142.78
  C 99.00 145.16 101.85 145.58 104.01 146.19
  Q 104.71 146.39 105.14 145.81
  L 107.55 142.57
  Q 107.87 142.13 107.78 141.60"
/>
<path stroke="#4f697c" vector-effect="non-scaling-stroke" d="
  M 127.46 135.56
  Q 127.03 133.67 125.33 133.72"
/>
<path stroke="#8d9eaa" vector-effect="non-scaling-stroke" d="
  M 125.33 133.72
  L 121.30 134.93
  Q 120.78 135.09 120.62 135.60
  L 118.69 141.43
  Q 118.49 142.03 118.85 142.56
  L 121.10 145.89
  Q 121.53 146.53 122.25 146.27
  L 126.89 144.65
  A 1.42 1.37 -85.1 0 0 127.67 143.97
  Q 129.20 141.05 129.22 138.13
  A 1.26 1.22 -65.5 0 0 128.94 137.34
  L 127.46 135.56"
/>
<path stroke="#bfc8ce" vector-effect="non-scaling-stroke" d="
  M 125.33 133.72
  Q 126.50 135.19 127.46 135.56"
/>
<path stroke="#8d9eaa" vector-effect="non-scaling-stroke" d="
  M 106.66 148.09
  L 109.59 151.95
  Q 109.91 152.37 110.43 152.49
  Q 112.99 153.05 115.82 152.54
  Q 116.42 152.44 116.80 151.95
  L 119.74 148.20
  Q 120.13 147.71 119.76 147.19
  L 117.25 143.70
  Q 116.77 143.03 115.94 143.02
  L 110.30 142.99
  A 1.41 1.40 -72.2 0 0 109.16 143.58
  L 106.65 147.15
  Q 106.31 147.62 106.66 148.09"
/>
<path stroke="#a3b0b9" vector-effect="non-scaling-stroke" d="
  M 106.58 282.06
  L 105.50 282.50"
/>
<path stroke="#eff3f6" vector-effect="non-scaling-stroke" d="
  M 105.50 282.50
  Q 103.58 282.65 101.77 282.25
  Q 98.97 281.63 98.16 281.68
  Q 93.57 281.96 91.76 286.26
  Q 90.58 289.06 91.57 291.30"
/>
<path stroke="#8ad5ef" vector-effect="non-scaling-stroke" d="
  M 91.57 291.30
  Q 91.73 293.23 91.22 295.17"
/>
<path stroke="#a3b0b9" vector-effect="non-scaling-stroke" d="
  M 91.22 295.17
  Q 86.49 302.15 84.54 310.30"
/>
<path stroke="#eff3f6" vector-effect="non-scaling-stroke" d="
  M 84.54 310.30
  Q 76.88 312.66 78.32 319.96"
/>
<path stroke="#e887a2" vector-effect="non-scaling-stroke" d="
  M 78.32 319.96
  L 78.19 326.56
  A 1.81 1.80 2.7 0 0 79.86 328.39
  L 84.63 328.75"
/>
<path stroke="#a3b0b9" vector-effect="non-scaling-stroke" d="
  M 84.63 328.75
  Q 86.40 337.25 91.54 344.27"
/>
<path stroke="#eff3f6" vector-effect="non-scaling-stroke" d="
  M 91.54 344.27
  L 91.62 348.84"
/>
<path stroke="#8ab2cc" vector-effect="non-scaling-stroke" d="
  M 91.62 348.84
  L 91.57 355.83
  Q 91.56 357.54 93.27 357.47
  L 106.01 357.02"
/>
<path stroke="#a3b0b9" vector-effect="non-scaling-stroke" d="
  M 106.01 357.02
  Q 107.45 357.35 109.11 358.62"
/>
<path stroke="#bfc8ce" vector-effect="non-scaling-stroke" d="
  M 109.11 358.62
  Q 105.90 366.70 103.06 375.00
  Q 102.86 375.57 103.03 376.18"
/>
<path stroke="#a3b0b9" vector-effect="non-scaling-stroke" d="
  M 103.03 376.18
  C 102.53 376.44 101.84 376.75 101.25 376.75
  Q 93.75 376.77 86.02 376.77
  Q 84.45 376.77 84.45 378.34
  L 84.45 381.24
  Q 84.45 382.77 85.99 382.77
  L 165.06 382.75
  Q 166.92 382.75 166.93 380.89
  L 166.94 378.58
  Q 166.95 376.79 165.16 376.78
  L 156.73 376.75"
/>
<path stroke="#bfc8ce" vector-effect="non-scaling-stroke" d="
  M 156.73 376.75
  L 150.34 376.53
  A 1.98 1.96 -9.2 0 1 148.57 375.26
  Q 145.58 367.45 142.68 359.52
  Q 142.33 358.54 143.75 357.53"
/>
<path stroke="#a3b0b9" vector-effect="non-scaling-stroke" d="
  M 143.75 357.53
  L 144.97 357.19"
/>
<path stroke="#8ad5ef" vector-effect="non-scaling-stroke" d="
  M 144.97 357.19
  L 158.08 357.47
  A 1.73 1.72 0.7 0 0 159.85 355.75
  L 159.88 349.08"
/>
<path stroke="#eff3f6" vector-effect="non-scaling-stroke" d="
  M 159.88 349.08
  Q 160.34 346.77 159.86 344.17"
/>
<path stroke="#a3b0b9" vector-effect="non-scaling-stroke" d="
  M 159.86 344.17
  Q 164.55 337.31 166.49 329.22"
/>
<path stroke="#e887a2" vector-effect="non-scaling-stroke" d="
  M 166.49 329.22
  Q 166.18 328.74 167.78 328.60
  Q 169.68 328.43 171.32 328.36
  A 1.77 1.77 0.0 0 0 173.02 326.58
  L 172.99 319.99"
/>
<path stroke="#eff3f6" vector-effect="non-scaling-stroke" d="
  M 172.99 319.99
  Q 174.03 314.54 170.19 311.81
  Q 168.33 310.48 167.64 309.56
  Q 167.41 309.25 167.06 309.09
  Q 166.21 308.69 166.51 307.66
  A 1.69 1.64 46.4 0 0 166.52 306.73
  Q 165.31 302.35 162.56 299.14"
/>
<path stroke="#a3b0b9" vector-effect="non-scaling-stroke" d="
  M 162.56 299.14
  L 160.26 295.73"
/>
<path stroke="#8ab2cc" vector-effect="non-scaling-stroke" d="
  M 160.26 295.73
  L 159.91 291.22"
/>
<path stroke="#eff3f6" vector-effect="non-scaling-stroke" d="
  M 159.91 291.22
  C 160.89 285.81 157.01 280.59 151.26 281.70
  Q 151.18 281.71 149.70 282.36
  Q 147.61 283.26 143.48 281.02"
/>
<path stroke="#a3b0b9" vector-effect="non-scaling-stroke" d="
  M 143.48 281.02
  Q 143.65 281.30 143.81 281.58"
/>
<path stroke="#eff3f6" vector-effect="non-scaling-stroke" d="
  M 143.81 281.58
  Q 143.77 280.67 143.01 280.33
  Q 138.62 278.33 133.81 277.03
  Q 133.32 276.90 133.05 276.49
  C 132.56 275.74 132.51 274.70 132.04 273.89
  C 128.59 267.91 120.30 269.33 118.51 276.01
  A 1.93 1.92 -88.2 0 1 117.05 277.39
  Q 111.49 278.59 106.49 281.29
  Q 106.27 281.41 106.58 282.06"
/>
<path stroke="#96a7b2" vector-effect="non-scaling-stroke" d="
  M 143.81 281.58
  Q 138.92 279.43 134.02 278.33
  Q 133.32 278.17 133.02 278.44
  Q 132.61 278.80 132.76 279.66"
/>
<path stroke="#db7e9c" vector-effect="non-scaling-stroke" d="
  M 132.76 279.66
  L 118.46 279.62"
/>
<path stroke="#96a7b2" vector-effect="non-scaling-stroke" d="
  M 118.46 279.62
  Q 118.80 278.96 118.63 278.56
  Q 118.41 278.06 117.89 278.17
  Q 111.99 279.42 106.58 282.06"
/>
<path stroke="#e887a2" vector-effect="non-scaling-stroke" d="
  M 133.01 281.79
  C 132.56 285.17 134.27 289.03 128.34 288.10"
/>
<path stroke="#ab5374" vector-effect="non-scaling-stroke" d="
  M 128.34 288.10
  L 123.65 288.27"
/>
<path stroke="#e887a2" vector-effect="non-scaling-stroke" d="
  M 123.65 288.27
  L 120.63 288.27
  A 1.83 1.82 -2.6 0 1 118.81 286.61
  L 118.36 281.62"
/>
<path stroke="#96a7b2" vector-effect="non-scaling-stroke" d="
  M 143.48 281.02
  L 146.91 283.48
  Q 147.36 283.80 147.08 284.27
  L 145.67 286.70"
/>
<path stroke="#a3b0b9" vector-effect="non-scaling-stroke" d="
  M 145.67 286.70
  Q 139.93 283.18 133.01 281.79"
/>
<path stroke="#8f3b5f" vector-effect="non-scaling-stroke" d="
  M 133.01 281.79
  L 132.76 279.66"
/>
<path stroke="#8f3b5f" vector-effect="non-scaling-stroke" d="
  M 118.46 279.62
  Q 118.22 280.51 118.36 281.62"
/>
<path stroke="#a3b0b9" vector-effect="non-scaling-stroke" d="
  M 118.36 281.62
  Q 112.00 283.22 106.69 285.97"
/>
<path stroke="#96a7b2" vector-effect="non-scaling-stroke" d="
  M 106.69 285.97
  Q 105.46 286.57 104.88 285.52
  Q 104.53 284.87 104.19 284.16
  Q 103.97 283.69 104.33 283.32
  Q 104.79 282.85 105.50 282.50"
/>
<path stroke="#bfc8ce" vector-effect="non-scaling-stroke" d="
  M 123.65 288.27
  Q 124.14 298.15 123.62 304.62
  Q 123.57 305.25 122.28 305.75"
/>
<path stroke="#a3b0b9" vector-effect="non-scaling-stroke" d="
  M 122.28 305.75
  Q 119.95 306.28 118.37 307.43"
/>
<path stroke="#bfc8ce" vector-effect="non-scaling-stroke" d="
  M 118.37 307.43
  Q 117.11 308.07 116.25 307.28
  Q 111.72 303.13 105.74 296.76"
/>
<path stroke="#8ad5ef" vector-effect="non-scaling-stroke" d="
  M 105.74 296.76
  L 105.70 291.29"
/>
<path stroke="#eff3f6" vector-effect="non-scaling-stroke" d="
  M 105.70 291.29
  Q 106.00 289.93 105.94 288.61
  C 105.89 287.50 106.24 286.90 106.69 285.97"
/>
<path stroke="#667b8b" vector-effect="non-scaling-stroke" d="
  M 128.38 305.77
  Q 127.58 305.67 125.91 305.52
  C 124.61 305.41 123.65 305.97 122.28 305.75"
/>
<path stroke="#bfc8ce" vector-effect="non-scaling-stroke" d="
  M 144.87 297.66
  L 134.39 308.20"
/>
<path stroke="#a3b0b9" vector-effect="non-scaling-stroke" d="
  M 134.39 308.20
  Q 131.98 306.34 128.38 305.77"
/>
<path stroke="#bfc8ce" vector-effect="non-scaling-stroke" d="
  M 128.38 305.77
  Q 126.41 297.03 128.34 288.10"
/>
<path stroke="#7da9c6" vector-effect="non-scaling-stroke" d="
  M 159.91 291.22
  L 146.41 291.30
  A 0.66 0.66 0.0 0 0 145.75 291.94
  L 145.58 297.27"
/>
<path stroke="#b2bfc8" vector-effect="non-scaling-stroke" d="
  M 145.58 297.27
  Q 145.01 297.67 144.87 297.66"
/>
<path stroke="#eff3f6" vector-effect="non-scaling-stroke" d="
  M 144.87 297.66
  L 145.67 286.70"
/>
<path stroke="#7dcce8" vector-effect="non-scaling-stroke" d="
  M 105.70 291.29
  L 91.57 291.30"
/>
<path stroke="#4da1c1" vector-effect="non-scaling-stroke" d="
  M 105.74 296.76
  Q 106.25 299.54 103.36 300.01"
/>
<path stroke="#8ad5ef" vector-effect="non-scaling-stroke" d="
  M 103.36 300.01
  L 92.91 299.84"
/>
<path stroke="#3189ab" vector-effect="non-scaling-stroke" d="
  M 92.91 299.84
  Q 91.26 299.83 91.22 295.17"
/>
<path stroke="#667b8b" vector-effect="non-scaling-stroke" d="
  M 118.37 307.43
  Q 115.07 309.84 114.22 311.77"
/>
<path stroke="#bfc8ce" vector-effect="non-scaling-stroke" d="
  M 114.22 311.77
  Q 110.34 305.76 103.36 300.01"
/>
<path stroke="#667b8b" vector-effect="non-scaling-stroke" d="
  M 139.05 315.02
  Q 138.63 316.94 139.70 319.06
  A 1.34 1.33 48.4 0 1 139.62 320.43
  Q 138.90 321.49 138.80 322.77
  Q 138.68 324.26 138.00 325.61
  Q 136.23 329.09 133.56 331.38"
/>
<path stroke="#a3b0b9" vector-effect="non-scaling-stroke" d="
  M 133.56 331.38
  L 133.09 332.06"
/>
<path stroke="#667b8b" vector-effect="non-scaling-stroke" d="
  M 133.09 332.06
  Q 133.23 331.59 132.87 331.43
  A 0.31 0.30 -51.4 0 0 132.55 331.47
  L 131.13 332.62
  Q 130.67 332.99 130.07 332.98
  Q 128.53 332.94 127.02 333.40
  Q 125.88 333.75 124.32 333.51
  Q 121.11 333.02 118.78 331.95"
/>
<path stroke="#a3b0b9" vector-effect="non-scaling-stroke" d="
  M 118.78 331.95
  L 117.54 330.97"
/>
<path stroke="#667b8b" vector-effect="non-scaling-stroke" d="
  M 117.54 330.97
  Q 115.93 330.17 114.04 327.55"
/>
<path stroke="#a3b0b9" vector-effect="non-scaling-stroke" d="
  M 114.04 327.55
  Q 111.98 325.06 111.49 321.27"
/>
<path stroke="#667b8b" vector-effect="non-scaling-stroke" d="
  M 111.49 321.27
  L 112.14 315.44"
/>
<path stroke="#bfc8ce" vector-effect="non-scaling-stroke" d="
  M 148.40 299.75
  Q 141.96 305.12 137.19 311.40"
/>
<path stroke="#667b8b" vector-effect="non-scaling-stroke" d="
  M 137.19 311.40
  L 134.39 308.20"
/>
<path stroke="#316689" vector-effect="non-scaling-stroke" d="
  M 160.26 295.73
  Q 159.90 298.72 158.72 299.87"
/>
<path stroke="#8ab2cc" vector-effect="non-scaling-stroke" d="
  M 158.72 299.87
  L 148.40 299.75"
/>
<path stroke="#4d7e9e" vector-effect="non-scaling-stroke" d="
  M 148.40 299.75
  Q 145.90 299.77 145.58 297.27"
/>
<path stroke="#a3b0b9" vector-effect="non-scaling-stroke" d="
  M 92.91 299.84
  Q 89.49 304.16 88.36 310.40"
/>
<path stroke="#96a7b2" vector-effect="non-scaling-stroke" d="
  M 88.36 310.40
  Q 87.21 310.95 84.54 310.30"
/>
<path stroke="#a3b0b9" vector-effect="non-scaling-stroke" d="
  M 114.22 311.77
  Q 112.06 313.56 112.14 315.44"
/>
<path stroke="#bfc8ce" vector-effect="non-scaling-stroke" d="
  M 112.14 315.44
  L 111.09 317.22
  Q 110.83 317.67 110.30 317.68
  L 93.54 317.89"
/>
<path stroke="#eff3f6" vector-effect="non-scaling-stroke" d="
  M 93.54 317.89
  L 88.36 310.40"
/>
<path stroke="#bfc8ce" vector-effect="non-scaling-stroke" d="
  M 111.49 321.27
  L 92.87 321.19"
/>
<path stroke="#ab5374" vector-effect="non-scaling-stroke" d="
  M 92.87 321.19
  Q 93.43 321.30 92.31 320.03"
/>
<path stroke="#bfc8ce" vector-effect="non-scaling-stroke" d="
  M 117.54 330.97
  Q 111.23 336.08 105.27 342.82"
/>
<path stroke="#b2bfc8" vector-effect="non-scaling-stroke" d="
  M 105.27 342.82
  Q 103.31 341.94 102.55 340.32"
/>
<path stroke="#bfc8ce" vector-effect="non-scaling-stroke" d="
  M 114.04 327.55
  Q 114.11 328.69 113.80 329.00
  Q 108.28 334.47 102.55 340.32"
/>
<path stroke="#eff3f6" vector-effect="non-scaling-stroke" d="
  M 102.55 340.32
  Q 98.75 339.01 97.25 339.56
  Q 95.61 340.16 93.73 341.03"
/>
<path stroke="#a3b0b9" vector-effect="non-scaling-stroke" d="
  M 93.73 341.03
  Q 89.98 335.60 88.21 328.83"
/>
<path stroke="#ab5374" vector-effect="non-scaling-stroke" d="
  M 162.79 319.95
  Q 157.96 319.70 158.78 321.30"
/>
<path stroke="#bfc8ce" vector-effect="non-scaling-stroke" d="
  M 158.78 321.30
  L 140.94 321.34
  A 0.87 0.86 -78.9 0 0 140.14 321.88
  L 137.77 327.66
  A 1.52 1.50 34.1 0 0 138.09 329.28
  L 148.55 339.95"
/>
<path stroke="#b2bfc8" vector-effect="non-scaling-stroke" d="
  M 148.55 339.95
  Q 148.29 342.07 146.07 342.66"
/>
<path stroke="#bfc8ce" vector-effect="non-scaling-stroke" d="
  M 146.07 342.66
  Q 140.89 336.83 135.36 331.89
  Q 134.59 331.20 133.56 331.38"
/>
<path stroke="#bfc8ce" vector-effect="non-scaling-stroke" d="
  M 140.22 317.56
  L 139.05 315.02"
/>
<path stroke="#a3b0b9" vector-effect="non-scaling-stroke" d="
  M 139.05 315.02
  Q 138.84 313.40 137.19 311.40"
/>
<path stroke="#bfc8ce" vector-effect="non-scaling-stroke" d="
  M 133.09 332.06
  Q 132.92 333.20 133.68 335.29
  Q 136.98 344.31 140.40 353.30
  Q 140.87 354.53 142.45 354.38"
/>
<path stroke="#667b8b" vector-effect="non-scaling-stroke" d="
  M 142.45 354.38
  Q 139.94 356.03 137.26 356.66
  Q 136.85 356.76 136.53 356.48"
/>
<path stroke="#bfc8ce" vector-effect="non-scaling-stroke" d="
  M 136.53 356.48
  Q 137.30 355.74 136.64 353.87
  Q 133.12 343.86 129.28 334.36
  A 0.67 0.67 0.0 0 0 128.25 334.08
  Q 127.93 334.32 127.90 334.76
  Q 127.38 342.71 127.65 350.73"
/>
<path stroke="#b2bfc8" vector-effect="non-scaling-stroke" d="
  M 127.65 350.73
  Q 125.05 351.58 123.88 350.62"
/>
<path stroke="#bfc8ce" vector-effect="non-scaling-stroke" d="
  M 123.88 350.62
  L 123.79 334.57
  A 0.72 0.72 0.0 0 0 122.40 334.31
  L 113.76 356.06"
/>
<path stroke="#667b8b" vector-effect="non-scaling-stroke" d="
  M 113.76 356.06
  L 110.40 354.86"
/>
<path stroke="#bfc8ce" vector-effect="non-scaling-stroke" d="
  M 118.78 331.95
  L 110.40 354.86"
/>
<path stroke="#a3b0b9" vector-effect="non-scaling-stroke" d="
  M 110.40 354.86
  L 106.11 352.93"
/>
<path stroke="#8ab2cc" vector-effect="non-scaling-stroke" d="
  M 106.11 352.93
  L 105.46 348.78"
/>
<path stroke="#eff3f6" vector-effect="non-scaling-stroke" d="
  M 105.46 348.78
  L 105.27 342.82"
/>
<path stroke="#eff3f6" vector-effect="non-scaling-stroke" d="
  M 146.07 342.66
  Q 145.76 345.07 145.43 347.75
  Q 145.27 349.02 145.63 350.21"
/>
<path stroke="#8ad5ef" vector-effect="non-scaling-stroke" d="
  M 145.63 350.21
  L 145.41 352.34"
/>
<path stroke="#a3b0b9" vector-effect="non-scaling-stroke" d="
  M 145.41 352.34
  L 142.45 354.38"
/>
<path stroke="#96a7b2" vector-effect="non-scaling-stroke" d="
  M 162.56 299.14
  L 166.48 309.75
  Q 166.71 310.38 166.04 310.44
  L 163.83 310.62
  Q 163.14 310.68 162.92 310.03
  L 162.32 308.27"
/>
<path stroke="#a3b0b9" vector-effect="non-scaling-stroke" d="
  M 162.32 308.27
  L 158.72 299.87"
/>
<path stroke="#b2bfc8" vector-effect="non-scaling-stroke" d="
  M 93.54 317.89
  Q 92.41 318.20 92.31 320.03"
/>
<path stroke="#db7e9c" vector-effect="non-scaling-stroke" d="
  M 92.31 320.03
  L 78.32 319.96"
/>
<path stroke="#e887a2" vector-effect="non-scaling-stroke" d="
  M 92.87 321.19
  Q 92.17 323.32 92.35 326.46
  A 1.86 1.85 -89.6 0 1 90.38 328.41
  Q 88.82 328.31 88.21 328.83"
/>
<path stroke="#8f3b5f" vector-effect="non-scaling-stroke" d="
  M 88.21 328.83
  Q 86.47 328.00 84.63 328.75"
/>
<path stroke="#7da9c6" vector-effect="non-scaling-stroke" d="
  M 105.46 348.78
  L 91.62 348.84"
/>
<path stroke="#96a7b2" vector-effect="non-scaling-stroke" d="
  M 93.73 341.03
  L 91.54 344.27"
/>
<path stroke="#8f3b5f" vector-effect="non-scaling-stroke" d="
  M 166.49 329.22
  Q 165.85 327.81 162.92 328.74"
/>
<path stroke="#e887a2" vector-effect="non-scaling-stroke" d="
  M 162.92 328.74
  Q 161.93 328.30 160.79 328.39
  A 1.83 1.83 0.0 0 1 158.83 326.59
  L 158.78 321.30"
/>
<path stroke="#a3b0b9" vector-effect="non-scaling-stroke" d="
  M 162.92 328.74
  Q 161.38 334.94 157.97 340.34"
/>
<path stroke="#eff3f6" vector-effect="non-scaling-stroke" d="
  M 157.97 340.34
  C 156.09 340.06 154.52 339.44 152.65 339.53
  Q 150.56 339.64 148.55 339.95"
/>
<path stroke="#db7e9c" vector-effect="non-scaling-stroke" d="
  M 172.99 319.99
  L 162.79 319.95"
/>
<path stroke="#b2bfc8" vector-effect="non-scaling-stroke" d="
  M 162.79 319.95
  L 159.33 319.76
  Q 158.84 319.73 158.88 319.24
  Q 158.99 317.74 157.76 317.75
  Q 149.06 317.84 140.22 317.56"
/>
<path stroke="#eff3f6" vector-effect="non-scaling-stroke" d="
  M 140.22 317.56
  L 157.25 317.70
  A 1.50 1.50 0.0 0 0 158.69 316.63
  Q 159.61 313.54 162.13 311.22
  A 1.15 1.14 66.6 0 0 162.50 310.27
  L 162.32 308.27"
/>
<path stroke="#7dcce8" vector-effect="non-scaling-stroke" d="
  M 159.88 349.08
  L 146.32 349.22
  Q 145.77 349.23 145.64 349.76
  Q 145.59 349.96 145.63 350.21"
/>
<path stroke="#eff3f6" vector-effect="non-scaling-stroke" d="
  M 123.88 350.62
  Q 119.72 353.05 117.98 357.26"
/>
<path stroke="#a3b0b9" vector-effect="non-scaling-stroke" d="
  M 117.98 357.26
  Q 115.63 357.13 113.76 356.06"
/>
<path stroke="#a3b0b9" vector-effect="non-scaling-stroke" d="
  M 136.53 356.48
  Q 135.37 356.56 135.59 356.83"
/>
<path stroke="#eff3f6" vector-effect="non-scaling-stroke" d="
  M 135.59 356.83
  L 133.87 356.78
  Q 133.35 356.76 133.11 356.31
  Q 131.20 352.72 127.65 350.73"
/>
<path stroke="#667b8b" vector-effect="non-scaling-stroke" d="
  M 143.75 357.53
  L 137.48 359.71
  Q 137.14 359.82 137.45 359.99
  Q 137.81 360.19 138.53 360.04"
/>
<path stroke="#a3b0b9" vector-effect="non-scaling-stroke" d="
  M 138.53 360.04
  L 132.99 361.39"
/>
<path stroke="#8f3b5f" vector-effect="non-scaling-stroke" d="
  M 132.99 361.39
  Q 133.04 361.10 132.90 360.45"
/>
<path stroke="#8f3b5f" vector-effect="non-scaling-stroke" d="
  M 118.64 360.49
  Q 118.64 360.86 118.34 361.17"
/>
<path stroke="#a3b0b9" vector-effect="non-scaling-stroke" d="
  M 118.34 361.17
  L 112.45 359.74"
/>
<path stroke="#667b8b" vector-effect="non-scaling-stroke" d="
  M 112.45 359.74
  Q 110.78 358.67 109.11 358.62"
/>
<path stroke="#96a7b2" vector-effect="non-scaling-stroke" d="
  M 135.59 356.83
  Q 132.15 356.90 132.90 360.45"
/>
<path stroke="#db7e9c" vector-effect="non-scaling-stroke" d="
  M 132.90 360.45
  L 118.64 360.49"
/>
<path stroke="#96a7b2" vector-effect="non-scaling-stroke" d="
  M 118.64 360.49
  Q 118.67 358.16 117.98 357.26"
/>
<path stroke="#316689" vector-effect="non-scaling-stroke" d="
  M 106.11 352.93
  Q 105.45 354.96 106.01 357.02"
/>
<path stroke="#3189ab" vector-effect="non-scaling-stroke" d="
  M 144.97 357.19
  Q 146.13 355.40 145.41 352.34"
/>
<path stroke="#96a7b2" vector-effect="non-scaling-stroke" d="
  M 159.86 344.17
  Q 157.98 342.75 157.97 340.34"
/>
<path stroke="#667b8b" vector-effect="non-scaling-stroke" d="
  M 156.73 376.75
  Q 154.23 376.69 152.00 377.20
  Q 149.86 377.70 144.71 376.73"
/>
<path stroke="#bfc8ce" vector-effect="non-scaling-stroke" d="
  M 144.71 376.73
  L 139.37 361.15
  Q 139.24 360.75 138.94 360.45
  L 138.53 360.04"
/>
<path stroke="#e887a2" vector-effect="non-scaling-stroke" d="
  M 118.34 361.17
  Q 118.64 363.58 118.46 366.00
  Q 118.23 369.13 121.24 369.10
  Q 126.09 369.05 130.79 369.05
  A 2.03 2.03 0.0 0 0 132.82 367.08
  L 132.99 361.39"
/>
<path stroke="#a3b0b9" vector-effect="non-scaling-stroke" d="
  M 144.71 376.73
  L 106.10 376.74"
/>
<path stroke="#bfc8ce" vector-effect="non-scaling-stroke" d="
  M 112.45 359.74
  L 106.10 376.74"
/>
<path stroke="#667b8b" vector-effect="non-scaling-stroke" d="
  M 106.10 376.74
  L 103.03 376.18"
/>
<path stroke="#96a7b2" vector-effect="non-scaling-stroke" d="
  M 133.02 319.51
  A 7.19 7.19 0.0 0 0 125.83 312.32
  A 7.19 7.19 0.0 0 0 118.64 319.51
  A 7.19 7.19 0.0 0 0 125.83 326.70
  A 7.19 7.19 0.0 0 0 133.02 319.51"
/>
</g>
<path fill="#e2eaef" d="
  M 414.09 452.00
  L 37.92 452.00
  A 36.92 36.92 0.0 0 1 1.00 415.08
  L 1.02 38.94
  A 36.92 36.92 0.0 0 1 37.94 2.02
  L 414.08 2.00
  A 36.92 36.92 0.0 0 1 451.00 38.92
  L 451.01 415.08
  A 36.92 36.92 0.0 0 1 414.09 452.00
  Z
  M 206.2162 86.4831
  A 36.30 36.30 0.0 0 0 169.8529 50.2465
  L 85.4731 50.3938
  A 36.30 36.30 0.0 0 0 49.2365 86.7571
  L 49.3838 171.1369
  A 36.30 36.30 0.0 0 0 85.7471 207.3735
  L 170.1269 207.2262
  A 36.30 36.30 0.0 0 0 206.3635 170.8629
  L 206.2162 86.4831
  Z
  M 402.6317 86.5883
  A 36.40 36.40 0.0 0 0 366.1682 50.2519
  L 287.9683 50.3884
  A 36.40 36.40 0.0 0 0 251.6319 86.8518
  L 251.7683 165.0317
  A 36.40 36.40 0.0 0 0 288.2318 201.3681
  L 366.4317 201.2316
  A 36.40 36.40 0.0 0 0 402.7681 164.7682
  L 402.6317 86.5883
  Z
  M 163.92 403.68
  A 36.36 36.36 0.0 0 0 200.27 367.34
  L 200.30 289.08
  A 36.36 36.36 0.0 0 0 163.93 252.70
  L 85.68 252.73
  A 36.36 36.36 0.0 0 0 49.33 289.10
  L 49.36 367.36
  A 36.36 36.36 0.0 0 0 85.73 403.71
  L 163.92 403.68
  Z
  M 306.03 325.13
  A 4.53 4.53 0.0 0 0 301.50 320.60
  A 4.53 4.53 0.0 0 0 296.97 325.13
  A 4.53 4.53 0.0 0 0 301.50 329.66
  A 4.53 4.53 0.0 0 0 306.03 325.13
  Z
  M 339.23 325.13
  A 4.52 4.52 0.0 0 0 334.71 320.61
  A 4.52 4.52 0.0 0 0 330.19 325.13
  A 4.52 4.52 0.0 0 0 334.71 329.65
  A 4.52 4.52 0.0 0 0 339.23 325.13
  Z
  M 322.63 325.15
  A 4.53 4.53 0.0 0 0 318.10 320.62
  A 4.53 4.53 0.0 0 0 313.57 325.15
  A 4.53 4.53 0.0 0 0 318.10 329.68
  A 4.53 4.53 0.0 0 0 322.63 325.15
  Z"
/>
<path fill="#fcfcfc" d="
  M 206.3635 170.8629
  A 36.30 36.30 0.0 0 1 170.1269 207.2262
  L 85.7471 207.3735
  A 36.30 36.30 0.0 0 1 49.3838 171.1369
  L 49.2365 86.7571
  A 36.30 36.30 0.0 0 1 85.4731 50.3938
  L 169.8529 50.2465
  A 36.30 36.30 0.0 0 1 206.2162 86.4831
  L 206.3635 170.8629
  Z
  M 70.52 160.69
  Q 70.45 163.22 72.40 164.54
  Q 75.38 168.01 78.75 168.02
  Q 113.59 168.17 148.96 168.10
  Q 160.93 168.17 173.35 168.06
  Q 176.76 168.03 179.00 167.35
  C 183.68 165.91 185.25 161.41 185.27 156.58
  Q 185.33 144.02 185.00 133.02
  A 1.24 1.22 5.1 0 0 184.02 131.86
  Q 181.43 131.33 180.17 129.13
  C 177.88 125.13 179.92 121.28 184.19 119.76
  Q 184.81 119.54 184.84 118.89
  Q 185.60 103.76 185.10 96.30
  Q 184.45 86.57 174.49 86.54
  Q 161.44 86.50 148.96 86.54
  Q 114.06 86.54 79.75 86.61
  C 73.24 86.62 70.37 91.45 70.42 97.58
  Q 70.50 108.09 70.50 118.89
  Q 70.50 119.56 71.14 119.74
  Q 72.21 120.04 73.20 120.52
  C 78.56 123.13 77.06 130.97 71.21 131.73
  A 0.80 0.79 86.3 0 0 70.52 132.52
  L 70.52 160.69
  Z"
/>
<path fill="#fcfcfc" d="
  M 402.7681 164.7682
  A 36.40 36.40 0.0 0 1 366.4317 201.2316
  L 288.2318 201.3681
  A 36.40 36.40 0.0 0 1 251.7683 165.0317
  L 251.6319 86.8518
  A 36.40 36.40 0.0 0 1 287.9683 50.3884
  L 366.1682 50.2519
  A 36.40 36.40 0.0 0 1 402.6317 86.5883
  L 402.7681 164.7682
  Z
  M 314.06 84.43
  Q 309.52 82.16 305.91 85.70
  Q 300.16 91.34 294.31 97.32
  A 1.00 0.99 44.8 0 0 294.32 98.72
  L 315.25 119.74
  Q 316.06 120.56 316.13 119.40
  Q 316.91 106.77 317.96 92.53
  C 318.23 88.94 317.35 86.07 314.06 84.43
  Z
  M 341.36 129.09
  A 2.12 1.83 58.3 0 1 341.71 126.94
  L 347.65 121.03
  Q 348.50 120.18 348.09 119.06
  L 345.26 111.25
  Q 344.84 110.09 343.97 110.96
  L 335.38 119.53
  A 1.49 1.48 32.3 0 1 333.84 119.87
  Q 333.05 119.59 332.82 119.12
  Q 332.31 118.12 333.10 117.32
  L 343.07 107.29
  A 1.40 1.40 0.0 0 0 343.43 105.92
  C 342.13 101.11 340.04 94.70 333.48 95.85
  C 329.81 96.49 328.89 98.53 326.94 101.19
  Q 325.36 103.35 321.82 102.74
  Q 320.62 102.53 320.54 103.74
  L 319.32 122.05
  A 3.28 3.28 0.0 0 0 320.25 124.57
  Q 331.27 135.82 340.63 144.92
  Q 343.53 147.73 347.39 147.77
  Q 355.36 147.83 364.22 147.79
  Q 364.88 147.78 364.44 147.28
  Q 355.69 137.23 350.13 124.42
  A 0.68 0.68 0.0 0 0 349.02 124.21
  L 343.82 129.33
  A 0.91 0.90 18.9 0 1 343.32 129.57
  Q 341.64 129.82 341.36 129.09
  Z
  M 370.66 164.48
  A 7.86 7.85 -18.8 0 0 372.09 161.58
  C 373.08 157.61 373.13 151.95 367.31 151.86
  Q 357.83 151.73 349.14 151.90
  C 345.01 151.98 340.96 150.80 338.06 147.91
  Q 315.31 125.22 292.41 102.26
  Q 291.16 101.01 289.91 102.25
  Q 287.09 105.07 284.14 108.09
  C 279.55 112.79 282.89 115.68 286.70 119.50
  Q 307.82 140.72 330.31 162.95
  Q 335.14 167.73 341.03 167.92
  Q 351.01 168.26 362.99 168.04
  C 366.08 167.99 368.74 166.92 370.66 164.48
  Z
  M 309.2805 153.1339
  A 1.95 1.95 0.0 0 0 307.3339 151.1805
  L 283.8539 151.1395
  A 1.95 1.95 0.0 0 0 281.9005 153.0861
  L 281.8995 153.6461
  A 1.95 1.95 0.0 0 0 283.8461 155.5995
  L 307.3261 155.6405
  A 1.95 1.95 0.0 0 0 309.2795 153.6939
  L 309.2805 153.1339
  Z
  M 330.02 168.14
  Q 331.08 168.14 330.41 167.32
  L 328.03 164.39
  A 2.37 2.36 70.3 0 0 326.20 163.52
  L 284.36 163.57
  Q 282.15 163.57 281.91 165.77
  Q 281.87 166.10 281.96 166.42
  Q 282.40 168.09 284.12 168.09
  L 330.02 168.14
  Z"
/>
<path fill="#d41248" d="
  M 314.06 84.43
  C 317.35 86.07 318.23 88.94 317.96 92.53
  Q 316.91 106.77 316.13 119.40
  Q 316.06 120.56 315.25 119.74
  L 294.32 98.72
  A 1.00 0.99 44.8 0 1 294.31 97.32
  Q 300.16 91.34 305.91 85.70
  Q 309.52 82.16 314.06 84.43
  Z"
/>
<path fill="#18aee1" d="
  M 148.96 86.54
  L 148.96 168.10
  Q 113.59 168.17 78.75 168.02
  Q 75.38 168.01 72.40 164.54
  Q 71.82 161.95 70.52 160.69
  L 70.52 132.52
  A 0.80 0.79 86.3 0 1 71.21 131.73
  C 77.06 130.97 78.56 123.13 73.20 120.52
  Q 72.21 120.04 71.14 119.74
  Q 70.50 119.56 70.50 118.89
  Q 70.50 108.09 70.42 97.58
  C 70.37 91.45 73.24 86.62 79.75 86.61
  Q 114.06 86.54 148.96 86.54
  Z
  M 87.55 108.00
  Q 86.96 110.32 86.25 108.03
  L 84.49 102.36
  Q 84.22 101.49 83.32 101.64
  L 82.79 101.73
  Q 82.02 101.87 82.28 102.60
  Q 83.75 106.72 85.06 110.88
  C 85.36 111.85 86.30 112.69 87.36 112.36
  A 1.58 1.57 -88.4 0 0 88.37 111.40
  Q 89.84 107.47 90.85 103.84
  Q 91.08 103.04 91.83 102.78
  A 0.51 0.51 0.0 0 1 92.52 103.26
  L 92.48 111.68
  A 0.67 0.67 0.0 0 0 93.15 112.35
  L 93.58 112.35
  A 0.89 0.88 -0.0 0 0 94.47 111.47
  L 94.56 102.31
  Q 94.56 101.73 93.98 101.69
  Q 93.21 101.65 92.60 102.08
  Q 92.01 102.50 91.43 102.08
  Q 90.50 101.40 89.60 101.93
  Q 89.20 102.17 89.05 102.67
  Q 88.18 105.50 87.55 108.00
  Z
  M 118.58 110.28
  Q 121.60 109.90 122.89 111.99
  Q 123.26 112.58 123.92 112.36
  Q 124.29 112.24 124.43 111.88
  Q 124.55 111.55 124.44 111.21
  Q 123.08 107.31 121.59 102.82
  C 121.15 101.51 119.81 101.24 118.74 101.93
  A 1.33 1.30 -7.1 0 0 118.19 102.62
  L 115.12 111.47
  A 0.76 0.76 0.0 0 0 116.09 112.44
  Q 117.09 112.09 117.55 111.05
  Q 117.85 110.37 118.58 110.28
  Z
  M 127.60 103.90
  Q 128.50 103.16 129.48 103.76
  Q 130.11 104.14 130.74 104.56
  Q 131.23 104.88 131.67 104.50
  Q 132.24 104.00 131.93 103.29
  C 130.63 100.31 124.83 101.20 125.21 104.84
  C 125.44 107.09 127.88 107.60 129.62 108.33
  Q 131.81 109.25 129.71 110.35
  Q 128.26 111.12 126.90 109.34
  A 0.80 0.80 0.0 0 0 125.80 109.17
  Q 125.13 109.64 125.25 110.56
  A 1.42 1.42 0.0 0 0 126.08 111.66
  Q 131.00 113.87 132.63 110.19
  C 133.35 108.56 131.92 106.79 130.32 106.39
  Q 129.16 106.10 128.19 105.56
  Q 127.57 105.21 127.45 104.51
  Q 127.37 104.09 127.60 103.90
  Z
  M 136.39 103.60
  Q 137.65 103.33 138.57 104.38
  A 1.00 1.00 0.0 0 0 140.31 103.84
  Q 140.41 103.05 139.66 102.47
  Q 137.88 101.10 135.73 101.60
  C 133.66 102.07 132.86 104.55 133.98 106.24
  C 134.82 107.52 136.40 107.68 137.74 108.14
  Q 138.62 108.45 138.72 109.36
  A 0.96 0.96 0.0 0 1 137.98 110.41
  Q 136.08 110.85 134.79 109.12
  A 0.60 0.60 0.0 0 0 133.82 109.14
  Q 132.55 111.02 134.74 111.93
  Q 139.21 113.79 140.69 110.25
  A 2.70 2.69 21.8 0 0 139.15 106.68
  L 136.24 105.59
  A 1.04 1.04 0.0 0 1 136.39 103.60
  Z
  M 98.86 108.77
  C 99.55 108.65 100.26 108.87 100.96 108.63
  Q 104.46 107.42 103.44 103.80
  A 2.17 2.16 8.0 0 0 102.50 102.56
  Q 100.31 101.22 96.82 101.83
  Q 96.24 101.93 96.24 102.52
  L 96.25 111.49
  Q 96.25 112.24 97.01 112.26
  L 97.44 112.26
  A 0.77 0.77 0.0 0 0 98.22 111.50
  L 98.27 109.47
  Q 98.28 108.88 98.86 108.77
  Z
  M 111.02 108.74
  Q 115.21 109.11 115.81 105.43
  C 116.45 101.50 111.11 101.44 108.81 101.83
  Q 108.21 101.93 108.21 102.54
  L 108.25 111.56
  A 0.90 0.89 84.7 0 0 109.31 112.44
  L 109.74 112.36
  A 0.57 0.57 0.0 0 0 110.20 111.85
  L 110.39 109.28
  A 0.58 0.58 0.0 0 1 111.02 108.74
  Z
  M 131.26 136.41
  A 18.08 18.08 0.0 0 0 113.18 118.33
  A 18.08 18.08 0.0 0 0 95.10 136.41
  A 18.08 18.08 0.0 0 0 113.18 154.49
  A 18.08 18.08 0.0 0 0 131.26 136.41
  Z"
/>
<path fill="#18689c" d="
  M 148.96 86.54
  Q 161.44 86.50 174.49 86.54
  Q 184.45 86.57 185.10 96.30
  Q 185.60 103.76 184.84 118.89
  Q 184.81 119.54 184.19 119.76
  C 179.92 121.28 177.88 125.13 180.17 129.13
  Q 181.43 131.33 184.02 131.86
  A 1.24 1.22 5.1 0 1 185.00 133.02
  Q 185.33 144.02 185.27 156.58
  C 185.25 161.41 183.68 165.91 179.00 167.35
  Q 176.76 168.03 173.35 168.06
  Q 160.93 168.17 148.96 168.10
  L 148.96 86.54
  Z
  M 171.67 103.58
  A 0.76 0.76 0.0 0 0 170.91 102.82
  L 155.77 102.82
  A 0.76 0.76 0.0 0 0 155.01 103.58
  L 155.01 104.18
  A 0.76 0.76 0.0 0 0 155.77 104.94
  L 170.91 104.94
  A 0.76 0.76 0.0 0 0 171.67 104.18
  L 171.67 103.58
  Z
  M 171.64 109.53
  A 0.61 0.61 0.0 0 0 171.03 108.92
  L 155.65 108.92
  A 0.61 0.61 0.0 0 0 155.04 109.53
  L 155.04 110.29
  A 0.61 0.61 0.0 0 0 155.65 110.90
  L 171.03 110.90
  A 0.61 0.61 0.0 0 0 171.64 110.29
  L 171.64 109.53
  Z
  M 171.52 113.68
  A 0.26 0.26 0.0 0 0 171.26 113.42
  L 155.30 113.42
  A 0.26 0.26 0.0 0 0 155.04 113.68
  L 155.04 116.34
  A 0.26 0.26 0.0 0 0 155.30 116.60
  L 171.26 116.60
  A 0.26 0.26 0.0 0 0 171.52 116.34
  L 171.52 113.68
  Z
  M 171.7996 121.9307
  A 0.82 0.82 0.0 0 0 170.9768 121.1136
  L 155.8569 121.1664
  A 0.82 0.82 0.0 0 0 155.0397 121.9893
  L 155.0404 122.1693
  A 0.82 0.82 0.0 0 0 155.8632 122.9864
  L 170.9831 122.9336
  A 0.82 0.82 0.0 0 0 171.8003 122.1107
  L 171.7996 121.9307
  Z
  M 171.66 126.15
  A 0.56 0.56 0.0 0 0 171.10 125.59
  L 155.58 125.59
  A 0.56 0.56 0.0 0 0 155.02 126.15
  L 155.02 128.17
  A 0.56 0.56 0.0 0 0 155.58 128.73
  L 171.10 128.73
  A 0.56 0.56 0.0 0 0 171.66 128.17
  L 171.66 126.15
  Z
  M 171.7521 132.7592
  A 0.81 0.81 0.0 0 0 170.9449 131.9464
  L 155.8450 131.8937
  A 0.81 0.81 0.0 0 0 155.0322 132.7008
  L 155.0279 133.9408
  A 0.81 0.81 0.0 0 0 155.8351 134.7536
  L 170.9350 134.8063
  A 0.81 0.81 0.0 0 0 171.7478 133.9992
  L 171.7521 132.7592
  Z
  M 171.8498 140.0959
  A 0.73 0.73 0.0 0 0 171.1160 139.3697
  L 155.7362 139.4503
  A 0.73 0.73 0.0 0 0 155.0100 140.1841
  L 155.0102 140.2241
  A 0.73 0.73 0.0 0 0 155.7440 140.9503
  L 171.1238 140.8697
  A 0.73 0.73 0.0 0 0 171.8500 140.1359
  L 171.8498 140.0959
  Z
  M 171.8385 145.2906
  A 0.68 0.68 0.0 0 0 171.1561 144.6130
  L 155.6562 144.6671
  A 0.68 0.68 0.0 0 0 154.9786 145.3494
  L 154.9815 146.1894
  A 0.68 0.68 0.0 0 0 155.6639 146.8670
  L 171.1638 146.8129
  A 0.68 0.68 0.0 0 0 171.8414 146.1306
  L 171.8385 145.2906
  Z
  M 171.8900 152.2052
  A 0.71 0.71 0.0 0 0 171.1787 151.4965
  L 155.6587 151.5235
  A 0.71 0.71 0.0 0 0 154.9500 152.2348
  L 154.9500 152.2748
  A 0.71 0.71 0.0 0 0 155.6613 152.9835
  L 171.1813 152.9565
  A 0.71 0.71 0.0 0 0 171.8900 152.2452
  L 171.8900 152.2052
  Z"
/>
<path fill="#d41248" d="
  M 341.36 129.09
  Q 341.64 129.82 343.32 129.57
  A 0.91 0.90 18.9 0 0 343.82 129.33
  L 349.02 124.21
  A 0.68 0.68 0.0 0 1 350.13 124.42
  Q 355.69 137.23 364.44 147.28
  Q 364.88 147.78 364.22 147.79
  Q 355.36 147.83 347.39 147.77
  Q 343.53 147.73 340.63 144.92
  Q 331.27 135.82 320.25 124.57
  A 3.28 3.28 0.0 0 1 319.32 122.05
  L 320.54 103.74
  Q 320.62 102.53 321.82 102.74
  Q 325.36 103.35 326.94 101.19
  C 328.89 98.53 329.81 96.49 333.48 95.85
  C 340.04 94.70 342.13 101.11 343.43 105.92
  A 1.40 1.40 0.0 0 1 343.07 107.29
  L 333.10 117.32
  Q 332.31 118.12 332.82 119.12
  Q 333.05 119.59 333.84 119.87
  A 1.49 1.48 32.3 0 0 335.38 119.53
  L 343.97 110.96
  Q 344.84 110.09 345.26 111.25
  L 348.09 119.06
  Q 348.50 120.18 347.65 121.03
  L 341.71 126.94
  A 2.12 1.83 58.3 0 0 341.36 129.09
  Z"
/>
<path fill="#fcfcfc" d="
  M 87.55 108.00
  Q 88.18 105.50 89.05 102.67
  Q 89.20 102.17 89.60 101.93
  Q 90.50 101.40 91.43 102.08
  Q 92.01 102.50 92.60 102.08
  Q 93.21 101.65 93.98 101.69
  Q 94.56 101.73 94.56 102.31
  L 94.47 111.47
  A 0.89 0.88 -0.0 0 1 93.58 112.35
  L 93.15 112.35
  A 0.67 0.67 0.0 0 1 92.48 111.68
  L 92.52 103.26
  A 0.51 0.51 0.0 0 0 91.83 102.78
  Q 91.08 103.04 90.85 103.84
  Q 89.84 107.47 88.37 111.40
  A 1.58 1.57 -88.4 0 1 87.36 112.36
  C 86.30 112.69 85.36 111.85 85.06 110.88
  Q 83.75 106.72 82.28 102.60
  Q 82.02 101.87 82.79 101.73
  L 83.32 101.64
  Q 84.22 101.49 84.49 102.36
  L 86.25 108.03
  Q 86.96 110.32 87.55 108.00
  Z"
/>
<path fill="#fcfcfc" d="
  M 117.55 111.05
  Q 117.09 112.09 116.09 112.44
  A 0.76 0.76 0.0 0 1 115.12 111.47
  L 118.19 102.62
  A 1.33 1.30 -7.1 0 1 118.74 101.93
  C 119.81 101.24 121.15 101.51 121.59 102.82
  Q 123.08 107.31 124.44 111.21
  Q 124.55 111.55 124.43 111.88
  Q 124.29 112.24 123.92 112.36
  Q 123.26 112.58 122.89 111.99
  Q 121.60 109.90 118.58 110.28
  Q 117.85 110.37 117.55 111.05
  Z
  M 119.03 108.49
  L 120.59 108.54
  A 0.23 0.23 0.0 0 0 120.83 108.32
  L 120.83 108.14
  A 3.25 0.94 -88.1 0 0 120.00 104.86
  L 119.86 104.86
  A 3.25 0.94 -88.1 0 0 118.81 108.08
  L 118.81 108.26
  A 0.23 0.23 0.0 0 0 119.03 108.49
  Z"
/>
<path fill="#fcfcfc" d="
  M 127.60 103.90
  Q 127.37 104.09 127.45 104.51
  Q 127.57 105.21 128.19 105.56
  Q 129.16 106.10 130.32 106.39
  C 131.92 106.79 133.35 108.56 132.63 110.19
  Q 131.00 113.87 126.08 111.66
  A 1.42 1.42 0.0 0 1 125.25 110.56
  Q 125.13 109.64 125.80 109.17
  A 0.80 0.80 0.0 0 1 126.90 109.34
  Q 128.26 111.12 129.71 110.35
  Q 131.81 109.25 129.62 108.33
  C 127.88 107.60 125.44 107.09 125.21 104.84
  C 124.83 101.20 130.63 100.31 131.93 103.29
  Q 132.24 104.00 131.67 104.50
  Q 131.23 104.88 130.74 104.56
  Q 130.11 104.14 129.48 103.76
  Q 128.50 103.16 127.60 103.90
  Z"
/>
<path fill="#fcfcfc" d="
  M 136.39 103.60
  A 1.04 1.04 0.0 0 0 136.24 105.59
  L 139.15 106.68
  A 2.70 2.69 21.8 0 1 140.69 110.25
  Q 139.21 113.79 134.74 111.93
  Q 132.55 111.02 133.82 109.14
  A 0.60 0.60 0.0 0 1 134.79 109.12
  Q 136.08 110.85 137.98 110.41
  A 0.96 0.96 0.0 0 0 138.72 109.36
  Q 138.62 108.45 137.74 108.14
  C 136.40 107.68 134.82 107.52 133.98 106.24
  C 132.86 104.55 133.66 102.07 135.73 101.60
  Q 137.88 101.10 139.66 102.47
  Q 140.41 103.05 140.31 103.84
  A 1.00 1.00 0.0 0 1 138.57 104.38
  Q 137.65 103.33 136.39 103.60
  Z"
/>
<path fill="#4a6375" d="
  M 370.66 164.48
  C 368.74 166.92 366.08 167.99 362.99 168.04
  Q 351.01 168.26 341.03 167.92
  Q 335.14 167.73 330.31 162.95
  Q 307.82 140.72 286.70 119.50
  C 282.89 115.68 279.55 112.79 284.14 108.09
  Q 287.09 105.07 289.91 102.25
  Q 291.16 101.01 292.41 102.26
  Q 315.31 125.22 338.06 147.91
  C 340.96 150.80 345.01 151.98 349.14 151.90
  Q 357.83 151.73 367.31 151.86
  C 373.13 151.95 373.08 157.61 372.09 161.58
  A 7.86 7.85 -18.8 0 1 370.66 164.48
  Z"
/>
<path fill="#fcfcfc" d="
  M 98.27 109.47
  L 98.22 111.50
  A 0.77 0.77 0.0 0 1 97.44 112.26
  L 97.01 112.26
  Q 96.25 112.24 96.25 111.49
  L 96.24 102.52
  Q 96.24 101.93 96.82 101.83
  Q 100.31 101.22 102.50 102.56
  A 2.17 2.16 8.0 0 1 103.44 103.80
  Q 104.46 107.42 100.96 108.63
  C 100.26 108.87 99.55 108.65 98.86 108.77
  Q 98.28 108.88 98.27 109.47
  Z
  M 101.5175 104.6376
  A 1.10 1.10 0.0 0 0 100.3705 103.5866
  L 99.2316 103.6364
  A 1.10 1.10 0.0 0 0 98.1807 104.7833
  L 98.2225 105.7424
  A 1.10 1.10 0.0 0 0 99.3695 106.7934
  L 100.5084 106.7436
  A 1.10 1.10 0.0 0 0 101.5593 105.5967
  L 101.5175 104.6376
  Z"
/>
<path fill="#fcfcfc" d="
  M 110.39 109.28
  L 110.20 111.85
  A 0.57 0.57 0.0 0 1 109.74 112.36
  L 109.31 112.44
  A 0.90 0.89 84.7 0 1 108.25 111.56
  L 108.21 102.54
  Q 108.21 101.93 108.81 101.83
  C 111.11 101.44 116.45 101.50 115.81 105.43
  Q 115.21 109.11 111.02 108.74
  A 0.58 0.58 0.0 0 0 110.39 109.28
  Z
  M 113.6439 104.7649
  A 1.10 1.10 0.0 0 0 112.5535 103.6554
  L 111.3335 103.6447
  A 1.10 1.10 0.0 0 0 110.2240 104.7351
  L 110.2161 105.6351
  A 1.10 1.10 0.0 0 0 111.3065 106.7446
  L 112.5265 106.7553
  A 1.10 1.10 0.0 0 0 113.6360 105.6649
  L 113.6439 104.7649
  Z"
/>
<rect fill="#e2eaef" x="155.01" y="102.82" width="16.66" height="2.12" rx="0.76"/>
<rect fill="#18aee1" x="-1.67" y="-1.58" transform="translate(99.87,105.19) rotate(-2.5)" width="3.34" height="3.16" rx="1.10"/>
<rect fill="#18aee1" x="-1.71" y="-1.55" transform="translate(111.93,105.20) rotate(0.5)" width="3.42" height="3.10" rx="1.10"/>
<path fill="#18aee1" d="
  M 119.03 108.49
  A 0.23 0.23 0.0 0 1 118.81 108.26
  L 118.81 108.08
  A 3.25 0.94 -88.1 0 1 119.86 104.86
  L 120.00 104.86
  A 3.25 0.94 -88.1 0 1 120.83 108.14
  L 120.83 108.32
  A 0.23 0.23 0.0 0 1 120.59 108.54
  L 119.03 108.49
  Z"
/>
<rect fill="#e2eaef" x="155.04" y="108.92" width="16.60" height="1.98" rx="0.61"/>
<rect fill="#fcfcfc" x="155.04" y="113.42" width="16.48" height="3.18" rx="0.26"/>
<path fill="#1d3f58" d="
  M 131.26 136.41
  A 18.08 18.08 0.0 0 1 113.18 154.49
  A 18.08 18.08 0.0 0 1 95.10 136.41
  A 18.08 18.08 0.0 0 1 113.18 118.33
  A 18.08 18.08 0.0 0 1 131.26 136.41
  Z
  M 110.01 122.71
  C 108.46 122.33 107.04 121.22 105.42 121.96
  Q 103.30 122.94 101.68 124.78
  Q 101.25 125.28 101.24 125.94
  L 101.17 130.96
  Q 101.16 131.74 101.91 131.96
  L 105.49 133.00
  Q 106.14 133.19 106.68 132.79
  L 111.44 129.31
  Q 112.02 128.88 112.04 128.16
  L 112.12 124.30
  A 1.14 1.13 -76.2 0 0 111.50 123.27
  Q 110.80 122.91 110.01 122.71
  Z
  M 116.43 130.72
  C 117.94 131.49 119.24 133.37 121.06 132.97
  Q 122.76 132.59 124.57 131.88
  Q 124.99 131.72 124.99 131.26
  L 125.03 125.51
  A 1.27 1.25 18.5 0 0 124.52 124.50
  L 121.05 121.95
  A 1.90 1.87 53.0 0 0 119.31 121.69
  L 115.11 123.17
  Q 114.44 123.41 114.27 124.10
  Q 113.02 128.98 116.43 130.72
  Z
  M 107.78 141.60
  C 107.43 139.56 106.50 137.44 105.81 135.53
  A 1.14 1.14 0.0 0 0 105.06 134.83
  L 101.05 133.66
  Q 100.41 133.47 99.99 133.99
  L 97.07 137.66
  A 1.29 1.27 -32.0 0 0 96.82 138.71
  Q 97.28 140.86 98.05 142.78
  C 99.00 145.16 101.85 145.58 104.01 146.19
  Q 104.71 146.39 105.14 145.81
  L 107.55 142.57
  Q 107.87 142.13 107.78 141.60
  Z
  M 127.46 135.56
  Q 127.03 133.67 125.33 133.72
  L 121.30 134.93
  Q 120.78 135.09 120.62 135.60
  L 118.69 141.43
  Q 118.49 142.03 118.85 142.56
  L 121.10 145.89
  Q 121.53 146.53 122.25 146.27
  L 126.89 144.65
  A 1.42 1.37 -85.1 0 0 127.67 143.97
  Q 129.20 141.05 129.22 138.13
  A 1.26 1.22 -65.5 0 0 128.94 137.34
  L 127.46 135.56
  Z
  M 106.66 148.09
  L 109.59 151.95
  Q 109.91 152.37 110.43 152.49
  Q 112.99 153.05 115.82 152.54
  Q 116.42 152.44 116.80 151.95
  L 119.74 148.20
  Q 120.13 147.71 119.76 147.19
  L 117.25 143.70
  Q 116.77 143.03 115.94 143.02
  L 110.30 142.99
  A 1.41 1.40 -72.2 0 0 109.16 143.58
  L 106.65 147.15
  Q 106.31 147.62 106.66 148.09
  Z"
/>
<rect fill="#e2eaef" x="-8.38" y="-0.91" transform="translate(163.42,122.05) rotate(-0.2)" width="16.76" height="1.82" rx="0.82"/>
<path fill="#fcfcfc" d="
  M 110.01 122.71
  Q 110.80 122.91 111.50 123.27
  A 1.14 1.13 -76.2 0 1 112.12 124.30
  L 112.04 128.16
  Q 112.02 128.88 111.44 129.31
  L 106.68 132.79
  Q 106.14 133.19 105.49 133.00
  L 101.91 131.96
  Q 101.16 131.74 101.17 130.96
  L 101.24 125.94
  Q 101.25 125.28 101.68 124.78
  Q 103.30 122.94 105.42 121.96
  C 107.04 121.22 108.46 122.33 110.01 122.71
  Z"
/>
<path fill="#fcfcfc" d="
  M 116.43 130.72
  Q 113.02 128.98 114.27 124.10
  Q 114.44 123.41 115.11 123.17
  L 119.31 121.69
  A 1.90 1.87 53.0 0 1 121.05 121.95
  L 124.52 124.50
  A 1.27 1.25 18.5 0 1 125.03 125.51
  L 124.99 131.26
  Q 124.99 131.72 124.57 131.88
  Q 122.76 132.59 121.06 132.97
  C 119.24 133.37 117.94 131.49 116.43 130.72
  Z"
/>
<rect fill="#fcfcfc" x="155.02" y="125.59" width="16.64" height="3.14" rx="0.56"/>
<rect fill="#fcfcfc" x="-8.36" y="-1.43" transform="translate(163.39,133.35) rotate(0.2)" width="16.72" height="2.86" rx="0.81"/>
<path fill="#fcfcfc" d="
  M 105.81 135.53
  C 106.50 137.44 107.43 139.56 107.78 141.60
  Q 107.87 142.13 107.55 142.57
  L 105.14 145.81
  Q 104.71 146.39 104.01 146.19
  C 101.85 145.58 99.00 145.16 98.05 142.78
  Q 97.28 140.86 96.82 138.71
  A 1.29 1.27 -32.0 0 1 97.07 137.66
  L 99.99 133.99
  Q 100.41 133.47 101.05 133.66
  L 105.06 134.83
  A 1.14 1.14 0.0 0 1 105.81 135.53
  Z"
/>
<path fill="#fcfcfc" d="
  M 125.33 133.72
  Q 126.50 135.19 127.46 135.56
  L 128.94 137.34
  A 1.26 1.22 -65.5 0 1 129.22 138.13
  Q 129.20 141.05 127.67 143.97
  A 1.42 1.37 -85.1 0 1 126.89 144.65
  L 122.25 146.27
  Q 121.53 146.53 121.10 145.89
  L 118.85 142.56
  Q 118.49 142.03 118.69 141.43
  L 120.62 135.60
  Q 120.78 135.09 121.30 134.93
  L 125.33 133.72
  Z"
/>
<path fill="#8193a0" d="
  M 125.33 133.72
  Q 127.03 133.67 127.46 135.56
  Q 126.50 135.19 125.33 133.72
  Z"
/>
<rect fill="#fcfcfc" x="-8.42" y="-0.75" transform="translate(163.43,140.16) rotate(-0.3)" width="16.84" height="1.50" rx="0.73"/>
<path fill="#fcfcfc" d="
  M 109.59 151.95
  L 106.66 148.09
  Q 106.31 147.62 106.65 147.15
  L 109.16 143.58
  A 1.41 1.40 -72.2 0 1 110.30 142.99
  L 115.94 143.02
  Q 116.77 143.03 117.25 143.70
  L 119.76 147.19
  Q 120.13 147.71 119.74 148.20
  L 116.80 151.95
  Q 116.42 152.44 115.82 152.54
  Q 112.99 153.05 110.43 152.49
  Q 109.91 152.37 109.59 151.95
  Z"
/>
<rect fill="#fcfcfc" x="-8.43" y="-1.10" transform="translate(163.41,145.74) rotate(-0.2)" width="16.86" height="2.20" rx="0.68"/>
<rect fill="#7cd0f4" x="-13.69" y="-2.23" transform="translate(295.59,153.39) rotate(0.1)" width="27.38" height="4.46" rx="1.95"/>
<rect fill="#fcfcfc" x="-8.47" y="-0.73" transform="translate(163.42,152.24) rotate(-0.1)" width="16.94" height="1.46" rx="0.71"/>
<path fill="#7cd0f4" d="
  M 70.52 160.69
  Q 71.82 161.95 72.40 164.54
  Q 70.45 163.22 70.52 160.69
  Z"
/>
<path fill="#7cd0f4" d="
  M 330.02 168.14
  L 284.12 168.09
  Q 282.40 168.09 281.96 166.42
  Q 281.87 166.10 281.91 165.77
  Q 282.15 163.57 284.36 163.57
  L 326.20 163.52
  A 2.37 2.36 70.3 0 1 328.03 164.39
  L 330.41 167.32
  Q 331.08 168.14 330.02 168.14
  Z"
/>
<path fill="#fcfcfc" d="
  M 163.92 403.68
  L 85.73 403.71
  A 36.36 36.36 0.0 0 1 49.36 367.36
  L 49.33 289.10
  A 36.36 36.36 0.0 0 1 85.68 252.73
  L 163.93 252.70
  A 36.36 36.36 0.0 0 1 200.30 289.08
  L 200.27 367.34
  A 36.36 36.36 0.0 0 1 163.92 403.68
  Z
  M 106.58 282.06
  L 105.50 282.50
  Q 103.58 282.65 101.77 282.25
  Q 98.97 281.63 98.16 281.68
  Q 93.57 281.96 91.76 286.26
  Q 90.58 289.06 91.57 291.30
  Q 91.73 293.23 91.22 295.17
  Q 86.49 302.15 84.54 310.30
  Q 76.88 312.66 78.32 319.96
  L 78.19 326.56
  A 1.81 1.80 2.7 0 0 79.86 328.39
  L 84.63 328.75
  Q 86.40 337.25 91.54 344.27
  L 91.62 348.84
  L 91.57 355.83
  Q 91.56 357.54 93.27 357.47
  L 106.01 357.02
  Q 107.45 357.35 109.11 358.62
  Q 105.90 366.70 103.06 375.00
  Q 102.86 375.57 103.03 376.18
  C 102.53 376.44 101.84 376.75 101.25 376.75
  Q 93.75 376.77 86.02 376.77
  Q 84.45 376.77 84.45 378.34
  L 84.45 381.24
  Q 84.45 382.77 85.99 382.77
  L 165.06 382.75
  Q 166.92 382.75 166.93 380.89
  L 166.94 378.58
  Q 166.95 376.79 165.16 376.78
  L 156.73 376.75
  L 150.34 376.53
  A 1.98 1.96 -9.2 0 1 148.57 375.26
  Q 145.58 367.45 142.68 359.52
  Q 142.33 358.54 143.75 357.53
  L 144.97 357.19
  L 158.08 357.47
  A 1.73 1.72 0.7 0 0 159.85 355.75
  L 159.88 349.08
  Q 160.34 346.77 159.86 344.17
  Q 164.55 337.31 166.49 329.22
  Q 166.18 328.74 167.78 328.60
  Q 169.68 328.43 171.32 328.36
  A 1.77 1.77 0.0 0 0 173.02 326.58
  L 172.99 319.99
  Q 174.03 314.54 170.19 311.81
  Q 168.33 310.48 167.64 309.56
  Q 167.41 309.25 167.06 309.09
  Q 166.21 308.69 166.51 307.66
  A 1.69 1.64 46.4 0 0 166.52 306.73
  Q 165.31 302.35 162.56 299.14
  L 160.26 295.73
  L 159.91 291.22
  C 160.89 285.81 157.01 280.59 151.26 281.70
  Q 151.18 281.71 149.70 282.36
  Q 147.61 283.26 143.48 281.02
  Q 143.65 281.30 143.81 281.58
  Q 143.77 280.67 143.01 280.33
  Q 138.62 278.33 133.81 277.03
  Q 133.32 276.90 133.05 276.49
  C 132.56 275.74 132.51 274.70 132.04 273.89
  C 128.59 267.91 120.30 269.33 118.51 276.01
  A 1.93 1.92 -88.2 0 1 117.05 277.39
  Q 111.49 278.59 106.49 281.29
  Q 106.27 281.41 106.58 282.06
  Z"
/>
<path fill="#e2eaef" d="
  M 143.81 281.58
  Q 138.92 279.43 134.02 278.33
  Q 133.32 278.17 133.02 278.44
  Q 132.61 278.80 132.76 279.66
  L 118.46 279.62
  Q 118.80 278.96 118.63 278.56
  Q 118.41 278.06 117.89 278.17
  Q 111.99 279.42 106.58 282.06
  Q 106.27 281.41 106.49 281.29
  Q 111.49 278.59 117.05 277.39
  A 1.93 1.92 -88.2 0 0 118.51 276.01
  C 120.30 269.33 128.59 267.91 132.04 273.89
  C 132.51 274.70 132.56 275.74 133.05 276.49
  Q 133.32 276.90 133.81 277.03
  Q 138.62 278.33 143.01 280.33
  Q 143.77 280.67 143.81 281.58
  Z"
/>
<path fill="#4a6375" d="
  M 118.46 279.62
  Q 118.22 280.51 118.36 281.62
  Q 112.00 283.22 106.69 285.97
  Q 105.46 286.57 104.88 285.52
  Q 104.53 284.87 104.19 284.16
  Q 103.97 283.69 104.33 283.32
  Q 104.79 282.85 105.50 282.50
  L 106.58 282.06
  Q 111.99 279.42 117.89 278.17
  Q 118.41 278.06 118.63 278.56
  Q 118.80 278.96 118.46 279.62
  Z"
/>
<path fill="#4a6375" d="
  M 143.81 281.58
  Q 143.65 281.30 143.48 281.02
  L 146.91 283.48
  Q 147.36 283.80 147.08 284.27
  L 145.67 286.70
  Q 139.93 283.18 133.01 281.79
  L 132.76 279.66
  Q 132.61 278.80 133.02 278.44
  Q 133.32 278.17 134.02 278.33
  Q 138.92 279.43 143.81 281.58
  Z"
/>
<path fill="#d41248" d="
  M 118.46 279.62
  L 132.76 279.66
  L 133.01 281.79
  C 132.56 285.17 134.27 289.03 128.34 288.10
  L 123.65 288.27
  L 120.63 288.27
  A 1.83 1.82 -2.6 0 1 118.81 286.61
  L 118.36 281.62
  Q 118.22 280.51 118.46 279.62
  Z"
/>
<path fill="#fcfcfc" d="
  M 118.36 281.62
  L 118.81 286.61
  A 1.83 1.82 -2.6 0 0 120.63 288.27
  L 123.65 288.27
  Q 124.14 298.15 123.62 304.62
  Q 123.57 305.25 122.28 305.75
  Q 119.95 306.28 118.37 307.43
  Q 117.11 308.07 116.25 307.28
  Q 111.72 303.13 105.74 296.76
  L 105.70 291.29
  Q 106.00 289.93 105.94 288.61
  C 105.89 287.50 106.24 286.90 106.69 285.97
  Q 112.00 283.22 118.36 281.62
  Z"
/>
<path fill="#e2eaef" d="
  M 143.48 281.02
  Q 147.61 283.26 149.70 282.36
  Q 151.18 281.71 151.26 281.70
  C 157.01 280.59 160.89 285.81 159.91 291.22
  L 146.41 291.30
  A 0.66 0.66 0.0 0 0 145.75 291.94
  L 145.58 297.27
  Q 145.01 297.67 144.87 297.66
  L 145.67 286.70
  L 147.08 284.27
  Q 147.36 283.80 146.91 283.48
  L 143.48 281.02
  Z"
/>
<path fill="#e2eaef" d="
  M 105.50 282.50
  Q 104.79 282.85 104.33 283.32
  Q 103.97 283.69 104.19 284.16
  Q 104.53 284.87 104.88 285.52
  Q 105.46 286.57 106.69 285.97
  C 106.24 286.90 105.89 287.50 105.94 288.61
  Q 106.00 289.93 105.70 291.29
  L 91.57 291.30
  Q 90.58 289.06 91.76 286.26
  Q 93.57 281.96 98.16 281.68
  Q 98.97 281.63 101.77 282.25
  Q 103.58 282.65 105.50 282.50
  Z"
/>
<path fill="#fcfcfc" d="
  M 133.01 281.79
  Q 139.93 283.18 145.67 286.70
  L 144.87 297.66
  L 134.39 308.20
  Q 131.98 306.34 128.38 305.77
  Q 126.41 297.03 128.34 288.10
  C 134.27 289.03 132.56 285.17 133.01 281.79
  Z"
/>
<path fill="#8193a0" d="
  M 128.34 288.10
  Q 126.41 297.03 128.38 305.77
  Q 127.58 305.67 125.91 305.52
  C 124.61 305.41 123.65 305.97 122.28 305.75
  Q 123.57 305.25 123.62 304.62
  Q 124.14 298.15 123.65 288.27
  L 128.34 288.10
  Z"
/>
<path fill="#18aee1" d="
  M 105.70 291.29
  L 105.74 296.76
  Q 106.25 299.54 103.36 300.01
  L 92.91 299.84
  Q 91.26 299.83 91.22 295.17
  Q 91.73 293.23 91.57 291.30
  L 105.70 291.29
  Z"
/>
<path fill="#18689c" d="
  M 159.91 291.22
  L 160.26 295.73
  Q 159.90 298.72 158.72 299.87
  L 148.40 299.75
  Q 145.90 299.77 145.58 297.27
  L 145.75 291.94
  A 0.66 0.66 0.0 0 1 146.41 291.30
  L 159.91 291.22
  Z"
/>
<path fill="#4a6375" d="
  M 91.22 295.17
  Q 91.26 299.83 92.91 299.84
  Q 89.49 304.16 88.36 310.40
  Q 87.21 310.95 84.54 310.30
  Q 86.49 302.15 91.22 295.17
  Z"
/>
<path fill="#4a6375" d="
  M 160.26 295.73
  L 162.56 299.14
  L 166.48 309.75
  Q 166.71 310.38 166.04 310.44
  L 163.83 310.62
  Q 163.14 310.68 162.92 310.03
  L 162.32 308.27
  L 158.72 299.87
  Q 159.90 298.72 160.26 295.73
  Z"
/>
<path fill="#8193a0" d="
  M 105.74 296.76
  Q 111.72 303.13 116.25 307.28
  Q 117.11 308.07 118.37 307.43
  Q 115.07 309.84 114.22 311.77
  Q 110.34 305.76 103.36 300.01
  Q 106.25 299.54 105.74 296.76
  Z"
/>
<path fill="#8193a0" d="
  M 145.58 297.27
  Q 145.90 299.77 148.40 299.75
  Q 141.96 305.12 137.19 311.40
  L 134.39 308.20
  L 144.87 297.66
  Q 145.01 297.67 145.58 297.27
  Z"
/>
<path fill="#e2eaef" d="
  M 162.56 299.14
  Q 165.31 302.35 166.52 306.73
  A 1.69 1.64 46.4 0 1 166.51 307.66
  Q 166.21 308.69 167.06 309.09
  Q 167.41 309.25 167.64 309.56
  Q 168.33 310.48 170.19 311.81
  Q 174.03 314.54 172.99 319.99
  L 162.79 319.95
  L 159.33 319.76
  Q 158.84 319.73 158.88 319.24
  Q 158.99 317.74 157.76 317.75
  Q 149.06 317.84 140.22 317.56
  L 157.25 317.70
  A 1.50 1.50 0.0 0 0 158.69 316.63
  Q 159.61 313.54 162.13 311.22
  A 1.15 1.14 66.6 0 0 162.50 310.27
  L 162.32 308.27
  L 162.92 310.03
  Q 163.14 310.68 163.83 310.62
  L 166.04 310.44
  Q 166.71 310.38 166.48 309.75
  L 162.56 299.14
  Z"
/>
<path fill="#fcfcfc" d="
  M 92.91 299.84
  L 103.36 300.01
  Q 110.34 305.76 114.22 311.77
  Q 112.06 313.56 112.14 315.44
  L 111.09 317.22
  Q 110.83 317.67 110.30 317.68
  L 93.54 317.89
  L 88.36 310.40
  Q 89.49 304.16 92.91 299.84
  Z"
/>
<path fill="#fcfcfc" d="
  M 148.40 299.75
  L 158.72 299.87
  L 162.32 308.27
  L 162.50 310.27
  A 1.15 1.14 66.6 0 1 162.13 311.22
  Q 159.61 313.54 158.69 316.63
  A 1.50 1.50 0.0 0 1 157.25 317.70
  L 140.22 317.56
  L 139.05 315.02
  Q 138.84 313.40 137.19 311.40
  Q 141.96 305.12 148.40 299.75
  Z"
/>
<path fill="#4a6375" d="
  M 128.38 305.77
  Q 131.98 306.34 134.39 308.20
  L 137.19 311.40
  Q 138.84 313.40 139.05 315.02
  Q 138.63 316.94 139.70 319.06
  A 1.34 1.33 48.4 0 1 139.62 320.43
  Q 138.90 321.49 138.80 322.77
  Q 138.68 324.26 138.00 325.61
  Q 136.23 329.09 133.56 331.38
  L 133.09 332.06
  Q 133.23 331.59 132.87 331.43
  A 0.31 0.30 -51.4 0 0 132.55 331.47
  L 131.13 332.62
  Q 130.67 332.99 130.07 332.98
  Q 128.53 332.94 127.02 333.40
  Q 125.88 333.75 124.32 333.51
  Q 121.11 333.02 118.78 331.95
  L 117.54 330.97
  Q 115.93 330.17 114.04 327.55
  Q 111.98 325.06 111.49 321.27
  L 112.14 315.44
  Q 112.06 313.56 114.22 311.77
  Q 115.07 309.84 118.37 307.43
  Q 119.95 306.28 122.28 305.75
  C 123.65 305.97 124.61 305.41 125.91 305.52
  Q 127.58 305.67 128.38 305.77
  Z
  M 133.02 319.51
  A 7.19 7.19 0.0 0 0 125.83 312.32
  A 7.19 7.19 0.0 0 0 118.64 319.51
  A 7.19 7.19 0.0 0 0 125.83 326.70
  A 7.19 7.19 0.0 0 0 133.02 319.51
  Z"
/>
<path fill="#e2eaef" d="
  M 84.54 310.30
  Q 87.21 310.95 88.36 310.40
  L 93.54 317.89
  Q 92.41 318.20 92.31 320.03
  L 78.32 319.96
  Q 76.88 312.66 84.54 310.30
  Z"
/>
<circle fill="#e2eaef" cx="125.83" cy="319.51" r="7.19"/>
<path fill="#8193a0" d="
  M 139.05 315.02
  L 140.22 317.56
  Q 149.06 317.84 157.76 317.75
  Q 158.99 317.74 158.88 319.24
  Q 158.84 319.73 159.33 319.76
  L 162.79 319.95
  Q 157.96 319.70 158.78 321.30
  L 140.94 321.34
  A 0.87 0.86 -78.9 0 0 140.14 321.88
  L 137.77 327.66
  A 1.52 1.50 34.1 0 0 138.09 329.28
  L 148.55 339.95
  Q 148.29 342.07 146.07 342.66
  Q 140.89 336.83 135.36 331.89
  Q 134.59 331.20 133.56 331.38
  Q 136.23 329.09 138.00 325.61
  Q 138.68 324.26 138.80 322.77
  Q 138.90 321.49 139.62 320.43
  A 1.34 1.33 48.4 0 0 139.70 319.06
  Q 138.63 316.94 139.05 315.02
  Z"
/>
<path fill="#8193a0" d="
  M 112.14 315.44
  L 111.49 321.27
  L 92.87 321.19
  Q 93.43 321.30 92.31 320.03
  Q 92.41 318.20 93.54 317.89
  L 110.30 317.68
  Q 110.83 317.67 111.09 317.22
  L 112.14 315.44
  Z"
/>
<path fill="#d41248" d="
  M 162.79 319.95
  L 172.99 319.99
  L 173.02 326.58
  A 1.77 1.77 0.0 0 1 171.32 328.36
  Q 169.68 328.43 167.78 328.60
  Q 166.18 328.74 166.49 329.22
  Q 165.85 327.81 162.92 328.74
  Q 161.93 328.30 160.79 328.39
  A 1.83 1.83 0.0 0 1 158.83 326.59
  L 158.78 321.30
  Q 157.96 319.70 162.79 319.95
  Z"
/>
<path fill="#d41248" d="
  M 78.32 319.96
  L 92.31 320.03
  Q 93.43 321.30 92.87 321.19
  Q 92.17 323.32 92.35 326.46
  A 1.86 1.85 -89.6 0 1 90.38 328.41
  Q 88.82 328.31 88.21 328.83
  Q 86.47 328.00 84.63 328.75
  L 79.86 328.39
  A 1.81 1.80 2.7 0 1 78.19 326.56
  L 78.32 319.96
  Z"
/>
<circle fill="#18aee1" cx="301.50" cy="325.13" r="4.53"/>
<circle fill="#18aee1" cx="334.71" cy="325.13" r="4.52"/>
<circle fill="#18aee1" cx="318.10" cy="325.15" r="4.53"/>
<path fill="#fcfcfc" d="
  M 92.87 321.19
  L 111.49 321.27
  Q 111.98 325.06 114.04 327.55
  Q 114.11 328.69 113.80 329.00
  Q 108.28 334.47 102.55 340.32
  Q 98.75 339.01 97.25 339.56
  Q 95.61 340.16 93.73 341.03
  Q 89.98 335.60 88.21 328.83
  Q 88.82 328.31 90.38 328.41
  A 1.86 1.85 -89.6 0 0 92.35 326.46
  Q 92.17 323.32 92.87 321.19
  Z"
/>
<path fill="#fcfcfc" d="
  M 158.78 321.30
  L 158.83 326.59
  A 1.83 1.83 0.0 0 0 160.79 328.39
  Q 161.93 328.30 162.92 328.74
  Q 161.38 334.94 157.97 340.34
  C 156.09 340.06 154.52 339.44 152.65 339.53
  Q 150.56 339.64 148.55 339.95
  L 138.09 329.28
  A 1.52 1.50 34.1 0 1 137.77 327.66
  L 140.14 321.88
  A 0.87 0.86 -78.9 0 1 140.94 321.34
  L 158.78 321.30
  Z"
/>
<path fill="#8193a0" d="
  M 114.04 327.55
  Q 115.93 330.17 117.54 330.97
  Q 111.23 336.08 105.27 342.82
  Q 103.31 341.94 102.55 340.32
  Q 108.28 334.47 113.80 329.00
  Q 114.11 328.69 114.04 327.55
  Z"
/>
<path fill="#4a6375" d="
  M 88.21 328.83
  Q 89.98 335.60 93.73 341.03
  L 91.54 344.27
  Q 86.40 337.25 84.63 328.75
  Q 86.47 328.00 88.21 328.83
  Z"
/>
<path fill="#4a6375" d="
  M 166.49 329.22
  Q 164.55 337.31 159.86 344.17
  Q 157.98 342.75 157.97 340.34
  Q 161.38 334.94 162.92 328.74
  Q 165.85 327.81 166.49 329.22
  Z"
/>
<path fill="#fcfcfc" d="
  M 117.54 330.97
  L 118.78 331.95
  L 110.40 354.86
  L 106.11 352.93
  L 105.46 348.78
  L 105.27 342.82
  Q 111.23 336.08 117.54 330.97
  Z"
/>
<path fill="#8193a0" d="
  M 133.09 332.06
  Q 132.92 333.20 133.68 335.29
  Q 136.98 344.31 140.40 353.30
  Q 140.87 354.53 142.45 354.38
  Q 139.94 356.03 137.26 356.66
  Q 136.85 356.76 136.53 356.48
  Q 137.30 355.74 136.64 353.87
  Q 133.12 343.86 129.28 334.36
  A 0.67 0.67 0.0 0 0 128.25 334.08
  Q 127.93 334.32 127.90 334.76
  Q 127.38 342.71 127.65 350.73
  Q 125.05 351.58 123.88 350.62
  L 123.79 334.57
  A 0.72 0.72 0.0 0 0 122.40 334.31
  L 113.76 356.06
  L 110.40 354.86
  L 118.78 331.95
  Q 121.11 333.02 124.32 333.51
  Q 125.88 333.75 127.02 333.40
  Q 128.53 332.94 130.07 332.98
  Q 130.67 332.99 131.13 332.62
  L 132.55 331.47
  A 0.31 0.30 -51.4 0 1 132.87 331.43
  Q 133.23 331.59 133.09 332.06
  Z"
/>
<path fill="#fcfcfc" d="
  M 133.56 331.38
  Q 134.59 331.20 135.36 331.89
  Q 140.89 336.83 146.07 342.66
  Q 145.76 345.07 145.43 347.75
  Q 145.27 349.02 145.63 350.21
  L 145.41 352.34
  L 142.45 354.38
  Q 140.87 354.53 140.40 353.30
  Q 136.98 344.31 133.68 335.29
  Q 132.92 333.20 133.09 332.06
  L 133.56 331.38
  Z"
/>
<path fill="#fcfcfc" d="
  M 123.88 350.62
  Q 119.72 353.05 117.98 357.26
  Q 115.63 357.13 113.76 356.06
  L 122.40 334.31
  A 0.72 0.72 0.0 0 1 123.79 334.57
  L 123.88 350.62
  Z"
/>
<path fill="#fcfcfc" d="
  M 136.53 356.48
  Q 135.37 356.56 135.59 356.83
  L 133.87 356.78
  Q 133.35 356.76 133.11 356.31
  Q 131.20 352.72 127.65 350.73
  Q 127.38 342.71 127.90 334.76
  Q 127.93 334.32 128.25 334.08
  A 0.67 0.67 0.0 0 1 129.28 334.36
  Q 133.12 343.86 136.64 353.87
  Q 137.30 355.74 136.53 356.48
  Z"
/>
<path fill="#e2eaef" d="
  M 102.55 340.32
  Q 103.31 341.94 105.27 342.82
  L 105.46 348.78
  L 91.62 348.84
  L 91.54 344.27
  L 93.73 341.03
  Q 95.61 340.16 97.25 339.56
  Q 98.75 339.01 102.55 340.32
  Z"
/>
<path fill="#e2eaef" d="
  M 157.97 340.34
  Q 157.98 342.75 159.86 344.17
  Q 160.34 346.77 159.88 349.08
  L 146.32 349.22
  Q 145.77 349.23 145.64 349.76
  Q 145.59 349.96 145.63 350.21
  Q 145.27 349.02 145.43 347.75
  Q 145.76 345.07 146.07 342.66
  Q 148.29 342.07 148.55 339.95
  Q 150.56 339.64 152.65 339.53
  C 154.52 339.44 156.09 340.06 157.97 340.34
  Z"
/>
<path fill="#18689c" d="
  M 105.46 348.78
  L 106.11 352.93
  Q 105.45 354.96 106.01 357.02
  L 93.27 357.47
  Q 91.56 357.54 91.57 355.83
  L 91.62 348.84
  L 105.46 348.78
  Z"
/>
<path fill="#18aee1" d="
  M 159.88 349.08
  L 159.85 355.75
  A 1.73 1.72 0.7 0 1 158.08 357.47
  L 144.97 357.19
  Q 146.13 355.40 145.41 352.34
  L 145.63 350.21
  Q 145.59 349.96 145.64 349.76
  Q 145.77 349.23 146.32 349.22
  L 159.88 349.08
  Z"
/>
<path fill="#e2eaef" d="
  M 123.88 350.62
  Q 125.05 351.58 127.65 350.73
  Q 131.20 352.72 133.11 356.31
  Q 133.35 356.76 133.87 356.78
  L 135.59 356.83
  Q 132.15 356.90 132.90 360.45
  L 118.64 360.49
  Q 118.67 358.16 117.98 357.26
  Q 119.72 353.05 123.88 350.62
  Z"
/>
<path fill="#4a6375" d="
  M 145.41 352.34
  Q 146.13 355.40 144.97 357.19
  L 143.75 357.53
  L 137.48 359.71
  Q 137.14 359.82 137.45 359.99
  Q 137.81 360.19 138.53 360.04
  L 132.99 361.39
  Q 133.04 361.10 132.90 360.45
  Q 132.15 356.90 135.59 356.83
  Q 135.37 356.56 136.53 356.48
  Q 136.85 356.76 137.26 356.66
  Q 139.94 356.03 142.45 354.38
  L 145.41 352.34
  Z"
/>
<path fill="#4a6375" d="
  M 106.11 352.93
  L 110.40 354.86
  L 113.76 356.06
  Q 115.63 357.13 117.98 357.26
  Q 118.67 358.16 118.64 360.49
  Q 118.64 360.86 118.34 361.17
  L 112.45 359.74
  Q 110.78 358.67 109.11 358.62
  Q 107.45 357.35 106.01 357.02
  Q 105.45 354.96 106.11 352.93
  Z"
/>
<path fill="#8193a0" d="
  M 143.75 357.53
  Q 142.33 358.54 142.68 359.52
  Q 145.58 367.45 148.57 375.26
  A 1.98 1.96 -9.2 0 0 150.34 376.53
  L 156.73 376.75
  Q 154.23 376.69 152.00 377.20
  Q 149.86 377.70 144.71 376.73
  L 139.37 361.15
  Q 139.24 360.75 138.94 360.45
  L 138.53 360.04
  Q 137.81 360.19 137.45 359.99
  Q 137.14 359.82 137.48 359.71
  L 143.75 357.53
  Z"
/>
<path fill="#8193a0" d="
  M 109.11 358.62
  Q 110.78 358.67 112.45 359.74
  L 106.10 376.74
  L 103.03 376.18
  Q 102.86 375.57 103.06 375.00
  Q 105.90 366.70 109.11 358.62
  Z"
/>
<path fill="#fcfcfc" d="
  M 112.45 359.74
  L 118.34 361.17
  Q 118.64 363.58 118.46 366.00
  Q 118.23 369.13 121.24 369.10
  Q 126.09 369.05 130.79 369.05
  A 2.03 2.03 0.0 0 0 132.82 367.08
  L 132.99 361.39
  L 138.53 360.04
  L 138.94 360.45
  Q 139.24 360.75 139.37 361.15
  L 144.71 376.73
  L 106.10 376.74
  L 112.45 359.74
  Z"
/>
<path fill="#d41248" d="
  M 118.64 360.49
  L 132.90 360.45
  Q 133.04 361.10 132.99 361.39
  L 132.82 367.08
  A 2.03 2.03 0.0 0 1 130.79 369.05
  Q 126.09 369.05 121.24 369.10
  Q 118.23 369.13 118.46 366.00
  Q 118.64 363.58 118.34 361.17
  Q 118.64 360.86 118.64 360.49
  Z"
/>
<path fill="#4a6375" d="
  M 103.03 376.18
  L 106.10 376.74
  L 144.71 376.73
  Q 149.86 377.70 152.00 377.20
  Q 154.23 376.69 156.73 376.75
  L 165.16 376.78
  Q 166.95 376.79 166.94 378.58
  L 166.93 380.89
  Q 166.92 382.75 165.06 382.75
  L 85.99 382.77
  Q 84.45 382.77 84.45 381.24
  L 84.45 378.34
  Q 84.45 376.77 86.02 376.77
  Q 93.75 376.77 101.25 376.75
  C 101.84 376.75 102.53 376.44 103.03 376.18
  Z"
/>
</svg>
