<?xml version="1.0" encoding="UTF-8" standalone="no"?>
<!DOCTYPE svg PUBLIC "-//W3C//DTD SVG 1.1//EN" "http://www.w3.org/Graphics/SVG/1.1/DTD/svg11.dtd">
<svg xmlns="http://www.w3.org/2000/svg" version="1.1" viewBox="0.00 0.00 58.00 58.00">
<path fill="#ffffff" d="
  M 58.00 48.38
  L 58.00 48.79
  Q 53.99 54.07 48.71 58.00
  L 48.27 58.00
  L 37.31 47.72
  A 1.92 1.92 0.0 0 0 35.49 47.26
  C 32.69 48.01 30.08 48.96 27.14 49.11
  Q 11.39 49.90 3.85 36.68
  C -2.97 24.72 2.27 8.82 14.81 3.11
  C 29.18 -3.44 46.50 5.02 48.89 20.97
  Q 49.96 28.07 47.46 34.71
  Q 46.83 36.38 48.11 37.64
  Q 52.72 42.16 57.01 46.97
  Q 57.58 47.62 58.00 48.38
  Z
  M 44.95 25.06
  A 19.86 19.86 0.0 0 0 25.09 5.20
  A 19.86 19.86 0.0 0 0 5.23 25.06
  A 19.86 19.86 0.0 0 0 25.09 44.92
  A 19.86 19.86 0.0 0 0 44.95 25.06
  Z
  M 51.6301 49.6551
  A 1.72 1.72 0.0 0 0 51.6216 47.2227
  L 45.6612 41.3038
  A 1.72 1.72 0.0 0 0 43.2288 41.3123
  L 41.2699 43.2849
  A 1.72 1.72 0.0 0 0 41.2784 45.7173
  L 47.2388 51.6362
  A 1.72 1.72 0.0 0 0 49.6712 51.6277
  L 51.6301 49.6551
  Z"
/>
</svg>
