<?xml version="1.0" encoding="UTF-8" standalone="no"?>
<!DOCTYPE svg PUBLIC "-//W3C//DTD SVG 1.1//EN" "http://www.w3.org/Graphics/SVG/1.1/DTD/svg11.dtd">
<svg xmlns="http://www.w3.org/2000/svg" version="1.1" viewBox="0.00 0.00 144.00 144.00">
<g stroke-width="2.00" fill="none" stroke-linecap="butt">
<path stroke="#e887a2" vector-effect="non-scaling-stroke" d="
  M 43.91 85.47
  Q 43.88 91.06 49.00 91.20
  Q 54.52 91.36 54.44 85.38"
/>
<path stroke="#fbe081" vector-effect="non-scaling-stroke" d="
  M 54.44 85.38
  Q 68.09 82.83 75.61 72.85
  C 90.80 52.69 80.50 23.17 54.75 18.55
  C 35.38 15.08 16.78 29.14 15.18 48.98
  Q 14.59 56.28 16.50 62.01
  Q 22.98 81.44 43.91 85.47"
/>
<path stroke="#e76b27" vector-effect="non-scaling-stroke" d="
  M 54.44 85.38
  L 53.00 81.75"
/>
<path stroke="#fbdc73" vector-effect="non-scaling-stroke" d="
  M 53.00 81.75
  Q 54.04 81.13 55.41 80.99"
/>
<path stroke="#e76b27" vector-effect="non-scaling-stroke" d="
  M 55.41 80.99
  Q 55.08 81.05 55.63 81.17
  Q 55.76 81.20 55.89 81.18
  Q 61.11 80.20 65.50 77.23
  Q 65.73 77.07 65.66 76.69"
/>
<path stroke="#fbdc73" vector-effect="non-scaling-stroke" d="
  M 65.66 76.69
  Q 70.34 73.48 73.71 68.67"
/>
<path stroke="#e76b27" vector-effect="non-scaling-stroke" d="
  M 73.71 68.67
  Q 77.12 63.87 78.19 58.15"
/>
<path stroke="#fbdc73" vector-effect="non-scaling-stroke" d="
  M 78.19 58.15
  Q 79.07 52.32 78.09 46.58"
/>
<path stroke="#e76b27" vector-effect="non-scaling-stroke" d="
  M 78.09 46.58
  Q 77.50 40.85 73.96 36.38"
/>
<path stroke="#fbdc73" vector-effect="non-scaling-stroke" d="
  M 73.96 36.38
  Q 70.61 31.60 65.92 28.03"
/>
<path stroke="#e76b27" vector-effect="non-scaling-stroke" d="
  M 65.92 28.03
  Q 61.34 24.59 55.46 23.54"
/>
<path stroke="#fbdc73" vector-effect="non-scaling-stroke" d="
  M 55.46 23.54
  Q 49.41 22.36 43.51 23.53"
/>
<path stroke="#e76b27" vector-effect="non-scaling-stroke" d="
  M 43.51 23.53
  Q 38.36 24.55 33.27 27.53"
/>
<path stroke="#fbdc73" vector-effect="non-scaling-stroke" d="
  M 33.27 27.53
  Q 28.43 30.34 25.00 35.38
  Q 24.88 35.57 25.01 35.75
  Q 25.08 35.86 25.22 35.92"
/>
<path stroke="#e76b27" vector-effect="non-scaling-stroke" d="
  M 25.22 35.92
  Q 24.95 35.85 24.80 36.08
  Q 21.66 40.71 20.44 46.22"
/>
<path stroke="#fbdc73" vector-effect="non-scaling-stroke" d="
  M 20.44 46.22
  Q 19.53 51.86 20.36 57.49
  Q 20.38 57.65 20.46 57.72
  Q 20.57 57.81 20.71 57.84"
/>
<path stroke="#e76b27" vector-effect="non-scaling-stroke" d="
  M 20.71 57.84
  Q 20.47 58.10 20.50 58.25
  Q 21.60 63.40 24.51 68.12"
/>
<path stroke="#fbdc73" vector-effect="non-scaling-stroke" d="
  M 24.51 68.12
  Q 27.75 73.43 32.69 76.61"
/>
<path stroke="#e76b27" vector-effect="non-scaling-stroke" d="
  M 32.69 76.61
  Q 38.10 79.82 43.21 80.92"
/>
<path stroke="#fbdc73" vector-effect="non-scaling-stroke" d="
  M 43.21 80.92
  L 45.53 81.59"
/>
<path stroke="#e76b27" vector-effect="non-scaling-stroke" d="
  M 45.53 81.59
  L 43.91 85.47"
/>
<path stroke="#fbdc73" vector-effect="non-scaling-stroke" d="
  M 45.99 47.24
  L 44.30 48.97"
/>
<path stroke="#e88394" vector-effect="non-scaling-stroke" d="
  M 44.30 48.97
  L 25.22 35.92"
/>
<path stroke="#e88394" vector-effect="non-scaling-stroke" d="
  M 46.19 57.01
  L 32.69 76.61"
/>
<path stroke="#e88394" vector-effect="non-scaling-stroke" d="
  M 65.66 76.69
  L 52.49 57.18"
/>
<path stroke="#e88394" vector-effect="non-scaling-stroke" d="
  M 65.92 28.03
  L 52.95 46.97"
/>
<path stroke="#e76b27" vector-effect="non-scaling-stroke" d="
  M 52.95 46.97
  Q 51.96 46.94 50.93 46.16"
/>
<path stroke="#e88394" vector-effect="non-scaling-stroke" d="
  M 43.71 53.45
  L 20.71 57.84"
/>
<path stroke="#e88394" vector-effect="non-scaling-stroke" d="
  M 78.19 58.15
  L 55.23 53.56"
/>
<path stroke="#e76b27" vector-effect="non-scaling-stroke" d="
  M 44.30 48.97
  Q 44.02 50.26 43.59 50.92"
/>
<path stroke="#e88394" vector-effect="non-scaling-stroke" d="
  M 43.59 50.92
  L 20.44 46.22"
/>
<path stroke="#e88394" vector-effect="non-scaling-stroke" d="
  M 53.00 81.75
  L 49.54 74.78
  A 0.41 0.41 0.0 0 0 48.81 74.78
  L 45.53 81.59"
/>
<path stroke="#e88394" vector-effect="non-scaling-stroke" d="
  M 55.41 80.99
  L 50.76 57.93"
/>
<path stroke="#e88394" vector-effect="non-scaling-stroke" d="
  M 78.09 46.58
  L 55.29 50.89"
/>
<path stroke="#e76b27" vector-effect="non-scaling-stroke" d="
  M 55.29 50.89
  L 54.41 49.08"
/>
<path stroke="#e88394" vector-effect="non-scaling-stroke" d="
  M 55.46 23.54
  L 50.93 46.16"
/>
<path stroke="#fbdc73" vector-effect="non-scaling-stroke" d="
  M 50.93 46.16
  Q 49.39 45.92 47.85 46.24"
/>
<path stroke="#e88394" vector-effect="non-scaling-stroke" d="
  M 47.85 46.24
  L 43.51 23.53"
/>
<path stroke="#e76b27" vector-effect="non-scaling-stroke" d="
  M 47.85 46.24
  Q 46.82 47.01 45.99 47.24"
/>
<path stroke="#e88394" vector-effect="non-scaling-stroke" d="
  M 45.99 47.24
  L 33.27 27.53"
/>
<path stroke="#e88394" vector-effect="non-scaling-stroke" d="
  M 44.52 55.14
  L 24.51 68.12"
/>
<path stroke="#e88394" vector-effect="non-scaling-stroke" d="
  M 73.71 68.67
  L 54.48 55.51"
/>
<path stroke="#e88394" vector-effect="non-scaling-stroke" d="
  M 73.96 36.38
  L 54.41 49.08"
/>
<path stroke="#fbdc73" vector-effect="non-scaling-stroke" d="
  M 54.41 49.08
  L 52.95 46.97"
/>
<path stroke="#e88394" vector-effect="non-scaling-stroke" d="
  M 47.93 57.69
  L 43.21 80.92"
/>
<path stroke="#fbdc73" vector-effect="non-scaling-stroke" d="
  M 55.29 50.89
  L 55.23 53.56"
/>
<path stroke="#e76b27" vector-effect="non-scaling-stroke" d="
  M 55.23 53.56
  Q 54.60 54.22 54.48 55.51"
/>
<path stroke="#fbdc73" vector-effect="non-scaling-stroke" d="
  M 54.48 55.51
  Q 53.28 56.08 52.49 57.18"
/>
<path stroke="#e76b27" vector-effect="non-scaling-stroke" d="
  M 52.49 57.18
  Q 51.42 57.00 50.76 57.93"
/>
<path stroke="#fbdc73" vector-effect="non-scaling-stroke" d="
  M 50.76 57.93
  Q 49.05 57.52 47.93 57.69"
/>
<path stroke="#e76b27" vector-effect="non-scaling-stroke" d="
  M 47.93 57.69
  Q 46.96 56.70 46.19 57.01"
/>
<path stroke="#fbdc73" vector-effect="non-scaling-stroke" d="
  M 46.19 57.01
  Q 45.68 56.06 44.52 55.14"
/>
<path stroke="#e76b27" vector-effect="non-scaling-stroke" d="
  M 44.52 55.14
  Q 44.48 54.38 43.71 53.45"
/>
<path stroke="#fbdc73" vector-effect="non-scaling-stroke" d="
  M 43.71 53.45
  L 43.59 50.92"
/>
<path stroke="#7eaac7" vector-effect="non-scaling-stroke" d="
  M 116.27 74.07
  A 16.34 16.34 0.0 0 0 99.93 57.73
  A 16.34 16.34 0.0 0 0 83.59 74.07
  A 16.34 16.34 0.0 0 0 99.93 90.41
  A 16.34 16.34 0.0 0 0 116.27 74.07"
/>
<path stroke="#fbe081" vector-effect="non-scaling-stroke" d="
  M 91.57 100.05
  A 16.45 16.45 0.0 0 0 75.12 83.60
  A 16.45 16.45 0.0 0 0 58.67 100.05
  A 16.45 16.45 0.0 0 0 75.12 116.50
  A 16.45 16.45 0.0 0 0 91.57 100.05"
/>
<path stroke="#e887a2" vector-effect="non-scaling-stroke" d="
  M 127.60 107.58
  A 16.45 16.45 0.0 0 0 111.15 91.13
  A 16.45 16.45 0.0 0 0 94.70 107.58
  A 16.45 16.45 0.0 0 0 111.15 124.03
  A 16.45 16.45 0.0 0 0 127.60 107.58"
/>
<path stroke="#7eaac7" vector-effect="non-scaling-stroke" d="
  M 110.28 81.36
  Q 110.50 81.41 110.72 81.43
  Q 112.04 81.51 112.47 80.27
  Q 116.34 69.22 107.02 62.45
  A 1.28 1.28 0.0 0 0 105.50 62.45
  Q 105.15 62.71 105.03 63.08
  A 0.82 0.81 26.4 0 0 105.35 64.02
  C 111.11 67.84 113.00 73.73 109.71 80.09
  Q 109.20 81.08 110.28 81.36"
/>
<path stroke="#7eaac7" vector-effect="non-scaling-stroke" d="
  M 101.39 75.77
  Q 101.49 76.23 101.28 76.62
  Q 101.05 77.03 100.57 77.03
  Q 99.24 77.01 97.84 77.07
  Q 97.44 77.09 97.22 77.40
  Q 97.09 77.58 97.07 77.81
  Q 97.00 78.45 97.63 78.62
  C 99.07 79.01 102.52 79.44 103.27 77.54
  C 104.01 75.70 102.62 74.40 103.29 72.85
  A 2.53 2.25 -71.7 0 0 101.82 69.45
  Q 99.76 69.02 97.41 69.54
  Q 96.85 69.67 96.87 70.25
  L 96.90 70.74
  A 0.42 0.42 0.0 0 0 97.32 71.14
  L 100.37 71.07
  A 0.98 0.98 0.0 0 1 101.35 72.25
  L 101.25 72.71
  A 0.57 0.56 -84.9 0 1 100.71 73.17
  L 98.47 73.25
  Q 97.72 73.28 97.75 74.03
  L 97.76 74.39
  A 0.64 0.63 89.1 0 0 98.39 75.01
  L 100.47 75.02
  Q 101.23 75.02 101.39 75.77"
/>
<path stroke="#fbe081" vector-effect="non-scaling-stroke" d="
  M 80.80 90.14
  C 86.39 93.81 88.53 99.94 85.12 106.13
  Q 84.45 107.34 85.82 107.47
  L 86.18 107.50
  Q 87.44 107.62 87.87 106.41
  Q 91.82 95.17 82.21 88.42
  A 1.04 1.04 0.0 0 0 80.81 88.61
  Q 80.58 88.90 80.47 89.25
  Q 80.31 89.82 80.80 90.14"
/>
<path stroke="#fbe081" vector-effect="non-scaling-stroke" d="
  M 75.70 97.52
  L 73.32 104.04
  A 0.26 0.25 -78.1 0 0 73.54 104.39
  L 74.91 104.45
  A 0.90 0.89 -78.1 0 0 75.80 103.86
  L 78.46 96.45
  A 1.02 1.02 0.0 0 0 77.51 95.08
  L 72.77 95.03
  Q 71.89 95.02 71.81 95.89
  L 71.76 96.37
  A 0.55 0.55 0.0 0 0 72.32 96.97
  L 75.28 96.92
  Q 75.92 96.91 75.70 97.52"
/>
<path stroke="#e887a2" vector-effect="non-scaling-stroke" d="
  M 121.85 112.06
  Q 121.50 112.93 121.11 113.75
  Q 120.63 114.78 121.75 114.97
  Q 122.22 115.05 122.66 114.96
  Q 123.56 114.79 123.86 113.92
  Q 127.79 102.68 118.22 95.92
  A 1.07 1.06 32.0 0 0 116.68 96.27
  L 116.55 96.52
  Q 116.18 97.19 116.81 97.61
  C 121.88 101.04 124.13 106.37 121.85 112.06"
/>
<path stroke="#e887a2" vector-effect="non-scaling-stroke" d="
  M 112.44 110.11
  Q 112.35 110.38 112.06 110.39
  L 109.16 110.45
  Q 108.57 110.46 108.48 111.04
  Q 108.45 111.29 108.57 111.52
  Q 108.82 111.96 109.30 112.05
  Q 110.73 112.33 112.31 112.30
  C 115.56 112.24 114.98 106.43 114.54 104.50
  A 1.99 1.98 -2.7 0 0 112.86 102.98
  C 109.88 102.60 108.59 102.72 108.08 105.97
  C 107.65 108.77 110.46 108.85 112.32 108.44
  A 0.44 0.44 0.0 0 1 112.83 109.01
  L 112.44 110.11"
/>
<path stroke="#e887a2" vector-effect="non-scaling-stroke" d="
  M 112.51 106.17
  Q 112.32 104.88 111.14 104.63
  A 0.57 0.56 -77.0 0 0 110.47 105.05
  L 110.26 105.92
  Q 110.05 106.78 110.93 106.79
  L 111.96 106.80
  Q 112.61 106.81 112.51 106.17"
/>
</g>
<path fill="#fcfcfc" d="
  M 27.89 0.00
  L 115.97 0.00
  Q 140.54 3.71 144.00 28.09
  L 144.00 115.97
  Q 141.45 136.24 122.50 142.73
  Q 120.70 143.35 115.87 144.00
  L 27.97 144.00
  Q 3.78 140.48 0.00 116.11
  L 0.00 28.01
  Q 0.73 23.66 1.24 21.99
  C 4.55 11.07 12.65 2.97 23.97 0.89
  Q 25.95 0.52 27.89 0.00
  Z
  M 43.91 85.47
  Q 43.88 91.06 49.00 91.20
  Q 54.52 91.36 54.44 85.38
  Q 68.09 82.83 75.61 72.85
  C 90.80 52.69 80.50 23.17 54.75 18.55
  C 35.38 15.08 16.78 29.14 15.18 48.98
  Q 14.59 56.28 16.50 62.01
  Q 22.98 81.44 43.91 85.47
  Z
  M 116.27 74.07
  A 16.34 16.34 0.0 0 0 99.93 57.73
  A 16.34 16.34 0.0 0 0 83.59 74.07
  A 16.34 16.34 0.0 0 0 99.93 90.41
  A 16.34 16.34 0.0 0 0 116.27 74.07
  Z
  M 91.57 100.05
  A 16.45 16.45 0.0 0 0 75.12 83.60
  A 16.45 16.45 0.0 0 0 58.67 100.05
  A 16.45 16.45 0.0 0 0 75.12 116.50
  A 16.45 16.45 0.0 0 0 91.57 100.05
  Z
  M 127.60 107.58
  A 16.45 16.45 0.0 0 0 111.15 91.13
  A 16.45 16.45 0.0 0 0 94.70 107.58
  A 16.45 16.45 0.0 0 0 111.15 124.03
  A 16.45 16.45 0.0 0 0 127.60 107.58
  Z"
/>
<path fill="#f9c405" d="
  M 54.44 85.38
  L 53.00 81.75
  Q 54.04 81.13 55.41 80.99
  Q 55.08 81.05 55.63 81.17
  Q 55.76 81.20 55.89 81.18
  Q 61.11 80.20 65.50 77.23
  Q 65.73 77.07 65.66 76.69
  Q 70.34 73.48 73.71 68.67
  Q 77.12 63.87 78.19 58.15
  Q 79.07 52.32 78.09 46.58
  Q 77.50 40.85 73.96 36.38
  Q 70.61 31.60 65.92 28.03
  Q 61.34 24.59 55.46 23.54
  Q 49.41 22.36 43.51 23.53
  Q 38.36 24.55 33.27 27.53
  Q 28.43 30.34 25.00 35.38
  Q 24.88 35.57 25.01 35.75
  Q 25.08 35.86 25.22 35.92
  Q 24.95 35.85 24.80 36.08
  Q 21.66 40.71 20.44 46.22
  Q 19.53 51.86 20.36 57.49
  Q 20.38 57.65 20.46 57.72
  Q 20.57 57.81 20.71 57.84
  Q 20.47 58.10 20.50 58.25
  Q 21.60 63.40 24.51 68.12
  Q 27.75 73.43 32.69 76.61
  Q 38.10 79.82 43.21 80.92
  L 45.53 81.59
  L 43.91 85.47
  Q 22.98 81.44 16.50 62.01
  Q 14.59 56.28 15.18 48.98
  C 16.78 29.14 35.38 15.08 54.75 18.55
  C 80.50 23.17 90.80 52.69 75.61 72.85
  Q 68.09 82.83 54.44 85.38
  Z"
/>
<path fill="#fcf3e0" d="
  M 55.46 23.54
  L 50.93 46.16
  Q 49.39 45.92 47.85 46.24
  L 43.51 23.53
  Q 49.41 22.36 55.46 23.54
  Z"
/>
<path fill="#d41248" d="
  M 43.51 23.53
  L 47.85 46.24
  Q 46.82 47.01 45.99 47.24
  L 33.27 27.53
  Q 38.36 24.55 43.51 23.53
  Z"
/>
<path fill="#d41248" d="
  M 65.92 28.03
  L 52.95 46.97
  Q 51.96 46.94 50.93 46.16
  L 55.46 23.54
  Q 61.34 24.59 65.92 28.03
  Z"
/>
<path fill="#fcf3e0" d="
  M 33.27 27.53
  L 45.99 47.24
  L 44.30 48.97
  L 25.22 35.92
  Q 25.08 35.86 25.01 35.75
  Q 24.88 35.57 25.00 35.38
  Q 28.43 30.34 33.27 27.53
  Z"
/>
<path fill="#fcf3e0" d="
  M 65.92 28.03
  Q 70.61 31.60 73.96 36.38
  L 54.41 49.08
  L 52.95 46.97
  L 65.92 28.03
  Z"
/>
<path fill="#d41248" d="
  M 25.22 35.92
  L 44.30 48.97
  Q 44.02 50.26 43.59 50.92
  L 20.44 46.22
  Q 21.66 40.71 24.80 36.08
  Q 24.95 35.85 25.22 35.92
  Z"
/>
<path fill="#d41248" d="
  M 73.96 36.38
  Q 77.50 40.85 78.09 46.58
  L 55.29 50.89
  L 54.41 49.08
  L 73.96 36.38
  Z"
/>
<path fill="#f9c405" d="
  M 50.93 46.16
  Q 51.96 46.94 52.95 46.97
  L 54.41 49.08
  L 55.29 50.89
  L 55.23 53.56
  Q 54.60 54.22 54.48 55.51
  Q 53.28 56.08 52.49 57.18
  Q 51.42 57.00 50.76 57.93
  Q 49.05 57.52 47.93 57.69
  Q 46.96 56.70 46.19 57.01
  Q 45.68 56.06 44.52 55.14
  Q 44.48 54.38 43.71 53.45
  L 43.59 50.92
  Q 44.02 50.26 44.30 48.97
  L 45.99 47.24
  Q 46.82 47.01 47.85 46.24
  Q 49.39 45.92 50.93 46.16
  Z"
/>
<path fill="#fcf3e0" d="
  M 20.44 46.22
  L 43.59 50.92
  L 43.71 53.45
  L 20.71 57.84
  Q 20.57 57.81 20.46 57.72
  Q 20.38 57.65 20.36 57.49
  Q 19.53 51.86 20.44 46.22
  Z"
/>
<path fill="#fcf3e0" d="
  M 78.09 46.58
  Q 79.07 52.32 78.19 58.15
  L 55.23 53.56
  L 55.29 50.89
  L 78.09 46.58
  Z"
/>
<path fill="#d41248" d="
  M 43.71 53.45
  Q 44.48 54.38 44.52 55.14
  L 24.51 68.12
  Q 21.60 63.40 20.50 58.25
  Q 20.47 58.10 20.71 57.84
  L 43.71 53.45
  Z"
/>
<path fill="#d41248" d="
  M 55.23 53.56
  L 78.19 58.15
  Q 77.12 63.87 73.71 68.67
  L 54.48 55.51
  Q 54.60 54.22 55.23 53.56
  Z"
/>
<path fill="#fcf3e0" d="
  M 44.52 55.14
  Q 45.68 56.06 46.19 57.01
  L 32.69 76.61
  Q 27.75 73.43 24.51 68.12
  L 44.52 55.14
  Z"
/>
<path fill="#fcf3e0" d="
  M 54.48 55.51
  L 73.71 68.67
  Q 70.34 73.48 65.66 76.69
  L 52.49 57.18
  Q 53.28 56.08 54.48 55.51
  Z"
/>
<path fill="#d41248" d="
  M 47.93 57.69
  L 43.21 80.92
  Q 38.10 79.82 32.69 76.61
  L 46.19 57.01
  Q 46.96 56.70 47.93 57.69
  Z"
/>
<path fill="#d41248" d="
  M 52.49 57.18
  L 65.66 76.69
  Q 65.73 77.07 65.50 77.23
  Q 61.11 80.20 55.89 81.18
  Q 55.76 81.20 55.63 81.17
  Q 55.08 81.05 55.41 80.99
  L 50.76 57.93
  Q 51.42 57.00 52.49 57.18
  Z"
/>
<path fill="#fcf3e0" d="
  M 50.76 57.93
  L 55.41 80.99
  Q 54.04 81.13 53.00 81.75
  L 49.54 74.78
  A 0.41 0.41 0.0 0 0 48.81 74.78
  L 45.53 81.59
  L 43.21 80.92
  L 47.93 57.69
  Q 49.05 57.52 50.76 57.93
  Z"
/>
<path fill="#005891" d="
  M 116.27 74.07
  A 16.34 16.34 0.0 0 1 99.93 90.41
  A 16.34 16.34 0.0 0 1 83.59 74.07
  A 16.34 16.34 0.0 0 1 99.93 57.73
  A 16.34 16.34 0.0 0 1 116.27 74.07
  Z
  M 110.28 81.36
  Q 110.50 81.41 110.72 81.43
  Q 112.04 81.51 112.47 80.27
  Q 116.34 69.22 107.02 62.45
  A 1.28 1.28 0.0 0 0 105.50 62.45
  Q 105.15 62.71 105.03 63.08
  A 0.82 0.81 26.4 0 0 105.35 64.02
  C 111.11 67.84 113.00 73.73 109.71 80.09
  Q 109.20 81.08 110.28 81.36
  Z
  M 101.39 75.77
  Q 101.49 76.23 101.28 76.62
  Q 101.05 77.03 100.57 77.03
  Q 99.24 77.01 97.84 77.07
  Q 97.44 77.09 97.22 77.40
  Q 97.09 77.58 97.07 77.81
  Q 97.00 78.45 97.63 78.62
  C 99.07 79.01 102.52 79.44 103.27 77.54
  C 104.01 75.70 102.62 74.40 103.29 72.85
  A 2.53 2.25 -71.7 0 0 101.82 69.45
  Q 99.76 69.02 97.41 69.54
  Q 96.85 69.67 96.87 70.25
  L 96.90 70.74
  A 0.42 0.42 0.0 0 0 97.32 71.14
  L 100.37 71.07
  A 0.98 0.98 0.0 0 1 101.35 72.25
  L 101.25 72.71
  A 0.57 0.56 -84.9 0 1 100.71 73.17
  L 98.47 73.25
  Q 97.72 73.28 97.75 74.03
  L 97.76 74.39
  A 0.64 0.63 89.1 0 0 98.39 75.01
  L 100.47 75.02
  Q 101.23 75.02 101.39 75.77
  Z"
/>
<path fill="#fcfcfc" d="
  M 109.71 80.09
  C 113.00 73.73 111.11 67.84 105.35 64.02
  A 0.82 0.81 26.4 0 1 105.03 63.08
  Q 105.15 62.71 105.50 62.45
  A 1.28 1.28 0.0 0 1 107.02 62.45
  Q 116.34 69.22 112.47 80.27
  Q 112.04 81.51 110.72 81.43
  Q 110.50 81.41 110.28 81.36
  Q 109.20 81.08 109.71 80.09
  Z"
/>
<path fill="#fcfcfc" d="
  M 100.47 75.02
  L 98.39 75.01
  A 0.64 0.63 89.1 0 1 97.76 74.39
  L 97.75 74.03
  Q 97.72 73.28 98.47 73.25
  L 100.71 73.17
  A 0.57 0.56 -84.9 0 0 101.25 72.71
  L 101.35 72.25
  A 0.98 0.98 0.0 0 0 100.37 71.07
  L 97.32 71.14
  A 0.42 0.42 0.0 0 1 96.90 70.74
  L 96.87 70.25
  Q 96.85 69.67 97.41 69.54
  Q 99.76 69.02 101.82 69.45
  A 2.53 2.25 -71.7 0 1 103.29 72.85
  C 102.62 74.40 104.01 75.70 103.27 77.54
  C 102.52 79.44 99.07 79.01 97.63 78.62
  Q 97.00 78.45 97.07 77.81
  Q 97.09 77.58 97.22 77.40
  Q 97.44 77.09 97.84 77.07
  Q 99.24 77.01 100.57 77.03
  Q 101.05 77.03 101.28 76.62
  Q 101.49 76.23 101.39 75.77
  Q 101.23 75.02 100.47 75.02
  Z"
/>
<path fill="#d41248" d="
  M 53.00 81.75
  L 54.44 85.38
  Q 54.52 91.36 49.00 91.20
  Q 43.88 91.06 43.91 85.47
  L 45.53 81.59
  L 48.81 74.78
  A 0.41 0.41 0.0 0 1 49.54 74.78
  L 53.00 81.75
  Z"
/>
<path fill="#f9c405" d="
  M 91.57 100.05
  A 16.45 16.45 0.0 0 1 75.12 116.50
  A 16.45 16.45 0.0 0 1 58.67 100.05
  A 16.45 16.45 0.0 0 1 75.12 83.60
  A 16.45 16.45 0.0 0 1 91.57 100.05
  Z
  M 80.80 90.14
  C 86.39 93.81 88.53 99.94 85.12 106.13
  Q 84.45 107.34 85.82 107.47
  L 86.18 107.50
  Q 87.44 107.62 87.87 106.41
  Q 91.82 95.17 82.21 88.42
  A 1.04 1.04 0.0 0 0 80.81 88.61
  Q 80.58 88.90 80.47 89.25
  Q 80.31 89.82 80.80 90.14
  Z
  M 75.70 97.52
  L 73.32 104.04
  A 0.26 0.25 -78.1 0 0 73.54 104.39
  L 74.91 104.45
  A 0.90 0.89 -78.1 0 0 75.80 103.86
  L 78.46 96.45
  A 1.02 1.02 0.0 0 0 77.51 95.08
  L 72.77 95.03
  Q 71.89 95.02 71.81 95.89
  L 71.76 96.37
  A 0.55 0.55 0.0 0 0 72.32 96.97
  L 75.28 96.92
  Q 75.92 96.91 75.70 97.52
  Z"
/>
<path fill="#fcfcfc" d="
  M 85.12 106.13
  C 88.53 99.94 86.39 93.81 80.80 90.14
  Q 80.31 89.82 80.47 89.25
  Q 80.58 88.90 80.81 88.61
  A 1.04 1.04 0.0 0 1 82.21 88.42
  Q 91.82 95.17 87.87 106.41
  Q 87.44 107.62 86.18 107.50
  L 85.82 107.47
  Q 84.45 107.34 85.12 106.13
  Z"
/>
<path fill="#d41248" d="
  M 127.60 107.58
  A 16.45 16.45 0.0 0 1 111.15 124.03
  A 16.45 16.45 0.0 0 1 94.70 107.58
  A 16.45 16.45 0.0 0 1 111.15 91.13
  A 16.45 16.45 0.0 0 1 127.60 107.58
  Z
  M 121.85 112.06
  Q 121.50 112.93 121.11 113.75
  Q 120.63 114.78 121.75 114.97
  Q 122.22 115.05 122.66 114.96
  Q 123.56 114.79 123.86 113.92
  Q 127.79 102.68 118.22 95.92
  A 1.07 1.06 32.0 0 0 116.68 96.27
  L 116.55 96.52
  Q 116.18 97.19 116.81 97.61
  C 121.88 101.04 124.13 106.37 121.85 112.06
  Z
  M 112.44 110.11
  Q 112.35 110.38 112.06 110.39
  L 109.16 110.45
  Q 108.57 110.46 108.48 111.04
  Q 108.45 111.29 108.57 111.52
  Q 108.82 111.96 109.30 112.05
  Q 110.73 112.33 112.31 112.30
  C 115.56 112.24 114.98 106.43 114.54 104.50
  A 1.99 1.98 -2.7 0 0 112.86 102.98
  C 109.88 102.60 108.59 102.72 108.08 105.97
  C 107.65 108.77 110.46 108.85 112.32 108.44
  A 0.44 0.44 0.0 0 1 112.83 109.01
  L 112.44 110.11
  Z"
/>
<path fill="#fcfcfc" d="
  M 75.28 96.92
  L 72.32 96.97
  A 0.55 0.55 0.0 0 1 71.76 96.37
  L 71.81 95.89
  Q 71.89 95.02 72.77 95.03
  L 77.51 95.08
  A 1.02 1.02 0.0 0 1 78.46 96.45
  L 75.80 103.86
  A 0.90 0.89 -78.1 0 1 74.91 104.45
  L 73.54 104.39
  A 0.26 0.25 -78.1 0 1 73.32 104.04
  L 75.70 97.52
  Q 75.92 96.91 75.28 96.92
  Z"
/>
<path fill="#fcfcfc" d="
  M 121.85 112.06
  C 124.13 106.37 121.88 101.04 116.81 97.61
  Q 116.18 97.19 116.55 96.52
  L 116.68 96.27
  A 1.07 1.06 32.0 0 1 118.22 95.92
  Q 127.79 102.68 123.86 113.92
  Q 123.56 114.79 122.66 114.96
  Q 122.22 115.05 121.75 114.97
  Q 120.63 114.78 121.11 113.75
  Q 121.50 112.93 121.85 112.06
  Z"
/>
<path fill="#fcfcfc" d="
  M 112.32 108.44
  C 110.46 108.85 107.65 108.77 108.08 105.97
  C 108.59 102.72 109.88 102.60 112.86 102.98
  A 1.99 1.98 -2.7 0 1 114.54 104.50
  C 114.98 106.43 115.56 112.24 112.31 112.30
  Q 110.73 112.33 109.30 112.05
  Q 108.82 111.96 108.57 111.52
  Q 108.45 111.29 108.48 111.04
  Q 108.57 110.46 109.16 110.45
  L 112.06 110.39
  Q 112.35 110.38 112.44 110.11
  L 112.83 109.01
  A 0.44 0.44 0.0 0 0 112.32 108.44
  Z
  M 112.51 106.17
  Q 112.32 104.88 111.14 104.63
  A 0.57 0.56 -77.0 0 0 110.47 105.05
  L 110.26 105.92
  Q 110.05 106.78 110.93 106.79
  L 111.96 106.80
  Q 112.61 106.81 112.51 106.17
  Z"
/>
<path fill="#d41248" d="
  M 112.51 106.17
  Q 112.61 106.81 111.96 106.80
  L 110.93 106.79
  Q 110.05 106.78 110.26 105.92
  L 110.47 105.05
  A 0.57 0.56 -77.0 0 1 111.14 104.63
  Q 112.32 104.88 112.51 106.17
  Z"
/>
</svg>
