<?xml version="1.0" encoding="UTF-8" standalone="no"?>
<!DOCTYPE svg PUBLIC "-//W3C//DTD SVG 1.1//EN" "http://www.w3.org/Graphics/SVG/1.1/DTD/svg11.dtd">
<svg xmlns="http://www.w3.org/2000/svg" version="1.1" viewBox="0.00 0.00 144.00 144.00">
<g stroke-width="2.00" fill="none" stroke-linecap="butt">
<path stroke="#f8e18e" vector-effect="non-scaling-stroke" d="
  M 34.49 56.29
  Q 28.97 58.74 28.75 63.76
  Q 28.38 72.66 37.71 73.70"
/>
<path stroke="#e887a2" vector-effect="non-scaling-stroke" d="
  M 37.71 73.70
  L 44.89 121.97
  Q 44.97 122.46 45.47 122.47
  L 52.36 122.56"
/>
<path stroke="#f6f8f9" vector-effect="non-scaling-stroke" d="
  M 52.36 122.56
  L 60.27 122.53"
/>
<path stroke="#e887a2" vector-effect="non-scaling-stroke" d="
  M 60.27 122.53
  L 68.06 122.48"
/>
<path stroke="#f6f8f9" vector-effect="non-scaling-stroke" d="
  M 68.06 122.48
  L 75.76 122.68"
/>
<path stroke="#e887a2" vector-effect="non-scaling-stroke" d="
  M 75.76 122.68
  L 83.24 122.70"
/>
<path stroke="#f6f8f9" vector-effect="non-scaling-stroke" d="
  M 83.24 122.70
  L 90.91 122.64"
/>
<path stroke="#e887a2" vector-effect="non-scaling-stroke" d="
  M 90.91 122.64
  L 98.33 122.65
  Q 98.85 122.65 98.93 122.14
  L 106.04 74.53"
/>
<path stroke="#f8e18e" vector-effect="non-scaling-stroke" d="
  M 106.04 74.53
  C 108.67 73.78 108.95 71.90 110.15 69.88
  Q 110.40 69.46 110.86 69.29
  Q 117.16 66.98 117.02 61.27
  Q 116.85 54.73 109.72 53.38"
/>
<path stroke="#fce9a6" vector-effect="non-scaling-stroke" d="
  M 109.72 53.38
  Q 110.35 50.19 108.91 46.97
  Q 108.69 46.49 109.04 46.09
  C 115.04 39.28 107.76 30.01 99.30 34.19"
/>
<path stroke="#f8e18e" vector-effect="non-scaling-stroke" d="
  M 99.30 34.19
  C 99.67 27.41 92.71 23.47 86.90 26.91
  Q 86.48 27.15 86.16 26.80
  C 81.60 21.81 74.17 23.15 71.95 29.57
  Q 71.76 30.11 71.21 30.25
  L 68.06 31.08"
/>
<path stroke="#fce9a6" vector-effect="non-scaling-stroke" d="
  M 68.06 31.08
  Q 69.06 26.73 66.63 23.90
  C 61.78 18.24 52.37 21.67 52.93 29.26
  A 0.59 0.58 -2.2 0 1 52.34 29.89
  Q 48.96 29.90 46.67 32.22
  Q 46.25 32.64 45.72 32.37
  C 40.03 29.45 33.65 33.73 34.67 40.10
  Q 34.76 40.65 34.21 40.71
  C 28.28 41.45 24.97 47.63 28.33 52.68
  Q 30.15 55.41 34.49 56.29"
/>
<path stroke="#f8ce37" vector-effect="non-scaling-stroke" d="
  M 68.06 31.08
  Q 67.05 33.57 64.82 35.44
  Q 64.45 35.75 64.85 36.02
  Q 68.25 38.29 69.18 42.35"
/>
<path stroke="#f0c62e" vector-effect="non-scaling-stroke" d="
  M 69.18 42.35
  Q 68.92 45.31 68.00 46.76
  C 64.46 52.26 56.59 52.19 54.22 45.71
  Q 54.01 45.12 53.40 45.21
  Q 50.86 45.54 48.70 44.40
  Q 48.53 44.31 48.38 44.42
  L 47.04 45.47
  Q 46.87 45.59 47.05 45.70
  Q 55.01 50.61 49.75 58.52"
/>
<path stroke="#f8ce37" vector-effect="non-scaling-stroke" d="
  M 49.75 58.52
  Q 42.27 63.51 37.35 56.53
  Q 37.06 56.11 36.55 56.04
  Q 35.46 55.88 34.49 56.29"
/>
<path stroke="#f8ce37" vector-effect="non-scaling-stroke" d="
  M 99.30 34.19
  Q 96.41 36.23 95.97 39.32
  A 0.92 0.91 15.1 0 1 94.71 40.04
  Q 89.68 37.95 85.55 41.22"
/>
<path stroke="#ecbe16" vector-effect="non-scaling-stroke" d="
  M 85.55 41.22
  Q 81.59 40.02 78.15 42.83
  A 0.79 0.78 37.7 0 1 77.32 42.93
  C 75.36 42.04 73.59 41.61 71.43 42.10
  Q 70.32 42.35 69.18 42.35"
/>
<path stroke="#ecbe16" vector-effect="non-scaling-stroke" d="
  M 100.35 58.57
  Q 97.88 66.12 89.75 64.58
  Q 89.25 64.49 88.82 64.76
  Q 86.31 66.36 83.66 66.90"
/>
<path stroke="#f0c62e" vector-effect="non-scaling-stroke" d="
  M 83.66 66.90
  L 82.29 64.13
  Q 82.04 63.64 82.33 63.18
  Q 85.63 57.79 81.86 53.33
  C 77.22 47.82 68.19 51.46 68.33 58.77
  Q 68.34 59.50 67.66 59.22
  Q 64.14 57.73 60.53 59.35"
/>
<path stroke="#ecbe16" vector-effect="non-scaling-stroke" d="
  M 60.53 59.35
  L 58.64 56.89
  Q 58.32 56.48 57.89 56.79
  Q 54.19 59.47 49.75 58.52"
/>
<path stroke="#f2dc8b" vector-effect="non-scaling-stroke" d="
  M 56.29 69.78
  Q 51.27 67.27 47.02 70.37"
/>
<path stroke="#e46c34" vector-effect="non-scaling-stroke" d="
  M 47.02 70.37
  Q 43.10 67.20 38.33 69.58
  Q 36.84 70.33 37.71 73.70"
/>
<path stroke="#f8ce37" vector-effect="non-scaling-stroke" d="
  M 109.72 53.38
  Q 106.94 59.60 100.35 58.57"
/>
<path stroke="#f0c62e" vector-effect="non-scaling-stroke" d="
  M 100.35 58.57
  Q 96.65 57.33 94.94 53.99
  Q 94.69 53.50 94.18 53.73
  C 90.42 55.45 86.34 54.29 84.25 50.62
  Q 81.65 46.09 85.55 41.22"
/>
<path stroke="#f8ce37" vector-effect="non-scaling-stroke" d="
  M 83.66 66.90
  L 83.54 68.99"
/>
<path stroke="#e8744c" vector-effect="non-scaling-stroke" d="
  M 83.54 68.99
  C 81.41 68.78 77.67 68.68 76.84 70.93"
/>
<path stroke="#f6e5a3" vector-effect="non-scaling-stroke" d="
  M 76.84 70.93
  Q 76.34 69.27 73.85 68.86
  Q 69.52 68.14 66.95 70.34"
/>
<path stroke="#e8744c" vector-effect="non-scaling-stroke" d="
  M 66.95 70.34
  C 64.08 68.09 59.58 68.07 56.98 70.44"
/>
<path stroke="#f6e5a3" vector-effect="non-scaling-stroke" d="
  M 56.98 70.44
  L 56.29 69.78"
/>
<path stroke="#f8ce37" vector-effect="non-scaling-stroke" d="
  M 56.29 69.78
  Q 57.03 69.38 56.88 68.75
  Q 55.44 62.73 60.53 59.35"
/>
<path stroke="#e46c34" vector-effect="non-scaling-stroke" d="
  M 106.04 74.53
  Q 106.15 73.19 106.21 71.93
  Q 106.32 69.58 104.09 69.08
  Q 99.53 68.07 96.54 70.49"
/>
<path stroke="#f2dc8b" vector-effect="non-scaling-stroke" d="
  M 96.54 70.49
  C 94.10 68.00 88.76 68.06 86.53 70.61"
/>
<path stroke="#e46c34" vector-effect="non-scaling-stroke" d="
  M 86.53 70.61
  Q 85.91 69.17 83.54 68.99"
/>
<path stroke="#e2839f" vector-effect="non-scaling-stroke" d="
  M 47.02 70.37
  L 52.36 122.56"
/>
<path stroke="#e2839f" vector-effect="non-scaling-stroke" d="
  M 56.98 70.44
  L 60.27 122.53"
/>
<path stroke="#e2839f" vector-effect="non-scaling-stroke" d="
  M 66.95 70.34
  L 68.06 122.48"
/>
<path stroke="#e2839f" vector-effect="non-scaling-stroke" d="
  M 76.84 70.93
  L 75.76 122.68"
/>
<path stroke="#e2839f" vector-effect="non-scaling-stroke" d="
  M 96.54 70.49
  L 90.91 122.64"
/>
<path stroke="#e2839f" vector-effect="non-scaling-stroke" d="
  M 83.24 122.70
  L 86.53 70.61"
/>
<path stroke="#f6f8f9" vector-effect="non-scaling-stroke" d="
  M 71.5248 75.1498
  A 2.88 0.11 90.7 0 0 71.6700 72.2713
  A 2.88 0.11 90.7 0 0 71.5952 69.3902
  A 2.88 0.11 90.7 0 0 71.4500 72.2687
  A 2.88 0.11 90.7 0 0 71.5248 75.1498"
/>
</g>
<path fill="#fcfcfc" d="
  M 27.89 0.00
  L 116.23 0.00
  Q 118.35 0.54 120.49 0.97
  Q 123.07 1.49 124.66 2.14
  Q 141.65 9.03 144.00 28.16
  L 144.00 115.99
  Q 141.46 136.15 122.50 142.74
  Q 121.15 143.21 115.86 144.00
  L 28.03 144.00
  Q 8.35 141.59 1.83 124.00
  Q 1.20 122.32 0.00 115.86
  L 0.00 28.01
  Q 0.51 26.03 0.86 24.00
  C 2.86 12.60 12.00 3.36 23.29 1.02
  Q 25.60 0.55 27.89 0.00
  Z
  M 34.49 56.29
  Q 28.97 58.74 28.75 63.76
  Q 28.38 72.66 37.71 73.70
  L 44.89 121.97
  Q 44.97 122.46 45.47 122.47
  L 52.36 122.56
  L 60.27 122.53
  L 68.06 122.48
  L 75.76 122.68
  L 83.24 122.70
  L 90.91 122.64
  L 98.33 122.65
  Q 98.85 122.65 98.93 122.14
  L 106.04 74.53
  C 108.67 73.78 108.95 71.90 110.15 69.88
  Q 110.40 69.46 110.86 69.29
  Q 117.16 66.98 117.02 61.27
  Q 116.85 54.73 109.72 53.38
  Q 110.35 50.19 108.91 46.97
  Q 108.69 46.49 109.04 46.09
  C 115.04 39.28 107.76 30.01 99.30 34.19
  C 99.67 27.41 92.71 23.47 86.90 26.91
  Q 86.48 27.15 86.16 26.80
  C 81.60 21.81 74.17 23.15 71.95 29.57
  Q 71.76 30.11 71.21 30.25
  L 68.06 31.08
  Q 69.06 26.73 66.63 23.90
  C 61.78 18.24 52.37 21.67 52.93 29.26
  A 0.59 0.58 -2.2 0 1 52.34 29.89
  Q 48.96 29.90 46.67 32.22
  Q 46.25 32.64 45.72 32.37
  C 40.03 29.45 33.65 33.73 34.67 40.10
  Q 34.76 40.65 34.21 40.71
  C 28.28 41.45 24.97 47.63 28.33 52.68
  Q 30.15 55.41 34.49 56.29
  Z"
/>
<path fill="#fcd64f" d="
  M 68.06 31.08
  Q 67.05 33.57 64.82 35.44
  Q 64.45 35.75 64.85 36.02
  Q 68.25 38.29 69.18 42.35
  Q 68.92 45.31 68.00 46.76
  C 64.46 52.26 56.59 52.19 54.22 45.71
  Q 54.01 45.12 53.40 45.21
  Q 50.86 45.54 48.70 44.40
  Q 48.53 44.31 48.38 44.42
  L 47.04 45.47
  Q 46.87 45.59 47.05 45.70
  Q 55.01 50.61 49.75 58.52
  Q 42.27 63.51 37.35 56.53
  Q 37.06 56.11 36.55 56.04
  Q 35.46 55.88 34.49 56.29
  Q 30.15 55.41 28.33 52.68
  C 24.97 47.63 28.28 41.45 34.21 40.71
  Q 34.76 40.65 34.67 40.10
  C 33.65 33.73 40.03 29.45 45.72 32.37
  Q 46.25 32.64 46.67 32.22
  Q 48.96 29.90 52.34 29.89
  A 0.59 0.58 -2.2 0 0 52.93 29.26
  C 52.37 21.67 61.78 18.24 66.63 23.90
  Q 69.06 26.73 68.06 31.08
  Z"
/>
<path fill="#f4c51f" d="
  M 99.30 34.19
  Q 96.41 36.23 95.97 39.32
  A 0.92 0.91 15.1 0 1 94.71 40.04
  Q 89.68 37.95 85.55 41.22
  Q 81.59 40.02 78.15 42.83
  A 0.79 0.78 37.7 0 1 77.32 42.93
  C 75.36 42.04 73.59 41.61 71.43 42.10
  Q 70.32 42.35 69.18 42.35
  Q 68.25 38.29 64.85 36.02
  Q 64.45 35.75 64.82 35.44
  Q 67.05 33.57 68.06 31.08
  L 71.21 30.25
  Q 71.76 30.11 71.95 29.57
  C 74.17 23.15 81.60 21.81 86.16 26.80
  Q 86.48 27.15 86.90 26.91
  C 92.71 23.47 99.67 27.41 99.30 34.19
  Z"
/>
<path fill="#fcd64f" d="
  M 109.72 53.38
  Q 106.94 59.60 100.35 58.57
  Q 96.65 57.33 94.94 53.99
  Q 94.69 53.50 94.18 53.73
  C 90.42 55.45 86.34 54.29 84.25 50.62
  Q 81.65 46.09 85.55 41.22
  Q 89.68 37.95 94.71 40.04
  A 0.92 0.91 15.1 0 0 95.97 39.32
  Q 96.41 36.23 99.30 34.19
  C 107.76 30.01 115.04 39.28 109.04 46.09
  Q 108.69 46.49 108.91 46.97
  Q 110.35 50.19 109.72 53.38
  Z"
/>
<path fill="#e4b60c" d="
  M 85.55 41.22
  Q 81.65 46.09 84.25 50.62
  C 86.34 54.29 90.42 55.45 94.18 53.73
  Q 94.69 53.50 94.94 53.99
  Q 96.65 57.33 100.35 58.57
  Q 97.88 66.12 89.75 64.58
  Q 89.25 64.49 88.82 64.76
  Q 86.31 66.36 83.66 66.90
  L 82.29 64.13
  Q 82.04 63.64 82.33 63.18
  Q 85.63 57.79 81.86 53.33
  C 77.22 47.82 68.19 51.46 68.33 58.77
  Q 68.34 59.50 67.66 59.22
  Q 64.14 57.73 60.53 59.35
  L 58.64 56.89
  Q 58.32 56.48 57.89 56.79
  Q 54.19 59.47 49.75 58.52
  Q 55.01 50.61 47.05 45.70
  Q 46.87 45.59 47.04 45.47
  L 48.38 44.42
  Q 48.53 44.31 48.70 44.40
  Q 50.86 45.54 53.40 45.21
  Q 54.01 45.12 54.22 45.71
  C 56.59 52.19 64.46 52.26 68.00 46.76
  Q 68.92 45.31 69.18 42.35
  Q 70.32 42.35 71.43 42.10
  C 73.59 41.61 75.36 42.04 77.32 42.93
  A 0.79 0.78 37.7 0 0 78.15 42.83
  Q 81.59 40.02 85.55 41.22
  Z"
/>
<path fill="#fcd64f" d="
  M 83.66 66.90
  L 83.54 68.99
  C 81.41 68.78 77.67 68.68 76.84 70.93
  Q 76.34 69.27 73.85 68.86
  Q 69.52 68.14 66.95 70.34
  C 64.08 68.09 59.58 68.07 56.98 70.44
  L 56.29 69.78
  Q 57.03 69.38 56.88 68.75
  Q 55.44 62.73 60.53 59.35
  Q 64.14 57.73 67.66 59.22
  Q 68.34 59.50 68.33 58.77
  C 68.19 51.46 77.22 47.82 81.86 53.33
  Q 85.63 57.79 82.33 63.18
  Q 82.04 63.64 82.29 64.13
  L 83.66 66.90
  Z"
/>
<path fill="#f4c51f" d="
  M 109.72 53.38
  Q 116.85 54.73 117.02 61.27
  Q 117.16 66.98 110.86 69.29
  Q 110.40 69.46 110.15 69.88
  C 108.95 71.90 108.67 73.78 106.04 74.53
  Q 106.15 73.19 106.21 71.93
  Q 106.32 69.58 104.09 69.08
  Q 99.53 68.07 96.54 70.49
  C 94.10 68.00 88.76 68.06 86.53 70.61
  Q 85.91 69.17 83.54 68.99
  L 83.66 66.90
  Q 86.31 66.36 88.82 64.76
  Q 89.25 64.49 89.75 64.58
  Q 97.88 66.12 100.35 58.57
  Q 106.94 59.60 109.72 53.38
  Z"
/>
<path fill="#f4c51f" d="
  M 49.75 58.52
  Q 54.19 59.47 57.89 56.79
  Q 58.32 56.48 58.64 56.89
  L 60.53 59.35
  Q 55.44 62.73 56.88 68.75
  Q 57.03 69.38 56.29 69.78
  Q 51.27 67.27 47.02 70.37
  Q 43.10 67.20 38.33 69.58
  Q 36.84 70.33 37.71 73.70
  Q 28.38 72.66 28.75 63.76
  Q 28.97 58.74 34.49 56.29
  Q 35.46 55.88 36.55 56.04
  Q 37.06 56.11 37.35 56.53
  Q 42.27 63.51 49.75 58.52
  Z"
/>
<path fill="#d41248" d="
  M 47.02 70.37
  L 52.36 122.56
  L 45.47 122.47
  Q 44.97 122.46 44.89 121.97
  L 37.71 73.70
  Q 36.84 70.33 38.33 69.58
  Q 43.10 67.20 47.02 70.37
  Z"
/>
<path fill="#eff3f6" d="
  M 56.29 69.78
  L 56.98 70.44
  L 60.27 122.53
  L 52.36 122.56
  L 47.02 70.37
  Q 51.27 67.27 56.29 69.78
  Z"
/>
<path fill="#d41248" d="
  M 66.95 70.34
  L 68.06 122.48
  L 60.27 122.53
  L 56.98 70.44
  C 59.58 68.07 64.08 68.09 66.95 70.34
  Z"
/>
<path fill="#eff3f6" d="
  M 76.84 70.93
  L 75.76 122.68
  L 68.06 122.48
  L 66.95 70.34
  Q 69.52 68.14 73.85 68.86
  Q 76.34 69.27 76.84 70.93
  Z
  M 71.5248 75.1498
  A 2.88 0.11 90.7 0 0 71.6700 72.2713
  A 2.88 0.11 90.7 0 0 71.5952 69.3902
  A 2.88 0.11 90.7 0 0 71.4500 72.2687
  A 2.88 0.11 90.7 0 0 71.5248 75.1498
  Z"
/>
<path fill="#eff3f6" d="
  M 96.54 70.49
  L 90.91 122.64
  L 83.24 122.70
  L 86.53 70.61
  C 88.76 68.06 94.10 68.00 96.54 70.49
  Z"
/>
<path fill="#d41248" d="
  M 83.54 68.99
  Q 85.91 69.17 86.53 70.61
  L 83.24 122.70
  L 75.76 122.68
  L 76.84 70.93
  C 77.67 68.68 81.41 68.78 83.54 68.99
  Z"
/>
<path fill="#d41248" d="
  M 106.04 74.53
  L 98.93 122.14
  Q 98.85 122.65 98.33 122.65
  L 90.91 122.64
  L 96.54 70.49
  Q 99.53 68.07 104.09 69.08
  Q 106.32 69.58 106.21 71.93
  Q 106.15 73.19 106.04 74.53
  Z"
/>
<ellipse fill="#fcfcfc" cx="0.00" cy="0.00" transform="translate(71.56,72.27) rotate(90.7)" rx="2.88" ry="0.11"/>
</svg>
