<?xml version="1.0" encoding="UTF-8" standalone="no"?>
<!DOCTYPE svg PUBLIC "-//W3C//DTD SVG 1.1//EN" "http://www.w3.org/Graphics/SVG/1.1/DTD/svg11.dtd">
<svg xmlns="http://www.w3.org/2000/svg" version="1.1" viewBox="0.00 0.00 144.00 144.00">
<g stroke-width="2.00" fill="none" stroke-linecap="butt">
<path stroke="#7ed1ed" vector-effect="non-scaling-stroke" d="
  M 39.94 50.19
  L 50.51 89.47"
/>
<path stroke="#87b0cb" vector-effect="non-scaling-stroke" d="
  M 50.51 89.47
  C 45.33 93.94 46.08 101.43 52.59 104.01
  Q 53.13 104.22 53.00 104.79
  Q 51.81 109.96 55.20 113.26
  C 61.08 118.99 70.89 113.34 68.87 105.30
  Q 68.68 104.56 69.44 104.56
  L 91.24 104.53
  Q 91.95 104.52 91.80 105.22
  Q 90.79 110.01 94.03 113.20
  C 99.96 119.05 109.61 113.30 107.73 105.52
  C 106.43 100.10 102.35 98.93 97.16 98.97
  Q 76.61 99.14 55.28 99.03
  C 52.78 99.02 51.51 95.45 53.74 94.28"
/>
<path stroke="#7ed1ed" vector-effect="non-scaling-stroke" d="
  M 53.74 94.28
  L 108.93 89.08
  A 3.59 3.58 -88.0 0 0 112.13 86.09
  L 117.44 53.50
  A 3.06 3.05 4.7 0 0 114.43 49.96
  L 105.05 49.95"
/>
<path stroke="#a3b0b9" vector-effect="non-scaling-stroke" d="
  M 105.05 49.95
  L 105.08 38.65
  Q 105.09 35.82 102.26 35.82
  L 77.54 35.83
  A 1.99 1.98 0.6 0 0 75.55 37.77
  L 75.46 41.77"
/>
<path stroke="#bec7ce" vector-effect="non-scaling-stroke" d="
  M 75.46 41.77
  Q 67.60 41.94 59.72 41.91
  Q 55.50 41.90 54.08 43.15
  Q 51.81 45.17 52.71 49.90"
/>
<path stroke="#7ed1ed" vector-effect="non-scaling-stroke" d="
  M 52.71 49.90
  L 45.47 49.97"
/>
<path stroke="#87b0cb" vector-effect="non-scaling-stroke" d="
  M 45.47 49.97
  Q 42.38 40.18 39.40 30.47
  C 38.58 27.82 36.89 27.94 34.57 27.92
  Q 29.76 27.86 25.62 28.02
  Q 23.75 28.09 22.77 29.67
  Q 22.42 30.23 22.50 30.82
  Q 22.89 33.49 25.59 33.49
  L 33.98 33.49
  Q 34.50 33.49 34.66 33.98
  L 39.94 50.19"
/>
<path stroke="#0985bc" vector-effect="non-scaling-stroke" d="
  M 45.47 49.97
  L 39.94 50.19"
/>
<path stroke="#0985bc" vector-effect="non-scaling-stroke" d="
  M 53.74 94.28
  C 50.88 94.21 51.32 91.35 50.51 89.47"
/>
<path stroke="#2584aa" vector-effect="non-scaling-stroke" d="
  M 105.05 49.95
  L 75.32 49.96"
/>
<path stroke="#657b8b" vector-effect="non-scaling-stroke" d="
  M 75.32 49.96
  L 75.46 41.77"
/>
<path stroke="#409cbf" vector-effect="non-scaling-stroke" d="
  M 75.32 49.96
  L 52.71 49.90"
/>
<path stroke="#657b8b" vector-effect="non-scaling-stroke" d="
  M 90.45 36.90
  Q 90.25 36.91 90.26 37.11
  Q 90.50 42.72 90.23 48.53
  Q 90.22 48.81 90.50 48.82
  L 90.75 48.82
  A 0.02 0.02 0.0 0 0 90.77 48.80
  Q 90.70 42.88 90.69 37.14
  Q 90.69 36.90 90.45 36.90
  L 90.45 36.90"
/>
<path stroke="#7ed1ed" vector-effect="non-scaling-stroke" d="
  M 83.1005 64.0703
  A 2.67 2.67 0.0 0 0 80.4212 61.4097
  L 80.2012 61.4104
  A 2.67 2.67 0.0 0 0 77.5406 64.0897
  L 77.5795 75.2297
  A 2.67 2.67 0.0 0 0 80.2588 77.8903
  L 80.4788 77.8896
  A 2.67 2.67 0.0 0 0 83.1394 75.2103
  L 83.1005 64.0703"
/>
<path stroke="#7ed1ed" vector-effect="non-scaling-stroke" d="
  M 67.76 64.04
  A 2.64 2.64 0.0 0 0 65.12 61.40
  L 64.90 61.40
  A 2.64 2.64 0.0 0 0 62.26 64.04
  L 62.26 75.26
  A 2.64 2.64 0.0 0 0 64.90 77.90
  L 65.12 77.90
  A 2.64 2.64 0.0 0 0 67.76 75.26
  L 67.76 64.04"
/>
<path stroke="#7ed1ed" vector-effect="non-scaling-stroke" d="
  M 96.97 64.06
  A 2.65 2.65 0.0 0 0 94.32 61.41
  L 94.12 61.41
  A 2.65 2.65 0.0 0 0 91.47 64.06
  L 91.47 75.26
  A 2.65 2.65 0.0 0 0 94.12 77.91
  L 94.32 77.91
  A 2.65 2.65 0.0 0 0 96.97 75.26
  L 96.97 64.06"
/>
<path stroke="#87b0cb" vector-effect="non-scaling-stroke" d="
  M 63.83 107.35
  A 2.72 2.72 0.0 0 0 61.11 104.63
  A 2.72 2.72 0.0 0 0 58.39 107.35
  A 2.72 2.72 0.0 0 0 61.11 110.07
  A 2.72 2.72 0.0 0 0 63.83 107.35"
/>
<path stroke="#87b0cb" vector-effect="non-scaling-stroke" d="
  M 102.46 107.34
  A 2.73 2.73 0.0 0 0 99.73 104.61
  A 2.73 2.73 0.0 0 0 97.00 107.34
  A 2.73 2.73 0.0 0 0 99.73 110.07
  A 2.73 2.73 0.0 0 0 102.46 107.34"
/>
</g>
<path fill="#fcfcfc" d="
  M 27.36 0.00
  L 116.74 0.00
  Q 140.15 3.97 144.00 27.37
  L 144.00 116.74
  Q 140.05 140.17 116.63 144.00
  L 27.24 144.00
  Q 3.97 140.03 0.00 116.60
  L 0.00 27.28
  Q 4.06 3.86 27.36 0.00
  Z
  M 39.94 50.19
  L 50.51 89.47
  C 45.33 93.94 46.08 101.43 52.59 104.01
  Q 53.13 104.22 53.00 104.79
  Q 51.81 109.96 55.20 113.26
  C 61.08 118.99 70.89 113.34 68.87 105.30
  Q 68.68 104.56 69.44 104.56
  L 91.24 104.53
  Q 91.95 104.52 91.80 105.22
  Q 90.79 110.01 94.03 113.20
  C 99.96 119.05 109.61 113.30 107.73 105.52
  C 106.43 100.10 102.35 98.93 97.16 98.97
  Q 76.61 99.14 55.28 99.03
  C 52.78 99.02 51.51 95.45 53.74 94.28
  L 108.93 89.08
  A 3.59 3.58 -88.0 0 0 112.13 86.09
  L 117.44 53.50
  A 3.06 3.05 4.7 0 0 114.43 49.96
  L 105.05 49.95
  L 105.08 38.65
  Q 105.09 35.82 102.26 35.82
  L 77.54 35.83
  A 1.99 1.98 0.6 0 0 75.55 37.77
  L 75.46 41.77
  Q 67.60 41.94 59.72 41.91
  Q 55.50 41.90 54.08 43.15
  Q 51.81 45.17 52.71 49.90
  L 45.47 49.97
  Q 42.38 40.18 39.40 30.47
  C 38.58 27.82 36.89 27.94 34.57 27.92
  Q 29.76 27.86 25.62 28.02
  Q 23.75 28.09 22.77 29.67
  Q 22.42 30.23 22.50 30.82
  Q 22.89 33.49 25.59 33.49
  L 33.98 33.49
  Q 34.50 33.49 34.66 33.98
  L 39.94 50.19
  Z"
/>
<path fill="#126499" d="
  M 45.47 49.97
  L 39.94 50.19
  L 34.66 33.98
  Q 34.50 33.49 33.98 33.49
  L 25.59 33.49
  Q 22.89 33.49 22.50 30.82
  Q 22.42 30.23 22.77 29.67
  Q 23.75 28.09 25.62 28.02
  Q 29.76 27.86 34.57 27.92
  C 36.89 27.94 38.58 27.82 39.40 30.47
  Q 42.38 40.18 45.47 49.97
  Z"
/>
<path fill="#4a6375" d="
  M 105.05 49.95
  L 75.32 49.96
  L 75.46 41.77
  L 75.55 37.77
  A 1.99 1.98 0.6 0 1 77.54 35.83
  L 102.26 35.82
  Q 105.09 35.82 105.08 38.65
  L 105.05 49.95
  Z
  M 90.45 36.90
  Q 90.25 36.91 90.26 37.11
  Q 90.50 42.72 90.23 48.53
  Q 90.22 48.81 90.50 48.82
  L 90.75 48.82
  A 0.02 0.02 0.0 0 0 90.77 48.80
  Q 90.70 42.88 90.69 37.14
  Q 90.69 36.90 90.45 36.90
  L 90.45 36.90
  Z"
/>
<path fill="#8092a0" d="
  M 90.69 37.14
  Q 90.70 42.88 90.77 48.80
  A 0.02 0.02 0.0 0 1 90.75 48.82
  L 90.50 48.82
  Q 90.22 48.81 90.23 48.53
  Q 90.50 42.72 90.26 37.11
  Q 90.25 36.91 90.45 36.90
  L 90.45 36.90
  Q 90.69 36.90 90.69 37.14
  Z"
/>
<path fill="#8092a0" d="
  M 75.46 41.77
  L 75.32 49.96
  L 52.71 49.90
  Q 51.81 45.17 54.08 43.15
  Q 55.50 41.90 59.72 41.91
  Q 67.60 41.94 75.46 41.77
  Z"
/>
<path fill="#00a5de" d="
  M 52.71 49.90
  L 75.32 49.96
  L 105.05 49.95
  L 114.43 49.96
  A 3.06 3.05 4.7 0 1 117.44 53.50
  L 112.13 86.09
  A 3.59 3.58 -88.0 0 1 108.93 89.08
  L 53.74 94.28
  C 50.88 94.21 51.32 91.35 50.51 89.47
  L 39.94 50.19
  L 45.47 49.97
  L 52.71 49.90
  Z
  M 83.1005 64.0703
  A 2.67 2.67 0.0 0 0 80.4212 61.4097
  L 80.2012 61.4104
  A 2.67 2.67 0.0 0 0 77.5406 64.0897
  L 77.5795 75.2297
  A 2.67 2.67 0.0 0 0 80.2588 77.8903
  L 80.4788 77.8896
  A 2.67 2.67 0.0 0 0 83.1394 75.2103
  L 83.1005 64.0703
  Z
  M 67.76 64.04
  A 2.64 2.64 0.0 0 0 65.12 61.40
  L 64.90 61.40
  A 2.64 2.64 0.0 0 0 62.26 64.04
  L 62.26 75.26
  A 2.64 2.64 0.0 0 0 64.90 77.90
  L 65.12 77.90
  A 2.64 2.64 0.0 0 0 67.76 75.26
  L 67.76 64.04
  Z
  M 96.97 64.06
  A 2.65 2.65 0.0 0 0 94.32 61.41
  L 94.12 61.41
  A 2.65 2.65 0.0 0 0 91.47 64.06
  L 91.47 75.26
  A 2.65 2.65 0.0 0 0 94.12 77.91
  L 94.32 77.91
  A 2.65 2.65 0.0 0 0 96.97 75.26
  L 96.97 64.06
  Z"
/>
<rect fill="#fcfcfc" x="-2.78" y="-8.24" transform="translate(80.34,69.65) rotate(-0.2)" width="5.56" height="16.48" rx="2.67"/>
<rect fill="#fcfcfc" x="62.26" y="61.40" width="5.50" height="16.50" rx="2.64"/>
<rect fill="#fcfcfc" x="91.47" y="61.41" width="5.50" height="16.50" rx="2.65"/>
<path fill="#126499" d="
  M 50.51 89.47
  C 51.32 91.35 50.88 94.21 53.74 94.28
  C 51.51 95.45 52.78 99.02 55.28 99.03
  Q 76.61 99.14 97.16 98.97
  C 102.35 98.93 106.43 100.10 107.73 105.52
  C 109.61 113.30 99.96 119.05 94.03 113.20
  Q 90.79 110.01 91.80 105.22
  Q 91.95 104.52 91.24 104.53
  L 69.44 104.56
  Q 68.68 104.56 68.87 105.30
  C 70.89 113.34 61.08 118.99 55.20 113.26
  Q 51.81 109.96 53.00 104.79
  Q 53.13 104.22 52.59 104.01
  C 46.08 101.43 45.33 93.94 50.51 89.47
  Z
  M 63.83 107.35
  A 2.72 2.72 0.0 0 0 61.11 104.63
  A 2.72 2.72 0.0 0 0 58.39 107.35
  A 2.72 2.72 0.0 0 0 61.11 110.07
  A 2.72 2.72 0.0 0 0 63.83 107.35
  Z
  M 102.46 107.34
  A 2.73 2.73 0.0 0 0 99.73 104.61
  A 2.73 2.73 0.0 0 0 97.00 107.34
  A 2.73 2.73 0.0 0 0 99.73 110.07
  A 2.73 2.73 0.0 0 0 102.46 107.34
  Z"
/>
<circle fill="#fcfcfc" cx="61.11" cy="107.35" r="2.72"/>
<circle fill="#fcfcfc" cx="99.73" cy="107.34" r="2.73"/>
</svg>
