<?xml version="1.0" encoding="UTF-8" standalone="no"?>
<!DOCTYPE svg PUBLIC "-//W3C//DTD SVG 1.1//EN" "http://www.w3.org/Graphics/SVG/1.1/DTD/svg11.dtd">
<svg xmlns="http://www.w3.org/2000/svg" version="1.1" viewBox="0.00 0.00 144.00 144.00">
<g stroke-width="2.00" fill="none" stroke-linecap="butt">
<path stroke="#7eaac7" vector-effect="non-scaling-stroke" d="
  M 59.51 56.82
  Q 55.04 56.98 53.50 56.87
  C 50.85 56.68 49.34 57.94 49.45 60.54
  Q 49.57 63.50 49.48 66.27
  Q 49.46 66.74 49.06 66.98
  C 44.52 69.78 42.30 74.07 42.42 79.35
  Q 42.66 89.29 42.42 100.28
  C 42.30 105.82 44.21 110.40 48.96 113.28
  A 1.13 1.12 15.8 0 1 49.50 114.24
  L 49.50 120.25
  A 3.25 3.25 0.0 0 0 52.75 123.50
  L 79.72 123.50
  Q 82.08 123.50 80.22 122.05
  C 72.80 116.29 70.07 106.27 74.61 98.08
  Q 80.96 86.62 94.45 87.92
  Q 95.01 87.97 95.03 87.41
  L 95.19 83.08"
/>
<path stroke="#bce6f8" vector-effect="non-scaling-stroke" d="
  M 95.19 83.08
  L 95.12 64.41"
/>
<path stroke="#7eaac7" vector-effect="non-scaling-stroke" d="
  M 95.12 64.41
  Q 95.20 62.57 95.11 60.64
  Q 94.99 58.15 93.74 57.37
  Q 92.29 56.45 89.62 56.81"
/>
<path stroke="#9ba3a6" vector-effect="non-scaling-stroke" d="
  M 89.62 56.81
  L 94.66 42.78
  Q 94.87 42.19 95.47 42.40
  Q 100.23 44.15 104.50 45.55
  C 112.08 48.03 118.83 41.27 116.45 33.56
  C 115.56 30.70 112.73 28.52 109.94 27.79
  Q 103.88 26.21 97.26 24.59
  A 2.85 2.84 16.6 0 0 93.90 26.40
  L 83.15 56.81"
/>
<path stroke="#7eaac7" vector-effect="non-scaling-stroke" d="
  M 83.15 56.81
  L 68.58 56.79"
/>
<path stroke="#a1abae" vector-effect="non-scaling-stroke" d="
  M 68.58 56.79
  L 68.74 40.54
  Q 68.74 40.00 69.27 39.97
  Q 73.76 39.70 78.20 39.74
  C 88.79 39.84 92.41 26.71 82.94 21.99
  Q 80.55 20.80 76.02 21.29
  Q 70.54 21.90 64.84 22.55
  A 2.81 2.81 0.0 0 0 62.35 25.39
  L 62.69 48.50
  Q 62.72 50.03 62.02 48.67
  L 48.89 23.18
  Q 47.29 20.08 44.08 21.44
  Q 39.50 23.37 34.32 25.28
  C 30.26 26.78 27.27 29.46 27.07 33.95
  C 26.76 40.64 33.48 46.03 39.70 43.11
  Q 44.56 40.82 49.04 38.63
  Q 49.64 38.33 49.96 38.92
  L 59.51 56.82"
/>
<path stroke="#235979" vector-effect="non-scaling-stroke" d="
  M 68.58 56.79
  L 59.51 56.82"
/>
<path stroke="#3e94c3" vector-effect="non-scaling-stroke" d="
  M 95.12 64.41
  L 72.45 64.42
  A 2.07 2.07 0.0 0 0 70.38 66.49
  L 70.37 80.48
  Q 70.37 83.07 72.97 83.07
  L 95.19 83.08"
/>
<path stroke="#1d5171" vector-effect="non-scaling-stroke" d="
  M 89.62 56.81
  L 83.15 56.81"
/>
<path stroke="#bce6f8" vector-effect="non-scaling-stroke" d="
  M 99.78 120.43
  C 103.34 120.77 106.71 114.13 107.65 111.17
  Q 108.10 109.76 108.01 108.21
  Q 107.98 107.77 107.59 107.58
  Q 107.28 107.42 107.21 107.09
  Q 107.08 106.46 107.70 106.33
  Q 108.23 106.22 108.18 105.68
  Q 107.42 98.34 101.47 93.45
  Q 100.92 93.00 100.50 93.57
  Q 100.41 93.70 100.26 93.78
  Q 99.99 93.92 99.68 93.80
  Q 99.49 93.73 99.39 93.56
  Q 99.13 93.12 99.63 93.01
  Q 99.92 92.94 99.93 92.67
  A 0.52 0.50 13.0 0 0 99.62 92.19
  Q 86.53 86.78 78.33 96.64
  Q 75.57 99.95 74.88 105.04
  Q 74.81 105.59 75.11 106.04
  Q 75.22 106.21 75.38 106.33
  Q 75.91 106.71 75.70 107.33
  Q 75.60 107.61 75.31 107.65
  Q 74.69 107.73 74.78 108.35
  Q 75.86 115.82 81.10 119.88
  Q 81.94 120.53 83.04 120.44
  Q 83.42 120.41 83.38 120.80
  Q 83.29 121.59 84.15 121.94
  Q 91.56 124.99 98.88 121.97
  Q 99.80 121.59 99.60 120.63
  Q 99.56 120.40 99.78 120.43"
/>
<path stroke="#7eaac7" vector-effect="non-scaling-stroke" d="
  M 49.51 72.22
  A 0.52 0.52 0.0 0 0 48.53 71.97
  L 45.84 76.89
  A 0.52 0.52 0.0 0 0 45.78 77.14
  L 45.76 103.26
  A 0.52 0.52 0.0 0 0 45.83 103.52
  L 48.54 108.37
  A 0.52 0.52 0.0 0 0 49.51 108.12
  L 49.51 72.22"
/>
<path stroke="#bce6f8" vector-effect="non-scaling-stroke" d="
  M 89.4375 92.5791
  A 0.95 0.79 -17.2 0 0 88.2964 92.1053
  A 0.95 0.79 -17.2 0 0 87.6225 93.1409
  A 0.95 0.79 -17.2 0 0 88.7636 93.6147
  A 0.95 0.79 -17.2 0 0 89.4375 92.5791"
/>
<path stroke="#bce6f8" vector-effect="non-scaling-stroke" d="
  M 94.61 93.86
  A 0.55 0.54 10.9 0 0 95.37 93.35
  Q 95.33 92.15 93.94 92.08
  A 0.54 0.54 0.0 0 0 93.45 92.90
  Q 93.83 93.52 94.61 93.86"
/>
<path stroke="#bce6f8" vector-effect="non-scaling-stroke" d="
  M 82.55 93.19
  A 0.30 0.30 0.0 0 0 82.46 93.70
  Q 82.97 94.15 83.60 93.86
  Q 84.00 93.67 83.74 93.31
  Q 83.43 92.88 82.55 93.19"
/>
<path stroke="#bce6f8" vector-effect="non-scaling-stroke" d="
  M 92.9290 96.2253
  A 1.51 1.15 2.1 0 0 91.4621 95.0208
  A 1.51 1.15 2.1 0 0 89.9110 96.1147
  A 1.51 1.15 2.1 0 0 91.3779 97.3192
  A 1.51 1.15 2.1 0 0 92.9290 96.2253"
/>
<path stroke="#bce6f8" vector-effect="non-scaling-stroke" d="
  M 99.3217 97.1903
  A 1.50 1.05 27.4 0 0 98.4732 95.5678
  A 1.50 1.05 27.4 0 0 96.6583 95.8097
  A 1.50 1.05 27.4 0 0 97.5068 97.4322
  A 1.50 1.05 27.4 0 0 99.3217 97.1903"
/>
<path stroke="#bce6f8" vector-effect="non-scaling-stroke" d="
  M 86.3203 95.9808
  A 1.48 1.04 -22.2 0 0 84.5570 95.5771
  A 1.48 1.04 -22.2 0 0 83.5797 97.0992
  A 1.48 1.04 -22.2 0 0 85.3430 97.5029
  A 1.48 1.04 -22.2 0 0 86.3203 95.9808"
/>
<path stroke="#bce6f8" vector-effect="non-scaling-stroke" d="
  M 104.0928 98.4703
  A 1.19 0.52 53.8 0 0 103.8096 97.2029
  A 1.19 0.52 53.8 0 0 102.6872 96.5497
  A 1.19 0.52 53.8 0 0 102.9704 97.8171
  A 1.19 0.52 53.8 0 0 104.0928 98.4703"
/>
<path stroke="#bce6f8" vector-effect="non-scaling-stroke" d="
  M 79.1808 98.4284
  A 0.96 0.64 117.9 0 0 80.1956 97.8795
  A 0.96 0.64 117.9 0 0 80.0792 96.7316
  A 0.96 0.64 117.9 0 0 79.0644 97.2805
  A 0.96 0.64 117.9 0 0 79.1808 98.4284"
/>
<path stroke="#bce6f8" vector-effect="non-scaling-stroke" d="
  M 89.6979 100.2544
  A 2.08 1.87 -21.3 0 0 87.0807 99.2677
  A 2.08 1.87 -21.3 0 0 85.8221 101.7656
  A 2.08 1.87 -21.3 0 0 88.4393 102.7523
  A 2.08 1.87 -21.3 0 0 89.6979 100.2544"
/>
<path stroke="#bce6f8" vector-effect="non-scaling-stroke" d="
  M 96.9762 102.0157
  A 2.08 1.86 28.6 0 0 96.0404 99.3870
  A 2.08 1.86 28.6 0 0 93.3238 100.0243
  A 2.08 1.86 28.6 0 0 94.2596 102.6530
  A 2.08 1.86 28.6 0 0 96.9762 102.0157"
/>
<path stroke="#bce6f8" vector-effect="non-scaling-stroke" d="
  M 80.4280 102.9279
  A 1.60 1.18 122.6 0 0 82.2841 102.2157
  A 1.60 1.18 122.6 0 0 82.1520 100.2321
  A 1.60 1.18 122.6 0 0 80.2959 100.9443
  A 1.60 1.18 122.6 0 0 80.4280 102.9279"
/>
<path stroke="#bce6f8" vector-effect="non-scaling-stroke" d="
  M 102.2795 102.7156
  A 1.49 1.28 62.0 0 0 102.7102 100.7991
  A 1.49 1.28 62.0 0 0 100.8805 100.0844
  A 1.49 1.28 62.0 0 0 100.4498 102.0009
  A 1.49 1.28 62.0 0 0 102.2795 102.7156"
/>
<path stroke="#bce6f8" vector-effect="non-scaling-stroke" d="
  M 77.66 102.36
  Q 77.99 101.87 77.71 101.42
  A 0.32 0.31 53.7 0 0 77.23 101.34
  Q 76.60 101.91 76.19 102.72
  Q 75.91 103.30 76.54 103.16
  Q 77.24 102.99 77.66 102.36"
/>
<path stroke="#bce6f8" vector-effect="non-scaling-stroke" d="
  M 106.70 102.35
  L 105.87 101.61
  Q 105.49 101.27 105.32 101.76
  Q 105.14 102.30 105.50 102.74
  Q 105.89 103.22 106.47 103.13
  A 0.45 0.45 0.0 0 0 106.70 102.35"
/>
<path stroke="#bce6f8" vector-effect="non-scaling-stroke" d="
  M 86.06 106.78
  A 1.97 1.97 0.0 0 0 84.09 104.81
  A 1.97 1.97 0.0 0 0 82.12 106.78
  A 1.97 1.97 0.0 0 0 84.09 108.75
  A 1.97 1.97 0.0 0 0 86.06 106.78"
/>
<path stroke="#bce6f8" vector-effect="non-scaling-stroke" d="
  M 93.50 106.78
  A 2.13 2.13 0.0 0 0 91.37 104.65
  A 2.13 2.13 0.0 0 0 89.24 106.78
  A 2.13 2.13 0.0 0 0 91.37 108.91
  A 2.13 2.13 0.0 0 0 93.50 106.78"
/>
<path stroke="#bce6f8" vector-effect="non-scaling-stroke" d="
  M 100.72 106.89
  A 1.99 1.99 0.0 0 0 98.73 104.90
  A 1.99 1.99 0.0 0 0 96.74 106.89
  A 1.99 1.99 0.0 0 0 98.73 108.88
  A 1.99 1.99 0.0 0 0 100.72 106.89"
/>
<path stroke="#bce6f8" vector-effect="non-scaling-stroke" d="
  M 78.4439 108.2874
  A 1.41 0.96 93.5 0 0 79.4882 106.9386
  A 1.41 0.96 93.5 0 0 78.6161 105.4726
  A 1.41 0.96 93.5 0 0 77.5718 106.8214
  A 1.41 0.96 93.5 0 0 78.4439 108.2874"
/>
<path stroke="#bce6f8" vector-effect="non-scaling-stroke" d="
  M 104.4972 108.2812
  A 1.41 0.99 83.6 0 0 105.3238 106.7696
  A 1.41 0.99 83.6 0 0 104.1828 105.4788
  A 1.41 0.99 83.6 0 0 103.3562 106.9904
  A 1.41 0.99 83.6 0 0 104.4972 108.2812"
/>
<path stroke="#bce6f8" vector-effect="non-scaling-stroke" d="
  M 76.84 111.96
  Q 77.11 112.31 77.50 112.35
  A 0.33 0.33 0.0 0 0 77.85 111.94
  Q 77.59 110.89 76.50 110.59
  A 0.40 0.40 0.0 0 0 76.03 111.13
  Q 76.17 111.48 76.53 111.68
  Q 76.71 111.79 76.84 111.96"
/>
<path stroke="#bce6f8" vector-effect="non-scaling-stroke" d="
  M 105.39 111.92
  Q 105.37 112.58 105.92 112.22
  Q 106.43 111.88 106.72 111.31
  Q 107.04 110.68 106.35 110.56
  Q 106.07 110.51 105.90 110.70
  Q 105.41 111.20 105.39 111.92"
/>
<path stroke="#bce6f8" vector-effect="non-scaling-stroke" d="
  M 81.7852 113.6005
  A 1.47 1.20 69.9 0 0 82.4069 111.8076
  A 1.47 1.20 69.9 0 0 80.7748 110.8395
  A 1.47 1.20 69.9 0 0 80.1531 112.6324
  A 1.47 1.20 69.9 0 0 81.7852 113.6005"
/>
<path stroke="#bce6f8" vector-effect="non-scaling-stroke" d="
  M 89.4892 113.8068
  A 2.10 1.89 33.1 0 0 88.7621 111.0767
  A 2.10 1.89 33.1 0 0 85.9708 111.5132
  A 2.10 1.89 33.1 0 0 86.6979 114.2433
  A 2.10 1.89 33.1 0 0 89.4892 113.8068"
/>
<path stroke="#bce6f8" vector-effect="non-scaling-stroke" d="
  M 97.13 112.66
  A 2.01 2.01 0.0 0 0 95.12 110.65
  A 2.01 2.01 0.0 0 0 93.11 112.66
  A 2.01 2.01 0.0 0 0 95.12 114.67
  A 2.01 2.01 0.0 0 0 97.13 112.66"
/>
<path stroke="#bce6f8" vector-effect="non-scaling-stroke" d="
  M 100.7660 113.5294
  A 1.60 1.13 127.5 0 0 102.6365 112.9479
  A 1.60 1.13 127.5 0 0 102.7140 110.9906
  A 1.60 1.13 127.5 0 0 100.8435 111.5721
  A 1.60 1.13 127.5 0 0 100.7660 113.5294"
/>
<path stroke="#bce6f8" vector-effect="non-scaling-stroke" d="
  M 79.04 115.84
  Q 78.75 116.53 79.30 117.09
  A 0.55 0.54 -59.8 0 0 80.21 116.85
  Q 80.38 116.21 79.87 115.68
  A 0.51 0.50 33.9 0 0 79.04 115.84"
/>
<path stroke="#bce6f8" vector-effect="non-scaling-stroke" d="
  M 104.06 116.70
  Q 104.10 116.26 103.90 115.89
  Q 103.56 115.25 103.07 115.79
  Q 102.82 116.06 102.76 116.42
  Q 102.63 117.06 103.28 117.18
  Q 103.47 117.21 103.66 117.17
  Q 104.02 117.08 104.06 116.70"
/>
<path stroke="#bce6f8" vector-effect="non-scaling-stroke" d="
  M 86.2062 117.9021
  A 1.52 1.08 21.3 0 0 85.1823 116.3438
  A 1.52 1.08 21.3 0 0 83.3738 116.7979
  A 1.52 1.08 21.3 0 0 84.3977 118.3562
  A 1.52 1.08 21.3 0 0 86.2062 117.9021"
/>
<path stroke="#bce6f8" vector-effect="non-scaling-stroke" d="
  M 99.4193 116.8075
  A 1.50 1.08 -24.1 0 0 97.6090 116.4341
  A 1.50 1.08 -24.1 0 0 96.6807 118.0325
  A 1.50 1.08 -24.1 0 0 98.4910 118.4059
  A 1.50 1.08 -24.1 0 0 99.4193 116.8075"
/>
<path stroke="#bce6f8" vector-effect="non-scaling-stroke" d="
  M 92.9365 117.8134
  A 1.52 1.22 3.9 0 0 91.5030 116.4928
  A 1.52 1.22 3.9 0 0 89.9035 117.6066
  A 1.52 1.22 3.9 0 0 91.3370 118.9272
  A 1.52 1.22 3.9 0 0 92.9365 117.8134"
/>
<path stroke="#bce6f8" vector-effect="non-scaling-stroke" d="
  M 89.14 120.71
  Q 88.40 120.16 87.74 120.56
  A 0.61 0.60 54.7 0 0 87.59 121.47
  Q 88.18 122.17 88.98 121.87
  A 0.66 0.66 0.0 0 0 89.14 120.71"
/>
<path stroke="#bce6f8" vector-effect="non-scaling-stroke" d="
  M 93.92 120.82
  Q 92.48 121.98 94.33 121.81
  Q 94.78 121.77 95.17 121.54
  A 0.51 0.51 0.0 0 0 95.09 120.62
  Q 94.46 120.39 93.92 120.82"
/>
</g>
<path fill="#fcfcfc" d="
  M 27.61 0.00
  L 116.50 0.00
  Q 140.27 3.84 144.00 27.62
  L 144.00 116.50
  Q 140.13 140.24 116.39 144.00
  L 27.48 144.00
  Q 3.85 140.17 0.00 116.36
  L 0.00 27.52
  Q 3.92 3.74 27.61 0.00
  Z
  M 59.51 56.82
  Q 55.04 56.98 53.50 56.87
  C 50.85 56.68 49.34 57.94 49.45 60.54
  Q 49.57 63.50 49.48 66.27
  Q 49.46 66.74 49.06 66.98
  C 44.52 69.78 42.30 74.07 42.42 79.35
  Q 42.66 89.29 42.42 100.28
  C 42.30 105.82 44.21 110.40 48.96 113.28
  A 1.13 1.12 15.8 0 1 49.50 114.24
  L 49.50 120.25
  A 3.25 3.25 0.0 0 0 52.75 123.50
  L 79.72 123.50
  Q 82.08 123.50 80.22 122.05
  C 72.80 116.29 70.07 106.27 74.61 98.08
  Q 80.96 86.62 94.45 87.92
  Q 95.01 87.97 95.03 87.41
  L 95.19 83.08
  L 95.12 64.41
  Q 95.20 62.57 95.11 60.64
  Q 94.99 58.15 93.74 57.37
  Q 92.29 56.45 89.62 56.81
  L 94.66 42.78
  Q 94.87 42.19 95.47 42.40
  Q 100.23 44.15 104.50 45.55
  C 112.08 48.03 118.83 41.27 116.45 33.56
  C 115.56 30.70 112.73 28.52 109.94 27.79
  Q 103.88 26.21 97.26 24.59
  A 2.85 2.84 16.6 0 0 93.90 26.40
  L 83.15 56.81
  L 68.58 56.79
  L 68.74 40.54
  Q 68.74 40.00 69.27 39.97
  Q 73.76 39.70 78.20 39.74
  C 88.79 39.84 92.41 26.71 82.94 21.99
  Q 80.55 20.80 76.02 21.29
  Q 70.54 21.90 64.84 22.55
  A 2.81 2.81 0.0 0 0 62.35 25.39
  L 62.69 48.50
  Q 62.72 50.03 62.02 48.67
  L 48.89 23.18
  Q 47.29 20.08 44.08 21.44
  Q 39.50 23.37 34.32 25.28
  C 30.26 26.78 27.27 29.46 27.07 33.95
  C 26.76 40.64 33.48 46.03 39.70 43.11
  Q 44.56 40.82 49.04 38.63
  Q 49.64 38.33 49.96 38.92
  L 59.51 56.82
  Z
  M 99.78 120.43
  C 103.34 120.77 106.71 114.13 107.65 111.17
  Q 108.10 109.76 108.01 108.21
  Q 107.98 107.77 107.59 107.58
  Q 107.28 107.42 107.21 107.09
  Q 107.08 106.46 107.70 106.33
  Q 108.23 106.22 108.18 105.68
  Q 107.42 98.34 101.47 93.45
  Q 100.92 93.00 100.50 93.57
  Q 100.41 93.70 100.26 93.78
  Q 99.99 93.92 99.68 93.80
  Q 99.49 93.73 99.39 93.56
  Q 99.13 93.12 99.63 93.01
  Q 99.92 92.94 99.93 92.67
  A 0.52 0.50 13.0 0 0 99.62 92.19
  Q 86.53 86.78 78.33 96.64
  Q 75.57 99.95 74.88 105.04
  Q 74.81 105.59 75.11 106.04
  Q 75.22 106.21 75.38 106.33
  Q 75.91 106.71 75.70 107.33
  Q 75.60 107.61 75.31 107.65
  Q 74.69 107.73 74.78 108.35
  Q 75.86 115.82 81.10 119.88
  Q 81.94 120.53 83.04 120.44
  Q 83.42 120.41 83.38 120.80
  Q 83.29 121.59 84.15 121.94
  Q 91.56 124.99 98.88 121.97
  Q 99.80 121.59 99.60 120.63
  Q 99.56 120.40 99.78 120.43
  Z"
/>
<path fill="#455960" d="
  M 68.58 56.79
  L 59.51 56.82
  L 49.96 38.92
  Q 49.64 38.33 49.04 38.63
  Q 44.56 40.82 39.70 43.11
  C 33.48 46.03 26.76 40.64 27.07 33.95
  C 27.27 29.46 30.26 26.78 34.32 25.28
  Q 39.50 23.37 44.08 21.44
  Q 47.29 20.08 48.89 23.18
  L 62.02 48.67
  Q 62.72 50.03 62.69 48.50
  L 62.35 25.39
  A 2.81 2.81 0.0 0 1 64.84 22.55
  Q 70.54 21.90 76.02 21.29
  Q 80.55 20.80 82.94 21.99
  C 92.41 26.71 88.79 39.84 78.20 39.74
  Q 73.76 39.70 69.27 39.97
  Q 68.74 40.00 68.74 40.54
  L 68.58 56.79
  Z"
/>
<path fill="#3a4950" d="
  M 89.62 56.81
  L 83.15 56.81
  L 93.90 26.40
  A 2.85 2.84 16.6 0 1 97.26 24.59
  Q 103.88 26.21 109.94 27.79
  C 112.73 28.52 115.56 30.70 116.45 33.56
  C 118.83 41.27 112.08 48.03 104.50 45.55
  Q 100.23 44.15 95.47 42.40
  Q 94.87 42.19 94.66 42.78
  L 89.62 56.81
  Z"
/>
<path fill="#005891" d="
  M 89.62 56.81
  Q 92.29 56.45 93.74 57.37
  Q 94.99 58.15 95.11 60.64
  Q 95.20 62.57 95.12 64.41
  L 72.45 64.42
  A 2.07 2.07 0.0 0 0 70.38 66.49
  L 70.37 80.48
  Q 70.37 83.07 72.97 83.07
  L 95.19 83.08
  L 95.03 87.41
  Q 95.01 87.97 94.45 87.92
  Q 80.96 86.62 74.61 98.08
  C 70.07 106.27 72.80 116.29 80.22 122.05
  Q 82.08 123.50 79.72 123.50
  L 52.75 123.50
  A 3.25 3.25 0.0 0 1 49.50 120.25
  L 49.50 114.24
  A 1.13 1.12 15.8 0 0 48.96 113.28
  C 44.21 110.40 42.30 105.82 42.42 100.28
  Q 42.66 89.29 42.42 79.35
  C 42.30 74.07 44.52 69.78 49.06 66.98
  Q 49.46 66.74 49.48 66.27
  Q 49.57 63.50 49.45 60.54
  C 49.34 57.94 50.85 56.68 53.50 56.87
  Q 55.04 56.98 59.51 56.82
  L 68.58 56.79
  L 83.15 56.81
  L 89.62 56.81
  Z
  M 49.51 72.22
  A 0.52 0.52 0.0 0 0 48.53 71.97
  L 45.84 76.89
  A 0.52 0.52 0.0 0 0 45.78 77.14
  L 45.76 103.26
  A 0.52 0.52 0.0 0 0 45.83 103.52
  L 48.54 108.37
  A 0.52 0.52 0.0 0 0 49.51 108.12
  L 49.51 72.22
  Z"
/>
<path fill="#7cd0f4" d="
  M 95.12 64.41
  L 95.19 83.08
  L 72.97 83.07
  Q 70.37 83.07 70.37 80.48
  L 70.38 66.49
  A 2.07 2.07 0.0 0 1 72.45 64.42
  L 95.12 64.41
  Z"
/>
<path fill="#fcfcfc" d="
  M 49.51 72.22
  L 49.51 108.12
  A 0.52 0.52 0.0 0 1 48.54 108.37
  L 45.83 103.52
  A 0.52 0.52 0.0 0 1 45.76 103.26
  L 45.78 77.14
  A 0.52 0.52 0.0 0 1 45.84 76.89
  L 48.53 71.97
  A 0.52 0.52 0.0 0 1 49.51 72.22
  Z"
/>
<path fill="#7cd0f4" d="
  M 99.60 120.63
  Q 99.80 121.59 98.88 121.97
  Q 91.56 124.99 84.15 121.94
  Q 83.29 121.59 83.38 120.80
  Q 83.42 120.41 83.04 120.44
  Q 81.94 120.53 81.10 119.88
  Q 75.86 115.82 74.78 108.35
  Q 74.69 107.73 75.31 107.65
  Q 75.60 107.61 75.70 107.33
  Q 75.91 106.71 75.38 106.33
  Q 75.22 106.21 75.11 106.04
  Q 74.81 105.59 74.88 105.04
  Q 75.57 99.95 78.33 96.64
  Q 86.53 86.78 99.62 92.19
  A 0.52 0.50 13.0 0 1 99.93 92.67
  Q 99.92 92.94 99.63 93.01
  Q 99.13 93.12 99.39 93.56
  Q 99.49 93.73 99.68 93.80
  Q 99.99 93.92 100.26 93.78
  Q 100.41 93.70 100.50 93.57
  Q 100.92 93.00 101.47 93.45
  Q 107.42 98.34 108.18 105.68
  Q 108.23 106.22 107.70 106.33
  Q 107.08 106.46 107.21 107.09
  Q 107.28 107.42 107.59 107.58
  Q 107.98 107.77 108.01 108.21
  Q 108.10 109.76 107.65 111.17
  C 106.71 114.13 103.34 120.77 99.78 120.43
  Q 99.56 120.40 99.60 120.63
  Z
  M 89.4375 92.5791
  A 0.95 0.79 -17.2 0 0 88.2964 92.1053
  A 0.95 0.79 -17.2 0 0 87.6225 93.1409
  A 0.95 0.79 -17.2 0 0 88.7636 93.6147
  A 0.95 0.79 -17.2 0 0 89.4375 92.5791
  Z
  M 94.61 93.86
  A 0.55 0.54 10.9 0 0 95.37 93.35
  Q 95.33 92.15 93.94 92.08
  A 0.54 0.54 0.0 0 0 93.45 92.90
  Q 93.83 93.52 94.61 93.86
  Z
  M 82.55 93.19
  A 0.30 0.30 0.0 0 0 82.46 93.70
  Q 82.97 94.15 83.60 93.86
  Q 84.00 93.67 83.74 93.31
  Q 83.43 92.88 82.55 93.19
  Z
  M 92.9290 96.2253
  A 1.51 1.15 2.1 0 0 91.4621 95.0208
  A 1.51 1.15 2.1 0 0 89.9110 96.1147
  A 1.51 1.15 2.1 0 0 91.3779 97.3192
  A 1.51 1.15 2.1 0 0 92.9290 96.2253
  Z
  M 99.3217 97.1903
  A 1.50 1.05 27.4 0 0 98.4732 95.5678
  A 1.50 1.05 27.4 0 0 96.6583 95.8097
  A 1.50 1.05 27.4 0 0 97.5068 97.4322
  A 1.50 1.05 27.4 0 0 99.3217 97.1903
  Z
  M 86.3203 95.9808
  A 1.48 1.04 -22.2 0 0 84.5570 95.5771
  A 1.48 1.04 -22.2 0 0 83.5797 97.0992
  A 1.48 1.04 -22.2 0 0 85.3430 97.5029
  A 1.48 1.04 -22.2 0 0 86.3203 95.9808
  Z
  M 104.0928 98.4703
  A 1.19 0.52 53.8 0 0 103.8096 97.2029
  A 1.19 0.52 53.8 0 0 102.6872 96.5497
  A 1.19 0.52 53.8 0 0 102.9704 97.8171
  A 1.19 0.52 53.8 0 0 104.0928 98.4703
  Z
  M 79.1808 98.4284
  A 0.96 0.64 117.9 0 0 80.1956 97.8795
  A 0.96 0.64 117.9 0 0 80.0792 96.7316
  A 0.96 0.64 117.9 0 0 79.0644 97.2805
  A 0.96 0.64 117.9 0 0 79.1808 98.4284
  Z
  M 89.6979 100.2544
  A 2.08 1.87 -21.3 0 0 87.0807 99.2677
  A 2.08 1.87 -21.3 0 0 85.8221 101.7656
  A 2.08 1.87 -21.3 0 0 88.4393 102.7523
  A 2.08 1.87 -21.3 0 0 89.6979 100.2544
  Z
  M 96.9762 102.0157
  A 2.08 1.86 28.6 0 0 96.0404 99.3870
  A 2.08 1.86 28.6 0 0 93.3238 100.0243
  A 2.08 1.86 28.6 0 0 94.2596 102.6530
  A 2.08 1.86 28.6 0 0 96.9762 102.0157
  Z
  M 80.4280 102.9279
  A 1.60 1.18 122.6 0 0 82.2841 102.2157
  A 1.60 1.18 122.6 0 0 82.1520 100.2321
  A 1.60 1.18 122.6 0 0 80.2959 100.9443
  A 1.60 1.18 122.6 0 0 80.4280 102.9279
  Z
  M 102.2795 102.7156
  A 1.49 1.28 62.0 0 0 102.7102 100.7991
  A 1.49 1.28 62.0 0 0 100.8805 100.0844
  A 1.49 1.28 62.0 0 0 100.4498 102.0009
  A 1.49 1.28 62.0 0 0 102.2795 102.7156
  Z
  M 77.66 102.36
  Q 77.99 101.87 77.71 101.42
  A 0.32 0.31 53.7 0 0 77.23 101.34
  Q 76.60 101.91 76.19 102.72
  Q 75.91 103.30 76.54 103.16
  Q 77.24 102.99 77.66 102.36
  Z
  M 106.70 102.35
  L 105.87 101.61
  Q 105.49 101.27 105.32 101.76
  Q 105.14 102.30 105.50 102.74
  Q 105.89 103.22 106.47 103.13
  A 0.45 0.45 0.0 0 0 106.70 102.35
  Z
  M 86.06 106.78
  A 1.97 1.97 0.0 0 0 84.09 104.81
  A 1.97 1.97 0.0 0 0 82.12 106.78
  A 1.97 1.97 0.0 0 0 84.09 108.75
  A 1.97 1.97 0.0 0 0 86.06 106.78
  Z
  M 93.50 106.78
  A 2.13 2.13 0.0 0 0 91.37 104.65
  A 2.13 2.13 0.0 0 0 89.24 106.78
  A 2.13 2.13 0.0 0 0 91.37 108.91
  A 2.13 2.13 0.0 0 0 93.50 106.78
  Z
  M 100.72 106.89
  A 1.99 1.99 0.0 0 0 98.73 104.90
  A 1.99 1.99 0.0 0 0 96.74 106.89
  A 1.99 1.99 0.0 0 0 98.73 108.88
  A 1.99 1.99 0.0 0 0 100.72 106.89
  Z
  M 78.4439 108.2874
  A 1.41 0.96 93.5 0 0 79.4882 106.9386
  A 1.41 0.96 93.5 0 0 78.6161 105.4726
  A 1.41 0.96 93.5 0 0 77.5718 106.8214
  A 1.41 0.96 93.5 0 0 78.4439 108.2874
  Z
  M 104.4972 108.2812
  A 1.41 0.99 83.6 0 0 105.3238 106.7696
  A 1.41 0.99 83.6 0 0 104.1828 105.4788
  A 1.41 0.99 83.6 0 0 103.3562 106.9904
  A 1.41 0.99 83.6 0 0 104.4972 108.2812
  Z
  M 76.84 111.96
  Q 77.11 112.31 77.50 112.35
  A 0.33 0.33 0.0 0 0 77.85 111.94
  Q 77.59 110.89 76.50 110.59
  A 0.40 0.40 0.0 0 0 76.03 111.13
  Q 76.17 111.48 76.53 111.68
  Q 76.71 111.79 76.84 111.96
  Z
  M 105.39 111.92
  Q 105.37 112.58 105.92 112.22
  Q 106.43 111.88 106.72 111.31
  Q 107.04 110.68 106.35 110.56
  Q 106.07 110.51 105.90 110.70
  Q 105.41 111.20 105.39 111.92
  Z
  M 81.7852 113.6005
  A 1.47 1.20 69.9 0 0 82.4069 111.8076
  A 1.47 1.20 69.9 0 0 80.7748 110.8395
  A 1.47 1.20 69.9 0 0 80.1531 112.6324
  A 1.47 1.20 69.9 0 0 81.7852 113.6005
  Z
  M 89.4892 113.8068
  A 2.10 1.89 33.1 0 0 88.7621 111.0767
  A 2.10 1.89 33.1 0 0 85.9708 111.5132
  A 2.10 1.89 33.1 0 0 86.6979 114.2433
  A 2.10 1.89 33.1 0 0 89.4892 113.8068
  Z
  M 97.13 112.66
  A 2.01 2.01 0.0 0 0 95.12 110.65
  A 2.01 2.01 0.0 0 0 93.11 112.66
  A 2.01 2.01 0.0 0 0 95.12 114.67
  A 2.01 2.01 0.0 0 0 97.13 112.66
  Z
  M 100.7660 113.5294
  A 1.60 1.13 127.5 0 0 102.6365 112.9479
  A 1.60 1.13 127.5 0 0 102.7140 110.9906
  A 1.60 1.13 127.5 0 0 100.8435 111.5721
  A 1.60 1.13 127.5 0 0 100.7660 113.5294
  Z
  M 79.04 115.84
  Q 78.75 116.53 79.30 117.09
  A 0.55 0.54 -59.8 0 0 80.21 116.85
  Q 80.38 116.21 79.87 115.68
  A 0.51 0.50 33.9 0 0 79.04 115.84
  Z
  M 104.06 116.70
  Q 104.10 116.26 103.90 115.89
  Q 103.56 115.25 103.07 115.79
  Q 102.82 116.06 102.76 116.42
  Q 102.63 117.06 103.28 117.18
  Q 103.47 117.21 103.66 117.17
  Q 104.02 117.08 104.06 116.70
  Z
  M 86.2062 117.9021
  A 1.52 1.08 21.3 0 0 85.1823 116.3438
  A 1.52 1.08 21.3 0 0 83.3738 116.7979
  A 1.52 1.08 21.3 0 0 84.3977 118.3562
  A 1.52 1.08 21.3 0 0 86.2062 117.9021
  Z
  M 99.4193 116.8075
  A 1.50 1.08 -24.1 0 0 97.6090 116.4341
  A 1.50 1.08 -24.1 0 0 96.6807 118.0325
  A 1.50 1.08 -24.1 0 0 98.4910 118.4059
  A 1.50 1.08 -24.1 0 0 99.4193 116.8075
  Z
  M 92.9365 117.8134
  A 1.52 1.22 3.9 0 0 91.5030 116.4928
  A 1.52 1.22 3.9 0 0 89.9035 117.6066
  A 1.52 1.22 3.9 0 0 91.3370 118.9272
  A 1.52 1.22 3.9 0 0 92.9365 117.8134
  Z
  M 89.14 120.71
  Q 88.40 120.16 87.74 120.56
  A 0.61 0.60 54.7 0 0 87.59 121.47
  Q 88.18 122.17 88.98 121.87
  A 0.66 0.66 0.0 0 0 89.14 120.71
  Z
  M 93.92 120.82
  Q 92.48 121.98 94.33 121.81
  Q 94.78 121.77 95.17 121.54
  A 0.51 0.51 0.0 0 0 95.09 120.62
  Q 94.46 120.39 93.92 120.82
  Z"
/>
<ellipse fill="#fcfcfc" cx="0.00" cy="0.00" transform="translate(88.53,92.86) rotate(-17.2)" rx="0.95" ry="0.79"/>
<path fill="#fcfcfc" d="
  M 94.61 93.86
  Q 93.83 93.52 93.45 92.90
  A 0.54 0.54 0.0 0 1 93.94 92.08
  Q 95.33 92.15 95.37 93.35
  A 0.55 0.54 10.9 0 1 94.61 93.86
  Z"
/>
<path fill="#fcfcfc" d="
  M 82.55 93.19
  Q 83.43 92.88 83.74 93.31
  Q 84.00 93.67 83.60 93.86
  Q 82.97 94.15 82.46 93.70
  A 0.30 0.30 0.0 0 1 82.55 93.19
  Z"
/>
<ellipse fill="#fcfcfc" cx="0.00" cy="0.00" transform="translate(91.42,96.17) rotate(2.1)" rx="1.51" ry="1.15"/>
<ellipse fill="#fcfcfc" cx="0.00" cy="0.00" transform="translate(97.99,96.50) rotate(27.4)" rx="1.50" ry="1.05"/>
<ellipse fill="#fcfcfc" cx="0.00" cy="0.00" transform="translate(84.95,96.54) rotate(-22.2)" rx="1.48" ry="1.04"/>
<ellipse fill="#fcfcfc" cx="0.00" cy="0.00" transform="translate(103.39,97.51) rotate(53.8)" rx="1.19" ry="0.52"/>
<ellipse fill="#fcfcfc" cx="0.00" cy="0.00" transform="translate(79.63,97.58) rotate(117.9)" rx="0.96" ry="0.64"/>
<ellipse fill="#fcfcfc" cx="0.00" cy="0.00" transform="translate(87.76,101.01) rotate(-21.3)" rx="2.08" ry="1.87"/>
<ellipse fill="#fcfcfc" cx="0.00" cy="0.00" transform="translate(95.15,101.02) rotate(28.6)" rx="2.08" ry="1.86"/>
<ellipse fill="#fcfcfc" cx="0.00" cy="0.00" transform="translate(81.29,101.58) rotate(122.6)" rx="1.60" ry="1.18"/>
<ellipse fill="#fcfcfc" cx="0.00" cy="0.00" transform="translate(101.58,101.40) rotate(62.0)" rx="1.49" ry="1.28"/>
<path fill="#fcfcfc" d="
  M 77.66 102.36
  Q 77.24 102.99 76.54 103.16
  Q 75.91 103.30 76.19 102.72
  Q 76.60 101.91 77.23 101.34
  A 0.32 0.31 53.7 0 1 77.71 101.42
  Q 77.99 101.87 77.66 102.36
  Z"
/>
<path fill="#fcfcfc" d="
  M 106.70 102.35
  A 0.45 0.45 0.0 0 1 106.47 103.13
  Q 105.89 103.22 105.50 102.74
  Q 105.14 102.30 105.32 101.76
  Q 105.49 101.27 105.87 101.61
  L 106.70 102.35
  Z"
/>
<circle fill="#fcfcfc" cx="84.09" cy="106.78" r="1.97"/>
<circle fill="#fcfcfc" cx="91.37" cy="106.78" r="2.13"/>
<circle fill="#fcfcfc" cx="98.73" cy="106.89" r="1.99"/>
<ellipse fill="#fcfcfc" cx="0.00" cy="0.00" transform="translate(78.53,106.88) rotate(93.5)" rx="1.41" ry="0.96"/>
<ellipse fill="#fcfcfc" cx="0.00" cy="0.00" transform="translate(104.34,106.88) rotate(83.6)" rx="1.41" ry="0.99"/>
<path fill="#fcfcfc" d="
  M 76.53 111.68
  Q 76.17 111.48 76.03 111.13
  A 0.40 0.40 0.0 0 1 76.50 110.59
  Q 77.59 110.89 77.85 111.94
  A 0.33 0.33 0.0 0 1 77.50 112.35
  Q 77.11 112.31 76.84 111.96
  Q 76.71 111.79 76.53 111.68
  Z"
/>
<path fill="#fcfcfc" d="
  M 105.39 111.92
  Q 105.41 111.20 105.90 110.70
  Q 106.07 110.51 106.35 110.56
  Q 107.04 110.68 106.72 111.31
  Q 106.43 111.88 105.92 112.22
  Q 105.37 112.58 105.39 111.92
  Z"
/>
<ellipse fill="#fcfcfc" cx="0.00" cy="0.00" transform="translate(81.28,112.22) rotate(69.9)" rx="1.47" ry="1.20"/>
<ellipse fill="#fcfcfc" cx="0.00" cy="0.00" transform="translate(87.73,112.66) rotate(33.1)" rx="2.10" ry="1.89"/>
<circle fill="#fcfcfc" cx="95.12" cy="112.66" r="2.01"/>
<ellipse fill="#fcfcfc" cx="0.00" cy="0.00" transform="translate(101.74,112.26) rotate(127.5)" rx="1.60" ry="1.13"/>
<path fill="#fcfcfc" d="
  M 79.04 115.84
  A 0.51 0.50 33.9 0 1 79.87 115.68
  Q 80.38 116.21 80.21 116.85
  A 0.55 0.54 -59.8 0 1 79.30 117.09
  Q 78.75 116.53 79.04 115.84
  Z"
/>
<path fill="#fcfcfc" d="
  M 104.06 116.70
  Q 104.02 117.08 103.66 117.17
  Q 103.47 117.21 103.28 117.18
  Q 102.63 117.06 102.76 116.42
  Q 102.82 116.06 103.07 115.79
  Q 103.56 115.25 103.90 115.89
  Q 104.10 116.26 104.06 116.70
  Z"
/>
<ellipse fill="#fcfcfc" cx="0.00" cy="0.00" transform="translate(84.79,117.35) rotate(21.3)" rx="1.52" ry="1.08"/>
<ellipse fill="#fcfcfc" cx="0.00" cy="0.00" transform="translate(98.05,117.42) rotate(-24.1)" rx="1.50" ry="1.08"/>
<ellipse fill="#fcfcfc" cx="0.00" cy="0.00" transform="translate(91.42,117.71) rotate(3.9)" rx="1.52" ry="1.22"/>
<path fill="#fcfcfc" d="
  M 89.14 120.71
  A 0.66 0.66 0.0 0 1 88.98 121.87
  Q 88.18 122.17 87.59 121.47
  A 0.61 0.60 54.7 0 1 87.74 120.56
  Q 88.40 120.16 89.14 120.71
  Z"
/>
<path fill="#fcfcfc" d="
  M 93.92 120.82
  Q 94.46 120.39 95.09 120.62
  A 0.51 0.51 0.0 0 1 95.17 121.54
  Q 94.78 121.77 94.33 121.81
  Q 92.48 121.98 93.92 120.82
  Z"
/>
</svg>
