<?xml version="1.0" encoding="UTF-8" standalone="no"?>
<!DOCTYPE svg PUBLIC "-//W3C//DTD SVG 1.1//EN" "http://www.w3.org/Graphics/SVG/1.1/DTD/svg11.dtd">
<svg xmlns="http://www.w3.org/2000/svg" version="1.1" viewBox="0.00 0.00 144.00 144.00">
<g stroke-width="2.00" fill="none" stroke-linecap="butt">
<path stroke="#e887a2" vector-effect="non-scaling-stroke" d="
  M 107.70 35.92
  Q 97.65 36.02 88.00 35.91
  Q 82.76 35.85 79.78 37.31
  Q 72.22 41.01 71.99 49.70
  C 71.94 51.52 71.67 54.57 72.74 56.12
  C 73.70 57.53 75.46 57.01 76.00 55.50
  C 76.49 54.13 76.44 52.83 77.09 51.47
  Q 78.73 48.06 83.20 48.06
  Q 96.92 48.04 107.65 48.05
  Q 108.22 48.05 108.25 48.62
  Q 108.36 50.99 108.20 53.79
  Q 108.11 55.34 108.93 56.29
  A 2.10 2.09 -42.3 0 0 111.97 56.43
  L 125.31 43.56
  A 2.17 2.16 -45.1 0 0 125.31 40.45
  L 111.97 27.58
  A 2.13 2.12 -34.6 0 0 109.64 27.16
  Q 108.36 27.72 108.31 29.14
  Q 108.20 32.26 108.31 35.29
  Q 108.33 35.92 107.70 35.92"
/>
<path stroke="#7eaac7" vector-effect="non-scaling-stroke" d="
  M 126.0344 67.9043
  A 8.73 8.73 0.0 0 0 117.3197 59.1591
  L 26.7798 59.0010
  A 8.73 8.73 0.0 0 0 18.0346 67.7158
  L 17.9656 107.2557
  A 8.73 8.73 0.0 0 0 26.6803 116.0009
  L 117.2202 116.1590
  A 8.73 8.73 0.0 0 0 125.9654 107.4442
  L 126.0344 67.9043"
/>
<path stroke="#017eb7" vector-effect="non-scaling-stroke" d="
  M 121.50 69.61
  A 6.05 6.05 0.0 0 0 115.45 63.56
  L 28.55 63.56
  A 6.05 6.05 0.0 0 0 22.50 69.61
  L 22.50 105.55
  A 6.05 6.05 0.0 0 0 28.55 111.60
  L 115.45 111.60
  A 6.05 6.05 0.0 0 0 121.50 105.55
  L 121.50 69.61"
/>
<path stroke="#017eb7" vector-effect="non-scaling-stroke" d="
  M 119.39 69.65
  A 3.91 3.91 0.0 0 0 115.48 65.74
  L 28.50 65.74
  A 3.91 3.91 0.0 0 0 24.59 69.65
  L 24.59 105.59
  A 3.91 3.91 0.0 0 0 28.50 109.50
  L 115.48 109.50
  A 3.91 3.91 0.0 0 0 119.39 105.59
  L 119.39 69.65"
/>
<path stroke="#7eaac7" vector-effect="non-scaling-stroke" d="
  M 88.0400 87.5746
  A 14.58 14.23 -0.1 0 0 73.4352 73.3700
  A 14.58 14.23 -0.1 0 0 58.8800 87.6254
  A 14.58 14.23 -0.1 0 0 73.4848 101.8300
  A 14.58 14.23 -0.1 0 0 88.0400 87.5746"
/>
<path stroke="#7eaac7" vector-effect="non-scaling-stroke" d="
  M 40.49 87.75
  A 3.74 3.74 0.0 0 0 36.75 84.01
  A 3.74 3.74 0.0 0 0 33.01 87.75
  A 3.74 3.74 0.0 0 0 36.75 91.49
  A 3.74 3.74 0.0 0 0 40.49 87.75"
/>
<path stroke="#7eaac7" vector-effect="non-scaling-stroke" d="
  M 110.97 87.75
  A 3.74 3.74 0.0 0 0 107.23 84.01
  A 3.74 3.74 0.0 0 0 103.49 87.75
  A 3.74 3.74 0.0 0 0 107.23 91.49
  A 3.74 3.74 0.0 0 0 110.97 87.75"
/>
<path stroke="#7eaac7" vector-effect="non-scaling-stroke" d="
  M 85.49 87.60
  A 11.99 11.99 0.0 0 0 73.50 75.61
  A 11.99 11.99 0.0 0 0 61.51 87.60
  A 11.99 11.99 0.0 0 0 73.50 99.59
  A 11.99 11.99 0.0 0 0 85.49 87.60"
/>
</g>
<path fill="#fcfcfc" d="
  M 27.88 0.00
  L 116.24 0.00
  Q 140.33 3.80 144.00 27.87
  L 144.00 115.74
  Q 141.64 136.08 122.50 142.73
  Q 120.91 143.29 115.62 144.00
  L 28.26 144.00
  Q 23.08 143.27 21.50 142.73
  Q 2.37 136.10 0.00 115.59
  L 0.00 27.75
  Q 3.75 3.70 27.88 0.00
  Z
  M 107.70 35.92
  Q 97.65 36.02 88.00 35.91
  Q 82.76 35.85 79.78 37.31
  Q 72.22 41.01 71.99 49.70
  C 71.94 51.52 71.67 54.57 72.74 56.12
  C 73.70 57.53 75.46 57.01 76.00 55.50
  C 76.49 54.13 76.44 52.83 77.09 51.47
  Q 78.73 48.06 83.20 48.06
  Q 96.92 48.04 107.65 48.05
  Q 108.22 48.05 108.25 48.62
  Q 108.36 50.99 108.20 53.79
  Q 108.11 55.34 108.93 56.29
  A 2.10 2.09 -42.3 0 0 111.97 56.43
  L 125.31 43.56
  A 2.17 2.16 -45.1 0 0 125.31 40.45
  L 111.97 27.58
  A 2.13 2.12 -34.6 0 0 109.64 27.16
  Q 108.36 27.72 108.31 29.14
  Q 108.20 32.26 108.31 35.29
  Q 108.33 35.92 107.70 35.92
  Z
  M 126.0344 67.9043
  A 8.73 8.73 0.0 0 0 117.3197 59.1591
  L 26.7798 59.0010
  A 8.73 8.73 0.0 0 0 18.0346 67.7158
  L 17.9656 107.2557
  A 8.73 8.73 0.0 0 0 26.6803 116.0009
  L 117.2202 116.1590
  A 8.73 8.73 0.0 0 0 125.9654 107.4442
  L 126.0344 67.9043
  Z"
/>
<path fill="#d41148" d="
  M 108.31 35.29
  Q 108.20 32.26 108.31 29.14
  Q 108.36 27.72 109.64 27.16
  A 2.13 2.12 -34.6 0 1 111.97 27.58
  L 125.31 40.45
  A 2.17 2.16 -45.1 0 1 125.31 43.56
  L 111.97 56.43
  A 2.10 2.09 -42.3 0 1 108.93 56.29
  Q 108.11 55.34 108.20 53.79
  Q 108.36 50.99 108.25 48.62
  Q 108.22 48.05 107.65 48.05
  Q 96.92 48.04 83.20 48.06
  Q 78.73 48.06 77.09 51.47
  C 76.44 52.83 76.49 54.13 76.00 55.50
  C 75.46 57.01 73.70 57.53 72.74 56.12
  C 71.67 54.57 71.94 51.52 71.99 49.70
  Q 72.22 41.01 79.78 37.31
  Q 82.76 35.85 88.00 35.91
  Q 97.65 36.02 107.70 35.92
  Q 108.33 35.92 108.31 35.29
  Z"
/>
<path fill="#005891" d="
  M 125.9654 107.4442
  A 8.73 8.73 0.0 0 1 117.2202 116.1590
  L 26.6803 116.0009
  A 8.73 8.73 0.0 0 1 17.9656 107.2557
  L 18.0346 67.7158
  A 8.73 8.73 0.0 0 1 26.7798 59.0010
  L 117.3197 59.1591
  A 8.73 8.73 0.0 0 1 126.0344 67.9043
  L 125.9654 107.4442
  Z
  M 121.50 69.61
  A 6.05 6.05 0.0 0 0 115.45 63.56
  L 28.55 63.56
  A 6.05 6.05 0.0 0 0 22.50 69.61
  L 22.50 105.55
  A 6.05 6.05 0.0 0 0 28.55 111.60
  L 115.45 111.60
  A 6.05 6.05 0.0 0 0 121.50 105.55
  L 121.50 69.61
  Z"
/>
<path fill="#01a4dd" d="
  M 121.50 105.55
  A 6.05 6.05 0.0 0 1 115.45 111.60
  L 28.55 111.60
  A 6.05 6.05 0.0 0 1 22.50 105.55
  L 22.50 69.61
  A 6.05 6.05 0.0 0 1 28.55 63.56
  L 115.45 63.56
  A 6.05 6.05 0.0 0 1 121.50 69.61
  L 121.50 105.55
  Z
  M 119.39 69.65
  A 3.91 3.91 0.0 0 0 115.48 65.74
  L 28.50 65.74
  A 3.91 3.91 0.0 0 0 24.59 69.65
  L 24.59 105.59
  A 3.91 3.91 0.0 0 0 28.50 109.50
  L 115.48 109.50
  A 3.91 3.91 0.0 0 0 119.39 105.59
  L 119.39 69.65
  Z"
/>
<path fill="#005891" d="
  M 119.39 105.59
  A 3.91 3.91 0.0 0 1 115.48 109.50
  L 28.50 109.50
  A 3.91 3.91 0.0 0 1 24.59 105.59
  L 24.59 69.65
  A 3.91 3.91 0.0 0 1 28.50 65.74
  L 115.48 65.74
  A 3.91 3.91 0.0 0 1 119.39 69.65
  L 119.39 105.59
  Z
  M 88.0400 87.5746
  A 14.58 14.23 -0.1 0 0 73.4352 73.3700
  A 14.58 14.23 -0.1 0 0 58.8800 87.6254
  A 14.58 14.23 -0.1 0 0 73.4848 101.8300
  A 14.58 14.23 -0.1 0 0 88.0400 87.5746
  Z
  M 40.49 87.75
  A 3.74 3.74 0.0 0 0 36.75 84.01
  A 3.74 3.74 0.0 0 0 33.01 87.75
  A 3.74 3.74 0.0 0 0 36.75 91.49
  A 3.74 3.74 0.0 0 0 40.49 87.75
  Z
  M 110.97 87.75
  A 3.74 3.74 0.0 0 0 107.23 84.01
  A 3.74 3.74 0.0 0 0 103.49 87.75
  A 3.74 3.74 0.0 0 0 107.23 91.49
  A 3.74 3.74 0.0 0 0 110.97 87.75
  Z"
/>
<path fill="#fcfcfc" d="
  M 88.0400 87.5746
  A 14.58 14.23 -0.1 0 1 73.4848 101.8300
  A 14.58 14.23 -0.1 0 1 58.8800 87.6254
  A 14.58 14.23 -0.1 0 1 73.4352 73.3700
  A 14.58 14.23 -0.1 0 1 88.0400 87.5746
  Z
  M 85.49 87.60
  A 11.99 11.99 0.0 0 0 73.50 75.61
  A 11.99 11.99 0.0 0 0 61.51 87.60
  A 11.99 11.99 0.0 0 0 73.50 99.59
  A 11.99 11.99 0.0 0 0 85.49 87.60
  Z"
/>
<circle fill="#005891" cx="73.50" cy="87.60" r="11.99"/>
<circle fill="#fcfcfc" cx="36.75" cy="87.75" r="3.74"/>
<circle fill="#fcfcfc" cx="107.23" cy="87.75" r="3.74"/>
</svg>
