<?xml version="1.0" encoding="UTF-8" standalone="no"?>
<!DOCTYPE svg PUBLIC "-//W3C//DTD SVG 1.1//EN" "http://www.w3.org/Graphics/SVG/1.1/DTD/svg11.dtd">
<svg xmlns="http://www.w3.org/2000/svg" version="1.1" viewBox="0.00 0.00 145.00 145.00">
<g stroke-width="2.00" fill="none" stroke-linecap="butt">
<path stroke="#dd89a1" vector-effect="non-scaling-stroke" d="
  M 48.19 48.46
  Q 35.36 54.65 30.40 68.00
  Q 30.21 68.52 29.65 68.43
  C 21.01 67.07 18.66 80.04 28.09 81.58
  Q 28.61 81.66 28.65 82.19
  Q 29.51 92.38 33.78 99.64
  Q 38.82 108.18 44.61 117.15
  Q 44.99 117.74 45.69 117.74
  L 54.21 117.74
  Q 54.88 117.74 54.88 117.07
  L 54.87 108.48
  Q 54.87 107.82 55.53 107.82
  L 77.10 107.81
  Q 77.72 107.81 78.07 108.34
  L 84.01 117.23
  A 1.15 1.14 73.1 0 0 84.96 117.74
  L 93.77 117.72
  Q 94.25 117.72 94.25 117.23
  L 94.25 105.97
  Q 94.25 105.35 94.84 105.18
  C 98.51 104.13 102.16 103.38 105.36 101.37
  Q 117.72 93.62 126.43 82.38
  A 2.72 2.72 0.0 0 0 127.01 80.70
  L 127.01 69.01
  Q 127.01 68.32 126.32 68.30
  Q 114.59 67.96 105.62 59.97
  Q 105.27 59.65 105.41 59.20
  Q 106.71 55.23 109.94 52.12
  A 0.92 0.92 0.0 0 0 110.20 51.23
  L 109.10 46.73
  A 1.12 1.11 1.5 0 0 108.32 45.92
  C 102.63 44.34 96.21 46.13 91.72 49.70
  Q 91.30 50.04 90.82 49.80
  Q 82.35 45.55 72.34 45.20"
/>
<path stroke="#ecc382" vector-effect="non-scaling-stroke" d="
  M 72.34 45.20
  Q 74.39 37.70 70.39 32.39
  C 66.84 27.68 60.36 25.59 54.96 27.74
  Q 45.16 31.65 46.10 42.46
  Q 46.24 43.97 46.94 45.58
  Q 47.62 47.15 48.19 48.46"
/>
<path stroke="#cd5026" vector-effect="non-scaling-stroke" d="
  M 72.34 45.20
  L 70.55 49.20"
/>
<path stroke="#ecc382" vector-effect="non-scaling-stroke" d="
  M 70.55 49.20
  L 66.99 52.03"
/>
<path stroke="#cd5026" vector-effect="non-scaling-stroke" d="
  M 66.99 52.03
  L 56.34 53.74"
/>
<path stroke="#ecc382" vector-effect="non-scaling-stroke" d="
  M 56.34 53.74
  L 51.51 51.94"
/>
<path stroke="#cd5026" vector-effect="non-scaling-stroke" d="
  M 51.51 51.94
  L 48.19 48.46"
/>
<path stroke="#dd89a1" vector-effect="non-scaling-stroke" d="
  M 51.51 51.94
  L 49.63 52.90
  Q 49.16 53.14 49.08 53.66
  Q 48.90 54.80 49.77 55.26
  Q 50.32 55.55 51.22 55.27
  Q 53.68 54.49 56.34 53.74"
/>
<path stroke="#dd89a1" vector-effect="non-scaling-stroke" d="
  M 66.99 52.03
  L 74.87 52.23
  A 1.03 1.03 0.0 0 0 75.91 51.35
  L 75.99 50.82
  A 1.10 1.09 6.7 0 0 75.00 49.57
  L 70.55 49.20"
/>
<path stroke="#e4ab35" vector-effect="non-scaling-stroke" d="
  M 69.97 40.50
  A 10.47 10.47 0.0 0 0 59.50 30.03
  A 10.47 10.47 0.0 0 0 49.03 40.50
  A 10.47 10.47 0.0 0 0 59.50 50.97
  A 10.47 10.47 0.0 0 0 69.97 40.50"
/>
<path stroke="#dd89a1" vector-effect="non-scaling-stroke" d="
  M 103.97 68.40
  A 3.20 3.20 0.0 0 0 100.77 65.20
  A 3.20 3.20 0.0 0 0 97.57 68.40
  A 3.20 3.20 0.0 0 0 100.77 71.60
  A 3.20 3.20 0.0 0 0 103.97 68.40"
/>
</g>
<path fill="#fcfcfc" d="
  M 29.13 0.00
  L 116.99 0.00
  Q 118.85 0.47 120.74 0.81
  Q 123.07 1.24 124.44 1.73
  Q 142.65 8.26 145.00 28.41
  L 145.00 115.74
  Q 144.26 121.15 143.77 122.51
  Q 138.23 138.21 123.77 142.55
  Q 118.40 144.16 108.32 144.10
  Q 67.36 143.87 32.19 144.04
  C 18.34 144.10 6.65 136.00 2.43 122.77
  Q 0.85 117.81 0.91 108.23
  Q 1.16 71.34 0.91 34.51
  Q 0.86 27.34 2.34 22.05
  Q 7.61 3.21 29.13 0.00
  Z
  M 48.19 48.46
  Q 35.36 54.65 30.40 68.00
  Q 30.21 68.52 29.65 68.43
  C 21.01 67.07 18.66 80.04 28.09 81.58
  Q 28.61 81.66 28.65 82.19
  Q 29.51 92.38 33.78 99.64
  Q 38.82 108.18 44.61 117.15
  Q 44.99 117.74 45.69 117.74
  L 54.21 117.74
  Q 54.88 117.74 54.88 117.07
  L 54.87 108.48
  Q 54.87 107.82 55.53 107.82
  L 77.10 107.81
  Q 77.72 107.81 78.07 108.34
  L 84.01 117.23
  A 1.15 1.14 73.1 0 0 84.96 117.74
  L 93.77 117.72
  Q 94.25 117.72 94.25 117.23
  L 94.25 105.97
  Q 94.25 105.35 94.84 105.18
  C 98.51 104.13 102.16 103.38 105.36 101.37
  Q 117.72 93.62 126.43 82.38
  A 2.72 2.72 0.0 0 0 127.01 80.70
  L 127.01 69.01
  Q 127.01 68.32 126.32 68.30
  Q 114.59 67.96 105.62 59.97
  Q 105.27 59.65 105.41 59.20
  Q 106.71 55.23 109.94 52.12
  A 0.92 0.92 0.0 0 0 110.20 51.23
  L 109.10 46.73
  A 1.12 1.11 1.5 0 0 108.32 45.92
  C 102.63 44.34 96.21 46.13 91.72 49.70
  Q 91.30 50.04 90.82 49.80
  Q 82.35 45.55 72.34 45.20
  Q 74.39 37.70 70.39 32.39
  C 66.84 27.68 60.36 25.59 54.96 27.74
  Q 45.16 31.65 46.10 42.46
  Q 46.24 43.97 46.94 45.58
  Q 47.62 47.15 48.19 48.46
  Z"
/>
<path fill="#dc8a07" d="
  M 72.34 45.20
  L 70.55 49.20
  L 66.99 52.03
  L 56.34 53.74
  L 51.51 51.94
  L 48.19 48.46
  Q 47.62 47.15 46.94 45.58
  Q 46.24 43.97 46.10 42.46
  Q 45.16 31.65 54.96 27.74
  C 60.36 25.59 66.84 27.68 70.39 32.39
  Q 74.39 37.70 72.34 45.20
  Z
  M 69.97 40.50
  A 10.47 10.47 0.0 0 0 59.50 30.03
  A 10.47 10.47 0.0 0 0 49.03 40.50
  A 10.47 10.47 0.0 0 0 59.50 50.97
  A 10.47 10.47 0.0 0 0 69.97 40.50
  Z"
/>
<circle fill="#eccc63" cx="59.50" cy="40.50" r="10.47"/>
<path fill="#be1645" d="
  M 72.34 45.20
  Q 82.35 45.55 90.82 49.80
  Q 91.30 50.04 91.72 49.70
  C 96.21 46.13 102.63 44.34 108.32 45.92
  A 1.12 1.11 1.5 0 1 109.10 46.73
  L 110.20 51.23
  A 0.92 0.92 0.0 0 1 109.94 52.12
  Q 106.71 55.23 105.41 59.20
  Q 105.27 59.65 105.62 59.97
  Q 114.59 67.96 126.32 68.30
  Q 127.01 68.32 127.01 69.01
  L 127.01 80.70
  A 2.72 2.72 0.0 0 1 126.43 82.38
  Q 117.72 93.62 105.36 101.37
  C 102.16 103.38 98.51 104.13 94.84 105.18
  Q 94.25 105.35 94.25 105.97
  L 94.25 117.23
  Q 94.25 117.72 93.77 117.72
  L 84.96 117.74
  A 1.15 1.14 73.1 0 1 84.01 117.23
  L 78.07 108.34
  Q 77.72 107.81 77.10 107.81
  L 55.53 107.82
  Q 54.87 107.82 54.87 108.48
  L 54.88 117.07
  Q 54.88 117.74 54.21 117.74
  L 45.69 117.74
  Q 44.99 117.74 44.61 117.15
  Q 38.82 108.18 33.78 99.64
  Q 29.51 92.38 28.65 82.19
  Q 28.61 81.66 28.09 81.58
  C 18.66 80.04 21.01 67.07 29.65 68.43
  Q 30.21 68.52 30.40 68.00
  Q 35.36 54.65 48.19 48.46
  L 51.51 51.94
  L 49.63 52.90
  Q 49.16 53.14 49.08 53.66
  Q 48.90 54.80 49.77 55.26
  Q 50.32 55.55 51.22 55.27
  Q 53.68 54.49 56.34 53.74
  L 66.99 52.03
  L 74.87 52.23
  A 1.03 1.03 0.0 0 0 75.91 51.35
  L 75.99 50.82
  A 1.10 1.09 6.7 0 0 75.00 49.57
  L 70.55 49.20
  L 72.34 45.20
  Z
  M 103.97 68.40
  A 3.20 3.20 0.0 0 0 100.77 65.20
  A 3.20 3.20 0.0 0 0 97.57 68.40
  A 3.20 3.20 0.0 0 0 100.77 71.60
  A 3.20 3.20 0.0 0 0 103.97 68.40
  Z"
/>
<path fill="#fcfcfc" d="
  M 70.55 49.20
  L 75.00 49.57
  A 1.10 1.09 6.7 0 1 75.99 50.82
  L 75.91 51.35
  A 1.03 1.03 0.0 0 1 74.87 52.23
  L 66.99 52.03
  L 70.55 49.20
  Z"
/>
<path fill="#fcfcfc" d="
  M 51.51 51.94
  L 56.34 53.74
  Q 53.68 54.49 51.22 55.27
  Q 50.32 55.55 49.77 55.26
  Q 48.90 54.80 49.08 53.66
  Q 49.16 53.14 49.63 52.90
  L 51.51 51.94
  Z"
/>
<circle fill="#fcfcfc" cx="100.77" cy="68.40" r="3.20"/>
</svg>
