<?xml version="1.0" encoding="UTF-8" standalone="no"?>
<!DOCTYPE svg PUBLIC "-//W3C//DTD SVG 1.1//EN" "http://www.w3.org/Graphics/SVG/1.1/DTD/svg11.dtd">
<svg xmlns="http://www.w3.org/2000/svg" version="1.1" viewBox="0.00 0.00 144.00 144.00">
<g stroke-width="2.00" fill="none" stroke-linecap="butt">
<path stroke="#7ed1ed" vector-effect="non-scaling-stroke" d="
  M 38.99 37.39
  L 39.00 121.89
  Q 39.00 122.42 39.52 122.42
  L 44.58 122.44
  Q 45.30 122.44 45.37 121.72
  C 45.75 117.50 52.37 117.48 52.71 121.75
  Q 52.77 122.45 53.47 122.45
  L 56.12 122.44
  Q 56.80 122.44 56.98 121.79
  C 58.25 117.40 63.81 117.42 64.41 121.77
  Q 64.51 122.43 65.17 122.43
  L 67.89 122.43
  Q 68.58 122.44 68.74 121.76
  C 69.74 117.41 75.58 117.49 76.14 121.69
  Q 76.23 122.41 76.96 122.42
  L 79.78 122.44
  Q 80.43 122.44 80.50 121.80
  C 81.04 117.41 86.69 117.37 87.89 121.87
  A 0.76 0.76 0.0 0 0 88.62 122.43
  L 91.32 122.45
  Q 91.95 122.45 92.12 121.84
  C 92.35 120.99 92.45 120.29 93.16 119.67
  C 95.76 117.38 98.82 118.58 99.55 121.89
  Q 99.67 122.42 100.21 122.42
  L 104.50 122.45
  A 0.49 0.49 0.0 0 0 105.00 121.96
  L 105.01 37.40"
/>
<path stroke="#e887a2" vector-effect="non-scaling-stroke" d="
  M 105.01 37.40
  C 116.21 39.06 116.82 23.99 107.03 23.99
  Q 72.31 24.01 37.75 24.00
  C 26.58 23.99 28.01 39.11 38.99 37.39"
/>
<path stroke="#6a5c93" vector-effect="non-scaling-stroke" d="
  M 105.01 37.40
  L 104.96 32.72"
/>
<path stroke="#6a356d" vector-effect="non-scaling-stroke" d="
  M 104.96 32.72
  Q 104.93 32.50 105.08 32.28"
/>
<path stroke="#e887a2" vector-effect="non-scaling-stroke" d="
  M 105.08 32.28
  Q 106.20 32.67 107.26 32.16
  A 1.37 1.37 0.0 0 0 107.65 29.98
  Q 106.66 28.96 104.99 29.51"
/>
<path stroke="#6a356d" vector-effect="non-scaling-stroke" d="
  M 104.99 29.51
  Q 104.79 29.45 104.63 29.29
  A 0.86 0.84 67.2 0 0 104.03 29.04
  Q 72.27 29.08 40.50 29.05
  Q 39.63 29.05 39.11 29.62"
/>
<path stroke="#e887a2" vector-effect="non-scaling-stroke" d="
  M 39.11 29.62
  Q 37.82 28.88 36.59 29.76
  A 1.41 1.41 0.0 0 0 37.03 32.26
  Q 38.25 32.61 38.95 32.30"
/>
<path stroke="#6a356d" vector-effect="non-scaling-stroke" d="
  M 38.95 32.30
  Q 39.13 32.51 39.04 32.98"
/>
<path stroke="#6a5c93" vector-effect="non-scaling-stroke" d="
  M 39.04 32.98
  L 38.99 37.39"
/>
<path stroke="#7eaac7" vector-effect="non-scaling-stroke" d="
  M 104.99 29.51
  L 105.08 32.28"
/>
<path stroke="#007fb8" vector-effect="non-scaling-stroke" d="
  M 104.96 32.72
  Q 104.54 32.37 104.25 32.37
  Q 72.00 32.44 39.75 32.39
  Q 39.21 32.39 39.04 32.98"
/>
<path stroke="#7eaac7" vector-effect="non-scaling-stroke" d="
  M 38.95 32.30
  L 39.11 29.62"
/>
<path stroke="#7ed1ed" vector-effect="non-scaling-stroke" d="
  M 75.2399 56.3400
  A 1.73 1.73 0.0 0 0 73.5069 54.6130
  L 54.0069 54.6470
  A 1.73 1.73 0.0 0 0 52.2799 56.3800
  L 52.2801 56.5000
  A 1.73 1.73 0.0 0 0 54.0131 58.2270
  L 73.5131 58.1930
  A 1.73 1.73 0.0 0 0 75.2401 56.4600
  L 75.2399 56.3400"
/>
<path stroke="#7ed1ed" vector-effect="non-scaling-stroke" d="
  M 92.9401 56.3293
  A 1.73 1.73 0.0 0 0 91.2132 54.5963
  L 83.9932 54.5837
  A 1.73 1.73 0.0 0 0 82.2601 56.3107
  L 82.2599 56.4707
  A 1.73 1.73 0.0 0 0 83.9868 58.2037
  L 91.2068 58.2163
  A 1.73 1.73 0.0 0 0 92.9399 56.4893
  L 92.9401 56.3293"
/>
<path stroke="#7ed1ed" vector-effect="non-scaling-stroke" d="
  M 75.2401 71.3701
  A 1.76 1.76 0.0 0 0 73.4831 69.6070
  L 54.0232 69.5730
  A 1.76 1.76 0.0 0 0 52.2601 71.3299
  L 52.2599 71.4299
  A 1.76 1.76 0.0 0 0 54.0169 73.1930
  L 73.4768 73.2270
  A 1.76 1.76 0.0 0 0 75.2399 71.4701
  L 75.2401 71.3701"
/>
<path stroke="#7ed1ed" vector-effect="non-scaling-stroke" d="
  M 92.9401 71.3293
  A 1.72 1.72 0.0 0 0 91.2231 69.6063
  L 83.9831 69.5937
  A 1.72 1.72 0.0 0 0 82.2601 71.3107
  L 82.2599 71.4707
  A 1.72 1.72 0.0 0 0 83.9769 73.1937
  L 91.2169 73.2063
  A 1.72 1.72 0.0 0 0 92.9399 71.4893
  L 92.9401 71.3293"
/>
<path stroke="#7ed1ed" vector-effect="non-scaling-stroke" d="
  M 75.24 86.36
  A 1.76 1.76 0.0 0 0 73.48 84.60
  L 54.02 84.60
  A 1.76 1.76 0.0 0 0 52.26 86.36
  L 52.26 86.46
  A 1.76 1.76 0.0 0 0 54.02 88.22
  L 73.48 88.22
  A 1.76 1.76 0.0 0 0 75.24 86.46
  L 75.24 86.36"
/>
<path stroke="#7ed1ed" vector-effect="non-scaling-stroke" d="
  M 92.9401 86.3293
  A 1.73 1.73 0.0 0 0 91.2132 84.5963
  L 83.9932 84.5837
  A 1.73 1.73 0.0 0 0 82.2601 86.3107
  L 82.2599 86.4707
  A 1.73 1.73 0.0 0 0 83.9868 88.2037
  L 91.2068 88.2163
  A 1.73 1.73 0.0 0 0 92.9399 86.4893
  L 92.9401 86.3293"
/>
</g>
<path fill="#fcfcfc" d="
  M 28.16 0.00
  L 115.74 0.00
  Q 118.04 0.47 120.33 0.92
  Q 122.98 1.45 124.82 2.20
  Q 141.68 9.12 144.00 28.15
  L 144.00 116.26
  Q 140.30 140.42 116.14 144.00
  L 27.74 144.00
  Q 3.61 140.29 0.00 116.14
  L 0.00 28.01
  Q 0.74 22.98 1.26 21.50
  Q 7.84 2.55 28.16 0.00
  Z
  M 38.99 37.39
  L 39.00 121.89
  Q 39.00 122.42 39.52 122.42
  L 44.58 122.44
  Q 45.30 122.44 45.37 121.72
  C 45.75 117.50 52.37 117.48 52.71 121.75
  Q 52.77 122.45 53.47 122.45
  L 56.12 122.44
  Q 56.80 122.44 56.98 121.79
  C 58.25 117.40 63.81 117.42 64.41 121.77
  Q 64.51 122.43 65.17 122.43
  L 67.89 122.43
  Q 68.58 122.44 68.74 121.76
  C 69.74 117.41 75.58 117.49 76.14 121.69
  Q 76.23 122.41 76.96 122.42
  L 79.78 122.44
  Q 80.43 122.44 80.50 121.80
  C 81.04 117.41 86.69 117.37 87.89 121.87
  A 0.76 0.76 0.0 0 0 88.62 122.43
  L 91.32 122.45
  Q 91.95 122.45 92.12 121.84
  C 92.35 120.99 92.45 120.29 93.16 119.67
  C 95.76 117.38 98.82 118.58 99.55 121.89
  Q 99.67 122.42 100.21 122.42
  L 104.50 122.45
  A 0.49 0.49 0.0 0 0 105.00 121.96
  L 105.01 37.40
  C 116.21 39.06 116.82 23.99 107.03 23.99
  Q 72.31 24.01 37.75 24.00
  C 26.58 23.99 28.01 39.11 38.99 37.39
  Z"
/>
<path fill="#d41248" d="
  M 105.01 37.40
  L 104.96 32.72
  Q 104.93 32.50 105.08 32.28
  Q 106.20 32.67 107.26 32.16
  A 1.37 1.37 0.0 0 0 107.65 29.98
  Q 106.66 28.96 104.99 29.51
  Q 104.79 29.45 104.63 29.29
  A 0.86 0.84 67.2 0 0 104.03 29.04
  Q 72.27 29.08 40.50 29.05
  Q 39.63 29.05 39.11 29.62
  Q 37.82 28.88 36.59 29.76
  A 1.41 1.41 0.0 0 0 37.03 32.26
  Q 38.25 32.61 38.95 32.30
  Q 39.13 32.51 39.04 32.98
  L 38.99 37.39
  C 28.01 39.11 26.58 23.99 37.75 24.00
  Q 72.31 24.01 107.03 23.99
  C 116.82 23.99 116.21 39.06 105.01 37.40
  Z"
/>
<path fill="#005891" d="
  M 104.99 29.51
  L 105.08 32.28
  Q 104.93 32.50 104.96 32.72
  Q 104.54 32.37 104.25 32.37
  Q 72.00 32.44 39.75 32.39
  Q 39.21 32.39 39.04 32.98
  Q 39.13 32.51 38.95 32.30
  L 39.11 29.62
  Q 39.63 29.05 40.50 29.05
  Q 72.27 29.08 104.03 29.04
  A 0.86 0.84 67.2 0 1 104.63 29.29
  Q 104.79 29.45 104.99 29.51
  Z"
/>
<path fill="#fcfcfc" d="
  M 39.11 29.62
  L 38.95 32.30
  Q 38.25 32.61 37.03 32.26
  A 1.41 1.41 0.0 0 1 36.59 29.76
  Q 37.82 28.88 39.11 29.62
  Z"
/>
<path fill="#fcfcfc" d="
  M 105.08 32.28
  L 104.99 29.51
  Q 106.66 28.96 107.65 29.98
  A 1.37 1.37 0.0 0 1 107.26 32.16
  Q 106.20 32.67 105.08 32.28
  Z"
/>
<path fill="#00a5de" d="
  M 104.96 32.72
  L 105.01 37.40
  L 105.00 121.96
  A 0.49 0.49 0.0 0 1 104.50 122.45
  L 100.21 122.42
  Q 99.67 122.42 99.55 121.89
  C 98.82 118.58 95.76 117.38 93.16 119.67
  C 92.45 120.29 92.35 120.99 92.12 121.84
  Q 91.95 122.45 91.32 122.45
  L 88.62 122.43
  A 0.76 0.76 0.0 0 1 87.89 121.87
  C 86.69 117.37 81.04 117.41 80.50 121.80
  Q 80.43 122.44 79.78 122.44
  L 76.96 122.42
  Q 76.23 122.41 76.14 121.69
  C 75.58 117.49 69.74 117.41 68.74 121.76
  Q 68.58 122.44 67.89 122.43
  L 65.17 122.43
  Q 64.51 122.43 64.41 121.77
  C 63.81 117.42 58.25 117.40 56.98 121.79
  Q 56.80 122.44 56.12 122.44
  L 53.47 122.45
  Q 52.77 122.45 52.71 121.75
  C 52.37 117.48 45.75 117.50 45.37 121.72
  Q 45.30 122.44 44.58 122.44
  L 39.52 122.42
  Q 39.00 122.42 39.00 121.89
  L 38.99 37.39
  L 39.04 32.98
  Q 39.21 32.39 39.75 32.39
  Q 72.00 32.44 104.25 32.37
  Q 104.54 32.37 104.96 32.72
  Z
  M 75.2399 56.3400
  A 1.73 1.73 0.0 0 0 73.5069 54.6130
  L 54.0069 54.6470
  A 1.73 1.73 0.0 0 0 52.2799 56.3800
  L 52.2801 56.5000
  A 1.73 1.73 0.0 0 0 54.0131 58.2270
  L 73.5131 58.1930
  A 1.73 1.73 0.0 0 0 75.2401 56.4600
  L 75.2399 56.3400
  Z
  M 92.9401 56.3293
  A 1.73 1.73 0.0 0 0 91.2132 54.5963
  L 83.9932 54.5837
  A 1.73 1.73 0.0 0 0 82.2601 56.3107
  L 82.2599 56.4707
  A 1.73 1.73 0.0 0 0 83.9868 58.2037
  L 91.2068 58.2163
  A 1.73 1.73 0.0 0 0 92.9399 56.4893
  L 92.9401 56.3293
  Z
  M 75.2401 71.3701
  A 1.76 1.76 0.0 0 0 73.4831 69.6070
  L 54.0232 69.5730
  A 1.76 1.76 0.0 0 0 52.2601 71.3299
  L 52.2599 71.4299
  A 1.76 1.76 0.0 0 0 54.0169 73.1930
  L 73.4768 73.2270
  A 1.76 1.76 0.0 0 0 75.2399 71.4701
  L 75.2401 71.3701
  Z
  M 92.9401 71.3293
  A 1.72 1.72 0.0 0 0 91.2231 69.6063
  L 83.9831 69.5937
  A 1.72 1.72 0.0 0 0 82.2601 71.3107
  L 82.2599 71.4707
  A 1.72 1.72 0.0 0 0 83.9769 73.1937
  L 91.2169 73.2063
  A 1.72 1.72 0.0 0 0 92.9399 71.4893
  L 92.9401 71.3293
  Z
  M 75.24 86.36
  A 1.76 1.76 0.0 0 0 73.48 84.60
  L 54.02 84.60
  A 1.76 1.76 0.0 0 0 52.26 86.36
  L 52.26 86.46
  A 1.76 1.76 0.0 0 0 54.02 88.22
  L 73.48 88.22
  A 1.76 1.76 0.0 0 0 75.24 86.46
  L 75.24 86.36
  Z
  M 92.9401 86.3293
  A 1.73 1.73 0.0 0 0 91.2132 84.5963
  L 83.9932 84.5837
  A 1.73 1.73 0.0 0 0 82.2601 86.3107
  L 82.2599 86.4707
  A 1.73 1.73 0.0 0 0 83.9868 88.2037
  L 91.2068 88.2163
  A 1.73 1.73 0.0 0 0 92.9399 86.4893
  L 92.9401 86.3293
  Z"
/>
<rect fill="#fcfcfc" x="-11.48" y="-1.79" transform="translate(63.76,56.42) rotate(-0.1)" width="22.96" height="3.58" rx="1.73"/>
<rect fill="#fcfcfc" x="-5.34" y="-1.81" transform="translate(87.60,56.40) rotate(0.1)" width="10.68" height="3.62" rx="1.73"/>
<rect fill="#fcfcfc" x="-11.49" y="-1.81" transform="translate(63.75,71.40) rotate(0.1)" width="22.98" height="3.62" rx="1.76"/>
<rect fill="#fcfcfc" x="-5.34" y="-1.80" transform="translate(87.60,71.40) rotate(0.1)" width="10.68" height="3.60" rx="1.72"/>
<rect fill="#fcfcfc" x="52.26" y="84.60" width="22.98" height="3.62" rx="1.76"/>
<rect fill="#fcfcfc" x="-5.34" y="-1.81" transform="translate(87.60,86.40) rotate(0.1)" width="10.68" height="3.62" rx="1.73"/>
</svg>
