<?xml version="1.0" encoding="UTF-8" standalone="no"?>
<!DOCTYPE svg PUBLIC "-//W3C//DTD SVG 1.1//EN" "http://www.w3.org/Graphics/SVG/1.1/DTD/svg11.dtd">
<svg xmlns="http://www.w3.org/2000/svg" version="1.1" viewBox="0.00 0.00 144.00 144.00">
<g stroke-width="2.00" fill="none" stroke-linecap="butt">
<path stroke="#fcdeac" vector-effect="non-scaling-stroke" d="
  M 93.68 14.64
  Q 92.52 16.79 93.38 17.85
  C 96.44 21.61 103.78 23.48 108.42 24.00
  C 110.92 24.28 113.35 23.88 113.47 20.83"
/>
<path stroke="#f4e4b0" vector-effect="non-scaling-stroke" d="
  M 113.47 20.83
  C 115.24 18.51 111.61 16.05 109.61 15.06
  Q 103.42 12.02 96.50 12.04
  Q 93.64 12.04 93.68 14.64"
/>
<path stroke="#f4c65f" vector-effect="non-scaling-stroke" d="
  M 113.47 20.83
  Q 107.83 21.61 101.83 19.43
  Q 96.97 17.66 93.68 14.64"
/>
<path stroke="#fcdeac" vector-effect="non-scaling-stroke" d="
  M 24.83 30.65
  Q 26.20 33.99 30.48 32.41
  C 35.55 30.54 40.22 28.11 43.16 24.00
  Q 43.96 22.89 43.77 21.84
  Q 43.57 20.68 42.72 19.64"
/>
<path stroke="#f4e4b0" vector-effect="non-scaling-stroke" d="
  M 42.72 19.64
  Q 40.99 16.86 35.84 19.13
  Q 29.24 22.05 25.30 26.28
  Q 23.24 28.50 24.83 30.65"
/>
<path stroke="#f4c65f" vector-effect="non-scaling-stroke" d="
  M 42.72 19.64
  Q 37.02 28.84 24.83 30.65"
/>
<path stroke="#f287a5" vector-effect="non-scaling-stroke" d="
  M 64.47 53.60
  C 62.34 54.23 58.49 56.72 59.89 59.31
  Q 60.78 60.97 62.70 60.33"
/>
<path stroke="#7eaac7" vector-effect="non-scaling-stroke" d="
  M 62.70 60.33
  C 53.14 64.03 44.33 72.82 39.08 81.36
  C 32.74 91.65 26.81 115.29 41.99 122.21
  Q 45.35 123.74 54.75 123.60
  Q 71.31 123.36 88.75 123.62
  Q 95.51 123.72 99.30 122.26
  Q 108.74 118.65 110.57 107.51
  C 112.69 94.59 105.79 83.84 98.12 73.62
  Q 92.27 65.82 84.62 60.97"
/>
<path stroke="#f287a5" vector-effect="non-scaling-stroke" d="
  M 84.62 60.97
  Q 88.15 57.84 83.78 54.44"
/>
<path stroke="#7eaac7" vector-effect="non-scaling-stroke" d="
  M 83.78 54.44
  Q 88.76 52.01 93.65 49.36
  Q 96.94 47.57 97.94 46.17
  C 99.94 43.40 99.94 38.32 96.20 36.85
  Q 93.80 35.91 91.23 36.43
  Q 90.68 36.55 90.71 35.98
  C 90.94 31.66 88.82 28.66 84.64 27.58
  Q 75.34 25.17 70.69 33.48
  Q 70.37 34.05 69.77 33.79
  Q 63.55 31.05 59.82 37.45
  Q 59.60 37.83 59.20 38.02
  Q 54.45 40.36 55.29 45.28
  C 55.85 48.58 61.59 51.92 64.47 53.60"
/>
<path stroke="#74356f" vector-effect="non-scaling-stroke" d="
  M 83.78 54.44
  Q 77.44 51.13 69.78 52.60
  Q 67.17 53.10 64.47 53.60"
/>
<path stroke="#74356f" vector-effect="non-scaling-stroke" d="
  M 84.62 60.97
  Q 78.90 57.62 73.00 57.95
  Q 68.20 58.22 62.70 60.33"
/>
<path stroke="#fcdeac" vector-effect="non-scaling-stroke" d="
  M 108.79 49.06
  Q 108.02 49.22 107.30 50.04
  C 106.09 51.44 107.07 54.25 107.70 55.78
  Q 110.46 62.44 115.55 66.97
  Q 117.75 68.93 120.81 66.36"
/>
<path stroke="#f4e4b0" vector-effect="non-scaling-stroke" d="
  M 120.81 66.36
  Q 122.87 64.12 120.39 59.07
  Q 117.26 52.71 113.02 49.03
  Q 110.87 47.17 108.79 49.06"
/>
<path stroke="#f4c65f" vector-effect="non-scaling-stroke" d="
  M 120.81 66.36
  Q 119.71 65.66 119.54 65.79
  A 0.92 0.92 0.0 0 1 118.31 65.74
  Q 110.64 58.24 108.79 49.06"
/>
<path stroke="#6e714c" vector-effect="non-scaling-stroke" d="
  M 87.15 94.50
  A 16.66 16.66 0.0 0 0 70.49 77.84
  A 16.66 16.66 0.0 0 0 53.83 94.50
  A 16.66 16.66 0.0 0 0 70.49 111.16
  A 16.66 16.66 0.0 0 0 87.15 94.50"
/>
<path stroke="#e4ab35" vector-effect="non-scaling-stroke" d="
  M 83.99 94.50
  A 13.49 13.49 0.0 0 0 70.50 81.01
  A 13.49 13.49 0.0 0 0 57.01 94.50
  A 13.49 13.49 0.0 0 0 70.50 107.99
  A 13.49 13.49 0.0 0 0 83.99 94.50"
/>
<path stroke="#e4ab35" vector-effect="non-scaling-stroke" d="
  M 73.01 89.98
  C 66.52 85.68 61.35 94.95 66.79 98.86
  Q 69.41 100.74 72.60 99.03
  A 0.68 0.66 -37.7 0 1 73.35 99.12
  Q 74.19 99.83 75.26 99.57
  Q 75.73 99.46 75.73 98.97
  L 75.72 88.51
  A 0.65 0.65 0.0 0 1 76.22 87.88
  Q 76.73 87.77 77.09 87.39
  Q 77.49 86.96 77.01 86.64
  Q 76.19 86.08 75.59 85.28
  Q 75.20 84.76 74.55 84.82
  Q 73.67 84.92 73.31 85.70
  Q 73.06 86.23 72.48 86.23
  L 70.86 86.23
  Q 69.37 86.23 70.27 87.42
  Q 70.95 88.33 72.45 87.87
  A 0.81 0.81 0.0 0 1 73.49 88.65
  L 73.48 89.73
  Q 73.48 90.30 73.01 89.98"
/>
<path stroke="#e4ab35" vector-effect="non-scaling-stroke" d="
  M 77.1700 102.2383
  A 0.57 0.57 0.0 0 0 76.5990 101.6693
  L 64.3790 101.6907
  A 0.57 0.57 0.0 0 0 63.8100 102.2617
  L 63.8100 102.3017
  A 0.57 0.57 0.0 0 0 64.3810 102.8707
  L 76.6010 102.8493
  A 0.57 0.57 0.0 0 0 77.1700 102.2783
  L 77.1700 102.2383"
/>
<path stroke="#e4ab35" vector-effect="non-scaling-stroke" d="
  M 73.49 94.35
  A 3.35 3.35 0.0 0 0 70.14 91.00
  A 3.35 3.35 0.0 0 0 66.79 94.35
  A 3.35 3.35 0.0 0 0 70.14 97.70
  A 3.35 3.35 0.0 0 0 73.49 94.35"
/>
</g>
<path fill="#fcfcfc" d="
  M 27.89 0.00
  L 115.99 0.00
  Q 117.43 0.46 118.93 0.66
  C 130.75 2.29 140.78 11.81 143.20 23.63
  Q 143.63 25.74 144.00 27.88
  L 144.00 116.24
  Q 141.18 136.64 122.25 142.76
  C 120.33 143.39 118.20 143.61 116.12 144.00
  L 27.72 144.00
  Q 3.54 140.25 0.00 115.86
  L 0.00 27.77
  Q 0.53 25.88 0.88 23.93
  C 2.92 12.56 11.97 3.37 23.29 1.03
  Q 25.60 0.55 27.89 0.00
  Z
  M 93.68 14.64
  Q 92.52 16.79 93.38 17.85
  C 96.44 21.61 103.78 23.48 108.42 24.00
  C 110.92 24.28 113.35 23.88 113.47 20.83
  C 115.24 18.51 111.61 16.05 109.61 15.06
  Q 103.42 12.02 96.50 12.04
  Q 93.64 12.04 93.68 14.64
  Z
  M 24.83 30.65
  Q 26.20 33.99 30.48 32.41
  C 35.55 30.54 40.22 28.11 43.16 24.00
  Q 43.96 22.89 43.77 21.84
  Q 43.57 20.68 42.72 19.64
  Q 40.99 16.86 35.84 19.13
  Q 29.24 22.05 25.30 26.28
  Q 23.24 28.50 24.83 30.65
  Z
  M 64.47 53.60
  C 62.34 54.23 58.49 56.72 59.89 59.31
  Q 60.78 60.97 62.70 60.33
  C 53.14 64.03 44.33 72.82 39.08 81.36
  C 32.74 91.65 26.81 115.29 41.99 122.21
  Q 45.35 123.74 54.75 123.60
  Q 71.31 123.36 88.75 123.62
  Q 95.51 123.72 99.30 122.26
  Q 108.74 118.65 110.57 107.51
  C 112.69 94.59 105.79 83.84 98.12 73.62
  Q 92.27 65.82 84.62 60.97
  Q 88.15 57.84 83.78 54.44
  Q 88.76 52.01 93.65 49.36
  Q 96.94 47.57 97.94 46.17
  C 99.94 43.40 99.94 38.32 96.20 36.85
  Q 93.80 35.91 91.23 36.43
  Q 90.68 36.55 90.71 35.98
  C 90.94 31.66 88.82 28.66 84.64 27.58
  Q 75.34 25.17 70.69 33.48
  Q 70.37 34.05 69.77 33.79
  Q 63.55 31.05 59.82 37.45
  Q 59.60 37.83 59.20 38.02
  Q 54.45 40.36 55.29 45.28
  C 55.85 48.58 61.59 51.92 64.47 53.60
  Z
  M 108.79 49.06
  Q 108.02 49.22 107.30 50.04
  C 106.09 51.44 107.07 54.25 107.70 55.78
  Q 110.46 62.44 115.55 66.97
  Q 117.75 68.93 120.81 66.36
  Q 122.87 64.12 120.39 59.07
  Q 117.26 52.71 113.02 49.03
  Q 110.87 47.17 108.79 49.06
  Z"
/>
<path fill="#eccc63" d="
  M 113.47 20.83
  Q 107.83 21.61 101.83 19.43
  Q 96.97 17.66 93.68 14.64
  Q 93.64 12.04 96.50 12.04
  Q 103.42 12.02 109.61 15.06
  C 111.61 16.05 115.24 18.51 113.47 20.83
  Z"
/>
<path fill="#fcbf5b" d="
  M 93.68 14.64
  Q 96.97 17.66 101.83 19.43
  Q 107.83 21.61 113.47 20.83
  C 113.35 23.88 110.92 24.28 108.42 24.00
  C 103.78 23.48 96.44 21.61 93.38 17.85
  Q 92.52 16.79 93.68 14.64
  Z"
/>
<path fill="#eccc63" d="
  M 42.72 19.64
  Q 37.02 28.84 24.83 30.65
  Q 23.24 28.50 25.30 26.28
  Q 29.24 22.05 35.84 19.13
  Q 40.99 16.86 42.72 19.64
  Z"
/>
<path fill="#fcbf5b" d="
  M 42.72 19.64
  Q 43.57 20.68 43.77 21.84
  Q 43.96 22.89 43.16 24.00
  C 40.22 28.11 35.55 30.54 30.48 32.41
  Q 26.20 33.99 24.83 30.65
  Q 37.02 28.84 42.72 19.64
  Z"
/>
<path fill="#005891" d="
  M 83.78 54.44
  Q 77.44 51.13 69.78 52.60
  Q 67.17 53.10 64.47 53.60
  C 61.59 51.92 55.85 48.58 55.29 45.28
  Q 54.45 40.36 59.20 38.02
  Q 59.60 37.83 59.82 37.45
  Q 63.55 31.05 69.77 33.79
  Q 70.37 34.05 70.69 33.48
  Q 75.34 25.17 84.64 27.58
  C 88.82 28.66 90.94 31.66 90.71 35.98
  Q 90.68 36.55 91.23 36.43
  Q 93.80 35.91 96.20 36.85
  C 99.94 38.32 99.94 43.40 97.94 46.17
  Q 96.94 47.57 93.65 49.36
  Q 88.76 52.01 83.78 54.44
  Z"
/>
<path fill="#eccc63" d="
  M 120.81 66.36
  Q 119.71 65.66 119.54 65.79
  A 0.92 0.92 0.0 0 1 118.31 65.74
  Q 110.64 58.24 108.79 49.06
  Q 110.87 47.17 113.02 49.03
  Q 117.26 52.71 120.39 59.07
  Q 122.87 64.12 120.81 66.36
  Z"
/>
<path fill="#fcbf5b" d="
  M 108.79 49.06
  Q 110.64 58.24 118.31 65.74
  A 0.92 0.92 0.0 0 0 119.54 65.79
  Q 119.71 65.66 120.81 66.36
  Q 117.75 68.93 115.55 66.97
  Q 110.46 62.44 107.70 55.78
  C 107.07 54.25 106.09 51.44 107.30 50.04
  Q 108.02 49.22 108.79 49.06
  Z"
/>
<path fill="#e7114d" d="
  M 83.78 54.44
  Q 88.15 57.84 84.62 60.97
  Q 78.90 57.62 73.00 57.95
  Q 68.20 58.22 62.70 60.33
  Q 60.78 60.97 59.89 59.31
  C 58.49 56.72 62.34 54.23 64.47 53.60
  Q 67.17 53.10 69.78 52.60
  Q 77.44 51.13 83.78 54.44
  Z"
/>
<path fill="#005891" d="
  M 84.62 60.97
  Q 92.27 65.82 98.12 73.62
  C 105.79 83.84 112.69 94.59 110.57 107.51
  Q 108.74 118.65 99.30 122.26
  Q 95.51 123.72 88.75 123.62
  Q 71.31 123.36 54.75 123.60
  Q 45.35 123.74 41.99 122.21
  C 26.81 115.29 32.74 91.65 39.08 81.36
  C 44.33 72.82 53.14 64.03 62.70 60.33
  Q 68.20 58.22 73.00 57.95
  Q 78.90 57.62 84.62 60.97
  Z
  M 87.15 94.50
  A 16.66 16.66 0.0 0 0 70.49 77.84
  A 16.66 16.66 0.0 0 0 53.83 94.50
  A 16.66 16.66 0.0 0 0 70.49 111.16
  A 16.66 16.66 0.0 0 0 87.15 94.50
  Z"
/>
<path fill="#dc8a07" d="
  M 87.15 94.50
  A 16.66 16.66 0.0 0 1 70.49 111.16
  A 16.66 16.66 0.0 0 1 53.83 94.50
  A 16.66 16.66 0.0 0 1 70.49 77.84
  A 16.66 16.66 0.0 0 1 87.15 94.50
  Z
  M 83.99 94.50
  A 13.49 13.49 0.0 0 0 70.50 81.01
  A 13.49 13.49 0.0 0 0 57.01 94.50
  A 13.49 13.49 0.0 0 0 70.50 107.99
  A 13.49 13.49 0.0 0 0 83.99 94.50
  Z"
/>
<path fill="#eccc63" d="
  M 83.99 94.50
  A 13.49 13.49 0.0 0 1 70.50 107.99
  A 13.49 13.49 0.0 0 1 57.01 94.50
  A 13.49 13.49 0.0 0 1 70.50 81.01
  A 13.49 13.49 0.0 0 1 83.99 94.50
  Z
  M 73.01 89.98
  C 66.52 85.68 61.35 94.95 66.79 98.86
  Q 69.41 100.74 72.60 99.03
  A 0.68 0.66 -37.7 0 1 73.35 99.12
  Q 74.19 99.83 75.26 99.57
  Q 75.73 99.46 75.73 98.97
  L 75.72 88.51
  A 0.65 0.65 0.0 0 1 76.22 87.88
  Q 76.73 87.77 77.09 87.39
  Q 77.49 86.96 77.01 86.64
  Q 76.19 86.08 75.59 85.28
  Q 75.20 84.76 74.55 84.82
  Q 73.67 84.92 73.31 85.70
  Q 73.06 86.23 72.48 86.23
  L 70.86 86.23
  Q 69.37 86.23 70.27 87.42
  Q 70.95 88.33 72.45 87.87
  A 0.81 0.81 0.0 0 1 73.49 88.65
  L 73.48 89.73
  Q 73.48 90.30 73.01 89.98
  Z
  M 77.1700 102.2383
  A 0.57 0.57 0.0 0 0 76.5990 101.6693
  L 64.3790 101.6907
  A 0.57 0.57 0.0 0 0 63.8100 102.2617
  L 63.8100 102.3017
  A 0.57 0.57 0.0 0 0 64.3810 102.8707
  L 76.6010 102.8493
  A 0.57 0.57 0.0 0 0 77.1700 102.2783
  L 77.1700 102.2383
  Z"
/>
<path fill="#dc8a07" d="
  M 73.48 89.73
  L 73.49 88.65
  A 0.81 0.81 0.0 0 0 72.45 87.87
  Q 70.95 88.33 70.27 87.42
  Q 69.37 86.23 70.86 86.23
  L 72.48 86.23
  Q 73.06 86.23 73.31 85.70
  Q 73.67 84.92 74.55 84.82
  Q 75.20 84.76 75.59 85.28
  Q 76.19 86.08 77.01 86.64
  Q 77.49 86.96 77.09 87.39
  Q 76.73 87.77 76.22 87.88
  A 0.65 0.65 0.0 0 0 75.72 88.51
  L 75.73 98.97
  Q 75.73 99.46 75.26 99.57
  Q 74.19 99.83 73.35 99.12
  A 0.68 0.66 -37.7 0 0 72.60 99.03
  Q 69.41 100.74 66.79 98.86
  C 61.35 94.95 66.52 85.68 73.01 89.98
  Q 73.48 90.30 73.48 89.73
  Z
  M 73.49 94.35
  A 3.35 3.35 0.0 0 0 70.14 91.00
  A 3.35 3.35 0.0 0 0 66.79 94.35
  A 3.35 3.35 0.0 0 0 70.14 97.70
  A 3.35 3.35 0.0 0 0 73.49 94.35
  Z"
/>
<circle fill="#eccc63" cx="70.14" cy="94.35" r="3.35"/>
<rect fill="#dc8a07" x="-6.68" y="-0.59" transform="translate(70.49,102.27) rotate(-0.1)" width="13.36" height="1.18" rx="0.57"/>
</svg>
