<?xml version="1.0" encoding="UTF-8" standalone="no"?>
<!DOCTYPE svg PUBLIC "-//W3C//DTD SVG 1.1//EN" "http://www.w3.org/Graphics/SVG/1.1/DTD/svg11.dtd">
<svg xmlns="http://www.w3.org/2000/svg" version="1.1" viewBox="0.00 0.00 144.00 144.00">
<g stroke-width="2.00" fill="none" stroke-linecap="butt">
<path stroke="#d889a6" vector-effect="non-scaling-stroke" d="
  M 40.99 31.32
  L 29.08 36.20"
/>
<path stroke="#f8b498" vector-effect="non-scaling-stroke" d="
  M 29.08 36.20
  Q 28.65 34.41 29.56 32.64
  Q 29.82 32.14 29.47 31.68
  Q 28.69 30.67 29.48 29.49
  A 1.10 1.09 -65.6 0 0 28.86 27.83
  Q 27.48 27.44 27.05 28.46
  C 26.46 29.84 27.92 30.61 26.68 32.13
  Q 26.31 32.58 26.87 32.76
  Q 27.02 32.81 27.11 32.94
  Q 27.28 33.20 27.28 33.61
  Q 27.22 74.74 27.29 115.57
  Q 27.30 116.26 27.99 116.25
  L 28.47 116.24
  A 0.69 0.68 -0.4 0 0 29.15 115.56
  L 29.07 77.55"
/>
<path stroke="#d889a6" vector-effect="non-scaling-stroke" d="
  M 29.07 77.55
  Q 39.29 73.10 49.21 69.17
  Q 56.95 66.10 63.53 69.87
  C 66.42 71.52 68.84 74.91 71.21 77.53
  Q 74.61 81.31 81.38 80.99"
/>
<path stroke="#df8ea4" vector-effect="non-scaling-stroke" d="
  M 81.38 80.99
  C 88.12 81.03 95.22 77.89 100.59 74.10
  C 105.11 70.92 111.01 71.27 116.03 72.36
  A 0.33 0.33 0.0 0 0 116.43 72.00
  L 115.69 66.33"
/>
<path stroke="#f09f9e" vector-effect="non-scaling-stroke" d="
  M 115.69 66.33
  C 113.67 59.59 107.25 57.01 107.28 49.33
  C 107.29 45.73 109.41 41.81 111.06 38.41"
/>
<path stroke="#df8ea4" vector-effect="non-scaling-stroke" d="
  M 111.06 38.41
  Q 113.12 35.12 112.75 31.63
  Q 112.64 30.60 111.65 30.89
  Q 98.37 34.83 85.50 38.26
  C 82.55 39.04 80.50 37.89 79.00 35.36
  Q 73.91 26.80 64.48 26.93
  Q 54.24 27.08 40.99 31.32"
/>
<path stroke="#d33146" vector-effect="non-scaling-stroke" d="
  M 111.06 38.41
  Q 107.03 39.53 100.75 38.23
  Q 96.76 37.41 92.19 40.08"
/>
<path stroke="#cc2549" vector-effect="non-scaling-stroke" d="
  M 92.19 40.08
  Q 86.20 44.23 79.55 41.61
  Q 76.40 40.38 74.55 38.03
  C 72.14 34.95 70.17 31.13 66.60 29.27
  Q 65.14 28.50 63.15 28.66
  Q 62.57 28.71 62.76 29.26
  Q 62.95 29.83 63.49 30.08
  Q 63.95 30.29 63.93 30.80
  Q 63.86 32.92 65.58 34.06
  Q 66.02 34.34 65.88 34.85
  Q 65.66 35.67 66.40 36.00
  Q 66.89 36.22 66.89 36.74
  L 66.89 37.19
  Q 66.89 37.67 67.30 37.92
  Q 67.95 38.30 67.89 39.03
  A 1.07 1.06 25.0 0 0 68.20 39.87
  Q 69.05 40.69 69.57 41.83"
/>
<path stroke="#de7856" vector-effect="non-scaling-stroke" d="
  M 69.57 41.83
  L 67.60 48.00
  Q 67.41 48.59 66.79 48.59
  L 59.20 48.55
  Q 58.32 48.55 59.03 49.07
  L 65.05 53.46
  Q 65.62 53.88 65.41 54.56
  L 64.29 58.23"
/>
<path stroke="#bb1a4d" vector-effect="non-scaling-stroke" d="
  M 64.29 58.23
  Q 60.46 56.93 56.68 57.00
  Q 56.05 57.01 55.42 56.83
  Q 54.85 56.66 54.20 56.74
  Q 53.42 56.84 53.00 56.18
  Q 52.87 55.97 53.00 55.79
  Q 53.23 55.44 52.92 55.16
  Q 52.78 55.04 52.63 54.97
  Q 52.22 54.76 52.06 54.32
  Q 51.57 52.93 50.57 51.88
  A 0.65 0.64 -74.0 0 1 50.42 51.60
  Q 50.28 51.11 50.57 50.90
  Q 51.14 50.49 50.58 50.07
  Q 50.28 49.84 49.91 49.87
  Q 48.91 49.96 49.56 49.20
  Q 49.67 49.07 49.77 48.92
  Q 50.09 48.48 49.62 48.19
  Q 48.10 47.25 48.08 45.61
  Q 48.07 45.20 47.70 45.02
  Q 46.98 44.67 46.84 43.85
  Q 46.78 43.44 46.54 43.11
  L 45.60 41.79
  Q 45.33 41.42 45.37 40.95
  Q 45.44 40.07 44.56 39.71
  Q 43.92 39.44 44.11 38.77
  Q 44.48 37.48 43.42 36.87
  Q 43.01 36.63 43.12 36.17
  Q 43.31 35.40 42.64 34.97
  Q 41.93 34.50 42.65 34.05
  Q 42.84 33.94 42.84 33.72
  Q 42.82 33.12 42.28 32.85
  Q 41.22 32.32 40.99 31.32"
/>
<path stroke="#dc3743" vector-effect="non-scaling-stroke" d="
  M 92.19 40.08
  Q 92.44 43.36 94.42 45.46
  Q 94.64 45.69 94.40 45.84
  Q 94.36 45.87 94.31 45.85
  Q 93.38 45.39 93.81 46.33
  Q 94.07 46.87 94.61 47.17
  A 0.89 0.89 0.0 0 1 95.08 47.92
  Q 95.14 49.29 96.50 49.45
  Q 96.97 49.50 96.73 49.91
  Q 96.38 50.53 96.95 50.93
  Q 97.50 51.31 97.54 51.99
  Q 97.61 53.26 98.44 54.07
  Q 98.86 54.49 98.44 54.91
  Q 97.97 55.37 98.45 55.95
  A 0.69 0.69 0.0 0 0 99.22 56.16
  Q 99.45 56.07 99.69 56.11
  Q 100.44 56.25 99.98 56.85
  Q 99.48 57.49 100.06 57.84
  Q 100.54 58.13 100.73 58.65
  L 101.85 61.65
  Q 101.96 61.94 102.22 62.14
  Q 102.53 62.38 102.50 62.76
  Q 102.47 63.26 102.83 63.60
  Q 104.00 64.72 105.68 65.46"
/>
<path stroke="#cc2549" vector-effect="non-scaling-stroke" d="
  M 105.68 65.46
  Q 101.93 65.65 98.80 67.51
  C 96.89 68.65 95.10 69.41 92.93 69.11
  C 89.52 68.63 86.14 67.74 82.57 68.12
  Q 80.39 68.36 78.22 68.64
  Q 76.03 68.93 73.77 68.81"
/>
<path stroke="#c5204b" vector-effect="non-scaling-stroke" d="
  M 73.77 68.81
  Q 71.44 68.39 70.27 67.20
  Q 68.05 64.97 65.76 60.47"
/>
<path stroke="#e77e54" vector-effect="non-scaling-stroke" d="
  M 65.76 60.47
  L 69.86 57.50
  Q 70.28 57.20 70.70 57.51
  L 76.84 61.98
  Q 77.57 62.51 77.29 61.66
  L 74.82 54.24
  A 0.46 0.45 63.9 0 1 74.99 53.73
  L 81.24 49.24
  Q 82.20 48.55 81.01 48.56
  L 73.57 48.59
  Q 73.00 48.59 72.83 48.06
  L 70.55 40.92
  Q 70.33 40.22 70.02 40.89
  L 69.57 41.83"
/>
<path stroke="#d77358" vector-effect="non-scaling-stroke" d="
  M 64.29 58.23
  L 63.37 61.66
  Q 63.19 62.33 63.75 61.93
  L 65.76 60.47"
/>
<path stroke="#bb1a4d" vector-effect="non-scaling-stroke" d="
  M 73.77 68.81
  Q 73.55 69.22 73.95 69.72
  Q 74.22 70.04 74.59 70.19
  Q 75.15 70.42 75.10 70.99
  Q 75.08 71.23 75.19 71.45
  Q 75.36 71.76 75.70 71.61
  A 0.43 0.43 0.0 0 1 76.27 71.84
  Q 77.16 73.96 78.96 75.56
  Q 79.08 75.66 79.12 75.81
  Q 79.16 75.99 79.10 76.16
  A 0.53 0.52 23.1 0 0 79.37 76.82
  Q 79.74 76.99 80.14 76.89
  Q 80.50 76.80 80.80 77.02
  Q 80.91 77.11 80.97 77.24
  Q 81.24 77.84 80.61 78.03
  Q 80.36 78.10 80.18 78.31
  A 0.34 0.33 27.0 0 0 80.36 78.85
  Q 84.15 79.84 81.38 80.99"
/>
<path stroke="#d33146" vector-effect="non-scaling-stroke" d="
  M 115.69 66.33
  Q 110.45 67.17 105.68 65.46"
/>
<path stroke="#d44042" vector-effect="non-scaling-stroke" d="
  M 29.08 36.20
  L 29.07 77.55"
/>
<path stroke="#f1d7ab" vector-effect="non-scaling-stroke" d="
  M 32.35 84.11
  Q 32.21 96.98 32.36 109.47
  Q 32.38 111.14 32.82 111.97
  C 33.98 114.22 37.97 115.43 40.25 115.88
  Q 48.42 117.48 56.10 114.87
  A 1.54 1.53 -45.3 0 1 57.08 114.86
  Q 65.50 117.62 73.95 115.69
  C 76.54 115.09 81.01 113.46 80.98 110.26
  Q 80.94 106.14 80.94 101.48"
/>
<path stroke="#fbe7af" vector-effect="non-scaling-stroke" d="
  M 80.94 101.48
  Q 81.58 97.96 78.00 96.27
  Q 72.23 93.56 65.00 94.21
  Q 62.62 94.42 60.41 94.51"
/>
<path stroke="#f1d7ab" vector-effect="non-scaling-stroke" d="
  M 60.41 94.51
  L 60.41 84.13"
/>
<path stroke="#fbe7af" vector-effect="non-scaling-stroke" d="
  M 60.41 84.13
  Q 61.35 80.11 56.93 78.32
  Q 46.70 74.17 35.86 78.33
  Q 31.56 79.98 32.35 84.11"
/>
<path stroke="#f0c15d" vector-effect="non-scaling-stroke" d="
  M 60.41 84.13
  Q 56.82 86.45 53.24 87.30
  Q 41.96 89.99 32.35 84.11"
/>
<path stroke="#f0c15d" vector-effect="non-scaling-stroke" d="
  M 60.41 94.51
  Q 57.54 95.35 55.09 96.87
  Q 52.84 98.28 51.11 98.55
  C 45.56 99.41 38.67 99.17 33.98 95.62
  A 0.40 0.40 0.0 0 0 33.43 95.69
  L 33.26 95.89
  Q 33.22 95.94 33.26 96.00
  C 37.06 100.28 46.97 100.26 52.17 99.34
  Q 52.71 99.25 52.84 99.78
  C 54.42 106.62 68.76 106.17 73.76 105.08
  Q 77.59 104.24 80.94 101.48"
/>
<path stroke="#f0c15d" vector-effect="non-scaling-stroke" d="
  M 33.29 90.24
  A 0.34 0.33 26.2 0 0 33.42 90.60
  Q 36.73 93.02 40.64 93.56
  C 46.94 94.42 55.15 94.68 59.75 89.93
  Q 59.84 89.84 59.77 89.73
  L 59.56 89.40
  Q 59.52 89.34 59.47 89.39
  C 54.71 93.18 46.54 93.39 40.60 92.49
  Q 36.86 91.93 33.84 89.57
  Q 33.53 89.32 33.43 89.70
  L 33.29 90.24"
/>
<path stroke="#f0c15d" vector-effect="non-scaling-stroke" d="
  M 33.42 102.21
  C 38.46 106.06 46.88 106.36 52.72 105.15
  Q 53.14 105.06 52.94 104.68
  L 52.79 104.40
  A 0.53 0.51 69.1 0 0 52.23 104.14
  C 46.62 105.26 38.43 105.24 34.05 101.53
  Q 33.74 101.26 33.51 101.60
  L 33.36 101.82
  A 0.30 0.28 -54.9 0 0 33.42 102.21"
/>
<path stroke="#f0c15d" vector-effect="non-scaling-stroke" d="
  M 79.64 107.36
  C 76.65 109.25 72.91 110.29 69.42 110.26
  C 66.61 110.23 63.25 110.70 60.52 109.98
  C 57.74 109.24 55.29 108.58 53.39 106.26
  Q 53.25 106.09 53.09 106.24
  L 52.90 106.42
  Q 52.83 106.49 52.89 106.58
  Q 54.95 109.34 58.49 110.33
  Q 67.64 112.88 76.18 110.10
  Q 78.57 109.32 79.85 107.59
  A 0.16 0.16 0.0 0 0 79.64 107.36"
/>
</g>
<path fill="#fcfcfc" d="
  M 28.13 0.00
  L 115.98 0.00
  Q 140.18 3.56 144.00 27.61
  L 144.00 116.50
  Q 140.19 140.31 116.39 144.00
  L 27.49 144.00
  Q 3.60 140.09 0.00 116.11
  L 0.00 27.77
  Q 0.56 25.52 1.02 23.24
  C 3.24 12.29 12.44 3.20 23.36 0.99
  Q 25.75 0.50 28.13 0.00
  Z
  M 40.99 31.32
  L 29.08 36.20
  Q 28.65 34.41 29.56 32.64
  Q 29.82 32.14 29.47 31.68
  Q 28.69 30.67 29.48 29.49
  A 1.10 1.09 -65.6 0 0 28.86 27.83
  Q 27.48 27.44 27.05 28.46
  C 26.46 29.84 27.92 30.61 26.68 32.13
  Q 26.31 32.58 26.87 32.76
  Q 27.02 32.81 27.11 32.94
  Q 27.28 33.20 27.28 33.61
  Q 27.22 74.74 27.29 115.57
  Q 27.30 116.26 27.99 116.25
  L 28.47 116.24
  A 0.69 0.68 -0.4 0 0 29.15 115.56
  L 29.07 77.55
  Q 39.29 73.10 49.21 69.17
  Q 56.95 66.10 63.53 69.87
  C 66.42 71.52 68.84 74.91 71.21 77.53
  Q 74.61 81.31 81.38 80.99
  C 88.12 81.03 95.22 77.89 100.59 74.10
  C 105.11 70.92 111.01 71.27 116.03 72.36
  A 0.33 0.33 0.0 0 0 116.43 72.00
  L 115.69 66.33
  C 113.67 59.59 107.25 57.01 107.28 49.33
  C 107.29 45.73 109.41 41.81 111.06 38.41
  Q 113.12 35.12 112.75 31.63
  Q 112.64 30.60 111.65 30.89
  Q 98.37 34.83 85.50 38.26
  C 82.55 39.04 80.50 37.89 79.00 35.36
  Q 73.91 26.80 64.48 26.93
  Q 54.24 27.08 40.99 31.32
  Z
  M 32.35 84.11
  Q 32.21 96.98 32.36 109.47
  Q 32.38 111.14 32.82 111.97
  C 33.98 114.22 37.97 115.43 40.25 115.88
  Q 48.42 117.48 56.10 114.87
  A 1.54 1.53 -45.3 0 1 57.08 114.86
  Q 65.50 117.62 73.95 115.69
  C 76.54 115.09 81.01 113.46 80.98 110.26
  Q 80.94 106.14 80.94 101.48
  Q 81.58 97.96 78.00 96.27
  Q 72.23 93.56 65.00 94.21
  Q 62.62 94.42 60.41 94.51
  L 60.41 84.13
  Q 61.35 80.11 56.93 78.32
  Q 46.70 74.17 35.86 78.33
  Q 31.56 79.98 32.35 84.11
  Z"
/>
<path fill="#c21f4b" d="
  M 111.06 38.41
  Q 107.03 39.53 100.75 38.23
  Q 96.76 37.41 92.19 40.08
  Q 86.20 44.23 79.55 41.61
  Q 76.40 40.38 74.55 38.03
  C 72.14 34.95 70.17 31.13 66.60 29.27
  Q 65.14 28.50 63.15 28.66
  Q 62.57 28.71 62.76 29.26
  Q 62.95 29.83 63.49 30.08
  Q 63.95 30.29 63.93 30.80
  Q 63.86 32.92 65.58 34.06
  Q 66.02 34.34 65.88 34.85
  Q 65.66 35.67 66.40 36.00
  Q 66.89 36.22 66.89 36.74
  L 66.89 37.19
  Q 66.89 37.67 67.30 37.92
  Q 67.95 38.30 67.89 39.03
  A 1.07 1.06 25.0 0 0 68.20 39.87
  Q 69.05 40.69 69.57 41.83
  L 67.60 48.00
  Q 67.41 48.59 66.79 48.59
  L 59.20 48.55
  Q 58.32 48.55 59.03 49.07
  L 65.05 53.46
  Q 65.62 53.88 65.41 54.56
  L 64.29 58.23
  Q 60.46 56.93 56.68 57.00
  Q 56.05 57.01 55.42 56.83
  Q 54.85 56.66 54.20 56.74
  Q 53.42 56.84 53.00 56.18
  Q 52.87 55.97 53.00 55.79
  Q 53.23 55.44 52.92 55.16
  Q 52.78 55.04 52.63 54.97
  Q 52.22 54.76 52.06 54.32
  Q 51.57 52.93 50.57 51.88
  A 0.65 0.64 -74.0 0 1 50.42 51.60
  Q 50.28 51.11 50.57 50.90
  Q 51.14 50.49 50.58 50.07
  Q 50.28 49.84 49.91 49.87
  Q 48.91 49.96 49.56 49.20
  Q 49.67 49.07 49.77 48.92
  Q 50.09 48.48 49.62 48.19
  Q 48.10 47.25 48.08 45.61
  Q 48.07 45.20 47.70 45.02
  Q 46.98 44.67 46.84 43.85
  Q 46.78 43.44 46.54 43.11
  L 45.60 41.79
  Q 45.33 41.42 45.37 40.95
  Q 45.44 40.07 44.56 39.71
  Q 43.92 39.44 44.11 38.77
  Q 44.48 37.48 43.42 36.87
  Q 43.01 36.63 43.12 36.17
  Q 43.31 35.40 42.64 34.97
  Q 41.93 34.50 42.65 34.05
  Q 42.84 33.94 42.84 33.72
  Q 42.82 33.12 42.28 32.85
  Q 41.22 32.32 40.99 31.32
  Q 54.24 27.08 64.48 26.93
  Q 73.91 26.80 79.00 35.36
  C 80.50 37.89 82.55 39.04 85.50 38.26
  Q 98.37 34.83 111.65 30.89
  Q 112.64 30.60 112.75 31.63
  Q 113.12 35.12 111.06 38.41
  Z"
/>
<path fill="#f36b34" d="
  M 29.08 36.20
  L 29.07 77.55
  L 29.15 115.56
  A 0.69 0.68 -0.4 0 1 28.47 116.24
  L 27.99 116.25
  Q 27.30 116.26 27.29 115.57
  Q 27.22 74.74 27.28 33.61
  Q 27.28 33.20 27.11 32.94
  Q 27.02 32.81 26.87 32.76
  Q 26.31 32.58 26.68 32.13
  C 27.92 30.61 26.46 29.84 27.05 28.46
  Q 27.48 27.44 28.86 27.83
  A 1.10 1.09 -65.6 0 1 29.48 29.49
  Q 28.69 30.67 29.47 31.68
  Q 29.82 32.14 29.56 32.64
  Q 28.65 34.41 29.08 36.20
  Z"
/>
<path fill="#d52b46" d="
  M 92.19 40.08
  Q 92.44 43.36 94.42 45.46
  Q 94.64 45.69 94.40 45.84
  Q 94.36 45.87 94.31 45.85
  Q 93.38 45.39 93.81 46.33
  Q 94.07 46.87 94.61 47.17
  A 0.89 0.89 0.0 0 1 95.08 47.92
  Q 95.14 49.29 96.50 49.45
  Q 96.97 49.50 96.73 49.91
  Q 96.38 50.53 96.95 50.93
  Q 97.50 51.31 97.54 51.99
  Q 97.61 53.26 98.44 54.07
  Q 98.86 54.49 98.44 54.91
  Q 97.97 55.37 98.45 55.95
  A 0.69 0.69 0.0 0 0 99.22 56.16
  Q 99.45 56.07 99.69 56.11
  Q 100.44 56.25 99.98 56.85
  Q 99.48 57.49 100.06 57.84
  Q 100.54 58.13 100.73 58.65
  L 101.85 61.65
  Q 101.96 61.94 102.22 62.14
  Q 102.53 62.38 102.50 62.76
  Q 102.47 63.26 102.83 63.60
  Q 104.00 64.72 105.68 65.46
  Q 101.93 65.65 98.80 67.51
  C 96.89 68.65 95.10 69.41 92.93 69.11
  C 89.52 68.63 86.14 67.74 82.57 68.12
  Q 80.39 68.36 78.22 68.64
  Q 76.03 68.93 73.77 68.81
  Q 71.44 68.39 70.27 67.20
  Q 68.05 64.97 65.76 60.47
  L 69.86 57.50
  Q 70.28 57.20 70.70 57.51
  L 76.84 61.98
  Q 77.57 62.51 77.29 61.66
  L 74.82 54.24
  A 0.46 0.45 63.9 0 1 74.99 53.73
  L 81.24 49.24
  Q 82.20 48.55 81.01 48.56
  L 73.57 48.59
  Q 73.00 48.59 72.83 48.06
  L 70.55 40.92
  Q 70.33 40.22 70.02 40.89
  L 69.57 41.83
  Q 69.05 40.69 68.20 39.87
  A 1.07 1.06 25.0 0 1 67.89 39.03
  Q 67.95 38.30 67.30 37.92
  Q 66.89 37.67 66.89 37.19
  L 66.89 36.74
  Q 66.89 36.22 66.40 36.00
  Q 65.66 35.67 65.88 34.85
  Q 66.02 34.34 65.58 34.06
  Q 63.86 32.92 63.93 30.80
  Q 63.95 30.29 63.49 30.08
  Q 62.95 29.83 62.76 29.26
  Q 62.57 28.71 63.15 28.66
  Q 65.14 28.50 66.60 29.27
  C 70.17 31.13 72.14 34.95 74.55 38.03
  Q 76.40 40.38 79.55 41.61
  Q 86.20 44.23 92.19 40.08
  Z"
/>
<path fill="#b4154f" d="
  M 40.99 31.32
  Q 41.22 32.32 42.28 32.85
  Q 42.82 33.12 42.84 33.72
  Q 42.84 33.94 42.65 34.05
  Q 41.93 34.50 42.64 34.97
  Q 43.31 35.40 43.12 36.17
  Q 43.01 36.63 43.42 36.87
  Q 44.48 37.48 44.11 38.77
  Q 43.92 39.44 44.56 39.71
  Q 45.44 40.07 45.37 40.95
  Q 45.33 41.42 45.60 41.79
  L 46.54 43.11
  Q 46.78 43.44 46.84 43.85
  Q 46.98 44.67 47.70 45.02
  Q 48.07 45.20 48.08 45.61
  Q 48.10 47.25 49.62 48.19
  Q 50.09 48.48 49.77 48.92
  Q 49.67 49.07 49.56 49.20
  Q 48.91 49.96 49.91 49.87
  Q 50.28 49.84 50.58 50.07
  Q 51.14 50.49 50.57 50.90
  Q 50.28 51.11 50.42 51.60
  A 0.65 0.64 -74.0 0 0 50.57 51.88
  Q 51.57 52.93 52.06 54.32
  Q 52.22 54.76 52.63 54.97
  Q 52.78 55.04 52.92 55.16
  Q 53.23 55.44 53.00 55.79
  Q 52.87 55.97 53.00 56.18
  Q 53.42 56.84 54.20 56.74
  Q 54.85 56.66 55.42 56.83
  Q 56.05 57.01 56.68 57.00
  Q 60.46 56.93 64.29 58.23
  L 63.37 61.66
  Q 63.19 62.33 63.75 61.93
  L 65.76 60.47
  Q 68.05 64.97 70.27 67.20
  Q 71.44 68.39 73.77 68.81
  Q 73.55 69.22 73.95 69.72
  Q 74.22 70.04 74.59 70.19
  Q 75.15 70.42 75.10 70.99
  Q 75.08 71.23 75.19 71.45
  Q 75.36 71.76 75.70 71.61
  A 0.43 0.43 0.0 0 1 76.27 71.84
  Q 77.16 73.96 78.96 75.56
  Q 79.08 75.66 79.12 75.81
  Q 79.16 75.99 79.10 76.16
  A 0.53 0.52 23.1 0 0 79.37 76.82
  Q 79.74 76.99 80.14 76.89
  Q 80.50 76.80 80.80 77.02
  Q 80.91 77.11 80.97 77.24
  Q 81.24 77.84 80.61 78.03
  Q 80.36 78.10 80.18 78.31
  A 0.34 0.33 27.0 0 0 80.36 78.85
  Q 84.15 79.84 81.38 80.99
  Q 74.61 81.31 71.21 77.53
  C 68.84 74.91 66.42 71.52 63.53 69.87
  Q 56.95 66.10 49.21 69.17
  Q 39.29 73.10 29.07 77.55
  L 29.08 36.20
  L 40.99 31.32
  Z"
/>
<path fill="#e34240" d="
  M 111.06 38.41
  C 109.41 41.81 107.29 45.73 107.28 49.33
  C 107.25 57.01 113.67 59.59 115.69 66.33
  Q 110.45 67.17 105.68 65.46
  Q 104.00 64.72 102.83 63.60
  Q 102.47 63.26 102.50 62.76
  Q 102.53 62.38 102.22 62.14
  Q 101.96 61.94 101.85 61.65
  L 100.73 58.65
  Q 100.54 58.13 100.06 57.84
  Q 99.48 57.49 99.98 56.85
  Q 100.44 56.25 99.69 56.11
  Q 99.45 56.07 99.22 56.16
  A 0.69 0.69 0.0 0 1 98.45 55.95
  Q 97.97 55.37 98.44 54.91
  Q 98.86 54.49 98.44 54.07
  Q 97.61 53.26 97.54 51.99
  Q 97.50 51.31 96.95 50.93
  Q 96.38 50.53 96.73 49.91
  Q 96.97 49.50 96.50 49.45
  Q 95.14 49.29 95.08 47.92
  A 0.89 0.89 0.0 0 0 94.61 47.17
  Q 94.07 46.87 93.81 46.33
  Q 93.38 45.39 94.31 45.85
  Q 94.36 45.87 94.40 45.84
  Q 94.64 45.69 94.42 45.46
  Q 92.44 43.36 92.19 40.08
  Q 96.76 37.41 100.75 38.23
  Q 107.03 39.53 111.06 38.41
  Z"
/>
<path fill="#f9d161" d="
  M 65.76 60.47
  L 63.75 61.93
  Q 63.19 62.33 63.37 61.66
  L 64.29 58.23
  L 65.41 54.56
  Q 65.62 53.88 65.05 53.46
  L 59.03 49.07
  Q 58.32 48.55 59.20 48.55
  L 66.79 48.59
  Q 67.41 48.59 67.60 48.00
  L 69.57 41.83
  L 70.02 40.89
  Q 70.33 40.22 70.55 40.92
  L 72.83 48.06
  Q 73.00 48.59 73.57 48.59
  L 81.01 48.56
  Q 82.20 48.55 81.24 49.24
  L 74.99 53.73
  A 0.46 0.45 63.9 0 0 74.82 54.24
  L 77.29 61.66
  Q 77.57 62.51 76.84 61.98
  L 70.70 57.51
  Q 70.28 57.20 69.86 57.50
  L 65.76 60.47
  Z"
/>
<path fill="#c21f4b" d="
  M 105.68 65.46
  Q 110.45 67.17 115.69 66.33
  L 116.43 72.00
  A 0.33 0.33 0.0 0 1 116.03 72.36
  C 111.01 71.27 105.11 70.92 100.59 74.10
  C 95.22 77.89 88.12 81.03 81.38 80.99
  Q 84.15 79.84 80.36 78.85
  A 0.34 0.33 27.0 0 1 80.18 78.31
  Q 80.36 78.10 80.61 78.03
  Q 81.24 77.84 80.97 77.24
  Q 80.91 77.11 80.80 77.02
  Q 80.50 76.80 80.14 76.89
  Q 79.74 76.99 79.37 76.82
  A 0.53 0.52 23.1 0 1 79.10 76.16
  Q 79.16 75.99 79.12 75.81
  Q 79.08 75.66 78.96 75.56
  Q 77.16 73.96 76.27 71.84
  A 0.43 0.43 0.0 0 0 75.70 71.61
  Q 75.36 71.76 75.19 71.45
  Q 75.08 71.23 75.10 70.99
  Q 75.15 70.42 74.59 70.19
  Q 74.22 70.04 73.95 69.72
  Q 73.55 69.22 73.77 68.81
  Q 76.03 68.93 78.22 68.64
  Q 80.39 68.36 82.57 68.12
  C 86.14 67.74 89.52 68.63 92.93 69.11
  C 95.10 69.41 96.89 68.65 98.80 67.51
  Q 101.93 65.65 105.68 65.46
  Z"
/>
<path fill="#f9d161" d="
  M 60.41 84.13
  Q 56.82 86.45 53.24 87.30
  Q 41.96 89.99 32.35 84.11
  Q 31.56 79.98 35.86 78.33
  Q 46.70 74.17 56.93 78.32
  Q 61.35 80.11 60.41 84.13
  Z"
/>
<path fill="#e6b159" d="
  M 32.35 84.11
  Q 41.96 89.99 53.24 87.30
  Q 56.82 86.45 60.41 84.13
  L 60.41 94.51
  Q 57.54 95.35 55.09 96.87
  Q 52.84 98.28 51.11 98.55
  C 45.56 99.41 38.67 99.17 33.98 95.62
  A 0.40 0.40 0.0 0 0 33.43 95.69
  L 33.26 95.89
  Q 33.22 95.94 33.26 96.00
  C 37.06 100.28 46.97 100.26 52.17 99.34
  Q 52.71 99.25 52.84 99.78
  C 54.42 106.62 68.76 106.17 73.76 105.08
  Q 77.59 104.24 80.94 101.48
  Q 80.94 106.14 80.98 110.26
  C 81.01 113.46 76.54 115.09 73.95 115.69
  Q 65.50 117.62 57.08 114.86
  A 1.54 1.53 -45.3 0 0 56.10 114.87
  Q 48.42 117.48 40.25 115.88
  C 37.97 115.43 33.98 114.22 32.82 111.97
  Q 32.38 111.14 32.36 109.47
  Q 32.21 96.98 32.35 84.11
  Z
  M 33.29 90.24
  A 0.34 0.33 26.2 0 0 33.42 90.60
  Q 36.73 93.02 40.64 93.56
  C 46.94 94.42 55.15 94.68 59.75 89.93
  Q 59.84 89.84 59.77 89.73
  L 59.56 89.40
  Q 59.52 89.34 59.47 89.39
  C 54.71 93.18 46.54 93.39 40.60 92.49
  Q 36.86 91.93 33.84 89.57
  Q 33.53 89.32 33.43 89.70
  L 33.29 90.24
  Z
  M 33.42 102.21
  C 38.46 106.06 46.88 106.36 52.72 105.15
  Q 53.14 105.06 52.94 104.68
  L 52.79 104.40
  A 0.53 0.51 69.1 0 0 52.23 104.14
  C 46.62 105.26 38.43 105.24 34.05 101.53
  Q 33.74 101.26 33.51 101.60
  L 33.36 101.82
  A 0.30 0.28 -54.9 0 0 33.42 102.21
  Z
  M 79.64 107.36
  C 76.65 109.25 72.91 110.29 69.42 110.26
  C 66.61 110.23 63.25 110.70 60.52 109.98
  C 57.74 109.24 55.29 108.58 53.39 106.26
  Q 53.25 106.09 53.09 106.24
  L 52.90 106.42
  Q 52.83 106.49 52.89 106.58
  Q 54.95 109.34 58.49 110.33
  Q 67.64 112.88 76.18 110.10
  Q 78.57 109.32 79.85 107.59
  A 0.16 0.16 0.0 0 0 79.64 107.36
  Z"
/>
<path fill="#f9d161" d="
  M 33.29 90.24
  L 33.43 89.70
  Q 33.53 89.32 33.84 89.57
  Q 36.86 91.93 40.60 92.49
  C 46.54 93.39 54.71 93.18 59.47 89.39
  Q 59.52 89.34 59.56 89.40
  L 59.77 89.73
  Q 59.84 89.84 59.75 89.93
  C 55.15 94.68 46.94 94.42 40.64 93.56
  Q 36.73 93.02 33.42 90.60
  A 0.34 0.33 26.2 0 1 33.29 90.24
  Z"
/>
<path fill="#f9d161" d="
  M 80.94 101.48
  Q 77.59 104.24 73.76 105.08
  C 68.76 106.17 54.42 106.62 52.84 99.78
  Q 52.71 99.25 52.17 99.34
  C 46.97 100.26 37.06 100.28 33.26 96.00
  Q 33.22 95.94 33.26 95.89
  L 33.43 95.69
  A 0.40 0.40 0.0 0 1 33.98 95.62
  C 38.67 99.17 45.56 99.41 51.11 98.55
  Q 52.84 98.28 55.09 96.87
  Q 57.54 95.35 60.41 94.51
  Q 62.62 94.42 65.00 94.21
  Q 72.23 93.56 78.00 96.27
  Q 81.58 97.96 80.94 101.48
  Z"
/>
<path fill="#f9d161" d="
  M 52.72 105.15
  C 46.88 106.36 38.46 106.06 33.42 102.21
  A 0.30 0.28 -54.9 0 1 33.36 101.82
  L 33.51 101.60
  Q 33.74 101.26 34.05 101.53
  C 38.43 105.24 46.62 105.26 52.23 104.14
  A 0.53 0.51 69.1 0 1 52.79 104.40
  L 52.94 104.68
  Q 53.14 105.06 52.72 105.15
  Z"
/>
<path fill="#f9d161" d="
  M 79.64 107.36
  A 0.16 0.16 0.0 0 1 79.85 107.59
  Q 78.57 109.32 76.18 110.10
  Q 67.64 112.88 58.49 110.33
  Q 54.95 109.34 52.89 106.58
  Q 52.83 106.49 52.90 106.42
  L 53.09 106.24
  Q 53.25 106.09 53.39 106.26
  C 55.29 108.58 57.74 109.24 60.52 109.98
  C 63.25 110.70 66.61 110.23 69.42 110.26
  C 72.91 110.29 76.65 109.25 79.64 107.36
  Z"
/>
</svg>
