<?xml version="1.0" encoding="UTF-8" standalone="no"?>
<!DOCTYPE svg PUBLIC "-//W3C//DTD SVG 1.1//EN" "http://www.w3.org/Graphics/SVG/1.1/DTD/svg11.dtd">
<svg xmlns="http://www.w3.org/2000/svg" version="1.1" viewBox="0.00 0.00 144.00 144.00">
<g stroke-width="2.00" fill="none" stroke-linecap="butt">
<path stroke="#7ed1ed" vector-effect="non-scaling-stroke" d="
  M 131.98 48.07
  A 18.04 18.04 0.0 0 0 113.94 30.03
  A 18.04 18.04 0.0 0 0 95.90 48.07
  A 18.04 18.04 0.0 0 0 113.94 66.11
  A 18.04 18.04 0.0 0 0 131.98 48.07"
/>
<path stroke="#bec7ce" vector-effect="non-scaling-stroke" d="
  M 49.70 42.02
  A 0.62 0.62 0.0 0 0 49.38 42.11
  L 46.43 43.86
  A 0.62 0.62 0.0 0 0 46.75 45.01
  L 92.72 45.00
  A 0.62 0.62 0.0 0 0 93.33 44.52
  L 93.73 42.75
  A 0.62 0.62 0.0 0 0 93.12 41.99
  L 49.70 42.02"
/>
<path stroke="#a3b0b9" vector-effect="non-scaling-stroke" d="
  M 92.64 51.00
  A 0.69 0.69 0.0 0 0 93.31 50.19
  L 93.02 48.56
  A 0.69 0.69 0.0 0 0 92.34 47.99
  L 37.84 48.01
  A 0.69 0.69 0.0 0 0 37.52 48.09
  L 34.53 49.71
  A 0.69 0.69 0.0 0 0 34.85 51.01
  L 92.64 51.00"
/>
<path stroke="#dd89a1" vector-effect="non-scaling-stroke" d="
  M 94.14 54.52
  Q 93.95 53.99 93.39 53.99
  Q 59.09 54.02 25.44 53.97
  C 18.51 53.95 14.90 57.74 14.97 64.61
  Q 15.15 85.04 14.91 105.29
  Q 14.87 108.26 15.53 110.69
  C 16.65 114.85 20.58 117.05 24.78 117.03
  Q 64.16 116.91 100.76 117.04
  C 104.67 117.05 108.30 115.68 110.03 111.97
  Q 111.12 109.62 111.08 104.37
  Q 110.93 87.29 111.02 69.25
  Q 111.03 68.67 110.46 68.55
  Q 98.54 66.12 94.14 54.52"
/>
<path stroke="#bec7ce" vector-effect="non-scaling-stroke" d="
  M 120.00 88.31
  A 0.56 0.56 0.0 0 0 121.03 88.61
  L 122.79 85.88
  A 0.56 0.56 0.0 0 0 122.88 85.58
  L 123.03 67.80
  A 0.56 0.56 0.0 0 0 122.26 67.27
  L 120.36 68.04
  A 0.56 0.56 0.0 0 0 120.01 68.56
  L 120.00 88.31"
/>
<path stroke="#a3b0b9" vector-effect="non-scaling-stroke" d="
  M 114.00 100.13
  A 0.64 0.64 0.0 0 0 115.19 100.45
  L 116.88 97.56
  A 0.64 0.64 0.0 0 0 116.97 97.24
  L 117.02 69.36
  A 0.64 0.64 0.0 0 0 116.28 68.73
  L 114.54 69.00
  A 0.64 0.64 0.0 0 0 114.00 69.64
  L 114.00 100.13"
/>
<path stroke="#7ed1ed" vector-effect="non-scaling-stroke" d="
  M 116.92 46.01
  A 1.14 1.14 0.0 0 1 115.99 45.08
  L 115.11 40.08
  A 1.14 1.14 0.0 0 0 112.87 40.08
  L 111.99 45.08
  A 1.14 1.14 0.0 0 1 111.06 46.01
  L 106.06 46.89
  A 1.14 1.14 0.0 0 0 106.06 49.13
  L 111.06 50.01
  A 1.14 1.14 0.0 0 1 111.99 50.94
  L 112.87 55.94
  A 1.14 1.14 0.0 0 0 115.11 55.94
  L 115.99 50.94
  A 1.14 1.14 0.0 0 1 116.92 50.01
  L 121.92 49.13
  A 1.14 1.14 0.0 0 0 121.92 46.89
  L 116.92 46.01"
/>
<path stroke="#dd89a1" vector-effect="non-scaling-stroke" d="
  M 28.43 81.43
  A 1.95 1.93 -9.7 0 1 27.96 81.10
  C 27.07 80.28 26.63 79.16 25.19 79.23
  Q 24.07 79.28 23.47 80.19
  C 22.07 82.34 25.26 84.52 26.65 85.49
  Q 27.14 85.83 27.36 86.39
  C 28.30 88.69 30.99 88.40 31.69 86.13
  Q 31.86 85.59 32.31 85.26
  Q 34.18 83.90 34.69 82.11
  C 36.01 77.46 31.66 75.86 28.34 74.32
  Q 27.42 73.89 27.88 72.99
  Q 28.16 72.43 29.14 72.46
  A 1.20 1.16 65.0 0 1 29.87 72.74
  Q 30.58 73.36 31.22 74.10
  A 2.19 2.15 37.2 0 0 34.86 73.63
  C 36.06 70.98 32.00 69.92 31.63 67.77
  A 2.04 2.04 0.0 0 0 30.67 66.37
  C 29.63 65.73 28.15 65.94 27.62 67.14
  C 27.24 68.00 26.78 68.58 25.94 69.04
  C 23.38 70.46 22.42 73.65 24.10 76.13
  C 25.45 78.11 27.98 78.76 29.98 79.95
  Q 30.79 80.44 30.27 81.23
  Q 29.72 82.06 28.43 81.43"
/>
<path stroke="#dd89a1" vector-effect="non-scaling-stroke" d="
  M 32.9776 96.1728
  A 0.69 0.69 0.0 0 0 32.2852 95.4852
  L 23.7852 95.5148
  A 0.69 0.69 0.0 0 0 23.0977 96.2072
  L 23.1024 97.5672
  A 0.69 0.69 0.0 0 0 23.7948 98.2548
  L 32.2948 98.2252
  A 0.69 0.69 0.0 0 0 32.9823 97.5328
  L 32.9776 96.1728"
/>
<path stroke="#dd89a1" vector-effect="non-scaling-stroke" d="
  M 52.24 96.27
  A 0.66 0.66 0.0 0 0 51.58 95.61
  L 43.00 95.61
  A 0.66 0.66 0.0 0 0 42.34 96.27
  L 42.34 97.55
  A 0.66 0.66 0.0 0 0 43.00 98.21
  L 51.58 98.21
  A 0.66 0.66 0.0 0 0 52.24 97.55
  L 52.24 96.27"
/>
<path stroke="#dd89a1" vector-effect="non-scaling-stroke" d="
  M 52.50 104.11
  A 1.08 1.08 0.0 0 0 51.42 103.03
  L 24.22 103.03
  A 1.08 1.08 0.0 0 0 23.14 104.11
  L 23.14 104.65
  A 1.08 1.08 0.0 0 0 24.22 105.73
  L 51.42 105.73
  A 1.08 1.08 0.0 0 0 52.50 104.65
  L 52.50 104.11"
/>
</g>
<path fill="#fcfcfc" d="
  M 27.89 0.00
  L 116.23 0.00
  Q 118.35 0.53 120.49 0.96
  Q 123.05 1.48 124.66 2.14
  Q 141.52 8.95 144.00 27.92
  L 144.00 116.27
  Q 140.43 140.37 116.12 144.00
  L 27.73 144.00
  Q 3.72 140.30 0.00 116.12
  L 0.00 27.75
  Q 3.77 3.72 27.89 0.00
  Z
  M 131.98 48.07
  A 18.04 18.04 0.0 0 0 113.94 30.03
  A 18.04 18.04 0.0 0 0 95.90 48.07
  A 18.04 18.04 0.0 0 0 113.94 66.11
  A 18.04 18.04 0.0 0 0 131.98 48.07
  Z
  M 49.70 42.02
  A 0.62 0.62 0.0 0 0 49.38 42.11
  L 46.43 43.86
  A 0.62 0.62 0.0 0 0 46.75 45.01
  L 92.72 45.00
  A 0.62 0.62 0.0 0 0 93.33 44.52
  L 93.73 42.75
  A 0.62 0.62 0.0 0 0 93.12 41.99
  L 49.70 42.02
  Z
  M 92.64 51.00
  A 0.69 0.69 0.0 0 0 93.31 50.19
  L 93.02 48.56
  A 0.69 0.69 0.0 0 0 92.34 47.99
  L 37.84 48.01
  A 0.69 0.69 0.0 0 0 37.52 48.09
  L 34.53 49.71
  A 0.69 0.69 0.0 0 0 34.85 51.01
  L 92.64 51.00
  Z
  M 94.14 54.52
  Q 93.95 53.99 93.39 53.99
  Q 59.09 54.02 25.44 53.97
  C 18.51 53.95 14.90 57.74 14.97 64.61
  Q 15.15 85.04 14.91 105.29
  Q 14.87 108.26 15.53 110.69
  C 16.65 114.85 20.58 117.05 24.78 117.03
  Q 64.16 116.91 100.76 117.04
  C 104.67 117.05 108.30 115.68 110.03 111.97
  Q 111.12 109.62 111.08 104.37
  Q 110.93 87.29 111.02 69.25
  Q 111.03 68.67 110.46 68.55
  Q 98.54 66.12 94.14 54.52
  Z
  M 120.00 88.31
  A 0.56 0.56 0.0 0 0 121.03 88.61
  L 122.79 85.88
  A 0.56 0.56 0.0 0 0 122.88 85.58
  L 123.03 67.80
  A 0.56 0.56 0.0 0 0 122.26 67.27
  L 120.36 68.04
  A 0.56 0.56 0.0 0 0 120.01 68.56
  L 120.00 88.31
  Z
  M 114.00 100.13
  A 0.64 0.64 0.0 0 0 115.19 100.45
  L 116.88 97.56
  A 0.64 0.64 0.0 0 0 116.97 97.24
  L 117.02 69.36
  A 0.64 0.64 0.0 0 0 116.28 68.73
  L 114.54 69.00
  A 0.64 0.64 0.0 0 0 114.00 69.64
  L 114.00 100.13
  Z"
/>
<path fill="#00a5de" d="
  M 131.98 48.07
  A 18.04 18.04 0.0 0 1 113.94 66.11
  A 18.04 18.04 0.0 0 1 95.90 48.07
  A 18.04 18.04 0.0 0 1 113.94 30.03
  A 18.04 18.04 0.0 0 1 131.98 48.07
  Z
  M 116.92 46.01
  A 1.14 1.14 0.0 0 1 115.99 45.08
  L 115.11 40.08
  A 1.14 1.14 0.0 0 0 112.87 40.08
  L 111.99 45.08
  A 1.14 1.14 0.0 0 1 111.06 46.01
  L 106.06 46.89
  A 1.14 1.14 0.0 0 0 106.06 49.13
  L 111.06 50.01
  A 1.14 1.14 0.0 0 1 111.99 50.94
  L 112.87 55.94
  A 1.14 1.14 0.0 0 0 115.11 55.94
  L 115.99 50.94
  A 1.14 1.14 0.0 0 1 116.92 50.01
  L 121.92 49.13
  A 1.14 1.14 0.0 0 0 121.92 46.89
  L 116.92 46.01
  Z"
/>
<path fill="#fcfcfc" d="
  M 116.92 46.01
  L 121.92 46.89
  A 1.14 1.14 0.0 0 1 121.92 49.13
  L 116.92 50.01
  A 1.14 1.14 0.0 0 0 115.99 50.94
  L 115.11 55.94
  A 1.14 1.14 0.0 0 1 112.87 55.94
  L 111.99 50.94
  A 1.14 1.14 0.0 0 0 111.06 50.01
  L 106.06 49.13
  A 1.14 1.14 0.0 0 1 106.06 46.89
  L 111.06 46.01
  A 1.14 1.14 0.0 0 0 111.99 45.08
  L 112.87 40.08
  A 1.14 1.14 0.0 0 1 115.11 40.08
  L 115.99 45.08
  A 1.14 1.14 0.0 0 0 116.92 46.01
  Z"
/>
<path fill="#8092a0" d="
  M 49.70 42.02
  L 93.12 41.99
  A 0.62 0.62 0.0 0 1 93.73 42.75
  L 93.33 44.52
  A 0.62 0.62 0.0 0 1 92.72 45.00
  L 46.75 45.01
  A 0.62 0.62 0.0 0 1 46.43 43.86
  L 49.38 42.11
  A 0.62 0.62 0.0 0 1 49.70 42.02
  Z"
/>
<path fill="#4a6375" d="
  M 92.64 51.00
  L 34.85 51.01
  A 0.69 0.69 0.0 0 1 34.53 49.71
  L 37.52 48.09
  A 0.69 0.69 0.0 0 1 37.84 48.01
  L 92.34 47.99
  A 0.69 0.69 0.0 0 1 93.02 48.56
  L 93.31 50.19
  A 0.69 0.69 0.0 0 1 92.64 51.00
  Z"
/>
<path fill="#be1645" d="
  M 94.14 54.52
  Q 98.54 66.12 110.46 68.55
  Q 111.03 68.67 111.02 69.25
  Q 110.93 87.29 111.08 104.37
  Q 111.12 109.62 110.03 111.97
  C 108.30 115.68 104.67 117.05 100.76 117.04
  Q 64.16 116.91 24.78 117.03
  C 20.58 117.05 16.65 114.85 15.53 110.69
  Q 14.87 108.26 14.91 105.29
  Q 15.15 85.04 14.97 64.61
  C 14.90 57.74 18.51 53.95 25.44 53.97
  Q 59.09 54.02 93.39 53.99
  Q 93.95 53.99 94.14 54.52
  Z
  M 28.43 81.43
  A 1.95 1.93 -9.7 0 1 27.96 81.10
  C 27.07 80.28 26.63 79.16 25.19 79.23
  Q 24.07 79.28 23.47 80.19
  C 22.07 82.34 25.26 84.52 26.65 85.49
  Q 27.14 85.83 27.36 86.39
  C 28.30 88.69 30.99 88.40 31.69 86.13
  Q 31.86 85.59 32.31 85.26
  Q 34.18 83.90 34.69 82.11
  C 36.01 77.46 31.66 75.86 28.34 74.32
  Q 27.42 73.89 27.88 72.99
  Q 28.16 72.43 29.14 72.46
  A 1.20 1.16 65.0 0 1 29.87 72.74
  Q 30.58 73.36 31.22 74.10
  A 2.19 2.15 37.2 0 0 34.86 73.63
  C 36.06 70.98 32.00 69.92 31.63 67.77
  A 2.04 2.04 0.0 0 0 30.67 66.37
  C 29.63 65.73 28.15 65.94 27.62 67.14
  C 27.24 68.00 26.78 68.58 25.94 69.04
  C 23.38 70.46 22.42 73.65 24.10 76.13
  C 25.45 78.11 27.98 78.76 29.98 79.95
  Q 30.79 80.44 30.27 81.23
  Q 29.72 82.06 28.43 81.43
  Z
  M 32.9776 96.1728
  A 0.69 0.69 0.0 0 0 32.2852 95.4852
  L 23.7852 95.5148
  A 0.69 0.69 0.0 0 0 23.0977 96.2072
  L 23.1024 97.5672
  A 0.69 0.69 0.0 0 0 23.7948 98.2548
  L 32.2948 98.2252
  A 0.69 0.69 0.0 0 0 32.9823 97.5328
  L 32.9776 96.1728
  Z
  M 52.24 96.27
  A 0.66 0.66 0.0 0 0 51.58 95.61
  L 43.00 95.61
  A 0.66 0.66 0.0 0 0 42.34 96.27
  L 42.34 97.55
  A 0.66 0.66 0.0 0 0 43.00 98.21
  L 51.58 98.21
  A 0.66 0.66 0.0 0 0 52.24 97.55
  L 52.24 96.27
  Z
  M 52.50 104.11
  A 1.08 1.08 0.0 0 0 51.42 103.03
  L 24.22 103.03
  A 1.08 1.08 0.0 0 0 23.14 104.11
  L 23.14 104.65
  A 1.08 1.08 0.0 0 0 24.22 105.73
  L 51.42 105.73
  A 1.08 1.08 0.0 0 0 52.50 104.65
  L 52.50 104.11
  Z"
/>
<path fill="#fcfcfc" d="
  M 28.43 81.43
  Q 29.72 82.06 30.27 81.23
  Q 30.79 80.44 29.98 79.95
  C 27.98 78.76 25.45 78.11 24.10 76.13
  C 22.42 73.65 23.38 70.46 25.94 69.04
  C 26.78 68.58 27.24 68.00 27.62 67.14
  C 28.15 65.94 29.63 65.73 30.67 66.37
  A 2.04 2.04 0.0 0 1 31.63 67.77
  C 32.00 69.92 36.06 70.98 34.86 73.63
  A 2.19 2.15 37.2 0 1 31.22 74.10
  Q 30.58 73.36 29.87 72.74
  A 1.20 1.16 65.0 0 0 29.14 72.46
  Q 28.16 72.43 27.88 72.99
  Q 27.42 73.89 28.34 74.32
  C 31.66 75.86 36.01 77.46 34.69 82.11
  Q 34.18 83.90 32.31 85.26
  Q 31.86 85.59 31.69 86.13
  C 30.99 88.40 28.30 88.69 27.36 86.39
  Q 27.14 85.83 26.65 85.49
  C 25.26 84.52 22.07 82.34 23.47 80.19
  Q 24.07 79.28 25.19 79.23
  C 26.63 79.16 27.07 80.28 27.96 81.10
  A 1.95 1.93 -9.7 0 0 28.43 81.43
  Z"
/>
<path fill="#8092a0" d="
  M 120.00 88.31
  L 120.01 68.56
  A 0.56 0.56 0.0 0 1 120.36 68.04
  L 122.26 67.27
  A 0.56 0.56 0.0 0 1 123.03 67.80
  L 122.88 85.58
  A 0.56 0.56 0.0 0 1 122.79 85.88
  L 121.03 88.61
  A 0.56 0.56 0.0 0 1 120.00 88.31
  Z"
/>
<path fill="#4a6375" d="
  M 114.00 100.13
  L 114.00 69.64
  A 0.64 0.64 0.0 0 1 114.54 69.00
  L 116.28 68.73
  A 0.64 0.64 0.0 0 1 117.02 69.36
  L 116.97 97.24
  A 0.64 0.64 0.0 0 1 116.88 97.56
  L 115.19 100.45
  A 0.64 0.64 0.0 0 1 114.00 100.13
  Z"
/>
<rect fill="#fcfcfc" x="-4.94" y="-1.37" transform="translate(28.04,96.87) rotate(-0.2)" width="9.88" height="2.74" rx="0.69"/>
<rect fill="#fcfcfc" x="42.34" y="95.61" width="9.90" height="2.60" rx="0.66"/>
<rect fill="#fcfcfc" x="23.14" y="103.03" width="29.36" height="2.70" rx="1.08"/>
</svg>
