<?xml version="1.0" encoding="UTF-8" standalone="no"?>
<!DOCTYPE svg PUBLIC "-//W3C//DTD SVG 1.1//EN" "http://www.w3.org/Graphics/SVG/1.1/DTD/svg11.dtd">
<svg xmlns="http://www.w3.org/2000/svg" version="1.1" viewBox="0.00 0.00 144.00 144.00">
<g stroke-width="2.00" fill="none" stroke-linecap="butt">
<path stroke="#7eaac7" vector-effect="non-scaling-stroke" d="
  M 101.57 45.09
  Q 101.41 40.63 101.57 35.25
  C 101.85 26.51 97.02 20.87 88.07 20.95
  Q 71.86 21.11 56.31 20.92
  C 50.49 20.85 45.84 22.92 43.44 28.35
  C 41.92 31.80 42.66 35.88 42.32 39.64
  Q 42.29 40.06 42.05 40.40
  C 41.56 41.13 41.05 41.59 40.98 42.55
  Q 40.75 45.79 40.91 48.83
  A 2.19 2.15 25.2 0 0 41.37 50.07
  Q 42.07 50.96 42.26 52.05
  A 1.69 1.68 59.1 0 1 41.93 53.38
  C 40.42 55.33 40.94 59.75 41.22 62.24
  Q 41.28 62.75 41.58 63.16
  Q 42.44 64.30 42.45 65.82
  Q 42.59 88.97 42.40 111.71
  C 42.35 117.48 43.92 122.16 49.27 124.77
  Q 51.88 126.06 55.02 126.04
  Q 71.52 125.94 88.74 126.03
  C 93.66 126.06 97.82 123.89 100.16 119.54
  Q 101.55 116.95 101.54 112.36
  Q 101.48 85.82 101.52 61.06
  Q 101.52 60.57 101.95 60.33
  Q 103.23 59.63 103.22 58.25
  Q 103.17 52.62 103.21 47.66
  C 103.21 46.80 102.79 46.04 101.98 45.69
  Q 101.58 45.52 101.57 45.09"
/>
<path stroke="#7eaac7" vector-effect="non-scaling-stroke" d="
  M 79.37 27.91
  A 2.21 2.20 -77.2 0 1 77.38 29.17
  Q 71.18 29.18 65.32 29.21
  C 63.80 29.22 62.53 28.22 62.78 26.57
  Q 62.87 25.98 62.26 25.95
  Q 55.48 25.72 53.99 26.23
  C 49.87 27.62 47.40 30.95 47.40 35.21
  Q 47.40 73.94 47.39 111.06
  C 47.39 118.24 51.78 121.17 58.43 121.12
  Q 72.99 121.01 86.60 121.06
  C 92.59 121.08 96.59 117.47 96.60 111.73
  Q 96.63 73.53 96.57 34.76
  Q 96.56 29.92 92.13 27.17
  C 89.04 25.25 83.92 26.05 80.19 25.89
  Q 79.41 25.86 79.54 26.63
  Q 79.66 27.30 79.37 27.91"
/>
<path stroke="#e887a2" vector-effect="non-scaling-stroke" d="
  M 70.65 78.96
  L 67.14 94.70
  Q 66.85 96.03 67.64 94.93
  L 84.73 71.21
  A 2.20 2.19 -72.0 0 0 82.96 67.73
  L 75.39 67.72
  Q 74.74 67.72 75.03 67.14
  L 81.48 54.44
  A 0.30 0.30 0.0 0 0 81.21 54.01
  L 68.24 54.00
  Q 67.76 54.00 67.58 54.44
  Q 64.60 61.84 60.48 71.74
  C 59.57 73.95 60.06 76.37 62.26 77.53
  C 64.48 78.69 67.58 78.17 70.06 78.21
  Q 70.82 78.22 70.65 78.96"
/>
<path stroke="#7eaac7" vector-effect="non-scaling-stroke" d="
  M 75.27 114.19
  A 3.27 3.27 0.0 0 0 72.00 110.92
  A 3.27 3.27 0.0 0 0 68.73 114.19
  A 3.27 3.27 0.0 0 0 72.00 117.46
  A 3.27 3.27 0.0 0 0 75.27 114.19"
/>
</g>
<path fill="#fcfcfc" d="
  M 28.13 0.00
  L 115.98 0.00
  Q 140.18 3.58 144.00 27.60
  L 144.00 116.50
  Q 140.19 140.31 116.39 144.00
  L 27.48 144.00
  Q 3.64 140.11 0.00 116.11
  L 0.00 27.77
  Q 0.55 25.52 1.02 23.24
  C 3.25 12.27 12.42 3.22 23.36 0.99
  Q 25.75 0.50 28.13 0.00
  Z
  M 101.57 45.09
  Q 101.41 40.63 101.57 35.25
  C 101.85 26.51 97.02 20.87 88.07 20.95
  Q 71.86 21.11 56.31 20.92
  C 50.49 20.85 45.84 22.92 43.44 28.35
  C 41.92 31.80 42.66 35.88 42.32 39.64
  Q 42.29 40.06 42.05 40.40
  C 41.56 41.13 41.05 41.59 40.98 42.55
  Q 40.75 45.79 40.91 48.83
  A 2.19 2.15 25.2 0 0 41.37 50.07
  Q 42.07 50.96 42.26 52.05
  A 1.69 1.68 59.1 0 1 41.93 53.38
  C 40.42 55.33 40.94 59.75 41.22 62.24
  Q 41.28 62.75 41.58 63.16
  Q 42.44 64.30 42.45 65.82
  Q 42.59 88.97 42.40 111.71
  C 42.35 117.48 43.92 122.16 49.27 124.77
  Q 51.88 126.06 55.02 126.04
  Q 71.52 125.94 88.74 126.03
  C 93.66 126.06 97.82 123.89 100.16 119.54
  Q 101.55 116.95 101.54 112.36
  Q 101.48 85.82 101.52 61.06
  Q 101.52 60.57 101.95 60.33
  Q 103.23 59.63 103.22 58.25
  Q 103.17 52.62 103.21 47.66
  C 103.21 46.80 102.79 46.04 101.98 45.69
  Q 101.58 45.52 101.57 45.09
  Z"
/>
<path fill="#005891" d="
  M 101.98 45.69
  C 102.79 46.04 103.21 46.80 103.21 47.66
  Q 103.17 52.62 103.22 58.25
  Q 103.23 59.63 101.95 60.33
  Q 101.52 60.57 101.52 61.06
  Q 101.48 85.82 101.54 112.36
  Q 101.55 116.95 100.16 119.54
  C 97.82 123.89 93.66 126.06 88.74 126.03
  Q 71.52 125.94 55.02 126.04
  Q 51.88 126.06 49.27 124.77
  C 43.92 122.16 42.35 117.48 42.40 111.71
  Q 42.59 88.97 42.45 65.82
  Q 42.44 64.30 41.58 63.16
  Q 41.28 62.75 41.22 62.24
  C 40.94 59.75 40.42 55.33 41.93 53.38
  A 1.69 1.68 59.1 0 0 42.26 52.05
  Q 42.07 50.96 41.37 50.07
  A 2.19 2.15 25.2 0 1 40.91 48.83
  Q 40.75 45.79 40.98 42.55
  C 41.05 41.59 41.56 41.13 42.05 40.40
  Q 42.29 40.06 42.32 39.64
  C 42.66 35.88 41.92 31.80 43.44 28.35
  C 45.84 22.92 50.49 20.85 56.31 20.92
  Q 71.86 21.11 88.07 20.95
  C 97.02 20.87 101.85 26.51 101.57 35.25
  Q 101.41 40.63 101.57 45.09
  Q 101.58 45.52 101.98 45.69
  Z
  M 79.37 27.91
  A 2.21 2.20 -77.2 0 1 77.38 29.17
  Q 71.18 29.18 65.32 29.21
  C 63.80 29.22 62.53 28.22 62.78 26.57
  Q 62.87 25.98 62.26 25.95
  Q 55.48 25.72 53.99 26.23
  C 49.87 27.62 47.40 30.95 47.40 35.21
  Q 47.40 73.94 47.39 111.06
  C 47.39 118.24 51.78 121.17 58.43 121.12
  Q 72.99 121.01 86.60 121.06
  C 92.59 121.08 96.59 117.47 96.60 111.73
  Q 96.63 73.53 96.57 34.76
  Q 96.56 29.92 92.13 27.17
  C 89.04 25.25 83.92 26.05 80.19 25.89
  Q 79.41 25.86 79.54 26.63
  Q 79.66 27.30 79.37 27.91
  Z"
/>
<path fill="#fcfcfc" d="
  M 79.37 27.91
  Q 79.66 27.30 79.54 26.63
  Q 79.41 25.86 80.19 25.89
  C 83.92 26.05 89.04 25.25 92.13 27.17
  Q 96.56 29.92 96.57 34.76
  Q 96.63 73.53 96.60 111.73
  C 96.59 117.47 92.59 121.08 86.60 121.06
  Q 72.99 121.01 58.43 121.12
  C 51.78 121.17 47.39 118.24 47.39 111.06
  Q 47.40 73.94 47.40 35.21
  C 47.40 30.95 49.87 27.62 53.99 26.23
  Q 55.48 25.72 62.26 25.95
  Q 62.87 25.98 62.78 26.57
  C 62.53 28.22 63.80 29.22 65.32 29.21
  Q 71.18 29.18 77.38 29.17
  A 2.21 2.20 -77.2 0 0 79.37 27.91
  Z
  M 70.65 78.96
  L 67.14 94.70
  Q 66.85 96.03 67.64 94.93
  L 84.73 71.21
  A 2.20 2.19 -72.0 0 0 82.96 67.73
  L 75.39 67.72
  Q 74.74 67.72 75.03 67.14
  L 81.48 54.44
  A 0.30 0.30 0.0 0 0 81.21 54.01
  L 68.24 54.00
  Q 67.76 54.00 67.58 54.44
  Q 64.60 61.84 60.48 71.74
  C 59.57 73.95 60.06 76.37 62.26 77.53
  C 64.48 78.69 67.58 78.17 70.06 78.21
  Q 70.82 78.22 70.65 78.96
  Z
  M 75.27 114.19
  A 3.27 3.27 0.0 0 0 72.00 110.92
  A 3.27 3.27 0.0 0 0 68.73 114.19
  A 3.27 3.27 0.0 0 0 72.00 117.46
  A 3.27 3.27 0.0 0 0 75.27 114.19
  Z"
/>
<path fill="#d41248" d="
  M 70.06 78.21
  C 67.58 78.17 64.48 78.69 62.26 77.53
  C 60.06 76.37 59.57 73.95 60.48 71.74
  Q 64.60 61.84 67.58 54.44
  Q 67.76 54.00 68.24 54.00
  L 81.21 54.01
  A 0.30 0.30 0.0 0 1 81.48 54.44
  L 75.03 67.14
  Q 74.74 67.72 75.39 67.72
  L 82.96 67.73
  A 2.20 2.19 -72.0 0 1 84.73 71.21
  L 67.64 94.93
  Q 66.85 96.03 67.14 94.70
  L 70.65 78.96
  Q 70.82 78.22 70.06 78.21
  Z"
/>
<circle fill="#005891" cx="72.00" cy="114.19" r="3.27"/>
</svg>
