<?xml version="1.0" encoding="UTF-8" standalone="no"?>
<!DOCTYPE svg PUBLIC "-//W3C//DTD SVG 1.1//EN" "http://www.w3.org/Graphics/SVG/1.1/DTD/svg11.dtd">
<svg xmlns="http://www.w3.org/2000/svg" version="1.1" viewBox="0.00 0.00 144.00 144.00">
<g stroke-width="2.00" fill="none" stroke-linecap="butt">
<path stroke="#a4daa0" vector-effect="non-scaling-stroke" d="
  M 103.18 55.52
  Q 110.04 55.51 116.85 55.48
  Q 120.19 55.47 121.84 54.46
  Q 124.58 52.77 124.52 48.87
  Q 124.44 44.12 124.55 38.46
  C 124.63 34.43 122.13 31.38 118.00 31.45
  Q 109.68 31.59 101.51 31.42"
/>
<path stroke="#7eaac7" vector-effect="non-scaling-stroke" d="
  M 101.51 31.42
  C 99.91 24.22 95.05 20.89 87.97 20.94
  Q 70.63 21.07 54.78 21.01
  C 47.47 20.98 42.18 26.73 42.47 33.99
  Q 42.59 37.02 42.35 39.85
  A 1.21 1.21 0.0 0 1 41.96 40.64
  C 40.29 42.16 40.77 46.87 40.87 48.94
  A 1.59 1.58 20.4 0 0 41.37 50.02
  Q 42.42 51.01 42.32 52.48
  Q 42.29 52.98 41.99 53.39
  C 40.52 55.38 40.89 58.16 41.00 60.51
  Q 41.06 61.56 41.89 63.85
  Q 42.43 65.35 42.44 66.84
  Q 42.57 89.58 42.43 113.04
  C 42.40 118.12 44.61 122.47 49.18 124.74
  Q 51.95 126.12 56.79 126.07
  Q 73.76 125.89 88.49 126.06
  C 93.49 126.12 97.66 124.02 100.18 119.57
  Q 101.60 117.05 101.57 111.70
  Q 101.44 85.56 101.51 60.95
  Q 101.51 60.36 102.09 60.24
  Q 102.37 60.18 102.60 59.99
  Q 103.05 59.62 103.06 59.05
  L 103.18 55.52"
/>
<path stroke="#26886a" vector-effect="non-scaling-stroke" d="
  M 101.51 31.42
  L 95.92 31.44"
/>
<path stroke="#7eaac7" vector-effect="non-scaling-stroke" d="
  M 95.92 31.44
  C 92.57 24.54 86.10 26.02 80.11 25.85
  Q 79.58 25.84 79.62 26.37
  Q 79.83 29.19 76.89 29.19
  Q 70.93 29.21 65.32 29.17
  Q 62.60 29.16 62.77 26.45
  Q 62.80 25.94 62.29 25.92
  C 56.82 25.74 51.34 25.31 48.42 30.85
  Q 47.35 32.87 47.36 37.71
  Q 47.41 75.01 47.40 111.55
  C 47.40 118.30 52.14 121.19 58.41 121.13
  Q 72.92 121.00 86.58 121.06
  Q 92.88 121.08 95.25 116.87
  Q 96.59 114.49 96.59 108.89
  Q 96.61 82.47 96.60 55.56"
/>
<path stroke="#26886a" vector-effect="non-scaling-stroke" d="
  M 96.60 55.56
  L 103.18 55.52"
/>
<path stroke="#a4daa0" vector-effect="non-scaling-stroke" d="
  M 95.92 31.44
  Q 86.40 31.58 77.00 31.44
  C 72.77 31.38 70.40 34.45 70.47 38.51
  Q 70.56 44.04 70.48 49.14
  C 70.42 52.40 73.02 55.53 76.25 55.51
  Q 86.43 55.44 96.60 55.56"
/>
<path stroke="#7ed1ed" vector-effect="non-scaling-stroke" d="
  M 86.99 76.50
  A 14.99 14.99 0.0 0 0 72.00 61.51
  A 14.99 14.99 0.0 0 0 57.01 76.50
  A 14.99 14.99 0.0 0 0 72.00 91.49
  A 14.99 14.99 0.0 0 0 86.99 76.50"
/>
<path stroke="#7eaac7" vector-effect="non-scaling-stroke" d="
  M 75.27 114.19
  A 3.27 3.27 0.0 0 0 72.00 110.92
  A 3.27 3.27 0.0 0 0 68.73 114.19
  A 3.27 3.27 0.0 0 0 72.00 117.46
  A 3.27 3.27 0.0 0 0 75.27 114.19"
/>
<path stroke="#a4daa0" vector-effect="non-scaling-stroke" d="
  M 89.42 42.50
  L 88.20 42.32
  Q 87.35 42.19 87.35 43.05
  L 87.35 43.95
  Q 87.35 44.81 88.20 44.70
  L 89.45 44.54
  Q 90.59 44.39 89.75 45.17
  L 88.92 45.93
  A 0.68 0.67 -49.6 0 0 89.00 46.98
  L 90.01 47.66
  Q 90.57 48.03 90.86 47.43
  L 91.55 46.00
  Q 91.88 45.30 92.23 46.00
  L 92.85 47.26
  Q 93.31 48.20 94.09 47.51
  L 94.67 47.01
  Q 95.43 46.35 94.66 45.71
  L 94.08 45.23
  Q 93.37 44.63 94.30 44.61
  Q 95.04 44.59 95.80 44.77
  Q 96.49 44.94 96.47 44.22
  L 96.44 42.78
  Q 96.42 42.12 95.77 42.23
  L 94.28 42.50
  Q 93.56 42.63 93.95 42.00
  Q 94.26 41.51 94.74 41.16
  A 0.91 0.86 -9.7 0 0 95.07 40.72
  Q 95.29 40.08 94.60 39.89
  Q 94.25 39.79 94.07 39.47
  Q 93.89 39.15 93.61 39.15
  Q 93.20 39.14 93.01 39.50
  L 92.25 40.92
  Q 91.81 41.75 91.45 40.88
  L 90.87 39.47
  Q 90.64 38.92 90.15 39.25
  L 89.02 40.01
  Q 88.36 40.46 88.91 41.03
  L 89.74 41.88
  Q 90.49 42.66 89.42 42.50"
/>
<path stroke="#a4daa0" vector-effect="non-scaling-stroke" d="
  M 76.99 42.49
  L 75.73 42.22
  A 0.58 0.57 6.6 0 0 75.03 42.77
  L 74.99 44.28
  Q 74.98 44.85 75.54 44.76
  L 76.96 44.56
  Q 77.78 44.44 77.32 45.13
  Q 77.00 45.63 76.58 46.05
  Q 76.02 46.61 76.68 47.03
  L 77.58 47.61
  Q 78.35 48.11 78.66 47.25
  L 79.07 46.12
  Q 79.40 45.20 79.84 46.07
  L 80.50 47.37
  A 0.69 0.69 0.0 0 0 81.48 47.64
  L 82.35 47.09
  Q 83.21 46.54 82.42 45.91
  Q 81.98 45.55 81.68 45.08
  Q 81.33 44.53 81.98 44.60
  L 83.53 44.77
  A 0.53 0.53 0.0 0 0 84.12 44.21
  L 84.04 42.69
  A 0.52 0.52 0.0 0 0 83.43 42.21
  L 81.98 42.48
  Q 81.00 42.66 81.68 41.92
  L 82.72 40.81
  Q 82.97 40.53 82.72 40.26
  Q 82.15 39.63 81.40 39.34
  A 0.81 0.80 -68.3 0 0 80.35 39.80
  L 80.07 40.50
  Q 79.50 41.97 78.93 40.50
  L 78.55 39.54
  Q 78.33 38.95 77.79 39.28
  L 76.47 40.07
  Q 76.05 40.32 76.36 40.71
  L 77.34 41.92
  Q 77.97 42.70 76.99 42.49"
/>
<path stroke="#a4daa0" vector-effect="non-scaling-stroke" d="
  M 106.43 42.01
  Q 106.83 41.32 107.45 40.83
  Q 108.02 40.38 107.38 40.04
  L 105.84 39.22
  Q 105.44 39.01 105.26 39.43
  L 104.82 40.48
  Q 104.32 41.67 103.71 40.53
  L 103.12 39.44
  Q 102.81 38.88 102.30 39.27
  L 101.19 40.14
  A 0.48 0.48 0.0 0 0 101.16 40.88
  Q 101.67 41.34 102.07 41.88
  Q 102.57 42.56 101.74 42.44
  L 100.28 42.25
  Q 99.73 42.17 99.74 42.73
  L 99.76 44.28
  Q 99.76 44.79 100.28 44.74
  L 101.80 44.57
  Q 102.48 44.49 102.12 45.07
  Q 101.79 45.59 101.29 45.99
  Q 100.64 46.49 101.32 46.96
  L 102.16 47.54
  Q 102.86 48.03 103.26 47.28
  L 103.94 46.01
  Q 104.35 45.24 104.66 46.05
  L 105.08 47.19
  Q 105.44 48.16 106.30 47.58
  L 107.19 46.99
  Q 107.79 46.59 107.31 46.05
  L 106.42 45.05
  Q 105.73 44.28 106.74 44.49
  L 107.95 44.75
  A 0.70 0.70 0.0 0 0 108.80 44.04
  L 108.77 42.92
  Q 108.75 42.07 107.92 42.26
  L 106.82 42.52
  Q 106.03 42.71 106.43 42.01"
/>
<path stroke="#a4daa0" vector-effect="non-scaling-stroke" d="
  M 114.39 45.20
  L 113.67 45.96
  Q 112.99 46.69 113.87 47.15
  L 114.64 47.56
  Q 115.50 48.02 115.82 47.10
  L 116.19 46.05
  Q 116.50 45.18 116.91 46.01
  L 117.56 47.30
  Q 117.95 48.09 118.68 47.60
  L 119.45 47.08
  Q 120.13 46.62 119.58 46.01
  L 118.70 45.04
  Q 118.16 44.44 118.96 44.55
  L 120.44 44.76
  Q 121.25 44.87 121.23 44.05
  L 121.20 42.79
  Q 121.19 42.13 120.53 42.23
  L 119.07 42.47
  Q 117.94 42.65 118.76 41.86
  L 119.60 41.05
  Q 120.24 40.43 119.50 39.93
  L 118.86 39.50
  Q 117.95 38.87 117.47 39.87
  L 116.96 40.95
  Q 116.48 41.95 116.14 40.90
  L 115.71 39.61
  A 0.59 0.58 -23.9 0 0 114.86 39.29
  L 113.87 39.88
  Q 113.05 40.36 113.69 41.07
  L 114.39 41.84
  Q 115.20 42.73 114.02 42.47
  L 113.03 42.25
  A 0.79 0.78 7.6 0 0 112.08 42.97
  L 112.01 44.03
  Q 111.95 44.88 112.79 44.74
  L 114.04 44.54
  Q 115.18 44.36 114.39 45.20"
/>
<path stroke="#7ed1ed" vector-effect="non-scaling-stroke" d="
  M 69.18 76.57
  L 66.80 74.98
  Q 66.43 74.73 65.99 74.81
  Q 65.22 74.95 64.85 75.72
  Q 64.61 76.23 64.96 76.66
  L 69.37 82.03
  Q 69.75 82.50 70.15 82.06
  L 78.98 72.66
  Q 79.43 72.18 79.02 71.66
  L 78.49 70.97
  Q 78.07 70.43 77.54 70.85
  L 70.25 76.53
  Q 69.73 76.93 69.18 76.57"
/>
</g>
<path fill="#fcfcfc" d="
  M 28.14 0.00
  L 115.98 0.00
  Q 140.49 3.67 144.00 28.10
  L 144.00 115.99
  Q 141.58 135.05 124.52 141.98
  C 121.87 143.06 119.00 143.52 116.12 144.00
  L 27.74 144.00
  Q 3.51 140.20 0.00 115.86
  L 0.00 28.01
  Q 0.51 25.81 0.94 23.58
  C 3.14 12.32 12.15 3.29 23.37 0.99
  Q 25.75 0.50 28.14 0.00
  Z
  M 103.18 55.52
  Q 110.04 55.51 116.85 55.48
  Q 120.19 55.47 121.84 54.46
  Q 124.58 52.77 124.52 48.87
  Q 124.44 44.12 124.55 38.46
  C 124.63 34.43 122.13 31.38 118.00 31.45
  Q 109.68 31.59 101.51 31.42
  C 99.91 24.22 95.05 20.89 87.97 20.94
  Q 70.63 21.07 54.78 21.01
  C 47.47 20.98 42.18 26.73 42.47 33.99
  Q 42.59 37.02 42.35 39.85
  A 1.21 1.21 0.0 0 1 41.96 40.64
  C 40.29 42.16 40.77 46.87 40.87 48.94
  A 1.59 1.58 20.4 0 0 41.37 50.02
  Q 42.42 51.01 42.32 52.48
  Q 42.29 52.98 41.99 53.39
  C 40.52 55.38 40.89 58.16 41.00 60.51
  Q 41.06 61.56 41.89 63.85
  Q 42.43 65.35 42.44 66.84
  Q 42.57 89.58 42.43 113.04
  C 42.40 118.12 44.61 122.47 49.18 124.74
  Q 51.95 126.12 56.79 126.07
  Q 73.76 125.89 88.49 126.06
  C 93.49 126.12 97.66 124.02 100.18 119.57
  Q 101.60 117.05 101.57 111.70
  Q 101.44 85.56 101.51 60.95
  Q 101.51 60.36 102.09 60.24
  Q 102.37 60.18 102.60 59.99
  Q 103.05 59.62 103.06 59.05
  L 103.18 55.52
  Z"
/>
<path fill="#005891" d="
  M 101.51 31.42
  L 95.92 31.44
  C 92.57 24.54 86.10 26.02 80.11 25.85
  Q 79.58 25.84 79.62 26.37
  Q 79.83 29.19 76.89 29.19
  Q 70.93 29.21 65.32 29.17
  Q 62.60 29.16 62.77 26.45
  Q 62.80 25.94 62.29 25.92
  C 56.82 25.74 51.34 25.31 48.42 30.85
  Q 47.35 32.87 47.36 37.71
  Q 47.41 75.01 47.40 111.55
  C 47.40 118.30 52.14 121.19 58.41 121.13
  Q 72.92 121.00 86.58 121.06
  Q 92.88 121.08 95.25 116.87
  Q 96.59 114.49 96.59 108.89
  Q 96.61 82.47 96.60 55.56
  L 103.18 55.52
  L 103.06 59.05
  Q 103.05 59.62 102.60 59.99
  Q 102.37 60.18 102.09 60.24
  Q 101.51 60.36 101.51 60.95
  Q 101.44 85.56 101.57 111.70
  Q 101.60 117.05 100.18 119.57
  C 97.66 124.02 93.49 126.12 88.49 126.06
  Q 73.76 125.89 56.79 126.07
  Q 51.95 126.12 49.18 124.74
  C 44.61 122.47 42.40 118.12 42.43 113.04
  Q 42.57 89.58 42.44 66.84
  Q 42.43 65.35 41.89 63.85
  Q 41.06 61.56 41.00 60.51
  C 40.89 58.16 40.52 55.38 41.99 53.39
  Q 42.29 52.98 42.32 52.48
  Q 42.42 51.01 41.37 50.02
  A 1.59 1.58 20.4 0 1 40.87 48.94
  C 40.77 46.87 40.29 42.16 41.96 40.64
  A 1.21 1.21 0.0 0 0 42.35 39.85
  Q 42.59 37.02 42.47 33.99
  C 42.18 26.73 47.47 20.98 54.78 21.01
  Q 70.63 21.07 87.97 20.94
  C 95.05 20.89 99.91 24.22 101.51 31.42
  Z"
/>
<path fill="#fcfcfc" d="
  M 95.92 31.44
  Q 86.40 31.58 77.00 31.44
  C 72.77 31.38 70.40 34.45 70.47 38.51
  Q 70.56 44.04 70.48 49.14
  C 70.42 52.40 73.02 55.53 76.25 55.51
  Q 86.43 55.44 96.60 55.56
  Q 96.61 82.47 96.59 108.89
  Q 96.59 114.49 95.25 116.87
  Q 92.88 121.08 86.58 121.06
  Q 72.92 121.00 58.41 121.13
  C 52.14 121.19 47.40 118.30 47.40 111.55
  Q 47.41 75.01 47.36 37.71
  Q 47.35 32.87 48.42 30.85
  C 51.34 25.31 56.82 25.74 62.29 25.92
  Q 62.80 25.94 62.77 26.45
  Q 62.60 29.16 65.32 29.17
  Q 70.93 29.21 76.89 29.19
  Q 79.83 29.19 79.62 26.37
  Q 79.58 25.84 80.11 25.85
  C 86.10 26.02 92.57 24.54 95.92 31.44
  Z
  M 86.99 76.50
  A 14.99 14.99 0.0 0 0 72.00 61.51
  A 14.99 14.99 0.0 0 0 57.01 76.50
  A 14.99 14.99 0.0 0 0 72.00 91.49
  A 14.99 14.99 0.0 0 0 86.99 76.50
  Z
  M 75.27 114.19
  A 3.27 3.27 0.0 0 0 72.00 110.92
  A 3.27 3.27 0.0 0 0 68.73 114.19
  A 3.27 3.27 0.0 0 0 72.00 117.46
  A 3.27 3.27 0.0 0 0 75.27 114.19
  Z"
/>
<path fill="#4bb743" d="
  M 95.92 31.44
  L 101.51 31.42
  Q 109.68 31.59 118.00 31.45
  C 122.13 31.38 124.63 34.43 124.55 38.46
  Q 124.44 44.12 124.52 48.87
  Q 124.58 52.77 121.84 54.46
  Q 120.19 55.47 116.85 55.48
  Q 110.04 55.51 103.18 55.52
  L 96.60 55.56
  Q 86.43 55.44 76.25 55.51
  C 73.02 55.53 70.42 52.40 70.48 49.14
  Q 70.56 44.04 70.47 38.51
  C 70.40 34.45 72.77 31.38 77.00 31.44
  Q 86.40 31.58 95.92 31.44
  Z
  M 89.42 42.50
  L 88.20 42.32
  Q 87.35 42.19 87.35 43.05
  L 87.35 43.95
  Q 87.35 44.81 88.20 44.70
  L 89.45 44.54
  Q 90.59 44.39 89.75 45.17
  L 88.92 45.93
  A 0.68 0.67 -49.6 0 0 89.00 46.98
  L 90.01 47.66
  Q 90.57 48.03 90.86 47.43
  L 91.55 46.00
  Q 91.88 45.30 92.23 46.00
  L 92.85 47.26
  Q 93.31 48.20 94.09 47.51
  L 94.67 47.01
  Q 95.43 46.35 94.66 45.71
  L 94.08 45.23
  Q 93.37 44.63 94.30 44.61
  Q 95.04 44.59 95.80 44.77
  Q 96.49 44.94 96.47 44.22
  L 96.44 42.78
  Q 96.42 42.12 95.77 42.23
  L 94.28 42.50
  Q 93.56 42.63 93.95 42.00
  Q 94.26 41.51 94.74 41.16
  A 0.91 0.86 -9.7 0 0 95.07 40.72
  Q 95.29 40.08 94.60 39.89
  Q 94.25 39.79 94.07 39.47
  Q 93.89 39.15 93.61 39.15
  Q 93.20 39.14 93.01 39.50
  L 92.25 40.92
  Q 91.81 41.75 91.45 40.88
  L 90.87 39.47
  Q 90.64 38.92 90.15 39.25
  L 89.02 40.01
  Q 88.36 40.46 88.91 41.03
  L 89.74 41.88
  Q 90.49 42.66 89.42 42.50
  Z
  M 76.99 42.49
  L 75.73 42.22
  A 0.58 0.57 6.6 0 0 75.03 42.77
  L 74.99 44.28
  Q 74.98 44.85 75.54 44.76
  L 76.96 44.56
  Q 77.78 44.44 77.32 45.13
  Q 77.00 45.63 76.58 46.05
  Q 76.02 46.61 76.68 47.03
  L 77.58 47.61
  Q 78.35 48.11 78.66 47.25
  L 79.07 46.12
  Q 79.40 45.20 79.84 46.07
  L 80.50 47.37
  A 0.69 0.69 0.0 0 0 81.48 47.64
  L 82.35 47.09
  Q 83.21 46.54 82.42 45.91
  Q 81.98 45.55 81.68 45.08
  Q 81.33 44.53 81.98 44.60
  L 83.53 44.77
  A 0.53 0.53 0.0 0 0 84.12 44.21
  L 84.04 42.69
  A 0.52 0.52 0.0 0 0 83.43 42.21
  L 81.98 42.48
  Q 81.00 42.66 81.68 41.92
  L 82.72 40.81
  Q 82.97 40.53 82.72 40.26
  Q 82.15 39.63 81.40 39.34
  A 0.81 0.80 -68.3 0 0 80.35 39.80
  L 80.07 40.50
  Q 79.50 41.97 78.93 40.50
  L 78.55 39.54
  Q 78.33 38.95 77.79 39.28
  L 76.47 40.07
  Q 76.05 40.32 76.36 40.71
  L 77.34 41.92
  Q 77.97 42.70 76.99 42.49
  Z
  M 106.43 42.01
  Q 106.83 41.32 107.45 40.83
  Q 108.02 40.38 107.38 40.04
  L 105.84 39.22
  Q 105.44 39.01 105.26 39.43
  L 104.82 40.48
  Q 104.32 41.67 103.71 40.53
  L 103.12 39.44
  Q 102.81 38.88 102.30 39.27
  L 101.19 40.14
  A 0.48 0.48 0.0 0 0 101.16 40.88
  Q 101.67 41.34 102.07 41.88
  Q 102.57 42.56 101.74 42.44
  L 100.28 42.25
  Q 99.73 42.17 99.74 42.73
  L 99.76 44.28
  Q 99.76 44.79 100.28 44.74
  L 101.80 44.57
  Q 102.48 44.49 102.12 45.07
  Q 101.79 45.59 101.29 45.99
  Q 100.64 46.49 101.32 46.96
  L 102.16 47.54
  Q 102.86 48.03 103.26 47.28
  L 103.94 46.01
  Q 104.35 45.24 104.66 46.05
  L 105.08 47.19
  Q 105.44 48.16 106.30 47.58
  L 107.19 46.99
  Q 107.79 46.59 107.31 46.05
  L 106.42 45.05
  Q 105.73 44.28 106.74 44.49
  L 107.95 44.75
  A 0.70 0.70 0.0 0 0 108.80 44.04
  L 108.77 42.92
  Q 108.75 42.07 107.92 42.26
  L 106.82 42.52
  Q 106.03 42.71 106.43 42.01
  Z
  M 114.39 45.20
  L 113.67 45.96
  Q 112.99 46.69 113.87 47.15
  L 114.64 47.56
  Q 115.50 48.02 115.82 47.10
  L 116.19 46.05
  Q 116.50 45.18 116.91 46.01
  L 117.56 47.30
  Q 117.95 48.09 118.68 47.60
  L 119.45 47.08
  Q 120.13 46.62 119.58 46.01
  L 118.70 45.04
  Q 118.16 44.44 118.96 44.55
  L 120.44 44.76
  Q 121.25 44.87 121.23 44.05
  L 121.20 42.79
  Q 121.19 42.13 120.53 42.23
  L 119.07 42.47
  Q 117.94 42.65 118.76 41.86
  L 119.60 41.05
  Q 120.24 40.43 119.50 39.93
  L 118.86 39.50
  Q 117.95 38.87 117.47 39.87
  L 116.96 40.95
  Q 116.48 41.95 116.14 40.90
  L 115.71 39.61
  A 0.59 0.58 -23.9 0 0 114.86 39.29
  L 113.87 39.88
  Q 113.05 40.36 113.69 41.07
  L 114.39 41.84
  Q 115.20 42.73 114.02 42.47
  L 113.03 42.25
  A 0.79 0.78 7.6 0 0 112.08 42.97
  L 112.01 44.03
  Q 111.95 44.88 112.79 44.74
  L 114.04 44.54
  Q 115.18 44.36 114.39 45.20
  Z"
/>
<path fill="#fcfcfc" d="
  M 89.74 41.88
  L 88.91 41.03
  Q 88.36 40.46 89.02 40.01
  L 90.15 39.25
  Q 90.64 38.92 90.87 39.47
  L 91.45 40.88
  Q 91.81 41.75 92.25 40.92
  L 93.01 39.50
  Q 93.20 39.14 93.61 39.15
  Q 93.89 39.15 94.07 39.47
  Q 94.25 39.79 94.60 39.89
  Q 95.29 40.08 95.07 40.72
  A 0.91 0.86 -9.7 0 1 94.74 41.16
  Q 94.26 41.51 93.95 42.00
  Q 93.56 42.63 94.28 42.50
  L 95.77 42.23
  Q 96.42 42.12 96.44 42.78
  L 96.47 44.22
  Q 96.49 44.94 95.80 44.77
  Q 95.04 44.59 94.30 44.61
  Q 93.37 44.63 94.08 45.23
  L 94.66 45.71
  Q 95.43 46.35 94.67 47.01
  L 94.09 47.51
  Q 93.31 48.20 92.85 47.26
  L 92.23 46.00
  Q 91.88 45.30 91.55 46.00
  L 90.86 47.43
  Q 90.57 48.03 90.01 47.66
  L 89.00 46.98
  A 0.68 0.67 -49.6 0 1 88.92 45.93
  L 89.75 45.17
  Q 90.59 44.39 89.45 44.54
  L 88.20 44.70
  Q 87.35 44.81 87.35 43.95
  L 87.35 43.05
  Q 87.35 42.19 88.20 42.32
  L 89.42 42.50
  Q 90.49 42.66 89.74 41.88
  Z"
/>
<path fill="#fcfcfc" d="
  M 77.34 41.92
  L 76.36 40.71
  Q 76.05 40.32 76.47 40.07
  L 77.79 39.28
  Q 78.33 38.95 78.55 39.54
  L 78.93 40.50
  Q 79.50 41.97 80.07 40.50
  L 80.35 39.80
  A 0.81 0.80 -68.3 0 1 81.40 39.34
  Q 82.15 39.63 82.72 40.26
  Q 82.97 40.53 82.72 40.81
  L 81.68 41.92
  Q 81.00 42.66 81.98 42.48
  L 83.43 42.21
  A 0.52 0.52 0.0 0 1 84.04 42.69
  L 84.12 44.21
  A 0.53 0.53 0.0 0 1 83.53 44.77
  L 81.98 44.60
  Q 81.33 44.53 81.68 45.08
  Q 81.98 45.55 82.42 45.91
  Q 83.21 46.54 82.35 47.09
  L 81.48 47.64
  A 0.69 0.69 0.0 0 1 80.50 47.37
  L 79.84 46.07
  Q 79.40 45.20 79.07 46.12
  L 78.66 47.25
  Q 78.35 48.11 77.58 47.61
  L 76.68 47.03
  Q 76.02 46.61 76.58 46.05
  Q 77.00 45.63 77.32 45.13
  Q 77.78 44.44 76.96 44.56
  L 75.54 44.76
  Q 74.98 44.85 74.99 44.28
  L 75.03 42.77
  A 0.58 0.57 6.6 0 1 75.73 42.22
  L 76.99 42.49
  Q 77.97 42.70 77.34 41.92
  Z"
/>
<path fill="#fcfcfc" d="
  M 106.82 42.52
  L 107.92 42.26
  Q 108.75 42.07 108.77 42.92
  L 108.80 44.04
  A 0.70 0.70 0.0 0 1 107.95 44.75
  L 106.74 44.49
  Q 105.73 44.28 106.42 45.05
  L 107.31 46.05
  Q 107.79 46.59 107.19 46.99
  L 106.30 47.58
  Q 105.44 48.16 105.08 47.19
  L 104.66 46.05
  Q 104.35 45.24 103.94 46.01
  L 103.26 47.28
  Q 102.86 48.03 102.16 47.54
  L 101.32 46.96
  Q 100.64 46.49 101.29 45.99
  Q 101.79 45.59 102.12 45.07
  Q 102.48 44.49 101.80 44.57
  L 100.28 44.74
  Q 99.76 44.79 99.76 44.28
  L 99.74 42.73
  Q 99.73 42.17 100.28 42.25
  L 101.74 42.44
  Q 102.57 42.56 102.07 41.88
  Q 101.67 41.34 101.16 40.88
  A 0.48 0.48 0.0 0 1 101.19 40.14
  L 102.30 39.27
  Q 102.81 38.88 103.12 39.44
  L 103.71 40.53
  Q 104.32 41.67 104.82 40.48
  L 105.26 39.43
  Q 105.44 39.01 105.84 39.22
  L 107.38 40.04
  Q 108.02 40.38 107.45 40.83
  Q 106.83 41.32 106.43 42.01
  Q 106.03 42.71 106.82 42.52
  Z"
/>
<path fill="#fcfcfc" d="
  M 114.04 44.54
  L 112.79 44.74
  Q 111.95 44.88 112.01 44.03
  L 112.08 42.97
  A 0.79 0.78 7.6 0 1 113.03 42.25
  L 114.02 42.47
  Q 115.20 42.73 114.39 41.84
  L 113.69 41.07
  Q 113.05 40.36 113.87 39.88
  L 114.86 39.29
  A 0.59 0.58 -23.9 0 1 115.71 39.61
  L 116.14 40.90
  Q 116.48 41.95 116.96 40.95
  L 117.47 39.87
  Q 117.95 38.87 118.86 39.50
  L 119.50 39.93
  Q 120.24 40.43 119.60 41.05
  L 118.76 41.86
  Q 117.94 42.65 119.07 42.47
  L 120.53 42.23
  Q 121.19 42.13 121.20 42.79
  L 121.23 44.05
  Q 121.25 44.87 120.44 44.76
  L 118.96 44.55
  Q 118.16 44.44 118.70 45.04
  L 119.58 46.01
  Q 120.13 46.62 119.45 47.08
  L 118.68 47.60
  Q 117.95 48.09 117.56 47.30
  L 116.91 46.01
  Q 116.50 45.18 116.19 46.05
  L 115.82 47.10
  Q 115.50 48.02 114.64 47.56
  L 113.87 47.15
  Q 112.99 46.69 113.67 45.96
  L 114.39 45.20
  Q 115.18 44.36 114.04 44.54
  Z"
/>
<path fill="#00a5de" d="
  M 86.99 76.50
  A 14.99 14.99 0.0 0 1 72.00 91.49
  A 14.99 14.99 0.0 0 1 57.01 76.50
  A 14.99 14.99 0.0 0 1 72.00 61.51
  A 14.99 14.99 0.0 0 1 86.99 76.50
  Z
  M 69.18 76.57
  L 66.80 74.98
  Q 66.43 74.73 65.99 74.81
  Q 65.22 74.95 64.85 75.72
  Q 64.61 76.23 64.96 76.66
  L 69.37 82.03
  Q 69.75 82.50 70.15 82.06
  L 78.98 72.66
  Q 79.43 72.18 79.02 71.66
  L 78.49 70.97
  Q 78.07 70.43 77.54 70.85
  L 70.25 76.53
  Q 69.73 76.93 69.18 76.57
  Z"
/>
<path fill="#fcfcfc" d="
  M 70.25 76.53
  L 77.54 70.85
  Q 78.07 70.43 78.49 70.97
  L 79.02 71.66
  Q 79.43 72.18 78.98 72.66
  L 70.15 82.06
  Q 69.75 82.50 69.37 82.03
  L 64.96 76.66
  Q 64.61 76.23 64.85 75.72
  Q 65.22 74.95 65.99 74.81
  Q 66.43 74.73 66.80 74.98
  L 69.18 76.57
  Q 69.73 76.93 70.25 76.53
  Z"
/>
<circle fill="#005891" cx="72.00" cy="114.19" r="3.27"/>
</svg>
