<?xml version="1.0" encoding="UTF-8" standalone="no"?>
<!DOCTYPE svg PUBLIC "-//W3C//DTD SVG 1.1//EN" "http://www.w3.org/Graphics/SVG/1.1/DTD/svg11.dtd">
<svg xmlns="http://www.w3.org/2000/svg" version="1.1" viewBox="0.00 0.00 110.00 106.00">
<g stroke-width="2.00" fill="none" stroke-linecap="butt">
<path stroke="#81919f" vector-effect="non-scaling-stroke" d="
  M 45.97 4.30
  C 22.56 8.30 4.40 29.37 4.03 53.04
  A 0.88 0.86 14.3 0 0 4.51 53.83
  L 12.83 58.03
  Q 13.26 58.25 13.64 57.96
  Q 15.53 56.50 17.72 56.07
  Q 30.27 53.57 44.54 52.17
  C 60.25 50.63 75.35 52.88 91.42 55.81
  Q 94.39 56.36 96.45 58.07
  Q 96.83 58.38 97.26 58.12
  Q 101.08 55.81 105.18 54.06
  A 1.32 1.31 77.1 0 0 105.97 52.79
  C 104.61 21.40 76.80 -0.96 45.97 4.30"
/>
<path stroke="#81919f" vector-effect="non-scaling-stroke" d="
  M 64.44 101.45
  C 73.51 99.57 82.27 96.54 90.96 92.86
  Q 93.94 91.60 94.28 88.54
  Q 95.22 80.01 96.26 65.87
  Q 96.69 60.02 91.56 58.96
  Q 81.06 56.79 66.06 55.09
  C 50.77 53.37 36.65 55.54 19.69 58.61
  C 15.66 59.34 13.32 61.32 13.69 65.89
  Q 14.63 77.39 15.64 88.28
  Q 15.95 91.55 19.08 92.89
  Q 34.96 99.71 48.60 101.99
  C 53.87 102.87 59.21 102.53 64.44 101.45"
/>
<path stroke="#81919f" vector-effect="non-scaling-stroke" d="
  M 11.02 80.40
  Q 12.03 82.16 11.88 80.13
  Q 11.40 73.58 10.75 66.62
  Q 10.47 63.66 11.36 61.15
  Q 11.53 60.65 11.06 60.41
  L 4.71 57.27
  Q 4.14 56.99 4.17 57.63
  Q 4.69 69.32 11.02 80.40"
/>
<path stroke="#81919f" vector-effect="non-scaling-stroke" d="
  M 98.57 60.60
  A 0.11 0.11 0.0 0 0 98.51 60.74
  Q 99.63 63.76 99.24 67.27
  Q 98.51 73.97 98.10 80.85
  Q 98.04 81.94 98.60 81.01
  Q 105.01 70.36 105.93 57.46
  A 0.30 0.30 0.0 0 0 105.50 57.17
  L 98.57 60.60"
/>
<path stroke="#81919f" vector-effect="non-scaling-stroke" d="
  M 37.87 36.78
  Q 39.72 37.35 40.55 39.53
  A 1.46 1.39 -86.2 0 0 41.15 40.25
  Q 42.00 40.75 42.87 40.12
  A 0.97 0.96 71.3 0 0 43.27 39.30
  Q 43.19 37.45 41.87 36.04
  C 37.59 31.45 31.19 33.35 29.59 39.31
  Q 29.30 40.42 30.24 41.06
  Q 30.77 41.43 31.56 41.18
  A 1.25 1.24 89.6 0 0 32.36 40.36
  Q 33.77 35.52 37.87 36.78"
/>
<path stroke="#81919f" vector-effect="non-scaling-stroke" d="
  M 77.09 41.25
  Q 77.80 41.11 78.20 40.10
  A 1.35 1.33 -45.9 0 0 78.19 39.07
  Q 75.12 31.91 68.76 33.98
  Q 65.62 35.00 64.44 38.59
  A 1.26 1.25 41.7 0 0 64.50 39.53
  Q 64.90 40.35 65.54 40.46
  Q 66.71 40.66 67.16 39.56
  Q 68.82 35.56 72.64 36.82
  C 74.19 37.33 74.84 38.99 75.44 40.38
  Q 75.92 41.48 77.09 41.25"
/>
<path stroke="#6d808f" vector-effect="non-scaling-stroke" d="
  M 70.17 69.68
  C 75.64 70.14 81.25 70.90 86.66 71.78
  A 0.44 0.44 0.0 0 0 87.16 71.42
  L 87.22 71.08
  Q 87.34 70.37 86.62 70.27
  Q 73.67 68.39 60.06 67.36
  Q 56.05 67.06 52.50 67.27
  Q 38.13 68.12 23.17 70.33
  A 0.42 0.41 86.0 0 0 22.82 70.74
  L 22.82 71.13
  Q 22.81 71.84 23.51 71.73
  Q 42.76 68.95 48.11 68.95
  Q 54.13 68.95 59.27 68.81
  C 62.96 68.71 66.54 69.38 70.17 69.68"
/>
<path stroke="#6d808f" vector-effect="non-scaling-stroke" d="
  M 68.27 86.95
  C 73.37 86.09 78.66 85.02 83.70 83.72
  Q 84.55 83.50 84.17 82.71
  L 84.04 82.45
  Q 83.89 82.14 83.55 82.22
  Q 77.55 83.71 71.93 84.78
  C 64.43 86.21 56.83 87.21 48.78 86.35
  Q 37.57 85.15 26.47 82.23
  A 0.43 0.43 0.0 0 0 25.94 82.55
  L 25.86 82.86
  Q 25.68 83.56 26.38 83.73
  Q 37.55 86.44 46.00 87.56
  Q 56.51 88.94 68.27 86.95"
/>
</g>
<path fill="#b7bfc8" d="
  M 2.09 42.00
  C 5.87 24.63 19.12 9.79 35.85 3.60
  Q 45.06 0.19 54.74 0.22
  Q 79.73 0.29 96.27 19.03
  Q 106.80 30.97 108.89 47.86
  Q 108.90 48.00 108.96 48.12
  Q 109.03 48.24 109.04 48.38
  Q 111.05 69.79 98.75 86.96
  C 97.41 88.83 97.46 91.40 95.95 93.25
  Q 94.31 95.28 91.33 96.50
  Q 75.88 102.84 63.77 105.02
  Q 56.78 106.28 47.85 105.28
  Q 46.38 105.12 45.08 104.70
  Q 43.76 104.28 42.34 104.28
  Q 41.76 104.27 41.25 104.02
  Q 39.85 103.31 38.25 103.26
  Q 37.77 103.24 37.34 103.00
  Q 35.91 102.21 34.25 102.18
  A 1.44 1.42 63.8 0 1 33.42 101.89
  Q 32.63 101.29 31.56 101.29
  Q 30.97 101.30 30.48 100.97
  Q 29.40 100.25 28.11 100.23
  Q 27.58 100.22 27.31 99.75
  Q 27.07 99.33 26.56 99.49
  A 0.75 0.71 -37.7 0 1 26.05 99.44
  Q 23.43 98.18 20.74 97.32
  Q 17.86 96.41 15.53 94.78
  C 13.34 93.24 12.99 90.94 12.05 88.61
  Q 11.53 87.34 10.70 86.14
  Q -3.16 66.13 2.09 42.00
  Z
  M 45.97 4.30
  C 22.56 8.30 4.40 29.37 4.03 53.04
  A 0.88 0.86 14.3 0 0 4.51 53.83
  L 12.83 58.03
  Q 13.26 58.25 13.64 57.96
  Q 15.53 56.50 17.72 56.07
  Q 30.27 53.57 44.54 52.17
  C 60.25 50.63 75.35 52.88 91.42 55.81
  Q 94.39 56.36 96.45 58.07
  Q 96.83 58.38 97.26 58.12
  Q 101.08 55.81 105.18 54.06
  A 1.32 1.31 77.1 0 0 105.97 52.79
  C 104.61 21.40 76.80 -0.96 45.97 4.30
  Z
  M 64.44 101.45
  C 73.51 99.57 82.27 96.54 90.96 92.86
  Q 93.94 91.60 94.28 88.54
  Q 95.22 80.01 96.26 65.87
  Q 96.69 60.02 91.56 58.96
  Q 81.06 56.79 66.06 55.09
  C 50.77 53.37 36.65 55.54 19.69 58.61
  C 15.66 59.34 13.32 61.32 13.69 65.89
  Q 14.63 77.39 15.64 88.28
  Q 15.95 91.55 19.08 92.89
  Q 34.96 99.71 48.60 101.99
  C 53.87 102.87 59.21 102.53 64.44 101.45
  Z
  M 11.02 80.40
  Q 12.03 82.16 11.88 80.13
  Q 11.40 73.58 10.75 66.62
  Q 10.47 63.66 11.36 61.15
  Q 11.53 60.65 11.06 60.41
  L 4.71 57.27
  Q 4.14 56.99 4.17 57.63
  Q 4.69 69.32 11.02 80.40
  Z
  M 98.57 60.60
  A 0.11 0.11 0.0 0 0 98.51 60.74
  Q 99.63 63.76 99.24 67.27
  Q 98.51 73.97 98.10 80.85
  Q 98.04 81.94 98.60 81.01
  Q 105.01 70.36 105.93 57.46
  A 0.30 0.30 0.0 0 0 105.50 57.17
  L 98.57 60.60
  Z"
/>
<path fill="#4a6275" d="
  M 4.03 53.04
  C 4.40 29.37 22.56 8.30 45.97 4.30
  C 76.80 -0.96 104.61 21.40 105.97 52.79
  A 1.32 1.31 77.1 0 1 105.18 54.06
  Q 101.08 55.81 97.26 58.12
  Q 96.83 58.38 96.45 58.07
  Q 94.39 56.36 91.42 55.81
  C 75.35 52.88 60.25 50.63 44.54 52.17
  Q 30.27 53.57 17.72 56.07
  Q 15.53 56.50 13.64 57.96
  Q 13.26 58.25 12.83 58.03
  L 4.51 53.83
  A 0.88 0.86 14.3 0 1 4.03 53.04
  Z
  M 37.87 36.78
  Q 39.72 37.35 40.55 39.53
  A 1.46 1.39 -86.2 0 0 41.15 40.25
  Q 42.00 40.75 42.87 40.12
  A 0.97 0.96 71.3 0 0 43.27 39.30
  Q 43.19 37.45 41.87 36.04
  C 37.59 31.45 31.19 33.35 29.59 39.31
  Q 29.30 40.42 30.24 41.06
  Q 30.77 41.43 31.56 41.18
  A 1.25 1.24 89.6 0 0 32.36 40.36
  Q 33.77 35.52 37.87 36.78
  Z
  M 77.09 41.25
  Q 77.80 41.11 78.20 40.10
  A 1.35 1.33 -45.9 0 0 78.19 39.07
  Q 75.12 31.91 68.76 33.98
  Q 65.62 35.00 64.44 38.59
  A 1.26 1.25 41.7 0 0 64.50 39.53
  Q 64.90 40.35 65.54 40.46
  Q 66.71 40.66 67.16 39.56
  Q 68.82 35.56 72.64 36.82
  C 74.19 37.33 74.84 38.99 75.44 40.38
  Q 75.92 41.48 77.09 41.25
  Z"
/>
<path fill="#b7bfc8" d="
  M 37.87 36.78
  Q 33.77 35.52 32.36 40.36
  A 1.25 1.24 89.6 0 1 31.56 41.18
  Q 30.77 41.43 30.24 41.06
  Q 29.30 40.42 29.59 39.31
  C 31.19 33.35 37.59 31.45 41.87 36.04
  Q 43.19 37.45 43.27 39.30
  A 0.97 0.96 71.3 0 1 42.87 40.12
  Q 42.00 40.75 41.15 40.25
  A 1.46 1.39 -86.2 0 1 40.55 39.53
  Q 39.72 37.35 37.87 36.78
  Z"
/>
<path fill="#b7bfc8" d="
  M 75.44 40.38
  C 74.84 38.99 74.19 37.33 72.64 36.82
  Q 68.82 35.56 67.16 39.56
  Q 66.71 40.66 65.54 40.46
  Q 64.90 40.35 64.50 39.53
  A 1.26 1.25 41.7 0 1 64.44 38.59
  Q 65.62 35.00 68.76 33.98
  Q 75.12 31.91 78.19 39.07
  A 1.35 1.33 -45.9 0 1 78.20 40.10
  Q 77.80 41.11 77.09 41.25
  Q 75.92 41.48 75.44 40.38
  Z"
/>
<path fill="#4a6275" d="
  M 90.96 92.86
  C 82.27 96.54 73.51 99.57 64.44 101.45
  C 59.21 102.53 53.87 102.87 48.60 101.99
  Q 34.96 99.71 19.08 92.89
  Q 15.95 91.55 15.64 88.28
  Q 14.63 77.39 13.69 65.89
  C 13.32 61.32 15.66 59.34 19.69 58.61
  C 36.65 55.54 50.77 53.37 66.06 55.09
  Q 81.06 56.79 91.56 58.96
  Q 96.69 60.02 96.26 65.87
  Q 95.22 80.01 94.28 88.54
  Q 93.94 91.60 90.96 92.86
  Z
  M 70.17 69.68
  C 75.64 70.14 81.25 70.90 86.66 71.78
  A 0.44 0.44 0.0 0 0 87.16 71.42
  L 87.22 71.08
  Q 87.34 70.37 86.62 70.27
  Q 73.67 68.39 60.06 67.36
  Q 56.05 67.06 52.50 67.27
  Q 38.13 68.12 23.17 70.33
  A 0.42 0.41 86.0 0 0 22.82 70.74
  L 22.82 71.13
  Q 22.81 71.84 23.51 71.73
  Q 42.76 68.95 48.11 68.95
  Q 54.13 68.95 59.27 68.81
  C 62.96 68.71 66.54 69.38 70.17 69.68
  Z
  M 68.27 86.95
  C 73.37 86.09 78.66 85.02 83.70 83.72
  Q 84.55 83.50 84.17 82.71
  L 84.04 82.45
  Q 83.89 82.14 83.55 82.22
  Q 77.55 83.71 71.93 84.78
  C 64.43 86.21 56.83 87.21 48.78 86.35
  Q 37.57 85.15 26.47 82.23
  A 0.43 0.43 0.0 0 0 25.94 82.55
  L 25.86 82.86
  Q 25.68 83.56 26.38 83.73
  Q 37.55 86.44 46.00 87.56
  Q 56.51 88.94 68.27 86.95
  Z"
/>
<path fill="#4a6275" d="
  M 11.02 80.40
  Q 4.69 69.32 4.17 57.63
  Q 4.14 56.99 4.71 57.27
  L 11.06 60.41
  Q 11.53 60.65 11.36 61.15
  Q 10.47 63.66 10.75 66.62
  Q 11.40 73.58 11.88 80.13
  Q 12.03 82.16 11.02 80.40
  Z"
/>
<path fill="#4a6275" d="
  M 98.57 60.60
  L 105.50 57.17
  A 0.30 0.30 0.0 0 1 105.93 57.46
  Q 105.01 70.36 98.60 81.01
  Q 98.04 81.94 98.10 80.85
  Q 98.51 73.97 99.24 67.27
  Q 99.63 63.76 98.51 60.74
  A 0.11 0.11 0.0 0 1 98.57 60.60
  Z"
/>
<path fill="#919faa" fill-opacity="0.996" d="
  M 70.17 69.68
  C 66.54 69.38 62.96 68.71 59.27 68.81
  Q 54.13 68.95 48.11 68.95
  Q 42.76 68.95 23.51 71.73
  Q 22.81 71.84 22.82 71.13
  L 22.82 70.74
  A 0.42 0.41 86.0 0 1 23.17 70.33
  Q 38.13 68.12 52.50 67.27
  Q 56.05 67.06 60.06 67.36
  Q 73.67 68.39 86.62 70.27
  Q 87.34 70.37 87.22 71.08
  L 87.16 71.42
  A 0.44 0.44 0.0 0 1 86.66 71.78
  C 81.25 70.90 75.64 70.14 70.17 69.68
  Z"
/>
<path fill="#919faa" fill-opacity="0.996" d="
  M 68.27 86.95
  Q 56.51 88.94 46.00 87.56
  Q 37.55 86.44 26.38 83.73
  Q 25.68 83.56 25.86 82.86
  L 25.94 82.55
  A 0.43 0.43 0.0 0 1 26.47 82.23
  Q 37.57 85.15 48.78 86.35
  C 56.83 87.21 64.43 86.21 71.93 84.78
  Q 77.55 83.71 83.55 82.22
  Q 83.89 82.14 84.04 82.45
  L 84.17 82.71
  Q 84.55 83.50 83.70 83.72
  C 78.66 85.02 73.37 86.09 68.27 86.95
  Z"
/>
</svg>
