<?xml version="1.0" encoding="UTF-8" standalone="no"?>
<!DOCTYPE svg PUBLIC "-//W3C//DTD SVG 1.1//EN" "http://www.w3.org/Graphics/SVG/1.1/DTD/svg11.dtd">
<svg xmlns="http://www.w3.org/2000/svg" version="1.1" viewBox="0.00 0.00 120.00 87.00">
<g stroke-width="2.00" fill="none" stroke-linecap="butt">
<path stroke="#c1cad1" vector-effect="non-scaling-stroke" d="
  M 111.16 61.02
  C 109.07 60.16 109.72 58.39 109.64 56.83
  Q 109.53 54.85 110.33 53.99
  Q 112.74 51.37 112.73 47.60
  Q 112.68 30.47 112.74 14.11
  C 112.76 9.98 110.70 7.02 106.07 7.01
  Q 70.33 6.99 34.67 7.01
  C 32.45 7.01 30.15 9.29 28.34 10.47"
/>
<path stroke="#80acc9" vector-effect="non-scaling-stroke" d="
  M 106.13 68.57
  Q 105.70 46.94 105.93 25.99
  Q 106.01 17.96 99.44 14.79
  Q 96.67 13.45 91.33 13.46
  Q 58.70 13.49 25.95 13.38"
/>
<path stroke="#80acc9" vector-effect="non-scaling-stroke" d="
  M 99.90 25.48
  A 6.03 6.03 0.0 0 0 93.87 19.45
  L 12.93 19.45
  A 6.03 6.03 0.0 0 0 6.90 25.48
  L 6.90 73.42
  A 6.03 6.03 0.0 0 0 12.93 79.45
  L 93.87 79.45
  A 6.03 6.03 0.0 0 0 99.90 73.42
  L 99.90 25.48"
/>
<path stroke="#c1cad1" vector-effect="non-scaling-stroke" d="
  M 16.63 49.24
  A 0.33 0.33 0.0 0 0 17.13 48.95
  L 17.13 41.11
  A 0.33 0.33 0.0 0 0 16.63 40.82
  L 10.18 44.75
  A 0.33 0.33 0.0 0 0 10.18 45.31
  L 16.63 49.24"
/>
<path stroke="#c1cad1" vector-effect="non-scaling-stroke" d="
  M 56.64 59.23
  A 2.21 2.21 0.0 0 0 54.43 57.02
  L 19.33 57.02
  A 2.21 2.21 0.0 0 0 17.12 59.23
  L 17.12 59.31
  A 2.21 2.21 0.0 0 0 19.33 61.52
  L 54.43 61.52
  A 2.21 2.21 0.0 0 0 56.64 59.31
  L 56.64 59.23"
/>
<path stroke="#c1cad1" vector-effect="non-scaling-stroke" d="
  M 40.15 69.16
  A 2.20 2.20 0.0 0 0 37.95 66.96
  L 19.33 66.96
  A 2.20 2.20 0.0 0 0 17.13 69.16
  L 17.13 69.26
  A 2.20 2.20 0.0 0 0 19.33 71.46
  L 37.95 71.46
  A 2.20 2.20 0.0 0 0 40.15 69.26
  L 40.15 69.16"
/>
</g>
<path fill="#8294a2" d="
  M 111.16 61.02
  C 109.07 60.16 109.72 58.39 109.64 56.83
  Q 109.53 54.85 110.33 53.99
  Q 112.74 51.37 112.73 47.60
  Q 112.68 30.47 112.74 14.11
  C 112.76 9.98 110.70 7.02 106.07 7.01
  Q 70.33 6.99 34.67 7.01
  C 32.45 7.01 30.15 9.29 28.34 10.47
  L 24.87 9.30
  Q 23.65 8.89 24.27 7.76
  C 26.91 2.92 31.12 0.93 36.46 0.94
  Q 69.02 1.05 105.51 0.95
  C 113.25 0.93 118.82 6.02 118.77 13.89
  Q 118.66 30.51 118.79 46.56
  C 118.84 53.03 116.77 57.69 111.16 61.02
  Z"
/>
<path fill="#ffffff" d="
  M 111.16 61.02
  L 106.13 68.57
  Q 105.70 46.94 105.93 25.99
  Q 106.01 17.96 99.44 14.79
  Q 96.67 13.45 91.33 13.46
  Q 58.70 13.49 25.95 13.38
  Q 27.28 12.52 28.07 11.81
  Q 28.96 11.01 28.34 10.47
  C 30.15 9.29 32.45 7.01 34.67 7.01
  Q 70.33 6.99 106.07 7.01
  C 110.70 7.02 112.76 9.98 112.74 14.11
  Q 112.68 30.47 112.73 47.60
  Q 112.74 51.37 110.33 53.99
  Q 109.53 54.85 109.64 56.83
  C 109.72 58.39 109.07 60.16 111.16 61.02
  Z"
/>
<path fill="#005993" d="
  M 25.95 13.38
  Q 58.70 13.49 91.33 13.46
  Q 96.67 13.45 99.44 14.79
  Q 106.01 17.96 105.93 25.99
  Q 105.70 46.94 106.13 68.57
  Q 106.18 73.73 105.69 75.69
  C 103.90 82.92 98.68 85.64 91.62 85.61
  Q 57.97 85.48 14.24 85.57
  C 6.44 85.59 0.89 80.69 0.92 72.67
  Q 1.02 50.41 0.94 26.62
  C 0.92 18.88 5.37 13.83 13.51 13.40
  Q 17.98 13.17 25.95 13.38
  Z
  M 99.90 25.48
  A 6.03 6.03 0.0 0 0 93.87 19.45
  L 12.93 19.45
  A 6.03 6.03 0.0 0 0 6.90 25.48
  L 6.90 73.42
  A 6.03 6.03 0.0 0 0 12.93 79.45
  L 93.87 79.45
  A 6.03 6.03 0.0 0 0 99.90 73.42
  L 99.90 25.48
  Z"
/>
<path fill="#ffffff" d="
  M 99.90 73.42
  A 6.03 6.03 0.0 0 1 93.87 79.45
  L 12.93 79.45
  A 6.03 6.03 0.0 0 1 6.90 73.42
  L 6.90 25.48
  A 6.03 6.03 0.0 0 1 12.93 19.45
  L 93.87 19.45
  A 6.03 6.03 0.0 0 1 99.90 25.48
  L 99.90 73.42
  Z
  M 16.63 49.24
  A 0.33 0.33 0.0 0 0 17.13 48.95
  L 17.13 41.11
  A 0.33 0.33 0.0 0 0 16.63 40.82
  L 10.18 44.75
  A 0.33 0.33 0.0 0 0 10.18 45.31
  L 16.63 49.24
  Z
  M 56.64 59.23
  A 2.21 2.21 0.0 0 0 54.43 57.02
  L 19.33 57.02
  A 2.21 2.21 0.0 0 0 17.12 59.23
  L 17.12 59.31
  A 2.21 2.21 0.0 0 0 19.33 61.52
  L 54.43 61.52
  A 2.21 2.21 0.0 0 0 56.64 59.31
  L 56.64 59.23
  Z
  M 40.15 69.16
  A 2.20 2.20 0.0 0 0 37.95 66.96
  L 19.33 66.96
  A 2.20 2.20 0.0 0 0 17.13 69.16
  L 17.13 69.26
  A 2.20 2.20 0.0 0 0 19.33 71.46
  L 37.95 71.46
  A 2.20 2.20 0.0 0 0 40.15 69.26
  L 40.15 69.16
  Z"
/>
<path fill="#8294a2" d="
  M 16.63 49.24
  L 10.18 45.31
  A 0.33 0.33 0.0 0 1 10.18 44.75
  L 16.63 40.82
  A 0.33 0.33 0.0 0 1 17.13 41.11
  L 17.13 48.95
  A 0.33 0.33 0.0 0 1 16.63 49.24
  Z"
/>
<rect fill="#8294a2" x="17.12" y="57.02" width="39.52" height="4.50" rx="2.21"/>
<rect fill="#8294a2" x="17.13" y="66.96" width="23.02" height="4.50" rx="2.20"/>
</svg>
