<?xml version="1.0" encoding="UTF-8" standalone="no"?>
<!DOCTYPE svg PUBLIC "-//W3C//DTD SVG 1.1//EN" "http://www.w3.org/Graphics/SVG/1.1/DTD/svg11.dtd">
<svg xmlns="http://www.w3.org/2000/svg" version="1.1" viewBox="0.00 0.00 96.00 83.00">
<path fill="#ffffff" d="
  M 58.07 6.19
  A 1.47 1.47 0.0 0 0 60.04 6.61
  L 68.27 1.60
  Q 71.94 -0.64 74.15 3.05
  Q 78.17 9.76 82.73 17.23
  C 83.35 18.24 84.48 19.29 85.59 19.70
  C 90.71 21.58 94.38 25.46 94.42 31.01
  Q 94.51 45.54 94.54 60.95
  C 94.55 64.61 94.85 68.10 94.67 71.74
  C 94.49 75.37 91.64 78.17 88.95 80.15
  Q 86.36 82.07 82.40 82.06
  Q 48.87 82.01 13.80 82.06
  C 7.21 82.07 2.19 77.54 1.76 70.90
  Q 1.60 68.46 1.56 65.94
  Q 1.29 44.76 1.74 23.46
  Q 1.80 20.76 1.48 18.27
  C 1.20 16.08 1.33 11.69 3.71 10.48
  Q 8.32 8.13 15.63 8.84
  Q 17.91 9.06 18.69 11.06
  A 1.31 1.30 44.7 0 1 18.70 11.96
  C 17.59 15.12 13.46 14.55 10.14 14.53
  Q 7.84 14.52 7.96 16.82
  L 7.99 17.35
  A 1.97 1.97 0.0 0 0 9.91 19.21
  Q 14.08 19.29 19.32 19.31
  C 21.98 19.32 23.71 18.04 25.91 16.66
  Q 38.66 8.67 50.13 1.63
  C 54.52 -1.07 56.17 3.43 58.07 6.19
  Z
  M 34.54 17.82
  A 0.57 0.57 0.0 0 0 34.36 18.00
  L 33.93 18.69
  A 0.57 0.57 0.0 0 0 34.41 19.56
  L 58.37 19.55
  A 0.57 0.57 0.0 0 0 58.86 18.69
  L 52.26 7.53
  A 0.57 0.57 0.0 0 0 51.47 7.34
  L 34.54 17.82
  Z
  M 65.28 19.11
  A 0.81 0.81 0.0 0 0 65.98 19.51
  L 76.17 19.60
  A 0.81 0.81 0.0 0 0 76.87 18.37
  L 70.47 7.68
  A 0.81 0.81 0.0 0 0 69.34 7.41
  L 62.10 11.99
  A 0.81 0.81 0.0 0 0 61.83 13.07
  L 65.28 19.11
  Z
  M 10.37 76.12
  Q 10.79 76.77 11.57 76.52
  Q 11.99 76.39 12.41 76.49
  C 13.43 76.73 14.06 76.25 15.02 76.25
  Q 49.09 76.24 82.36 76.25
  C 86.06 76.25 88.37 73.87 88.29 70.14
  Q 88.21 66.88 88.65 63.41
  A 0.89 0.88 -85.6 0 0 87.80 62.41
  Q 82.98 62.26 78.11 62.43
  Q 71.80 62.66 69.23 61.21
  C 61.61 56.92 61.63 46.17 69.63 42.38
  Q 72.39 41.08 76.74 41.19
  Q 82.91 41.35 88.05 41.22
  Q 88.58 41.21 88.59 40.68
  Q 88.74 35.33 88.52 30.93
  Q 88.35 27.44 85.23 25.92
  Q 83.52 25.09 80.54 25.09
  Q 43.76 25.17 7.96 25.08
  Q 7.40 25.08 7.39 25.64
  Q 7.38 44.08 7.42 62.20
  Q 7.43 64.49 7.21 66.83
  Q 6.98 69.32 7.38 72.43
  Q 7.52 73.53 8.13 74.12
  Q 9.07 75.03 10.13 75.85
  A 1.12 0.94 88.5 0 1 10.37 76.12
  Z
  M 88.53 55.80
  L 88.51 47.72
  A 0.72 0.72 0.0 0 0 87.78 47.00
  L 74.52 47.05
  A 5.14 4.71 -0.2 0 0 69.40 51.77
  L 69.40 51.87
  A 5.14 4.71 -0.2 0 0 74.56 56.57
  L 87.82 56.52
  A 0.72 0.72 0.0 0 0 88.53 55.80
  Z"
/>
</svg>
