<?xml version="1.0" encoding="UTF-8" standalone="no"?>
<!DOCTYPE svg PUBLIC "-//W3C//DTD SVG 1.1//EN" "http://www.w3.org/Graphics/SVG/1.1/DTD/svg11.dtd">
<svg xmlns="http://www.w3.org/2000/svg" version="1.1" viewBox="0.00 0.00 107.00 76.00">
<path fill="#ffffff" d="
  M 95.27 6.67
  C 93.79 6.47 92.37 5.98 90.87 5.98
  Q 60.44 5.99 33.37 6.02
  Q 29.07 6.03 25.63 8.42
  Q 25.22 8.70 24.73 8.67
  L 20.22 8.41
  Q 19.17 8.35 19.66 7.42
  C 22.24 2.59 26.23 0.77 31.61 0.79
  Q 61.39 0.92 91.78 0.77
  Q 97.13 0.74 99.58 2.08
  C 104.55 4.80 106.08 9.67 106.02 15.21
  Q 105.86 29.24 105.96 42.66
  C 106.00 47.74 103.48 53.17 98.24 54.41
  Q 97.69 54.54 97.68 53.98
  L 97.60 49.30
  Q 97.59 48.77 97.96 48.40
  Q 100.17 46.11 100.21 42.76
  Q 100.39 27.31 100.15 12.71
  C 100.11 10.14 98.07 7.06 95.27 6.67
  Z"
/>
<path fill="#ffffff" d="
  M 93.8962 62.7511
  A 12.10 12.10 0.0 0 1 81.7751 74.8299
  L 13.0552 74.7100
  A 12.10 12.10 0.0 0 1 0.9764 62.5889
  L 1.0438 23.9889
  A 12.10 12.10 0.0 0 1 13.1649 11.9101
  L 81.8848 12.0300
  A 12.10 12.10 0.0 0 1 93.9636 24.1511
  L 93.8962 62.7511
  Z
  M 88.12 23.80
  A 6.11 6.11 0.0 0 0 82.01 17.69
  L 12.99 17.69
  A 6.11 6.11 0.0 0 0 6.88 23.80
  L 6.88 62.86
  A 6.11 6.11 0.0 0 0 12.99 68.97
  L 82.01 68.97
  A 6.11 6.11 0.0 0 0 88.12 62.86
  L 88.12 23.80
  Z"
/>
<path fill="#ffffff" d="
  M 15.41 40.86
  L 10.05 37.55
  A 0.31 0.31 0.0 0 1 10.05 37.03
  L 15.41 33.72
  A 0.31 0.31 0.0 0 1 15.89 33.99
  L 15.89 40.59
  A 0.31 0.31 0.0 0 1 15.41 40.86
  Z"
/>
<rect fill="#ffffff" x="-17.81" y="-2.07" transform="translate(34.02,50.05) rotate(0.1)" width="35.62" height="4.14" rx="2.02"/>
<rect fill="#ffffff" x="16.21" y="56.99" width="20.62" height="4.12" rx="2.00"/>
</svg>
