<?xml version="1.0" encoding="UTF-8" standalone="no"?>
<!DOCTYPE svg PUBLIC "-//W3C//DTD SVG 1.1//EN" "http://www.w3.org/Graphics/SVG/1.1/DTD/svg11.dtd">
<svg xmlns="http://www.w3.org/2000/svg" version="1.1" viewBox="0.00 0.00 108.00 95.00">
<g stroke-width="2.00" fill="none" stroke-linecap="butt">
<path stroke="#41779b" vector-effect="non-scaling-stroke" d="
  M 95.38 22.12
  L 88.01 22.21"
/>
<path stroke="#c1cad1" vector-effect="non-scaling-stroke" d="
  M 88.01 22.21
  L 80.06 9.02
  A 0.54 0.54 0.0 0 0 79.31 8.85
  L 70.90 14.16
  A 0.56 0.56 0.0 0 0 70.72 14.92
  L 75.13 22.20"
/>
<path stroke="#41779b" vector-effect="non-scaling-stroke" d="
  M 75.13 22.20
  L 68.10 22.23"
/>
<path stroke="#c1cad1" vector-effect="non-scaling-stroke" d="
  M 68.10 22.23
  L 60.13 9.00
  A 0.50 0.50 0.0 0 0 59.44 8.83
  L 37.15 22.24"
/>
<path stroke="#41779b" vector-effect="non-scaling-stroke" d="
  M 37.15 22.24
  L 28.45 21.87"
/>
<path stroke="#c1cad1" vector-effect="non-scaling-stroke" d="
  M 28.45 21.87
  L 31.86 18.55"
/>
<path stroke="#80acc9" vector-effect="non-scaling-stroke" d="
  M 68.10 22.23
  L 37.15 22.24"
/>
<path stroke="#80acc9" vector-effect="non-scaling-stroke" d="
  M 88.01 22.21
  L 75.13 22.20"
/>
<path stroke="#80acc9" vector-effect="non-scaling-stroke" d="
  M 20.19 14.68
  Q 16.47 17.20 10.61 16.38
  A 2.46 2.46 0.0 0 0 7.94 18.03
  C 7.18 20.27 8.24 22.24 10.75 22.29
  Q 19.79 22.50 28.45 21.87"
/>
<path stroke="#80acc9" vector-effect="non-scaling-stroke" d="
  M 85.03 69.17
  C 69.00 69.13 68.90 46.34 85.31 46.32
  Q 92.45 46.32 99.89 46.35
  Q 100.53 46.36 100.52 45.72
  Q 100.45 40.92 100.53 35.22
  C 100.60 30.29 97.74 28.17 92.96 28.18
  Q 49.48 28.29 10.21 28.22
  C 9.55 28.21 8.68 28.05 8.07 27.84
  Q 7.47 27.62 7.47 28.27
  Q 7.56 53.48 7.43 79.66
  C 7.40 84.55 8.57 88.13 14.25 88.14
  Q 54.00 88.16 93.75 88.14
  C 97.65 88.14 100.23 86.20 100.27 82.27
  Q 100.33 75.84 100.56 69.81
  Q 100.59 69.15 99.92 69.15
  Q 92.52 69.18 85.03 69.17"
/>
<path stroke="#80acc9" vector-effect="non-scaling-stroke" d="
  M 100.50 62.82
  L 100.50 52.68
  A 0.35 0.35 0.0 0 0 100.15 52.33
  L 84.50 52.33
  A 5.52 5.24 0.0 0 0 78.98 57.57
  L 78.98 57.93
  A 5.52 5.24 -0.0 0 0 84.50 63.17
  L 100.15 63.17
  A 0.35 0.35 0.0 0 0 100.50 62.82"
/>
</g>
<path fill="#8294a2" d="
  M 95.38 22.12
  L 88.01 22.21
  L 80.06 9.02
  A 0.54 0.54 0.0 0 0 79.31 8.85
  L 70.90 14.16
  A 0.56 0.56 0.0 0 0 70.72 14.92
  L 75.13 22.20
  L 68.10 22.23
  L 60.13 9.00
  A 0.50 0.50 0.0 0 0 59.44 8.83
  L 37.15 22.24
  L 28.45 21.87
  L 31.86 18.55
  Q 45.26 10.94 58.60 2.30
  Q 61.57 0.37 63.59 3.22
  Q 65.04 5.27 66.32 7.63
  A 1.79 1.78 59.9 0 0 68.81 8.30
  L 78.66 2.34
  A 3.71 3.70 -31.6 0 1 83.71 3.54
  L 95.38 22.12
  Z"
/>
<path fill="#ffffff" d="
  M 68.10 22.23
  L 37.15 22.24
  L 59.44 8.83
  A 0.50 0.50 0.0 0 1 60.13 9.00
  L 68.10 22.23
  Z"
/>
<path fill="#ffffff" d="
  M 88.01 22.21
  L 75.13 22.20
  L 70.72 14.92
  A 0.56 0.56 0.0 0 1 70.90 14.16
  L 79.31 8.85
  A 0.54 0.54 0.0 0 1 80.06 9.02
  L 88.01 22.21
  Z"
/>
<path fill="#005993" d="
  M 20.19 14.68
  Q 16.47 17.20 10.61 16.38
  A 2.46 2.46 0.0 0 0 7.94 18.03
  C 7.18 20.27 8.24 22.24 10.75 22.29
  Q 19.79 22.50 28.45 21.87
  L 37.15 22.24
  L 68.10 22.23
  L 75.13 22.20
  L 88.01 22.21
  L 95.38 22.12
  Q 102.50 23.49 105.13 28.76
  Q 106.59 31.69 106.56 35.39
  Q 106.37 59.17 106.73 80.15
  C 106.86 87.66 102.10 94.08 94.22 94.07
  Q 53.89 94.00 13.25 94.06
  C 8.45 94.07 4.41 91.17 2.54 86.76
  Q 1.35 83.94 1.37 79.47
  Q 1.50 51.79 1.41 23.96
  Q 1.40 22.48 1.28 21.06
  Q 0.76 15.18 6.02 11.80
  C 8.45 10.24 12.72 10.10 15.75 10.18
  Q 19.84 10.30 20.19 14.68
  Z
  M 85.03 69.17
  C 69.00 69.13 68.90 46.34 85.31 46.32
  Q 92.45 46.32 99.89 46.35
  Q 100.53 46.36 100.52 45.72
  Q 100.45 40.92 100.53 35.22
  C 100.60 30.29 97.74 28.17 92.96 28.18
  Q 49.48 28.29 10.21 28.22
  C 9.55 28.21 8.68 28.05 8.07 27.84
  Q 7.47 27.62 7.47 28.27
  Q 7.56 53.48 7.43 79.66
  C 7.40 84.55 8.57 88.13 14.25 88.14
  Q 54.00 88.16 93.75 88.14
  C 97.65 88.14 100.23 86.20 100.27 82.27
  Q 100.33 75.84 100.56 69.81
  Q 100.59 69.15 99.92 69.15
  Q 92.52 69.18 85.03 69.17
  Z
  M 100.50 62.82
  L 100.50 52.68
  A 0.35 0.35 0.0 0 0 100.15 52.33
  L 84.50 52.33
  A 5.52 5.24 0.0 0 0 78.98 57.57
  L 78.98 57.93
  A 5.52 5.24 -0.0 0 0 84.50 63.17
  L 100.15 63.17
  A 0.35 0.35 0.0 0 0 100.50 62.82
  Z"
/>
<path fill="#ffffff" d="
  M 20.19 14.68
  L 20.79 15.68
  Q 21.06 16.12 21.57 16.15
  Q 26.51 16.44 31.86 18.55
  L 28.45 21.87
  Q 19.79 22.50 10.75 22.29
  C 8.24 22.24 7.18 20.27 7.94 18.03
  A 2.46 2.46 0.0 0 1 10.61 16.38
  Q 16.47 17.20 20.19 14.68
  Z"
/>
<path fill="#ffffff" d="
  M 85.31 46.32
  C 68.90 46.34 69.00 69.13 85.03 69.17
  Q 92.52 69.18 99.92 69.15
  Q 100.59 69.15 100.56 69.81
  Q 100.33 75.84 100.27 82.27
  C 100.23 86.20 97.65 88.14 93.75 88.14
  Q 54.00 88.16 14.25 88.14
  C 8.57 88.13 7.40 84.55 7.43 79.66
  Q 7.56 53.48 7.47 28.27
  Q 7.47 27.62 8.07 27.84
  C 8.68 28.05 9.55 28.21 10.21 28.22
  Q 49.48 28.29 92.96 28.18
  C 97.74 28.17 100.60 30.29 100.53 35.22
  Q 100.45 40.92 100.52 45.72
  Q 100.53 46.36 99.89 46.35
  Q 92.45 46.32 85.31 46.32
  Z"
/>
<path fill="#ffffff" d="
  M 100.50 62.82
  A 0.35 0.35 0.0 0 1 100.15 63.17
  L 84.50 63.17
  A 5.52 5.24 -0.0 0 1 78.98 57.93
  L 78.98 57.57
  A 5.52 5.24 -0.0 0 1 84.50 52.33
  L 100.15 52.33
  A 0.35 0.35 0.0 0 1 100.50 52.68
  L 100.50 62.82
  Z"
/>
</svg>
