<?xml version="1.0" encoding="UTF-8" standalone="no"?>
<!DOCTYPE svg PUBLIC "-//W3C//DTD SVG 1.1//EN" "http://www.w3.org/Graphics/SVG/1.1/DTD/svg11.dtd">
<svg xmlns="http://www.w3.org/2000/svg" version="1.1" viewBox="0.00 0.00 1055.00 1987.00">
<g stroke-width="2.00" fill="none" stroke-linecap="butt">
<path stroke="#8db9d5" vector-effect="non-scaling-stroke" d="
  M 1033.13 1313.79
  Q 1030.17 1317.02 1030.62 1323.37
  Q 1030.86 1326.69 1032.70 1328.51"
/>
<path stroke="#8db9d5" vector-effect="non-scaling-stroke" d="
  M 1020.2380 412.2500
  A 1.72 1.50 90.4 0 0 1021.7500 410.5405
  A 1.72 1.50 90.4 0 0 1020.2620 408.8100
  A 1.72 1.50 90.4 0 0 1018.7500 410.5195
  A 1.72 1.50 90.4 0 0 1020.2380 412.2500"
/>
<path stroke="#8db9d5" vector-effect="non-scaling-stroke" d="
  M 34.2117 410.1599
  A 1.24 1.24 0.0 0 0 32.9460 408.9462
  L 32.5461 408.9545
  A 1.24 1.24 0.0 0 0 31.3324 410.2202
  L 31.3483 410.9801
  A 1.24 1.24 0.0 0 0 32.6140 412.1938
  L 33.0139 412.1855
  A 1.24 1.24 0.0 0 0 34.2276 410.9198
  L 34.2117 410.1599"
/>
<path stroke="#8db9d5" vector-effect="non-scaling-stroke" d="
  M 292.78 410.55
  A 1.36 1.36 0.0 0 0 291.42 409.19
  A 1.36 1.36 0.0 0 0 290.06 410.55
  A 1.36 1.36 0.0 0 0 291.42 411.91
  A 1.36 1.36 0.0 0 0 292.78 410.55"
/>
<path stroke="#8db9d5" vector-effect="non-scaling-stroke" d="
  M 385.4059 412.2296
  A 1.63 1.34 91.2 0 0 386.7797 410.6281
  A 1.63 1.34 91.2 0 0 385.4741 408.9704
  A 1.63 1.34 91.2 0 0 384.1003 410.5719
  A 1.63 1.34 91.2 0 0 385.4059 412.2296"
/>
<path stroke="#8db9d5" vector-effect="non-scaling-stroke" d="
  M 432.6768 412.0808
  A 1.52 1.25 83.7 0 0 433.7525 410.4328
  A 1.52 1.25 83.7 0 0 432.3432 409.0592
  A 1.52 1.25 83.7 0 0 431.2675 410.7072
  A 1.52 1.25 83.7 0 0 432.6768 412.0808"
/>
<path stroke="#8db9d5" vector-effect="non-scaling-stroke" d="
  M 479.5200 412.1800
  A 1.64 1.33 90.0 0 0 480.8500 410.5400
  A 1.64 1.33 90.0 0 0 479.5200 408.9000
  A 1.64 1.33 90.0 0 0 478.1900 410.5400
  A 1.64 1.33 90.0 0 0 479.5200 412.1800"
/>
<path stroke="#8db9d5" vector-effect="non-scaling-stroke" d="
  M 574.7593 410.1679
  A 1.09 1.09 0.0 0 0 573.6674 409.0798
  L 573.3874 409.0802
  A 1.09 1.09 0.0 0 0 572.2993 410.1721
  L 572.3007 410.9921
  A 1.09 1.09 0.0 0 0 573.3926 412.0802
  L 573.6726 412.0798
  A 1.09 1.09 0.0 0 0 574.7607 410.9879
  L 574.7593 410.1679"
/>
<path stroke="#8db9d5" vector-effect="non-scaling-stroke" d="
  M 56.3536 411.7000
  A 1.22 1.04 90.3 0 0 57.4000 410.4854
  A 1.22 1.04 90.3 0 0 56.3664 409.2600
  A 1.22 1.04 90.3 0 0 55.3200 410.4746
  A 1.22 1.04 90.3 0 0 56.3536 411.7000"
/>
<path stroke="#8db9d5" vector-effect="non-scaling-stroke" d="
  M 80.96 410.47
  A 1.12 1.12 0.0 0 0 79.84 409.35
  A 1.12 1.12 0.0 0 0 78.72 410.47
  A 1.12 1.12 0.0 0 0 79.84 411.59
  A 1.12 1.12 0.0 0 0 80.96 410.47"
/>
<path stroke="#8db9d5" vector-effect="non-scaling-stroke" d="
  M 104.55 410.53
  A 1.22 1.22 0.0 0 0 103.33 409.31
  A 1.22 1.22 0.0 0 0 102.11 410.53
  A 1.22 1.22 0.0 0 0 103.33 411.75
  A 1.22 1.22 0.0 0 0 104.55 410.53"
/>
<path stroke="#8db9d5" vector-effect="non-scaling-stroke" d="
  M 198.60 410.57
  A 1.28 1.28 0.0 0 0 197.32 409.29
  A 1.28 1.28 0.0 0 0 196.04 410.57
  A 1.28 1.28 0.0 0 0 197.32 411.85
  A 1.28 1.28 0.0 0 0 198.60 410.57"
/>
<path stroke="#8db9d5" vector-effect="non-scaling-stroke" d="
  M 243.79 409.59
  Q 243.19 410.18 243.51 411.10
  Q 243.67 411.59 244.18 411.71
  Q 245.09 411.92 245.40 411.03
  Q 245.70 410.21 245.07 409.58
  A 0.91 0.90 -45.2 0 0 243.79 409.59"
/>
<path stroke="#8db9d5" vector-effect="non-scaling-stroke" d="
  M 269.05 410.50
  A 1.08 1.08 0.0 0 0 267.97 409.42
  A 1.08 1.08 0.0 0 0 266.89 410.50
  A 1.08 1.08 0.0 0 0 267.97 411.58
  A 1.08 1.08 0.0 0 0 269.05 410.50"
/>
<path stroke="#8db9d5" vector-effect="non-scaling-stroke" d="
  M 338.6174 411.8705
  A 1.31 1.08 83.1 0 0 339.5322 410.4403
  A 1.31 1.08 83.1 0 0 338.3026 409.2695
  A 1.31 1.08 83.1 0 0 337.3878 410.6997
  A 1.31 1.08 83.1 0 0 338.6174 411.8705"
/>
<path stroke="#8db9d5" vector-effect="non-scaling-stroke" d="
  M 455.9349 411.6252
  A 1.16 0.96 95.2 0 0 456.9960 410.5570
  A 1.16 0.96 95.2 0 0 456.1451 409.3148
  A 1.16 0.96 95.2 0 0 455.0840 410.3830
  A 1.16 0.96 95.2 0 0 455.9349 411.6252"
/>
<path stroke="#8db9d5" vector-effect="non-scaling-stroke" d="
  M 526.6472 411.9960
  A 1.43 1.18 85.7 0 0 527.7167 410.4815
  A 1.43 1.18 85.7 0 0 526.4328 409.1440
  A 1.43 1.18 85.7 0 0 525.3633 410.6585
  A 1.43 1.18 85.7 0 0 526.6472 411.9960"
/>
<path stroke="#8db9d5" vector-effect="non-scaling-stroke" d="
  M 620.6803 411.9463
  A 1.37 1.18 85.8 0 0 621.7568 410.4936
  A 1.37 1.18 85.8 0 0 620.4797 409.2137
  A 1.37 1.18 85.8 0 0 619.4032 410.6664
  A 1.37 1.18 85.8 0 0 620.6803 411.9463"
/>
<path stroke="#8db9d5" vector-effect="non-scaling-stroke" d="
  M 644.0968 411.6592
  A 1.18 0.92 92.1 0 0 645.0594 410.5137
  A 1.18 0.92 92.1 0 0 644.1832 409.3008
  A 1.18 0.92 92.1 0 0 643.2206 410.4463
  A 1.18 0.92 92.1 0 0 644.0968 411.6592"
/>
<path stroke="#8db9d5" vector-effect="non-scaling-stroke" d="
  M 668.7517 410.2097
  A 1.02 1.02 0.0 0 0 667.7054 409.2168
  L 667.4255 409.2241
  A 1.02 1.02 0.0 0 0 666.4325 410.2705
  L 666.4483 410.8703
  A 1.02 1.02 0.0 0 0 667.4946 411.8632
  L 667.7745 411.8559
  A 1.02 1.02 0.0 0 0 668.7675 410.8095
  L 668.7517 410.2097"
/>
<path stroke="#8db9d5" vector-effect="non-scaling-stroke" d="
  M 761.3826 411.8292
  A 1.30 1.17 97.4 0 0 762.7103 410.6907
  A 1.30 1.17 97.4 0 0 761.7174 409.2508
  A 1.30 1.17 97.4 0 0 760.3897 410.3893
  A 1.30 1.17 97.4 0 0 761.3826 411.8292"
/>
<path stroke="#8db9d5" vector-effect="non-scaling-stroke" d="
  M 832.1892 411.6598
  A 1.19 0.92 91.0 0 0 833.1299 410.4861
  A 1.19 0.92 91.0 0 0 832.2308 409.2802
  A 1.19 0.92 91.0 0 0 831.2901 410.4539
  A 1.19 0.92 91.0 0 0 832.1892 411.6598"
/>
<path stroke="#8db9d5" vector-effect="non-scaling-stroke" d="
  M 855.5612 411.7954
  A 1.30 1.17 94.8 0 0 856.8359 410.5979
  A 1.30 1.17 94.8 0 0 855.7788 409.2046
  A 1.30 1.17 94.8 0 0 854.5041 410.4021
  A 1.30 1.17 94.8 0 0 855.5612 411.7954"
/>
<path stroke="#8db9d5" vector-effect="non-scaling-stroke" d="
  M 950.76 410.51
  A 1.10 1.10 0.0 0 0 949.66 409.41
  A 1.10 1.10 0.0 0 0 948.56 410.51
  A 1.10 1.10 0.0 0 0 949.66 411.61
  A 1.10 1.10 0.0 0 0 950.76 410.51"
/>
<path stroke="#8db9d5" vector-effect="non-scaling-stroke" d="
  M 150.84 409.57
  Q 150.52 409.38 150.16 409.45
  Q 149.52 409.57 149.47 410.25
  Q 149.43 410.72 149.58 411.15
  A 0.77 0.77 0.0 0 0 150.61 411.61
  Q 151.32 411.32 151.37 410.57
  A 1.09 1.07 -73.5 0 0 150.84 409.57"
/>
<path stroke="#8db9d5" vector-effect="non-scaling-stroke" d="
  M 173.22 411.29
  A 0.95 0.94 35.1 0 0 174.72 411.03
  Q 174.88 410.70 174.83 410.28
  Q 174.76 409.70 174.19 409.54
  Q 173.33 409.31 173.00 410.17
  Q 172.74 410.83 173.22 411.29"
/>
<path stroke="#8db9d5" vector-effect="non-scaling-stroke" d="
  M 362.82 411.04
  Q 363.21 410.39 362.65 409.77
  A 0.82 0.81 41.2 0 0 361.38 409.85
  Q 360.80 410.68 361.18 411.15
  A 1.00 1.00 0.0 0 0 362.82 411.04"
/>
<path stroke="#8db9d5" vector-effect="non-scaling-stroke" d="
  M 409.91 410.65
  A 1.05 1.05 0.0 0 0 408.86 409.60
  A 1.05 1.05 0.0 0 0 407.81 410.65
  A 1.05 1.05 0.0 0 0 408.86 411.70
  A 1.05 1.05 0.0 0 0 409.91 410.65"
/>
<path stroke="#8db9d5" vector-effect="non-scaling-stroke" d="
  M 504.02 410.63
  A 1.06 1.06 0.0 0 0 502.96 409.57
  A 1.06 1.06 0.0 0 0 501.90 410.63
  A 1.06 1.06 0.0 0 0 502.96 411.69
  A 1.06 1.06 0.0 0 0 504.02 410.63"
/>
<path stroke="#8db9d5" vector-effect="non-scaling-stroke" d="
  M 550.51 411.41
  Q 551.26 410.81 550.73 409.89
  A 0.78 0.77 -51.7 0 0 549.32 410.06
  Q 549.18 410.51 549.31 411.00
  A 0.75 0.75 0.0 0 0 550.51 411.41"
/>
<path stroke="#8db9d5" vector-effect="non-scaling-stroke" d="
  M 597.98 410.65
  A 1.04 1.04 0.0 0 0 596.94 409.61
  A 1.04 1.04 0.0 0 0 595.90 410.65
  A 1.04 1.04 0.0 0 0 596.94 411.69
  A 1.04 1.04 0.0 0 0 597.98 410.65"
/>
<path stroke="#8db9d5" vector-effect="non-scaling-stroke" d="
  M 692.13 410.64
  A 1.07 1.07 0.0 0 0 691.06 409.57
  A 1.07 1.07 0.0 0 0 689.99 410.64
  A 1.07 1.07 0.0 0 0 691.06 411.71
  A 1.07 1.07 0.0 0 0 692.13 410.64"
/>
<path stroke="#8db9d5" vector-effect="non-scaling-stroke" d="
  M 714.7815 411.7790
  A 1.19 1.03 82.2 0 0 715.6405 410.4602
  A 1.19 1.03 82.2 0 0 714.4585 409.4210
  A 1.19 1.03 82.2 0 0 713.5995 410.7398
  A 1.19 1.03 82.2 0 0 714.7815 411.7790"
/>
<path stroke="#8db9d5" vector-effect="non-scaling-stroke" d="
  M 738.2365 411.5899
  A 1.05 0.79 89.1 0 0 739.0099 410.5276
  A 1.05 0.79 89.1 0 0 738.2035 409.4901
  A 1.05 0.79 89.1 0 0 737.4301 410.5524
  A 1.05 0.79 89.1 0 0 738.2365 411.5899"
/>
<path stroke="#8db9d5" vector-effect="non-scaling-stroke" d="
  M 786.00 410.63
  A 1.00 1.00 0.0 0 0 785.00 409.63
  A 1.00 1.00 0.0 0 0 784.00 410.63
  A 1.00 1.00 0.0 0 0 785.00 411.63
  A 1.00 1.00 0.0 0 0 786.00 410.63"
/>
<path stroke="#8db9d5" vector-effect="non-scaling-stroke" d="
  M 809.75 410.59
  A 1.15 1.15 0.0 0 0 808.60 409.44
  A 1.15 1.15 0.0 0 0 807.45 410.59
  A 1.15 1.15 0.0 0 0 808.60 411.74
  A 1.15 1.15 0.0 0 0 809.75 410.59"
/>
<path stroke="#8db9d5" vector-effect="non-scaling-stroke" d="
  M 880.20 410.60
  A 1.08 1.08 0.0 0 0 879.12 409.52
  A 1.08 1.08 0.0 0 0 878.04 410.60
  A 1.08 1.08 0.0 0 0 879.12 411.68
  A 1.08 1.08 0.0 0 0 880.20 410.60"
/>
<path stroke="#8db9d5" vector-effect="non-scaling-stroke" d="
  M 902.8483 411.7260
  A 1.14 1.01 81.0 0 0 903.6676 410.4420
  A 1.14 1.01 81.0 0 0 902.4917 409.4740
  A 1.14 1.01 81.0 0 0 901.6724 410.7580
  A 1.14 1.01 81.0 0 0 902.8483 411.7260"
/>
<path stroke="#8db9d5" vector-effect="non-scaling-stroke" d="
  M 926.2738 411.6300
  A 1.08 0.83 89.8 0 0 927.1000 410.5471
  A 1.08 0.83 89.8 0 0 926.2662 409.4700
  A 1.08 0.83 89.8 0 0 925.4400 410.5529
  A 1.08 0.83 89.8 0 0 926.2738 411.6300"
/>
<path stroke="#8db9d5" vector-effect="non-scaling-stroke" d="
  M 974.15 410.60
  A 1.05 1.05 0.0 0 0 973.10 409.55
  A 1.05 1.05 0.0 0 0 972.05 410.60
  A 1.05 1.05 0.0 0 0 973.10 411.65
  A 1.05 1.05 0.0 0 0 974.15 410.60"
/>
<path stroke="#8db9d5" vector-effect="non-scaling-stroke" d="
  M 996.7302 411.7579
  A 1.15 1.02 86.5 0 0 997.6781 410.5477
  A 1.15 1.02 86.5 0 0 996.5898 409.4621
  A 1.15 1.02 86.5 0 0 995.6419 410.6723
  A 1.15 1.02 86.5 0 0 996.7302 411.7579"
/>
<path stroke="#8db9d5" vector-effect="non-scaling-stroke" d="
  M 125.91 410.40
  Q 125.77 411.20 126.47 411.57
  A 0.88 0.88 0.0 0 0 127.74 411.02
  Q 127.90 410.38 127.41 409.91
  A 0.89 0.89 0.0 0 0 125.91 410.40"
/>
<path stroke="#8db9d5" vector-effect="non-scaling-stroke" d="
  M 221.80 410.69
  A 1.00 1.00 0.0 0 0 220.80 409.69
  A 1.00 1.00 0.0 0 0 219.80 410.69
  A 1.00 1.00 0.0 0 0 220.80 411.69
  A 1.00 1.00 0.0 0 0 221.80 410.69"
/>
<path stroke="#8db9d5" vector-effect="non-scaling-stroke" d="
  M 315.93 410.69
  A 1.03 1.03 0.0 0 0 314.90 409.66
  A 1.03 1.03 0.0 0 0 313.87 410.69
  A 1.03 1.03 0.0 0 0 314.90 411.72
  A 1.03 1.03 0.0 0 0 315.93 410.69"
/>
<path stroke="#8db9d5" vector-effect="non-scaling-stroke" d="
  M 34.2027 1321.2474
  A 1.03 1.03 0.0 0 0 33.1781 1320.2121
  L 32.3981 1320.2080
  A 1.03 1.03 0.0 0 0 31.3627 1321.2326
  L 31.3573 1322.2726
  A 1.03 1.03 0.0 0 0 32.3819 1323.3079
  L 33.1619 1323.3120
  A 1.03 1.03 0.0 0 0 34.1973 1322.2874
  L 34.2027 1321.2474"
/>
<path stroke="#8db9d5" vector-effect="non-scaling-stroke" d="
  M 339.5797 1321.3073
  A 1.03 1.03 0.0 0 0 338.4655 1320.3691
  L 338.0868 1320.4015
  A 1.03 1.03 0.0 0 0 337.1486 1321.5157
  L 337.2203 1322.3527
  A 1.03 1.03 0.0 0 0 338.3345 1323.2909
  L 338.7132 1323.2585
  A 1.03 1.03 0.0 0 0 339.6514 1322.1443
  L 339.5797 1321.3073"
/>
<path stroke="#8db9d5" vector-effect="non-scaling-stroke" d="
  M 386.6645 1321.1696
  A 0.93 0.93 0.0 0 0 385.7120 1320.2626
  L 385.0722 1320.2783
  A 0.93 0.93 0.0 0 0 384.1652 1321.2307
  L 384.1955 1322.4704
  A 0.93 0.93 0.0 0 0 385.1480 1323.3774
  L 385.7878 1323.3617
  A 0.93 0.93 0.0 0 0 386.6948 1322.4093
  L 386.6645 1321.1696"
/>
<path stroke="#8db9d5" vector-effect="non-scaling-stroke" d="
  M 433.8804 1321.1619
  A 0.90 0.90 0.0 0 0 432.9946 1320.2479
  L 432.0147 1320.2325
  A 0.90 0.90 0.0 0 0 431.1007 1321.1182
  L 431.0796 1322.4581
  A 0.90 0.90 0.0 0 0 431.9654 1323.3721
  L 432.9453 1323.3875
  A 0.90 0.90 0.0 0 0 433.8593 1322.5018
  L 433.8804 1321.1619"
/>
<path stroke="#8db9d5" vector-effect="non-scaling-stroke" d="
  M 480.7235 1321.1460
  A 0.94 0.94 0.0 0 0 479.7434 1320.2479
  L 479.1240 1320.2750
  A 0.94 0.94 0.0 0 0 478.2259 1321.2551
  L 478.2765 1322.4140
  A 0.94 0.94 0.0 0 0 479.2566 1323.3121
  L 479.8760 1323.2850
  A 0.94 0.94 0.0 0 0 480.7741 1322.3049
  L 480.7235 1321.1460"
/>
<path stroke="#8db9d5" vector-effect="non-scaling-stroke" d="
  M 527.81 1321.17
  A 0.91 0.91 0.0 0 0 526.90 1320.26
  L 526.08 1320.26
  A 0.91 0.91 0.0 0 0 525.17 1321.17
  L 525.17 1322.45
  A 0.91 0.91 0.0 0 0 526.08 1323.36
  L 526.90 1323.36
  A 0.91 0.91 0.0 0 0 527.81 1322.45
  L 527.81 1321.17"
/>
<path stroke="#8db9d5" vector-effect="non-scaling-stroke" d="
  M 574.8097 1321.2002
  A 0.95 0.95 0.0 0 0 573.8748 1320.2354
  L 573.2149 1320.2250
  A 0.95 0.95 0.0 0 0 572.2501 1321.1600
  L 572.2303 1322.4198
  A 0.95 0.95 0.0 0 0 573.1652 1323.3846
  L 573.8251 1323.3950
  A 0.95 0.95 0.0 0 0 574.7899 1322.4600
  L 574.8097 1321.2002"
/>
<path stroke="#8db9d5" vector-effect="non-scaling-stroke" d="
  M 620.7737 1323.3828
  A 1.60 1.38 81.6 0 0 621.9052 1321.5984
  A 1.60 1.38 81.6 0 0 620.3063 1320.2172
  A 1.60 1.38 81.6 0 0 619.1748 1322.0016
  A 1.60 1.38 81.6 0 0 620.7737 1323.3828"
/>
<path stroke="#8db9d5" vector-effect="non-scaling-stroke" d="
  M 1021.6450 1321.1921
  A 0.95 0.95 0.0 0 0 1020.7033 1320.2338
  L 1019.8434 1320.2263
  A 0.95 0.95 0.0 0 0 1018.8851 1321.1680
  L 1018.8750 1322.3279
  A 0.95 0.95 0.0 0 0 1019.8167 1323.2862
  L 1020.6766 1323.2937
  A 0.95 0.95 0.0 0 0 1021.6349 1322.3520
  L 1021.6450 1321.1921"
/>
<path stroke="#8db9d5" vector-effect="non-scaling-stroke" d="
  M 56.5478 1323.0433
  A 1.30 1.14 80.8 0 0 57.4653 1321.5777
  A 1.30 1.14 80.8 0 0 56.1322 1320.4767
  A 1.30 1.14 80.8 0 0 55.2147 1321.9423
  A 1.30 1.14 80.8 0 0 56.5478 1323.0433"
/>
<path stroke="#8db9d5" vector-effect="non-scaling-stroke" d="
  M 103.2847 1322.9597
  A 1.21 1.07 91.2 0 0 104.3798 1321.7724
  A 1.21 1.07 91.2 0 0 103.3353 1320.5403
  A 1.21 1.07 91.2 0 0 102.2402 1321.7276
  A 1.21 1.07 91.2 0 0 103.2847 1322.9597"
/>
<path stroke="#8db9d5" vector-effect="non-scaling-stroke" d="
  M 150.4899 1323.1681
  A 1.36 1.15 82.4 0 0 151.4499 1321.6679
  A 1.36 1.15 82.4 0 0 150.1301 1320.4719
  A 1.36 1.15 82.4 0 0 149.1701 1321.9721
  A 1.36 1.15 82.4 0 0 150.4899 1323.1681"
/>
<path stroke="#8db9d5" vector-effect="non-scaling-stroke" d="
  M 174.2770 1322.8238
  A 1.17 1.00 65.4 0 0 174.6992 1321.3437
  A 1.17 1.00 65.4 0 0 173.3030 1320.6962
  A 1.17 1.00 65.4 0 0 172.8808 1322.1763
  A 1.17 1.00 65.4 0 0 174.2770 1322.8238"
/>
<path stroke="#8db9d5" vector-effect="non-scaling-stroke" d="
  M 197.3225 1323.2500
  A 1.46 1.21 89.9 0 0 198.5300 1321.7879
  A 1.46 1.21 89.9 0 0 197.3175 1320.3300
  A 1.46 1.21 89.9 0 0 196.1100 1321.7921
  A 1.46 1.21 89.9 0 0 197.3225 1323.2500"
/>
<path stroke="#8db9d5" vector-effect="non-scaling-stroke" d="
  M 244.6939 1323.1831
  A 1.41 1.20 78.8 0 0 245.5971 1321.5669
  A 1.41 1.20 78.8 0 0 244.1461 1320.4169
  A 1.41 1.20 78.8 0 0 243.2429 1322.0331
  A 1.41 1.20 78.8 0 0 244.6939 1323.1831"
/>
<path stroke="#8db9d5" vector-effect="non-scaling-stroke" d="
  M 291.5781 1323.1240
  A 1.36 1.19 81.2 0 0 292.5460 1321.5979
  A 1.36 1.19 81.2 0 0 291.1619 1320.4360
  A 1.36 1.19 81.2 0 0 290.1940 1321.9621
  A 1.36 1.19 81.2 0 0 291.5781 1323.1240"
/>
<path stroke="#8db9d5" vector-effect="non-scaling-stroke" d="
  M 410.02 1321.78
  A 1.14 1.14 0.0 0 0 408.88 1320.64
  A 1.14 1.14 0.0 0 0 407.74 1321.78
  A 1.14 1.14 0.0 0 0 408.88 1322.92
  A 1.14 1.14 0.0 0 0 410.02 1321.78"
/>
<path stroke="#8db9d5" vector-effect="non-scaling-stroke" d="
  M 597.3034 1322.9860
  A 1.25 1.10 73.1 0 0 597.9925 1321.4702
  A 1.25 1.10 73.1 0 0 596.5766 1320.5940
  A 1.25 1.10 73.1 0 0 595.8875 1322.1098
  A 1.25 1.10 73.1 0 0 597.3034 1322.9860"
/>
<path stroke="#8db9d5" vector-effect="non-scaling-stroke" d="
  M 644.3126 1322.8717
  A 1.14 0.99 77.2 0 0 645.0254 1321.5407
  A 1.14 0.99 77.2 0 0 643.8074 1320.6483
  A 1.14 0.99 77.2 0 0 643.0946 1321.9793
  A 1.14 0.99 77.2 0 0 644.3126 1322.8717"
/>
<path stroke="#8db9d5" vector-effect="non-scaling-stroke" d="
  M 667.7137 1323.1535
  A 1.37 1.17 84.4 0 0 668.7444 1321.6758
  A 1.37 1.17 84.4 0 0 667.4463 1320.4265
  A 1.37 1.17 84.4 0 0 666.4156 1321.9042
  A 1.37 1.17 84.4 0 0 667.7137 1323.1535"
/>
<path stroke="#8db9d5" vector-effect="non-scaling-stroke" d="
  M 714.6366 1323.2259
  A 1.39 1.20 85.6 0 0 715.7265 1321.7479
  A 1.39 1.20 85.6 0 0 714.4234 1320.4541
  A 1.39 1.20 85.6 0 0 713.3335 1321.9321
  A 1.39 1.20 85.6 0 0 714.6366 1323.2259"
/>
<path stroke="#8db9d5" vector-effect="non-scaling-stroke" d="
  M 761.7005 1323.2621
  A 1.44 1.20 84.0 0 0 762.7434 1321.7046
  A 1.44 1.20 84.0 0 0 761.3995 1320.3979
  A 1.44 1.20 84.0 0 0 760.3566 1321.9554
  A 1.44 1.20 84.0 0 0 761.7005 1323.2621"
/>
<path stroke="#8db9d5" vector-effect="non-scaling-stroke" d="
  M 785.2774 1322.9442
  A 1.20 1.10 78.1 0 0 786.1064 1321.5432
  A 1.20 1.10 78.1 0 0 784.7826 1320.5958
  A 1.20 1.10 78.1 0 0 783.9536 1321.9968
  A 1.20 1.10 78.1 0 0 785.2774 1322.9442"
/>
<path stroke="#8db9d5" vector-effect="non-scaling-stroke" d="
  M 809.8314 1321.4442
  A 0.97 0.97 0.0 0 0 808.8648 1320.4708
  L 808.4048 1320.4692
  A 0.97 0.97 0.0 0 0 807.4314 1321.4358
  L 807.4286 1322.2358
  A 0.97 0.97 0.0 0 0 808.3952 1323.2092
  L 808.8552 1323.2108
  A 0.97 0.97 0.0 0 0 809.8286 1322.2442
  L 809.8314 1321.4442"
/>
<path stroke="#8db9d5" vector-effect="non-scaling-stroke" d="
  M 832.4132 1322.9067
  A 1.18 1.04 78.6 0 0 833.1995 1321.5444
  A 1.18 1.04 78.6 0 0 831.9468 1320.5933
  A 1.18 1.04 78.6 0 0 831.1605 1321.9556
  A 1.18 1.04 78.6 0 0 832.4132 1322.9067"
/>
<path stroke="#8db9d5" vector-effect="non-scaling-stroke" d="
  M 856.0421 1322.9402
  A 1.25 1.11 72.2 0 0 856.7169 1321.4107
  A 1.25 1.11 72.2 0 0 855.2779 1320.5598
  A 1.25 1.11 72.2 0 0 854.6031 1322.0893
  A 1.25 1.11 72.2 0 0 856.0421 1322.9402"
/>
<path stroke="#8db9d5" vector-effect="non-scaling-stroke" d="
  M 902.65 1323.13
  Q 903.23 1323.00 903.57 1322.54
  A 1.22 1.22 0.0 0 0 903.07 1320.69
  Q 902.48 1320.44 901.94 1320.73
  Q 901.50 1320.97 901.47 1321.50
  Q 901.42 1322.28 901.84 1322.84
  A 0.81 0.80 -24.9 0 0 902.65 1323.13"
/>
<path stroke="#8db9d5" vector-effect="non-scaling-stroke" d="
  M 926.3029 1322.9789
  A 1.20 1.00 82.2 0 0 927.1307 1321.6543
  A 1.20 1.00 82.2 0 0 925.9771 1320.6011
  A 1.20 1.00 82.2 0 0 925.1493 1321.9257
  A 1.20 1.00 82.2 0 0 926.3029 1322.9789"
/>
<path stroke="#8db9d5" vector-effect="non-scaling-stroke" d="
  M 949.9053 1322.9767
  A 1.24 1.07 76.7 0 0 950.6613 1321.5238
  A 1.24 1.07 76.7 0 0 949.3347 1320.5633
  A 1.24 1.07 76.7 0 0 948.5787 1322.0162
  A 1.24 1.07 76.7 0 0 949.9053 1322.9767"
/>
<path stroke="#8db9d5" vector-effect="non-scaling-stroke" d="
  M 973.03 1320.61
  A 0.79 0.78 -78.2 0 0 972.12 1321.21
  Q 971.93 1322.07 972.47 1322.69
  A 0.87 0.87 0.0 0 0 973.85 1322.57
  Q 974.88 1320.94 973.03 1320.61"
/>
<path stroke="#8db9d5" vector-effect="non-scaling-stroke" d="
  M 997.88 1321.78
  A 1.21 1.21 0.0 0 0 996.67 1320.57
  A 1.21 1.21 0.0 0 0 995.46 1321.78
  A 1.21 1.21 0.0 0 0 996.67 1322.99
  A 1.21 1.21 0.0 0 0 997.88 1321.78"
/>
<path stroke="#8db9d5" vector-effect="non-scaling-stroke" d="
  M 79.99 1320.76
  L 79.25 1320.78
  Q 78.85 1320.80 78.79 1321.20
  Q 78.66 1322.08 79.28 1322.61
  A 0.92 0.91 -57.8 0 0 80.71 1322.28
  Q 80.86 1321.96 80.83 1321.52
  Q 80.77 1320.74 79.99 1320.76"
/>
<path stroke="#8db9d5" vector-effect="non-scaling-stroke" d="
  M 127.85 1321.79
  A 1.06 1.06 0.0 0 0 126.79 1320.73
  A 1.06 1.06 0.0 0 0 125.73 1321.79
  A 1.06 1.06 0.0 0 0 126.79 1322.85
  A 1.06 1.06 0.0 0 0 127.85 1321.79"
/>
<path stroke="#8db9d5" vector-effect="non-scaling-stroke" d="
  M 221.90 1321.79
  A 1.10 1.10 0.0 0 0 220.80 1320.69
  A 1.10 1.10 0.0 0 0 219.70 1321.79
  A 1.10 1.10 0.0 0 0 220.80 1322.89
  A 1.10 1.10 0.0 0 0 221.90 1321.79"
/>
<path stroke="#8db9d5" vector-effect="non-scaling-stroke" d="
  M 268.70 1321.16
  A 0.94 0.93 -55.0 0 0 266.95 1321.47
  Q 266.87 1322.05 267.26 1322.50
  A 0.90 0.90 0.0 0 0 268.76 1322.26
  Q 268.99 1321.71 268.70 1321.16"
/>
<path stroke="#8db9d5" vector-effect="non-scaling-stroke" d="
  M 315.94 1321.83
  A 1.04 1.04 0.0 0 0 314.90 1320.79
  A 1.04 1.04 0.0 0 0 313.86 1321.83
  A 1.04 1.04 0.0 0 0 314.90 1322.87
  A 1.04 1.04 0.0 0 0 315.94 1321.83"
/>
<path stroke="#8db9d5" vector-effect="non-scaling-stroke" d="
  M 362.3324 1322.8813
  A 1.18 0.98 66.4 0 0 362.7580 1321.4077
  A 1.18 0.98 66.4 0 0 361.3876 1320.7187
  A 1.18 0.98 66.4 0 0 360.9620 1322.1923
  A 1.18 0.98 66.4 0 0 362.3324 1322.8813"
/>
<path stroke="#8db9d5" vector-effect="non-scaling-stroke" d="
  M 456.4958 1322.7489
  A 1.12 1.01 62.0 0 0 456.8618 1321.2858
  A 1.12 1.01 62.0 0 0 455.4442 1320.7711
  A 1.12 1.01 62.0 0 0 455.0782 1322.2342
  A 1.12 1.01 62.0 0 0 456.4958 1322.7489"
/>
<path stroke="#8db9d5" vector-effect="non-scaling-stroke" d="
  M 504.05 1321.80
  A 1.08 1.08 0.0 0 0 502.97 1320.72
  A 1.08 1.08 0.0 0 0 501.89 1321.80
  A 1.08 1.08 0.0 0 0 502.97 1322.88
  A 1.08 1.08 0.0 0 0 504.05 1321.80"
/>
<path stroke="#8db9d5" vector-effect="non-scaling-stroke" d="
  M 550.80 1321.19
  Q 550.38 1320.52 549.55 1320.72
  Q 548.94 1320.87 548.92 1321.49
  Q 548.89 1322.30 549.45 1322.77
  A 0.84 0.83 44.1 0 0 550.55 1322.76
  Q 551.34 1322.05 550.80 1321.19"
/>
<path stroke="#8db9d5" vector-effect="non-scaling-stroke" d="
  M 691.63 1320.99
  Q 691.25 1320.75 690.78 1320.77
  Q 690.28 1320.80 690.14 1321.28
  Q 689.95 1322.01 690.37 1322.60
  Q 690.62 1322.97 691.07 1322.91
  Q 691.78 1322.81 692.02 1322.07
  A 0.95 0.93 -65.5 0 0 691.63 1320.99"
/>
<path stroke="#8db9d5" vector-effect="non-scaling-stroke" d="
  M 738.85 1321.16
  Q 738.40 1320.67 737.80 1320.76
  Q 737.17 1320.86 737.12 1321.51
  Q 737.07 1322.06 737.32 1322.52
  A 0.80 0.79 -26.2 0 0 738.36 1322.87
  Q 739.00 1322.57 739.06 1321.81
  A 0.85 0.84 27.4 0 0 738.85 1321.16"
/>
<path stroke="#8db9d5" vector-effect="non-scaling-stroke" d="
  M 878.20 1321.40
  Q 878.17 1322.01 878.43 1322.53
  A 0.71 0.71 0.0 0 0 879.39 1322.84
  Q 880.05 1322.50 880.15 1321.82
  Q 880.25 1321.13 879.59 1320.87
  Q 879.26 1320.74 878.90 1320.74
  Q 878.23 1320.73 878.20 1321.40"
/>
</g>
<path fill="#ffffff" d="
  M 1033.13 1313.79
  Q 1030.17 1317.02 1030.62 1323.37
  Q 1030.86 1326.69 1032.70 1328.51
  Q 1035.70 1332.72 1040.23 1334.82
  C 1041.51 1335.41 1042.96 1335.28 1044.31 1335.56
  Q 1045.54 1335.82 1045.59 1337.08
  C 1046.01 1348.35 1045.37 1359.35 1045.56 1370.41
  C 1045.71 1378.87 1045.38 1386.94 1045.81 1395.62
  Q 1046.08 1401.06 1045.72 1407.38
  C 1045.25 1415.55 1046.22 1423.25 1045.70 1431.40
  Q 1045.33 1437.24 1045.73 1442.92
  C 1046.17 1449.29 1045.49 1455.82 1045.49 1462.34
  Q 1045.51 1502.79 1045.52 1542.97
  C 1045.52 1544.92 1045.84 1546.88 1045.85 1548.84
  Q 1045.91 1625.14 1045.87 1709.27
  C 1045.87 1712.46 1045.19 1715.48 1045.19 1718.59
  Q 1045.15 1843.88 1045.23 1962.55
  C 1045.24 1971.01 1038.93 1978.60 1031.65 1981.77
  Q 1028.65 1983.08 1023.92 1983.08
  Q 762.07 1982.94 500.31 1983.07
  C 493.60 1983.08 486.93 1983.27 480.12 1982.99
  Q 477.75 1982.89 475.55 1983.46
  Q 467.53 1985.57 460.06 1983.73
  Q 457.69 1983.15 455.72 1983.10
  Q 449.76 1982.93 442.47 1983.05
  C 439.86 1983.10 437.78 1984.48 435.29 1984.47
  Q 432.73 1984.45 430.05 1984.86
  C 426.84 1985.36 424.08 1983.14 420.68 1983.14
  Q 362.69 1983.21 306.05 1983.15
  Q 302.72 1983.14 299.79 1983.91
  Q 293.36 1985.61 286.37 1984.53
  Q 282.69 1983.97 278.79 1983.94
  Q 268.95 1983.86 259.44 1983.82
  C 257.10 1983.81 255.08 1983.03 252.79 1983.02
  Q 228.32 1983.02 203.86 1983.03
  C 201.62 1983.03 199.49 1983.82 197.12 1983.83
  Q 176.86 1983.90 157.43 1983.91
  C 154.20 1983.91 150.88 1983.31 147.85 1983.57
  Q 142.03 1984.05 136.34 1983.80
  Q 130.48 1983.53 124.67 1983.70
  Q 110.37 1984.09 96.64 1983.81
  Q 94.74 1983.77 92.83 1983.36
  C 90.02 1982.75 87.49 1983.69 84.69 1983.70
  C 82.83 1983.70 81.16 1984.11 79.32 1984.13
  Q 59.15 1984.28 35.23 1984.21
  Q 33.08 1984.20 31.18 1983.60
  C 28.15 1982.64 25.85 1984.08 22.83 1983.39
  C 20.92 1982.96 19.03 1982.96 17.16 1982.33
  C 9.58 1979.78 1.98 1971.80 1.98 1963.12
  Q 2.02 1855.88 1.99 1749.84
  Q 1.99 1746.95 1.43 1744.01
  C 0.78 1740.60 2.01 1737.43 2.01 1734.00
  Q 2.01 1728.24 1.91 1722.51
  C 1.70 1711.00 2.10 1699.50 1.95 1687.94
  Q 1.93 1685.97 1.62 1684.17
  C 1.27 1682.14 1.98 1680.26 1.94 1678.23
  Q 1.84 1673.67 1.57 1669.45
  Q 1.33 1665.65 1.77 1662.27
  Q 2.50 1656.76 1.62 1652.12
  C 0.82 1647.92 1.94 1644.72 2.00 1640.67
  Q 2.12 1633.50 1.88 1627.17
  C 1.64 1621.19 2.40 1615.13 1.80 1609.48
  Q 1.45 1606.27 1.82 1603.09
  Q 2.34 1598.69 1.39 1593.91
  C 0.97 1591.80 2.06 1590.02 2.01 1587.89
  Q 1.89 1582.98 1.55 1578.09
  Q 1.20 1573.13 1.70 1568.35
  Q 2.38 1561.81 1.80 1555.92
  Q 1.53 1553.14 1.77 1550.93
  Q 1.91 1549.58 1.93 1548.29
  Q 2.11 1535.90 1.89 1522.77
  C 1.78 1515.86 2.04 1508.75 2.02 1501.66
  Q 2.02 1499.19 1.55 1496.96
  C 1.06 1494.62 2.06 1492.48 2.02 1490.09
  C 1.95 1486.37 2.44 1482.03 1.52 1478.37
  C 0.97 1476.19 2.06 1474.21 2.03 1471.94
  C 1.98 1467.63 2.33 1462.89 1.77 1458.58
  Q 1.51 1456.58 1.73 1454.51
  Q 2.40 1448.25 1.51 1440.17
  C 1.25 1437.78 1.98 1435.67 1.98 1433.35
  Q 1.99 1413.00 2.01 1388.31
  Q 2.01 1386.23 1.51 1384.29
  Q 1.12 1382.79 1.60 1381.11
  C 2.39 1378.38 1.98 1374.83 1.98 1371.93
  Q 1.99 1369.53 1.80 1367.11
  Q 1.60 1364.45 1.86 1361.27
  Q 2.32 1355.76 1.79 1350.34
  Q 1.42 1346.66 1.81 1343.36
  Q 2.22 1339.83 1.94 1336.32
  Q 1.89 1335.59 2.62 1335.58
  Q 9.01 1335.51 13.66 1329.60
  C 18.35 1323.64 17.38 1316.70 11.89 1311.83
  C 9.19 1309.44 6.50 1307.73 2.77 1307.93
  A 0.73 0.73 0.0 0 1 1.99 1307.20
  L 1.99 425.45
  Q 1.99 424.58 2.86 424.51
  Q 11.72 423.70 15.39 414.64
  Q 16.51 411.88 16.13 409.37
  C 15.16 403.02 9.57 396.23 2.77 396.77
  Q 2.15 396.82 2.08 396.20
  C 1.58 391.50 2.00 387.14 2.00 382.58
  C 1.99 374.94 2.38 366.81 1.85 359.00
  C 1.69 356.73 2.01 354.44 2.01 352.15
  Q 1.97 285.51 2.00 218.67
  Q 2.00 214.74 1.86 210.84
  C 1.73 207.26 2.01 203.69 2.01 200.10
  Q 1.95 149.33 2.01 98.59
  Q 2.01 95.73 1.82 92.92
  C 1.65 90.54 1.99 88.24 1.99 85.84
  Q 2.00 53.20 1.98 21.54
  C 1.98 13.95 8.91 5.97 15.93 3.15
  Q 18.95 1.94 23.70 1.94
  Q 94.03 1.99 162.20 2.01
  Q 164.77 2.01 167.32 1.82
  C 169.73 1.65 172.10 2.01 174.50 2.01
  Q 318.04 1.99 461.35 1.99
  C 463.06 1.99 464.73 1.70 466.46 1.69
  Q 481.46 1.54 495.53 1.65
  C 497.91 1.67 500.25 2.00 502.63 2.00
  Q 595.49 1.98 688.56 1.99
  Q 691.52 1.99 694.54 1.73
  C 697.32 1.48 700.05 2.02 702.85 2.01
  C 712.91 1.98 723.43 2.33 733.88 1.92
  Q 736.92 1.80 739.97 1.90
  Q 748.47 2.18 757.32 1.90
  C 764.31 1.69 771.30 2.23 778.26 1.91
  C 781.62 1.75 784.75 1.93 788.00 1.93
  Q 879.36 2.08 970.75 1.94
  C 974.76 1.94 978.65 1.78 982.75 1.75
  Q 1003.98 1.64 1026.34 1.89
  C 1028.75 1.92 1032.30 3.30 1034.40 4.67
  Q 1041.82 9.52 1044.33 16.68
  Q 1045.86 21.03 1045.84 30.52
  Q 1045.63 116.20 1045.86 201.51
  Q 1045.87 205.03 1045.96 208.34
  C 1046.06 211.67 1045.71 214.95 1045.72 218.29
  Q 1045.81 274.29 1045.71 330.26
  Q 1045.70 339.83 1045.54 350.26
  Q 1045.21 371.97 1045.50 395.82
  A 0.83 0.82 87.4 0 1 1044.74 396.66
  Q 1034.33 397.51 1031.15 408.33
  Q 1030.58 410.28 1031.03 412.06
  Q 1033.83 423.16 1044.19 424.48
  A 1.38 1.37 3.6 0 1 1045.40 425.84
  L 1045.36 697.13
  Q 1045.36 697.52 1045.76 697.52
  L 1052.59 697.55
  A 0.54 0.54 0.0 0 1 1053.12 698.09
  L 1053.12 715.70
  Q 1053.12 716.27 1052.55 716.27
  L 1046.25 716.26
  Q 1045.36 716.26 1045.36 717.15
  Q 1045.35 752.57 1045.43 791.17
  Q 1045.44 794.28 1045.62 797.41
  C 1045.78 800.15 1045.41 802.94 1045.41 805.71
  Q 1045.36 852.05 1045.45 899.33
  Q 1045.45 904.11 1045.71 909.14
  C 1045.94 913.87 1045.35 918.54 1045.53 923.30
  C 1045.78 929.60 1046.08 936.03 1045.73 942.32
  C 1045.55 945.31 1045.86 948.23 1045.82 951.23
  Q 1045.73 960.24 1045.55 969.24
  C 1045.53 970.25 1045.85 971.26 1045.78 972.27
  Q 1045.35 978.05 1045.58 983.63
  Q 1045.80 989.13 1045.78 994.92
  Q 1045.74 1014.14 1045.71 1030.75
  Q 1045.71 1032.96 1045.71 1035.50
  Q 1045.72 1050.07 1045.87 1065.35
  Q 1045.91 1069.93 1045.61 1074.42
  C 1045.35 1078.43 1045.83 1082.33 1045.77 1086.39
  Q 1045.63 1097.01 1045.44 1107.37
  C 1045.36 1111.21 1045.74 1115.10 1045.75 1119.00
  Q 1045.83 1146.80 1045.86 1175.42
  C 1045.86 1179.97 1045.54 1184.38 1045.68 1189.00
  Q 1045.89 1196.25 1045.65 1203.34
  C 1045.36 1211.74 1046.16 1220.37 1045.74 1229.03
  Q 1045.53 1233.42 1045.69 1238.04
  Q 1045.97 1245.73 1045.51 1254.74
  C 1045.31 1258.55 1045.87 1262.36 1045.79 1266.01
  Q 1045.31 1288.50 1045.50 1307.30
  Q 1045.51 1307.79 1045.02 1307.81
  Q 1041.45 1307.94 1040.05 1308.54
  Q 1037.69 1309.56 1033.13 1313.79
  Z
  M 1020.2380 412.2500
  A 1.72 1.50 90.4 0 0 1021.7500 410.5405
  A 1.72 1.50 90.4 0 0 1020.2620 408.8100
  A 1.72 1.50 90.4 0 0 1018.7500 410.5195
  A 1.72 1.50 90.4 0 0 1020.2380 412.2500
  Z
  M 34.2117 410.1599
  A 1.24 1.24 0.0 0 0 32.9460 408.9462
  L 32.5461 408.9545
  A 1.24 1.24 0.0 0 0 31.3324 410.2202
  L 31.3483 410.9801
  A 1.24 1.24 0.0 0 0 32.6140 412.1938
  L 33.0139 412.1855
  A 1.24 1.24 0.0 0 0 34.2276 410.9198
  L 34.2117 410.1599
  Z
  M 292.78 410.55
  A 1.36 1.36 0.0 0 0 291.42 409.19
  A 1.36 1.36 0.0 0 0 290.06 410.55
  A 1.36 1.36 0.0 0 0 291.42 411.91
  A 1.36 1.36 0.0 0 0 292.78 410.55
  Z
  M 385.4059 412.2296
  A 1.63 1.34 91.2 0 0 386.7797 410.6281
  A 1.63 1.34 91.2 0 0 385.4741 408.9704
  A 1.63 1.34 91.2 0 0 384.1003 410.5719
  A 1.63 1.34 91.2 0 0 385.4059 412.2296
  Z
  M 432.6768 412.0808
  A 1.52 1.25 83.7 0 0 433.7525 410.4328
  A 1.52 1.25 83.7 0 0 432.3432 409.0592
  A 1.52 1.25 83.7 0 0 431.2675 410.7072
  A 1.52 1.25 83.7 0 0 432.6768 412.0808
  Z
  M 479.5200 412.1800
  A 1.64 1.33 90.0 0 0 480.8500 410.5400
  A 1.64 1.33 90.0 0 0 479.5200 408.9000
  A 1.64 1.33 90.0 0 0 478.1900 410.5400
  A 1.64 1.33 90.0 0 0 479.5200 412.1800
  Z
  M 574.7593 410.1679
  A 1.09 1.09 0.0 0 0 573.6674 409.0798
  L 573.3874 409.0802
  A 1.09 1.09 0.0 0 0 572.2993 410.1721
  L 572.3007 410.9921
  A 1.09 1.09 0.0 0 0 573.3926 412.0802
  L 573.6726 412.0798
  A 1.09 1.09 0.0 0 0 574.7607 410.9879
  L 574.7593 410.1679
  Z
  M 56.3536 411.7000
  A 1.22 1.04 90.3 0 0 57.4000 410.4854
  A 1.22 1.04 90.3 0 0 56.3664 409.2600
  A 1.22 1.04 90.3 0 0 55.3200 410.4746
  A 1.22 1.04 90.3 0 0 56.3536 411.7000
  Z
  M 80.96 410.47
  A 1.12 1.12 0.0 0 0 79.84 409.35
  A 1.12 1.12 0.0 0 0 78.72 410.47
  A 1.12 1.12 0.0 0 0 79.84 411.59
  A 1.12 1.12 0.0 0 0 80.96 410.47
  Z
  M 104.55 410.53
  A 1.22 1.22 0.0 0 0 103.33 409.31
  A 1.22 1.22 0.0 0 0 102.11 410.53
  A 1.22 1.22 0.0 0 0 103.33 411.75
  A 1.22 1.22 0.0 0 0 104.55 410.53
  Z
  M 198.60 410.57
  A 1.28 1.28 0.0 0 0 197.32 409.29
  A 1.28 1.28 0.0 0 0 196.04 410.57
  A 1.28 1.28 0.0 0 0 197.32 411.85
  A 1.28 1.28 0.0 0 0 198.60 410.57
  Z
  M 243.79 409.59
  Q 243.19 410.18 243.51 411.10
  Q 243.67 411.59 244.18 411.71
  Q 245.09 411.92 245.40 411.03
  Q 245.70 410.21 245.07 409.58
  A 0.91 0.90 -45.2 0 0 243.79 409.59
  Z
  M 269.05 410.50
  A 1.08 1.08 0.0 0 0 267.97 409.42
  A 1.08 1.08 0.0 0 0 266.89 410.50
  A 1.08 1.08 0.0 0 0 267.97 411.58
  A 1.08 1.08 0.0 0 0 269.05 410.50
  Z
  M 338.6174 411.8705
  A 1.31 1.08 83.1 0 0 339.5322 410.4403
  A 1.31 1.08 83.1 0 0 338.3026 409.2695
  A 1.31 1.08 83.1 0 0 337.3878 410.6997
  A 1.31 1.08 83.1 0 0 338.6174 411.8705
  Z
  M 455.9349 411.6252
  A 1.16 0.96 95.2 0 0 456.9960 410.5570
  A 1.16 0.96 95.2 0 0 456.1451 409.3148
  A 1.16 0.96 95.2 0 0 455.0840 410.3830
  A 1.16 0.96 95.2 0 0 455.9349 411.6252
  Z
  M 526.6472 411.9960
  A 1.43 1.18 85.7 0 0 527.7167 410.4815
  A 1.43 1.18 85.7 0 0 526.4328 409.1440
  A 1.43 1.18 85.7 0 0 525.3633 410.6585
  A 1.43 1.18 85.7 0 0 526.6472 411.9960
  Z
  M 620.6803 411.9463
  A 1.37 1.18 85.8 0 0 621.7568 410.4936
  A 1.37 1.18 85.8 0 0 620.4797 409.2137
  A 1.37 1.18 85.8 0 0 619.4032 410.6664
  A 1.37 1.18 85.8 0 0 620.6803 411.9463
  Z
  M 644.0968 411.6592
  A 1.18 0.92 92.1 0 0 645.0594 410.5137
  A 1.18 0.92 92.1 0 0 644.1832 409.3008
  A 1.18 0.92 92.1 0 0 643.2206 410.4463
  A 1.18 0.92 92.1 0 0 644.0968 411.6592
  Z
  M 668.7517 410.2097
  A 1.02 1.02 0.0 0 0 667.7054 409.2168
  L 667.4255 409.2241
  A 1.02 1.02 0.0 0 0 666.4325 410.2705
  L 666.4483 410.8703
  A 1.02 1.02 0.0 0 0 667.4946 411.8632
  L 667.7745 411.8559
  A 1.02 1.02 0.0 0 0 668.7675 410.8095
  L 668.7517 410.2097
  Z
  M 761.3826 411.8292
  A 1.30 1.17 97.4 0 0 762.7103 410.6907
  A 1.30 1.17 97.4 0 0 761.7174 409.2508
  A 1.30 1.17 97.4 0 0 760.3897 410.3893
  A 1.30 1.17 97.4 0 0 761.3826 411.8292
  Z
  M 832.1892 411.6598
  A 1.19 0.92 91.0 0 0 833.1299 410.4861
  A 1.19 0.92 91.0 0 0 832.2308 409.2802
  A 1.19 0.92 91.0 0 0 831.2901 410.4539
  A 1.19 0.92 91.0 0 0 832.1892 411.6598
  Z
  M 855.5612 411.7954
  A 1.30 1.17 94.8 0 0 856.8359 410.5979
  A 1.30 1.17 94.8 0 0 855.7788 409.2046
  A 1.30 1.17 94.8 0 0 854.5041 410.4021
  A 1.30 1.17 94.8 0 0 855.5612 411.7954
  Z
  M 950.76 410.51
  A 1.10 1.10 0.0 0 0 949.66 409.41
  A 1.10 1.10 0.0 0 0 948.56 410.51
  A 1.10 1.10 0.0 0 0 949.66 411.61
  A 1.10 1.10 0.0 0 0 950.76 410.51
  Z
  M 150.84 409.57
  Q 150.52 409.38 150.16 409.45
  Q 149.52 409.57 149.47 410.25
  Q 149.43 410.72 149.58 411.15
  A 0.77 0.77 0.0 0 0 150.61 411.61
  Q 151.32 411.32 151.37 410.57
  A 1.09 1.07 -73.5 0 0 150.84 409.57
  Z
  M 173.22 411.29
  A 0.95 0.94 35.1 0 0 174.72 411.03
  Q 174.88 410.70 174.83 410.28
  Q 174.76 409.70 174.19 409.54
  Q 173.33 409.31 173.00 410.17
  Q 172.74 410.83 173.22 411.29
  Z
  M 362.82 411.04
  Q 363.21 410.39 362.65 409.77
  A 0.82 0.81 41.2 0 0 361.38 409.85
  Q 360.80 410.68 361.18 411.15
  A 1.00 1.00 0.0 0 0 362.82 411.04
  Z
  M 409.91 410.65
  A 1.05 1.05 0.0 0 0 408.86 409.60
  A 1.05 1.05 0.0 0 0 407.81 410.65
  A 1.05 1.05 0.0 0 0 408.86 411.70
  A 1.05 1.05 0.0 0 0 409.91 410.65
  Z
  M 504.02 410.63
  A 1.06 1.06 0.0 0 0 502.96 409.57
  A 1.06 1.06 0.0 0 0 501.90 410.63
  A 1.06 1.06 0.0 0 0 502.96 411.69
  A 1.06 1.06 0.0 0 0 504.02 410.63
  Z
  M 550.51 411.41
  Q 551.26 410.81 550.73 409.89
  A 0.78 0.77 -51.7 0 0 549.32 410.06
  Q 549.18 410.51 549.31 411.00
  A 0.75 0.75 0.0 0 0 550.51 411.41
  Z
  M 597.98 410.65
  A 1.04 1.04 0.0 0 0 596.94 409.61
  A 1.04 1.04 0.0 0 0 595.90 410.65
  A 1.04 1.04 0.0 0 0 596.94 411.69
  A 1.04 1.04 0.0 0 0 597.98 410.65
  Z
  M 692.13 410.64
  A 1.07 1.07 0.0 0 0 691.06 409.57
  A 1.07 1.07 0.0 0 0 689.99 410.64
  A 1.07 1.07 0.0 0 0 691.06 411.71
  A 1.07 1.07 0.0 0 0 692.13 410.64
  Z
  M 714.7815 411.7790
  A 1.19 1.03 82.2 0 0 715.6405 410.4602
  A 1.19 1.03 82.2 0 0 714.4585 409.4210
  A 1.19 1.03 82.2 0 0 713.5995 410.7398
  A 1.19 1.03 82.2 0 0 714.7815 411.7790
  Z
  M 738.2365 411.5899
  A 1.05 0.79 89.1 0 0 739.0099 410.5276
  A 1.05 0.79 89.1 0 0 738.2035 409.4901
  A 1.05 0.79 89.1 0 0 737.4301 410.5524
  A 1.05 0.79 89.1 0 0 738.2365 411.5899
  Z
  M 786.00 410.63
  A 1.00 1.00 0.0 0 0 785.00 409.63
  A 1.00 1.00 0.0 0 0 784.00 410.63
  A 1.00 1.00 0.0 0 0 785.00 411.63
  A 1.00 1.00 0.0 0 0 786.00 410.63
  Z
  M 809.75 410.59
  A 1.15 1.15 0.0 0 0 808.60 409.44
  A 1.15 1.15 0.0 0 0 807.45 410.59
  A 1.15 1.15 0.0 0 0 808.60 411.74
  A 1.15 1.15 0.0 0 0 809.75 410.59
  Z
  M 880.20 410.60
  A 1.08 1.08 0.0 0 0 879.12 409.52
  A 1.08 1.08 0.0 0 0 878.04 410.60
  A 1.08 1.08 0.0 0 0 879.12 411.68
  A 1.08 1.08 0.0 0 0 880.20 410.60
  Z
  M 902.8483 411.7260
  A 1.14 1.01 81.0 0 0 903.6676 410.4420
  A 1.14 1.01 81.0 0 0 902.4917 409.4740
  A 1.14 1.01 81.0 0 0 901.6724 410.7580
  A 1.14 1.01 81.0 0 0 902.8483 411.7260
  Z
  M 926.2738 411.6300
  A 1.08 0.83 89.8 0 0 927.1000 410.5471
  A 1.08 0.83 89.8 0 0 926.2662 409.4700
  A 1.08 0.83 89.8 0 0 925.4400 410.5529
  A 1.08 0.83 89.8 0 0 926.2738 411.6300
  Z
  M 974.15 410.60
  A 1.05 1.05 0.0 0 0 973.10 409.55
  A 1.05 1.05 0.0 0 0 972.05 410.60
  A 1.05 1.05 0.0 0 0 973.10 411.65
  A 1.05 1.05 0.0 0 0 974.15 410.60
  Z
  M 996.7302 411.7579
  A 1.15 1.02 86.5 0 0 997.6781 410.5477
  A 1.15 1.02 86.5 0 0 996.5898 409.4621
  A 1.15 1.02 86.5 0 0 995.6419 410.6723
  A 1.15 1.02 86.5 0 0 996.7302 411.7579
  Z
  M 125.91 410.40
  Q 125.77 411.20 126.47 411.57
  A 0.88 0.88 0.0 0 0 127.74 411.02
  Q 127.90 410.38 127.41 409.91
  A 0.89 0.89 0.0 0 0 125.91 410.40
  Z
  M 221.80 410.69
  A 1.00 1.00 0.0 0 0 220.80 409.69
  A 1.00 1.00 0.0 0 0 219.80 410.69
  A 1.00 1.00 0.0 0 0 220.80 411.69
  A 1.00 1.00 0.0 0 0 221.80 410.69
  Z
  M 315.93 410.69
  A 1.03 1.03 0.0 0 0 314.90 409.66
  A 1.03 1.03 0.0 0 0 313.87 410.69
  A 1.03 1.03 0.0 0 0 314.90 411.72
  A 1.03 1.03 0.0 0 0 315.93 410.69
  Z
  M 34.2027 1321.2474
  A 1.03 1.03 0.0 0 0 33.1781 1320.2121
  L 32.3981 1320.2080
  A 1.03 1.03 0.0 0 0 31.3627 1321.2326
  L 31.3573 1322.2726
  A 1.03 1.03 0.0 0 0 32.3819 1323.3079
  L 33.1619 1323.3120
  A 1.03 1.03 0.0 0 0 34.1973 1322.2874
  L 34.2027 1321.2474
  Z
  M 339.5797 1321.3073
  A 1.03 1.03 0.0 0 0 338.4655 1320.3691
  L 338.0868 1320.4015
  A 1.03 1.03 0.0 0 0 337.1486 1321.5157
  L 337.2203 1322.3527
  A 1.03 1.03 0.0 0 0 338.3345 1323.2909
  L 338.7132 1323.2585
  A 1.03 1.03 0.0 0 0 339.6514 1322.1443
  L 339.5797 1321.3073
  Z
  M 386.6645 1321.1696
  A 0.93 0.93 0.0 0 0 385.7120 1320.2626
  L 385.0722 1320.2783
  A 0.93 0.93 0.0 0 0 384.1652 1321.2307
  L 384.1955 1322.4704
  A 0.93 0.93 0.0 0 0 385.1480 1323.3774
  L 385.7878 1323.3617
  A 0.93 0.93 0.0 0 0 386.6948 1322.4093
  L 386.6645 1321.1696
  Z
  M 433.8804 1321.1619
  A 0.90 0.90 0.0 0 0 432.9946 1320.2479
  L 432.0147 1320.2325
  A 0.90 0.90 0.0 0 0 431.1007 1321.1182
  L 431.0796 1322.4581
  A 0.90 0.90 0.0 0 0 431.9654 1323.3721
  L 432.9453 1323.3875
  A 0.90 0.90 0.0 0 0 433.8593 1322.5018
  L 433.8804 1321.1619
  Z
  M 480.7235 1321.1460
  A 0.94 0.94 0.0 0 0 479.7434 1320.2479
  L 479.1240 1320.2750
  A 0.94 0.94 0.0 0 0 478.2259 1321.2551
  L 478.2765 1322.4140
  A 0.94 0.94 0.0 0 0 479.2566 1323.3121
  L 479.8760 1323.2850
  A 0.94 0.94 0.0 0 0 480.7741 1322.3049
  L 480.7235 1321.1460
  Z
  M 527.81 1321.17
  A 0.91 0.91 0.0 0 0 526.90 1320.26
  L 526.08 1320.26
  A 0.91 0.91 0.0 0 0 525.17 1321.17
  L 525.17 1322.45
  A 0.91 0.91 0.0 0 0 526.08 1323.36
  L 526.90 1323.36
  A 0.91 0.91 0.0 0 0 527.81 1322.45
  L 527.81 1321.17
  Z
  M 574.8097 1321.2002
  A 0.95 0.95 0.0 0 0 573.8748 1320.2354
  L 573.2149 1320.2250
  A 0.95 0.95 0.0 0 0 572.2501 1321.1600
  L 572.2303 1322.4198
  A 0.95 0.95 0.0 0 0 573.1652 1323.3846
  L 573.8251 1323.3950
  A 0.95 0.95 0.0 0 0 574.7899 1322.4600
  L 574.8097 1321.2002
  Z
  M 620.7737 1323.3828
  A 1.60 1.38 81.6 0 0 621.9052 1321.5984
  A 1.60 1.38 81.6 0 0 620.3063 1320.2172
  A 1.60 1.38 81.6 0 0 619.1748 1322.0016
  A 1.60 1.38 81.6 0 0 620.7737 1323.3828
  Z
  M 1021.6450 1321.1921
  A 0.95 0.95 0.0 0 0 1020.7033 1320.2338
  L 1019.8434 1320.2263
  A 0.95 0.95 0.0 0 0 1018.8851 1321.1680
  L 1018.8750 1322.3279
  A 0.95 0.95 0.0 0 0 1019.8167 1323.2862
  L 1020.6766 1323.2937
  A 0.95 0.95 0.0 0 0 1021.6349 1322.3520
  L 1021.6450 1321.1921
  Z
  M 56.5478 1323.0433
  A 1.30 1.14 80.8 0 0 57.4653 1321.5777
  A 1.30 1.14 80.8 0 0 56.1322 1320.4767
  A 1.30 1.14 80.8 0 0 55.2147 1321.9423
  A 1.30 1.14 80.8 0 0 56.5478 1323.0433
  Z
  M 103.2847 1322.9597
  A 1.21 1.07 91.2 0 0 104.3798 1321.7724
  A 1.21 1.07 91.2 0 0 103.3353 1320.5403
  A 1.21 1.07 91.2 0 0 102.2402 1321.7276
  A 1.21 1.07 91.2 0 0 103.2847 1322.9597
  Z
  M 150.4899 1323.1681
  A 1.36 1.15 82.4 0 0 151.4499 1321.6679
  A 1.36 1.15 82.4 0 0 150.1301 1320.4719
  A 1.36 1.15 82.4 0 0 149.1701 1321.9721
  A 1.36 1.15 82.4 0 0 150.4899 1323.1681
  Z
  M 174.2770 1322.8238
  A 1.17 1.00 65.4 0 0 174.6992 1321.3437
  A 1.17 1.00 65.4 0 0 173.3030 1320.6962
  A 1.17 1.00 65.4 0 0 172.8808 1322.1763
  A 1.17 1.00 65.4 0 0 174.2770 1322.8238
  Z
  M 197.3225 1323.2500
  A 1.46 1.21 89.9 0 0 198.5300 1321.7879
  A 1.46 1.21 89.9 0 0 197.3175 1320.3300
  A 1.46 1.21 89.9 0 0 196.1100 1321.7921
  A 1.46 1.21 89.9 0 0 197.3225 1323.2500
  Z
  M 244.6939 1323.1831
  A 1.41 1.20 78.8 0 0 245.5971 1321.5669
  A 1.41 1.20 78.8 0 0 244.1461 1320.4169
  A 1.41 1.20 78.8 0 0 243.2429 1322.0331
  A 1.41 1.20 78.8 0 0 244.6939 1323.1831
  Z
  M 291.5781 1323.1240
  A 1.36 1.19 81.2 0 0 292.5460 1321.5979
  A 1.36 1.19 81.2 0 0 291.1619 1320.4360
  A 1.36 1.19 81.2 0 0 290.1940 1321.9621
  A 1.36 1.19 81.2 0 0 291.5781 1323.1240
  Z
  M 410.02 1321.78
  A 1.14 1.14 0.0 0 0 408.88 1320.64
  A 1.14 1.14 0.0 0 0 407.74 1321.78
  A 1.14 1.14 0.0 0 0 408.88 1322.92
  A 1.14 1.14 0.0 0 0 410.02 1321.78
  Z
  M 597.3034 1322.9860
  A 1.25 1.10 73.1 0 0 597.9925 1321.4702
  A 1.25 1.10 73.1 0 0 596.5766 1320.5940
  A 1.25 1.10 73.1 0 0 595.8875 1322.1098
  A 1.25 1.10 73.1 0 0 597.3034 1322.9860
  Z
  M 644.3126 1322.8717
  A 1.14 0.99 77.2 0 0 645.0254 1321.5407
  A 1.14 0.99 77.2 0 0 643.8074 1320.6483
  A 1.14 0.99 77.2 0 0 643.0946 1321.9793
  A 1.14 0.99 77.2 0 0 644.3126 1322.8717
  Z
  M 667.7137 1323.1535
  A 1.37 1.17 84.4 0 0 668.7444 1321.6758
  A 1.37 1.17 84.4 0 0 667.4463 1320.4265
  A 1.37 1.17 84.4 0 0 666.4156 1321.9042
  A 1.37 1.17 84.4 0 0 667.7137 1323.1535
  Z
  M 714.6366 1323.2259
  A 1.39 1.20 85.6 0 0 715.7265 1321.7479
  A 1.39 1.20 85.6 0 0 714.4234 1320.4541
  A 1.39 1.20 85.6 0 0 713.3335 1321.9321
  A 1.39 1.20 85.6 0 0 714.6366 1323.2259
  Z
  M 761.7005 1323.2621
  A 1.44 1.20 84.0 0 0 762.7434 1321.7046
  A 1.44 1.20 84.0 0 0 761.3995 1320.3979
  A 1.44 1.20 84.0 0 0 760.3566 1321.9554
  A 1.44 1.20 84.0 0 0 761.7005 1323.2621
  Z
  M 785.2774 1322.9442
  A 1.20 1.10 78.1 0 0 786.1064 1321.5432
  A 1.20 1.10 78.1 0 0 784.7826 1320.5958
  A 1.20 1.10 78.1 0 0 783.9536 1321.9968
  A 1.20 1.10 78.1 0 0 785.2774 1322.9442
  Z
  M 809.8314 1321.4442
  A 0.97 0.97 0.0 0 0 808.8648 1320.4708
  L 808.4048 1320.4692
  A 0.97 0.97 0.0 0 0 807.4314 1321.4358
  L 807.4286 1322.2358
  A 0.97 0.97 0.0 0 0 808.3952 1323.2092
  L 808.8552 1323.2108
  A 0.97 0.97 0.0 0 0 809.8286 1322.2442
  L 809.8314 1321.4442
  Z
  M 832.4132 1322.9067
  A 1.18 1.04 78.6 0 0 833.1995 1321.5444
  A 1.18 1.04 78.6 0 0 831.9468 1320.5933
  A 1.18 1.04 78.6 0 0 831.1605 1321.9556
  A 1.18 1.04 78.6 0 0 832.4132 1322.9067
  Z
  M 856.0421 1322.9402
  A 1.25 1.11 72.2 0 0 856.7169 1321.4107
  A 1.25 1.11 72.2 0 0 855.2779 1320.5598
  A 1.25 1.11 72.2 0 0 854.6031 1322.0893
  A 1.25 1.11 72.2 0 0 856.0421 1322.9402
  Z
  M 902.65 1323.13
  Q 903.23 1323.00 903.57 1322.54
  A 1.22 1.22 0.0 0 0 903.07 1320.69
  Q 902.48 1320.44 901.94 1320.73
  Q 901.50 1320.97 901.47 1321.50
  Q 901.42 1322.28 901.84 1322.84
  A 0.81 0.80 -24.9 0 0 902.65 1323.13
  Z
  M 926.3029 1322.9789
  A 1.20 1.00 82.2 0 0 927.1307 1321.6543
  A 1.20 1.00 82.2 0 0 925.9771 1320.6011
  A 1.20 1.00 82.2 0 0 925.1493 1321.9257
  A 1.20 1.00 82.2 0 0 926.3029 1322.9789
  Z
  M 949.9053 1322.9767
  A 1.24 1.07 76.7 0 0 950.6613 1321.5238
  A 1.24 1.07 76.7 0 0 949.3347 1320.5633
  A 1.24 1.07 76.7 0 0 948.5787 1322.0162
  A 1.24 1.07 76.7 0 0 949.9053 1322.9767
  Z
  M 973.03 1320.61
  A 0.79 0.78 -78.2 0 0 972.12 1321.21
  Q 971.93 1322.07 972.47 1322.69
  A 0.87 0.87 0.0 0 0 973.85 1322.57
  Q 974.88 1320.94 973.03 1320.61
  Z
  M 997.88 1321.78
  A 1.21 1.21 0.0 0 0 996.67 1320.57
  A 1.21 1.21 0.0 0 0 995.46 1321.78
  A 1.21 1.21 0.0 0 0 996.67 1322.99
  A 1.21 1.21 0.0 0 0 997.88 1321.78
  Z
  M 79.99 1320.76
  L 79.25 1320.78
  Q 78.85 1320.80 78.79 1321.20
  Q 78.66 1322.08 79.28 1322.61
  A 0.92 0.91 -57.8 0 0 80.71 1322.28
  Q 80.86 1321.96 80.83 1321.52
  Q 80.77 1320.74 79.99 1320.76
  Z
  M 127.85 1321.79
  A 1.06 1.06 0.0 0 0 126.79 1320.73
  A 1.06 1.06 0.0 0 0 125.73 1321.79
  A 1.06 1.06 0.0 0 0 126.79 1322.85
  A 1.06 1.06 0.0 0 0 127.85 1321.79
  Z
  M 221.90 1321.79
  A 1.10 1.10 0.0 0 0 220.80 1320.69
  A 1.10 1.10 0.0 0 0 219.70 1321.79
  A 1.10 1.10 0.0 0 0 220.80 1322.89
  A 1.10 1.10 0.0 0 0 221.90 1321.79
  Z
  M 268.70 1321.16
  A 0.94 0.93 -55.0 0 0 266.95 1321.47
  Q 266.87 1322.05 267.26 1322.50
  A 0.90 0.90 0.0 0 0 268.76 1322.26
  Q 268.99 1321.71 268.70 1321.16
  Z
  M 315.94 1321.83
  A 1.04 1.04 0.0 0 0 314.90 1320.79
  A 1.04 1.04 0.0 0 0 313.86 1321.83
  A 1.04 1.04 0.0 0 0 314.90 1322.87
  A 1.04 1.04 0.0 0 0 315.94 1321.83
  Z
  M 362.3324 1322.8813
  A 1.18 0.98 66.4 0 0 362.7580 1321.4077
  A 1.18 0.98 66.4 0 0 361.3876 1320.7187
  A 1.18 0.98 66.4 0 0 360.9620 1322.1923
  A 1.18 0.98 66.4 0 0 362.3324 1322.8813
  Z
  M 456.4958 1322.7489
  A 1.12 1.01 62.0 0 0 456.8618 1321.2858
  A 1.12 1.01 62.0 0 0 455.4442 1320.7711
  A 1.12 1.01 62.0 0 0 455.0782 1322.2342
  A 1.12 1.01 62.0 0 0 456.4958 1322.7489
  Z
  M 504.05 1321.80
  A 1.08 1.08 0.0 0 0 502.97 1320.72
  A 1.08 1.08 0.0 0 0 501.89 1321.80
  A 1.08 1.08 0.0 0 0 502.97 1322.88
  A 1.08 1.08 0.0 0 0 504.05 1321.80
  Z
  M 550.80 1321.19
  Q 550.38 1320.52 549.55 1320.72
  Q 548.94 1320.87 548.92 1321.49
  Q 548.89 1322.30 549.45 1322.77
  A 0.84 0.83 44.1 0 0 550.55 1322.76
  Q 551.34 1322.05 550.80 1321.19
  Z
  M 691.63 1320.99
  Q 691.25 1320.75 690.78 1320.77
  Q 690.28 1320.80 690.14 1321.28
  Q 689.95 1322.01 690.37 1322.60
  Q 690.62 1322.97 691.07 1322.91
  Q 691.78 1322.81 692.02 1322.07
  A 0.95 0.93 -65.5 0 0 691.63 1320.99
  Z
  M 738.85 1321.16
  Q 738.40 1320.67 737.80 1320.76
  Q 737.17 1320.86 737.12 1321.51
  Q 737.07 1322.06 737.32 1322.52
  A 0.80 0.79 -26.2 0 0 738.36 1322.87
  Q 739.00 1322.57 739.06 1321.81
  A 0.85 0.84 27.4 0 0 738.85 1321.16
  Z
  M 878.20 1321.40
  Q 878.17 1322.01 878.43 1322.53
  A 0.71 0.71 0.0 0 0 879.39 1322.84
  Q 880.05 1322.50 880.15 1321.82
  Q 880.25 1321.13 879.59 1320.87
  Q 879.26 1320.74 878.90 1320.74
  Q 878.23 1320.73 878.20 1321.40
  Z"
/>
<ellipse fill="#1a73ab" cx="0.00" cy="0.00" transform="translate(1020.25,410.53) rotate(90.4)" rx="1.72" ry="1.50"/>
<rect fill="#1a73ab" x="-1.44" y="-1.62" transform="translate(32.78,410.57) rotate(-1.2)" width="2.88" height="3.24" rx="1.24"/>
<circle fill="#1a73ab" cx="291.42" cy="410.55" r="1.36"/>
<ellipse fill="#1a73ab" cx="0.00" cy="0.00" transform="translate(385.44,410.60) rotate(91.2)" rx="1.63" ry="1.34"/>
<ellipse fill="#1a73ab" cx="0.00" cy="0.00" transform="translate(432.51,410.57) rotate(83.7)" rx="1.52" ry="1.25"/>
<ellipse fill="#1a73ab" cx="0.00" cy="0.00" transform="translate(479.52,410.54) rotate(90.0)" rx="1.64" ry="1.33"/>
<rect fill="#1a73ab" x="-1.23" y="-1.50" transform="translate(573.53,410.58) rotate(-0.1)" width="2.46" height="3.00" rx="1.09"/>
<ellipse fill="#1a73ab" cx="0.00" cy="0.00" transform="translate(56.36,410.48) rotate(90.3)" rx="1.22" ry="1.04"/>
<circle fill="#1a73ab" cx="79.84" cy="410.47" r="1.12"/>
<circle fill="#1a73ab" cx="103.33" cy="410.53" r="1.22"/>
<circle fill="#1a73ab" cx="197.32" cy="410.57" r="1.28"/>
<path fill="#1a73ab" d="
  M 243.79 409.59
  A 0.91 0.90 -45.2 0 1 245.07 409.58
  Q 245.70 410.21 245.40 411.03
  Q 245.09 411.92 244.18 411.71
  Q 243.67 411.59 243.51 411.10
  Q 243.19 410.18 243.79 409.59
  Z"
/>
<circle fill="#1a73ab" cx="267.97" cy="410.50" r="1.08"/>
<ellipse fill="#1a73ab" cx="0.00" cy="0.00" transform="translate(338.46,410.57) rotate(83.1)" rx="1.31" ry="1.08"/>
<ellipse fill="#1a73ab" cx="0.00" cy="0.00" transform="translate(456.04,410.47) rotate(95.2)" rx="1.16" ry="0.96"/>
<ellipse fill="#1a73ab" cx="0.00" cy="0.00" transform="translate(526.54,410.57) rotate(85.7)" rx="1.43" ry="1.18"/>
<ellipse fill="#1a73ab" cx="0.00" cy="0.00" transform="translate(620.58,410.58) rotate(85.8)" rx="1.37" ry="1.18"/>
<ellipse fill="#1a73ab" cx="0.00" cy="0.00" transform="translate(644.14,410.48) rotate(92.1)" rx="1.18" ry="0.92"/>
<rect fill="#1a73ab" x="-1.16" y="-1.32" transform="translate(667.60,410.54) rotate(-1.5)" width="2.32" height="2.64" rx="1.02"/>
<ellipse fill="#1a73ab" cx="0.00" cy="0.00" transform="translate(761.55,410.54) rotate(97.4)" rx="1.30" ry="1.17"/>
<ellipse fill="#1a73ab" cx="0.00" cy="0.00" transform="translate(832.21,410.47) rotate(91.0)" rx="1.19" ry="0.92"/>
<ellipse fill="#1a73ab" cx="0.00" cy="0.00" transform="translate(855.67,410.50) rotate(94.8)" rx="1.30" ry="1.17"/>
<circle fill="#1a73ab" cx="949.66" cy="410.51" r="1.10"/>
<path fill="#1a73ab" d="
  M 150.84 409.57
  A 1.09 1.07 -73.5 0 1 151.37 410.57
  Q 151.32 411.32 150.61 411.61
  A 0.77 0.77 0.0 0 1 149.58 411.15
  Q 149.43 410.72 149.47 410.25
  Q 149.52 409.57 150.16 409.45
  Q 150.52 409.38 150.84 409.57
  Z"
/>
<path fill="#1a73ab" d="
  M 173.22 411.29
  Q 172.74 410.83 173.00 410.17
  Q 173.33 409.31 174.19 409.54
  Q 174.76 409.70 174.83 410.28
  Q 174.88 410.70 174.72 411.03
  A 0.95 0.94 35.1 0 1 173.22 411.29
  Z"
/>
<path fill="#1a73ab" d="
  M 362.82 411.04
  A 1.00 1.00 0.0 0 1 361.18 411.15
  Q 360.80 410.68 361.38 409.85
  A 0.82 0.81 41.2 0 1 362.65 409.77
  Q 363.21 410.39 362.82 411.04
  Z"
/>
<circle fill="#1a73ab" cx="408.86" cy="410.65" r="1.05"/>
<circle fill="#1a73ab" cx="502.96" cy="410.63" r="1.06"/>
<path fill="#1a73ab" d="
  M 550.51 411.41
  A 0.75 0.75 0.0 0 1 549.31 411.00
  Q 549.18 410.51 549.32 410.06
  A 0.78 0.77 -51.7 0 1 550.73 409.89
  Q 551.26 410.81 550.51 411.41
  Z"
/>
<circle fill="#1a73ab" cx="596.94" cy="410.65" r="1.04"/>
<circle fill="#1a73ab" cx="691.06" cy="410.64" r="1.07"/>
<ellipse fill="#1a73ab" cx="0.00" cy="0.00" transform="translate(714.62,410.60) rotate(82.2)" rx="1.19" ry="1.03"/>
<ellipse fill="#1a73ab" cx="0.00" cy="0.00" transform="translate(738.22,410.54) rotate(89.1)" rx="1.05" ry="0.79"/>
<circle fill="#1a73ab" cx="785.00" cy="410.63" r="1.00"/>
<circle fill="#1a73ab" cx="808.60" cy="410.59" r="1.15"/>
<circle fill="#1a73ab" cx="879.12" cy="410.60" r="1.08"/>
<ellipse fill="#1a73ab" cx="0.00" cy="0.00" transform="translate(902.67,410.60) rotate(81.0)" rx="1.14" ry="1.01"/>
<ellipse fill="#1a73ab" cx="0.00" cy="0.00" transform="translate(926.27,410.55) rotate(89.8)" rx="1.08" ry="0.83"/>
<circle fill="#1a73ab" cx="973.10" cy="410.60" r="1.05"/>
<ellipse fill="#1a73ab" cx="0.00" cy="0.00" transform="translate(996.66,410.61) rotate(86.5)" rx="1.15" ry="1.02"/>
<path fill="#1a73ab" d="
  M 125.91 410.40
  A 0.89 0.89 0.0 0 1 127.41 409.91
  Q 127.90 410.38 127.74 411.02
  A 0.88 0.88 0.0 0 1 126.47 411.57
  Q 125.77 411.20 125.91 410.40
  Z"
/>
<circle fill="#1a73ab" cx="220.80" cy="410.69" r="1.00"/>
<circle fill="#1a73ab" cx="314.90" cy="410.69" r="1.03"/>
<path fill="#1a73ab" d="
  M 1033.13 1313.79
  Q 1031.66 1320.61 1032.70 1328.51
  Q 1030.86 1326.69 1030.62 1323.37
  Q 1030.17 1317.02 1033.13 1313.79
  Z"
/>
<rect fill="#1a73ab" x="-1.42" y="-1.55" transform="translate(32.78,1321.76) rotate(0.3)" width="2.84" height="3.10" rx="1.03"/>
<rect fill="#1a73ab" x="-1.22" y="-1.45" transform="translate(338.40,1321.83) rotate(-4.9)" width="2.44" height="2.90" rx="1.03"/>
<rect fill="#1a73ab" x="-1.25" y="-1.55" transform="translate(385.43,1321.82) rotate(-1.4)" width="2.50" height="3.10" rx="0.93"/>
<rect fill="#1a73ab" x="-1.39" y="-1.57" transform="translate(432.48,1321.81) rotate(0.9)" width="2.78" height="3.14" rx="0.90"/>
<rect fill="#1a73ab" x="-1.25" y="-1.52" transform="translate(479.50,1321.78) rotate(-2.5)" width="2.50" height="3.04" rx="0.94"/>
<rect fill="#1a73ab" x="525.17" y="1320.26" width="2.64" height="3.10" rx="0.91"/>
<rect fill="#1a73ab" x="-1.28" y="-1.58" transform="translate(573.52,1321.81) rotate(0.9)" width="2.56" height="3.16" rx="0.95"/>
<ellipse fill="#1a73ab" cx="0.00" cy="0.00" transform="translate(620.54,1321.80) rotate(81.6)" rx="1.60" ry="1.38"/>
<rect fill="#1a73ab" x="-1.38" y="-1.53" transform="translate(1020.26,1321.76) rotate(0.5)" width="2.76" height="3.06" rx="0.95"/>
<ellipse fill="#1a73ab" cx="0.00" cy="0.00" transform="translate(56.34,1321.76) rotate(80.8)" rx="1.30" ry="1.14"/>
<ellipse fill="#1a73ab" cx="0.00" cy="0.00" transform="translate(103.31,1321.75) rotate(91.2)" rx="1.21" ry="1.07"/>
<ellipse fill="#1a73ab" cx="0.00" cy="0.00" transform="translate(150.31,1321.82) rotate(82.4)" rx="1.36" ry="1.15"/>
<ellipse fill="#1a73ab" cx="0.00" cy="0.00" transform="translate(173.79,1321.76) rotate(65.4)" rx="1.17" ry="1.00"/>
<ellipse fill="#1a73ab" cx="0.00" cy="0.00" transform="translate(197.32,1321.79) rotate(89.9)" rx="1.46" ry="1.21"/>
<ellipse fill="#1a73ab" cx="0.00" cy="0.00" transform="translate(244.42,1321.80) rotate(78.8)" rx="1.41" ry="1.20"/>
<ellipse fill="#1a73ab" cx="0.00" cy="0.00" transform="translate(291.37,1321.78) rotate(81.2)" rx="1.36" ry="1.19"/>
<circle fill="#1a73ab" cx="408.88" cy="1321.78" r="1.14"/>
<ellipse fill="#1a73ab" cx="0.00" cy="0.00" transform="translate(596.94,1321.79) rotate(73.1)" rx="1.25" ry="1.10"/>
<ellipse fill="#1a73ab" cx="0.00" cy="0.00" transform="translate(644.06,1321.76) rotate(77.2)" rx="1.14" ry="0.99"/>
<ellipse fill="#1a73ab" cx="0.00" cy="0.00" transform="translate(667.58,1321.79) rotate(84.4)" rx="1.37" ry="1.17"/>
<ellipse fill="#1a73ab" cx="0.00" cy="0.00" transform="translate(714.53,1321.84) rotate(85.6)" rx="1.39" ry="1.20"/>
<ellipse fill="#1a73ab" cx="0.00" cy="0.00" transform="translate(761.55,1321.83) rotate(84.0)" rx="1.44" ry="1.20"/>
<ellipse fill="#1a73ab" cx="0.00" cy="0.00" transform="translate(785.03,1321.77) rotate(78.1)" rx="1.20" ry="1.10"/>
<rect fill="#1a73ab" x="-1.20" y="-1.37" transform="translate(808.63,1321.84) rotate(0.2)" width="2.40" height="2.74" rx="0.97"/>
<ellipse fill="#1a73ab" cx="0.00" cy="0.00" transform="translate(832.18,1321.75) rotate(78.6)" rx="1.18" ry="1.04"/>
<ellipse fill="#1a73ab" cx="0.00" cy="0.00" transform="translate(855.66,1321.75) rotate(72.2)" rx="1.25" ry="1.11"/>
<path fill="#1a73ab" d="
  M 902.65 1323.13
  A 0.81 0.80 -24.9 0 1 901.84 1322.84
  Q 901.42 1322.28 901.47 1321.50
  Q 901.50 1320.97 901.94 1320.73
  Q 902.48 1320.44 903.07 1320.69
  A 1.22 1.22 0.0 0 1 903.57 1322.54
  Q 903.23 1323.00 902.65 1323.13
  Z"
/>
<ellipse fill="#1a73ab" cx="0.00" cy="0.00" transform="translate(926.14,1321.79) rotate(82.2)" rx="1.20" ry="1.00"/>
<ellipse fill="#1a73ab" cx="0.00" cy="0.00" transform="translate(949.62,1321.77) rotate(76.7)" rx="1.24" ry="1.07"/>
<path fill="#1a73ab" d="
  M 973.03 1320.61
  Q 974.88 1320.94 973.85 1322.57
  A 0.87 0.87 0.0 0 1 972.47 1322.69
  Q 971.93 1322.07 972.12 1321.21
  A 0.79 0.78 -78.2 0 1 973.03 1320.61
  Z"
/>
<circle fill="#1a73ab" cx="996.67" cy="1321.78" r="1.21"/>
<path fill="#1a73ab" d="
  M 80.83 1321.52
  Q 80.86 1321.96 80.71 1322.28
  A 0.92 0.91 -57.8 0 1 79.28 1322.61
  Q 78.66 1322.08 78.79 1321.20
  Q 78.85 1320.80 79.25 1320.78
  L 79.99 1320.76
  Q 80.77 1320.74 80.83 1321.52
  Z"
/>
<circle fill="#1a73ab" cx="126.79" cy="1321.79" r="1.06"/>
<circle fill="#1a73ab" cx="220.80" cy="1321.79" r="1.10"/>
<path fill="#1a73ab" d="
  M 268.70 1321.16
  Q 268.99 1321.71 268.76 1322.26
  A 0.90 0.90 0.0 0 1 267.26 1322.50
  Q 266.87 1322.05 266.95 1321.47
  A 0.94 0.93 -55.0 0 1 268.70 1321.16
  Z"
/>
<circle fill="#1a73ab" cx="314.90" cy="1321.83" r="1.04"/>
<ellipse fill="#1a73ab" cx="0.00" cy="0.00" transform="translate(361.86,1321.80) rotate(66.4)" rx="1.18" ry="0.98"/>
<ellipse fill="#1a73ab" cx="0.00" cy="0.00" transform="translate(455.97,1321.76) rotate(62.0)" rx="1.12" ry="1.01"/>
<circle fill="#1a73ab" cx="502.97" cy="1321.80" r="1.08"/>
<path fill="#1a73ab" d="
  M 550.80 1321.19
  Q 551.34 1322.05 550.55 1322.76
  A 0.84 0.83 44.1 0 1 549.45 1322.77
  Q 548.89 1322.30 548.92 1321.49
  Q 548.94 1320.87 549.55 1320.72
  Q 550.38 1320.52 550.80 1321.19
  Z"
/>
<path fill="#1a73ab" d="
  M 691.63 1320.99
  A 0.95 0.93 -65.5 0 1 692.02 1322.07
  Q 691.78 1322.81 691.07 1322.91
  Q 690.62 1322.97 690.37 1322.60
  Q 689.95 1322.01 690.14 1321.28
  Q 690.28 1320.80 690.78 1320.77
  Q 691.25 1320.75 691.63 1320.99
  Z"
/>
<path fill="#1a73ab" d="
  M 738.85 1321.16
  A 0.85 0.84 27.4 0 1 739.06 1321.81
  Q 739.00 1322.57 738.36 1322.87
  A 0.80 0.79 -26.2 0 1 737.32 1322.52
  Q 737.07 1322.06 737.12 1321.51
  Q 737.17 1320.86 737.80 1320.76
  Q 738.40 1320.67 738.85 1321.16
  Z"
/>
<path fill="#1a73ab" d="
  M 878.90 1320.74
  Q 879.26 1320.74 879.59 1320.87
  Q 880.25 1321.13 880.15 1321.82
  Q 880.05 1322.50 879.39 1322.84
  A 0.71 0.71 0.0 0 1 878.43 1322.53
  Q 878.17 1322.01 878.20 1321.40
  Q 878.23 1320.73 878.90 1320.74
  Z"
/>
</svg>
