<?xml version="1.0" encoding="UTF-8" standalone="no"?>
<!DOCTYPE svg PUBLIC "-//W3C//DTD SVG 1.1//EN" "http://www.w3.org/Graphics/SVG/1.1/DTD/svg11.dtd">
<svg xmlns="http://www.w3.org/2000/svg" version="1.1" viewBox="0.00 0.00 24.00 23.00">
<path stroke="#bc71a4" stroke-width="2.00" fill="none" stroke-linecap="butt" vector-effect="non-scaling-stroke" d="
  M 7.30 21.72
  Q 8.78 18.72 8.97 17.01
  Q 9.62 11.10 8.26 4.11
  Q 8.23 3.97 8.09 3.95
  Q 8.04 3.95 8.00 3.91
  Q 7.92 3.84 7.96 3.72
  Q 8.41 2.50 6.29 2.16"
/>
<path fill="#df6489" d="
  M 7.30 21.72
  Q 8.78 18.72 8.97 17.01
  Q 9.62 11.10 8.26 4.11
  Q 8.23 3.97 8.09 3.95
  Q 8.04 3.95 8.00 3.91
  Q 7.92 3.84 7.96 3.72
  Q 8.41 2.50 6.29 2.16
  A 11.29 11.06 -1.7 0 1 23.14 9.56
  A 11.33 11.09 -2.4 0 1 20.52 18.99
  A 11.30 11.07 -2.5 0 1 7.30 21.72
  Z"
/>
<path fill="#987dbf" d="
  M 6.29 2.16
  Q 8.41 2.50 7.96 3.72
  Q 7.92 3.84 8.00 3.91
  Q 8.04 3.95 8.09 3.95
  Q 8.23 3.97 8.26 4.11
  Q 9.62 11.10 8.97 17.01
  Q 8.78 18.72 7.30 21.72
  A 11.30 11.07 -2.2 0 1 6.29 2.16
  Z"
/>
</svg>
