<?xml version="1.0" encoding="UTF-8" ?>
<!DOCTYPE svg PUBLIC "-//W3C//DTD SVG 1.1//EN" "http://www.w3.org/Graphics/SVG/1.1/DTD/svg11.dtd">
<svg width="48pt" height="48pt" viewBox="0 0 48 48" version="1.1" xmlns="http://www.w3.org/2000/svg">
<g id="#8294a2ff">
<path fill="#8294a2" opacity="1.00" d=" M 22.49 0.00 L 25.58 0.00 C 37.25 0.66 47.51 10.71 48.00 22.48 L 48.00 25.60 C 47.51 37.38 37.28 47.47 25.54 48.00 L 22.52 48.00 C 10.89 47.49 0.74 37.54 0.00 25.91 L 0.00 22.14 C 0.85 10.50 10.78 0.53 22.49 0.00 M 12.74 14.67 C 15.78 17.80 18.72 21.03 21.92 24.00 C 18.72 26.97 15.78 30.20 12.74 33.33 C 13.37 33.59 14.64 34.12 15.27 34.39 C 18.55 32.04 21.15 28.91 24.00 26.08 C 26.85 28.91 29.45 32.04 32.72 34.39 C 33.36 34.13 34.63 33.60 35.26 33.34 C 32.22 30.20 29.28 26.97 26.08 24.00 C 28.91 21.15 32.04 18.55 34.39 15.28 C 34.12 14.64 33.60 13.37 33.33 12.74 C 30.20 15.78 26.97 18.72 24.00 21.92 C 21.15 19.09 18.55 15.96 15.27 13.61 C 14.64 13.88 13.37 14.41 12.74 14.67 Z" />
</g>
<g id="#ffffffff">
<path fill="#ffffff" opacity="1.00" d=" M 12.74 14.67 C 13.37 14.41 14.64 13.88 15.27 13.61 C 18.55 15.96 21.15 19.09 24.00 21.92 C 26.97 18.72 30.20 15.78 33.33 12.74 C 33.60 13.37 34.12 14.64 34.39 15.28 C 32.04 18.55 28.91 21.15 26.08 24.00 C 29.28 26.97 32.22 30.20 35.26 33.34 C 34.63 33.60 33.36 34.13 32.72 34.39 C 29.45 32.04 26.85 28.91 24.00 26.08 C 21.15 28.91 18.55 32.04 15.27 34.39 C 14.64 34.12 13.37 33.59 12.74 33.33 C 15.78 30.20 18.72 26.97 21.92 24.00 C 18.72 21.03 15.78 17.80 12.74 14.67 Z" />
</g>
</svg>
