<?xml version="1.0" encoding="UTF-8" standalone="no"?>
<!DOCTYPE svg PUBLIC "-//W3C//DTD SVG 1.1//EN" "http://www.w3.org/Graphics/SVG/1.1/DTD/svg11.dtd">
<svg xmlns="http://www.w3.org/2000/svg" version="1.1" viewBox="0.00 0.00 56.00 52.00">
<path fill="#2083df" d="
  M 26.07 32.70
  L 26.08 2.56
  Q 26.08 1.33 27.19 0.80
  Q 27.96 0.43 29.04 1.19
  A 1.61 1.61 0.0 0 1 29.74 2.52
  L 29.75 33.49
  A 0.93 0.93 0.0 0 0 31.33 34.15
  L 45.05 20.60
  A 1.45 1.45 0.0 0 1 45.51 20.29
  Q 48.04 19.20 48.35 20.19
  Q 48.81 21.61 47.81 22.64
  Q 39.10 31.58 29.55 40.90
  A 2.31 2.31 0.0 0 1 26.31 40.88
  Q 17.55 32.17 8.86 23.34
  Q 7.83 22.30 7.58 20.95
  A 0.98 0.98 0.0 0 1 8.97 19.89
  Q 11.54 21.12 13.62 23.22
  Q 18.84 28.51 23.90 33.60
  Q 26.07 35.79 26.07 32.70
  Z"
/>
<path fill="#dc0d3c" fill-opacity="0.996" d="
  M 6.84 47.50
  Q 8.02 47.72 9.25 47.72
  Q 28.79 47.80 48.89 47.86
  A 1.93 1.89 -65.0 0 0 50.19 47.37
  L 52.79 45.08
  A 1.16 1.16 0.0 0 1 53.88 44.84
  Q 55.03 45.17 54.83 46.23
  C 53.70 52.03 49.82 51.00 45.60 50.99
  Q 26.36 50.94 6.66 51.00
  Q 1.73 51.02 1.14 45.93
  A 1.00 1.00 0.0 0 1 2.45 44.86
  C 4.18 45.43 5.15 47.19 6.84 47.50
  Z"
/>
</svg>
