<?xml version="1.0" encoding="UTF-8" ?>
<!DOCTYPE svg PUBLIC "-//W3C//DTD SVG 1.1//EN" "http://www.w3.org/Graphics/SVG/1.1/DTD/svg11.dtd">
<svg width="72pt" height="72pt" viewBox="0 0 72 72" version="1.1" xmlns="http://www.w3.org/2000/svg">
<g id="#2182dafe">
<path fill="#2182da" opacity="1.00" d=" M 8.83 0.00 L 58.78 0.00 C 65.52 0.72 71.07 6.19 71.99 12.90 L 72.00 10.76 L 72.00 58.63 C 71.36 65.04 66.46 70.55 60.07 71.74 L 63.59 72.00 L 13.00 72.00 C 6.61 71.22 0.87 65.95 0.42 59.36 L 0.00 63.15 L 0.00 13.31 C 0.71 6.78 5.91 0.80 12.70 0.42 L 8.83 0.00 M 14.19 7.20 C 10.18 7.20 6.84 11.09 7.14 15.03 C 7.10 29.03 7.08 43.03 7.15 57.03 C 6.82 61.25 10.66 65.17 14.90 64.86 C 28.95 64.89 43.01 64.92 57.06 64.85 C 61.28 65.15 65.18 61.30 64.85 57.07 C 64.91 43.04 64.91 29.00 64.86 14.97 C 65.19 10.77 61.36 6.86 57.15 7.13 C 42.83 7.14 28.51 7.01 14.19 7.20 Z" />
</g>
</svg>
