<?xml version="1.0" encoding="UTF-8" standalone="no"?>
<!DOCTYPE svg PUBLIC "-//W3C//DTD SVG 1.1//EN" "http://www.w3.org/Graphics/SVG/1.1/DTD/svg11.dtd">
<svg xmlns="http://www.w3.org/2000/svg" version="1.1" viewBox="0.00 0.00 69.00 56.00">
<g stroke-width="2.00" fill="none" stroke-linecap="butt">
<path stroke="#eb88a3" vector-effect="non-scaling-stroke" d="
  M 62.95 30.25
  Q 60.98 31.82 58.90 33.12
  C 51.13 38.00 40.96 35.88 35.97 28.25
  Q 31.33 21.15 34.45 12.09"
/>
<path stroke="#7facc9" vector-effect="non-scaling-stroke" d="
  M 61.98 35.22
  L 59.03 38.43
  Q 58.67 38.83 58.67 39.36
  Q 58.68 43.09 58.52 46.74
  C 58.38 49.88 55.15 50.21 52.76 50.21
  Q 31.44 50.21 10.21 50.22
  Q 5.27 50.22 5.27 45.28
  L 5.27 25.50
  Q 5.27 20.77 10.00 20.77
  L 28.50 20.78
  Q 29.00 20.78 28.99 20.29
  L 28.89 16.72"
/>
<path stroke="#eb88a3" vector-effect="non-scaling-stroke" d="
  M 63.20 19.01
  A 13.19 13.19 0.0 0 0 50.01 5.82
  A 13.19 13.19 0.0 0 0 36.82 19.01
  A 13.19 13.19 0.0 0 0 50.01 32.20
  A 13.19 13.19 0.0 0 0 63.20 19.01"
/>
<path stroke="#eb88a3" vector-effect="non-scaling-stroke" d="
  M 52.61 9.40
  L 47.37 9.40
  A 0.27 0.27 0.0 0 0 47.10 9.67
  L 47.10 12.01
  A 11.29 1.69 90.0 0 0 48.79 23.30
  L 51.19 23.30
  A 11.29 1.69 -90.0 0 0 52.88 12.01
  L 52.88 9.67
  A 0.27 0.27 0.0 0 0 52.61 9.40"
/>
<path stroke="#eb88a3" vector-effect="non-scaling-stroke" d="
  M 52.7881 25.0943
  A 0.35 0.35 0.0 0 0 52.4412 24.7412
  L 47.6014 24.6990
  A 0.35 0.35 0.0 0 0 47.2483 25.0459
  L 47.2119 29.2257
  A 0.35 0.35 0.0 0 0 47.5588 29.5788
  L 52.3986 29.6210
  A 0.35 0.35 0.0 0 0 52.7517 29.2741
  L 52.7881 25.0943"
/>
<path stroke="#7facc9" vector-effect="non-scaling-stroke" d="
  M 29.65 25.94
  A 0.62 0.61 -33.9 0 1 29.44 26.98
  C 25.32 28.41 23.47 33.02 26.30 36.53
  C 28.13 38.80 30.56 38.77 33.21 38.82
  A 1.88 1.88 0.0 0 1 35.03 40.39
  C 35.60 43.77 31.35 43.23 29.31 43.04
  Q 28.74 42.99 28.52 42.45
  C 28.23 41.71 28.24 40.96 27.53 40.46
  C 26.58 39.78 24.98 40.06 24.65 41.32
  C 23.92 44.10 26.57 46.28 29.09 46.65
  A 0.74 0.74 0.0 0 1 29.72 47.28
  L 29.90 48.39
  A 1.66 1.65 13.4 0 0 30.56 49.46
  Q 31.75 50.32 32.94 49.40
  Q 33.44 49.01 33.49 48.37
  L 33.59 47.20
  A 0.74 0.74 0.0 0 1 34.17 46.53
  C 41.84 44.82 39.77 34.39 31.70 35.20
  Q 29.46 35.42 28.89 33.29
  A 2.25 2.25 0.0 0 1 30.92 30.46
  L 31.54 30.42
  Q 32.24 30.38 31.94 29.75
  L 29.97 25.63
  Q 29.80 25.27 29.62 25.63
  Q 29.52 25.82 29.65 25.94"
/>
<path stroke="#7facc9" vector-effect="non-scaling-stroke" d="
  M 15.7502 36.9057
  A 1.67 1.67 0.0 0 0 14.0831 35.2328
  L 10.9231 35.2272
  A 1.67 1.67 0.0 0 0 9.2502 36.8943
  L 9.2498 37.0943
  A 1.67 1.67 0.0 0 0 10.9169 38.7672
  L 14.0769 38.7728
  A 1.67 1.67 0.0 0 0 15.7498 37.1057
  L 15.7502 36.9057"
/>
</g>
<path fill="#d81147" d="
  M 62.95 30.25
  Q 60.98 31.82 58.90 33.12
  C 51.13 38.00 40.96 35.88 35.97 28.25
  Q 31.33 21.15 34.45 12.09
  Q 36.58 8.00 40.64 5.18
  C 46.61 1.03 53.77 1.04 59.67 5.34
  C 68.01 11.42 69.16 22.08 62.95 30.25
  Z
  M 63.20 19.01
  A 13.19 13.19 0.0 0 0 50.01 5.82
  A 13.19 13.19 0.0 0 0 36.82 19.01
  A 13.19 13.19 0.0 0 0 50.01 32.20
  A 13.19 13.19 0.0 0 0 63.20 19.01
  Z"
/>
<path fill="#fefefe" d="
  M 63.20 19.01
  A 13.19 13.19 0.0 0 1 50.01 32.20
  A 13.19 13.19 0.0 0 1 36.82 19.01
  A 13.19 13.19 0.0 0 1 50.01 5.82
  A 13.19 13.19 0.0 0 1 63.20 19.01
  Z
  M 52.61 9.40
  L 47.37 9.40
  A 0.27 0.27 0.0 0 0 47.10 9.67
  L 47.10 12.01
  A 11.29 1.69 90.0 0 0 48.79 23.30
  L 51.19 23.30
  A 11.29 1.69 -90.0 0 0 52.88 12.01
  L 52.88 9.67
  A 0.27 0.27 0.0 0 0 52.61 9.40
  Z
  M 52.7881 25.0943
  A 0.35 0.35 0.0 0 0 52.4412 24.7412
  L 47.6014 24.6990
  A 0.35 0.35 0.0 0 0 47.2483 25.0459
  L 47.2119 29.2257
  A 0.35 0.35 0.0 0 0 47.5588 29.5788
  L 52.3986 29.6210
  A 0.35 0.35 0.0 0 0 52.7517 29.2741
  L 52.7881 25.0943
  Z"
/>
<path fill="#d81147" d="
  M 52.61 9.40
  A 0.27 0.27 0.0 0 1 52.88 9.67
  L 52.88 12.01
  A 11.29 1.69 90.0 0 1 51.19 23.30
  L 48.79 23.30
  A 11.29 1.69 -90.0 0 1 47.10 12.01
  L 47.10 9.67
  A 0.27 0.27 0.0 0 1 47.37 9.40
  L 52.61 9.40
  Z"
/>
<path fill="#fefefe" d="
  M 34.45 12.09
  Q 31.33 21.15 35.97 28.25
  C 40.96 35.88 51.13 38.00 58.90 33.12
  Q 60.98 31.82 62.95 30.25
  Q 61.35 32.75 61.98 35.22
  L 59.03 38.43
  Q 58.67 38.83 58.67 39.36
  Q 58.68 43.09 58.52 46.74
  C 58.38 49.88 55.15 50.21 52.76 50.21
  Q 31.44 50.21 10.21 50.22
  Q 5.27 50.22 5.27 45.28
  L 5.27 25.50
  Q 5.27 20.77 10.00 20.77
  L 28.50 20.78
  Q 29.00 20.78 28.99 20.29
  L 28.89 16.72
  Q 32.19 15.26 34.45 12.09
  Z
  M 29.65 25.94
  A 0.62 0.61 -33.9 0 1 29.44 26.98
  C 25.32 28.41 23.47 33.02 26.30 36.53
  C 28.13 38.80 30.56 38.77 33.21 38.82
  A 1.88 1.88 0.0 0 1 35.03 40.39
  C 35.60 43.77 31.35 43.23 29.31 43.04
  Q 28.74 42.99 28.52 42.45
  C 28.23 41.71 28.24 40.96 27.53 40.46
  C 26.58 39.78 24.98 40.06 24.65 41.32
  C 23.92 44.10 26.57 46.28 29.09 46.65
  A 0.74 0.74 0.0 0 1 29.72 47.28
  L 29.90 48.39
  A 1.66 1.65 13.4 0 0 30.56 49.46
  Q 31.75 50.32 32.94 49.40
  Q 33.44 49.01 33.49 48.37
  L 33.59 47.20
  A 0.74 0.74 0.0 0 1 34.17 46.53
  C 41.84 44.82 39.77 34.39 31.70 35.20
  Q 29.46 35.42 28.89 33.29
  A 2.25 2.25 0.0 0 1 30.92 30.46
  L 31.54 30.42
  Q 32.24 30.38 31.94 29.75
  L 29.97 25.63
  Q 29.80 25.27 29.62 25.63
  Q 29.52 25.82 29.65 25.94
  Z
  M 15.7502 36.9057
  A 1.67 1.67 0.0 0 0 14.0831 35.2328
  L 10.9231 35.2272
  A 1.67 1.67 0.0 0 0 9.2502 36.8943
  L 9.2498 37.0943
  A 1.67 1.67 0.0 0 0 10.9169 38.7672
  L 14.0769 38.7728
  A 1.67 1.67 0.0 0 0 15.7498 37.1057
  L 15.7502 36.9057
  Z"
/>
<path fill="#005993" d="
  M 28.89 16.72
  L 28.99 20.29
  Q 29.00 20.78 28.50 20.78
  L 10.00 20.77
  Q 5.27 20.77 5.27 25.50
  L 5.27 45.28
  Q 5.27 50.22 10.21 50.22
  Q 31.44 50.21 52.76 50.21
  C 55.15 50.21 58.38 49.88 58.52 46.74
  Q 58.68 43.09 58.67 39.36
  Q 58.67 38.83 59.03 38.43
  L 61.98 35.22
  Q 62.60 38.61 62.48 44.77
  C 62.33 52.13 57.84 54.05 51.26 54.00
  Q 29.85 53.86 11.34 53.93
  Q 1.82 53.96 1.60 44.94
  Q 1.40 37.13 1.56 26.40
  Q 1.64 20.74 5.51 18.39
  Q 7.60 17.13 13.65 17.11
  Q 21.34 17.10 28.89 16.72
  Z"
/>
<rect fill="#d81147" x="-2.77" y="-2.44" transform="translate(50.00,27.16) rotate(0.5)" width="5.54" height="4.88" rx="0.35"/>
<path fill="#005993" d="
  M 29.65 25.94
  Q 29.52 25.82 29.62 25.63
  Q 29.80 25.27 29.97 25.63
  L 31.94 29.75
  Q 32.24 30.38 31.54 30.42
  L 30.92 30.46
  A 2.25 2.25 0.0 0 0 28.89 33.29
  Q 29.46 35.42 31.70 35.20
  C 39.77 34.39 41.84 44.82 34.17 46.53
  A 0.74 0.74 0.0 0 0 33.59 47.20
  L 33.49 48.37
  Q 33.44 49.01 32.94 49.40
  Q 31.75 50.32 30.56 49.46
  A 1.66 1.65 13.4 0 1 29.90 48.39
  L 29.72 47.28
  A 0.74 0.74 0.0 0 0 29.09 46.65
  C 26.57 46.28 23.92 44.10 24.65 41.32
  C 24.98 40.06 26.58 39.78 27.53 40.46
  C 28.24 40.96 28.23 41.71 28.52 42.45
  Q 28.74 42.99 29.31 43.04
  C 31.35 43.23 35.60 43.77 35.03 40.39
  A 1.88 1.88 0.0 0 0 33.21 38.82
  C 30.56 38.77 28.13 38.80 26.30 36.53
  C 23.47 33.02 25.32 28.41 29.44 26.98
  A 0.62 0.61 -33.9 0 0 29.65 25.94
  Z"
/>
<rect fill="#005993" x="-3.25" y="-1.77" transform="translate(12.50,37.00) rotate(0.1)" width="6.50" height="3.54" rx="1.67"/>
</svg>
