<?xml version="1.0" encoding="UTF-8" ?>
<!DOCTYPE svg PUBLIC "-//W3C//DTD SVG 1.1//EN" "http://www.w3.org/Graphics/SVG/1.1/DTD/svg11.dtd">
<svg width="196pt" height="59pt" viewBox="0 0 196 59" version="1.1" xmlns="http://www.w3.org/2000/svg">
<g id="#d9e1e7ff">
<path fill="#d9e1e7" opacity="1.00" d=" M 21.76 3.72 C 28.45 2.50 35.26 3.07 42.01 2.95 C 80.68 2.82 119.35 2.91 158.02 2.87 C 165.10 2.99 172.53 2.41 179.08 5.65 C 179.60 5.90 180.64 6.42 181.16 6.68 C 182.73 7.78 184.22 9.00 185.65 10.29 C 185.91 10.55 186.45 11.08 186.72 11.34 C 188.00 12.78 189.21 14.28 190.34 15.85 C 190.80 16.91 191.29 17.96 191.77 19.02 C 192.30 20.31 192.81 21.60 193.35 22.89 C 194.15 27.60 194.10 32.41 193.35 37.12 C 192.82 38.42 192.35 39.73 191.84 41.03 C 191.38 42.10 190.89 43.16 190.43 44.23 C 189.24 45.75 187.99 47.23 186.73 48.70 C 186.48 48.96 185.97 49.47 185.72 49.73 C 184.24 50.99 182.72 52.20 181.15 53.35 C 180.65 53.61 179.66 54.12 179.16 54.37 C 177.49 55.02 175.82 55.67 174.17 56.35 C 171.12 56.70 168.05 57.07 164.97 57.06 C 121.64 57.05 78.31 57.05 34.98 57.06 C 28.86 57.08 22.42 57.29 16.86 54.30 C 16.36 54.05 15.34 53.57 14.84 53.32 C 13.27 52.21 11.78 51.00 10.34 49.72 C 10.08 49.39 9.56 48.73 9.30 48.41 L 8.80 48.32 C 7.75 46.93 6.68 45.56 5.66 44.15 C 5.18 43.10 4.69 42.05 4.21 40.99 C 3.82 39.99 3.43 38.98 3.04 37.97 C 1.24 31.34 1.68 24.08 4.69 17.87 C 4.94 17.37 5.44 16.37 5.69 15.87 C 6.78 14.27 8.00 12.77 9.30 11.35 C 9.57 11.09 10.09 10.56 10.35 10.29 C 11.79 9.01 13.33 7.83 14.93 6.75 C 15.42 6.47 16.38 5.92 16.87 5.64 C 18.30 5.09 19.75 4.56 21.23 4.12 L 21.76 3.72 M 24.39 6.46 C 16.87 7.86 10.17 13.09 7.13 20.13 C 3.55 27.86 4.58 37.43 9.67 44.26 C 14.26 50.66 22.17 54.28 29.99 54.01 C 75.70 53.97 121.42 54.04 167.13 53.97 C 175.77 54.05 184.21 49.01 188.18 41.33 C 192.04 34.19 191.92 25.09 187.83 18.07 C 183.76 10.68 175.48 5.98 167.07 6.02 C 123.72 5.97 80.37 6.02 37.01 5.99 C 32.80 6.02 28.56 5.76 24.39 6.46 Z" />
</g>
<g id="#fefefeff">
<path fill="#fefefe" opacity="1.00" d=" M 24.39 6.46 C 28.56 5.76 32.80 6.02 37.01 5.99 C 80.37 6.02 123.72 5.97 167.07 6.02 C 175.48 5.98 183.76 10.68 187.83 18.07 C 191.92 25.09 192.04 34.19 188.18 41.33 C 184.21 49.01 175.77 54.05 167.13 53.97 C 121.42 54.04 75.70 53.97 29.99 54.01 C 22.17 54.28 14.26 50.66 9.67 44.26 C 4.58 37.43 3.55 27.86 7.13 20.13 C 10.17 13.09 16.87 7.86 24.39 6.46 M 159.44 17.39 C 156.04 25.41 152.25 33.27 148.96 41.34 C 151.06 41.09 151.60 38.95 152.37 37.33 C 155.72 29.40 159.51 21.65 162.70 13.65 C 160.67 13.86 160.19 15.92 159.44 17.39 M 18.96 17.00 C 18.95 24.00 18.95 31.00 18.95 38.00 C 20.33 38.00 21.71 38.00 23.09 38.00 C 23.09 33.73 23.09 29.46 23.09 25.19 C 26.12 29.45 29.09 33.74 32.10 38.01 C 32.88 38.01 34.45 38.00 35.24 37.99 C 35.24 31.00 35.24 24.00 35.24 17.00 C 33.86 17.00 32.47 17.00 31.09 17.00 C 31.10 21.26 31.10 25.51 31.09 29.77 C 28.07 25.53 25.10 21.25 22.10 17.00 C 21.31 17.00 19.74 17.00 18.96 17.00 M 38.77 17.00 C 38.77 24.00 38.77 31.00 38.77 38.00 C 40.07 38.00 41.36 38.00 42.65 37.99 C 42.69 34.68 42.36 31.32 42.98 28.05 C 43.81 25.62 48.12 25.51 48.68 28.14 C 49.16 31.40 48.86 34.71 48.90 38.00 C 50.19 38.00 51.48 38.00 52.78 38.00 C 52.61 33.95 53.33 29.73 52.14 25.80 C 50.54 21.96 45.40 21.94 42.56 24.37 C 42.63 21.92 42.65 19.46 42.66 17.01 C 41.36 17.00 40.07 17.00 38.77 17.00 M 92.27 17.00 C 92.27 24.00 92.27 31.00 92.27 38.00 C 93.56 38.00 94.85 38.00 96.14 38.00 C 96.19 34.76 95.87 31.49 96.43 28.29 C 97.00 25.69 101.47 25.38 102.16 28.05 C 102.66 31.34 102.36 34.69 102.40 38.00 C 103.69 38.00 104.98 38.00 106.27 37.99 C 106.07 33.86 106.92 29.50 105.50 25.53 C 103.76 21.87 98.81 22.07 96.04 24.41 C 96.12 21.94 96.15 19.47 96.15 17.00 C 94.86 17.00 93.56 17.00 92.27 17.00 M 116.00 20.90 C 117.20 21.62 118.40 22.35 119.60 23.07 C 120.02 22.52 120.87 21.41 121.30 20.86 C 123.11 20.56 125.75 20.66 125.90 23.07 C 124.74 29.32 116.20 31.39 116.09 37.96 C 120.84 38.03 125.60 37.99 130.35 38.00 C 130.35 36.67 130.35 35.34 130.35 34.01 C 127.73 34.00 125.11 34.00 122.49 34.00 C 125.96 30.38 131.76 26.22 129.42 20.45 C 126.86 14.96 118.59 15.81 116.00 20.90 M 138.51 17.08 C 136.26 22.89 131.41 27.91 131.48 34.42 C 134.84 34.43 138.19 34.43 141.55 34.43 C 141.55 35.62 141.56 36.81 141.57 38.00 C 142.95 38.00 144.34 38.00 145.73 38.00 C 145.73 37.12 145.73 35.37 145.73 34.49 C 146.30 34.47 147.43 34.41 147.99 34.38 C 147.99 33.13 147.99 31.89 147.99 30.64 C 147.42 30.61 146.30 30.56 145.73 30.53 C 145.73 28.89 145.72 27.25 145.72 25.60 C 144.33 25.61 142.95 25.61 141.57 25.62 C 141.56 27.28 141.56 28.93 141.56 30.59 C 139.74 30.59 137.92 30.59 136.11 30.59 C 138.41 26.05 140.76 21.52 143.07 16.97 C 141.54 17.00 140.03 17.04 138.51 17.08 M 164.38 17.00 C 164.38 18.32 164.38 19.64 164.39 20.96 C 167.37 20.96 170.36 20.97 173.34 20.97 C 171.06 26.65 168.75 32.32 166.46 37.99 C 167.92 38.00 169.38 38.00 170.84 38.01 C 173.16 30.98 177.59 24.51 178.13 17.02 C 173.55 16.99 168.96 17.00 164.38 17.00 M 55.58 30.92 C 55.37 36.71 62.82 40.79 67.26 36.64 C 67.93 38.47 70.03 37.86 71.54 38.12 C 71.54 33.04 71.54 27.96 71.54 22.88 C 70.03 23.13 67.94 22.54 67.26 24.36 C 62.52 19.94 54.75 24.86 55.58 30.92 M 74.78 22.79 C 74.76 27.86 74.78 32.93 74.77 38.00 C 76.07 38.00 77.36 38.00 78.65 37.99 C 78.69 34.69 78.36 31.34 78.97 28.08 C 79.77 25.60 84.17 25.50 84.69 28.18 C 85.15 31.43 84.86 34.73 84.90 38.00 C 86.19 38.00 87.48 38.00 88.78 38.00 C 88.61 33.94 89.34 29.71 88.12 25.77 C 86.70 22.32 82.39 22.12 79.44 23.60 C 77.89 23.31 76.34 23.04 74.78 22.79 Z" />
<path fill="#fefefe" opacity="1.00" d=" M 62.43 26.44 C 65.11 25.61 68.01 28.05 67.62 30.84 C 67.61 33.73 64.21 35.57 61.70 34.32 C 58.31 32.93 58.78 27.15 62.43 26.44 Z" />
</g>
<g id="#4cb945fe">
<path fill="#4cb945" opacity="1.00" d=" M 159.44 17.39 C 160.19 15.92 160.67 13.86 162.70 13.65 C 159.51 21.65 155.72 29.40 152.37 37.33 C 151.60 38.95 151.06 41.09 148.96 41.34 C 152.25 33.27 156.04 25.41 159.44 17.39 Z" />
<path fill="#4cb945" opacity="1.00" d=" M 164.38 17.00 C 168.96 17.00 173.55 16.99 178.13 17.02 C 177.59 24.51 173.16 30.98 170.84 38.01 C 169.38 38.00 167.92 38.00 166.46 37.99 C 168.75 32.32 171.06 26.65 173.34 20.97 C 170.36 20.97 167.37 20.96 164.39 20.96 C 164.38 19.64 164.38 18.32 164.38 17.00 Z" />
</g>
<g id="#2183dbff">
<path fill="#2183db" opacity="1.00" d=" M 18.96 17.00 C 19.74 17.00 21.31 17.00 22.10 17.00 C 25.10 21.25 28.07 25.53 31.09 29.77 C 31.10 25.51 31.10 21.26 31.09 17.00 C 32.47 17.00 33.86 17.00 35.24 17.00 C 35.24 24.00 35.24 31.00 35.24 37.99 C 34.45 38.00 32.88 38.01 32.10 38.01 C 29.09 33.74 26.12 29.45 23.09 25.19 C 23.09 29.46 23.09 33.73 23.09 38.00 C 21.71 38.00 20.33 38.00 18.95 38.00 C 18.95 31.00 18.95 24.00 18.96 17.00 Z" />
<path fill="#2183db" opacity="1.00" d=" M 38.77 17.00 C 40.07 17.00 41.36 17.00 42.66 17.01 C 42.65 19.46 42.63 21.92 42.56 24.37 C 45.40 21.94 50.54 21.96 52.14 25.80 C 53.33 29.73 52.61 33.95 52.78 38.00 C 51.48 38.00 50.19 38.00 48.90 38.00 C 48.86 34.71 49.16 31.40 48.68 28.14 C 48.12 25.51 43.81 25.62 42.98 28.05 C 42.36 31.32 42.69 34.68 42.65 37.99 C 41.36 38.00 40.07 38.00 38.77 38.00 C 38.77 31.00 38.77 24.00 38.77 17.00 Z" />
<path fill="#2183db" opacity="1.00" d=" M 92.27 17.00 C 93.56 17.00 94.86 17.00 96.15 17.00 C 96.15 19.47 96.12 21.94 96.04 24.41 C 98.81 22.07 103.76 21.87 105.50 25.53 C 106.92 29.50 106.07 33.86 106.27 37.99 C 104.98 38.00 103.69 38.00 102.40 38.00 C 102.36 34.69 102.66 31.34 102.16 28.05 C 101.47 25.38 97.00 25.69 96.43 28.29 C 95.87 31.49 96.19 34.76 96.14 38.00 C 94.85 38.00 93.56 38.00 92.27 38.00 C 92.27 31.00 92.27 24.00 92.27 17.00 Z" />
<path fill="#2183db" opacity="1.00" d=" M 116.00 20.90 C 118.59 15.81 126.86 14.96 129.42 20.45 C 131.76 26.22 125.96 30.38 122.49 34.00 C 125.11 34.00 127.73 34.00 130.35 34.01 C 130.35 35.34 130.35 36.67 130.35 38.00 C 125.60 37.99 120.84 38.03 116.09 37.96 C 116.20 31.39 124.74 29.32 125.90 23.07 C 125.75 20.66 123.11 20.56 121.30 20.86 C 120.87 21.41 120.02 22.52 119.60 23.07 C 118.40 22.35 117.20 21.62 116.00 20.90 Z" />
<path fill="#2183db" opacity="1.00" d=" M 138.51 17.08 C 140.03 17.04 141.54 17.00 143.07 16.97 C 140.76 21.52 138.41 26.05 136.11 30.59 C 137.92 30.59 139.74 30.59 141.56 30.59 C 141.56 28.93 141.56 27.28 141.57 25.62 C 142.95 25.61 144.33 25.61 145.72 25.60 C 145.72 27.25 145.73 28.89 145.73 30.53 C 146.30 30.56 147.42 30.61 147.99 30.64 C 147.99 31.89 147.99 33.13 147.99 34.38 C 147.43 34.41 146.30 34.47 145.73 34.49 C 145.73 35.37 145.73 37.12 145.73 38.00 C 144.34 38.00 142.95 38.00 141.57 38.00 C 141.56 36.81 141.55 35.62 141.55 34.43 C 138.19 34.43 134.84 34.43 131.48 34.42 C 131.41 27.91 136.26 22.89 138.51 17.08 Z" />
<path fill="#2183db" opacity="1.00" d=" M 55.58 30.92 C 54.75 24.86 62.52 19.94 67.26 24.36 C 67.94 22.54 70.03 23.13 71.54 22.88 C 71.54 27.96 71.54 33.04 71.54 38.12 C 70.03 37.86 67.93 38.47 67.26 36.64 C 62.82 40.79 55.37 36.71 55.58 30.92 M 62.43 26.44 C 58.78 27.15 58.31 32.93 61.70 34.32 C 64.21 35.57 67.61 33.73 67.62 30.84 C 68.01 28.05 65.11 25.61 62.43 26.44 Z" />
<path fill="#2183db" opacity="1.00" d=" M 74.78 22.79 C 76.34 23.04 77.89 23.31 79.44 23.60 C 82.39 22.12 86.70 22.32 88.12 25.77 C 89.34 29.71 88.61 33.94 88.78 38.00 C 87.48 38.00 86.19 38.00 84.90 38.00 C 84.86 34.73 85.15 31.43 84.69 28.18 C 84.17 25.50 79.77 25.60 78.97 28.08 C 78.36 31.34 78.69 34.69 78.65 37.99 C 77.36 38.00 76.07 38.00 74.77 38.00 C 74.78 32.93 74.76 27.86 74.78 22.79 Z" />
</g>
</svg>
