<?xml version="1.0" encoding="UTF-8" standalone="no"?>
<!DOCTYPE svg PUBLIC "-//W3C//DTD SVG 1.1//EN" "http://www.w3.org/Graphics/SVG/1.1/DTD/svg11.dtd">
<svg xmlns="http://www.w3.org/2000/svg" version="1.1" viewBox="0.00 0.00 64.00 58.00">
<g stroke-width="2.00" fill="none" stroke-linecap="butt">
<path stroke="#80a9bc" vector-effect="non-scaling-stroke" d="
  M 36.75 7.41
  A 5.48 5.48 0.0 0 0 27.26 7.41
  L 5.30 45.46
  A 5.48 5.48 0.0 0 0 10.04 53.68
  L 53.96 53.67
  A 5.48 5.48 0.0 0 0 58.70 45.45
  L 36.75 7.41"
/>
<path stroke="#eb8697" vector-effect="non-scaling-stroke" d="
  M 29.95 34.78
  A 1.02 1.02 0.0 0 0 30.95 35.74
  L 33.09 35.79
  A 1.02 1.02 0.0 0 0 34.13 34.83
  L 35.00 20.05
  A 1.02 1.02 0.0 0 0 33.97 18.97
  L 30.06 18.99
  A 1.02 1.02 0.0 0 0 29.05 20.07
  L 29.95 34.78"
/>
<path stroke="#eb8697" vector-effect="non-scaling-stroke" d="
  M 35.07 41.61
  A 3.03 3.03 0.0 0 0 32.04 38.58
  A 3.03 3.03 0.0 0 0 29.01 41.61
  A 3.03 3.03 0.0 0 0 32.04 44.64
  A 3.03 3.03 0.0 0 0 35.07 41.61"
/>
</g>
<path fill="#005993" d="
  M 2.19 43.64
  L 24.31 5.41
  A 8.91 8.91 0.0 0 1 39.73 5.41
  L 61.85 43.64
  A 8.91 8.91 0.0 0 1 54.14 57.02
  L 9.90 57.02
  A 8.91 8.91 0.0 0 1 2.19 43.64
  Z
  M 36.75 7.41
  A 5.48 5.48 0.0 0 0 27.26 7.41
  L 5.30 45.46
  A 5.48 5.48 0.0 0 0 10.04 53.68
  L 53.96 53.67
  A 5.48 5.48 0.0 0 0 58.70 45.45
  L 36.75 7.41
  Z"
/>
<path fill="#fff9e4" d="
  M 36.75 7.41
  L 58.70 45.45
  A 5.48 5.48 0.0 0 1 53.96 53.67
  L 10.04 53.68
  A 5.48 5.48 0.0 0 1 5.30 45.46
  L 27.26 7.41
  A 5.48 5.48 0.0 0 1 36.75 7.41
  Z
  M 29.95 34.78
  A 1.02 1.02 0.0 0 0 30.95 35.74
  L 33.09 35.79
  A 1.02 1.02 0.0 0 0 34.13 34.83
  L 35.00 20.05
  A 1.02 1.02 0.0 0 0 33.97 18.97
  L 30.06 18.99
  A 1.02 1.02 0.0 0 0 29.05 20.07
  L 29.95 34.78
  Z
  M 35.07 41.61
  A 3.03 3.03 0.0 0 0 32.04 38.58
  A 3.03 3.03 0.0 0 0 29.01 41.61
  A 3.03 3.03 0.0 0 0 32.04 44.64
  A 3.03 3.03 0.0 0 0 35.07 41.61
  Z"
/>
<path fill="#d71249" d="
  M 29.95 34.78
  L 29.05 20.07
  A 1.02 1.02 0.0 0 1 30.06 18.99
  L 33.97 18.97
  A 1.02 1.02 0.0 0 1 35.00 20.05
  L 34.13 34.83
  A 1.02 1.02 0.0 0 1 33.09 35.79
  L 30.95 35.74
  A 1.02 1.02 0.0 0 1 29.95 34.78
  Z"
/>
<circle fill="#d71249" cx="32.04" cy="41.61" r="3.03"/>
</svg>
