<?xml version="1.0" encoding="UTF-8" standalone="no"?>
<!DOCTYPE svg PUBLIC "-//W3C//DTD SVG 1.1//EN" "http://www.w3.org/Graphics/SVG/1.1/DTD/svg11.dtd">
<svg xmlns="http://www.w3.org/2000/svg" version="1.1" viewBox="0.00 0.00 70.00 70.00">
<path fill="#d71248" d="
  M 4.20 4.54
  L 4.15 10.59
  Q 4.14 11.80 3.10 12.43
  Q 2.62 12.71 1.98 12.53
  A 1.35 1.35 0.0 0 1 1.01 11.25
  L 0.98 2.24
  Q 0.97 0.20 3.01 0.21
  L 11.16 0.24
  Q 12.72 0.24 12.53 1.79
  Q 12.51 2.01 12.53 2.24
  Q 12.69 3.74 11.17 3.75
  L 4.95 3.79
  Q 4.20 3.79 4.20 4.54
  Z"
/>
<path fill="#d71248" d="
  M 64.78 3.79
  L 59.23 3.78
  Q 57.53 3.78 57.41 2.08
  Q 57.39 1.90 57.38 1.72
  A 1.37 1.37 0.0 0 1 58.74 0.25
  L 66.91 0.19
  Q 68.92 0.18 68.98 2.19
  Q 69.13 7.11 68.90 11.17
  Q 68.83 12.44 67.60 12.68
  Q 67.49 12.70 67.39 12.67
  Q 65.86 12.25 65.86 10.56
  Q 65.87 7.48 65.66 4.61
  A 0.88 0.88 0.0 0 0 64.78 3.79
  Z"
/>
<path fill="#015995" d="
  M 33.71 28.22
  A 5.43 5.43 0.0 0 1 28.28 33.65
  L 14.58 33.65
  A 5.43 5.43 0.0 0 1 9.15 28.22
  L 9.15 14.52
  A 5.43 5.43 0.0 0 1 14.58 9.09
  L 28.28 9.09
  A 5.43 5.43 0.0 0 1 33.71 14.52
  L 33.71 28.22
  Z
  M 29.9763 14.6601
  A 1.77 1.77 0.0 0 0 28.2001 12.8962
  L 14.5602 12.9439
  A 1.77 1.77 0.0 0 0 12.7964 14.7200
  L 12.8437 28.2599
  A 1.77 1.77 0.0 0 0 14.6199 30.0238
  L 28.2598 29.9761
  A 1.77 1.77 0.0 0 0 30.0236 28.2000
  L 29.9763 14.6601
  Z"
/>
<path fill="#015995" d="
  M 60.9141 28.2471
  A 5.34 5.34 0.0 0 1 55.5928 33.6057
  L 41.7328 33.6541
  A 5.34 5.34 0.0 0 1 36.3742 28.3328
  L 36.3259 14.4929
  A 5.34 5.34 0.0 0 1 41.6472 9.1343
  L 55.5072 9.0859
  A 5.34 5.34 0.0 0 1 60.8658 14.4072
  L 60.9141 28.2471
  Z
  M 57.0671 14.0851
  A 1.18 1.18 0.0 0 0 55.8851 12.9072
  L 41.1651 12.9329
  A 1.18 1.18 0.0 0 0 39.9872 14.1149
  L 40.0129 28.8349
  A 1.18 1.18 0.0 0 0 41.1949 30.0128
  L 55.9149 29.9871
  A 1.18 1.18 0.0 0 0 57.0928 28.8051
  L 57.0671 14.0851
  Z"
/>
<path fill="#015995" d="
  M 27.0020 22.6089
  A 4.44 4.44 0.0 0 1 22.5311 27.0178
  L 20.2511 27.0019
  A 4.44 4.44 0.0 0 1 15.8422 22.5310
  L 15.8580 20.2711
  A 4.44 4.44 0.0 0 1 20.3289 15.8622
  L 22.6089 15.8781
  A 4.44 4.44 0.0 0 1 27.0178 20.3490
  L 27.0020 22.6089
  Z
  M 23.69 21.35
  A 2.35 2.35 0.0 0 0 21.34 19.00
  A 2.35 2.35 0.0 0 0 18.99 21.35
  A 2.35 2.35 0.0 0 0 21.34 23.70
  A 2.35 2.35 0.0 0 0 23.69 21.35
  Z"
/>
<path fill="#015995" d="
  M 54.1319 22.6190
  A 4.45 4.45 0.0 0 1 49.6509 27.0378
  L 47.3710 27.0219
  A 4.45 4.45 0.0 0 1 42.9522 22.5409
  L 42.9681 20.2610
  A 4.45 4.45 0.0 0 1 47.4491 15.8422
  L 49.7290 15.8581
  A 4.45 4.45 0.0 0 1 54.1478 20.3391
  L 54.1319 22.6190
  Z
  M 51.02 21.43
  A 2.44 2.44 0.0 0 0 48.58 18.99
  A 2.44 2.44 0.0 0 0 46.14 21.43
  A 2.44 2.44 0.0 0 0 48.58 23.87
  A 2.44 2.44 0.0 0 0 51.02 21.43
  Z"
/>
<path fill="#015995" d="
  M 33.6961 55.5129
  A 5.46 5.46 0.0 0 1 28.2171 60.9538
  L 14.5571 60.9061
  A 5.46 5.46 0.0 0 1 9.1162 55.4271
  L 9.1639 41.7671
  A 5.46 5.46 0.0 0 1 14.6429 36.3262
  L 28.3029 36.3739
  A 5.46 5.46 0.0 0 1 33.7438 41.8529
  L 33.6961 55.5129
  Z
  M 30.0235 41.8100
  A 1.78 1.78 0.0 0 0 28.2498 40.0238
  L 14.6299 39.9763
  A 1.78 1.78 0.0 0 0 12.8436 41.7501
  L 12.7965 55.2700
  A 1.78 1.78 0.0 0 0 14.5702 57.0562
  L 28.1901 57.1037
  A 1.78 1.78 0.0 0 0 29.9764 55.3299
  L 30.0235 41.8100
  Z"
/>
<path fill="#d71248" d="
  M 49.24 44.33
  C 52.41 44.27 57.59 43.63 59.83 46.41
  C 61.45 48.41 60.64 52.02 60.83 54.58
  Q 61.02 57.18 59.67 58.90
  C 57.59 61.57 53.59 60.85 50.49 60.94
  C 43.37 61.15 44.17 54.12 44.41 49.31
  Q 44.44 48.66 43.82 48.47
  Q 42.25 48.00 40.52 47.79
  C 38.02 47.48 36.42 44.96 36.44 42.64
  Q 36.47 36.21 42.60 36.36
  Q 44.56 36.41 46.30 37.74
  C 48.14 39.15 47.80 41.69 48.44 43.75
  Q 48.62 44.34 49.24 44.33
  Z
  M 43.5324 43.9644
  A 2.36 2.24 51.4 0 0 43.8106 40.7225
  A 2.36 2.24 51.4 0 0 40.5876 40.2756
  A 2.36 2.24 51.4 0 0 40.3094 43.5175
  A 2.36 2.24 51.4 0 0 43.5324 43.9644
  Z
  M 57.1485 49.2841
  A 1.29 1.29 0.0 0 0 55.8540 47.9986
  L 49.2940 48.0215
  A 1.29 1.29 0.0 0 0 48.0085 49.3160
  L 48.0315 55.8959
  A 1.29 1.29 0.0 0 0 49.3260 57.1814
  L 55.8860 57.1585
  A 1.29 1.29 0.0 0 0 57.1715 55.8640
  L 57.1485 49.2841
  Z"
/>
<rect fill="#d71248" x="-4.72" y="-1.81" transform="translate(55.83,38.20) rotate(-1.0)" width="9.44" height="3.62" rx="1.72"/>
<path fill="#015995" d="
  M 27.0233 49.6229
  A 4.39 4.39 0.0 0 1 22.7262 54.1039
  L 20.3467 54.1537
  A 4.39 4.39 0.0 0 1 15.8657 49.8566
  L 15.8167 47.5171
  A 4.39 4.39 0.0 0 1 20.1138 43.0361
  L 22.4933 42.9863
  A 4.39 4.39 0.0 0 1 26.9743 47.2834
  L 27.0233 49.6229
  Z
  M 23.83 48.57
  A 2.42 2.42 0.0 0 0 21.41 46.15
  A 2.42 2.42 0.0 0 0 18.99 48.57
  A 2.42 2.42 0.0 0 0 21.41 50.99
  A 2.42 2.42 0.0 0 0 23.83 48.57
  Z"
/>
<rect fill="#d71248" x="-1.74" y="-5.52" transform="translate(38.23,54.97) rotate(0.6)" width="3.48" height="11.04" rx="1.66"/>
<path fill="#d71248" d="
  M 50.65 50.21
  Q 50.60 50.03 50.73 49.89
  C 53.09 47.33 58.69 52.55 54.09 55.43
  C 51.14 57.29 48.02 53.38 49.84 50.59
  Q 50.09 50.21 50.51 50.35
  Q 50.71 50.41 50.65 50.21
  Z"
/>
<path fill="#d71248" d="
  M 65.74 65.29
  L 65.86 59.39
  A 0.91 0.84 61.2 0 1 65.94 59.07
  Q 67.21 56.22 68.74 58.22
  A 1.36 1.31 27.4 0 1 69.01 59.02
  L 69.01 67.77
  Q 69.01 69.81 66.98 69.80
  L 58.73 69.75
  A 1.36 1.36 0.0 0 1 57.38 68.27
  Q 57.40 68.04 57.41 67.89
  Q 57.55 66.21 59.23 66.21
  L 64.79 66.21
  A 0.95 0.94 0.6 0 0 65.74 65.29
  Z"
/>
<path fill="#d71248" d="
  M 4.90 66.20
  L 11.74 66.34
  A 0.74 0.74 0.0 0 1 12.47 67.10
  L 12.42 69.02
  A 0.74 0.74 0.0 0 1 11.68 69.74
  L 1.84 69.69
  A 0.74 0.74 0.0 0 1 1.10 68.96
  L 0.98 58.62
  A 0.74 0.74 0.0 0 1 1.66 57.88
  L 3.33 57.75
  A 0.74 0.74 0.0 0 1 4.13 58.48
  L 4.17 65.47
  A 0.74 0.74 0.0 0 0 4.90 66.20
  Z"
/>
</svg>
