<?xml version="1.0" encoding="UTF-8" standalone="no"?>
<!DOCTYPE svg PUBLIC "-//W3C//DTD SVG 1.1//EN" "http://www.w3.org/Graphics/SVG/1.1/DTD/svg11.dtd">
<svg xmlns="http://www.w3.org/2000/svg" version="1.1" viewBox="0.00 0.00 63.00 63.00">
<path fill="#ffffff" d="
  M 8.02 6.13
  Q 4.24 9.89 3.86 16.17
  C 3.08 28.99 11.84 41.50 21.77 49.61
  A 2.29 2.26 28.2 0 1 22.52 52.03
  Q 22.45 52.25 22.28 52.40
  Q 21.47 53.11 20.54 52.60
  C 15.33 49.76 10.88 44.11 7.54 39.18
  Q 1.42 30.15 0.39 20.13
  C -0.34 12.98 2.75 2.37 10.97 0.57
  C 17.80 -0.93 22.90 4.90 25.72 10.61
  C 28.52 16.28 26.29 20.90 22.34 25.17
  A 1.80 1.79 49.8 0 0 22.16 27.38
  Q 27.40 35.32 35.23 40.31
  A 1.66 1.65 38.5 0 0 37.28 40.08
  C 40.88 36.51 45.36 34.17 50.44 36.21
  C 58.04 39.28 65.54 46.43 60.28 54.95
  C 58.46 57.90 54.56 60.18 51.20 61.11
  Q 41.92 63.68 31.92 59.26
  Q 31.05 58.87 30.48 58.09
  Q 29.37 56.58 31.27 55.97
  A 1.27 1.27 0.0 0 1 32.09 55.97
  Q 38.41 58.12 43.71 58.65
  C 49.86 59.27 63.08 53.87 57.11 45.24
  Q 55.43 42.82 52.08 40.72
  C 45.59 36.65 42.24 40.27 37.83 44.43
  A 1.43 1.43 0.0 0 1 36.69 44.82
  Q 35.25 44.67 33.99 43.84
  Q 24.12 37.33 18.39 27.95
  Q 17.76 26.91 17.52 25.73
  Q 17.41 25.23 17.76 24.85
  C 21.24 21.04 25.42 17.47 22.31 11.69
  C 19.43 6.35 13.74 0.41 8.02 6.13
  Z"
/>
<path fill="#ffffff" d="
  M 56.45 24.81
  C 55.86 14.32 48.18 7.00 37.81 6.47
  Q 36.08 6.38 35.96 4.65
  Q 35.90 3.86 36.99 3.14
  A 1.79 1.75 30.9 0 1 38.16 2.86
  Q 56.81 5.07 60.00 23.16
  Q 60.29 24.84 59.67 26.45
  Q 59.47 26.96 58.93 27.03
  C 57.53 27.21 56.53 26.19 56.45 24.81
  Z"
/>
<path fill="#ffffff" d="
  M 47.54 20.26
  Q 48.15 21.75 47.46 23.09
  Q 47.32 23.37 46.98 23.40
  Q 45.70 23.51 45.07 22.38
  Q 42.96 18.60 39.29 16.71
  A 1.33 1.33 0.0 0 1 39.39 14.29
  C 42.50 13.03 46.48 17.64 47.54 20.26
  Z"
/>
</svg>
