<?xml version="1.0" encoding="UTF-8" standalone="no"?>
<!DOCTYPE svg PUBLIC "-//W3C//DTD SVG 1.1//EN" "http://www.w3.org/Graphics/SVG/1.1/DTD/svg11.dtd">
<svg xmlns="http://www.w3.org/2000/svg" version="1.1" viewBox="0.00 0.00 360.00 90.00">
<g stroke-width="2.00" fill="none" stroke-linecap="butt">
<path stroke="#80a7bf" vector-effect="non-scaling-stroke" d="
  M 270.95 76.70
  Q 270.93 76.20 270.75 75.90
  Q 270.53 75.52 270.32 75.91
  Q 270.05 76.42 270.12 77.02"
/>
<path stroke="#80a7bf" vector-effect="non-scaling-stroke" d="
  M 21.99 70.68
  Q 21.98 71.50 22.25 71.76
  Q 22.60 72.10 22.72 71.62
  L 22.95 70.73"
/>
<path stroke="#80a7bf" vector-effect="non-scaling-stroke" d="
  M 350.95 48.74
  Q 343.15 45.33 334.99 43.99
  Q 334.53 43.92 334.53 43.44
  L 334.51 26.10
  Q 334.51 25.44 333.86 25.44
  L 314.01 25.45
  Q 313.48 25.45 313.48 25.99
  L 313.49 43.29
  A 0.70 0.69 85.7 0 1 312.90 43.98
  Q 304.76 45.28 297.31 48.75"
/>
<path stroke="#e28fa3" vector-effect="non-scaling-stroke" d="
  M 347.69 52.49
  Q 323.90 43.87 299.97 52.60"
/>
</g>
<path fill="#004f7e" d="
  M 321.14 0.00
  L 326.72 0.00
  C 330.47 0.70 334.21 1.37 337.61 2.85
  Q 357.49 11.54 360.00 34.13
  L 360.00 38.98
  L 357.42 49.07
  Q 356.92 51.05 355.01 50.31
  L 350.95 48.74
  Q 343.15 45.33 334.99 43.99
  Q 334.53 43.92 334.53 43.44
  L 334.51 26.10
  Q 334.51 25.44 333.86 25.44
  L 314.01 25.45
  Q 313.48 25.45 313.48 25.99
  L 313.49 43.29
  A 0.70 0.69 85.7 0 1 312.90 43.98
  Q 304.76 45.28 297.31 48.75
  Q 295.66 49.23 293.91 50.02
  Q 292.60 50.61 291.89 50.35
  Q 290.85 49.98 290.46 48.89
  C 282.20 25.53 296.97 3.24 321.14 0.00
  Z"
/>
<path fill="#ffffff" d="
  M 350.95 48.74
  Q 347.75 50.35 347.69 52.49
  Q 323.90 43.87 299.97 52.60
  Q 300.99 50.57 299.91 49.94
  Q 298.95 49.37 297.31 48.75
  Q 304.76 45.28 312.90 43.98
  A 0.70 0.69 85.7 0 0 313.49 43.29
  L 313.48 25.99
  Q 313.48 25.45 314.01 25.45
  L 333.86 25.44
  Q 334.51 25.44 334.51 26.10
  L 334.53 43.44
  Q 334.53 43.92 334.99 43.99
  Q 343.15 45.33 350.95 48.74
  Z"
/>
<path fill="#004f7e" d="
  M 270.95 76.70
  Q 270.93 76.20 270.75 75.90
  Q 270.53 75.52 270.32 75.91
  Q 270.05 76.42 270.12 77.02
  L 270.08 87.78
  Q 270.08 89.06 268.79 89.04
  L 262.22 88.89
  Q 260.82 88.86 260.82 87.47
  L 260.81 44.80
  A 0.49 0.48 -87.3 0 1 261.34 44.31
  Q 270.07 45.12 270.00 54.21
  Q 269.96 59.75 270.07 66.51
  Q 270.09 68.08 271.35 67.14
  Q 271.49 67.04 271.64 66.95
  Q 272.00 66.75 272.28 66.45
  L 279.00 59.33
  Q 280.10 58.17 281.70 58.16
  L 289.52 58.13
  Q 291.14 58.12 290.04 59.32
  L 279.85 70.42
  Q 278.42 71.98 279.70 73.66
  L 290.56 87.89
  A 0.68 0.68 0.0 0 1 290.02 88.98
  L 281.12 88.99
  A 3.30 3.29 72.6 0 1 278.38 87.55
  L 270.95 76.70
  Z"
/>
<path fill="#004f7e" d="
  M 21.99 70.68
  Q 21.98 71.50 22.25 71.76
  Q 22.60 72.10 22.72 71.62
  L 22.95 70.73
  L 32.81 46.40
  Q 33.49 44.75 35.27 44.75
  L 40.02 44.75
  Q 42.60 44.75 41.66 47.15
  Q 34.78 64.69 27.54 83.32
  C 25.96 87.40 22.84 89.48 18.34 88.82
  A 1.09 1.09 0.0 0 1 17.54 88.29
  Q 17.01 87.38 16.61 86.37
  Q 8.77 66.87 1.27 47.32
  Q 0.92 46.41 1.00 45.52
  Q 1.06 44.81 1.77 44.81
  L 10.28 44.73
  A 1.45 1.43 78.6 0 1 11.63 45.64
  Q 16.72 58.29 21.42 70.26
  Q 21.53 70.54 21.99 70.68
  Z"
/>
<path fill="#004f7e" d="
  M 181.59 65.58
  C 183.18 67.04 184.99 67.99 185.87 70.11
  C 190.09 80.22 182.98 88.61 172.72 88.88
  Q 164.29 89.11 154.46 88.96
  Q 153.95 88.96 153.95 88.45
  L 153.95 45.45
  Q 153.95 44.83 154.57 44.82
  Q 169.58 44.59 174.60 45.00
  Q 177.56 45.24 180.46 47.28
  C 186.09 51.24 186.36 59.14 181.57 63.80
  A 1.23 1.23 0.0 0 0 181.59 65.58
  Z
  M 164.03 53.08
  L 164.03 61.60
  A 0.39 0.39 0.0 0 0 164.42 61.99
  L 170.22 61.99
  A 5.63 4.56 -0.0 0 0 175.85 57.43
  L 175.85 57.25
  A 5.63 4.56 0.0 0 0 170.22 52.69
  L 164.42 52.69
  A 0.39 0.39 0.0 0 0 164.03 53.08
  Z
  M 164.03 70.52
  L 164.01 80.38
  A 0.55 0.55 0.0 0 0 164.56 80.93
  L 171.63 80.94
  A 6.30 5.34 0.1 0 0 177.94 75.61
  L 177.94 75.33
  A 6.30 5.34 0.1 0 0 171.65 69.98
  L 164.58 69.97
  A 0.55 0.55 0.0 0 0 164.03 70.52
  Z"
/>
<path fill="#c51e46" d="
  M 347.69 52.49
  L 352.73 55.12
  A 1.18 1.18 0.0 0 1 353.12 56.88
  C 338.37 76.46 310.10 76.97 295.17 57.18
  A 1.64 1.63 58.2 0 1 295.74 54.74
  L 299.97 52.60
  Q 323.90 43.87 347.69 52.49
  Z"
/>
<path fill="#004f7e" d="
  M 88.53 65.54
  L 85.47 64.89
  Q 84.92 64.78 84.93 64.22
  L 84.96 58.95
  Q 84.97 58.36 85.56 58.32
  L 87.56 58.18
  A 1.77 1.77 0.0 0 0 89.21 56.44
  L 89.28 51.88
  Q 89.29 50.78 90.39 50.78
  L 96.94 50.77
  Q 98.11 50.77 98.12 51.94
  L 98.13 57.47
  Q 98.13 58.07 98.73 58.05
  Q 100.74 57.97 102.58 58.55
  Q 103.08 58.70 103.08 59.22
  L 103.09 64.52
  Q 103.09 65.14 102.47 65.15
  L 99.23 65.22
  A 1.07 1.06 -0.0 0 0 98.18 66.26
  Q 98.02 71.71 98.21 76.09
  C 98.34 79.38 100.37 80.01 102.67 81.56
  Q 103.10 81.84 103.09 82.35
  L 103.05 88.44
  Q 103.04 88.97 102.52 88.99
  C 93.74 89.36 88.90 84.31 89.17 76.04
  Q 89.34 70.96 89.19 66.33
  Q 89.17 65.68 88.53 65.54
  Z"
/>
<path fill="#004f7e" d="
  M 68.11 90.00
  L 66.52 90.00
  Q 55.40 88.35 52.24 79.40
  Q 49.93 72.84 52.58 66.92
  C 56.91 57.28 69.62 53.83 77.78 61.34
  Q 83.72 66.81 83.01 75.67
  Q 82.96 76.19 82.44 76.19
  L 60.81 76.19
  Q 60.27 76.19 60.23 76.73
  Q 60.05 79.29 61.71 80.87
  Q 65.46 84.43 70.51 82.22
  Q 71.92 81.60 72.98 80.38
  C 74.45 78.70 78.55 79.31 80.26 79.22
  Q 82.80 79.10 81.45 81.26
  Q 76.68 88.89 68.11 90.00
  Z
  M 60.76 70.24
  L 73.48 70.26
  A 0.11 0.11 0.0 0 0 73.59 70.15
  L 73.59 70.11
  A 6.29 5.95 0.1 0 0 67.32 64.15
  L 66.96 64.15
  A 6.29 5.95 0.1 0 0 60.65 70.09
  L 60.65 70.13
  A 0.11 0.11 0.0 0 0 60.76 70.24
  Z"
/>
<path fill="#004f7e" d="
  M 137.31 66.17
  Q 137.17 66.22 137.01 66.16
  Q 136.96 66.15 136.92 66.11
  Q 135.48 64.81 133.72 65.55
  A 8.45 7.69 8.2 0 0 131.04 67.36
  Q 130.28 68.14 130.02 69.30
  Q 129.78 70.37 129.78 71.47
  Q 129.81 80.05 129.74 88.27
  A 0.70 0.69 0.0 0 1 129.04 88.96
  L 121.43 89.00
  Q 120.85 89.00 120.86 88.43
  L 120.87 59.04
  Q 120.87 58.26 121.65 58.25
  L 127.52 58.17
  Q 128.18 58.16 128.59 58.68
  L 129.48 59.79
  Q 129.96 60.39 130.58 59.95
  Q 136.68 55.58 142.99 58.45
  Q 145.63 59.66 147.02 61.95
  Q 149.02 65.24 149.02 68.43
  Q 149.02 78.68 149.07 87.83
  Q 149.07 89.07 147.84 89.04
  L 141.32 88.88
  Q 140.10 88.85 140.07 87.62
  Q 139.89 79.13 140.02 70.28
  C 140.05 68.56 138.91 67.51 137.88 66.33
  Q 137.65 66.06 137.31 66.17
  Z"
/>
<path fill="#004f7e" d="
  M 206.12 90.00
  L 202.99 90.00
  Q 196.46 88.91 192.95 84.16
  C 187.37 76.64 189.03 63.59 197.63 59.07
  Q 205.57 54.90 212.80 60.03
  A 0.50 0.50 0.0 0 0 213.55 59.83
  C 213.93 58.97 214.65 58.19 215.68 58.21
  Q 218.98 58.28 222.29 58.13
  Q 222.89 58.11 222.89 58.71
  L 222.88 88.26
  Q 222.88 88.93 222.22 88.96
  Q 218.72 89.15 215.31 88.79
  Q 213.99 88.65 213.53 87.47
  A 0.31 0.31 0.0 0 0 213.13 87.30
  L 206.12 90.00
  Z
  M 205.6861 81.3149
  A 7.78 7.47 94.6 0 0 213.7559 74.1591
  A 7.78 7.47 94.6 0 0 206.9339 65.8051
  A 7.78 7.47 94.6 0 0 198.8641 72.9609
  A 7.78 7.47 94.6 0 0 205.6861 81.3149
  Z"
/>
<path fill="#004f7e" d="
  M 237.40 60.09
  Q 243.27 55.69 249.36 58.21
  C 255.37 60.70 255.90 66.15 255.98 71.82
  Q 256.09 79.86 255.90 87.65
  A 1.27 1.27 0.0 0 1 254.66 88.89
  L 248.01 89.03
  Q 246.92 89.06 246.93 87.97
  Q 246.96 78.97 246.95 71.24
  Q 246.95 68.69 244.96 66.39
  Q 244.64 66.02 244.19 66.21
  Q 243.95 66.31 243.81 66.06
  Q 243.61 65.72 243.25 65.58
  Q 241.80 65.02 240.45 65.62
  Q 237.95 66.74 237.29 68.59
  Q 236.65 70.37 236.69 72.43
  Q 236.84 80.44 236.72 88.74
  Q 236.72 88.98 236.48 88.98
  L 227.78 88.99
  Q 227.45 88.99 227.45 88.65
  L 227.47 59.16
  A 0.91 0.91 0.0 0 1 228.37 58.25
  L 234.45 58.19
  Q 235.05 58.18 235.45 58.63
  L 236.68 60.02
  Q 237.01 60.39 237.40 60.09
  Z"
/>
<path fill="#004f7e" d="
  M 110.77 59.71
  Q 112.63 58.23 115.39 58.11
  Q 116.01 58.08 116.01 58.70
  L 116.01 88.25
  Q 116.01 89.00 115.25 89.00
  L 108.02 88.99
  A 0.97 0.97 0.0 0 1 107.05 88.03
  Q 106.88 74.87 107.10 65.57
  Q 107.15 63.64 108.34 62.15
  Q 109.39 60.81 110.77 59.71
  Z"
/>
<path fill="#004f7e" d="
  M 42.52 59.69
  Q 43.35 59.20 43.90 58.88
  Q 47.65 56.67 47.64 61.02
  L 47.61 88.28
  Q 47.61 88.92 46.97 88.93
  L 39.55 89.03
  Q 38.81 89.04 38.81 88.30
  L 38.80 66.19
  Q 38.80 61.88 42.52 59.69
  Z"
/>
<path fill="#ffffff" d="
  M 22.95 70.73
  L 22.72 71.62
  Q 22.60 72.10 22.25 71.76
  Q 21.98 71.50 21.99 70.68
  Q 22.33 70.51 22.95 70.73
  Z"
/>
<path fill="#ffffff" d="
  M 270.95 76.70
  L 270.12 77.02
  Q 270.05 76.42 270.32 75.91
  Q 270.53 75.52 270.75 75.90
  Q 270.93 76.20 270.95 76.70
  Z"
/>
</svg>
