<?xml version="1.0" encoding="UTF-8" standalone="no"?>
<!DOCTYPE svg PUBLIC "-//W3C//DTD SVG 1.1//EN" "http://www.w3.org/Graphics/SVG/1.1/DTD/svg11.dtd">
<svg xmlns="http://www.w3.org/2000/svg" version="1.1" viewBox="0.00 0.00 64.00 56.00">
<path fill="#ffffff" d="
  M 31.23 0.00
  L 32.04 0.00
  L 61.98 24.74
  Q 64.49 26.82 62.16 29.09
  L 57.43 33.71
  A 2.99 2.99 0.0 0 0 56.53 35.85
  L 56.52 52.80
  A 2.20 2.19 -0.1 0 1 54.33 54.99
  L 39.34 55.03
  Q 36.88 55.04 36.88 52.59
  L 36.87 34.26
  A 0.40 0.39 0.0 0 0 36.47 33.87
  L 27.49 33.88
  Q 26.87 33.88 26.87 34.51
  L 26.88 52.45
  Q 26.88 54.99 24.33 55.00
  L 9.64 55.02
  Q 7.00 55.03 7.00 52.39
  L 7.00 35.69
  A 3.00 2.96 -67.9 0 0 6.12 33.57
  L 0.78 28.28
  A 1.71 1.71 0.0 0 1 0.62 26.04
  C 2.21 23.97 4.20 22.65 6.13 21.00
  Q 18.63 10.32 31.23 0.00
  Z
  M 29.60 12.99
  C 31.43 11.42 33.00 12.07 34.58 13.42
  Q 43.65 21.19 53.41 29.75
  Q 54.62 30.82 55.77 29.69
  L 57.37 28.10
  Q 58.50 26.98 57.28 25.95
  L 33.40 5.87
  A 2.47 2.46 -44.9 0 0 30.23 5.87
  L 6.79 25.57
  Q 5.20 26.90 6.68 28.35
  L 7.31 28.97
  Q 9.01 30.64 10.83 29.08
  Q 20.08 21.13 29.60 12.99
  Z
  M 22.95 50.69
  L 22.98 32.24
  Q 22.98 29.97 25.26 29.97
  L 38.25 29.98
  A 2.52 2.51 90.0 0 1 40.76 32.50
  L 40.76 50.22
  Q 40.76 50.72 41.25 50.78
  Q 46.72 51.43 51.82 51.01
  A 0.97 0.96 -2.0 0 0 52.71 50.06
  Q 52.79 44.02 52.75 37.89
  C 52.73 35.77 52.30 34.42 50.78 33.11
  Q 41.95 25.50 33.20 17.86
  Q 31.83 16.67 30.46 17.85
  Q 23.21 24.05 14.99 31.26
  Q 13.53 32.53 12.35 33.36
  A 3.21 3.20 -17.8 0 0 11.00 35.97
  L 11.00 50.56
  Q 11.00 51.11 11.56 51.11
  L 22.56 51.09
  A 0.40 0.39 90.0 0 0 22.95 50.69
  Z"
/>
</svg>
