<?xml version="1.0" encoding="UTF-8" standalone="no"?>
<!DOCTYPE svg PUBLIC "-//W3C//DTD SVG 1.1//EN" "http://www.w3.org/Graphics/SVG/1.1/DTD/svg11.dtd">
<svg xmlns="http://www.w3.org/2000/svg" version="1.1" viewBox="0.00 0.00 58.00 56.00">
<path fill="#015696" d="
  M 0.00 52.60
  L 0.00 40.76
  L 0.51 38.20
  Q 0.61 37.70 0.99 37.33
  C 9.24 29.30 17.20 21.27 25.78 13.39
  Q 31.37 8.26 36.81 2.71
  Q 37.88 1.61 39.28 0.73
  A 1.65 1.64 49.6 0 1 41.26 0.89
  Q 47.75 6.71 54.51 13.20
  Q 56.22 14.84 57.28 16.48
  A 1.73 1.72 51.7 0 1 57.03 18.65
  L 19.76 54.66
  A 3.36 3.33 22.4 0 1 17.48 55.60
  Q 10.32 55.72 2.97 55.67
  Q 0.09 55.65 0.00 52.60
  Z
  M 41.26 5.64
  A 1.72 1.72 0.0 0 0 38.89 5.65
  L 33.03 11.21
  A 1.72 1.72 0.0 0 0 33.01 13.69
  L 43.84 24.29
  A 1.72 1.72 0.0 0 0 46.25 24.29
  L 52.18 18.46
  A 1.72 1.72 0.0 0 0 52.16 15.98
  L 41.26 5.64
  Z
  M 4.71 38.77
  C 3.22 40.79 3.87 47.84 3.91 50.77
  A 1.28 1.28 0.0 0 0 5.20 52.04
  L 15.90 51.98
  A 3.68 3.65 22.9 0 0 18.44 50.96
  L 41.11 29.17
  A 1.90 1.89 -44.9 0 0 41.12 26.45
  L 30.45 16.05
  A 1.62 1.61 -43.9 0 0 28.23 16.01
  Q 16.63 26.55 5.45 37.90
  A 7.63 6.52 89.9 0 0 4.71 38.77
  Z"
/>
</svg>
