<?xml version="1.0" encoding="UTF-8" standalone="no"?>
<!DOCTYPE svg PUBLIC "-//W3C//DTD SVG 1.1//EN" "http://www.w3.org/Graphics/SVG/1.1/DTD/svg11.dtd">
<svg xmlns="http://www.w3.org/2000/svg" version="1.1" viewBox="0.00 0.00 186.00 39.00">
<g stroke-width="2.00" fill="none" stroke-linecap="butt">
<path stroke="#5bb488" vector-effect="non-scaling-stroke" d="
  M 159.08 24.13
  L 152.79 11.79
  Q 152.62 11.44 152.42 11.78
  Q 152.32 11.95 152.46 12.24"
/>
<path stroke="#5bb488" vector-effect="non-scaling-stroke" d="
  M 152.34 11.52
  Q 151.90 8.96 149.89 6.30"
/>
</g>
<path fill="#109ad6" d="
  M 129.65 0.00
  L 131.65 0.00
  C 139.26 1.65 140.68 7.81 136.44 13.68
  C 134.05 17.00 130.72 19.65 127.90 22.56
  A 0.78 0.77 21.7 0 0 128.47 23.87
  L 134.05 23.81
  Q 135.59 23.79 135.30 25.31
  L 134.71 28.31
  Q 134.43 29.76 132.95 29.76
  L 114.81 29.76
  Q 114.32 29.76 114.27 29.27
  C 114.04 26.84 114.81 24.27 117.01 22.92
  C 121.51 20.15 131.36 13.92 131.00 7.95
  Q 130.97 7.30 130.37 7.04
  C 127.64 5.81 126.08 8.25 124.77 10.14
  Q 124.43 10.64 123.84 10.78
  Q 121.13 11.42 118.57 10.90
  A 0.76 0.75 -75.0 0 1 118.01 9.92
  Q 120.82 1.64 129.65 0.00
  Z"
/>
<path fill="#a5cd3a" d="
  M 159.08 24.13
  L 152.79 11.79
  Q 152.62 11.44 152.42 11.78
  Q 152.32 11.95 152.46 12.24
  Q 152.19 11.93 152.34 11.52
  Q 151.90 8.96 149.89 6.30
  C 151.61 4.57 154.20 0.66 156.31 0.33
  Q 158.46 -0.01 160.66 0.48
  Q 161.21 0.60 161.19 1.16
  Q 161.15 3.02 160.80 4.81
  Q 159.68 10.72 158.29 16.67
  Q 158.16 17.25 158.40 17.79
  Q 158.87 18.82 159.93 19.35
  Q 160.40 19.59 160.44 20.12
  Q 160.61 22.66 159.08 24.13
  Z"
/>
<path fill="#a5cd3a" d="
  M 176.00 7.53
  Q 176.20 6.87 175.50 6.87
  L 167.52 6.88
  Q 165.61 6.88 166.01 5.02
  L 166.59 2.31
  Q 167.04 0.23 169.17 0.23
  L 184.39 0.26
  A 0.94 0.94 0.0 0 1 185.33 1.22
  C 185.28 3.71 184.53 6.09 183.16 8.20
  Q 176.50 18.44 170.11 28.32
  A 3.19 3.19 0.0 0 1 167.42 29.77
  L 162.71 29.75
  Q 161.38 29.75 162.11 28.63
  Q 168.35 19.12 174.88 9.86
  Q 175.64 8.80 176.00 7.53
  Z"
/>
<path fill="#109ad6" d="
  M 149.89 6.30
  Q 151.90 8.96 152.34 11.52
  Q 148.50 14.26 147.02 17.44
  Q 146.33 18.93 147.97 18.95
  L 149.72 18.97
  A 2.08 2.07 -85.8 0 0 151.81 17.16
  L 152.46 12.24
  Q 152.32 11.95 152.42 11.78
  Q 152.62 11.44 152.79 11.79
  L 159.08 24.13
  C 156.51 25.68 156.57 26.47 155.33 28.98
  A 1.33 1.33 0.0 0 1 154.15 29.73
  L 149.65 29.77
  Q 149.02 29.78 149.04 29.15
  L 149.14 25.15
  A 0.49 0.49 0.0 0 0 148.65 24.65
  L 139.35 24.69
  Q 137.04 24.70 137.43 22.42
  Q 137.90 19.64 139.88 17.37
  Q 144.84 11.66 149.89 6.30
  Z"
/>
<path fill="#1e427e" d="
  M 0.00 29.51
  Q 0.02 29.36 0.00 29.20
  L 3.36 10.92
  A 2.38 2.37 -3.5 0 1 4.98 9.09
  C 8.85 7.88 13.92 6.60 17.95 7.78
  Q 23.34 9.35 22.67 14.68
  Q 21.92 20.59 20.45 27.64
  Q 20.06 29.52 18.14 29.53
  L 15.78 29.53
  Q 13.91 29.54 14.26 27.70
  Q 15.22 22.57 16.09 17.11
  C 16.52 14.46 15.42 13.18 12.88 12.92
  Q 9.28 12.56 8.73 16.19
  Q 7.68 23.10 6.43 28.81
  Q 6.32 29.30 5.83 29.40
  Q 2.87 30.00 0.00 29.51
  Z"
/>
<path fill="#1e427e" d="
  M 25.99 18.69
  Q 29.20 15.95 36.03 16.10
  Q 37.56 16.13 37.36 14.62
  Q 37.31 14.27 37.09 14.02
  Q 35.90 12.64 33.95 12.63
  Q 30.26 12.60 26.59 13.04
  A 0.37 0.37 0.0 0 1 26.18 12.63
  C 26.38 11.04 26.91 8.70 28.68 8.18
  C 34.34 6.50 44.43 6.22 43.29 14.94
  Q 42.49 21.07 41.28 26.72
  Q 40.70 29.42 37.72 29.73
  C 34.25 30.09 30.25 30.38 27.25 28.64
  C 23.58 26.51 22.72 21.48 25.99 18.69
  Z
  M 36.36 21.65
  A 1.72 1.72 0.0 0 0 34.13 19.64
  L 31.49 20.52
  A 1.72 1.72 0.0 0 0 30.33 22.42
  L 30.56 23.86
  A 1.72 1.72 0.0 0 0 31.72 25.22
  L 33.48 25.80
  A 1.72 1.72 0.0 0 0 35.70 24.55
  L 36.36 21.65
  Z"
/>
<path fill="#1e427e" d="
  M 48.15 39.00
  L 42.84 39.00
  Q 42.89 36.61 43.73 31.75
  Q 45.46 21.76 47.25 11.68
  C 47.79 8.65 49.72 8.70 52.06 7.97
  C 56.11 6.72 63.28 7.19 65.48 11.64
  Q 68.51 17.78 65.13 24.51
  C 62.71 29.34 57.39 30.30 52.32 29.78
  A 1.92 1.91 -79.3 0 0 50.28 31.18
  L 48.15 39.00
  Z
  M 51.65 21.48
  A 2.90 2.90 0.0 0 0 55.87 24.62
  L 58.29 23.31
  A 2.90 2.90 0.0 0 0 59.77 21.21
  L 60.50 16.63
  A 2.90 2.90 0.0 0 0 57.95 13.29
  L 56.07 13.08
  A 2.90 2.90 0.0 0 0 52.91 15.38
  L 51.65 21.48
  Z"
/>
<path fill="#1e427e" d="
  M 81.49 14.87
  C 80.89 11.73 74.70 12.52 72.22 12.92
  A 1.18 1.18 0.0 0 1 70.88 12.01
  C 70.61 10.75 71.11 8.66 72.61 8.21
  C 78.05 6.60 88.90 6.24 87.66 14.73
  Q 86.76 20.91 85.48 27.57
  A 2.19 2.18 -1.5 0 1 83.84 29.29
  C 79.73 30.28 73.19 30.76 69.94 27.52
  Q 66.98 24.56 68.77 20.56
  C 70.63 16.38 76.98 16.27 80.74 15.87
  A 0.85 0.85 0.0 0 0 81.49 14.87
  Z
  M 80.85 21.41
  A 1.40 1.40 0.0 0 0 79.16 19.56
  L 75.90 20.47
  A 1.40 1.40 0.0 0 0 74.89 21.61
  L 74.63 23.34
  A 1.40 1.40 0.0 0 0 75.46 24.84
  L 77.62 25.76
  A 1.40 1.40 0.0 0 0 79.48 24.98
  L 80.85 21.41
  Z"
/>
<path fill="#1e427e" d="
  M 98.52 15.66
  C 102.36 16.83 106.35 19.14 105.54 23.77
  C 104.28 31.06 95.73 30.69 90.38 28.49
  Q 88.95 27.90 89.02 26.36
  L 89.13 23.96
  Q 89.18 22.80 90.29 23.15
  C 92.48 23.86 96.02 25.77 98.17 24.55
  A 1.65 1.65 0.0 0 0 98.00 21.60
  C 95.79 20.65 93.18 20.05 91.66 18.07
  C 88.89 14.45 90.94 9.50 95.09 7.95
  Q 99.43 6.32 104.06 8.02
  Q 106.09 8.77 105.99 10.93
  L 105.96 11.49
  Q 105.84 14.15 103.40 13.08
  Q 101.18 12.10 98.81 11.96
  A 1.55 1.55 0.0 0 0 97.27 12.95
  C 96.85 14.05 97.38 15.31 98.52 15.66
  Z"
/>
</svg>
