<?xml version="1.0" encoding="UTF-8" ?>
<!DOCTYPE svg PUBLIC "-//W3C//DTD SVG 1.1//EN" "http://www.w3.org/Graphics/SVG/1.1/DTD/svg11.dtd">
<svg width="58pt" height="58pt" viewBox="0 0 58 58" version="1.1" xmlns="http://www.w3.org/2000/svg">
<g id="#8294a2ff">
<path fill="#8294a2" opacity="1.00" d=" M 11.19 5.09 C 21.83 -2.57 38.33 0.42 45.38 11.55 C 50.50 18.66 49.66 27.94 47.56 35.95 C 50.10 40.64 55.18 43.50 58.00 48.10 L 58.00 48.92 C 55.36 52.30 52.29 55.36 48.92 58.00 L 48.09 58.00 C 43.81 55.19 40.79 50.94 36.79 47.81 C 34.77 47.12 32.67 48.47 30.63 48.66 C 21.18 50.91 10.50 47.15 5.11 38.96 C -2.45 28.52 0.34 12.17 11.19 5.09 M 23.37 5.26 C 14.38 6.21 6.61 13.56 5.39 22.55 C 3.68 33.88 13.65 44.93 25.00 44.98 C 36.48 44.99 46.68 33.82 44.76 22.31 C 43.40 12.22 33.41 4.46 23.37 5.26 M 44.11 40.84 C 43.01 41.92 41.92 43.01 40.84 44.10 C 42.71 47.34 45.38 50.33 48.86 51.84 C 49.84 50.84 50.84 49.84 51.85 48.86 C 50.34 45.38 47.34 42.73 44.11 40.84 Z" />
</g>
</svg>
