<svg height="32" id="vector" viewBox="0 0 32 32" width="32" xmlns="http://www.w3.org/2000/svg">
    <path d="M15.3678,2.0498C11.7616,2.0498 8.8383,4.9732 8.8383,8.5793C8.8383,12.1855 11.7616,15.1088 15.3678,15.1088C18.9739,15.1088 21.8973,12.1855 21.8973,8.5793C21.8973,4.9732 18.9739,2.0498 15.3678,2.0498ZM10.4483,8.5793C10.4483,5.8623 12.6508,3.6598 15.3678,3.6598C18.0847,3.6598 20.2873,5.8623 20.2873,8.5793C20.2873,11.2963 18.0847,13.4988 15.3678,13.4988C12.6508,13.4988 10.4483,11.2963 10.4483,8.5793Z"
        fill="#0a84ff"
        fill-rule="evenodd" id="path_0" />
    <path d="M9.6433,17.2077C7.9116,17.2077 6.2507,17.8956 5.0262,19.1201C3.8017,20.3447 3.1138,22.0055 3.1138,23.7372V26.5995C3.1138,27.0441 3.4742,27.4045 3.9188,27.4045H15.1951C15.6397,27.4045 16.0001,27.0441 16.0001,26.5995C16.0001,26.1549 15.6397,25.7944 15.1951,25.7944H4.7238V23.7372C4.7238,22.4325 5.2421,21.1812 6.1647,20.2586C7.0873,19.336 8.3385,18.8177 9.6433,18.8177H15.1951C15.6397,18.8177 16.0001,18.4573 16.0001,18.0127C16.0001,17.5681 15.6397,17.2077 15.1951,17.2077H9.6433Z"
        fill="#0a84ff"
        id="path_1" />
    <path d="M27.1187,23.112L25.058,25.1726C24.7436,25.487 24.7436,25.9967 25.058,26.3111C25.3724,26.6255 25.8821,26.6255 26.1965,26.3111L29.4804,23.0272C29.8786,22.629 29.8786,21.9834 29.4804,21.5852L26.1965,18.3012C25.8821,17.9869 25.3724,17.9869 25.058,18.3012C24.7436,18.6156 24.7436,19.1253 25.058,19.4397L27.1203,21.5019L19.7914,21.5019C19.3468,21.5019 18.9864,21.8624 18.9864,22.307C18.9864,22.7515 19.3468,23.112 19.7914,23.112L27.1187,23.112Z"
        fill="#0a84ff"
        id="path_2" />
</svg>