<?xml version="1.0" encoding="UTF-8" standalone="no"?>
<!DOCTYPE svg PUBLIC "-//W3C//DTD SVG 1.1//EN" "http://www.w3.org/Graphics/SVG/1.1/DTD/svg11.dtd">
<svg xmlns="http://www.w3.org/2000/svg" version="1.1" viewBox="0.00 0.00 218.00 46.00">
<g stroke-width="2.00" fill="none" stroke-linecap="butt">
<path stroke="#e5e7e8" vector-effect="non-scaling-stroke" d="
  M 186.28 29.19
  Q 184.62 21.77 179.05 15.22"
/>
<path stroke="#e5e7e8" vector-effect="non-scaling-stroke" d="
  M 179.30 12.81
  L 175.63 8.52"
/>
</g>
<path fill="#cbced0" d="
  M 149.02 28.21
  L 157.21 28.26
  Q 159.20 28.27 158.79 30.22
  L 158.11 33.48
  Q 157.71 35.38 155.77 35.44
  Q 145.06 35.79 134.98 35.10
  Q 134.23 35.05 134.22 34.30
  C 134.16 31.93 134.49 28.99 136.79 27.67
  C 141.31 25.09 155.16 15.74 153.88 10.30
  Q 153.45 8.45 151.45 8.34
  C 148.80 8.18 147.53 10.69 146.45 12.73
  A 1.95 1.94 -76.0 0 1 144.73 13.77
  L 139.23 13.76
  A 0.87 0.86 7.6 0 1 138.39 12.67
  Q 141.26 2.02 152.77 1.12
  C 159.52 0.59 165.10 5.87 162.06 12.76
  C 159.05 19.61 154.16 22.85 148.80 27.63
  Q 148.16 28.20 149.02 28.21
  Z"
/>
<path fill="#ffffff" d="
  M 186.28 29.19
  Q 184.62 21.77 179.05 15.22
  Q 179.69 13.97 179.30 12.81
  L 175.63 8.52
  Q 176.91 6.72 180.75 2.75
  C 182.83 0.61 185.67 1.21 188.44 1.21
  Q 189.66 1.21 189.42 2.41
  L 185.53 21.61
  Q 185.40 22.22 185.99 22.42
  L 187.98 23.08
  Q 188.48 23.24 188.52 23.77
  Q 188.84 27.97 186.28 29.19
  Z"
/>
<path fill="#ffffff" d="
  M 206.65 8.76
  L 195.32 8.76
  Q 194.37 8.76 194.53 7.83
  L 195.38 2.90
  A 1.99 1.98 4.8 0 1 197.34 1.25
  L 217.04 1.24
  Q 217.64 1.24 217.57 1.84
  Q 217.00 6.75 214.97 9.92
  Q 207.65 21.42 199.17 34.43
  A 2.11 2.10 16.9 0 1 197.39 35.38
  L 190.99 35.36
  Q 189.37 35.35 190.26 34.00
  Q 196.38 24.83 204.70 12.73
  Q 205.93 10.95 206.89 9.16
  A 0.27 0.27 0.0 0 0 206.65 8.76
  Z"
/>
<path fill="#cbced0" d="
  M 175.63 8.52
  L 179.30 12.81
  L 171.88 21.38
  Q 170.75 22.69 172.48 22.79
  L 175.34 22.95
  Q 176.94 23.05 177.63 21.61
  Q 178.81 19.16 179.05 15.22
  Q 184.62 21.77 186.28 29.19
  L 184.42 29.81
  Q 183.89 29.99 183.73 30.52
  L 182.70 33.84
  Q 182.18 35.54 180.40 35.52
  L 176.53 35.48
  Q 174.86 35.46 174.98 33.78
  L 175.27 29.90
  Q 175.33 29.23 174.65 29.23
  L 162.29 29.19
  Q 161.13 29.19 161.19 28.03
  Q 161.39 23.46 163.88 20.88
  Q 169.59 14.93 175.63 8.52
  Z"
/>
<path fill="#ffffff" d="
  M 43.70 18.76
  C 44.27 13.34 34.87 15.60 32.27 15.98
  A 1.15 1.15 0.0 0 1 30.97 14.66
  L 31.44 11.54
  Q 31.53 10.93 32.11 10.72
  Q 39.80 7.90 46.35 10.08
  Q 51.82 11.90 50.98 17.98
  Q 49.95 25.44 48.37 33.27
  A 1.85 1.84 87.3 0 1 47.10 34.67
  Q 40.28 36.78 34.42 35.24
  C 26.14 33.07 25.84 23.12 33.97 20.60
  C 36.89 19.69 40.06 19.91 43.05 19.44
  Q 43.64 19.35 43.70 18.76
  Z
  M 41.40 31.28
  L 42.96 24.37
  A 0.27 0.27 0.0 0 0 42.75 24.05
  L 41.46 23.76
  A 5.11 3.74 12.7 0 0 35.66 26.29
  L 35.63 26.42
  A 5.11 3.74 12.7 0 0 39.79 31.19
  L 41.08 31.48
  A 0.27 0.27 0.0 0 0 41.40 31.28
  Z"
/>
<path fill="#ffffff" d="
  M 94.41 16.06
  C 91.21 14.41 87.72 15.42 84.35 15.88
  A 1.21 1.20 83.1 0 1 82.99 14.81
  Q 82.80 12.96 83.56 11.31
  A 1.37 1.35 1.4 0 1 84.32 10.60
  Q 91.28 7.92 98.29 10.07
  C 101.82 11.16 103.41 14.15 102.85 17.74
  Q 101.66 25.36 100.34 32.51
  Q 99.97 34.52 98.23 34.95
  C 92.78 36.32 81.24 37.08 80.07 29.28
  C 78.86 21.24 86.83 19.56 92.81 19.79
  C 94.33 19.84 96.03 19.19 95.39 17.21
  A 2.02 1.98 -86.1 0 0 94.41 16.06
  Z
  M 94.73 25.63
  A 1.70 1.70 0.0 0 0 92.65 23.49
  L 88.81 24.55
  A 1.70 1.70 0.0 0 0 87.58 25.95
  L 87.29 28.04
  A 1.70 1.70 0.0 0 0 88.40 29.88
  L 91.26 30.90
  A 1.70 1.70 0.0 0 0 93.45 29.79
  L 94.73 25.63
  Z"
/>
<path fill="#ffffff" d="
  M 114.04 15.58
  A 1.58 1.58 0.0 0 0 114.12 18.45
  C 118.78 20.43 125.73 22.28 123.66 29.30
  C 121.35 37.10 112.29 36.40 105.93 33.95
  Q 103.51 33.01 104.16 30.49
  L 104.56 28.95
  Q 105.04 27.11 106.75 27.94
  Q 109.44 29.23 112.19 29.92
  Q 114.31 30.44 116.08 28.66
  Q 116.42 28.32 116.47 27.85
  A 1.74 1.74 0.0 0 0 115.23 25.99
  Q 106.91 23.55 106.19 19.49
  Q 105.16 13.60 109.90 10.85
  Q 116.07 7.26 123.32 10.72
  Q 124.83 11.44 124.44 13.07
  L 123.78 15.75
  Q 123.45 17.12 122.20 16.47
  C 119.81 15.21 116.58 14.33 114.04 15.58
  Z"
/>
<path fill="#ffffff" d="
  M 10.51 18.49
  L 7.53 34.75
  A 0.44 0.41 -84.1 0 1 7.12 35.10
  L 0.45 35.15
  A 0.19 0.19 0.0 0 1 0.26 34.93
  L 4.04 13.27
  Q 4.30 11.78 5.73 11.28
  C 10.64 9.56 16.82 8.65 22.15 10.03
  C 25.79 10.98 27.11 14.74 26.64 18.14
  Q 25.50 26.38 23.77 34.00
  A 1.30 1.29 -83.5 0 1 22.51 35.01
  L 17.52 35.00
  Q 16.50 35.00 16.66 33.99
  L 19.02 19.94
  Q 19.62 16.34 15.99 15.94
  Q 14.91 15.82 14.21 15.74
  Q 11.08 15.39 10.51 18.49
  Z"
/>
<path fill="#ffffff" d="
  M 56.51 46.00
  L 50.15 46.00
  Q 53.34 25.42 55.56 13.75
  Q 55.73 12.82 56.30 11.97
  A 1.69 1.67 -84.8 0 1 57.05 11.34
  C 68.51 6.27 80.91 10.15 77.98 25.31
  C 76.31 33.96 68.43 36.98 60.47 35.18
  A 0.96 0.96 0.0 0 0 59.31 36.00
  Q 58.61 41.64 56.51 46.00
  Z
  M 62.67 17.04
  L 60.43 26.70
  A 2.16 2.16 0.0 0 0 62.04 29.29
  L 63.44 29.62
  A 6.02 5.68 -76.9 0 0 70.34 25.04
  L 70.84 22.90
  A 6.02 5.68 -76.9 0 0 66.67 15.75
  L 65.27 15.42
  A 2.16 2.16 0.0 0 0 62.67 17.04
  Z"
/>
</svg>
