<?xml version="1.0" encoding="UTF-8" standalone="no"?>
<!DOCTYPE svg PUBLIC "-//W3C//DTD SVG 1.1//EN" "http://www.w3.org/Graphics/SVG/1.1/DTD/svg11.dtd">
<svg xmlns="http://www.w3.org/2000/svg" version="1.1" viewBox="0.00 0.00 44.00 67.00">
<g stroke-width="2.00" fill="none" stroke-linecap="butt">
<path stroke="#98a0a5" vector-effect="non-scaling-stroke" d="
  M 30.15 17.69
  L 28.51 21.01
  Q 28.27 21.51 28.80 21.64
  Q 30.19 21.97 31.89 21.54"
/>
<path stroke="#98a0a5" vector-effect="non-scaling-stroke" d="
  M 34.40 38.32
  Q 31.17 36.53 33.04 34.09
  Q 35.57 30.77 38.01 27.33
  A 1.09 1.09 0.0 0 0 37.59 25.72
  Q 36.97 25.42 36.27 25.40
  Q 30.74 25.28 24.87 25.35
  A 1.44 1.43 71.1 0 1 23.70 24.77
  Q 22.97 23.80 23.41 22.92
  Q 27.27 15.11 31.75 6.48
  A 0.41 0.41 0.0 0 0 31.38 5.88
  L 18.92 5.93"
/>
<path stroke="#98a0a5" vector-effect="non-scaling-stroke" d="
  M 16.96 5.92
  Q 16.18 6.23 15.76 7.24
  Q 11.07 18.54 6.71 29.24
  C 5.69 31.74 5.20 34.10 7.60 35.72
  Q 9.28 36.86 11.53 36.79
  Q 15.47 36.66 19.44 36.81
  A 1.89 1.88 6.9 0 1 21.22 39.08
  L 18.89 50.12"
/>
<path stroke="#98a0a5" vector-effect="non-scaling-stroke" d="
  M 18.43 52.18
  Q 17.87 53.30 17.85 54.38
  Q 17.84 54.94 18.29 54.59
  Q 18.94 54.07 19.26 53.30"
/>
<path stroke="#98a0a5" vector-effect="non-scaling-stroke" d="
  M 20.56 51.36
  Q 24.05 46.66 27.51 41.99
  Q 29.04 39.91 31.39 42.62"
/>
<path stroke="#98a0a5" vector-effect="non-scaling-stroke" d="
  M 16.70 41.81
  Q 17.13 40.89 16.50 40.58
  Q 16.24 40.44 15.21 40.55"
/>
<path stroke="#98a0a5" vector-effect="non-scaling-stroke" d="
  M 20.0906 13.6962
  A 1.75 1.75 0.0 0 0 19.1356 11.4131
  L 19.0615 11.3827
  A 1.75 1.75 0.0 0 0 16.7784 12.3378
  L 11.3294 25.6238
  A 1.75 1.75 0.0 0 0 12.2844 27.9069
  L 12.3585 27.9373
  A 1.75 1.75 0.0 0 0 14.6416 26.9822
  L 20.0906 13.6962"
/>
</g>
<path fill="#ffffff" d="
  M 30.15 17.69
  L 28.51 21.01
  Q 28.27 21.51 28.80 21.64
  Q 30.19 21.97 31.89 21.54
  C 34.97 21.37 39.42 21.51 41.13 24.38
  Q 42.66 26.95 40.43 30.21
  Q 36.25 36.31 34.40 38.32
  Q 31.17 36.53 33.04 34.09
  Q 35.57 30.77 38.01 27.33
  A 1.09 1.09 0.0 0 0 37.59 25.72
  Q 36.97 25.42 36.27 25.40
  Q 30.74 25.28 24.87 25.35
  A 1.44 1.43 71.1 0 1 23.70 24.77
  Q 22.97 23.80 23.41 22.92
  Q 27.27 15.11 31.75 6.48
  A 0.41 0.41 0.0 0 0 31.38 5.88
  L 18.92 5.93
  L 16.96 5.92
  Q 16.18 6.23 15.76 7.24
  Q 11.07 18.54 6.71 29.24
  C 5.69 31.74 5.20 34.10 7.60 35.72
  Q 9.28 36.86 11.53 36.79
  Q 15.47 36.66 19.44 36.81
  A 1.89 1.88 6.9 0 1 21.22 39.08
  L 18.89 50.12
  L 18.43 52.18
  Q 17.87 53.30 17.85 54.38
  Q 17.84 54.94 18.29 54.59
  Q 18.94 54.07 19.26 53.30
  L 20.56 51.36
  Q 24.05 46.66 27.51 41.99
  Q 29.04 39.91 31.39 42.62
  L 15.21 65.01
  A 1.75 1.74 21.2 0 1 13.59 65.72
  Q 11.85 65.50 12.27 63.40
  Q 14.43 52.58 16.70 41.81
  Q 17.13 40.89 16.50 40.58
  Q 16.24 40.44 15.21 40.55
  C 9.67 40.58 4.55 40.51 2.54 34.25
  Q 1.78 31.89 2.69 29.59
  Q 7.40 17.79 11.90 6.99
  Q 13.07 4.18 15.67 2.39
  Q 16.09 2.09 16.61 2.09
  L 34.80 2.10
  A 1.84 1.84 0.0 0 1 36.45 4.74
  L 30.15 17.69
  Z"
/>
<path fill="#30414b" d="
  M 34.40 38.32
  Q 30.84 40.58 31.39 42.62
  Q 29.04 39.91 27.51 41.99
  Q 24.05 46.66 20.56 51.36
  L 20.45 50.37
  Q 20.39 49.86 19.89 49.95
  L 18.89 50.12
  L 21.22 39.08
  A 1.89 1.88 6.9 0 0 19.44 36.81
  Q 15.47 36.66 11.53 36.79
  Q 9.28 36.86 7.60 35.72
  C 5.20 34.10 5.69 31.74 6.71 29.24
  Q 11.07 18.54 15.76 7.24
  Q 16.18 6.23 16.96 5.92
  Q 16.63 7.07 17.12 7.79
  Q 17.42 8.24 17.88 7.94
  Q 19.28 7.00 18.92 5.93
  L 31.38 5.88
  A 0.41 0.41 0.0 0 1 31.75 6.48
  Q 27.27 15.11 23.41 22.92
  Q 22.97 23.80 23.70 24.77
  A 1.44 1.43 71.1 0 0 24.87 25.35
  Q 30.74 25.28 36.27 25.40
  Q 36.97 25.42 37.59 25.72
  A 1.09 1.09 0.0 0 1 38.01 27.33
  Q 35.57 30.77 33.04 34.09
  Q 31.17 36.53 34.40 38.32
  Z
  M 20.0906 13.6962
  A 1.75 1.75 0.0 0 0 19.1356 11.4131
  L 19.0615 11.3827
  A 1.75 1.75 0.0 0 0 16.7784 12.3378
  L 11.3294 25.6238
  A 1.75 1.75 0.0 0 0 12.2844 27.9069
  L 12.3585 27.9373
  A 1.75 1.75 0.0 0 0 14.6416 26.9822
  L 20.0906 13.6962
  Z"
/>
<rect fill="#ffffff" x="-1.79" y="-8.93" transform="translate(15.71,19.66) rotate(22.3)" width="3.58" height="17.86" rx="1.75"/>
<path fill="#30414b" d="
  M 30.15 17.69
  Q 29.59 19.94 31.89 21.54
  Q 30.19 21.97 28.80 21.64
  Q 28.27 21.51 28.51 21.01
  L 30.15 17.69
  Z"
/>
<path fill="#30414b" d="
  M 15.21 40.55
  Q 16.24 40.44 16.50 40.58
  Q 17.13 40.89 16.70 41.81
  L 15.21 40.55
  Z"
/>
<path fill="#30414b" d="
  M 18.43 52.18
  Q 18.65 53.08 19.26 53.30
  Q 18.94 54.07 18.29 54.59
  Q 17.84 54.94 17.85 54.38
  Q 17.87 53.30 18.43 52.18
  Z"
/>
</svg>
