<?xml version="1.0" encoding="UTF-8" standalone="no"?>
<!DOCTYPE svg PUBLIC "-//W3C//DTD SVG 1.1//EN" "http://www.w3.org/Graphics/SVG/1.1/DTD/svg11.dtd">
<svg xmlns="http://www.w3.org/2000/svg" version="1.1" viewBox="0.00 0.00 160.00 47.00">
<path stroke="#e5e7e8" stroke-width="2.00" fill="none" stroke-linecap="butt" vector-effect="non-scaling-stroke" d="
  M 8.96 1.58
  Q 3.09 5.08 5.46 10.02
  Q 6.52 12.20 10.76 19.29
  Q 13.11 23.20 15.47 24.46
  Q 20.73 27.27 25.27 21.52"
/>
<path fill="#ffffff" d="
  M 8.96 1.58
  Q 3.09 5.08 5.46 10.02
  Q 6.52 12.20 10.76 19.29
  Q 13.11 23.20 15.47 24.46
  Q 20.73 27.27 25.27 21.52
  Q 30.34 12.99 35.03 4.82
  Q 36.17 2.84 39.52 2.12
  C 46.85 0.55 52.40 7.38 48.53 14.02
  Q 40.13 28.42 32.13 42.15
  C 28.74 47.96 21.04 47.30 17.81 41.78
  Q 9.69 27.92 2.17 14.81
  Q 0.84 12.48 0.78 9.69
  Q 0.66 2.63 8.96 1.58
  Z"
/>
<path fill="#cbced0" d="
  M 8.96 1.58
  Q 13.36 1.68 15.81 6.00
  Q 20.20 13.74 25.27 21.52
  Q 20.73 27.27 15.47 24.46
  Q 13.11 23.20 10.76 19.29
  Q 6.52 12.20 5.46 10.02
  Q 3.09 5.08 8.96 1.58
  Z"
/>
<path fill="#ffffff" d="
  M 125.78 35.75
  C 127.74 29.49 123.90 23.39 116.84 24.07
  C 112.16 24.52 109.15 29.04 109.77 33.61
  Q 110.62 39.81 116.92 41.05
  C 119.15 41.49 119.85 43.47 120.57 45.32
  Q 120.79 45.88 120.20 45.93
  C 110.56 46.80 103.43 41.12 103.85 31.25
  C 104.31 20.29 116.21 15.61 125.23 20.11
  Q 128.47 21.73 130.22 24.75
  Q 135.06 33.11 129.54 41.04
  Q 129.22 41.50 129.18 42.06
  Q 129.10 43.52 129.50 44.97
  A 0.56 0.56 0.0 0 1 128.95 45.68
  L 125.71 45.63
  Q 125.04 45.62 124.67 45.06
  Q 121.19 39.84 118.43 34.40
  A 0.79 0.78 -21.3 0 1 118.92 33.29
  Q 123.08 32.09 125.13 35.82
  A 0.36 0.35 -50.9 0 0 125.78 35.75
  Z"
/>
<rect fill="#ffffff" x="-2.63" y="-13.66" transform="translate(53.50,32.45) rotate(0.1)" width="5.26" height="27.32" rx="2.57"/>
<path fill="#ffffff" d="
  M 66.20 34.98
  Q 65.88 34.98 65.88 35.31
  L 65.88 40.56
  A 0.41 0.41 0.0 0 0 66.30 40.97
  L 77.56 40.93
  Q 80.13 40.92 80.16 43.49
  Q 80.17 44.42 79.52 45.24
  A 1.97 1.95 -70.8 0 1 77.98 45.99
  L 63.44 46.00
  A 3.31 3.30 89.9 0 1 60.13 42.69
  L 60.12 21.70
  Q 60.12 19.01 62.81 18.99
  L 77.53 18.87
  A 2.32 2.31 -2.1 0 1 79.85 21.02
  L 79.88 21.45
  Q 80.06 23.95 77.55 23.96
  L 66.29 24.02
  Q 65.86 24.02 65.87 24.45
  L 65.90 29.30
  Q 65.90 29.84 66.44 29.84
  Q 71.83 29.79 76.97 29.95
  Q 78.81 30.01 79.47 31.47
  C 80.40 33.50 77.84 34.94 76.17 34.97
  Q 71.20 35.04 66.20 34.98
  Z"
/>
<path fill="#ffffff" d="
  M 87.29 23.98
  C 85.73 24.01 83.50 24.29 82.20 23.27
  Q 80.91 22.26 81.58 20.41
  A 1.90 1.90 0.0 0 1 83.16 19.16
  Q 90.99 18.29 97.77 19.02
  Q 100.17 19.28 100.01 21.68
  C 99.84 24.40 96.18 24.00 94.27 24.17
  Q 93.74 24.22 93.74 24.75
  L 93.73 43.52
  Q 93.73 45.62 91.64 45.85
  Q 91.26 45.89 90.88 45.89
  Q 88.02 45.92 88.02 43.06
  L 87.99 24.66
  Q 87.99 23.96 87.29 23.98
  Z"
/>
<path fill="#ffffff" d="
  M 141.74 24.50
  L 141.73 44.26
  A 0.87 0.86 -90.0 0 1 140.87 45.13
  L 136.44 45.13
  Q 135.25 45.13 135.25 43.94
  L 135.30 20.62
  A 1.42 1.42 0.0 0 1 136.67 19.20
  Q 142.61 18.99 148.04 19.21
  Q 150.18 19.30 152.38 20.08
  C 159.97 22.78 160.49 32.51 154.00 37.04
  Q 153.46 37.42 153.80 37.98
  L 157.54 44.06
  Q 158.52 45.64 156.67 45.76
  L 154.62 45.89
  Q 152.63 46.01 151.49 44.38
  L 142.95 32.25
  Q 142.24 31.25 143.45 31.08
  Q 146.96 30.58 150.03 32.04
  A 0.90 0.89 -59.0 0 0 151.13 31.76
  C 153.20 29.01 152.37 24.60 148.50 24.14
  Q 145.21 23.75 142.33 23.88
  Q 141.74 23.91 141.74 24.50
  Z"
/>
</svg>
