<?xml version="1.0" encoding="UTF-8" standalone="no"?>
<!DOCTYPE svg PUBLIC "-//W3C//DTD SVG 1.1//EN" "http://www.w3.org/Graphics/SVG/1.1/DTD/svg11.dtd">
<svg xmlns="http://www.w3.org/2000/svg" version="1.1" viewBox="0.00 0.00 167.00 165.00">
<g stroke-width="2.00" fill="none" stroke-linecap="butt">
<path stroke="#997dad" vector-effect="non-scaling-stroke" d="
  M 82.77 2.00
  L 83.44 4.93"
/>
<path stroke="#536080" vector-effect="non-scaling-stroke" d="
  M 83.44 4.93
  Q 72.38 4.85 61.24 5.37
  Q 52.65 5.77 44.05 5.99
  C 41.80 6.05 39.43 6.91 36.97 6.84"
/>
<path stroke="#6a92c8" vector-effect="non-scaling-stroke" d="
  M 36.97 6.84
  Q 37.70 5.72 35.88 4.90
  Q 35.37 4.67 35.57 4.16
  L 35.99 3.03"
/>
<path stroke="#c86a92" vector-effect="non-scaling-stroke" d="
  M 123.12 1.95
  Q 122.79 2.49 122.88 2.65
  Q 122.96 2.80 123.10 2.70
  Q 123.30 2.56 123.46 2.72
  Q 123.73 2.98 123.43 3.21
  Q 122.10 4.26 124.07 6.18"
/>
<path stroke="#6c5571" vector-effect="non-scaling-stroke" d="
  M 124.07 6.18
  L 83.44 4.93"
/>
<path stroke="#3d6a8c" vector-effect="non-scaling-stroke" d="
  M 36.97 6.84
  Q 13.77 12.96 7.70 34.27
  Q 6.24 39.39 5.70 49.94
  Q 5.29 57.96 4.95 65.76"
/>
<path stroke="#3a688c" vector-effect="non-scaling-stroke" d="
  M 4.95 65.76
  C 5.02 80.35 4.72 95.01 5.24 109.34
  Q 5.66 120.86 6.26 124.97
  Q 9.92 150.26 33.96 158.39"
/>
<path stroke="#6a92c8" vector-effect="non-scaling-stroke" d="
  M 33.96 158.39
  Q 34.04 158.86 34.40 159.00
  Q 34.92 159.19 34.49 159.54
  Q 34.30 159.69 34.06 159.68
  A 0.56 0.52 -60.2 0 0 33.71 159.79
  Q 33.09 160.27 33.21 160.94
  Q 33.33 161.58 32.68 161.63
  Q 32.33 161.66 32.02 161.80"
/>
<path stroke="#c86a92" vector-effect="non-scaling-stroke" d="
  M 133.56 161.97
  L 132.89 160.79
  Q 132.66 160.38 132.69 159.91
  Q 132.76 159.01 132.49 158.14"
/>
<path stroke="#7f4b65" vector-effect="non-scaling-stroke" d="
  M 132.49 158.14
  Q 152.91 151.45 158.57 130.79"
/>
<path stroke="#824d65" vector-effect="non-scaling-stroke" d="
  M 158.57 130.79
  Q 159.73 125.64 159.83 124.00
  Q 160.31 116.38 160.67 109.50
  C 161.41 95.53 160.99 81.11 161.01 67.41
  Q 161.02 61.86 160.67 56.85
  C 160.23 50.43 160.37 44.12 159.13 37.90
  C 155.49 19.72 142.31 8.28 124.07 6.18"
/>
<path stroke="#695371" vector-effect="non-scaling-stroke" d="
  M 132.49 158.14
  Q 126.09 159.88 122.00 159.99
  Q 105.49 160.46 88.95 161.08"
/>
<path stroke="#505e80" vector-effect="non-scaling-stroke" d="
  M 88.95 161.08
  Q 59.04 160.93 42.50 159.92
  Q 40.70 159.81 33.96 158.39"
/>
<path stroke="#997dad" vector-effect="non-scaling-stroke" d="
  M 88.95 161.08
  Q 87.70 161.59 87.76 163.10
  Q 87.76 163.27 87.87 163.42
  Q 87.95 163.52 88.07 163.51
  Q 88.51 163.48 88.12 163.67
  Q 87.95 163.76 87.96 163.99"
/>
</g>
<path fill="#7f87bc" d="
  M 82.77 2.00
  L 83.44 4.93
  Q 72.38 4.85 61.24 5.37
  Q 52.65 5.77 44.05 5.99
  C 41.80 6.05 39.43 6.91 36.97 6.84
  Q 37.70 5.72 35.88 4.90
  Q 35.37 4.67 35.57 4.16
  L 35.99 3.03
  C 37.81 2.54 39.44 2.06 41.37 2.05
  Q 62.01 1.93 82.77 2.00
  Z"
/>
<path fill="#b2729e" d="
  M 82.77 2.00
  L 123.12 1.95
  Q 122.79 2.49 122.88 2.65
  Q 122.96 2.80 123.10 2.70
  Q 123.30 2.56 123.46 2.72
  Q 123.73 2.98 123.43 3.21
  Q 122.10 4.26 124.07 6.18
  L 83.44 4.93
  L 82.77 2.00
  Z"
/>
<path fill="#dd6186" d="
  M 123.12 1.95
  Q 131.94 2.58 138.91 6.07
  Q 157.52 15.38 162.84 35.11
  Q 164.15 39.97 164.12 46.13
  Q 163.91 84.32 164.06 122.15
  Q 164.08 129.32 160.49 137.50
  Q 152.52 155.69 133.56 161.97
  L 132.89 160.79
  Q 132.66 160.38 132.69 159.91
  Q 132.76 159.01 132.49 158.14
  Q 152.91 151.45 158.57 130.79
  Q 159.73 125.64 159.83 124.00
  Q 160.31 116.38 160.67 109.50
  C 161.41 95.53 160.99 81.11 161.01 67.41
  Q 161.02 61.86 160.67 56.85
  C 160.23 50.43 160.37 44.12 159.13 37.90
  C 155.49 19.72 142.31 8.28 124.07 6.18
  Q 122.10 4.26 123.43 3.21
  Q 123.73 2.98 123.46 2.72
  Q 123.30 2.56 123.10 2.70
  Q 122.96 2.80 122.88 2.65
  Q 122.79 2.49 123.12 1.95
  Z"
/>
<path fill="#549cd4" d="
  M 35.99 3.03
  L 35.57 4.16
  Q 35.37 4.67 35.88 4.90
  Q 37.70 5.72 36.97 6.84
  Q 13.77 12.96 7.70 34.27
  Q 6.24 39.39 5.70 49.94
  Q 5.29 57.96 4.95 65.76
  C 5.02 80.35 4.72 95.01 5.24 109.34
  Q 5.66 120.86 6.26 124.97
  Q 9.92 150.26 33.96 158.39
  Q 34.04 158.86 34.40 159.00
  Q 34.92 159.19 34.49 159.54
  Q 34.30 159.69 34.06 159.68
  A 0.56 0.52 -60.2 0 0 33.71 159.79
  Q 33.09 160.27 33.21 160.94
  Q 33.33 161.58 32.68 161.63
  Q 32.33 161.66 32.02 161.80
  C 18.01 157.07 7.37 145.77 3.37 131.56
  Q 1.87 126.21 1.91 119.82
  Q 2.18 82.11 1.90 46.70
  Q 1.85 39.91 3.31 34.64
  Q 5.31 27.47 9.31 21.53
  Q 18.89 7.34 35.99 3.03
  Z"
/>
<path fill="#ffffff" d="
  M 112.22 80.20
  Q 112.28 91.92 112.22 103.90
  C 112.18 110.73 107.83 112.81 101.88 112.76
  Q 81.24 112.62 62.78 112.70
  C 55.99 112.73 53.58 108.50 53.68 102.31
  Q 53.86 90.93 53.72 79.97
  Q 53.72 79.51 53.33 79.26
  C 50.22 77.29 51.28 75.08 52.27 71.59
  Q 54.36 64.22 56.54 56.77
  A 3.61 3.59 8.2 0 1 60.00 54.20
  L 106.01 54.19
  A 3.61 3.59 81.8 0 1 109.46 56.78
  Q 112.14 65.96 114.60 74.78
  Q 115.39 77.61 112.77 79.22
  Q 112.22 79.55 112.22 80.20
  Z
  M 55.42 75.89
  C 60.27 76.61 64.61 76.07 68.40 73.64
  Q 68.86 73.35 68.91 72.81
  L 70.18 58.45
  A 0.62 0.62 0.0 0 0 69.57 57.77
  L 60.50 57.76
  Q 59.97 57.76 59.83 58.26
  L 55.00 75.23
  Q 54.83 75.80 55.42 75.89
  Z
  M 73.29 73.65
  C 79.37 77.54 86.43 77.44 92.68 73.66
  Q 93.19 73.36 93.14 72.77
  L 91.85 58.29
  Q 91.81 57.77 91.28 57.77
  L 74.71 57.76
  Q 74.05 57.76 74.03 58.42
  Q 73.81 64.16 73.00 70.34
  Q 72.82 71.70 72.95 73.10
  A 0.76 0.74 -77.5 0 0 73.29 73.65
  Z
  M 97.65 73.69
  C 101.54 76.01 105.45 76.62 110.56 75.92
  Q 111.18 75.83 111.01 75.23
  L 106.16 58.26
  Q 106.02 57.77 105.51 57.77
  L 96.24 57.76
  Q 95.75 57.76 95.79 58.26
  L 97.08 72.78
  Q 97.14 73.38 97.65 73.69
  Z
  M 86.17 84.75
  C 90.77 84.94 93.47 88.95 93.47 93.50
  Q 93.46 100.99 93.45 108.48
  Q 93.45 109.11 94.08 109.09
  Q 98.65 108.98 103.78 109.10
  C 106.74 109.16 108.68 107.27 108.67 104.23
  Q 108.63 91.77 108.66 80.32
  Q 108.66 79.62 107.96 79.69
  Q 101.59 80.32 95.79 76.70
  Q 95.24 76.36 94.68 76.69
  Q 83.02 83.61 71.31 76.68
  A 1.05 1.05 0.0 0 0 70.22 76.70
  Q 64.64 80.25 58.00 79.69
  Q 57.35 79.63 57.35 80.28
  L 57.34 104.83
  A 4.23 4.23 0.0 0 0 61.57 109.06
  L 70.98 109.05
  Q 71.49 109.05 71.50 108.54
  Q 71.61 102.40 71.45 95.34
  C 71.33 90.08 72.97 85.23 78.72 84.82
  Q 82.15 84.58 86.17 84.75
  Z
  M 75.44 109.05
  L 89.52 109.05
  A 0.30 0.30 0.0 0 0 89.82 108.75
  L 89.82 92.58
  A 4.45 4.33 -0.0 0 0 85.37 88.25
  L 79.59 88.25
  A 4.45 4.33 -0.0 0 0 75.14 92.58
  L 75.14 108.75
  A 0.30 0.30 0.0 0 0 75.44 109.05
  Z"
/>
<path fill="#7f87bc" d="
  M 33.96 158.39
  Q 40.70 159.81 42.50 159.92
  Q 59.04 160.93 88.95 161.08
  Q 87.70 161.59 87.76 163.10
  Q 87.76 163.27 87.87 163.42
  Q 87.95 163.52 88.07 163.51
  Q 88.51 163.48 88.12 163.67
  Q 87.95 163.76 87.96 163.99
  Q 65.86 164.01 43.75 163.98
  Q 37.73 163.97 32.02 161.80
  Q 32.33 161.66 32.68 161.63
  Q 33.33 161.58 33.21 160.94
  Q 33.09 160.27 33.71 159.79
  A 0.56 0.52 -60.2 0 1 34.06 159.68
  Q 34.30 159.69 34.49 159.54
  Q 34.92 159.19 34.40 159.00
  Q 34.04 158.86 33.96 158.39
  Z"
/>
<path fill="#b2729e" d="
  M 132.49 158.14
  Q 132.76 159.01 132.69 159.91
  Q 132.66 160.38 132.89 160.79
  L 133.56 161.97
  Q 127.84 163.99 124.50 163.99
  Q 106.23 164.01 87.96 163.99
  Q 87.95 163.76 88.12 163.67
  Q 88.51 163.48 88.07 163.51
  Q 87.95 163.52 87.87 163.42
  Q 87.76 163.27 87.76 163.10
  Q 87.70 161.59 88.95 161.08
  Q 105.49 160.46 122.00 159.99
  Q 126.09 159.88 132.49 158.14
  Z"
/>
</svg>
