<?xml version="1.0" encoding="UTF-8" standalone="no"?>
<!DOCTYPE svg PUBLIC "-//W3C//DTD SVG 1.1//EN" "http://www.w3.org/Graphics/SVG/1.1/DTD/svg11.dtd">
<svg xmlns="http://www.w3.org/2000/svg" version="1.1" viewBox="0.00 0.00 166.00 164.00">
<g stroke-width="2.00" fill="none" stroke-linecap="butt">
<path stroke="#967faf" vector-effect="non-scaling-stroke" d="
  M 70.56 1.02
  Q 69.56 2.08 69.63 4.03"
/>
<path stroke="#4e6282" vector-effect="non-scaling-stroke" d="
  M 69.63 4.03
  Q 56.10 4.86 42.75 5.00
  Q 34.15 5.09 24.52 10.26"
/>
<path stroke="#6595cb" vector-effect="non-scaling-stroke" d="
  M 24.52 10.26
  Q 25.20 9.14 24.86 8.26
  Q 24.66 7.74 24.17 8.00
  Q 23.23 8.51 22.13 9.04
  Q 21.63 9.27 22.04 8.90
  Q 22.14 8.81 22.04 8.66
  Q 21.90 8.46 21.70 8.59
  Q 20.60 9.31 19.75 8.96"
/>
<path stroke="#6595cb" vector-effect="non-scaling-stroke" d="
  M 29.69 156.25
  Q 29.67 156.88 29.91 157.46
  Q 30.11 157.91 29.76 158.26
  Q 29.42 158.59 29.11 158.94
  Q 28.70 159.40 28.27 158.98
  L 27.70 158.42
  Q 27.31 158.04 26.96 158.47
  L 26.48 159.05"
/>
<path stroke="#ca6991" vector-effect="non-scaling-stroke" d="
  M 119.06 1.01
  Q 116.97 4.41 119.25 4.86"
/>
<path stroke="#6e5470" vector-effect="non-scaling-stroke" d="
  M 119.25 4.86
  L 69.63 4.03"
/>
<path stroke="#6e5470" vector-effect="non-scaling-stroke" d="
  M 137.95 154.54
  Q 128.98 158.84 121.00 158.99
  Q 110.20 159.18 99.42 159.71
  C 92.21 160.06 84.97 159.97 77.73 160.13"
/>
<path stroke="#4e6282" vector-effect="non-scaling-stroke" d="
  M 77.73 160.13
  Q 60.10 159.48 42.50 158.98
  Q 37.58 158.84 29.69 156.25"
/>
<path stroke="#3d698c" vector-effect="non-scaling-stroke" d="
  M 29.69 156.25
  C 13.63 149.43 5.72 136.47 4.92 119.36
  C 4.58 111.91 3.94 104.68 3.97 97.30
  Q 4.04 82.80 3.97 66.99
  Q 3.94 60.81 4.30 55.62
  C 4.73 49.52 4.62 43.44 5.72 37.53
  C 7.94 25.60 14.04 16.30 24.52 10.26"
/>
<path stroke="#ca6991" vector-effect="non-scaling-stroke" d="
  M 139.51 158.08
  L 137.95 154.54"
/>
<path stroke="#814c64" vector-effect="non-scaling-stroke" d="
  M 137.95 154.54
  C 151.01 147.73 158.11 135.42 158.97 120.79
  C 159.48 112.03 160.04 103.48 160.02 94.84
  Q 159.98 81.08 160.01 66.29
  C 160.02 60.09 159.51 54.25 159.30 48.17
  Q 159.01 40.21 157.68 34.82
  Q 152.48 13.69 130.53 6.46
  Q 127.77 5.55 119.25 4.86"
/>
<path stroke="#967faf" vector-effect="non-scaling-stroke" d="
  M 77.52 163.00
  Q 78.69 161.33 77.73 160.13"
/>
<path stroke="#929ba1" vector-effect="non-scaling-stroke" d="
  M 95.38 56.23
  Q 73.60 56.23 51.75 56.23
  Q 47.75 56.23 47.52 60.55
  Q 47.33 63.91 47.53 67.60
  A 1.22 1.22 0.0 0 0 48.66 68.76
  Q 49.05 68.79 49.42 68.66
  Q 50.68 68.21 50.69 66.87
  L 50.73 60.74
  A 0.94 0.94 0.0 0 1 51.67 59.81
  L 95.09 59.80"
/>
<path stroke="#80304f" vector-effect="non-scaling-stroke" d="
  M 95.09 59.80
  Q 95.51 60.15 95.61 60.51
  Q 98.37 69.87 108.25 70.04
  Q 109.40 70.06 113.04 68.77"
/>
<path stroke="#929ba1" vector-effect="non-scaling-stroke" d="
  M 113.04 68.77
  L 113.05 102.97
  Q 113.05 104.23 111.78 104.23
  L 66.28 104.23
  Q 65.54 104.23 65.66 103.50
  C 65.93 101.84 65.81 99.45 63.40 99.77
  A 1.30 1.27 5.6 0 0 62.37 100.60
  Q 61.86 101.99 62.10 103.51
  Q 62.22 104.23 61.49 104.23
  L 51.72 104.23
  A 1.01 1.01 0.0 0 1 50.72 103.22
  L 50.71 75.98
  A 1.64 1.63 20.7 0 0 50.15 74.75
  Q 49.17 73.90 48.12 74.42
  A 1.19 1.19 0.0 0 0 47.47 75.48
  L 47.47 103.74
  A 4.03 4.03 0.0 0 0 51.50 107.77
  L 111.94 107.76
  A 4.77 4.77 0.0 0 0 116.71 102.99
  L 116.72 65.75"
/>
<path stroke="#80304f" vector-effect="non-scaling-stroke" d="
  M 116.72 65.75
  C 119.12 62.07 119.02 60.49 119.05 56.87
  C 119.10 50.68 113.43 46.19 107.55 46.13
  Q 98.27 46.03 95.38 56.23"
/>
<path stroke="#ed94ad" vector-effect="non-scaling-stroke" d="
  M 116.72 65.75
  L 113.04 68.77"
/>
<path stroke="#ed94ad" vector-effect="non-scaling-stroke" d="
  M 95.09 59.80
  Q 95.75 58.78 95.38 56.23"
/>
<path stroke="#929ba1" vector-effect="non-scaling-stroke" d="
  M 65.6556 65.4319
  A 1.69 1.69 0.0 0 0 63.9393 63.7687
  L 63.7193 63.7721
  A 1.69 1.69 0.0 0 0 62.0560 65.4885
  L 62.1044 68.5681
  A 1.69 1.69 0.0 0 0 63.8207 70.2313
  L 64.0407 70.2279
  A 1.69 1.69 0.0 0 0 65.7040 68.5115
  L 65.6556 65.4319"
/>
<path stroke="#929ba1" vector-effect="non-scaling-stroke" d="
  M 89.87 76.14
  A 6.21 6.21 0.0 0 0 83.66 69.93
  A 6.21 6.21 0.0 0 0 77.45 76.14
  A 6.21 6.21 0.0 0 0 83.66 82.35
  A 6.21 6.21 0.0 0 0 89.87 76.14"
/>
<path stroke="#929ba1" vector-effect="non-scaling-stroke" d="
  M 80.38 92.22
  A 0.47 0.47 0.0 0 0 80.51 92.95
  L 81.98 93.70
  A 0.47 0.47 0.0 0 0 82.54 93.60
  L 98.85 75.46
  A 0.47 0.47 0.0 0 0 98.73 74.74
  L 97.31 73.94
  A 0.47 0.47 0.0 0 0 96.73 74.03
  L 80.38 92.22"
/>
<path stroke="#929ba1" vector-effect="non-scaling-stroke" d="
  M 65.6501 77.4257
  A 1.69 1.69 0.0 0 0 63.9280 75.7685
  L 63.7080 75.7727
  A 1.69 1.69 0.0 0 0 62.0508 77.4948
  L 62.1099 80.5743
  A 1.69 1.69 0.0 0 0 63.8320 82.2315
  L 64.0520 82.2273
  A 1.69 1.69 0.0 0 0 65.7092 80.5052
  L 65.6501 77.4257"
/>
<path stroke="#929ba1" vector-effect="non-scaling-stroke" d="
  M 102.43 90.86
  A 6.20 6.20 0.0 0 0 96.23 84.66
  A 6.20 6.20 0.0 0 0 90.03 90.86
  A 6.20 6.20 0.0 0 0 96.23 97.06
  A 6.20 6.20 0.0 0 0 102.43 90.86"
/>
<path stroke="#929ba1" vector-effect="non-scaling-stroke" d="
  M 65.6528 89.4288
  A 1.69 1.69 0.0 0 0 63.9336 87.7686
  L 63.7136 87.7724
  A 1.69 1.69 0.0 0 0 62.0534 89.4916
  L 62.1072 92.5712
  A 1.69 1.69 0.0 0 0 63.8264 94.2314
  L 64.0464 94.2276
  A 1.69 1.69 0.0 0 0 65.7066 92.5084
  L 65.6528 89.4288"
/>
<path stroke="#929ba1" vector-effect="non-scaling-stroke" d="
  M 85.98 76.15
  A 2.34 2.34 0.0 0 0 83.64 73.81
  A 2.34 2.34 0.0 0 0 81.30 76.15
  A 2.34 2.34 0.0 0 0 83.64 78.49
  A 2.34 2.34 0.0 0 0 85.98 76.15"
/>
<path stroke="#929ba1" vector-effect="non-scaling-stroke" d="
  M 98.56 90.87
  A 2.32 2.32 0.0 0 0 96.24 88.55
  A 2.32 2.32 0.0 0 0 93.92 90.87
  A 2.32 2.32 0.0 0 0 96.24 93.19
  A 2.32 2.32 0.0 0 0 98.56 90.87"
/>
</g>
<path fill="#768dc1" d="
  M 70.56 1.02
  Q 69.56 2.08 69.63 4.03
  Q 56.10 4.86 42.75 5.00
  Q 34.15 5.09 24.52 10.26
  Q 25.20 9.14 24.86 8.26
  Q 24.66 7.74 24.17 8.00
  Q 23.23 8.51 22.13 9.04
  Q 21.63 9.27 22.04 8.90
  Q 22.14 8.81 22.04 8.66
  Q 21.90 8.46 21.70 8.59
  Q 20.60 9.31 19.75 8.96
  Q 26.00 4.59 33.25 2.45
  Q 37.86 1.09 45.40 1.03
  Q 57.96 0.93 70.56 1.02
  Z"
/>
<path fill="#b6719c" d="
  M 70.56 1.02
  L 119.06 1.01
  Q 116.97 4.41 119.25 4.86
  L 69.63 4.03
  Q 69.56 2.08 70.56 1.02
  Z"
/>
<path fill="#dd6185" d="
  M 119.06 1.01
  C 121.04 1.00 123.06 0.90 124.98 1.20
  C 142.61 3.97 156.44 16.03 161.61 33.08
  Q 163.11 38.05 163.09 44.08
  Q 162.91 81.29 163.10 119.00
  Q 163.13 125.12 161.72 130.22
  Q 156.65 148.51 139.51 158.08
  L 137.95 154.54
  C 151.01 147.73 158.11 135.42 158.97 120.79
  C 159.48 112.03 160.04 103.48 160.02 94.84
  Q 159.98 81.08 160.01 66.29
  C 160.02 60.09 159.51 54.25 159.30 48.17
  Q 159.01 40.21 157.68 34.82
  Q 152.48 13.69 130.53 6.46
  Q 127.77 5.55 119.25 4.86
  Q 116.97 4.41 119.06 1.01
  Z"
/>
<path fill="#549cd5" d="
  M 24.52 10.26
  C 14.04 16.30 7.94 25.60 5.72 37.53
  C 4.62 43.44 4.73 49.52 4.30 55.62
  Q 3.94 60.81 3.97 66.99
  Q 4.04 82.80 3.97 97.30
  C 3.94 104.68 4.58 111.91 4.92 119.36
  C 5.72 136.47 13.63 149.43 29.69 156.25
  Q 29.67 156.88 29.91 157.46
  Q 30.11 157.91 29.76 158.26
  Q 29.42 158.59 29.11 158.94
  Q 28.70 159.40 28.27 158.98
  L 27.70 158.42
  Q 27.31 158.04 26.96 158.47
  L 26.48 159.05
  Q 7.63 149.71 2.25 129.94
  Q 0.89 124.97 0.92 120.13
  Q 1.14 82.16 0.91 44.56
  Q 0.87 38.86 2.28 33.83
  Q 5.32 22.95 12.63 14.89
  Q 15.15 12.11 19.75 8.96
  Q 20.60 9.31 21.70 8.59
  Q 21.90 8.46 22.04 8.66
  Q 22.14 8.81 22.04 8.90
  Q 21.63 9.27 22.13 9.04
  Q 23.23 8.51 24.17 8.00
  Q 24.66 7.74 24.86 8.26
  Q 25.20 9.14 24.52 10.26
  Z"
/>
<path fill="#db295b" d="
  M 116.72 65.75
  L 113.04 68.77
  Q 109.40 70.06 108.25 70.04
  Q 98.37 69.87 95.61 60.51
  Q 95.51 60.15 95.09 59.80
  Q 95.75 58.78 95.38 56.23
  Q 98.27 46.03 107.55 46.13
  C 113.43 46.19 119.10 50.68 119.05 56.87
  C 119.02 60.49 119.12 62.07 116.72 65.75
  Z"
/>
<path fill="#ffffff" d="
  M 95.38 56.23
  Q 95.75 58.78 95.09 59.80
  L 51.67 59.81
  A 0.94 0.94 0.0 0 0 50.73 60.74
  L 50.69 66.87
  Q 50.68 68.21 49.42 68.66
  Q 49.05 68.79 48.66 68.76
  A 1.22 1.22 0.0 0 1 47.53 67.60
  Q 47.33 63.91 47.52 60.55
  Q 47.75 56.23 51.75 56.23
  Q 73.60 56.23 95.38 56.23
  Z"
/>
<rect fill="#ffffff" x="-1.80" y="-3.23" transform="translate(63.88,67.00) rotate(-0.9)" width="3.60" height="6.46" rx="1.69"/>
<path fill="#ffffff" d="
  M 116.72 65.75
  L 116.71 102.99
  A 4.77 4.77 0.0 0 1 111.94 107.76
  L 51.50 107.77
  A 4.03 4.03 0.0 0 1 47.47 103.74
  L 47.47 75.48
  A 1.19 1.19 0.0 0 1 48.12 74.42
  Q 49.17 73.90 50.15 74.75
  A 1.64 1.63 20.7 0 1 50.71 75.98
  L 50.72 103.22
  A 1.01 1.01 0.0 0 0 51.72 104.23
  L 61.49 104.23
  Q 62.22 104.23 62.10 103.51
  Q 61.86 101.99 62.37 100.60
  A 1.30 1.27 5.6 0 1 63.40 99.77
  C 65.81 99.45 65.93 101.84 65.66 103.50
  Q 65.54 104.23 66.28 104.23
  L 111.78 104.23
  Q 113.05 104.23 113.05 102.97
  L 113.04 68.77
  L 116.72 65.75
  Z"
/>
<path fill="#ffffff" d="
  M 89.87 76.14
  A 6.21 6.21 0.0 0 1 83.66 82.35
  A 6.21 6.21 0.0 0 1 77.45 76.14
  A 6.21 6.21 0.0 0 1 83.66 69.93
  A 6.21 6.21 0.0 0 1 89.87 76.14
  Z
  M 85.98 76.15
  A 2.34 2.34 0.0 0 0 83.64 73.81
  A 2.34 2.34 0.0 0 0 81.30 76.15
  A 2.34 2.34 0.0 0 0 83.64 78.49
  A 2.34 2.34 0.0 0 0 85.98 76.15
  Z"
/>
<circle fill="#253643" cx="83.64" cy="76.15" r="2.34"/>
<path fill="#ffffff" d="
  M 80.38 92.22
  L 96.73 74.03
  A 0.47 0.47 0.0 0 1 97.31 73.94
  L 98.73 74.74
  A 0.47 0.47 0.0 0 1 98.85 75.46
  L 82.54 93.60
  A 0.47 0.47 0.0 0 1 81.98 93.70
  L 80.51 92.95
  A 0.47 0.47 0.0 0 1 80.38 92.22
  Z"
/>
<rect fill="#ffffff" x="-1.80" y="-3.23" transform="translate(63.88,79.00) rotate(-1.1)" width="3.60" height="6.46" rx="1.69"/>
<path fill="#ffffff" d="
  M 102.43 90.86
  A 6.20 6.20 0.0 0 1 96.23 97.06
  A 6.20 6.20 0.0 0 1 90.03 90.86
  A 6.20 6.20 0.0 0 1 96.23 84.66
  A 6.20 6.20 0.0 0 1 102.43 90.86
  Z
  M 98.56 90.87
  A 2.32 2.32 0.0 0 0 96.24 88.55
  A 2.32 2.32 0.0 0 0 93.92 90.87
  A 2.32 2.32 0.0 0 0 96.24 93.19
  A 2.32 2.32 0.0 0 0 98.56 90.87
  Z"
/>
<rect fill="#ffffff" x="-1.80" y="-3.23" transform="translate(63.88,91.00) rotate(-1.0)" width="3.60" height="6.46" rx="1.69"/>
<circle fill="#253643" cx="96.24" cy="90.87" r="2.32"/>
<path fill="#b6719c" d="
  M 137.95 154.54
  L 139.51 158.08
  Q 130.18 163.00 122.75 163.00
  Q 100.11 163.01 77.52 163.00
  Q 78.69 161.33 77.73 160.13
  C 84.97 159.97 92.21 160.06 99.42 159.71
  Q 110.20 159.18 121.00 158.99
  Q 128.98 158.84 137.95 154.54
  Z"
/>
<path fill="#768dc1" d="
  M 29.69 156.25
  Q 37.58 158.84 42.50 158.98
  Q 60.10 159.48 77.73 160.13
  Q 78.69 161.33 77.52 163.00
  Q 60.36 163.01 43.25 162.97
  Q 34.71 162.95 26.48 159.05
  L 26.96 158.47
  Q 27.31 158.04 27.70 158.42
  L 28.27 158.98
  Q 28.70 159.40 29.11 158.94
  Q 29.42 158.59 29.76 158.26
  Q 30.11 157.91 29.91 157.46
  Q 29.67 156.88 29.69 156.25
  Z"
/>
</svg>
