<?xml version="1.0" encoding="UTF-8" standalone="no"?>
<!DOCTYPE svg PUBLIC "-//W3C//DTD SVG 1.1//EN" "http://www.w3.org/Graphics/SVG/1.1/DTD/svg11.dtd">
<svg xmlns="http://www.w3.org/2000/svg" version="1.1" viewBox="0.00 0.00 264.00 66.00">
<path fill="#ffffff" d="
  M 235.17 0.00
  L 239.95 0.00
  Q 260.49 3.56 264.00 23.84
  L 264.00 28.97
  L 261.83 36.10
  A 1.08 1.07 -70.0 0 1 260.38 36.78
  Q 253.78 33.96 247.13 32.41
  Q 245.40 32.00 245.39 30.21
  L 245.36 19.99
  A 1.37 1.36 -0.0 0 0 243.99 18.63
  L 230.51 18.62
  Q 229.91 18.62 229.90 19.21
  Q 229.80 24.19 229.91 29.45
  Q 229.94 30.72 229.34 31.71
  A 1.29 1.28 9.5 0 1 228.55 32.27
  Q 221.26 33.94 215.04 36.72
  A 1.29 1.28 66.1 0 1 213.34 36.06
  C 210.06 28.54 210.81 20.49 214.77 13.48
  Q 221.08 2.32 235.17 0.00
  Z"
/>
<path fill="#ffffff" d="
  M 16.94 52.15
  L 23.88 34.47
  Q 24.51 32.87 26.23 32.87
  L 29.29 32.87
  Q 31.08 32.87 30.45 34.55
  Q 25.83 46.81 20.22 60.77
  C 19.17 63.40 17.88 64.85 14.67 65.03
  Q 12.95 65.13 12.29 63.49
  Q 7.12 50.59 0.88 34.54
  Q 0.23 32.88 2.02 32.88
  L 6.49 32.88
  A 2.63 2.62 -10.9 0 1 8.93 34.53
  Q 11.88 41.90 14.92 49.77
  Q 15.45 51.15 16.31 52.24
  Q 16.71 52.74 16.94 52.15
  Z"
/>
<path fill="#ffffff" d="
  M 132.70 47.19
  A 0.48 0.48 0.0 0 0 132.81 47.94
  C 135.70 49.57 137.50 52.79 137.07 56.01
  Q 136.03 63.91 128.40 64.78
  Q 124.37 65.25 113.69 65.05
  Q 112.96 65.04 112.96 64.31
  L 112.96 33.51
  Q 112.96 32.90 113.57 32.89
  Q 120.65 32.79 126.92 32.95
  C 131.50 33.07 136.35 37.01 135.56 41.97
  Q 135.13 44.70 132.70 47.19
  Z
  M 120.12 39.49
  L 120.12 44.59
  A 0.85 0.85 0.0 0 0 120.98 45.44
  L 124.44 45.43
  A 4.55 3.27 -0.1 0 0 128.98 42.15
  L 128.98 41.89
  A 4.55 3.27 -0.1 0 0 124.42 38.63
  L 120.96 38.64
  A 0.85 0.85 0.0 0 0 120.12 39.49
  Z
  M 120.12 52.46
  L 120.12 58.10
  A 1.20 1.20 0.0 0 0 121.33 59.30
  L 125.64 59.29
  A 4.75 3.90 -0.1 0 0 130.38 55.38
  L 130.38 55.14
  A 4.75 3.90 -0.1 0 0 125.62 51.25
  L 121.31 51.26
  A 1.20 1.20 0.0 0 0 120.12 52.46
  Z"
/>
<path fill="#ffffff" d="
  M 198.23 56.42
  Q 198.07 56.75 198.06 57.10
  Q 197.91 60.47 198.06 64.19
  Q 198.09 65.09 197.20 65.07
  L 192.24 64.96
  A 1.13 1.13 0.0 0 1 191.14 63.83
  Q 191.15 48.24 191.07 34.80
  Q 191.04 31.58 194.01 33.20
  Q 194.14 33.26 194.90 33.68
  Q 197.99 35.37 198.00 38.89
  L 198.00 48.98
  Q 198.00 50.69 199.17 49.45
  L 204.00 44.32
  Q 205.46 42.78 207.58 42.86
  L 211.06 42.99
  Q 213.13 43.07 211.71 44.57
  L 205.14 51.50
  A 1.77 1.76 48.4 0 0 205.01 53.78
  L 211.94 63.07
  Q 213.40 65.01 210.97 65.03
  L 207.18 65.04
  A 4.39 4.36 72.4 0 1 203.54 63.14
  L 198.89 56.37
  Q 198.51 55.82 198.23 56.42
  Z"
/>
<path fill="#ffffff" d="
  M 220.74 38.47
  Q 237.87 32.21 254.95 38.68
  Q 256.69 39.34 258.28 40.33
  Q 259.33 40.97 258.61 41.98
  C 248.59 56.01 225.86 56.30 216.32 41.44
  A 0.61 0.60 57.3 0 1 216.49 40.62
  Q 218.45 39.31 220.74 38.47
  Z"
/>
<path fill="#ffffff" d="
  M 64.82 48.17
  L 63.03 47.74
  Q 62.48 47.61 62.32 47.07
  Q 61.18 43.11 64.83 42.50
  Q 65.51 42.38 65.57 41.70
  L 65.91 37.93
  Q 65.99 37.10 66.82 37.07
  L 71.22 36.97
  Q 72.00 36.95 72.00 37.73
  L 72.01 41.69
  Q 72.01 42.39 72.68 42.58
  L 75.10 43.26
  Q 75.75 43.44 75.76 44.11
  L 75.77 46.64
  A 0.97 0.96 83.9 0 1 75.00 47.60
  L 72.72 48.07
  A 0.90 0.89 83.8 0 0 72.01 48.96
  Q 72.04 52.14 71.97 55.72
  C 71.92 57.78 73.28 58.89 75.02 59.57
  Q 75.53 59.77 75.62 60.31
  Q 75.95 62.22 75.62 64.45
  Q 75.54 64.98 74.99 65.03
  C 68.66 65.51 65.57 62.11 65.74 56.09
  Q 65.83 52.58 65.42 48.85
  Q 65.36 48.30 64.82 48.17
  Z"
/>
<path fill="#ffffff" d="
  M 50.62 66.00
  L 48.10 66.00
  Q 42.00 64.71 39.37 60.32
  C 33.31 50.23 44.12 37.50 54.78 43.46
  Q 60.76 46.80 60.92 54.00
  Q 60.97 56.00 58.97 56.00
  L 44.98 56.00
  A 0.80 0.80 0.0 0 0 44.21 57.03
  Q 45.59 61.79 50.50 60.78
  C 52.59 60.35 53.57 58.41 55.82 58.13
  Q 57.33 57.95 58.68 58.12
  A 1.00 0.99 21.8 0 1 59.36 59.70
  Q 55.37 65.08 50.62 66.00
  Z
  M 44.44 51.76
  L 54.02 51.84
  A 0.15 0.15 0.0 0 0 54.17 51.69
  L 54.17 51.61
  A 4.82 4.57 0.5 0 0 49.39 47.00
  L 49.15 47.00
  A 4.82 4.57 0.5 0 0 44.29 51.53
  L 44.29 51.61
  A 0.15 0.15 0.0 0 0 44.44 51.76
  Z"
/>
<path fill="#ffffff" d="
  M 95.04 43.89
  A 0.41 0.41 0.0 0 0 95.65 44.12
  Q 99.98 41.31 103.45 42.41
  Q 108.98 44.16 109.08 50.37
  Q 109.19 56.88 109.11 63.77
  A 1.28 1.28 0.0 0 1 107.83 65.03
  L 103.71 65.03
  Q 102.75 65.03 102.79 64.08
  Q 103.05 56.77 102.70 51.57
  C 102.61 50.21 101.51 48.60 100.18 48.19
  C 97.06 47.22 94.93 49.89 94.98 52.83
  Q 95.10 59.69 94.99 64.78
  A 0.26 0.26 0.0 0 1 94.73 65.04
  L 89.17 65.03
  Q 88.80 65.03 88.80 64.67
  L 88.41 44.35
  A 0.96 0.96 0.0 0 1 89.05 43.43
  Q 91.66 42.49 94.53 43.38
  Q 94.92 43.50 95.04 43.89
  Z"
/>
<path fill="#ffffff" d="
  M 151.37 66.00
  L 148.74 66.00
  Q 139.10 63.83 138.99 53.99
  Q 138.96 51.57 140.39 48.30
  C 143.17 41.96 150.24 40.45 155.99 43.96
  Q 156.51 44.27 156.88 43.78
  Q 157.24 43.30 157.86 43.03
  A 1.86 1.85 -56.5 0 1 158.59 42.88
  L 162.34 42.87
  Q 163.18 42.87 163.18 43.71
  L 163.24 64.29
  Q 163.24 64.88 162.66 64.98
  Q 159.57 65.47 156.80 64.35
  A 1.28 1.26 -43.9 0 0 155.89 64.34
  L 151.37 66.00
  Z
  M 151.4929 59.7885
  A 5.86 5.46 88.7 0 0 156.8186 53.8061
  A 5.86 5.46 88.7 0 0 151.2271 48.0715
  A 5.86 5.46 88.7 0 0 145.9014 54.0539
  A 5.86 5.46 88.7 0 0 151.4929 59.7885
  Z"
/>
<path fill="#ffffff" d="
  M 173.75 44.36
  Q 179.05 40.40 183.74 43.33
  Q 187.50 45.67 187.66 50.76
  Q 187.85 57.16 187.70 63.94
  Q 187.67 65.03 186.57 65.03
  L 182.27 65.03
  Q 181.00 65.03 181.00 63.77
  L 181.00 52.08
  Q 181.00 48.46 177.41 47.95
  Q 176.20 47.78 174.87 48.72
  A 2.87 2.87 0.0 0 0 173.65 51.05
  L 173.56 63.81
  A 1.19 1.19 0.0 0 1 172.38 64.99
  L 167.91 65.05
  Q 167.00 65.07 167.00 64.16
  L 167.00 43.56
  Q 167.00 42.85 167.70 42.89
  L 172.70 43.18
  A 0.72 0.72 0.0 0 1 173.37 44.01
  Q 173.30 44.48 173.59 44.43
  Q 173.68 44.41 173.75 44.36
  Z"
/>
<path fill="#ffffff" d="
  M 34.90 44.75
  L 34.89 63.13
  A 1.94 1.94 0.0 0 1 33.01 65.07
  L 30.12 65.16
  A 1.94 1.94 0.0 0 1 28.12 63.18
  L 28.40 47.29
  A 1.94 1.94 0.0 0 1 28.98 45.93
  L 31.60 43.37
  A 1.94 1.94 0.0 0 1 34.90 44.75
  Z"
/>
<path fill="#ffffff" d="
  M 79.29 45.79
  Q 80.42 44.13 82.42 43.29
  Q 85.01 42.19 85.01 45.01
  L 85.00 64.03
  Q 85.00 65.06 83.97 65.05
  L 79.76 65.02
  A 1.26 1.26 0.0 0 1 78.51 63.76
  L 78.48 48.40
  A 4.62 4.61 -27.8 0 1 79.29 45.79
  Z"
/>
</svg>
