<?xml version="1.0" encoding="UTF-8" standalone="no"?>
<!DOCTYPE svg PUBLIC "-//W3C//DTD SVG 1.1//EN" "http://www.w3.org/Graphics/SVG/1.1/DTD/svg11.dtd">
<svg xmlns="http://www.w3.org/2000/svg" version="1.1" viewBox="0.00 0.00 166.00 166.00">
<g stroke-width="2.00" fill="none" stroke-linecap="butt">
<path stroke="#997eae" vector-effect="non-scaling-stroke" d="
  M 79.99 2.02
  Q 80.49 3.11 79.99 3.61
  Q 79.68 3.92 79.73 4.36
  L 79.80 4.98"
/>
<path stroke="#516383" vector-effect="non-scaling-stroke" d="
  M 79.80 4.98
  Q 75.63 5.01 71.51 5.20
  Q 60.00 5.73 45.38 5.89
  C 42.29 5.92 39.12 6.81 35.94 7.12
  Q 32.11 7.51 24.78 11.72"
/>
<path stroke="#6794ca" vector-effect="non-scaling-stroke" d="
  M 24.78 11.72
  Q 25.15 10.69 24.64 10.02
  Q 24.33 9.60 23.84 9.78
  Q 22.06 10.44 20.60 11.75
  Q 20.06 12.25 19.33 12.36
  Q 18.47 12.48 19.23 12.06
  Q 20.26 11.46 21.27 10.94
  Q 22.26 10.43 23.12 9.65
  Q 24.09 8.79 25.30 8.02
  Q 25.87 7.66 25.22 7.52
  L 24.75 7.41"
/>
<path stroke="#6794ca" vector-effect="non-scaling-stroke" d="
  M 39.50 159.67
  Q 41.52 162.17 39.04 163.84"
/>
<path stroke="#834e66" vector-effect="non-scaling-stroke" d="
  M 143.43 13.01
  Q 158.15 23.90 159.78 42.01
  Q 160.08 45.33 160.65 55.83
  C 161.43 70.38 160.99 85.02 161.01 99.71
  C 161.01 105.59 160.47 111.39 160.26 117.26
  Q 159.98 125.22 158.61 130.63
  Q 153.65 150.22 133.73 157.82"
/>
<path stroke="#705571" vector-effect="non-scaling-stroke" d="
  M 133.73 157.82
  Q 126.94 159.74 123.13 159.88
  Q 106.03 160.51 88.98 161.08"
/>
<path stroke="#516383" vector-effect="non-scaling-stroke" d="
  M 88.98 161.08
  C 81.30 160.96 73.42 161.11 66.01 160.80
  Q 52.69 160.23 39.50 159.67"
/>
<path stroke="#3e6b8d" vector-effect="non-scaling-stroke" d="
  M 39.50 159.67
  Q 19.06 155.86 10.26 138.61
  C 7.47 133.14 6.12 126.19 5.83 120.00
  C 5.49 112.94 4.98 105.93 4.99 98.84
  C 5.01 84.42 4.59 70.14 5.35 55.91
  Q 5.72 49.11 6.27 42.14
  C 7.25 29.71 13.73 18.11 24.78 11.72"
/>
<path stroke="#ca6991" vector-effect="non-scaling-stroke" d="
  M 146.09 10.39
  Q 145.45 10.31 145.09 10.77
  Q 144.80 11.15 144.33 11.18
  Q 142.09 11.34 143.43 13.01"
/>
<path stroke="#705571" vector-effect="non-scaling-stroke" d="
  M 143.43 13.01
  Q 132.55 6.10 121.76 5.98
  Q 110.39 5.85 99.05 5.24
  C 92.45 4.89 86.23 4.97 79.80 4.98"
/>
<path stroke="#ca6991" vector-effect="non-scaling-stroke" d="
  M 135.19 161.48
  Q 132.58 158.57 133.73 157.82"
/>
<path stroke="#997eae" vector-effect="non-scaling-stroke" d="
  M 88.74 163.99
  Q 87.71 163.00 88.56 162.05
  Q 89.25 161.27 88.98 161.08"
/>
<path stroke="#949da3" vector-effect="non-scaling-stroke" d="
  M 91.4856 52.9842
  A 4.54 4.54 0.0 0 0 86.9140 48.4760
  L 79.9742 48.5244
  A 4.54 4.54 0.0 0 0 75.4660 53.0960
  L 75.5144 60.0358
  A 4.54 4.54 0.0 0 0 80.0860 64.5440
  L 87.0258 64.4956
  A 4.54 4.54 0.0 0 0 91.5340 59.9240
  L 91.4856 52.9842"
/>
<path stroke="#949da3" vector-effect="non-scaling-stroke" d="
  M 108.5180 53.0920
  A 4.55 4.55 0.0 0 0 103.9918 48.5182
  L 97.0719 48.4820
  A 4.55 4.55 0.0 0 0 92.4982 53.0081
  L 92.4620 59.9080
  A 4.55 4.55 0.0 0 0 96.9882 64.4818
  L 103.9081 64.5180
  A 4.55 4.55 0.0 0 0 108.4818 59.9919
  L 108.5180 53.0920"
/>
<path stroke="#949da3" vector-effect="non-scaling-stroke" d="
  M 91.51 70.02
  A 4.53 4.53 0.0 0 0 86.98 65.49
  L 80.04 65.49
  A 4.53 4.53 0.0 0 0 75.51 70.02
  L 75.51 76.96
  A 4.53 4.53 0.0 0 0 80.04 81.49
  L 86.98 81.49
  A 4.53 4.53 0.0 0 0 91.51 76.96
  L 91.51 70.02"
/>
<path stroke="#949da3" vector-effect="non-scaling-stroke" d="
  M 100.49 69.50
  A 3.99 3.99 0.0 0 0 96.50 65.51
  A 3.99 3.99 0.0 0 0 92.51 69.50
  A 3.99 3.99 0.0 0 0 96.50 73.49
  A 3.99 3.99 0.0 0 0 100.49 69.50"
/>
<path stroke="#949da3" vector-effect="non-scaling-stroke" d="
  M 104.95 69.04
  L 104.91 71.47
  Q 104.89 72.77 106.16 73.01
  Q 106.54 73.08 106.92 73.00
  Q 107.85 72.78 107.86 71.82
  L 107.88 67.09
  Q 107.89 65.82 106.64 65.66
  Q 104.78 65.41 103.07 65.74
  Q 101.69 66.00 101.98 67.44
  C 102.19 68.52 103.43 68.73 104.32 68.53
  Q 104.96 68.38 104.95 69.04"
/>
<path stroke="#949da3" vector-effect="non-scaling-stroke" d="
  M 107.59 77.51
  A 3.99 3.99 0.0 0 0 103.60 73.52
  A 3.99 3.99 0.0 0 0 99.61 77.51
  A 3.99 3.99 0.0 0 0 103.60 81.50
  A 3.99 3.99 0.0 0 0 107.59 77.51"
/>
<path stroke="#949da3" vector-effect="non-scaling-stroke" d="
  M 95.50 77.62
  L 95.50 75.15
  Q 95.49 73.81 94.15 73.76
  L 93.63 73.75
  A 1.06 1.05 -88.4 0 0 92.54 74.79
  L 92.48 79.78
  A 1.40 1.40 0.0 0 0 93.88 81.20
  L 97.15 81.19
  Q 97.84 81.19 98.20 80.59
  Q 98.78 79.58 98.11 78.75
  Q 97.71 78.24 97.06 78.24
  L 96.12 78.24
  Q 95.50 78.23 95.50 77.62"
/>
<path stroke="#949da3" vector-effect="non-scaling-stroke" d="
  M 97.93 99.86
  C 97.85 95.55 95.21 92.50 91.34 90.86
  Q 80.66 86.32 71.32 82.26
  Q 66.28 80.07 61.68 82.56
  Q 55.84 85.73 49.31 89.19
  Q 47.68 90.05 48.44 91.73
  Q 48.55 91.97 48.74 92.14
  Q 49.72 93.03 50.89 92.42
  Q 57.29 89.10 63.71 85.57
  C 65.35 84.67 67.46 84.56 69.18 85.29
  Q 79.17 89.51 90.59 94.51
  C 95.17 96.52 96.07 103.19 89.70 103.47
  Q 87.97 103.54 86.28 102.85
  Q 81.21 100.75 76.47 98.89
  Q 74.89 98.27 74.08 99.76
  Q 73.75 100.36 74.02 101.17
  A 1.35 1.35 0.0 0 0 74.76 101.98
  Q 79.90 104.24 85.13 106.22
  Q 89.56 107.89 93.09 106.45
  Q 98.65 104.19 104.24 101.72
  C 106.69 100.63 109.30 100.35 111.82 101.24
  A 0.37 0.37 0.0 0 1 111.86 101.92
  L 88.10 114.03
  Q 87.03 114.57 85.92 114.13
  Q 76.76 110.46 67.20 106.46
  C 65.47 105.75 63.23 105.52 61.50 106.23
  Q 55.84 108.57 49.02 111.62
  A 1.40 1.40 0.0 0 0 48.18 112.95
  Q 48.20 113.69 48.60 114.21
  Q 49.48 115.35 50.80 114.78
  L 62.49 109.71
  A 3.92 3.90 -45.2 0 1 65.57 109.69
  Q 75.09 113.64 84.57 117.47
  Q 87.12 118.51 89.48 117.32
  Q 102.27 110.89 116.74 103.44
  A 1.87 1.87 0.0 0 0 117.12 100.37
  C 113.29 97.04 108.07 96.19 103.42 98.20
  Q 101.00 99.24 98.62 100.29
  Q 97.95 100.59 97.93 99.86"
/>
<path stroke="#949da3" vector-effect="non-scaling-stroke" d="
  M 88.5182 53.0362
  A 1.50 1.50 0.0 0 0 87.0261 51.5284
  L 80.0262 51.4917
  A 1.50 1.50 0.0 0 0 78.5183 52.9839
  L 78.4818 59.9638
  A 1.50 1.50 0.0 0 0 79.9739 61.4716
  L 86.9738 61.5083
  A 1.50 1.50 0.0 0 0 88.4817 60.0161
  L 88.5182 53.0362"
/>
<path stroke="#949da3" vector-effect="non-scaling-stroke" d="
  M 105.5183 53.0162
  A 1.49 1.49 0.0 0 0 104.0361 51.5184
  L 97.0162 51.4817
  A 1.49 1.49 0.0 0 0 95.5184 52.9639
  L 95.4817 59.9838
  A 1.49 1.49 0.0 0 0 96.9639 61.4816
  L 103.9838 61.5183
  A 1.49 1.49 0.0 0 0 105.4816 60.0361
  L 105.5183 53.0162"
/>
<path stroke="#949da3" vector-effect="non-scaling-stroke" d="
  M 87.50 56.50
  A 4.00 4.00 0.0 0 0 83.50 52.50
  A 4.00 4.00 0.0 0 0 79.50 56.50
  A 4.00 4.00 0.0 0 0 83.50 60.50
  A 4.00 4.00 0.0 0 0 87.50 56.50"
/>
<path stroke="#949da3" vector-effect="non-scaling-stroke" d="
  M 104.48 56.50
  A 3.99 3.99 0.0 0 0 100.49 52.51
  A 3.99 3.99 0.0 0 0 96.50 56.50
  A 3.99 3.99 0.0 0 0 100.49 60.49
  A 3.99 3.99 0.0 0 0 104.48 56.50"
/>
<path stroke="#949da3" vector-effect="non-scaling-stroke" d="
  M 84.47 56.50
  A 0.97 0.97 0.0 0 0 83.50 55.53
  A 0.97 0.97 0.0 0 0 82.53 56.50
  A 0.97 0.97 0.0 0 0 83.50 57.47
  A 0.97 0.97 0.0 0 0 84.47 56.50"
/>
<path stroke="#949da3" vector-effect="non-scaling-stroke" d="
  M 101.48 56.50
  A 0.98 0.98 0.0 0 0 100.50 55.52
  A 0.98 0.98 0.0 0 0 99.52 56.50
  A 0.98 0.98 0.0 0 0 100.50 57.48
  A 0.98 0.98 0.0 0 0 101.48 56.50"
/>
<path stroke="#949da3" vector-effect="non-scaling-stroke" d="
  M 88.4816 69.9739
  A 1.50 1.50 0.0 0 0 86.9738 68.4817
  L 79.9739 68.5184
  A 1.50 1.50 0.0 0 0 78.4817 70.0262
  L 78.5184 77.0261
  A 1.50 1.50 0.0 0 0 80.0262 78.5183
  L 87.0261 78.4816
  A 1.50 1.50 0.0 0 0 88.5183 76.9738
  L 88.4816 69.9739"
/>
<path stroke="#949da3" vector-effect="non-scaling-stroke" d="
  M 97.47 69.50
  A 0.98 0.98 0.0 0 0 96.49 68.52
  A 0.98 0.98 0.0 0 0 95.51 69.50
  A 0.98 0.98 0.0 0 0 96.49 70.48
  A 0.98 0.98 0.0 0 0 97.47 69.50"
/>
<path stroke="#949da3" vector-effect="non-scaling-stroke" d="
  M 87.49 73.49
  A 3.99 3.99 0.0 0 0 83.50 69.50
  A 3.99 3.99 0.0 0 0 79.51 73.49
  A 3.99 3.99 0.0 0 0 83.50 77.48
  A 3.99 3.99 0.0 0 0 87.49 73.49"
/>
<path stroke="#949da3" vector-effect="non-scaling-stroke" d="
  M 84.48 73.50
  A 0.98 0.98 0.0 0 0 83.50 72.52
  A 0.98 0.98 0.0 0 0 82.52 73.50
  A 0.98 0.98 0.0 0 0 83.50 74.48
  A 0.98 0.98 0.0 0 0 84.48 73.50"
/>
<path stroke="#949da3" vector-effect="non-scaling-stroke" d="
  M 104.56 77.50
  A 0.98 0.98 0.0 0 0 103.58 76.52
  A 0.98 0.98 0.0 0 0 102.60 77.50
  A 0.98 0.98 0.0 0 0 103.58 78.48
  A 0.98 0.98 0.0 0 0 104.56 77.50"
/>
</g>
<path fill="#7a8bbf" d="
  M 79.99 2.02
  Q 80.49 3.11 79.99 3.61
  Q 79.68 3.92 79.73 4.36
  L 79.80 4.98
  Q 75.63 5.01 71.51 5.20
  Q 60.00 5.73 45.38 5.89
  C 42.29 5.92 39.12 6.81 35.94 7.12
  Q 32.11 7.51 24.78 11.72
  Q 25.15 10.69 24.64 10.02
  Q 24.33 9.60 23.84 9.78
  Q 22.06 10.44 20.60 11.75
  Q 20.06 12.25 19.33 12.36
  Q 18.47 12.48 19.23 12.06
  Q 20.26 11.46 21.27 10.94
  Q 22.26 10.43 23.12 9.65
  Q 24.09 8.79 25.30 8.02
  Q 25.87 7.66 25.22 7.52
  L 24.75 7.41
  Q 29.53 4.80 34.76 3.30
  Q 38.95 2.10 45.39 2.05
  Q 62.70 1.89 79.99 2.02
  Z"
/>
<path fill="#b7709c" d="
  M 79.99 2.02
  Q 99.64 1.92 119.28 2.01
  Q 126.95 2.04 131.57 3.36
  Q 139.35 5.59 146.09 10.39
  Q 145.45 10.31 145.09 10.77
  Q 144.80 11.15 144.33 11.18
  Q 142.09 11.34 143.43 13.01
  Q 132.55 6.10 121.76 5.98
  Q 110.39 5.85 99.05 5.24
  C 92.45 4.89 86.23 4.97 79.80 4.98
  L 79.73 4.36
  Q 79.68 3.92 79.99 3.61
  Q 80.49 3.11 79.99 2.02
  Z"
/>
<path fill="#549cd4" d="
  M 24.75 7.41
  L 25.22 7.52
  Q 25.87 7.66 25.30 8.02
  Q 24.09 8.79 23.12 9.65
  Q 22.26 10.43 21.27 10.94
  Q 20.26 11.46 19.23 12.06
  Q 18.47 12.48 19.33 12.36
  Q 20.06 12.25 20.60 11.75
  Q 22.06 10.44 23.84 9.78
  Q 24.33 9.60 24.64 10.02
  Q 25.15 10.69 24.78 11.72
  C 13.73 18.11 7.25 29.71 6.27 42.14
  Q 5.72 49.11 5.35 55.91
  C 4.59 70.14 5.01 84.42 4.99 98.84
  C 4.98 105.93 5.49 112.94 5.83 120.00
  C 6.12 126.19 7.47 133.14 10.26 138.61
  Q 19.06 155.86 39.50 159.67
  Q 41.52 162.17 39.04 163.84
  C 21.01 160.05 7.62 148.11 3.00 130.21
  Q 1.96 126.18 1.97 122.49
  Q 2.05 82.63 1.93 45.10
  Q 1.91 39.37 3.30 34.54
  C 4.88 29.06 7.18 24.08 10.58 19.92
  C 11.62 18.66 12.37 17.30 13.52 16.10
  Q 18.46 10.96 24.75 7.41
  Z"
/>
<path fill="#dd6186" d="
  M 146.09 10.39
  C 156.23 18.12 164.10 30.81 164.06 43.84
  Q 163.94 79.95 164.09 119.38
  Q 164.12 126.24 162.60 131.79
  Q 159.45 143.33 150.44 151.94
  Q 143.66 158.43 135.19 161.48
  Q 132.58 158.57 133.73 157.82
  Q 153.65 150.22 158.61 130.63
  Q 159.98 125.22 160.26 117.26
  C 160.47 111.39 161.01 105.59 161.01 99.71
  C 160.99 85.02 161.43 70.38 160.65 55.83
  Q 160.08 45.33 159.78 42.01
  Q 158.15 23.90 143.43 13.01
  Q 142.09 11.34 144.33 11.18
  Q 144.80 11.15 145.09 10.77
  Q 145.45 10.31 146.09 10.39
  Z"
/>
<path fill="#ffffff" d="
  M 91.5340 59.9240
  A 4.54 4.54 0.0 0 1 87.0258 64.4956
  L 80.0860 64.5440
  A 4.54 4.54 0.0 0 1 75.5144 60.0358
  L 75.4660 53.0960
  A 4.54 4.54 0.0 0 1 79.9742 48.5244
  L 86.9140 48.4760
  A 4.54 4.54 0.0 0 1 91.4856 52.9842
  L 91.5340 59.9240
  Z
  M 88.5182 53.0362
  A 1.50 1.50 0.0 0 0 87.0261 51.5284
  L 80.0262 51.4917
  A 1.50 1.50 0.0 0 0 78.5183 52.9839
  L 78.4818 59.9638
  A 1.50 1.50 0.0 0 0 79.9739 61.4716
  L 86.9738 61.5083
  A 1.50 1.50 0.0 0 0 88.4817 60.0161
  L 88.5182 53.0362
  Z"
/>
<path fill="#ffffff" d="
  M 108.4818 59.9919
  A 4.55 4.55 0.0 0 1 103.9081 64.5180
  L 96.9882 64.4818
  A 4.55 4.55 0.0 0 1 92.4620 59.9080
  L 92.4982 53.0081
  A 4.55 4.55 0.0 0 1 97.0719 48.4820
  L 103.9918 48.5182
  A 4.55 4.55 0.0 0 1 108.5180 53.0920
  L 108.4818 59.9919
  Z
  M 105.5183 53.0162
  A 1.49 1.49 0.0 0 0 104.0361 51.5184
  L 97.0162 51.4817
  A 1.49 1.49 0.0 0 0 95.5184 52.9639
  L 95.4817 59.9838
  A 1.49 1.49 0.0 0 0 96.9639 61.4816
  L 103.9838 61.5183
  A 1.49 1.49 0.0 0 0 105.4816 60.0361
  L 105.5183 53.0162
  Z"
/>
<path fill="#283a46" d="
  M 88.4817 60.0161
  A 1.50 1.50 0.0 0 1 86.9738 61.5083
  L 79.9739 61.4716
  A 1.50 1.50 0.0 0 1 78.4818 59.9638
  L 78.5183 52.9839
  A 1.50 1.50 0.0 0 1 80.0262 51.4917
  L 87.0261 51.5284
  A 1.50 1.50 0.0 0 1 88.5182 53.0362
  L 88.4817 60.0161
  Z
  M 87.50 56.50
  A 4.00 4.00 0.0 0 0 83.50 52.50
  A 4.00 4.00 0.0 0 0 79.50 56.50
  A 4.00 4.00 0.0 0 0 83.50 60.50
  A 4.00 4.00 0.0 0 0 87.50 56.50
  Z"
/>
<path fill="#283a46" d="
  M 105.4816 60.0361
  A 1.49 1.49 0.0 0 1 103.9838 61.5183
  L 96.9639 61.4816
  A 1.49 1.49 0.0 0 1 95.4817 59.9838
  L 95.5184 52.9639
  A 1.49 1.49 0.0 0 1 97.0162 51.4817
  L 104.0361 51.5184
  A 1.49 1.49 0.0 0 1 105.5183 53.0162
  L 105.4816 60.0361
  Z
  M 104.48 56.50
  A 3.99 3.99 0.0 0 0 100.49 52.51
  A 3.99 3.99 0.0 0 0 96.50 56.50
  A 3.99 3.99 0.0 0 0 100.49 60.49
  A 3.99 3.99 0.0 0 0 104.48 56.50
  Z"
/>
<path fill="#ffffff" d="
  M 87.50 56.50
  A 4.00 4.00 0.0 0 1 83.50 60.50
  A 4.00 4.00 0.0 0 1 79.50 56.50
  A 4.00 4.00 0.0 0 1 83.50 52.50
  A 4.00 4.00 0.0 0 1 87.50 56.50
  Z
  M 84.47 56.50
  A 0.97 0.97 0.0 0 0 83.50 55.53
  A 0.97 0.97 0.0 0 0 82.53 56.50
  A 0.97 0.97 0.0 0 0 83.50 57.47
  A 0.97 0.97 0.0 0 0 84.47 56.50
  Z"
/>
<path fill="#ffffff" d="
  M 104.48 56.50
  A 3.99 3.99 0.0 0 1 100.49 60.49
  A 3.99 3.99 0.0 0 1 96.50 56.50
  A 3.99 3.99 0.0 0 1 100.49 52.51
  A 3.99 3.99 0.0 0 1 104.48 56.50
  Z
  M 101.48 56.50
  A 0.98 0.98 0.0 0 0 100.50 55.52
  A 0.98 0.98 0.0 0 0 99.52 56.50
  A 0.98 0.98 0.0 0 0 100.50 57.48
  A 0.98 0.98 0.0 0 0 101.48 56.50
  Z"
/>
<circle fill="#283a46" cx="83.50" cy="56.50" r="0.97"/>
<circle fill="#283a46" cx="100.50" cy="56.50" r="0.98"/>
<path fill="#ffffff" d="
  M 91.51 76.96
  A 4.53 4.53 0.0 0 1 86.98 81.49
  L 80.04 81.49
  A 4.53 4.53 0.0 0 1 75.51 76.96
  L 75.51 70.02
  A 4.53 4.53 0.0 0 1 80.04 65.49
  L 86.98 65.49
  A 4.53 4.53 0.0 0 1 91.51 70.02
  L 91.51 76.96
  Z
  M 88.4816 69.9739
  A 1.50 1.50 0.0 0 0 86.9738 68.4817
  L 79.9739 68.5184
  A 1.50 1.50 0.0 0 0 78.4817 70.0262
  L 78.5184 77.0261
  A 1.50 1.50 0.0 0 0 80.0262 78.5183
  L 87.0261 78.4816
  A 1.50 1.50 0.0 0 0 88.5183 76.9738
  L 88.4816 69.9739
  Z"
/>
<path fill="#ffffff" d="
  M 100.49 69.50
  A 3.99 3.99 0.0 0 1 96.50 73.49
  A 3.99 3.99 0.0 0 1 92.51 69.50
  A 3.99 3.99 0.0 0 1 96.50 65.51
  A 3.99 3.99 0.0 0 1 100.49 69.50
  Z
  M 97.47 69.50
  A 0.98 0.98 0.0 0 0 96.49 68.52
  A 0.98 0.98 0.0 0 0 95.51 69.50
  A 0.98 0.98 0.0 0 0 96.49 70.48
  A 0.98 0.98 0.0 0 0 97.47 69.50
  Z"
/>
<path fill="#ffffff" d="
  M 104.32 68.53
  C 103.43 68.73 102.19 68.52 101.98 67.44
  Q 101.69 66.00 103.07 65.74
  Q 104.78 65.41 106.64 65.66
  Q 107.89 65.82 107.88 67.09
  L 107.86 71.82
  Q 107.85 72.78 106.92 73.00
  Q 106.54 73.08 106.16 73.01
  Q 104.89 72.77 104.91 71.47
  L 104.95 69.04
  Q 104.96 68.38 104.32 68.53
  Z"
/>
<path fill="#283a46" d="
  M 88.5183 76.9738
  A 1.50 1.50 0.0 0 1 87.0261 78.4816
  L 80.0262 78.5183
  A 1.50 1.50 0.0 0 1 78.5184 77.0261
  L 78.4817 70.0262
  A 1.50 1.50 0.0 0 1 79.9739 68.5184
  L 86.9738 68.4817
  A 1.50 1.50 0.0 0 1 88.4816 69.9739
  L 88.5183 76.9738
  Z
  M 87.49 73.49
  A 3.99 3.99 0.0 0 0 83.50 69.50
  A 3.99 3.99 0.0 0 0 79.51 73.49
  A 3.99 3.99 0.0 0 0 83.50 77.48
  A 3.99 3.99 0.0 0 0 87.49 73.49
  Z"
/>
<circle fill="#283a46" cx="96.49" cy="69.50" r="0.98"/>
<path fill="#ffffff" d="
  M 87.49 73.49
  A 3.99 3.99 0.0 0 1 83.50 77.48
  A 3.99 3.99 0.0 0 1 79.51 73.49
  A 3.99 3.99 0.0 0 1 83.50 69.50
  A 3.99 3.99 0.0 0 1 87.49 73.49
  Z
  M 84.48 73.50
  A 0.98 0.98 0.0 0 0 83.50 72.52
  A 0.98 0.98 0.0 0 0 82.52 73.50
  A 0.98 0.98 0.0 0 0 83.50 74.48
  A 0.98 0.98 0.0 0 0 84.48 73.50
  Z"
/>
<circle fill="#283a46" cx="83.50" cy="73.50" r="0.98"/>
<path fill="#ffffff" d="
  M 107.59 77.51
  A 3.99 3.99 0.0 0 1 103.60 81.50
  A 3.99 3.99 0.0 0 1 99.61 77.51
  A 3.99 3.99 0.0 0 1 103.60 73.52
  A 3.99 3.99 0.0 0 1 107.59 77.51
  Z
  M 104.56 77.50
  A 0.98 0.98 0.0 0 0 103.58 76.52
  A 0.98 0.98 0.0 0 0 102.60 77.50
  A 0.98 0.98 0.0 0 0 103.58 78.48
  A 0.98 0.98 0.0 0 0 104.56 77.50
  Z"
/>
<path fill="#ffffff" d="
  M 96.12 78.24
  L 97.06 78.24
  Q 97.71 78.24 98.11 78.75
  Q 98.78 79.58 98.20 80.59
  Q 97.84 81.19 97.15 81.19
  L 93.88 81.20
  A 1.40 1.40 0.0 0 1 92.48 79.78
  L 92.54 74.79
  A 1.06 1.05 -88.4 0 1 93.63 73.75
  L 94.15 73.76
  Q 95.49 73.81 95.50 75.15
  L 95.50 77.62
  Q 95.50 78.23 96.12 78.24
  Z"
/>
<circle fill="#283a46" cx="103.58" cy="77.50" r="0.98"/>
<path fill="#ffffff" d="
  M 98.62 100.29
  Q 101.00 99.24 103.42 98.20
  C 108.07 96.19 113.29 97.04 117.12 100.37
  A 1.87 1.87 0.0 0 1 116.74 103.44
  Q 102.27 110.89 89.48 117.32
  Q 87.12 118.51 84.57 117.47
  Q 75.09 113.64 65.57 109.69
  A 3.92 3.90 -45.2 0 0 62.49 109.71
  L 50.80 114.78
  Q 49.48 115.35 48.60 114.21
  Q 48.20 113.69 48.18 112.95
  A 1.40 1.40 0.0 0 1 49.02 111.62
  Q 55.84 108.57 61.50 106.23
  C 63.23 105.52 65.47 105.75 67.20 106.46
  Q 76.76 110.46 85.92 114.13
  Q 87.03 114.57 88.10 114.03
  L 111.86 101.92
  A 0.37 0.37 0.0 0 0 111.82 101.24
  C 109.30 100.35 106.69 100.63 104.24 101.72
  Q 98.65 104.19 93.09 106.45
  Q 89.56 107.89 85.13 106.22
  Q 79.90 104.24 74.76 101.98
  A 1.35 1.35 0.0 0 1 74.02 101.17
  Q 73.75 100.36 74.08 99.76
  Q 74.89 98.27 76.47 98.89
  Q 81.21 100.75 86.28 102.85
  Q 87.97 103.54 89.70 103.47
  C 96.07 103.19 95.17 96.52 90.59 94.51
  Q 79.17 89.51 69.18 85.29
  C 67.46 84.56 65.35 84.67 63.71 85.57
  Q 57.29 89.10 50.89 92.42
  Q 49.72 93.03 48.74 92.14
  Q 48.55 91.97 48.44 91.73
  Q 47.68 90.05 49.31 89.19
  Q 55.84 85.73 61.68 82.56
  Q 66.28 80.07 71.32 82.26
  Q 80.66 86.32 91.34 90.86
  C 95.21 92.50 97.85 95.55 97.93 99.86
  Q 97.95 100.59 98.62 100.29
  Z"
/>
<path fill="#b7709c" d="
  M 133.73 157.82
  Q 132.58 158.57 135.19 161.48
  Q 128.56 163.99 123.50 164.01
  Q 106.08 164.06 88.74 163.99
  Q 87.71 163.00 88.56 162.05
  Q 89.25 161.27 88.98 161.08
  Q 106.03 160.51 123.13 159.88
  Q 126.94 159.74 133.73 157.82
  Z"
/>
<path fill="#7a8bbf" d="
  M 39.50 159.67
  Q 52.69 160.23 66.01 160.80
  C 73.42 161.11 81.30 160.96 88.98 161.08
  Q 89.25 161.27 88.56 162.05
  Q 87.71 163.00 88.74 163.99
  L 39.04 163.84
  Q 41.52 162.17 39.50 159.67
  Z"
/>
</svg>
