<?xml version="1.0" encoding="UTF-8" standalone="no"?>
<!DOCTYPE svg PUBLIC "-//W3C//DTD SVG 1.1//EN" "http://www.w3.org/Graphics/SVG/1.1/DTD/svg11.dtd">
<svg xmlns="http://www.w3.org/2000/svg" version="1.1" viewBox="0.00 0.00 236.00 62.00">
<g stroke-width="2.00" fill="none" stroke-linecap="butt">
<path stroke="#66696c" vector-effect="non-scaling-stroke" d="
  M 42.14 19.63
  Q 42.74 19.88 43.30 20.59"
/>
<path stroke="#e5e7e8" vector-effect="non-scaling-stroke" d="
  M 43.30 20.59
  Q 42.47 21.66 41.22 22.43"
/>
<path stroke="#66696c" vector-effect="non-scaling-stroke" d="
  M 41.22 22.43
  L 39.20 20.33
  A 0.33 0.33 0.0 0 0 38.77 20.30
  L 38.55 20.45
  Q 38.06 20.80 38.53 21.18
  Q 39.65 22.06 40.36 23.30"
/>
<path stroke="#e5e7e8" vector-effect="non-scaling-stroke" d="
  M 40.36 23.30
  L 38.16 25.78"
/>
<path stroke="#66696c" vector-effect="non-scaling-stroke" d="
  M 38.16 25.78
  C 33.87 20.87 29.45 15.20 22.48 17.23
  Q 22.03 17.36 22.13 17.82
  L 22.22 18.20
  Q 22.29 18.51 22.59 18.41
  C 26.50 17.01 29.17 18.29 32.15 21.21
  Q 34.71 23.73 37.31 26.39"
/>
<path stroke="#e5e7e8" vector-effect="non-scaling-stroke" d="
  M 37.31 26.39
  L 34.81 28.73"
/>
<path stroke="#66696c" vector-effect="non-scaling-stroke" d="
  M 34.81 28.73
  Q 32.31 26.04 29.64 23.47
  Q 27.97 21.87 26.60 21.52
  C 21.89 20.32 18.63 25.90 21.65 29.61
  Q 23.66 32.07 26.37 34.21
  Q 26.43 34.25 26.48 34.20
  L 26.65 34.01
  A 0.48 0.48 0.0 0 0 26.65 33.35
  L 22.96 29.46
  Q 21.04 27.43 21.94 24.78
  Q 22.33 23.63 23.29 23.21
  Q 26.46 21.82 28.87 24.30
  L 34.01 29.63"
/>
<path stroke="#e5e7e8" vector-effect="non-scaling-stroke" d="
  M 34.01 29.63
  Q 33.25 30.75 31.64 31.63"
/>
<path stroke="#66696c" vector-effect="non-scaling-stroke" d="
  M 31.64 31.63
  L 25.67 25.82
  A 0.43 0.43 0.0 0 0 25.05 25.84
  L 24.84 26.07
  A 0.37 0.37 0.0 0 0 24.85 26.58
  L 30.51 32.35"
/>
<path stroke="#e5e7e8" vector-effect="non-scaling-stroke" d="
  M 30.51 32.35
  Q 29.62 33.93 28.50 34.62
  Q 28.08 34.87 27.82 35.30
  Q 26.84 36.93 25.07 37.72"
/>
<path stroke="#66696c" vector-effect="non-scaling-stroke" d="
  M 25.07 37.72
  C 20.19 33.39 14.40 28.88 18.66 21.32
  Q 18.95 20.82 18.37 20.84
  L 17.94 20.85
  A 0.51 0.50 -76.5 0 0 17.51 21.12
  C 13.15 29.17 18.77 32.77 23.52 38.06"
/>
<path stroke="#e5e7e8" vector-effect="non-scaling-stroke" d="
  M 23.52 38.06
  L 20.20 38.86"
/>
<path stroke="#66696c" vector-effect="non-scaling-stroke" d="
  M 20.20 38.86
  Q 14.35 35.20 13.06 29.17
  C 11.75 23.06 14.71 16.87 20.53 14.63
  Q 28.29 11.64 35.04 17.59
  Q 35.25 17.77 35.41 17.55
  L 35.74 17.07
  Q 35.82 16.97 35.73 16.88
  Q 30.21 11.59 23.27 12.63
  C 12.41 14.27 8.09 26.99 14.68 35.31
  Q 15.43 36.25 17.59 38.45"
/>
<path stroke="#e5e7e8" vector-effect="non-scaling-stroke" d="
  M 17.59 38.45
  Q 16.33 39.35 15.84 40.19"
/>
<path stroke="#808183" vector-effect="non-scaling-stroke" d="
  M 58.50 13.70
  Q 43.30 28.66 28.07 43.58
  Q 25.81 45.79 21.72 45.70"
/>
<path stroke="#808183" vector-effect="non-scaling-stroke" d="
  M 17.59 38.45
  Q 19.21 39.85 20.20 38.86"
/>
<path stroke="#808183" vector-effect="non-scaling-stroke" d="
  M 23.52 38.06
  Q 24.17 38.59 25.07 37.72"
/>
<path stroke="#808183" vector-effect="non-scaling-stroke" d="
  M 30.51 32.35
  Q 30.97 33.24 31.64 31.63"
/>
<path stroke="#808183" vector-effect="non-scaling-stroke" d="
  M 34.01 29.63
  Q 34.54 29.21 34.81 28.73"
/>
<path stroke="#808183" vector-effect="non-scaling-stroke" d="
  M 37.31 26.39
  Q 37.55 26.07 38.16 25.78"
/>
<path stroke="#808183" vector-effect="non-scaling-stroke" d="
  M 40.36 23.30
  Q 40.93 22.90 41.22 22.43"
/>
<path stroke="#808183" vector-effect="non-scaling-stroke" d="
  M 43.30 20.59
  L 44.21 19.52"
/>
<path stroke="#808183" vector-effect="non-scaling-stroke" d="
  M 22.76 47.03
  Q 26.87 45.87 28.63 44.14
  Q 43.83 29.21 59.08 14.33"
/>
<path stroke="#808183" vector-effect="non-scaling-stroke" d="
  M 229.07 29.43
  L 228.09 28.04
  Q 227.71 27.52 227.53 28.14
  Q 227.37 28.71 227.59 29.55"
/>
</g>
<path fill="#cbcfd1" d="
  M 42.14 19.63
  Q 42.74 19.88 43.30 20.59
  Q 42.47 21.66 41.22 22.43
  L 39.20 20.33
  A 0.33 0.33 0.0 0 0 38.77 20.30
  L 38.55 20.45
  Q 38.06 20.80 38.53 21.18
  Q 39.65 22.06 40.36 23.30
  L 38.16 25.78
  C 33.87 20.87 29.45 15.20 22.48 17.23
  Q 22.03 17.36 22.13 17.82
  L 22.22 18.20
  Q 22.29 18.51 22.59 18.41
  C 26.50 17.01 29.17 18.29 32.15 21.21
  Q 34.71 23.73 37.31 26.39
  L 34.81 28.73
  Q 32.31 26.04 29.64 23.47
  Q 27.97 21.87 26.60 21.52
  C 21.89 20.32 18.63 25.90 21.65 29.61
  Q 23.66 32.07 26.37 34.21
  Q 26.43 34.25 26.48 34.20
  L 26.65 34.01
  A 0.48 0.48 0.0 0 0 26.65 33.35
  L 22.96 29.46
  Q 21.04 27.43 21.94 24.78
  Q 22.33 23.63 23.29 23.21
  Q 26.46 21.82 28.87 24.30
  L 34.01 29.63
  Q 33.25 30.75 31.64 31.63
  L 25.67 25.82
  A 0.43 0.43 0.0 0 0 25.05 25.84
  L 24.84 26.07
  A 0.37 0.37 0.0 0 0 24.85 26.58
  L 30.51 32.35
  Q 29.62 33.93 28.50 34.62
  Q 28.08 34.87 27.82 35.30
  Q 26.84 36.93 25.07 37.72
  C 20.19 33.39 14.40 28.88 18.66 21.32
  Q 18.95 20.82 18.37 20.84
  L 17.94 20.85
  A 0.51 0.50 -76.5 0 0 17.51 21.12
  C 13.15 29.17 18.77 32.77 23.52 38.06
  L 20.20 38.86
  Q 14.35 35.20 13.06 29.17
  C 11.75 23.06 14.71 16.87 20.53 14.63
  Q 28.29 11.64 35.04 17.59
  Q 35.25 17.77 35.41 17.55
  L 35.74 17.07
  Q 35.82 16.97 35.73 16.88
  Q 30.21 11.59 23.27 12.63
  C 12.41 14.27 8.09 26.99 14.68 35.31
  Q 15.43 36.25 17.59 38.45
  Q 16.33 39.35 15.84 40.19
  Q 8.48 33.03 1.25 25.50
  C -0.38 23.81 0.03 21.43 1.69 19.78
  Q 10.93 10.55 18.77 2.72
  C 22.20 -0.70 24.71 2.18 27.13 4.62
  Q 34.64 12.19 42.14 19.63
  Z"
/>
<path fill="#ffffff" d="
  M 58.50 13.70
  Q 43.30 28.66 28.07 43.58
  Q 25.81 45.79 21.72 45.70
  L 15.84 40.19
  Q 16.33 39.35 17.59 38.45
  Q 19.21 39.85 20.20 38.86
  L 23.52 38.06
  Q 24.17 38.59 25.07 37.72
  Q 26.84 36.93 27.82 35.30
  Q 28.08 34.87 28.50 34.62
  Q 29.62 33.93 30.51 32.35
  Q 30.97 33.24 31.64 31.63
  Q 33.25 30.75 34.01 29.63
  Q 34.54 29.21 34.81 28.73
  L 37.31 26.39
  Q 37.55 26.07 38.16 25.78
  L 40.36 23.30
  Q 40.93 22.90 41.22 22.43
  Q 42.47 21.66 43.30 20.59
  L 44.21 19.52
  Q 48.36 15.35 52.49 11.14
  C 55.32 8.27 58.15 7.65 60.45 11.36
  Q 60.77 11.88 60.30 12.25
  L 58.50 13.70
  Z"
/>
<path fill="#000206" d="
  M 20.20 38.86
  Q 19.21 39.85 17.59 38.45
  Q 15.43 36.25 14.68 35.31
  C 8.09 26.99 12.41 14.27 23.27 12.63
  Q 30.21 11.59 35.73 16.88
  Q 35.82 16.97 35.74 17.07
  L 35.41 17.55
  Q 35.25 17.77 35.04 17.59
  Q 28.29 11.64 20.53 14.63
  C 14.71 16.87 11.75 23.06 13.06 29.17
  Q 14.35 35.20 20.20 38.86
  Z"
/>
<path fill="#ffffff" d="
  M 22.76 47.03
  Q 26.87 45.87 28.63 44.14
  Q 43.83 29.21 59.08 14.33
  L 61.03 13.17
  Q 61.48 12.91 61.94 13.16
  Q 63.65 14.10 65.25 15.71
  Q 70.73 21.19 75.69 26.31
  C 78.57 29.28 74.51 32.77 72.47 34.80
  Q 62.45 44.82 51.74 55.78
  Q 48.40 59.19 45.09 60.34
  Q 38.40 62.66 32.39 56.85
  Q 27.69 52.32 22.76 47.03
  Z"
/>
<path fill="#000206" d="
  M 58.50 13.70
  Q 58.56 14.18 59.08 14.33
  Q 43.83 29.21 28.63 44.14
  Q 26.87 45.87 22.76 47.03
  L 21.72 45.70
  Q 25.81 45.79 28.07 43.58
  Q 43.30 28.66 58.50 13.70
  Z"
/>
<path fill="#000206" d="
  M 38.16 25.78
  Q 37.55 26.07 37.31 26.39
  Q 34.71 23.73 32.15 21.21
  C 29.17 18.29 26.50 17.01 22.59 18.41
  Q 22.29 18.51 22.22 18.20
  L 22.13 17.82
  Q 22.03 17.36 22.48 17.23
  C 29.45 15.20 33.87 20.87 38.16 25.78
  Z"
/>
<path fill="#ffffff" d="
  M 96.87 37.50
  Q 99.87 30.17 102.17 23.25
  Q 102.83 21.27 102.37 19.08
  Q 102.20 18.26 103.03 18.24
  L 106.41 18.14
  Q 107.31 18.11 107.17 18.99
  Q 106.92 20.49 106.47 21.87
  Q 102.62 33.68 98.62 45.20
  Q 98.10 46.70 96.56 46.32
  Q 90.99 44.96 89.11 40.07
  Q 84.64 28.51 81.38 19.58
  Q 80.87 18.21 82.33 18.19
  Q 87.66 18.14 87.68 18.14
  Q 89.11 18.12 89.57 19.40
  Q 92.68 28.13 96.07 37.49
  Q 96.45 38.54 96.87 37.50
  Z"
/>
<path fill="#ffffff" d="
  M 115.33 28.97
  Q 115.09 29.48 115.07 30.05
  Q 114.90 35.69 115.05 41.66
  Q 115.10 43.45 116.06 45.11
  A 0.61 0.61 0.0 0 1 115.53 46.03
  L 110.97 46.04
  A 0.53 0.52 -86.6 0 1 110.45 45.45
  C 110.65 43.82 111.03 42.38 111.05 40.71
  Q 111.16 32.25 111.11 23.71
  C 111.10 22.00 110.37 20.69 110.14 19.02
  Q 110.05 18.35 110.71 18.25
  C 112.50 18.00 116.22 17.74 117.63 19.02
  Q 118.44 19.77 119.12 20.67
  Q 124.11 27.27 128.96 33.28
  Q 129.49 33.94 130.14 34.53
  Q 130.75 35.08 130.81 34.27
  Q 131.46 26.20 130.42 19.10
  Q 130.33 18.49 130.93 18.36
  Q 133.25 17.88 135.57 18.28
  Q 136.29 18.40 135.94 19.04
  Q 135.06 20.64 135.05 22.37
  Q 134.92 34.60 135.03 45.58
  A 1.00 0.99 3.5 0 1 133.90 46.57
  Q 129.53 45.98 127.04 42.97
  Q 123.00 38.08 119.09 32.77
  Q 117.58 30.73 115.82 28.89
  A 0.30 0.30 0.0 0 0 115.33 28.97
  Z"
/>
<path fill="#ffffff" d="
  M 148.60 22.13
  A 0.54 0.54 0.0 0 0 148.02 22.67
  Q 147.95 33.53 148.04 42.03
  Q 148.05 43.46 148.60 44.92
  A 0.67 0.67 0.0 0 1 148.06 45.83
  Q 144.51 46.29 140.89 45.74
  Q 140.26 45.64 140.40 45.03
  C 140.67 43.79 140.94 42.57 140.94 41.30
  Q 140.96 32.02 140.89 22.75
  Q 140.87 20.65 140.18 19.04
  Q 139.84 18.24 140.71 18.26
  Q 144.50 18.32 148.53 18.19
  C 154.33 18.00 160.09 19.24 160.07 26.21
  C 160.06 30.81 156.85 34.17 152.20 34.05
  A 0.73 0.73 0.0 0 1 151.54 33.04
  Q 152.39 31.00 152.83 29.04
  C 153.41 26.44 151.80 22.37 148.60 22.13
  Z"
/>
<path fill="#ffffff" d="
  M 172.40 37.73
  L 165.37 37.62
  A 1.69 1.69 0.0 0 0 163.91 38.43
  Q 161.96 41.64 162.35 45.19
  A 0.70 0.70 0.0 0 1 161.65 45.96
  L 157.37 45.91
  Q 156.58 45.91 156.86 45.16
  Q 161.08 33.87 164.27 24.09
  Q 165.14 21.43 164.99 18.85
  Q 164.96 18.26 165.54 18.26
  L 172.45 18.23
  A 1.83 1.82 -10.2 0 1 174.18 19.43
  Q 177.69 28.95 181.72 39.44
  Q 182.73 42.07 184.14 44.82
  Q 184.75 46.02 183.41 46.02
  L 175.38 45.99
  A 0.75 0.75 0.0 0 1 174.65 45.08
  Q 175.42 41.50 173.11 38.11
  Q 172.85 37.73 172.40 37.73
  Z
  M 165.45 33.17
  A 0.58 0.58 0.0 0 0 165.99 33.95
  L 170.89 33.99
  A 0.58 0.58 0.0 0 0 171.44 33.21
  L 169.04 26.52
  A 0.58 0.58 0.0 0 0 167.95 26.51
  L 165.45 33.17
  Z"
/>
<path fill="#ffffff" d="
  M 196.57 27.74
  Q 200.14 24.49 201.17 18.85
  Q 201.27 18.27 201.86 18.26
  L 206.66 18.23
  Q 208.74 18.22 207.55 19.92
  L 198.85 32.32
  A 3.85 3.81 64.3 0 0 198.17 34.30
  Q 197.83 40.37 198.54 45.67
  Q 198.59 46.02 198.24 46.01
  L 190.23 46.00
  Q 189.86 46.00 189.93 45.64
  Q 190.58 41.86 190.46 36.71
  Q 190.36 32.74 188.68 30.41
  Q 184.85 25.10 181.38 19.81
  Q 180.37 18.28 182.21 18.27
  L 187.22 18.23
  A 3.63 3.61 73.9 0 1 190.31 19.94
  L 195.01 27.53
  Q 195.66 28.57 196.57 27.74
  Z"
/>
<path fill="#ffffff" d="
  M 222.93 33.36
  Q 224.03 34.29 222.69 34.84
  Q 222.34 34.98 221.97 35.00
  A 4.68 4.67 61.8 0 1 219.02 34.11
  Q 216.68 32.41 213.80 31.96
  C 206.75 30.86 206.20 20.26 213.78 18.54
  Q 218.52 17.47 221.23 21.44
  C 223.19 24.30 223.03 26.97 220.84 29.68
  A 1.48 1.48 0.0 0 0 221.03 31.73
  L 222.93 33.36
  Z
  M 216.0297 30.2037
  A 4.89 3.22 81.3 0 0 218.4730 24.8829
  A 4.89 3.22 81.3 0 0 214.5503 20.5363
  A 4.89 3.22 81.3 0 0 212.1070 25.8571
  A 4.89 3.22 81.3 0 0 216.0297 30.2037
  Z"
/>
<path fill="#ffffff" d="
  M 229.07 29.43
  L 228.09 28.04
  Q 227.71 27.52 227.53 28.14
  Q 227.37 28.71 227.59 29.55
  L 227.60 30.66
  Q 227.60 31.20 227.12 31.45
  Q 226.00 32.02 224.67 31.88
  A 1.16 1.15 89.7 0 1 223.64 30.85
  Q 223.08 25.05 223.76 19.31
  Q 223.84 18.70 224.44 18.61
  C 228.06 18.09 236.59 18.88 232.02 25.21
  Q 231.66 25.71 231.92 26.26
  L 234.26 31.22
  A 0.51 0.51 0.0 0 1 233.91 31.94
  Q 230.66 32.65 229.07 29.43
  Z
  M 227.51 21.03
  L 227.51 24.45
  A 0.14 0.14 0.0 0 0 227.65 24.59
  L 227.69 24.59
  A 1.76 1.76 0.0 0 0 229.45 22.83
  L 229.45 22.65
  A 1.76 1.76 0.0 0 0 227.69 20.89
  L 227.65 20.89
  A 0.14 0.14 0.0 0 0 227.51 21.03
  Z"
/>
<path fill="#000206" d="
  M 42.14 19.63
  L 44.21 19.52
  L 43.30 20.59
  Q 42.74 19.88 42.14 19.63
  Z"
/>
<path fill="#000206" d="
  M 41.22 22.43
  Q 40.93 22.90 40.36 23.30
  Q 39.65 22.06 38.53 21.18
  Q 38.06 20.80 38.55 20.45
  L 38.77 20.30
  A 0.33 0.33 0.0 0 1 39.20 20.33
  L 41.22 22.43
  Z"
/>
<path fill="#000206" d="
  M 25.07 37.72
  Q 24.17 38.59 23.52 38.06
  C 18.77 32.77 13.15 29.17 17.51 21.12
  A 0.51 0.50 -76.5 0 1 17.94 20.85
  L 18.37 20.84
  Q 18.95 20.82 18.66 21.32
  C 14.40 28.88 20.19 33.39 25.07 37.72
  Z"
/>
<path fill="#000206" d="
  M 34.81 28.73
  Q 34.54 29.21 34.01 29.63
  L 28.87 24.30
  Q 26.46 21.82 23.29 23.21
  Q 22.33 23.63 21.94 24.78
  Q 21.04 27.43 22.96 29.46
  L 26.65 33.35
  A 0.48 0.48 0.0 0 1 26.65 34.01
  L 26.48 34.20
  Q 26.43 34.25 26.37 34.21
  Q 23.66 32.07 21.65 29.61
  C 18.63 25.90 21.89 20.32 26.60 21.52
  Q 27.97 21.87 29.64 23.47
  Q 32.31 26.04 34.81 28.73
  Z"
/>
<path fill="#000206" d="
  M 31.64 31.63
  Q 30.97 33.24 30.51 32.35
  L 24.85 26.58
  A 0.37 0.37 0.0 0 1 24.84 26.07
  L 25.05 25.84
  A 0.43 0.43 0.0 0 1 25.67 25.82
  L 31.64 31.63
  Z"
/>
<path fill="#000206" d="
  M 229.07 29.43
  Q 228.48 29.48 228.09 29.13
  Q 227.84 28.91 227.72 29.21
  L 227.59 29.55
  Q 227.37 28.71 227.53 28.14
  Q 227.71 27.52 228.09 28.04
  L 229.07 29.43
  Z"
/>
</svg>
