<?xml version="1.0" encoding="UTF-8" standalone="no"?>
<!DOCTYPE svg PUBLIC "-//W3C//DTD SVG 1.1//EN" "http://www.w3.org/Graphics/SVG/1.1/DTD/svg11.dtd">
<svg xmlns="http://www.w3.org/2000/svg" version="1.1" viewBox="0.00 0.00 146.00 52.00">
<g stroke-width="2.00" fill="none" stroke-linecap="butt">
<path stroke="#b4b3b3" stroke-opacity="0.992" vector-effect="non-scaling-stroke" d="
  M 74.57 21.50
  Q 74.24 22.14 74.33 22.63
  Q 74.41 23.15 74.94 23.14
  L 76.31 23.12"
/>
<path stroke="#b4b3b3" stroke-opacity="0.992" vector-effect="non-scaling-stroke" d="
  M 102.89 28.35
  Q 102.85 28.94 103.09 29.29
  Q 103.45 29.81 103.79 29.28
  Q 104.07 28.87 104.11 28.30"
/>
<path stroke="#b4b3b3" stroke-opacity="0.992" vector-effect="non-scaling-stroke" d="
  M 49.32 41.22
  L 45.62 45.15"
/>
<path stroke="#b4b3b3" stroke-opacity="0.992" vector-effect="non-scaling-stroke" d="
  M 6.16 40.40
  Q 6.22 39.13 4.61 38.00"
/>
<path stroke="#e5e7e8" vector-effect="non-scaling-stroke" d="
  M 52.1399 26.4656
  A 24.19 23.52 -0.2 0 0 27.8679 3.0301
  A 24.19 23.52 -0.2 0 0 3.7601 26.6344
  A 24.19 23.52 -0.2 0 0 28.0321 50.0699
  A 24.19 23.52 -0.2 0 0 52.1399 26.4656"
/>
<path stroke="#e5e7e8" vector-effect="non-scaling-stroke" d="
  M 51.0400 26.5503
  A 23.09 22.50 0.1 0 0 27.9893 4.0100
  A 23.09 22.50 0.1 0 0 4.8600 26.4697
  A 23.09 22.50 0.1 0 0 27.9107 49.0100
  A 23.09 22.50 0.1 0 0 51.0400 26.5503"
/>
<path stroke="#e5e7e8" vector-effect="non-scaling-stroke" d="
  M 32.17 22.60
  A 0.31 0.31 0.0 0 1 31.93 22.36
  L 28.30 5.16
  A 0.31 0.31 0.0 0 0 27.69 5.16
  L 24.01 22.34
  A 0.31 0.31 0.0 0 1 23.77 22.58
  L 6.57 26.21
  A 0.31 0.31 0.0 0 0 6.57 26.82
  L 23.75 30.50
  A 0.31 0.31 0.0 0 1 23.99 30.74
  L 27.62 47.94
  A 0.31 0.31 0.0 0 0 28.23 47.94
  L 31.91 30.76
  A 0.31 0.31 0.0 0 1 32.15 30.52
  L 49.35 26.89
  A 0.31 0.31 0.0 0 0 49.35 26.28
  L 32.17 22.60"
/>
<path stroke="#e5e7e8" vector-effect="non-scaling-stroke" d="
  M 30.89 23.80
  A 0.34 0.34 0.0 0 1 30.64 23.55
  L 28.26 13.89
  A 0.34 0.34 0.0 0 0 27.60 13.89
  L 25.19 23.54
  A 0.34 0.34 0.0 0 1 24.94 23.79
  L 15.28 26.17
  A 0.34 0.34 0.0 0 0 15.28 26.83
  L 24.93 29.24
  A 0.34 0.34 0.0 0 1 25.18 29.49
  L 27.56 39.15
  A 0.34 0.34 0.0 0 0 28.22 39.15
  L 30.63 29.50
  A 0.34 0.34 0.0 0 1 30.88 29.25
  L 40.54 26.87
  A 0.34 0.34 0.0 0 0 40.54 26.21
  L 30.89 23.80"
/>
<path stroke="#e5e7e8" vector-effect="non-scaling-stroke" d="
  M 29.52 25.25
  A 0.34 0.34 0.0 0 1 29.30 25.03
  L 28.28 21.92
  A 0.34 0.34 0.0 0 0 27.63 21.92
  L 26.63 25.04
  A 0.34 0.34 0.0 0 1 26.41 25.26
  L 23.30 26.28
  A 0.34 0.34 0.0 0 0 23.30 26.93
  L 26.42 27.93
  A 0.34 0.34 0.0 0 1 26.64 28.15
  L 27.66 31.26
  A 0.34 0.34 0.0 0 0 28.31 31.26
  L 29.31 28.14
  A 0.34 0.34 0.0 0 1 29.53 27.92
  L 32.64 26.90
  A 0.34 0.34 0.0 0 0 32.64 26.25
  L 29.52 25.25"
/>
</g>
<path fill="#ffffff" d="
  M 49.32 41.22
  L 45.62 45.15
  Q 45.91 45.06 45.53 45.38
  Q 38.85 50.86 30.11 52.00
  L 25.75 52.00
  Q 20.24 51.11 15.20 48.65
  Q 13.16 47.65 11.73 46.25
  Q 10.09 44.66 8.55 43.11
  Q 8.47 43.02 8.34 42.99
  Q 8.21 42.96 8.18 43.20
  A 0.02 0.02 0.0 0 1 8.15 43.21
  L 6.16 40.40
  Q 6.22 39.13 4.61 38.00
  Q -0.64 27.15 3.57 17.23
  Q 8.80 4.92 22.32 1.66
  C 31.14 -0.47 41.04 2.62 47.29 9.31
  C 55.47 18.07 56.43 31.51 49.32 41.22
  Z
  M 52.1399 26.4656
  A 24.19 23.52 -0.2 0 0 27.8679 3.0301
  A 24.19 23.52 -0.2 0 0 3.7601 26.6344
  A 24.19 23.52 -0.2 0 0 28.0321 50.0699
  A 24.19 23.52 -0.2 0 0 52.1399 26.4656
  Z"
/>
<path fill="#cbced0" d="
  M 52.1399 26.4656
  A 24.19 23.52 -0.2 0 1 28.0321 50.0699
  A 24.19 23.52 -0.2 0 1 3.7601 26.6344
  A 24.19 23.52 -0.2 0 1 27.8679 3.0301
  A 24.19 23.52 -0.2 0 1 52.1399 26.4656
  Z
  M 51.0400 26.5503
  A 23.09 22.50 0.1 0 0 27.9893 4.0100
  A 23.09 22.50 0.1 0 0 4.8600 26.4697
  A 23.09 22.50 0.1 0 0 27.9107 49.0100
  A 23.09 22.50 0.1 0 0 51.0400 26.5503
  Z"
/>
<path fill="#ffffff" d="
  M 51.0400 26.5503
  A 23.09 22.50 0.1 0 1 27.9107 49.0100
  A 23.09 22.50 0.1 0 1 4.8600 26.4697
  A 23.09 22.50 0.1 0 1 27.9893 4.0100
  A 23.09 22.50 0.1 0 1 51.0400 26.5503
  Z
  M 32.17 22.60
  A 0.31 0.31 0.0 0 1 31.93 22.36
  L 28.30 5.16
  A 0.31 0.31 0.0 0 0 27.69 5.16
  L 24.01 22.34
  A 0.31 0.31 0.0 0 1 23.77 22.58
  L 6.57 26.21
  A 0.31 0.31 0.0 0 0 6.57 26.82
  L 23.75 30.50
  A 0.31 0.31 0.0 0 1 23.99 30.74
  L 27.62 47.94
  A 0.31 0.31 0.0 0 0 28.23 47.94
  L 31.91 30.76
  A 0.31 0.31 0.0 0 1 32.15 30.52
  L 49.35 26.89
  A 0.31 0.31 0.0 0 0 49.35 26.28
  L 32.17 22.60
  Z"
/>
<path fill="#cbced0" d="
  M 32.17 22.60
  L 49.35 26.28
  A 0.31 0.31 0.0 0 1 49.35 26.89
  L 32.15 30.52
  A 0.31 0.31 0.0 0 0 31.91 30.76
  L 28.23 47.94
  A 0.31 0.31 0.0 0 1 27.62 47.94
  L 23.99 30.74
  A 0.31 0.31 0.0 0 0 23.75 30.50
  L 6.57 26.82
  A 0.31 0.31 0.0 0 1 6.57 26.21
  L 23.77 22.58
  A 0.31 0.31 0.0 0 0 24.01 22.34
  L 27.69 5.16
  A 0.31 0.31 0.0 0 1 28.30 5.16
  L 31.93 22.36
  A 0.31 0.31 0.0 0 0 32.17 22.60
  Z
  M 30.89 23.80
  A 0.34 0.34 0.0 0 1 30.64 23.55
  L 28.26 13.89
  A 0.34 0.34 0.0 0 0 27.60 13.89
  L 25.19 23.54
  A 0.34 0.34 0.0 0 1 24.94 23.79
  L 15.28 26.17
  A 0.34 0.34 0.0 0 0 15.28 26.83
  L 24.93 29.24
  A 0.34 0.34 0.0 0 1 25.18 29.49
  L 27.56 39.15
  A 0.34 0.34 0.0 0 0 28.22 39.15
  L 30.63 29.50
  A 0.34 0.34 0.0 0 1 30.88 29.25
  L 40.54 26.87
  A 0.34 0.34 0.0 0 0 40.54 26.21
  L 30.89 23.80
  Z"
/>
<path fill="#ffffff" d="
  M 30.89 23.80
  L 40.54 26.21
  A 0.34 0.34 0.0 0 1 40.54 26.87
  L 30.88 29.25
  A 0.34 0.34 0.0 0 0 30.63 29.50
  L 28.22 39.15
  A 0.34 0.34 0.0 0 1 27.56 39.15
  L 25.18 29.49
  A 0.34 0.34 0.0 0 0 24.93 29.24
  L 15.28 26.83
  A 0.34 0.34 0.0 0 1 15.28 26.17
  L 24.94 23.79
  A 0.34 0.34 0.0 0 0 25.19 23.54
  L 27.60 13.89
  A 0.34 0.34 0.0 0 1 28.26 13.89
  L 30.64 23.55
  A 0.34 0.34 0.0 0 0 30.89 23.80
  Z
  M 29.52 25.25
  A 0.34 0.34 0.0 0 1 29.30 25.03
  L 28.28 21.92
  A 0.34 0.34 0.0 0 0 27.63 21.92
  L 26.63 25.04
  A 0.34 0.34 0.0 0 1 26.41 25.26
  L 23.30 26.28
  A 0.34 0.34 0.0 0 0 23.30 26.93
  L 26.42 27.93
  A 0.34 0.34 0.0 0 1 26.64 28.15
  L 27.66 31.26
  A 0.34 0.34 0.0 0 0 28.31 31.26
  L 29.31 28.14
  A 0.34 0.34 0.0 0 1 29.53 27.92
  L 32.64 26.90
  A 0.34 0.34 0.0 0 0 32.64 26.25
  L 29.52 25.25
  Z"
/>
<path fill="#ffffff" d="
  M 74.57 21.50
  Q 74.24 22.14 74.33 22.63
  Q 74.41 23.15 74.94 23.14
  L 76.31 23.12
  L 84.55 23.22
  Q 85.05 23.22 85.05 23.72
  L 85.04 28.66
  Q 85.04 29.10 84.60 29.10
  L 75.41 29.14
  Q 74.21 29.15 74.17 30.34
  L 74.11 32.27
  Q 74.08 33.22 75.02 33.23
  L 86.85 33.30
  A 0.81 0.81 0.0 0 1 87.66 34.10
  L 87.70 38.16
  Q 87.71 39.04 86.84 39.04
  L 66.46 39.04
  Q 65.88 39.04 65.88 38.46
  L 65.95 14.48
  Q 65.95 13.90 66.52 13.90
  L 86.50 13.91
  Q 87.09 13.91 87.08 14.50
  L 87.05 18.75
  A 0.67 0.67 0.0 0 1 86.40 19.42
  Q 81.15 19.53 75.19 19.52
  Q 74.71 19.52 74.45 19.91
  Q 74.11 20.44 74.57 21.50
  Z"
/>
<path fill="#ffffff" d="
  M 102.89 28.35
  Q 102.85 28.94 103.09 29.29
  Q 103.45 29.81 103.79 29.28
  Q 104.07 28.87 104.11 28.30
  L 107.82 15.59
  Q 108.31 13.90 110.07 13.95
  L 114.94 14.10
  Q 116.58 14.15 116.04 15.70
  Q 112.73 25.14 109.41 34.74
  Q 108.68 36.87 107.45 38.63
  Q 107.17 39.04 106.67 39.04
  L 100.54 39.04
  A 2.15 2.13 -9.3 0 1 98.51 37.59
  Q 95.21 27.88 91.66 18.06
  Q 91.09 16.47 91.04 14.95
  Q 91.01 14.00 91.96 14.00
  L 97.21 13.99
  A 2.04 2.04 0.0 0 1 99.19 15.48
  L 102.89 28.35
  Z"
/>
<path fill="#ffffff" d="
  M 129.71 27.95
  Q 128.04 25.48 128.06 28.46
  L 128.12 38.24
  Q 128.12 39.11 127.26 39.10
  L 121.43 39.08
  A 1.40 1.40 0.0 0 1 120.03 37.68
  L 119.99 14.50
  Q 119.98 13.98 120.50 13.99
  L 126.91 14.02
  A 2.66 2.65 -17.3 0 1 129.09 15.16
  Q 132.37 19.87 135.71 25.22
  Q 136.11 25.85 136.72 26.26
  A 0.32 0.32 0.0 0 0 137.22 25.99
  L 137.30 14.49
  Q 137.31 14.03 137.76 14.03
  L 144.67 13.99
  Q 145.12 13.98 145.12 14.43
  L 145.16 38.29
  A 0.71 0.71 0.0 0 1 144.51 39.01
  Q 140.89 39.36 137.62 38.74
  Q 136.89 38.61 136.47 37.99
  L 129.71 27.95
  Z"
/>
<path fill="#cbced0" d="
  M 29.52 25.25
  L 32.64 26.25
  A 0.34 0.34 0.0 0 1 32.64 26.90
  L 29.53 27.92
  A 0.34 0.34 0.0 0 0 29.31 28.14
  L 28.31 31.26
  A 0.34 0.34 0.0 0 1 27.66 31.26
  L 26.64 28.15
  A 0.34 0.34 0.0 0 0 26.42 27.93
  L 23.30 26.93
  A 0.34 0.34 0.0 0 1 23.30 26.28
  L 26.41 25.26
  A 0.34 0.34 0.0 0 0 26.63 25.04
  L 27.63 21.92
  A 0.34 0.34 0.0 0 1 28.28 21.92
  L 29.30 25.03
  A 0.34 0.34 0.0 0 0 29.52 25.25
  Z"
/>
<path fill="#676665" fill-opacity="0.980" d="
  M 74.57 21.50
  L 76.31 23.12
  L 74.94 23.14
  Q 74.41 23.15 74.33 22.63
  Q 74.24 22.14 74.57 21.50
  Z"
/>
<path fill="#676665" fill-opacity="0.980" d="
  M 104.11 28.30
  Q 104.07 28.87 103.79 29.28
  Q 103.45 29.81 103.09 29.29
  Q 102.85 28.94 102.89 28.35
  Q 103.74 27.77 104.11 28.30
  Z"
/>
<path fill="#676665" fill-opacity="0.980" d="
  M 4.61 38.00
  Q 6.22 39.13 6.16 40.40
  Q 5.02 39.84 4.61 38.00
  Z"
/>
<path fill="#676665" fill-opacity="0.980" d="
  M 49.32 41.22
  Q 48.29 43.86 45.62 45.15
  L 49.32 41.22
  Z"
/>
</svg>
