<?xml version="1.0" encoding="UTF-8" standalone="no"?>
<!DOCTYPE svg PUBLIC "-//W3C//DTD SVG 1.1//EN" "http://www.w3.org/Graphics/SVG/1.1/DTD/svg11.dtd">
<svg xmlns="http://www.w3.org/2000/svg" version="1.1" viewBox="0.00 0.00 130.00 43.00">
<g stroke-width="2.00" fill="none" stroke-linecap="butt">
<path stroke="#e5e7e8" vector-effect="non-scaling-stroke" d="
  M 24.39 18.57
  Q 21.82 15.36 16.38 9.87
  Q 13.81 7.28 11.41 7.32"
/>
<path stroke="#83858a" stroke-opacity="0.996" vector-effect="non-scaling-stroke" d="
  M 114.29 13.92
  Q 114.29 13.33 114.03 12.97
  Q 113.67 12.49 113.38 13.01
  Q 113.03 13.64 112.99 14.36"
/>
</g>
<path fill="#ffffff" d="
  M 82.18 0.00
  L 87.45 0.00
  L 92.57 1.31
  Q 93.96 1.67 93.90 3.10
  Q 93.80 6.08 92.88 9.12
  Q 92.54 10.26 91.41 9.87
  C 87.47 8.50 82.55 7.58 78.98 10.25
  A 2.11 2.11 0.0 0 0 78.45 13.05
  Q 79.45 14.64 81.17 15.54
  C 88.12 19.16 95.91 23.71 91.67 33.16
  C 87.31 42.88 73.56 43.29 64.70 40.36
  Q 62.79 39.73 63.14 37.74
  L 64.03 32.86
  Q 64.37 30.92 66.19 31.66
  C 70.40 33.38 77.64 34.99 81.21 31.33
  C 83.14 29.36 80.79 26.76 78.98 25.87
  C 71.95 22.43 64.75 18.25 68.09 9.09
  Q 69.45 5.36 73.73 2.87
  Q 77.51 0.67 82.18 0.00
  Z"
/>
<path fill="#cbced0" d="
  M 24.39 18.57
  Q 21.82 15.36 16.38 9.87
  Q 13.81 7.28 11.41 7.32
  Q 10.78 5.65 9.13 4.88
  Q 6.30 3.56 3.03 2.27
  Q 2.55 2.08 2.62 1.57
  Q 2.65 1.36 2.53 1.16
  A 0.11 0.11 0.0 0 1 2.63 1.00
  L 18.00 1.05
  A 3.67 3.66 -5.3 0 1 21.59 4.02
  L 24.39 18.57
  Z"
/>
<path fill="#ffffff" d="
  M 11.41 7.32
  Q 13.81 7.28 16.38 9.87
  Q 21.82 15.36 24.39 18.57
  L 26.37 26.49
  Q 26.76 28.08 27.34 26.55
  L 36.59 1.93
  A 1.30 1.30 0.0 0 1 37.69 1.10
  Q 42.39 0.69 46.70 1.20
  A 0.79 0.79 0.0 0 1 47.34 2.29
  L 32.05 39.84
  A 2.16 2.15 11.3 0 1 30.04 41.18
  L 22.04 41.14
  Q 20.43 41.14 20.01 39.58
  L 11.41 7.32
  Z"
/>
<path fill="#ffffff" d="
  M 46.05 39.70
  L 52.16 2.11
  A 1.29 1.29 0.0 0 1 53.40 1.03
  L 61.23 0.86
  A 1.29 1.29 0.0 0 1 62.53 2.36
  L 56.39 39.95
  A 1.29 1.29 0.0 0 1 55.15 41.03
  L 47.35 41.20
  A 1.29 1.29 0.0 0 1 46.05 39.70
  Z"
/>
<path fill="#ffffff" d="
  M 118.82 35.98
  A 1.37 1.37 0.0 0 0 117.53 35.04
  Q 112.25 35.03 106.96 35.06
  Q 105.43 35.06 104.89 36.42
  Q 104.05 38.50 103.34 40.67
  A 0.84 0.84 0.0 0 1 102.64 41.24
  Q 97.93 41.83 93.42 41.01
  A 0.84 0.83 -73.8 0 1 92.80 39.87
  Q 100.23 21.90 107.64 4.34
  Q 108.94 1.27 112.23 1.07
  Q 116.25 0.83 120.38 1.08
  A 1.23 1.23 0.0 0 1 121.51 2.06
  L 129.33 39.74
  Q 129.67 41.39 127.99 41.39
  L 122.12 41.37
  Q 120.58 41.37 120.11 39.91
  L 118.82 35.98
  Z
  M 112.99 14.36
  L 108.77 26.13
  Q 108.47 26.97 109.36 26.97
  L 116.47 27.01
  Q 117.13 27.02 116.99 26.37
  L 114.29 13.92
  Q 114.29 13.33 114.03 12.97
  Q 113.67 12.49 113.38 13.01
  Q 113.03 13.64 112.99 14.36
  Z"
/>
<path fill="#050a13" fill-opacity="0.988" d="
  M 114.29 13.92
  Q 113.70 14.59 112.99 14.36
  Q 113.03 13.64 113.38 13.01
  Q 113.67 12.49 114.03 12.97
  Q 114.29 13.33 114.29 13.92
  Z"
/>
</svg>
