<svg width="36" height="36" viewBox="0 0 36 36" fill="none" xmlns="http://www.w3.org/2000/svg">
<path d="M36 31C36 33.762 33.762 36 31 36H5C2.239 36 0 33.762 0 31V5C0 2.238 2.239 0 5 0H31C33.762 0 36 2.238 36 5V31Z" fill="#42A5F5"/>
<path fill-rule="evenodd" clip-rule="evenodd" d="M25.6199 15.43V7L30.8799 6V31.12H25.6199V28.34C24.4999 30.43 22.6599 31.75 19.9999 31.75C15.1399 31.75 11.1899 27.32 11.1899 21.88C11.1899 16.43 15.1399 12 19.9999 12C22.6599 12 24.5099 13.33 25.6199 15.43ZM15.9999 21.88C15.9999 24.56 18.0229 26.75 20.5049 26.75C22.9769 26.75 24.9999 24.56 24.9999 21.88C24.9999 19.19 22.9769 17 20.5049 17C18.0229 17 15.9999 19.19 15.9999 21.88Z" fill="white"/>
</svg>
