<svg fill="none" height="80" viewBox="0 0 75 80" width="75" xmlns="http://www.w3.org/2000/svg">
    <mask style="mask-type:luminance" height="46" id="mask0_0_2239" maskUnits="userSpaceOnUse" width="28"
        x="24" y="0">
        <path clip-rule="evenodd" d="M24.6184 0H51.7089V45.5838H24.6184V0Z" fill="white"
            fill-rule="evenodd" />
    </mask>
    <g mask="url(#mask0_0_2239)">
        <path clip-rule="evenodd" d="M24.6184 8.37067C24.6184 8.37067 32.0738 3.65406 36.7981 1.5577C41.5239 -0.538655 43.624 -0.853619 44.0442 2.70995C44.4636 6.27431 44.2543 11.9342 44.0442 14.3448C43.8333 16.7561 43.2038 28.8096 43.3085 31.3253C43.4139 33.8403 44.1488 35.9367 46.6691 34.7837C49.1886 33.6314 50.239 32.8978 50.239 32.8978L51.7089 35.9367C51.7089 35.9367 44.3589 41.9116 40.3688 43.9027C40.3688 43.9027 35.7484 46.8379 33.5436 44.9513C31.3389 43.0646 31.0234 40.3391 31.2335 36.0419C31.4435 31.744 32.1785 19.4808 32.0738 15.7075C31.9684 11.9342 31.8637 10.6767 30.6032 10.1528C29.3434 9.62817 25.6681 11.7245 25.6681 11.7245L24.6184 8.37067Z"
            fill="#1974D2"
            fill-rule="evenodd" />
    </g>
    <path clip-rule="evenodd" d="M69.9357 26.118C69.7674 25.6852 69.5455 25.2807 69.2779 24.9092C68.2849 23.5354 66.6727 22.6377 64.8456 22.6377C62.0208 22.6377 59.6973 24.7764 59.4108 27.5208C59.3912 27.7085 59.3801 27.9002 59.3801 28.0934C59.3801 28.2866 59.3912 28.4767 59.4108 28.6652V40.9841C59.4108 44.9561 59.0772 48.171 58.41 50.6302C57.5106 53.7814 55.907 56.5234 53.5968 58.8554C49.4643 63.0567 44.0232 65.1578 37.2728 65.1578C33.9877 65.1578 30.9591 64.6834 28.187 63.7354C25.0554 62.6593 22.4895 61.0586 20.4869 58.9316C18.0233 56.3435 16.3804 53.5772 15.5597 50.6302C15.1993 49.2981 14.9428 47.7994 14.7893 46.1335C14.6863 44.8022 14.6351 43.0852 14.6351 40.9841V28.223C14.6351 28.2057 14.6383 28.19 14.6383 28.1735C14.6383 28.157 14.6351 28.1405 14.6351 28.124C14.6084 25.1338 12.1739 22.7178 9.17281 22.7178C7.28673 22.7178 5.62491 23.6713 4.64213 25.1205C4.42024 25.448 4.23769 25.803 4.09055 26.1753C1.28228 31.6263 -0.221392 37.8565 0.0264662 44.4629C0.745647 63.6191 16.3575 79.2267 35.5465 79.9713C56.6671 80.7906 74.047 63.9427 74.047 43.0428C74.047 36.9414 72.5591 31.1896 69.9357 26.118Z"
        fill="#1974D2"
        fill-rule="evenodd" />
</svg>
