<svg width="19" height="16" viewBox="0 0 19 16" fill="none" xmlns="http://www.w3.org/2000/svg">
<path fill-rule="evenodd" clip-rule="evenodd" d="M2.37061 8C2.37061 4.31333 5.74941 1.33333 9.92946 1.33333C14.1095 1.33333 17.4883 4.31333 17.4883 8C17.4883 11.6867 14.1095 14.6667 9.92946 14.6667C5.74941 14.6667 2.37061 11.6867 2.37061 8ZM12.114 10.8667C12.4088 11.1267 12.885 11.1267 13.1798 10.8667C13.467 10.6067 13.467 10.18 13.1798 9.92667L10.9953 8L13.1798 6.07333C13.4746 5.81333 13.4746 5.39333 13.1798 5.13333C12.885 4.87333 12.4088 4.87333 12.114 5.13333L9.92946 7.06L7.74495 5.13333C7.45015 4.87333 6.97395 4.87333 6.67915 5.13333C6.38436 5.39333 6.38436 5.81333 6.67915 6.07333L8.86366 8L6.67915 9.92667C6.38436 10.1867 6.38436 10.6067 6.67915 10.8667C6.97395 11.1267 7.45015 11.1267 7.74495 10.8667L9.92946 8.94L12.114 10.8667Z" fill="#949494"/>
</svg>
