<svg width="43" height="36" viewBox="0 0 43 36" fill="none" xmlns="http://www.w3.org/2000/svg">
<path d="M42 8.30812C41.8 12.4081 39 17.9081 33.4 24.9081C27.7 32.3081 22.9 35.9081 18.9 35.9081C16.5 35.9081 14.4 33.7081 12.7 29.2081C11.6 25.1081 10.4 21.0081 9.3 16.9081C8 12.4081 6.7 10.2081 5.3 10.2081C5 10.2081 3.9 10.7081 2 12.0081L0 9.70812C2.1 7.90812 4 6.60812 6 4.80812C8.8 2.40812 10.8 1.20812 12.2 1.10812C15.5 0.808118 17.5 3.00812 18.2 7.70812C19 12.8081 19.7 15.5081 20 16.7081C20.9 20.9081 22 23.1081 23.1 23.1081C24 23.1081 25.3 21.7081 27.1 19.0081C28.9 16.2081 29.8 14.2081 29.9 12.7081C30.2 10.3081 29.2 9.10812 27.1 9.10812C26.1 9.10812 25 9.60812 23.9 10.0081C26 3.30812 30 -0.191882 35.8 0.00811801C40.2 0.108118 42.2 2.90812 42 8.30812Z" fill="#29B6F6"/>
</svg>
