<svg width="30" height="36" viewBox="0 0 30 36" fill="none" xmlns="http://www.w3.org/2000/svg">
<path fill-rule="evenodd" clip-rule="evenodd" d="M7.66455 0H5.53955L8.05255 8.297V14H10.1646V8.039L12.6226 0.003H10.4756L9.16755 5.496H9.03455L7.66455 0ZM13.2846 4.049C12.7796 4.512 12.5256 5.139 12.5256 5.923V5.922H12.5236V11.178C12.5236 12.039 12.7686 12.725 13.2616 13.233C13.7586 13.741 14.4126 14 15.2356 14C16.0906 14 16.7566 13.753 17.2426 13.259C17.7286 12.763 17.9706 12.081 17.9706 11.215V5.98C17.9706 5.207 17.7226 4.574 17.2276 4.086C16.7326 3.594 16.0976 3.349 15.3196 3.349C14.4666 3.349 13.7886 3.583 13.2846 4.049ZM14.4556 11.368C14.4556 11.643 14.5216 11.862 14.6606 12.014C14.7926 12.164 14.9826 12.24 15.2316 12.24C15.4866 12.24 15.6856 12.163 15.8356 12.006C15.9846 11.855 16.0616 11.64 16.0616 11.368V5.846C16.0616 5.626 15.9826 5.447 15.8306 5.31C15.6796 5.175 15.4786 5.105 15.2316 5.105C15.0026 5.105 14.8146 5.175 14.6706 5.31C14.5276 5.447 14.4556 5.626 14.4556 5.846V11.368ZM24.9186 14V3.605H23.0436V11.413C22.8686 11.633 22.6756 11.816 22.4626 11.957C22.2556 12.101 22.0816 12.172 21.9406 12.172C21.7676 12.172 21.6356 12.114 21.5606 12.01C21.4806 11.901 21.4406 11.727 21.4406 11.491V3.605H19.5666V12.191C19.5666 12.797 19.6746 13.248 19.8956 13.548C20.1166 13.851 20.4416 14 20.8766 14C21.2276 14 21.5906 13.89 21.9626 13.675C22.3386 13.462 22.6976 13.148 23.0436 12.734V14H24.9186Z" fill="#455A64"/>
<path d="M29.7995 20.439C29.7995 18.097 27.8595 16.199 25.4705 16.199C22.0585 16.056 18.5655 15.996 15.0005 16.001C11.4375 15.996 7.94451 16.057 4.53051 16.199C2.14351 16.199 0.203512 18.097 0.203512 20.439C0.0615116 22.291 -0.00448841 24.145 0.000511589 26.001C-0.00448841 27.854 0.0605116 29.708 0.204512 31.562C0.204512 33.907 2.14251 35.805 4.53051 35.805C7.94451 35.945 11.4375 36.005 15.0005 36C18.5645 36.008 22.0585 35.944 25.4705 35.805C27.8595 35.805 29.7995 33.907 29.7995 31.562C29.9415 29.708 30.0085 27.854 30.0005 26.001C30.0085 24.145 29.9415 22.291 29.7995 20.439Z" fill="white"/>
<path fill-rule="evenodd" clip-rule="evenodd" d="M17.6074 24.579C17.6954 24.491 17.7794 24.428 17.8654 24.386C18.1644 24.236 18.4284 24.306 18.5624 24.484C18.6614 24.616 18.7144 24.831 18.7144 25.109V30.114C18.7144 30.435 18.6524 30.583 18.5954 30.654C18.5724 30.686 18.5004 30.777 18.2694 30.777C18.1474 30.777 18.0344 30.752 17.9234 30.697C17.8244 30.646 17.7174 30.566 17.6074 30.455V24.579ZM24.3934 24.526C24.4834 24.404 24.6324 24.346 24.8514 24.346C25.0614 24.346 25.2054 24.402 25.2904 24.521C25.3584 24.623 25.4414 24.832 25.4414 25.278V26.052H24.2484V25.278C24.2484 24.825 24.3294 24.617 24.3934 24.526Z" fill="#F44336"/>
<path fill-rule="evenodd" clip-rule="evenodd" d="M29.7995 20.439C29.7995 18.097 27.8595 16.199 25.4705 16.199C22.0585 16.056 18.5655 15.996 15.0005 16.001C11.4375 15.996 7.94451 16.057 4.53051 16.199C2.14351 16.199 0.203508 18.097 0.203508 20.439C0.061508 22.291 -0.00449202 24.145 0.000507976 26.001C-0.00449202 27.854 0.060508 29.708 0.204508 31.562C0.204508 33.907 2.14251 35.805 4.53051 35.805C7.94451 35.945 11.4375 36.005 15.0005 36C18.5645 36.008 22.0585 35.944 25.4705 35.805C27.8595 35.805 29.7995 33.907 29.7995 31.562C29.9415 29.708 30.0085 27.854 30.0005 26.001C30.0085 24.145 29.9415 22.291 29.7995 20.439ZM6.70151 32.382C6.70151 32.493 6.60951 32.586 6.49551 32.586H4.44651C4.33251 32.586 4.24051 32.493 4.24051 32.382V21.352H2.32651C2.21351 21.352 2.12151 21.26 2.12151 21.149V19.245C2.12151 19.133 2.21351 19.041 2.32651 19.041H8.61751C8.73151 19.041 8.82351 19.133 8.82351 19.245V21.149C8.82351 21.26 8.73251 21.352 8.61751 21.352H6.70151V32.382ZM13.7895 32.586C13.9035 32.586 13.9955 32.493 13.9955 32.382V32.381H13.9925V22.689C13.9925 22.577 13.9005 22.485 13.7865 22.485H11.9655C11.8505 22.485 11.7585 22.577 11.7585 22.689V29.972C11.6195 30.138 11.4615 30.282 11.2855 30.397C11.0685 30.544 10.9485 30.566 10.8965 30.566C10.7427 30.566 10.7051 30.5168 10.6918 30.4994L10.6915 30.499C10.6635 30.46 10.6195 30.361 10.6195 30.117V22.689C10.6195 22.577 10.5275 22.485 10.4135 22.485H8.59251C8.47751 22.485 8.38551 22.577 8.38551 22.689V30.789C8.38551 31.407 8.50851 31.886 8.74651 32.21C8.99951 32.551 9.37551 32.727 9.86351 32.727C10.2475 32.727 10.6265 32.618 11.0235 32.391C11.2755 32.249 11.5185 32.064 11.7615 31.831V32.382C11.7615 32.493 11.8535 32.586 11.9675 32.586H13.7895ZM21.0005 30.373C21.0005 31.109 20.8415 31.683 20.5275 32.081C20.2015 32.499 19.7305 32.707 19.1295 32.707C18.7465 32.707 18.3965 32.63 18.0835 32.474C17.9175 32.391 17.7565 32.283 17.6045 32.149V32.382C17.6045 32.496 17.5115 32.586 17.3985 32.586H15.5615C15.4475 32.586 15.3545 32.496 15.3545 32.382V19.242C15.3545 19.13 15.4465 19.039 15.5615 19.039H17.3985C17.5115 19.039 17.6045 19.13 17.6045 19.242V22.959C17.7545 22.823 17.9145 22.709 18.0785 22.616C18.3875 22.446 18.7035 22.36 19.0195 22.36C19.6605 22.36 20.1625 22.598 20.5035 23.066C20.8315 23.516 20.9985 24.167 20.9985 24.999L21.0005 30.373ZM27.5225 27.97C27.6362 27.97 27.729 27.8786 27.7295 27.766C27.7295 27.7657 27.7295 27.7654 27.7295 27.765M27.5225 27.97H24.2495ZM24.2495 27.97V29.591ZM24.2495 29.591C24.2495 30.183 24.3315 30.436 24.3975 30.542ZM24.3975 30.542C24.4505 30.63 24.5495 30.741 24.8355 30.741ZM24.8355 30.741C25.0655 30.741 25.2235 30.686 25.3045 30.577ZM25.3045 30.577C25.3415 30.519 25.4435 30.297 25.4435 29.589ZM25.4435 29.589V28.914ZM25.4435 28.914C25.4435 28.8 25.5365 28.71 25.6505 28.71ZM25.6505 28.71H27.5225ZM27.5225 28.71C27.6365 28.71 27.7275 28.8 27.7275 28.914ZM27.7275 28.914V29.643ZM27.7275 29.643C27.7275 30.687 27.4785 31.487 26.9905 32.027ZM26.9905 32.027C26.5005 32.57 25.7605 32.847 24.7925 32.847ZM24.7925 32.847C23.9205 32.847 23.2185 32.551 22.7135 31.976ZM22.7135 31.976C22.2135 31.405 21.9585 30.622 21.9585 29.643ZM21.9585 29.643V25.291ZM21.9585 25.291C21.9585 24.399 22.2365 23.661 22.7885 23.095ZM22.7885 23.095C23.3385 22.527 24.0625 22.238 24.9325 22.238ZM24.9325 22.238C25.8225 22.238 26.5195 22.509 27.0045 23.041ZM27.0045 23.041C27.4845 23.567 27.7285 24.325 27.7285 25.292ZM27.7285 25.292V27.766ZM27.7285 27.766H27.7295Z" fill="#F44336"/>
</svg>
