<?xml version="1.0" encoding="UTF-8" ?>
<!DOCTYPE svg PUBLIC "-//W3C//DTD SVG 1.1//EN" "http://www.w3.org/Graphics/SVG/1.1/DTD/svg11.dtd">
<svg width="176pt" height="176pt" viewBox="0 0 176 176" version="1.1" xmlns="http://www.w3.org/2000/svg">
<g id="#fffffeff">
<path fill="#fffffe" opacity="1.00" d=" M 0.00 0.00 L 176.00 0.00 L 176.00 176.00 L 91.56 176.00 C 108.65 175.09 125.54 169.50 139.40 159.37 C 158.28 145.86 171.34 124.59 174.85 101.65 C 176.69 87.93 175.95 73.71 171.45 60.56 C 163.66 36.45 144.75 16.25 121.28 6.75 C 109.53 1.88 96.73 -0.20 84.04 0.41 C 62.36 1.10 41.16 10.53 25.94 25.95 C 10.01 41.62 0.50 63.66 0.24 86.02 C -0.39 105.23 5.68 124.52 17.08 139.97 C 32.56 161.51 58.24 174.96 84.69 176.00 L 0.00 176.00 L 0.00 0.00 Z" />
<path fill="#fffffe" opacity="1.00" d=" M 80.51 34.77 C 93.89 32.78 107.98 36.22 118.98 44.08 C 130.30 51.95 138.36 64.39 140.88 77.95 C 143.71 92.07 140.41 107.24 132.09 118.98 C 123.88 130.82 110.70 139.10 96.44 141.27 C 82.28 143.59 67.25 139.90 55.80 131.23 C 42.84 121.70 34.64 106.06 34.17 89.98 C 33.73 77.85 37.51 65.58 44.87 55.90 C 53.28 44.47 66.44 36.66 80.51 34.77 M 75.85 41.73 C 65.30 44.80 55.53 51.14 49.27 60.28 C 40.99 71.69 38.61 86.76 42.03 100.35 C 45.93 114.96 57.16 127.40 71.38 132.60 C 80.70 136.19 91.09 136.37 100.74 134.03 C 111.35 130.96 121.07 124.44 127.30 115.23 C 135.49 103.75 137.80 88.68 134.25 75.12 C 130.93 63.84 123.68 53.61 113.57 47.48 C 102.51 40.38 88.52 38.49 75.85 41.73 Z" />
<path fill="#fffffe" opacity="1.00" d=" M 51.61 87.89 C 51.72 80.57 54.79 72.78 60.94 68.49 C 57.94 72.91 54.68 77.45 54.09 82.92 C 53.43 86.26 54.67 89.71 53.73 92.99 C 51.45 92.37 51.77 89.76 51.61 87.89 Z" />
<path fill="#fffffe" opacity="1.00" d=" M 55.51 89.84 C 54.75 82.47 58.07 74.85 64.15 70.56 C 62.22 73.88 59.69 76.93 58.68 80.70 C 57.43 84.35 58.22 88.21 58.19 91.97 C 56.61 94.15 55.79 90.95 55.51 89.84 Z" />
<path fill="#fffffe" opacity="1.00" d=" M 74.45 91.44 C 72.64 83.99 77.38 76.16 84.64 73.97 C 92.20 72.06 100.08 76.81 102.43 84.11 C 104.41 91.81 99.37 99.82 91.86 101.96 C 88.43 102.14 84.74 102.29 81.67 100.46 C 78.14 98.57 75.85 95.10 74.45 91.44 M 85.48 81.40 C 80.35 83.50 79.96 91.60 84.96 94.08 C 89.32 96.99 95.85 93.18 95.54 87.97 C 95.93 82.87 89.96 79.08 85.48 81.40 Z" />
<path fill="#fffffe" opacity="1.00" d=" M 122.12 85.92 C 122.58 85.71 123.50 85.29 123.95 85.08 C 126.45 94.09 122.44 104.49 114.80 109.80 C 117.03 106.60 119.73 103.62 121.00 99.86 C 122.81 95.44 122.53 90.57 122.12 85.92 Z" />
<path fill="#fffffe" opacity="1.00" d=" M 118.27 86.14 C 119.29 84.32 121.23 86.66 120.86 87.97 C 121.58 95.35 118.20 103.03 112.10 107.29 C 114.05 104.16 116.53 101.26 117.58 97.65 C 118.84 93.93 118.10 89.97 118.27 86.14 Z" />
</g>
<g id="#721799ff">
<path fill="#721799" opacity="1.00" d=" M 25.94 25.95 C 41.16 10.53 62.36 1.10 84.04 0.41 C 96.73 -0.20 109.53 1.88 121.28 6.75 C 144.75 16.25 163.66 36.45 171.45 60.56 C 175.95 73.71 176.69 87.93 174.85 101.65 C 171.34 124.59 158.28 145.86 139.40 159.37 C 125.54 169.50 108.65 175.09 91.56 176.00 L 84.69 176.00 C 58.24 174.96 32.56 161.51 17.08 139.97 C 5.68 124.52 -0.39 105.23 0.24 86.02 C 0.50 63.66 10.01 41.62 25.94 25.95 M 80.51 34.77 C 66.44 36.66 53.28 44.47 44.87 55.90 C 37.51 65.58 33.73 77.85 34.17 89.98 C 34.64 106.06 42.84 121.70 55.80 131.23 C 67.25 139.90 82.28 143.59 96.44 141.27 C 110.70 139.10 123.88 130.82 132.09 118.98 C 140.41 107.24 143.71 92.07 140.88 77.95 C 138.36 64.39 130.30 51.95 118.98 44.08 C 107.98 36.22 93.89 32.78 80.51 34.77 Z" />
<path fill="#721799" opacity="1.00" d=" M 85.48 81.40 C 89.96 79.08 95.93 82.87 95.54 87.97 C 95.85 93.18 89.32 96.99 84.96 94.08 C 79.96 91.60 80.35 83.50 85.48 81.40 Z" />
</g>
<g id="#49aa43ff">
<path fill="#49aa43" opacity="1.00" d=" M 75.85 41.73 C 88.52 38.49 102.51 40.38 113.57 47.48 C 123.68 53.61 130.93 63.84 134.25 75.12 C 123.68 78.27 112.94 80.78 102.43 84.11 C 100.08 76.81 92.20 72.06 84.64 73.97 C 81.88 63.18 78.82 52.47 75.85 41.73 Z" />
</g>
<g id="#009ddcff">
<path fill="#009ddc" opacity="1.00" d=" M 49.27 60.28 C 55.53 51.14 65.30 44.80 75.85 41.73 C 78.82 52.47 81.88 63.18 84.64 73.97 C 77.38 76.16 72.64 83.99 74.45 91.44 C 63.64 94.42 52.85 97.46 42.03 100.35 C 38.61 86.76 40.99 71.69 49.27 60.28 M 51.61 87.89 C 51.77 89.76 51.45 92.37 53.73 92.99 C 54.67 89.71 53.43 86.26 54.09 82.92 C 54.68 77.45 57.94 72.91 60.94 68.49 C 54.79 72.78 51.72 80.57 51.61 87.89 M 55.51 89.84 C 55.79 90.95 56.61 94.15 58.19 91.97 C 58.22 88.21 57.43 84.35 58.68 80.70 C 59.69 76.93 62.22 73.88 64.15 70.56 C 58.07 74.85 54.75 82.47 55.51 89.84 Z" />
</g>
<g id="#f47b20ff">
<path fill="#f47b20" opacity="1.00" d=" M 102.43 84.11 C 112.94 80.78 123.68 78.27 134.25 75.12 C 137.80 88.68 135.49 103.75 127.30 115.23 C 121.07 124.44 111.35 130.96 100.74 134.03 C 97.76 123.35 94.93 112.62 91.86 101.96 C 99.37 99.82 104.41 91.81 102.43 84.11 M 122.12 85.92 C 122.53 90.57 122.81 95.44 121.00 99.86 C 119.73 103.62 117.03 106.60 114.80 109.80 C 122.44 104.49 126.45 94.09 123.95 85.08 C 123.50 85.29 122.58 85.71 122.12 85.92 M 118.27 86.14 C 118.10 89.97 118.84 93.93 117.58 97.65 C 116.53 101.26 114.05 104.16 112.10 107.29 C 118.20 103.03 121.58 95.35 120.86 87.97 C 121.23 86.66 119.29 84.32 118.27 86.14 Z" />
</g>
<g id="#ef2b75ff">
<path fill="#ef2b75" opacity="1.00" d=" M 42.03 100.35 C 52.85 97.46 63.64 94.42 74.45 91.44 C 75.85 95.10 78.14 98.57 81.67 100.46 C 84.74 102.29 88.43 102.14 91.86 101.96 C 94.93 112.62 97.76 123.35 100.74 134.03 C 91.09 136.37 80.70 136.19 71.38 132.60 C 57.16 127.40 45.93 114.96 42.03 100.35 Z" />
</g>
</svg>
