<?xml version="1.0" encoding="UTF-8" standalone="no"?>
<!DOCTYPE svg PUBLIC "-//W3C//DTD SVG 1.1//EN" "http://www.w3.org/Graphics/SVG/1.1/DTD/svg11.dtd">
<svg xmlns="http://www.w3.org/2000/svg" version="1.1" viewBox="0.00 0.00 107.00 107.00">
<g stroke-width="2.00" fill="none" stroke-linecap="butt">
<path stroke="#70a5c6" vector-effect="non-scaling-stroke" d="
  M 58.22 60.43
  Q 48.75 55.42 41.33 46.62
  A 0.49 0.48 -44.1 0 1 41.35 45.98
  C 46.47 40.38 48.32 33.68 43.82 26.80
  C 39.53 20.25 32.87 14.49 24.61 16.90
  C 16.67 19.22 12.75 30.40 13.40 37.69
  Q 14.46 49.55 21.97 60.09
  Q 23.68 62.49 26.29 61.14
  Q 26.70 60.92 26.98 60.53
  Q 28.33 58.65 26.97 56.78
  Q 20.76 48.21 19.49 38.25
  Q 18.71 32.14 22.25 26.11
  C 24.82 21.75 29.93 21.17 33.71 24.41
  C 37.61 27.75 42.69 33.37 39.22 38.79
  Q 37.63 41.30 35.41 43.77
  C 34.34 44.96 33.90 46.65 34.90 48.03
  Q 43.59 59.94 57.65 66.88
  C 59.05 67.58 60.83 67.78 61.97 66.48
  C 63.93 64.26 65.85 61.03 68.57 59.89
  Q 71.21 58.79 73.28 59.32
  C 77.02 60.27 82.05 62.70 84.03 66.08
  Q 87.01 71.18 82.23 75.50
  C 75.38 81.69 65.35 81.19 56.70 78.62
  Q 54.35 77.92 52.82 79.84
  Q 52.00 80.85 52.73 82.65
  A 2.48 2.47 88.0 0 0 54.22 84.05
  C 64.69 87.65 76.63 87.69 85.32 80.81
  C 92.21 75.36 93.44 66.03 86.62 59.90
  C 79.46 53.48 68.91 49.50 61.23 58.01
  Q 60.28 59.06 59.38 60.19
  Q 58.90 60.79 58.22 60.43"
/>
<path stroke="#70a5c6" vector-effect="non-scaling-stroke" d="
  M 67.70 24.83
  Q 80.15 30.72 80.83 44.53
  Q 80.92 46.47 82.70 47.24
  Q 83.24 47.47 83.79 47.43
  Q 86.58 47.21 86.72 44.42
  Q 87.06 37.39 82.80 30.48
  Q 74.81 17.55 59.39 17.24
  A 2.54 2.54 0.0 0 0 57.62 17.91
  Q 54.83 20.49 58.21 22.77
  A 2.76 2.70 -26.4 0 0 59.63 23.23
  Q 64.67 23.40 67.70 24.83"
/>
</g>
<path fill="#dff1f9" d="
  M 50.40 0.00
  L 56.73 0.00
  Q 66.45 0.84 73.43 3.84
  Q 103.52 16.79 107.00 50.37
  L 107.00 56.74
  Q 104.54 83.61 82.95 98.18
  Q 71.58 105.86 56.60 107.00
  L 50.28 107.00
  Q 23.16 104.53 8.62 82.63
  Q 1.12 71.31 0.00 56.60
  L 0.00 50.27
  Q 1.55 31.09 13.84 17.58
  Q 28.18 1.80 50.40 0.00
  Z
  M 58.22 60.43
  Q 48.75 55.42 41.33 46.62
  A 0.49 0.48 -44.1 0 1 41.35 45.98
  C 46.47 40.38 48.32 33.68 43.82 26.80
  C 39.53 20.25 32.87 14.49 24.61 16.90
  C 16.67 19.22 12.75 30.40 13.40 37.69
  Q 14.46 49.55 21.97 60.09
  Q 23.68 62.49 26.29 61.14
  Q 26.70 60.92 26.98 60.53
  Q 28.33 58.65 26.97 56.78
  Q 20.76 48.21 19.49 38.25
  Q 18.71 32.14 22.25 26.11
  C 24.82 21.75 29.93 21.17 33.71 24.41
  C 37.61 27.75 42.69 33.37 39.22 38.79
  Q 37.63 41.30 35.41 43.77
  C 34.34 44.96 33.90 46.65 34.90 48.03
  Q 43.59 59.94 57.65 66.88
  C 59.05 67.58 60.83 67.78 61.97 66.48
  C 63.93 64.26 65.85 61.03 68.57 59.89
  Q 71.21 58.79 73.28 59.32
  C 77.02 60.27 82.05 62.70 84.03 66.08
  Q 87.01 71.18 82.23 75.50
  C 75.38 81.69 65.35 81.19 56.70 78.62
  Q 54.35 77.92 52.82 79.84
  Q 52.00 80.85 52.73 82.65
  A 2.48 2.47 88.0 0 0 54.22 84.05
  C 64.69 87.65 76.63 87.69 85.32 80.81
  C 92.21 75.36 93.44 66.03 86.62 59.90
  C 79.46 53.48 68.91 49.50 61.23 58.01
  Q 60.28 59.06 59.38 60.19
  Q 58.90 60.79 58.22 60.43
  Z
  M 67.70 24.83
  Q 80.15 30.72 80.83 44.53
  Q 80.92 46.47 82.70 47.24
  Q 83.24 47.47 83.79 47.43
  Q 86.58 47.21 86.72 44.42
  Q 87.06 37.39 82.80 30.48
  Q 74.81 17.55 59.39 17.24
  A 2.54 2.54 0.0 0 0 57.62 17.91
  Q 54.83 20.49 58.21 22.77
  A 2.76 2.70 -26.4 0 0 59.63 23.23
  Q 64.67 23.40 67.70 24.83
  Z"
/>
<path fill="#005993" d="
  M 59.38 60.19
  Q 60.28 59.06 61.23 58.01
  C 68.91 49.50 79.46 53.48 86.62 59.90
  C 93.44 66.03 92.21 75.36 85.32 80.81
  C 76.63 87.69 64.69 87.65 54.22 84.05
  A 2.48 2.47 88.0 0 1 52.73 82.65
  Q 52.00 80.85 52.82 79.84
  Q 54.35 77.92 56.70 78.62
  C 65.35 81.19 75.38 81.69 82.23 75.50
  Q 87.01 71.18 84.03 66.08
  C 82.05 62.70 77.02 60.27 73.28 59.32
  Q 71.21 58.79 68.57 59.89
  C 65.85 61.03 63.93 64.26 61.97 66.48
  C 60.83 67.78 59.05 67.58 57.65 66.88
  Q 43.59 59.94 34.90 48.03
  C 33.90 46.65 34.34 44.96 35.41 43.77
  Q 37.63 41.30 39.22 38.79
  C 42.69 33.37 37.61 27.75 33.71 24.41
  C 29.93 21.17 24.82 21.75 22.25 26.11
  Q 18.71 32.14 19.49 38.25
  Q 20.76 48.21 26.97 56.78
  Q 28.33 58.65 26.98 60.53
  Q 26.70 60.92 26.29 61.14
  Q 23.68 62.49 21.97 60.09
  Q 14.46 49.55 13.40 37.69
  C 12.75 30.40 16.67 19.22 24.61 16.90
  C 32.87 14.49 39.53 20.25 43.82 26.80
  C 48.32 33.68 46.47 40.38 41.35 45.98
  A 0.49 0.48 -44.1 0 0 41.33 46.62
  Q 48.75 55.42 58.22 60.43
  Q 58.90 60.79 59.38 60.19
  Z"
/>
<path fill="#005993" d="
  M 67.70 24.83
  Q 64.67 23.40 59.63 23.23
  A 2.76 2.70 -26.4 0 1 58.21 22.77
  Q 54.83 20.49 57.62 17.91
  A 2.54 2.54 0.0 0 1 59.39 17.24
  Q 74.81 17.55 82.80 30.48
  Q 87.06 37.39 86.72 44.42
  Q 86.58 47.21 83.79 47.43
  Q 83.24 47.47 82.70 47.24
  Q 80.92 46.47 80.83 44.53
  Q 80.15 30.72 67.70 24.83
  Z"
/>
</svg>
