<?xml version="1.0" encoding="UTF-8" standalone="no"?>
<!DOCTYPE svg PUBLIC "-//W3C//DTD SVG 1.1//EN" "http://www.w3.org/Graphics/SVG/1.1/DTD/svg11.dtd">
<svg xmlns="http://www.w3.org/2000/svg" version="1.1" viewBox="0.00 0.00 67.00 46.00">
<g stroke-width="2.00" fill="none" stroke-linecap="butt">
<path stroke="#4199c8" vector-effect="non-scaling-stroke" d="
  M 46.18 4.11
  C 32.67 -2.90 20.13 1.84 9.10 11.44
  C 5.54 14.54 -1.33 20.45 2.08 25.18
  C 6.94 31.94 16.56 39.39 25.08 42.04
  C 39.71 46.60 53.22 37.44 62.84 26.60
  C 64.81 24.38 65.63 21.12 63.71 18.66
  Q 56.60 9.52 46.18 4.11"
/>
<path stroke="#4199c8" vector-effect="non-scaling-stroke" d="
  M 5.20 23.30
  C 12.69 32.42 24.52 41.42 36.60 39.38
  C 45.82 37.81 54.44 30.90 60.52 23.66
  Q 61.91 22.01 60.55 20.38
  C 50.80 8.73 36.45 -0.50 21.47 7.28
  Q 12.14 12.11 5.19 20.74
  A 2.04 2.03 44.9 0 0 5.20 23.30"
/>
<path stroke="#4199c8" vector-effect="non-scaling-stroke" d="
  M 48.28 22.00
  A 15.28 15.28 0.0 0 0 33.00 6.72
  A 15.28 15.28 0.0 0 0 17.72 22.00
  A 15.28 15.28 0.0 0 0 33.00 37.28
  A 15.28 15.28 0.0 0 0 48.28 22.00"
/>
<path stroke="#4199c8" vector-effect="non-scaling-stroke" d="
  M 44.67 21.99
  A 11.67 11.67 0.0 0 0 33.00 10.32
  A 11.67 11.67 0.0 0 0 21.33 21.99
  A 11.67 11.67 0.0 0 0 33.00 33.66
  A 11.67 11.67 0.0 0 0 44.67 21.99"
/>
<path stroke="#4199c8" vector-effect="non-scaling-stroke" d="
  M 42.52 19.17
  C 38.70 23.51 32.08 17.42 37.41 12.97
  Q 37.88 12.58 37.30 12.36
  C 30.96 10.04 24.26 13.11 22.74 19.79
  C 20.65 29.02 31.30 36.00 38.91 30.61
  Q 44.54 26.63 43.20 19.36
  A 0.39 0.39 0.0 0 0 42.52 19.17"
/>
</g>
<path fill="#7ed3f7" d="
  M 46.18 4.11
  Q 56.60 9.52 63.71 18.66
  C 65.63 21.12 64.81 24.38 62.84 26.60
  C 53.22 37.44 39.71 46.60 25.08 42.04
  C 16.56 39.39 6.94 31.94 2.08 25.18
  C -1.33 20.45 5.54 14.54 9.10 11.44
  C 20.13 1.84 32.67 -2.90 46.18 4.11
  Z
  M 5.20 23.30
  C 12.69 32.42 24.52 41.42 36.60 39.38
  C 45.82 37.81 54.44 30.90 60.52 23.66
  Q 61.91 22.01 60.55 20.38
  C 50.80 8.73 36.45 -0.50 21.47 7.28
  Q 12.14 12.11 5.19 20.74
  A 2.04 2.03 44.9 0 0 5.20 23.30
  Z"
/>
<path fill="#7ed3f7" d="
  M 48.28 22.00
  A 15.28 15.28 0.0 0 1 33.00 37.28
  A 15.28 15.28 0.0 0 1 17.72 22.00
  A 15.28 15.28 0.0 0 1 33.00 6.72
  A 15.28 15.28 0.0 0 1 48.28 22.00
  Z
  M 44.67 21.99
  A 11.67 11.67 0.0 0 0 33.00 10.32
  A 11.67 11.67 0.0 0 0 21.33 21.99
  A 11.67 11.67 0.0 0 0 33.00 33.66
  A 11.67 11.67 0.0 0 0 44.67 21.99
  Z"
/>
<path fill="#7ed3f7" d="
  M 37.41 12.97
  C 32.08 17.42 38.70 23.51 42.52 19.17
  A 0.39 0.39 0.0 0 1 43.20 19.36
  Q 44.54 26.63 38.91 30.61
  C 31.30 36.00 20.65 29.02 22.74 19.79
  C 24.26 13.11 30.96 10.04 37.30 12.36
  Q 37.88 12.58 37.41 12.97
  Z"
/>
</svg>
