<?xml version="1.0" encoding="UTF-8" standalone="no"?>
<!DOCTYPE svg PUBLIC "-//W3C//DTD SVG 1.1//EN" "http://www.w3.org/Graphics/SVG/1.1/DTD/svg11.dtd">
<svg xmlns="http://www.w3.org/2000/svg" version="1.1" viewBox="0.00 0.00 63.00 63.00">
<g stroke-width="2.00" fill="none" stroke-linecap="butt">
<path stroke="#5798c4" vector-effect="non-scaling-stroke" d="
  M 58.38 31.00
  A 26.38 26.38 0.0 0 0 32.00 4.62
  A 26.38 26.38 0.0 0 0 5.62 31.00
  A 26.38 26.38 0.0 0 0 32.00 57.38
  A 26.38 26.38 0.0 0 0 58.38 31.00"
/>
<path stroke="#5798c4" vector-effect="non-scaling-stroke" d="
  M 33.74 18.88
  A 1.63 1.63 0.0 0 0 32.11 17.25
  L 30.39 17.25
  A 1.63 1.63 0.0 0 0 28.76 18.88
  L 28.76 19.12
  A 1.63 1.63 0.0 0 0 30.39 20.75
  L 32.11 20.75
  A 1.63 1.63 0.0 0 0 33.74 19.12
  L 33.74 18.88"
/>
<path stroke="#5798c4" vector-effect="non-scaling-stroke" d="
  M 30.23 30.51
  L 30.24 40.49
  Q 30.24 41.23 29.51 41.23
  L 26.22 41.24
  Q 24.46 41.24 24.23 42.98
  Q 24.11 43.88 25.35 44.66
  A 0.81 0.76 59.9 0 0 25.78 44.79
  L 37.82 44.80
  Q 39.53 44.81 39.73 43.10
  Q 39.77 42.78 39.67 42.48
  Q 39.25 41.23 37.93 41.23
  L 34.51 41.24
  Q 33.77 41.24 33.77 40.50
  L 33.77 28.00
  A 1.77 1.77 0.0 0 0 32.00 26.23
  L 26.12 26.23
  Q 24.38 26.22 24.24 27.96
  Q 24.19 28.67 24.74 29.33
  A 1.10 1.10 0.0 0 0 25.59 29.73
  L 29.51 29.79
  Q 30.23 29.80 30.23 30.51"
/>
</g>
<path fill="#7ed3f7" d="
  M 62.01 31.04
  A 30.00 30.00 0.0 0 1 32.01 61.04
  A 30.00 30.00 0.0 0 1 2.01 31.04
  A 30.00 30.00 0.0 0 1 32.01 1.04
  A 30.00 30.00 0.0 0 1 62.01 31.04
  Z
  M 58.38 31.00
  A 26.38 26.38 0.0 0 0 32.00 4.62
  A 26.38 26.38 0.0 0 0 5.62 31.00
  A 26.38 26.38 0.0 0 0 32.00 57.38
  A 26.38 26.38 0.0 0 0 58.38 31.00
  Z"
/>
<rect fill="#7ed3f7" x="28.76" y="17.25" width="4.98" height="3.50" rx="1.63"/>
<path fill="#7ed3f7" d="
  M 29.51 29.79
  L 25.59 29.73
  A 1.10 1.10 0.0 0 1 24.74 29.33
  Q 24.19 28.67 24.24 27.96
  Q 24.38 26.22 26.12 26.23
  L 32.00 26.23
  A 1.77 1.77 0.0 0 1 33.77 28.00
  L 33.77 40.50
  Q 33.77 41.24 34.51 41.24
  L 37.93 41.23
  Q 39.25 41.23 39.67 42.48
  Q 39.77 42.78 39.73 43.10
  Q 39.53 44.81 37.82 44.80
  L 25.78 44.79
  A 0.81 0.76 59.9 0 1 25.35 44.66
  Q 24.11 43.88 24.23 42.98
  Q 24.46 41.24 26.22 41.24
  L 29.51 41.23
  Q 30.24 41.23 30.24 40.49
  L 30.23 30.51
  Q 30.23 29.80 29.51 29.79
  Z"
/>
</svg>
